<svg id="SvgjsSvg1000" xmlns="http://www.w3.org/2000/svg" version="1.1" xmlns:xlink="http://www.w3.org/1999/xlink" xmlns:svgjs="http://svgjs.com/svgjs" width="1819" height="968.703125"><defs id="SvgjsDefs1001"><marker id="SvgjsMarker1032" markerWidth="14" markerHeight="10" refX="10" refY="5" viewBox="0 0 14 10" orient="auto" markerUnits="userSpaceOnUse" stroke-dasharray="0,0"><path id="SvgjsPath1033" d="M0 0L14 5L0 10L0 0 " fill="#323232" stroke="#323232" stroke-width="1"></path></marker><marker id="SvgjsMarker1109" markerWidth="14" markerHeight="10" refX="10" refY="5" viewBox="0 0 14 10" orient="auto" markerUnits="userSpaceOnUse" stroke-dasharray="0,0"><path id="SvgjsPath1110" d="M0 0L14 5L0 10L0 0 " fill="#323232" stroke="#323232" stroke-width="1"></path></marker><marker id="SvgjsMarker1113" markerWidth="14" markerHeight="10" refX="10" refY="5" viewBox="0 0 14 10" orient="auto" markerUnits="userSpaceOnUse" stroke-dasharray="0,0"><path id="SvgjsPath1114" d="M0 0L14 5L0 10L0 0 " fill="#323232" stroke="#323232" stroke-width="1"></path></marker><marker id="SvgjsMarker1131" markerWidth="14" markerHeight="10" refX="10" refY="5" viewBox="0 0 14 10" orient="auto" markerUnits="userSpaceOnUse" stroke-dasharray="0,0"><path id="SvgjsPath1132" d="M0 0L14 5L0 10L0 0 " fill="#323232" stroke="#323232" stroke-width="1"></path></marker><marker id="SvgjsMarker1147" markerWidth="14" markerHeight="10" refX="10" refY="5" viewBox="0 0 14 10" orient="auto" markerUnits="userSpaceOnUse" stroke-dasharray="0,0"><path id="SvgjsPath1148" d="M0 0L14 5L0 10L0 0 " fill="#323232" stroke="#323232" stroke-width="1"></path></marker><marker id="SvgjsMarker1163" markerWidth="14" markerHeight="10" refX="10" refY="5" viewBox="0 0 14 10" orient="auto" markerUnits="userSpaceOnUse" stroke-dasharray="0,0"><path id="SvgjsPath1164" d="M0 0L14 5L0 10L0 0 " fill="#323232" stroke="#323232" stroke-width="1"></path></marker><marker id="SvgjsMarker1177" markerWidth="14" markerHeight="10" refX="10" refY="5" viewBox="0 0 14 10" orient="auto" markerUnits="userSpaceOnUse" stroke-dasharray="0,0"><path id="SvgjsPath1178" d="M0 0L14 5L0 10L0 0 " fill="#323232" stroke="#323232" stroke-width="1"></path></marker><marker id="SvgjsMarker1189" markerWidth="14" markerHeight="10" refX="10" refY="5" viewBox="0 0 14 10" orient="auto" markerUnits="userSpaceOnUse" stroke-dasharray="0,0"><path id="SvgjsPath1190" d="M0 0L14 5L0 10L0 0 " fill="#323232" stroke="#323232" stroke-width="1"></path></marker><marker id="SvgjsMarker1206" markerWidth="14" markerHeight="10" refX="10" refY="5" viewBox="0 0 14 10" orient="auto" markerUnits="userSpaceOnUse" stroke-dasharray="0,0"><path id="SvgjsPath1207" d="M0 0L14 5L0 10L0 0 " fill="#323232" stroke="#323232" stroke-width="1"></path></marker><marker id="SvgjsMarker1246" markerWidth="14" markerHeight="10" refX="10" refY="5" viewBox="0 0 14 10" orient="auto" markerUnits="userSpaceOnUse" stroke-dasharray="0,0"><path id="SvgjsPath1247" d="M0 0L14 5L0 10L0 0 " fill="#323232" stroke="#323232" stroke-width="1"></path></marker><marker id="SvgjsMarker1263" markerWidth="14" markerHeight="10" refX="10" refY="5" viewBox="0 0 14 10" orient="auto" markerUnits="userSpaceOnUse" stroke-dasharray="0,0"><path id="SvgjsPath1264" d="M0 0L14 5L0 10L0 0 " fill="#323232" stroke="#323232" stroke-width="1"></path></marker><marker id="SvgjsMarker1314" markerWidth="14" markerHeight="10" refX="10" refY="5" viewBox="0 0 14 10" orient="auto" markerUnits="userSpaceOnUse" stroke-dasharray="0,0"><path id="SvgjsPath1315" d="M0 0L14 5L0 10L0 0 " fill="#323232" stroke="#323232" stroke-width="1"></path></marker><marker id="SvgjsMarker1318" markerWidth="14" markerHeight="10" refX="10" refY="5" viewBox="0 0 14 10" orient="auto" markerUnits="userSpaceOnUse" stroke-dasharray="0,0"><path id="SvgjsPath1319" d="M0 0L14 5L0 10L0 0 " fill="#ff0000" stroke="#ff0000" stroke-width="1"></path></marker><marker id="SvgjsMarker1361" markerWidth="14" markerHeight="10" refX="10" refY="5" viewBox="0 0 14 10" orient="auto" markerUnits="userSpaceOnUse" stroke-dasharray="0,0"><path id="SvgjsPath1362" d="M0 0L14 5L0 10L0 0 " fill="#ff0000" stroke="#ff0000" stroke-width="1"></path></marker><marker id="SvgjsMarker1371" markerWidth="14" markerHeight="10" refX="10" refY="5" viewBox="0 0 14 10" orient="auto" markerUnits="userSpaceOnUse" stroke-dasharray="0,0"><path id="SvgjsPath1372" d="M0 0L14 5L0 10L0 0 " fill="#ff0000" stroke="#ff0000" stroke-width="1"></path></marker><marker id="SvgjsMarker1381" markerWidth="14" markerHeight="10" refX="10" refY="5" viewBox="0 0 14 10" orient="auto" markerUnits="userSpaceOnUse" stroke-dasharray="0,0"><path id="SvgjsPath1382" d="M0 0L14 5L0 10L0 0 " fill="#323232" stroke="#323232" stroke-width="1"></path></marker><marker id="SvgjsMarker1391" markerWidth="14" markerHeight="10" refX="10" refY="5" viewBox="0 0 14 10" orient="auto" markerUnits="userSpaceOnUse" stroke-dasharray="0,0"><path id="SvgjsPath1392" d="M0 0L14 5L0 10L0 0 " fill="#323232" stroke="#323232" stroke-width="1"></path></marker><marker id="SvgjsMarker1424" markerWidth="14" markerHeight="10" refX="10" refY="5" viewBox="0 0 14 10" orient="auto" markerUnits="userSpaceOnUse" stroke-dasharray="0,0"><path id="SvgjsPath1425" d="M0 0L14 5L0 10L0 0 " fill="#323232" stroke="#323232" stroke-width="1"></path></marker></defs><g id="svgbackgroundid"><defs></defs><rect id="SvgjsRect1008" width="1819" height="968.703125" fill="#ffffff"></rect></g><g id="SvgjsG1010" transform="translate(260.7514204545487,359.3555871212134)"><path id="SvgjsPath1011" d="M0 0L190 0L190 43.75L0 43.75Z " stroke="rgba(50,50,50,1)" stroke-width="2" fill-opacity="1" fill="#ffffff"></path><g id="SvgjsG1012"><text id="SvgjsText1013" font-family="微软雅黑" text-anchor="middle" font-size="13px" width="170px" fill="#323232" font-weight="400" align="middle" lineHeight="125%" font-style="" opacity="1" y="11.25" transform="rotate(0)"><tspan id="SvgjsTspan1014" dy="16" x="95"><tspan id="SvgjsTspan1015" style="text-decoration:;">handleModuleCreation()</tspan></tspan></text></g></g><g id="SvgjsG1016" transform="translate(49.25142045454936,282.6368371212134)"><path id="SvgjsPath1017" d="M0 0L186 0L186 52.875L0 52.875Z " stroke="rgba(50,50,50,1)" stroke-width="2" fill-opacity="1" fill="#ffffff"></path><g id="SvgjsG1018"><text id="SvgjsText1019" font-family="微软雅黑" text-anchor="middle" font-size="13px" width="166px" fill="#323232" font-weight="400" align="middle" lineHeight="125%" font-style="" opacity="1" y="15.8125" transform="rotate(0)"><tspan id="SvgjsTspan1020" dy="16" x="93"><tspan id="SvgjsTspan1021" style="text-decoration:;">addModuleTree()</tspan></tspan></text></g></g><g id="SvgjsG1022" transform="translate(49.25142045454936,207.26183712121338)"><path id="SvgjsPath1023" d="M0 0L186 0L186 40.375L0 40.375Z " stroke="rgba(50,50,50,1)" stroke-width="2" fill-opacity="1" fill="#ffffff"></path><g id="SvgjsG1024"><text id="SvgjsText1025" font-family="微软雅黑" text-anchor="middle" font-size="13px" width="166px" fill="#323232" font-weight="400" align="middle" lineHeight="125%" font-style="" opacity="1" y="1.5625" transform="rotate(0)"><tspan id="SvgjsTspan1026" dy="16" x="93"><tspan id="SvgjsTspan1027" style="text-decoration:;">addEntry()</tspan></tspan><tspan id="SvgjsTspan1028" dy="16" x="93"><tspan id="SvgjsTspan1029" style="text-decoration:;">_addEntryItem()</tspan></tspan></text></g></g><g id="SvgjsG1030"><path id="SvgjsPath1031" d="M142.25142045454902 248.63683712121338L142.25142045454902 265.1368371212134L142.25142045454902 265.1368371212134L142.25142045454902 279.03683712121335 " stroke="#323232" stroke-width="2" fill="none" marker-end="url(#SvgjsMarker1032)"></path></g><g id="SvgjsG1034" transform="translate(358.7450284090934,116.26183712121156)"><path id="SvgjsPath1035" d="M120.11505681817812 0Q111.11505681817812 0 111.11505681817812 9L111.11505681817812 256.39275568181915Q111.11505681817812 265.39275568181915 98.11505681817812 265.39275568181915Q111.11505681817812 265.39275568181915 111.11505681817812 274.39275568181915L111.11505681817812 521.7855113636383Q111.11505681817812 530.7855113636383 120.11505681817812 530.7855113636383 " stroke="rgba(50,50,50,1)" stroke-width="2" fill="none"></path><path id="SvgjsPath1036" d="M0 0L120.11505681817812 0L120.11505681817812 530.7855113636383L0 530.7855113636383Z " stroke="none" fill="none"></path><g id="SvgjsG1037"><text id="SvgjsText1038" font-family="微软雅黑" text-anchor="end" font-size="13px" width="94px" fill="#323232" font-weight="400" align="middle" lineHeight="125%" font-style="" opacity="1" y="254.76775568181915" transform="rotate(0)"></text></g></g><g id="SvgjsG1039" transform="translate(490.00142045454527,316.2421875)"><path id="SvgjsPath1040" d="M0 0L168.25 0L168.25 49.0078125L0 49.0078125Z " stroke="rgba(50,50,50,1)" stroke-width="2" fill-opacity="1" fill="#ffffff"></path><g id="SvgjsG1041"><text id="SvgjsText1042" font-family="微软雅黑" text-anchor="middle" font-size="13px" width="149px" fill="#323232" font-weight="400" align="middle" lineHeight="125%" font-style="" opacity="1" y="5.87890625" transform="rotate(0)"><tspan id="SvgjsTspan1043" dy="16" x="84.5"><tspan id="SvgjsTspan1044" style="text-decoration:;">_handleModuleBuildAnd</tspan></tspan><tspan id="SvgjsTspan1045" dy="16" x="84.5"><tspan id="SvgjsTspan1046" style="text-decoration:;">Dependencies()</tspan></tspan></text></g></g><g id="SvgjsG1047" transform="translate(619.7059659090928,145.6413014069267)"><path id="SvgjsPath1048" d="M71.04545454545382 0Q63.94090909090844 0 63.94090909090844 9L63.94090909090844 186.24408143939365Q63.94090909090844 195.24408143939365 49.04545454545382 195.24408143939365Q63.94090909090844 195.24408143939365 63.94090909090844 204.24408143939365L63.94090909090844 381.4881628787873Q63.94090909090844 390.4881628787873 71.04545454545382 390.4881628787873 " stroke="rgba(50,50,50,1)" stroke-width="2" fill="none"></path><path id="SvgjsPath1049" d="M0 0L71.04545454545382 0L71.04545454545382 390.4881628787873L0 390.4881628787873Z " stroke="none" fill="none"></path><g id="SvgjsG1050"><text id="SvgjsText1051" font-family="微软雅黑" text-anchor="end" font-size="13px" width="45px" fill="#323232" font-weight="400" align="middle" lineHeight="125%" font-style="" opacity="1" y="184.61908143939365" transform="rotate(0)"></text></g></g><g id="SvgjsG1052" transform="translate(701.2514204545466,171.10949337121292)"><path id="SvgjsPath1053" d="M0 0L178 0L178 53.15625L0 53.15625Z " stroke="rgba(50,50,50,1)" stroke-width="2" fill-opacity="1" fill="#ffffff"></path><g id="SvgjsG1054"><text id="SvgjsText1055" font-family="微软雅黑" text-anchor="middle" font-size="13px" width="158px" fill="#323232" font-weight="400" align="middle" lineHeight="125%" font-style="" opacity="1" y="7.953125" transform="rotate(0)"><tspan id="SvgjsTspan1056" dy="16" x="89"><tspan id="SvgjsTspan1057" style="text-decoration:;">this.buildModule()</tspan></tspan><tspan id="SvgjsTspan1058" dy="16" x="89"><tspan id="SvgjsTspan1059" style="text-decoration:;">this._buildModule()</tspan></tspan></text></g></g><g id="SvgjsG1060" transform="translate(686.2514204545469,125.26183712121247)"><path id="SvgjsPath1061" d="M0 0L202 0L202 52.5703125L0 52.5703125Z " stroke="none" fill="none"></path><g id="SvgjsG1062"><text id="SvgjsText1063" font-family="微软雅黑" text-anchor="middle" font-size="13px" width="202px" fill="#ff0000" font-weight="700" align="middle" lineHeight="125%" font-style="" opacity="1" y="7.66015625" transform="rotate(0)"><tspan id="SvgjsTspan1064" dy="16" x="101"><tspan id="SvgjsTspan1065" style="text-decoration:;">从NormalModuleFactory转化为</tspan></tspan><tspan id="SvgjsTspan1066" dy="16" x="101"><tspan id="SvgjsTspan1067" style="text-decoration:;">NormalModule</tspan></tspan></text></g></g><g id="SvgjsG1068" transform="translate(919.7514204545464,25.011837121211443)"><path id="SvgjsPath1069" d="M0 0L734 0L734 327.5625L0 327.5625Z " stroke-dasharray="10,6" stroke="rgba(50,50,50,1)" stroke-width="2" fill-opacity="1" fill="#ffcdd2"></path><g id="SvgjsG1070"><text id="SvgjsText1071" font-family="微软雅黑" text-anchor="start" font-size="20px" width="714px" fill="#ff0000" font-weight="400" align="top" lineHeight="125%" font-style="" opacity="1" y="-5.5" transform="rotate(0)"><tspan id="SvgjsTspan1072" dy="25" x="10"><tspan id="SvgjsTspan1073" style="text-decoration:;">buildMode</tspan></tspan></text></g></g><g id="SvgjsG1074" transform="translate(943.7514204545462,169.90246212121292)"><path id="SvgjsPath1075" d="M0 0L150 0L150 45.46875L0 45.46875Z " stroke="rgba(50,50,50,1)" stroke-width="2" fill-opacity="1" fill="#ffffff"></path><g id="SvgjsG1076"><text id="SvgjsText1077" font-family="微软雅黑" text-anchor="middle" font-size="13px" width="130px" fill="#323232" font-weight="400" align="middle" lineHeight="125%" font-style="" opacity="1" y="12.109375" transform="rotate(0)"><tspan id="SvgjsTspan1078" dy="16" x="75"><tspan id="SvgjsTspan1079" style="text-decoration:;">NormalModule.build()</tspan></tspan></text></g></g><g id="SvgjsG1080" transform="translate(1129.251420454544,61.51183712121167)"><path id="SvgjsPath1081" d="M0 0L183.5 0L183.5 27.5L0 27.5Z " stroke="rgba(50,50,50,1)" stroke-width="2" fill-opacity="1" fill="#ffffff"></path><g id="SvgjsG1082"><text id="SvgjsText1083" font-family="微软雅黑" text-anchor="middle" font-size="13px" width="164px" fill="#323232" font-weight="400" align="middle" lineHeight="125%" font-style="" opacity="1" y="3.125" transform="rotate(0)"><tspan id="SvgjsTspan1084" dy="16" x="92"><tspan id="SvgjsTspan1085" style="text-decoration:;">NormalModule._doBuild()</tspan></tspan></text></g></g><g id="SvgjsG1086" transform="translate(1129.751420454544,131.7618371212127)"><path id="SvgjsPath1087" d="M0 0L182.5 0L182.5 63.09375L0 63.09375Z " stroke="rgba(50,50,50,1)" stroke-width="2" fill-opacity="1" fill="#ffffff"></path><g id="SvgjsG1088"><text id="SvgjsText1089" font-family="微软雅黑" text-anchor="middle" font-size="13px" width="163px" fill="#323232" font-weight="400" align="middle" lineHeight="125%" font-style="" opacity="1" y="4.921875" transform="rotate(0)"><tspan id="SvgjsTspan1090" dy="16" x="91.5"><tspan id="SvgjsTspan1091" style="text-decoration:;">result =</tspan></tspan><tspan id="SvgjsTspan1092" dy="16" x="91.5"><tspan id="SvgjsTspan1093" style="text-decoration:;">this.parser.parse(this._ast </tspan></tspan><tspan id="SvgjsTspan1094" dy="16" x="91.5"><tspan id="SvgjsTspan1095" style="text-decoration:;">|| source)</tspan></tspan></text></g></g><g id="SvgjsG1096" transform="translate(1126.251420454544,221.44152462121338)"><path id="SvgjsPath1097" d="M0 0L189.5 0L189.5 41.5L0 41.5Z " stroke="rgba(50,50,50,1)" stroke-width="2" fill-opacity="1" fill="#ffffff"></path><g id="SvgjsG1098"><text id="SvgjsText1099" font-family="微软雅黑" text-anchor="middle" font-size="13px" width="170px" fill="#323232" font-weight="400" align="middle" lineHeight="125%" font-style="" opacity="1" y="10.125" transform="rotate(0)"><tspan id="SvgjsTspan1100" dy="16" x="95"><tspan id="SvgjsTspan1101" style="text-decoration:;">handleParseResult(result)</tspan></tspan></text></g></g><g id="SvgjsG1102" transform="translate(1027.751420454545,36.26183712121144)"><path id="SvgjsPath1103" d="M93.5 0Q84.5 0 84.5 9L84.5 143.53125Q84.5 152.53125 71.5 152.53125Q84.5 152.53125 84.5 161.53125L84.5 296.0625Q84.5 305.0625 93.5 305.0625 " stroke="rgba(50,50,50,1)" stroke-width="2" fill="none"></path><path id="SvgjsPath1104" d="M0 0L93.5 0L93.5 305.0625L0 305.0625Z " stroke="none" fill="none"></path><g id="SvgjsG1105"><text id="SvgjsText1106" font-family="微软雅黑" text-anchor="end" font-size="13px" width="67px" fill="#323232" font-weight="400" align="middle" lineHeight="125%" font-style="" opacity="1" y="141.90625" transform="rotate(0)"></text></g></g><g id="SvgjsG1107"><path id="SvgjsPath1108" d="M1221.0014204545428 90.01183712121212L1221.0014204545428 110.38683712121235L1221.0014204545428 110.38683712121235L1221.0014204545428 128.1618371212127 " stroke="#323232" stroke-width="2" fill="none" marker-end="url(#SvgjsMarker1109)"></path></g><g id="SvgjsG1111"><path id="SvgjsPath1112" d="M1221.0014204545428 195.85558712121315L1221.0014204545428 208.14855587121315L1221.0014204545428 208.14855587121315L1221.0014204545428 217.84152462121335 " stroke="#323232" stroke-width="2" fill="none" marker-end="url(#SvgjsMarker1113)"></path></g><g id="SvgjsG1115" transform="translate(1348.2514204545414,34.26183712121144)"><path id="SvgjsPath1116" d="M0 0L266.75 0L282.75 16L282.75 82L0 82L0 0Z " stroke="none" fill-opacity="1" fill="#fff9c4"></path><path id="SvgjsPath1117" d="M266.75 0L266.75 16L282.75 16Z " stroke="none" fill-opacity="1" fill="#cdcdcd"></path><path id="SvgjsPath1118" d="M0 0L266.75 0L282.75 16L282.75 82L0 82L0 0Z " stroke="none" fill="none"></path><g id="SvgjsG1119"><text id="SvgjsText1120" font-family="微软雅黑" text-anchor="start" font-size="13px" width="263px" fill="#323232" font-weight="400" align="top" lineHeight="125%" font-style="" opacity="1" y="7.375" transform="rotate(0)"><tspan id="SvgjsTspan1121" dy="16" x="10"><tspan id="SvgjsTspan1122" style="text-decoration:;">1. runLoaders()：读取文件内容，拼凑parse</tspan></tspan><tspan id="SvgjsTspan1123" dy="16" x="10"><tspan id="SvgjsTspan1124" style="text-decoration:;">的相关参数</tspan></tspan><tspan id="SvgjsTspan1125" dy="16" x="10"><tspan id="SvgjsTspan1126" style="text-decoration:;">2. processResult()：处理sourceMap逻辑，</tspan></tspan><tspan id="SvgjsTspan1127" dy="16" x="10"><tspan id="SvgjsTspan1128" style="text-decoration:;">初始化this._ast</tspan></tspan></text></g></g><g id="SvgjsG1129"><path id="SvgjsPath1130" d="M1348.2514204545414 75.2618371212119L1330.5014204545414 75.2618371212119L1330.5014204545414 75.2618371212119L1316.3514204545415 75.2618371212119 " stroke="#323232" stroke-width="2" fill="none" marker-end="url(#SvgjsMarker1131)"></path></g><g id="SvgjsG1133" transform="translate(1348.2514204545414,125.26183712121247)"><path id="SvgjsPath1134" d="M0 0L271.75 0L287.75 16L287.75 76.09375L0 76.09375L0 0Z " stroke="none" fill-opacity="1" fill="#fff9c4"></path><path id="SvgjsPath1135" d="M271.75 0L271.75 16L287.75 16Z " stroke="none" fill-opacity="1" fill="#cdcdcd"></path><path id="SvgjsPath1136" d="M0 0L271.75 0L287.75 16L287.75 76.09375L0 76.09375L0 0Z " stroke="none" fill="none"></path><g id="SvgjsG1137"><text id="SvgjsText1138" font-family="微软雅黑" text-anchor="start" font-size="13px" width="268px" fill="#323232" font-weight="400" align="middle" lineHeight="125%" font-style="" opacity="1" y="11.421875" transform="rotate(0)"><tspan id="SvgjsTspan1139" dy="16" x="10"><tspan id="SvgjsTspan1140" style="text-decoration:;">JavascriptParser._parse</tspan></tspan><tspan id="SvgjsTspan1141" dy="16" x="10"><tspan id="SvgjsTspan1142" style="text-decoration:;">内部使用parser=require("acorn")</tspan></tspan><tspan id="SvgjsTspan1143" dy="16" x="10"><tspan id="SvgjsTspan1144" style="text-decoration:;">然后进行parser.parse(code, parserOptions)</tspan></tspan></text></g></g><g id="SvgjsG1145"><path id="SvgjsPath1146" d="M1348.2514204545414 163.30871212121292L1330.2514204545414 163.30871212121292L1330.2514204545414 163.30871212121292L1315.8514204545415 163.30871212121292 " stroke="#323232" stroke-width="2" fill="none" marker-end="url(#SvgjsMarker1147)"></path></g><g id="SvgjsG1149" transform="translate(1195.751420454543,186.26183712121315)"><path id="SvgjsPath1150" d="M0 0L120 0L120 40L0 40Z " stroke="none" fill="none"></path><g id="SvgjsG1151"><text id="SvgjsText1152" font-family="微软雅黑" text-anchor="middle" font-size="13px" width="120px" fill="#323232" font-weight="400" align="middle" lineHeight="125%" font-style="" opacity="1" y="9.375" transform="rotate(0)"><tspan id="SvgjsTspan1153" dy="16" x="60"><tspan id="SvgjsTspan1154" style="text-decoration:;">传递result</tspan></tspan></text></g></g><g id="SvgjsG1155" transform="translate(1126.251420454544,294.42589962121383)"><path id="SvgjsPath1156" d="M0 0L189.5 0L189.5 36L0 36Z " stroke="rgba(50,50,50,1)" stroke-width="2" fill-opacity="1" fill="#ffffff"></path><g id="SvgjsG1157"><text id="SvgjsText1158" font-family="微软雅黑" text-anchor="middle" font-size="13px" width="170px" fill="#323232" font-weight="400" align="middle" lineHeight="125%" font-style="" opacity="1" y="7.375" transform="rotate(0)"><tspan id="SvgjsTspan1159" dy="16" x="95"><tspan id="SvgjsTspan1160" style="text-decoration:;">return handleBuildDone()</tspan></tspan></text></g></g><g id="SvgjsG1161"><path id="SvgjsPath1162" d="M1221.0014204545428 263.94152462121383L1221.0014204545428 278.68371212121383L1221.0014204545428 278.68371212121383L1221.0014204545428 290.8258996212138 " stroke="#323232" stroke-width="2" fill="none" marker-end="url(#SvgjsMarker1163)"></path></g><g id="SvgjsG1165" transform="translate(1348.2514204545414,212.79308712121338)"><path id="SvgjsPath1166" d="M0 0L271.75 0L287.75 16L287.75 58.796875L0 58.796875L0 0Z " stroke="none" fill-opacity="1" fill="#fff9c4"></path><path id="SvgjsPath1167" d="M271.75 0L271.75 16L287.75 16Z " stroke="none" fill-opacity="1" fill="#cdcdcd"></path><path id="SvgjsPath1168" d="M0 0L271.75 0L287.75 16L287.75 58.796875L0 58.796875L0 0Z " stroke="none" fill="none"></path><g id="SvgjsG1169"><text id="SvgjsText1170" font-family="微软雅黑" text-anchor="start" font-size="13px" width="268px" fill="#323232" font-weight="400" align="middle" lineHeight="125%" font-style="" opacity="1" y="10.7734375" transform="rotate(0)"><tspan id="SvgjsTspan1171" dy="16" x="10"><tspan id="SvgjsTspan1172" style="text-decoration:;">1. this.dependencies.sort()</tspan></tspan><tspan id="SvgjsTspan1173" dy="16" x="10"><tspan id="SvgjsTspan1174" style="text-decoration:;">2. this._initBuildHash()</tspan></tspan></text></g></g><g id="SvgjsG1175"><path id="SvgjsPath1176" d="M1348.2514204545414 242.1915246212136L1332.0014204545414 242.1915246212136L1332.0014204545414 242.1915246212136L1319.3514204545415 242.1915246212136 " stroke="#323232" stroke-width="2" fill="none" marker-end="url(#SvgjsMarker1177)"></path></g><g id="SvgjsG1179" transform="translate(1348.2514204545414,283.02746212121383)"><path id="SvgjsPath1180" d="M0 0L271.75 0L287.75 16L287.75 58.796875L0 58.796875L0 0Z " stroke="none" fill-opacity="1" fill="#fff9c4"></path><path id="SvgjsPath1181" d="M271.75 0L271.75 16L287.75 16Z " stroke="none" fill-opacity="1" fill="#cdcdcd"></path><path id="SvgjsPath1182" d="M0 0L271.75 0L287.75 16L287.75 58.796875L0 58.796875L0 0Z " stroke="none" fill="none"></path><g id="SvgjsG1183"><text id="SvgjsText1184" font-family="微软雅黑" text-anchor="start" font-size="13px" width="268px" fill="#323232" font-weight="400" align="middle" lineHeight="125%" font-style="" opacity="1" y="18.7734375" transform="rotate(0)"><tspan id="SvgjsTspan1185" dy="16" x="10"><tspan id="SvgjsTspan1186" style="text-decoration:;">compilation.fileSystemInfo.createSnapshot()</tspan></tspan></text></g></g><g id="SvgjsG1187"><path id="SvgjsPath1188" d="M1348.2514204545414 312.42589962121406L1332.0014204545414 312.42589962121406L1332.0014204545414 312.42589962121406L1319.3514204545415 312.42589962121406 " stroke="#323232" stroke-width="2" fill="none" marker-end="url(#SvgjsMarker1189)"></path></g><g id="SvgjsG1191" transform="translate(810.7514204545475,25.011837121211443)"><path id="SvgjsPath1192" d="M101.5 0Q92.5 0 92.5 9L92.5 162.1796875Q92.5 171.1796875 79.5 171.1796875Q92.5 171.1796875 92.5 180.1796875L92.5 333.359375Q92.5 342.359375 101.5 342.359375 " stroke="rgba(50,50,50,1)" stroke-width="2" fill="none"></path><path id="SvgjsPath1193" d="M0 0L101.5 0L101.5 342.359375L0 342.359375Z " stroke="none" fill="none"></path><g id="SvgjsG1194"><text id="SvgjsText1195" font-family="微软雅黑" text-anchor="end" font-size="13px" width="75px" fill="#323232" font-weight="400" align="middle" lineHeight="125%" font-style="" opacity="1" y="160.5546875" transform="rotate(0)"></text></g></g><g id="SvgjsG1196" transform="translate(690.7514204545466,452.37121212121383)"><path id="SvgjsPath1197" d="M0 0L289.25 0L289.25 61L0 61Z " stroke="rgba(50,50,50,1)" stroke-width="2" fill-opacity="1" fill="#ffffff"></path><g id="SvgjsG1198"><text id="SvgjsText1199" font-family="微软雅黑" text-anchor="middle" font-size="13px" width="270px" fill="#323232" font-weight="400" align="middle" lineHeight="125%" font-style="" opacity="1" y="11.875" transform="rotate(0)"><tspan id="SvgjsTspan1200" dy="16" x="145"><tspan id="SvgjsTspan1201" style="text-decoration:;fill: rgb(255, 0, 0);text-decoration: underline;">this.processModuleDependencies(module):</tspan></tspan><tspan id="SvgjsTspan1202" dy="16" x="145"><tspan id="SvgjsTspan1203" style="text-decoration:;">this._processModuleDependencies(module)</tspan></tspan></text></g></g><g id="SvgjsG1204"><path id="SvgjsPath1205" d="M790.2514204545473 225.26574337121338L790.2514204545473 338.3184777462136L835.3764204545475 338.3184777462136L835.3764204545475 448.7712121212138 " stroke="#323232" stroke-width="2" fill="none" marker-end="url(#SvgjsMarker1206)"></path></g><g id="SvgjsG1208" transform="translate(1013.8764204545453,375.15246212121383)"><path id="SvgjsPath1209" d="M0 0L499 0L499 229L0 229Z " stroke="rgba(50,50,50,1)" stroke-width="2" fill-opacity="1" fill="#ffffff"></path><g id="SvgjsG1210"><text id="SvgjsText1211" font-family="微软雅黑" text-anchor="start" font-size="13px" width="479px" fill="#323232" font-weight="400" align="middle" lineHeight="125%" font-style="" opacity="1" y="7.875" transform="rotate(0)"><tspan id="SvgjsTspan1212" dy="16" x="10"><tspan id="SvgjsTspan1213" style="text-decoration:;">const queue = [module];</tspan></tspan><tspan id="SvgjsTspan1214" dy="16" x="10"><tspan id="SvgjsTspan1215" style="text-decoration:;">do {</tspan></tspan><tspan id="SvgjsTspan1216" dy="16" x="10"><tspan id="SvgjsTspan1217" style="text-decoration:;">    const block = queue.pop();</tspan></tspan><tspan id="SvgjsTspan1218" dy="16" x="10"><tspan id="SvgjsTspan1219" style="text-decoration:;">    if (block.dependencies) {</tspan></tspan><tspan id="SvgjsTspan1220" dy="16" x="10"><tspan id="SvgjsTspan1221" style="text-decoration:;">        currentBlock = block;</tspan></tspan><tspan id="SvgjsTspan1222" dy="16" x="10"><tspan id="SvgjsTspan1223" style="text-decoration:;">        let i = 0;</tspan></tspan><tspan id="SvgjsTspan1224" dy="16" x="10"><tspan id="SvgjsTspan1225" style="text-decoration:;">        for (const dep of block.dependencies) processDependency(dep, i++);</tspan></tspan><tspan id="SvgjsTspan1226" dy="16" x="10"><tspan id="SvgjsTspan1227" style="text-decoration:;">    }</tspan></tspan><tspan id="SvgjsTspan1228" dy="16" x="10"><tspan id="SvgjsTspan1229" style="text-decoration:;">    if (block.blocks) {</tspan></tspan><tspan id="SvgjsTspan1230" dy="16" x="10"><tspan id="SvgjsTspan1231" style="text-decoration:;">        for (const b of block.blocks)</tspan></tspan><tspan id="SvgjsTspan1232" dy="16" x="10"><tspan id="SvgjsTspan1233" style="text-decoration:;">            queue.push(b);</tspan></tspan><tspan id="SvgjsTspan1234" dy="16" x="10"><tspan id="SvgjsTspan1235" style="text-decoration:;">    }</tspan></tspan><tspan id="SvgjsTspan1236" dy="16" x="10"><tspan id="SvgjsTspan1237" style="text-decoration:;">} while (queue.length !== 0);</tspan></tspan></text></g></g><g id="SvgjsG1238" transform="translate(1066.188920454545,640.03125)"><path id="SvgjsPath1239" d="M0 0L394.375 0L394.375 62.390625L0 62.390625Z " stroke="rgba(50,50,50,1)" stroke-width="2" fill-opacity="1" fill="#ffffff"></path><g id="SvgjsG1240"><text id="SvgjsText1241" font-family="微软雅黑" text-anchor="middle" font-size="13px" width="375px" fill="#323232" font-weight="400" align="middle" lineHeight="125%" font-style="" opacity="1" y="20.5703125" transform="rotate(0)"><tspan id="SvgjsTspan1242" dy="16" x="197.5"><tspan id="SvgjsTspan1243" style="text-decoration:;">if (--inProgressSorting === 0) onDependenciesSorted()</tspan></tspan></text></g></g><g id="SvgjsG1244"><path id="SvgjsPath1245" d="M1263.376420454542 605.1524621212138L1263.376420454542 622.0918560606069L1263.3764204545425 622.0918560606069L1263.3764204545425 636.43125 " stroke="#323232" stroke-width="2" fill="none" marker-end="url(#SvgjsMarker1246)"></path></g><g id="SvgjsG1248" transform="translate(1560.2514204545414,587.25)"><path id="SvgjsPath1249" d="M0 0L188 0L204 16L204 57.78125L0 57.78125L0 0Z " stroke="none" fill-opacity="1" fill="#fff9c4"></path><path id="SvgjsPath1250" d="M188 0L188 16L204 16Z " stroke="none" fill-opacity="1" fill="#cdcdcd"></path><path id="SvgjsPath1251" d="M0 0L188 0L204 16L204 57.78125L0 57.78125L0 0Z " stroke="none" fill="none"></path><g id="SvgjsG1252"><text id="SvgjsText1253" font-family="微软雅黑" text-anchor="middle" font-size="13px" width="184px" fill="#323232" font-weight="400" align="middle" lineHeight="125%" font-style="" opacity="1" y="2.265625" transform="rotate(0)"><tspan id="SvgjsTspan1254" dy="16" x="102"><tspan id="SvgjsTspan1255" style="text-decoration:;">每次处理一个依赖</tspan></tspan><tspan id="SvgjsTspan1256" dy="16" x="102"><tspan id="SvgjsTspan1257" style="text-decoration:;">processDependency()，都会</tspan></tspan><tspan id="SvgjsTspan1258" dy="16" x="102"><tspan id="SvgjsTspan1259" style="text-decoration:;">进行</tspan><tspan id="SvgjsTspan1260" style="text-decoration:;font-size: inherit;">--inProgressSorting</tspan></tspan></text></g></g><g id="SvgjsG1261"><path id="SvgjsPath1262" d="M1560.2514204545414 616.140625L1414.0241477272707 616.140625L1414.0241477272707 616.5899621212113L1267.796875 616.5899621212113 " stroke="#323232" stroke-width="2" fill="none" marker-end="url(#SvgjsMarker1263)"></path></g><g id="SvgjsG1265" transform="translate(1013.8764204545453,734.1993371212138)"><path id="SvgjsPath1266" d="M0 0L499 0L499 162.171875L0 162.171875Z " stroke="rgba(50,50,50,1)" stroke-width="2" fill-opacity="1" fill="#ffffff"></path><g id="SvgjsG1267"><text id="SvgjsText1268" font-family="微软雅黑" text-anchor="start" font-size="13px" width="479px" fill="#323232" font-weight="400" align="middle" lineHeight="125%" font-style="" opacity="1" y="6.4609375" transform="rotate(0)"><tspan id="SvgjsTspan1269" dy="16" x="10"><tspan id="SvgjsTspan1270" style="text-decoration:;">const onDependenciesSorted = err =&gt; {</tspan></tspan><tspan id="SvgjsTspan1271" dy="16" x="10"><tspan id="SvgjsTspan1272" style="text-decoration:;">    for (const item of sortedDependencies) {</tspan></tspan><tspan id="SvgjsTspan1273" dy="16" x="10"><tspan id="SvgjsTspan1274" style="text-decoration:;">        inProgressTransitive++;</tspan></tspan><tspan id="SvgjsTspan1275" dy="16" x="10"><tspan id="SvgjsTspan1276" style="text-decoration:;">        this.handleModuleCreation(item, err =&gt; {</tspan></tspan><tspan id="SvgjsTspan1277" dy="16" x="10"><tspan id="SvgjsTspan1278" style="text-decoration:;">            if (--inProgressTransitive === 0) onTransitiveTasksFinished();</tspan></tspan><tspan id="SvgjsTspan1279" dy="16" x="10"><tspan id="SvgjsTspan1280" style="text-decoration:;">        });</tspan></tspan><tspan id="SvgjsTspan1281" dy="16" x="10"><tspan id="SvgjsTspan1282" style="text-decoration:;">    }</tspan></tspan><tspan id="SvgjsTspan1283" dy="16" x="10"><tspan id="SvgjsTspan1284" style="text-decoration:;">    if (--inProgressTransitive === 0) onTransitiveTasksFinished();</tspan></tspan><tspan id="SvgjsTspan1285" dy="16" x="10"><tspan id="SvgjsTspan1286" style="text-decoration:;">}</tspan></tspan></text></g></g><g id="SvgjsG1287" transform="translate(1546.0014204545414,849.7149621212143)"><path id="SvgjsPath1288" d="M0 0L247.5 0L247.5 64L0 64Z " stroke="rgba(50,50,50,1)" stroke-width="2" fill-opacity="1" fill="#ffffff"></path><g id="SvgjsG1289"><text id="SvgjsText1290" font-family="微软雅黑" text-anchor="start" font-size="13px" width="228px" fill="#323232" font-weight="400" align="middle" lineHeight="125%" font-style="" opacity="1" y="5.375" transform="rotate(0)"><tspan id="SvgjsTspan1291" dy="16" x="10"><tspan id="SvgjsTspan1292" style="text-decoration:;">2. 处理完成所有依赖后，回调最最外层</tspan></tspan><tspan id="SvgjsTspan1293" dy="16" x="10"><tspan id="SvgjsTspan1294" style="text-decoration:;">的handleModuleCreate()，结束make</tspan></tspan><tspan id="SvgjsTspan1295" dy="16" x="10"><tspan id="SvgjsTspan1296" style="text-decoration:;">阶段，启动seal阶段</tspan></tspan></text></g></g><g id="SvgjsG1297" transform="translate(1546.0014204545414,710.7149621212143)"><path id="SvgjsPath1298" d="M0 0L247.5 0L247.5 64L0 64Z " stroke="rgba(50,50,50,1)" stroke-width="2" fill-opacity="1" fill="#ffffff"></path><g id="SvgjsG1299"><text id="SvgjsText1300" font-family="微软雅黑" text-anchor="start" font-size="13px" width="228px" fill="#323232" font-weight="400" align="middle" lineHeight="125%" font-style="" opacity="1" y="13.375" transform="rotate(0)"><tspan id="SvgjsTspan1301" dy="16" x="10"><tspan id="SvgjsTspan1302" style="text-decoration:;">1.每次</tspan><tspan id="SvgjsTspan1303" style="text-decoration:;fill: rgb(255, 0, 0);font-weight: bold;">handleModuleCreate()</tspan><tspan id="SvgjsTspan1304" style="text-decoration:;">会递归再</tspan></tspan><tspan id="SvgjsTspan1305" dy="16" x="10"><tspan id="SvgjsTspan1306" style="text-decoration:;">处理自己的依赖</tspan></tspan></text></g></g><g id="SvgjsG1307" transform="translate(1422.2514204545414,707.7149621212143)"><path id="SvgjsPath1308" d="M118 0Q109 0 109 9L109 95.5Q109 104.5 96 104.5Q109 104.5 109 113.5L109 200Q109 209 118 209 " stroke="rgba(50,50,50,1)" stroke-width="2" fill="none"></path><path id="SvgjsPath1309" d="M0 0L118 0L118 209L0 209Z " stroke="none" fill="none"></path><g id="SvgjsG1310"><text id="SvgjsText1311" font-family="微软雅黑" text-anchor="end" font-size="13px" width="91px" fill="#323232" font-weight="400" align="middle" lineHeight="125%" font-style="" opacity="1" y="93.875" transform="rotate(0)"></text></g></g><g id="SvgjsG1312"><path id="SvgjsPath1313" d="M1669.7514204545414 775.7149621212143L1669.7514204545414 812.2149621212143L1669.7514204545414 812.2149621212143L1669.7514204545414 846.1149621212143 " stroke="#323232" stroke-width="2" fill="none" marker-end="url(#SvgjsMarker1314)"></path></g><g id="SvgjsG1316"><path id="SvgjsPath1317" d="M1669.7514204545414 914.7149621212143L1669.7514204545414 943.7149621212143L355.75142045454857 943.7149621212143L355.75142045454857 406.7055871212134 " stroke-dasharray="8,5" stroke="#ff0000" stroke-width="2" fill="none" marker-end="url(#SvgjsMarker1318)"></path></g><g id="SvgjsG1320" transform="translate(205.0014204545489,411.6524621212134)"><path id="SvgjsPath1321" d="M0 0L152 0L152 79.9375L0 79.9375Z " stroke="none" fill="none"></path><g id="SvgjsG1322"><text id="SvgjsText1323" font-family="微软雅黑" text-anchor="middle" font-size="13px" width="152px" fill="#ff0000" font-weight="400" align="middle" lineHeight="125%" font-style="" opacity="1" y="21.34375" transform="rotate(0)"><tspan id="SvgjsTspan1324" dy="16" x="76"><tspan id="SvgjsTspan1325" style="text-decoration:;">callback回调最外层的</tspan></tspan><tspan id="SvgjsTspan1326" dy="16" x="76"><tspan id="SvgjsTspan1327" style="text-decoration:;">handleModuleCreate</tspan></tspan></text></g></g><g id="SvgjsG1328" transform="translate(260.7514204545487,215.24621212121338)"><path id="SvgjsPath1329" d="M0 0L190 0L190 90.90625L0 90.90625Z " stroke="rgba(50,50,50,1)" stroke-width="2" fill-opacity="1" fill="#ffffff"></path><g id="SvgjsG1330"><text id="SvgjsText1331" font-family="微软雅黑" text-anchor="middle" font-size="13px" width="170px" fill="#323232" font-weight="400" align="middle" lineHeight="125%" font-style="" opacity="1" y="10.828125" transform="rotate(0)"><tspan id="SvgjsTspan1332" dy="16" x="95"><tspan id="SvgjsTspan1333" style="text-decoration:;">拿到对应的moduleFactory，</tspan></tspan><tspan id="SvgjsTspan1334" dy="16" x="95"><tspan id="SvgjsTspan1335" style="text-decoration:;">可以为</tspan></tspan><tspan id="SvgjsTspan1336" dy="16" x="95"><tspan id="SvgjsTspan1337" style="text-decoration:;">NormalModuleFactory或者</tspan></tspan><tspan id="SvgjsTspan1338" dy="16" x="95"><tspan id="SvgjsTspan1339" style="text-decoration:;">ContextMenuFactory</tspan></tspan></text></g></g><g id="SvgjsG1340" transform="translate(158.00142045454902,207.90246212121338)"><path id="SvgjsPath1341" d="M104 0Q95 0 95 9L95 91.125Q95 100.125 82 100.125Q95 100.125 95 109.125L95 191.25Q95 200.25 104 200.25 " stroke="rgba(50,50,50,1)" stroke-width="2" fill="none"></path><path id="SvgjsPath1342" d="M0 0L104 0L104 200.25L0 200.25Z " stroke="none" fill="none"></path><g id="SvgjsG1343"><text id="SvgjsText1344" font-family="微软雅黑" text-anchor="end" font-size="13px" width="77px" fill="#323232" font-weight="400" align="middle" lineHeight="125%" font-style="" opacity="1" y="89.5" transform="rotate(0)"></text></g></g><g id="SvgjsG1345" transform="translate(67.00142045454936,28.40246212121417)"><path id="SvgjsPath1346" d="M0 0L383.75 0L383.75 101.0625L0 101.0625Z " stroke="rgba(50,50,50,1)" stroke-width="2" fill-opacity="1" fill="#ffffff"></path><g id="SvgjsG1347"><text id="SvgjsText1348" font-family="微软雅黑" text-anchor="start" font-size="13px" width="364px" fill="#323232" font-weight="400" align="middle" lineHeight="125%" font-style="" opacity="1" y="7.90625" transform="rotate(0)"><tspan id="SvgjsTspan1349" dy="16" x="10"><tspan id="SvgjsTspan1350" style="text-decoration:;">compiler.hooks.make.tapAsync("EntryPlugin", (...) =&gt; {</tspan></tspan><tspan id="SvgjsTspan1351" dy="16" x="10"><tspan id="SvgjsTspan1352" style="text-decoration:;">    compilation.addEntry(....=&gt; {</tspan></tspan><tspan id="SvgjsTspan1353" dy="16" x="10"><tspan id="SvgjsTspan1354" style="text-decoration:;">        callback(err);</tspan></tspan><tspan id="SvgjsTspan1355" dy="16" x="10"><tspan id="SvgjsTspan1356" style="text-decoration:;">    });</tspan></tspan><tspan id="SvgjsTspan1357" dy="16" x="10"><tspan id="SvgjsTspan1358" style="text-decoration:;">});</tspan></tspan></text></g></g><g id="SvgjsG1359"><path id="SvgjsPath1360" d="M204.0014204545489 451.6212121212134L142.25142045454902 451.6212121212134L142.25142045454902 339.1118371212134 " stroke-dasharray="8,5" stroke="#ff0000" stroke-width="2" fill="none" marker-end="url(#SvgjsMarker1361)"></path></g><g id="SvgjsG1363" transform="translate(55.00142045454936,345.3399621212134)"><path id="SvgjsPath1364" d="M0 0L83 0L83 42.8125L0 42.8125Z " stroke="none" fill="none"></path><g id="SvgjsG1365"><text id="SvgjsText1366" font-family="微软雅黑" text-anchor="middle" font-size="13px" width="83px" fill="#ff0000" font-weight="400" align="middle" lineHeight="125%" font-style="" opacity="1" y="10.78125" transform="rotate(0)"><tspan id="SvgjsTspan1367" dy="16" x="41.5"><tspan id="SvgjsTspan1368" style="text-decoration:;">callback回调</tspan></tspan></text></g></g><g id="SvgjsG1369"><path id="SvgjsPath1370" d="M54.00142045454936 366.7462121212134L25.00142045454936 366.7462121212134L25.00142045454936 78.93371212121383L63.40142045454937 78.93371212121383 " stroke-dasharray="8,5" stroke="#ff0000" stroke-width="2" fill="none" marker-end="url(#SvgjsMarker1371)"></path></g><g id="SvgjsG1373" transform="translate(125.00142045454913,244.80871212121338)"><path id="SvgjsPath1374" d="M0 0L120 0L120 40L0 40Z " stroke="none" fill="none"></path><g id="SvgjsG1375"><text id="SvgjsText1376" font-family="微软雅黑" text-anchor="middle" font-size="13px" width="120px" fill="#ff0000" font-weight="400" align="middle" lineHeight="125%" font-style="" opacity="1" y="9.375" transform="rotate(0)"><tspan id="SvgjsTspan1377" dy="16" x="60"><tspan id="SvgjsTspan1378" style="text-decoration:;">内部核心方法</tspan></tspan></text></g></g><g id="SvgjsG1379"><path id="SvgjsPath1380" d="M258.8764204545487 130.4649621212136L258.8764204545487 168.3633996212136L142.25142045454902 168.3633996212136L142.25142045454902 203.66183712121338 " stroke="#323232" stroke-width="2" fill="none" marker-end="url(#SvgjsMarker1381)"></path></g><g id="SvgjsG1383" transform="translate(29.01332521644997,521.6413014069267)"><path id="SvgjsPath1384" d="M0 0L303.2380952380952 0L303.2380952380952 55.71428571428578L0 55.71428571428578Z " stroke="none" fill="none"></path><g id="SvgjsG1385"><text id="SvgjsText1386" font-family="微软雅黑" text-anchor="middle" font-size="13px" width="304px" fill="#000000" font-weight="400" align="middle" lineHeight="125%" font-style="" opacity="0.5" y="17.23214285714289" transform="rotate(0)"><tspan id="SvgjsTspan1387" dy="16" x="152"><tspan id="SvgjsTspan1388" style="text-decoration:;">https://github.com/wbccb</tspan></tspan></text></g></g><g id="SvgjsG1389"><path id="SvgjsPath1390" d="M1263.376420454545 703.421875L1263.376420454545 718.3106060606069L1263.3764204545453 718.3106060606069L1263.3764204545453 730.5993371212138 " stroke="#323232" stroke-width="2" fill="none" marker-end="url(#SvgjsMarker1391)"></path></g><g id="SvgjsG1393" transform="translate(906.796875,365.25)"><path id="SvgjsPath1394" d="M102 0Q93 0 93 9L93 112.5Q93 121.5 80 121.5Q93 121.5 93 130.5L93 234Q93 243 102 243 " stroke="rgba(50,50,50,1)" stroke-width="2" fill="none"></path><path id="SvgjsPath1395" d="M0 0L102 0L102 243L0 243Z " stroke="none" fill="none"></path><g id="SvgjsG1396"><text id="SvgjsText1397" font-family="微软雅黑" text-anchor="end" font-size="13px" width="75px" fill="#323232" font-weight="400" align="middle" lineHeight="125%" font-style="" opacity="1" y="110.875" transform="rotate(0)"></text></g></g><g id="SvgjsG1398" transform="matrix(0.8660254037844384,-0.5000000000000004,0.5000000000000004,0.8660254037844384,350.39786543641907,575.9381881681069)"><path id="SvgjsPath1399" d="M0 0L303.2380952380952 0L303.2380952380952 55.71428571428578L0 55.71428571428578Z " stroke="none" fill="none"></path><g id="SvgjsG1400"><text id="SvgjsText1401" font-family="微软雅黑" text-anchor="middle" font-size="13px" width="304px" fill="#000000" font-weight="400" align="middle" lineHeight="125%" font-style="" opacity="0.05" y="17.23214285714289" transform="rotate(0)"><tspan id="SvgjsTspan1402" dy="16" x="152"><tspan id="SvgjsTspan1403" style="text-decoration:;">https://github.com/wbccb</tspan></tspan></text></g></g><g id="SvgjsG1404" transform="matrix(0.8660254037844384,-0.5000000000000004,0.5000000000000004,0.8660254037844384,571.0645219305597,759.2715316739663)"><path id="SvgjsPath1405" d="M0 0L303.2380952380952 0L303.2380952380952 55.71428571428578L0 55.71428571428578Z " stroke="none" fill="none"></path><g id="SvgjsG1406"><text id="SvgjsText1407" font-family="微软雅黑" text-anchor="middle" font-size="13px" width="304px" fill="#000000" font-weight="400" align="middle" lineHeight="125%" font-style="" opacity="0.05" y="17.23214285714289" transform="rotate(0)"><tspan id="SvgjsTspan1408" dy="16" x="152"><tspan id="SvgjsTspan1409" style="text-decoration:;">https://github.com/wbccb</tspan></tspan></text></g></g><g id="SvgjsG1410" transform="translate(1568.7514204545414,672.445430871212)"><path id="SvgjsPath1411" d="M0 0L202 0L202 52.5703125L0 52.5703125Z " stroke="none" fill="none"></path><g id="SvgjsG1412"><text id="SvgjsText1413" font-family="微软雅黑" text-anchor="middle" font-size="16px" width="202px" fill="#ff0000" font-weight="700" align="middle" lineHeight="125%" font-style="" opacity="1" y="12.28515625" transform="rotate(0)"><tspan id="SvgjsTspan1414" dy="20" x="101"><tspan id="SvgjsTspan1415" style="text-decoration:;">handleModuleCreate()递归</tspan></tspan></text></g></g><g id="SvgjsG1416" transform="translate(480.60369318181597,126.71496212121406)"><path id="SvgjsPath1417" d="M0 0L187.0454545454586 0L187.0454545454586 133.37121212121156L0 133.37121212121156Z " stroke="none" fill-opacity="1" fill="#ff0000"></path><g id="SvgjsG1418"><text id="SvgjsText1419" font-family="微软雅黑" text-anchor="middle" font-size="13px" width="168px" fill="#f5f5f5" font-weight="400" align="middle" lineHeight="125%" font-style="" opacity="1" y="56.06060606060578" transform="rotate(0)"><tspan id="SvgjsTspan1420" dy="16" x="94"><tspan id="SvgjsTspan1421" style="text-decoration:;">省略resolve流程......</tspan></tspan></text></g></g><g id="SvgjsG1422"><path id="SvgjsPath1423" d="M574.1264204545453 260.0861742424256L574.1264204545453 288.1641808712129L574.1264204545453 288.1641808712129L574.1264204545453 312.6421875 " stroke="#323232" stroke-width="2" fill="none" marker-end="url(#SvgjsMarker1424)"></path></g></svg>