<svg id="SvgjsSvg1487" xmlns="http://www.w3.org/2000/svg" version="1.1" xmlns:xlink="http://www.w3.org/1999/xlink" xmlns:svgjs="http://svgjs.com/svgjs" width="981.109375" height="575.21875"><defs id="SvgjsDefs1488"><marker id="SvgjsMarker1533" markerWidth="14" markerHeight="10" refX="10" refY="5" viewBox="0 0 14 10" orient="auto" markerUnits="userSpaceOnUse" stroke-dasharray="0,0"><path id="SvgjsPath1534" d="M0 0L14 5L0 10L0 0 " fill="#323232" stroke="#323232" stroke-width="1"></path></marker><marker id="SvgjsMarker1537" markerWidth="14" markerHeight="10" refX="10" refY="5" viewBox="0 0 14 10" orient="auto" markerUnits="userSpaceOnUse" stroke-dasharray="0,0"><path id="SvgjsPath1538" d="M0 0L14 5L0 10L0 0 " fill="#323232" stroke="#323232" stroke-width="1"></path></marker><marker id="SvgjsMarker1541" markerWidth="14" markerHeight="10" refX="10" refY="5" viewBox="0 0 14 10" orient="auto" markerUnits="userSpaceOnUse" stroke-dasharray="0,0"><path id="SvgjsPath1542" d="M0 0L14 5L0 10L0 0 " fill="#323232" stroke="#323232" stroke-width="1"></path></marker><marker id="SvgjsMarker1545" markerWidth="14" markerHeight="10" refX="10" refY="5" viewBox="0 0 14 10" orient="auto" markerUnits="userSpaceOnUse" stroke-dasharray="0,0"><path id="SvgjsPath1546" d="M0 0L14 5L0 10L0 0 " fill="#323232" stroke="#323232" stroke-width="1"></path></marker><marker id="SvgjsMarker1566" markerWidth="14" markerHeight="10" refX="10" refY="5" viewBox="0 0 14 10" orient="auto" markerUnits="userSpaceOnUse" stroke-dasharray="0,0"><path id="SvgjsPath1567" d="M0 0L14 5L0 10L0 0 " fill="#323232" stroke="#323232" stroke-width="1"></path></marker><marker id="SvgjsMarker1570" markerWidth="14" markerHeight="10" refX="10" refY="5" viewBox="0 0 14 10" orient="auto" markerUnits="userSpaceOnUse" stroke-dasharray="0,0"><path id="SvgjsPath1571" d="M0 0L14 5L0 10L0 0 " fill="#323232" stroke="#323232" stroke-width="1"></path></marker><marker id="SvgjsMarker1586" markerWidth="14" markerHeight="10" refX="10" refY="5" viewBox="0 0 14 10" orient="auto" markerUnits="userSpaceOnUse" stroke-dasharray="0,0"><path id="SvgjsPath1587" d="M0 0L14 5L0 10L0 0 " fill="#323232" stroke="#323232" stroke-width="1"></path></marker><marker id="SvgjsMarker1590" markerWidth="14" markerHeight="10" refX="10" refY="5" viewBox="0 0 14 10" orient="auto" markerUnits="userSpaceOnUse" stroke-dasharray="0,0"><path id="SvgjsPath1591" d="M0 0L14 5L0 10L0 0 " fill="#323232" stroke="#323232" stroke-width="1"></path></marker><marker id="SvgjsMarker1606" markerWidth="14" markerHeight="10" refX="10" refY="5" viewBox="0 0 14 10" orient="auto" markerUnits="userSpaceOnUse" stroke-dasharray="0,0"><path id="SvgjsPath1607" d="M0 0L14 5L0 10L0 0 " fill="#323232" stroke="#323232" stroke-width="1"></path></marker><marker id="SvgjsMarker1610" markerWidth="14" markerHeight="10" refX="10" refY="5" viewBox="0 0 14 10" orient="auto" markerUnits="userSpaceOnUse" stroke-dasharray="0,0"><path id="SvgjsPath1611" d="M0 0L14 5L0 10L0 0 " fill="#323232" stroke="#323232" stroke-width="1"></path></marker><marker id="SvgjsMarker1626" markerWidth="14" markerHeight="10" refX="10" refY="5" viewBox="0 0 14 10" orient="auto" markerUnits="userSpaceOnUse" stroke-dasharray="0,0"><path id="SvgjsPath1627" d="M0 0L14 5L0 10L0 0 " fill="#323232" stroke="#323232" stroke-width="1"></path></marker><marker id="SvgjsMarker1630" markerWidth="14" markerHeight="10" refX="10" refY="5" viewBox="0 0 14 10" orient="auto" markerUnits="userSpaceOnUse" stroke-dasharray="0,0"><path id="SvgjsPath1631" d="M0 0L14 5L0 10L0 0 " fill="#323232" stroke="#323232" stroke-width="1"></path></marker><marker id="SvgjsMarker1652" markerWidth="14" markerHeight="10" refX="10" refY="5" viewBox="0 0 14 10" orient="auto" markerUnits="userSpaceOnUse" stroke-dasharray="0,0"><path id="SvgjsPath1653" d="M0 0L14 5L0 10L0 0 " fill="#323232" stroke="#323232" stroke-width="1"></path></marker><marker id="SvgjsMarker1656" markerWidth="14" markerHeight="10" refX="10" refY="5" viewBox="0 0 14 10" orient="auto" markerUnits="userSpaceOnUse" stroke-dasharray="0,0"><path id="SvgjsPath1657" d="M0 0L14 5L0 10L0 0 " fill="#323232" stroke="#323232" stroke-width="1"></path></marker><marker id="SvgjsMarker1672" markerWidth="14" markerHeight="10" refX="10" refY="5" viewBox="0 0 14 10" orient="auto" markerUnits="userSpaceOnUse" stroke-dasharray="0,0"><path id="SvgjsPath1673" d="M0 0L14 5L0 10L0 0 " fill="#323232" stroke="#323232" stroke-width="1"></path></marker><marker id="SvgjsMarker1676" markerWidth="14" markerHeight="10" refX="10" refY="5" viewBox="0 0 14 10" orient="auto" markerUnits="userSpaceOnUse" stroke-dasharray="0,0"><path id="SvgjsPath1677" d="M0 0L14 5L0 10L0 0 " fill="#323232" stroke="#323232" stroke-width="1"></path></marker><marker id="SvgjsMarker1704" markerWidth="14" markerHeight="10" refX="10" refY="5" viewBox="0 0 14 10" orient="auto" markerUnits="userSpaceOnUse" stroke-dasharray="0,0"><path id="SvgjsPath1705" d="M0 0L14 5L0 10L0 0 " fill="#323232" stroke="#323232" stroke-width="1"></path></marker><marker id="SvgjsMarker1708" markerWidth="14" markerHeight="10" refX="10" refY="5" viewBox="0 0 14 10" orient="auto" markerUnits="userSpaceOnUse" stroke-dasharray="0,0"><path id="SvgjsPath1709" d="M0 0L14 5L0 10L0 0 " fill="#323232" stroke="#323232" stroke-width="1"></path></marker></defs><g id="SvgjsG1489" transform="translate(324.49999999999955,120.22743055555554)"><path id="SvgjsPath1490" d="M0 0L67 0L67 41L0 41Z " stroke="rgba(50,50,50,1)" stroke-width="2" fill-opacity="1" fill="#ffffff"></path><g id="SvgjsG1491"><text id="SvgjsText1492" font-family="微软雅黑" text-anchor="middle" font-size="13px" width="47px" fill="#323232" font-weight="400" align="middle" lineHeight="125%" font-style="" opacity="1" y="9.875" transform="rotate(0)"><tspan id="SvgjsTspan1493" dy="16" x="33.5"><tspan id="SvgjsTspan1494" style="text-decoration:;">"("</tspan></tspan></text></g></g><g id="SvgjsG1495" transform="translate(628.2777777777776,120.22743055555554)"><path id="SvgjsPath1496" d="M0 0L67 0L67 41L0 41Z " stroke="rgba(50,50,50,1)" stroke-width="2" fill-opacity="1" fill="#ffffff"></path><g id="SvgjsG1497"><text id="SvgjsText1498" font-family="微软雅黑" text-anchor="middle" font-size="13px" width="47px" fill="#323232" font-weight="400" align="middle" lineHeight="125%" font-style="" opacity="1" y="9.875" transform="rotate(0)"><tspan id="SvgjsTspan1499" dy="16" x="33.5"><tspan id="SvgjsTspan1500" style="text-decoration:;">")"</tspan></tspan></text></g></g><g id="SvgjsG1501" transform="translate(461.61111111111086,25.00520833333333)"><path id="SvgjsPath1502" d="M16.666666666666668 0L83.33333333333333 0C105.55555555555556 0 105.55555555555556 50 83.33333333333333 50L16.666666666666668 50C-5.555555555555556 50 -5.555555555555556 0 16.666666666666668 0Z " stroke="rgba(50,50,50,1)" stroke-width="2" fill-opacity="1" fill="#ffffff"></path><g id="SvgjsG1503"><text id="SvgjsText1504" font-family="微软雅黑" text-anchor="middle" font-size="13px" width="80px" fill="#323232" font-weight="400" align="middle" lineHeight="125%" font-style="" opacity="1" y="14.375" transform="rotate(0)"><tspan id="SvgjsTspan1505" dy="16" x="50"><tspan id="SvgjsTspan1506" style="text-decoration:;">"(((())))"</tspan></tspan></text></g></g><g id="SvgjsG1507" transform="translate(161.99999999999994,241.2274305555556)"><path id="SvgjsPath1508" d="M0 0L67 0L67 41L0 41Z " stroke="rgba(50,50,50,1)" stroke-width="2" fill-opacity="1" fill="#ffffff"></path><g id="SvgjsG1509"><text id="SvgjsText1510" font-family="微软雅黑" text-anchor="middle" font-size="13px" width="47px" fill="#323232" font-weight="400" align="middle" lineHeight="125%" font-style="" opacity="1" y="9.875" transform="rotate(0)"><tspan id="SvgjsTspan1511" dy="16" x="33.5"><tspan id="SvgjsTspan1512" style="text-decoration:;">"("</tspan></tspan></text></g></g><g id="SvgjsG1513" transform="translate(430.99999999999955,241.2274305555556)"><path id="SvgjsPath1514" d="M0 0L67 0L67 41L0 41Z " stroke="rgba(50,50,50,1)" stroke-width="2" fill-opacity="1" fill="#ffffff"></path><g id="SvgjsG1515"><text id="SvgjsText1516" font-family="微软雅黑" text-anchor="middle" font-size="13px" width="47px" fill="#323232" font-weight="400" align="middle" lineHeight="125%" font-style="" opacity="1" y="9.875" transform="rotate(0)"><tspan id="SvgjsTspan1517" dy="16" x="33.5"><tspan id="SvgjsTspan1518" style="text-decoration:;">")"</tspan></tspan></text></g></g><g id="SvgjsG1519" transform="translate(577.7777777777776,241.2274305555556)"><path id="SvgjsPath1520" d="M0 0L67 0L67 41L0 41Z " stroke="rgba(50,50,50,1)" stroke-width="2" fill-opacity="1" fill="#ffffff"></path><g id="SvgjsG1521"><text id="SvgjsText1522" font-family="微软雅黑" text-anchor="middle" font-size="13px" width="47px" fill="#323232" font-weight="400" align="middle" lineHeight="125%" font-style="" opacity="1" y="9.875" transform="rotate(0)"><tspan id="SvgjsTspan1523" dy="16" x="33.5"><tspan id="SvgjsTspan1524" style="text-decoration:;">"("</tspan></tspan></text></g></g><g id="SvgjsG1525" transform="translate(772.7777777777776,241.2274305555556)"><path id="SvgjsPath1526" d="M0 0L67 0L67 41L0 41Z " stroke="rgba(50,50,50,1)" stroke-width="2" fill-opacity="1" fill="#ffffff"></path><g id="SvgjsG1527"><text id="SvgjsText1528" font-family="微软雅黑" text-anchor="middle" font-size="13px" width="47px" fill="#323232" font-weight="400" align="middle" lineHeight="125%" font-style="" opacity="1" y="9.875" transform="rotate(0)"><tspan id="SvgjsTspan1529" dy="16" x="33.5"><tspan id="SvgjsTspan1530" style="text-decoration:;">")"</tspan></tspan></text></g></g><g id="SvgjsG1531"><path id="SvgjsPath1532" d="M357.99999999999955 162.22743055555554L357.99999999999955 201.22743055555557L195.49999999999983 201.22743055555557L195.49999999999983 237.6274305555556 " stroke="#323232" stroke-width="2" fill="none" marker-end="url(#SvgjsMarker1533)"></path></g><g id="SvgjsG1535"><path id="SvgjsPath1536" d="M357.99999999999955 162.22743055555554L357.99999999999955 201.22743055555554L464.49999999999955 201.22743055555554L464.49999999999955 237.6274305555556 " stroke="#323232" stroke-width="2" fill="none" marker-end="url(#SvgjsMarker1537)"></path></g><g id="SvgjsG1539"><path id="SvgjsPath1540" d="M661.7777777777776 162.22743055555554L661.7777777777776 201.22743055555554L611.2777777777776 201.22743055555554L611.2777777777776 237.6274305555556 " stroke="#323232" stroke-width="2" fill="none" marker-end="url(#SvgjsMarker1541)"></path></g><g id="SvgjsG1543"><path id="SvgjsPath1544" d="M661.7777777777776 162.22743055555554L661.7777777777776 201.22743055555554L806.2777777777776 201.22743055555554L806.2777777777776 237.6274305555556 " stroke="#323232" stroke-width="2" fill="none" marker-end="url(#SvgjsMarker1545)"></path></g><g id="SvgjsG1547" transform="matrix(6.123233995736766e-17,1,-1,6.123233995736766e-17,712.8333231608074,37.89409637451193)"><path id="SvgjsPath1548" d="M76.66666666666652 0Q68.99999999999986 0 68.99999999999986 9L68.99999999999986 188.33333333333348Q68.99999999999986 197.33333333333348 54.666666666666515 197.33333333333348Q68.99999999999986 197.33333333333348 68.99999999999986 206.33333333333348L68.99999999999986 385.66666666666697Q68.99999999999986 394.66666666666697 76.66666666666652 394.66666666666697 " stroke="rgba(50,50,50,1)" stroke-width="2" fill="none"></path><path id="SvgjsPath1549" d="M0 0L76.66666666666652 0L76.66666666666652 394.66666666666697L0 394.66666666666697Z " stroke="none" fill="none"></path><g id="SvgjsG1550"><text id="SvgjsText1551" font-family="微软雅黑" text-anchor="end" font-size="13px" width="50px" fill="#323232" font-weight="400" align="middle" lineHeight="125%" font-style="" opacity="1" y="186.70833333333348" transform="rotate(0)"></text></g></g><g id="SvgjsG1552" transform="translate(80.50000000000006,362.22743055555566)"><path id="SvgjsPath1553" d="M0 0L67 0L67 41L0 41Z " stroke="rgba(50,50,50,1)" stroke-width="2" fill-opacity="1" fill="#ffffff"></path><g id="SvgjsG1554"><text id="SvgjsText1555" font-family="微软雅黑" text-anchor="middle" font-size="13px" width="47px" fill="#323232" font-weight="400" align="middle" lineHeight="125%" font-style="" opacity="1" y="9.875" transform="rotate(0)"><tspan id="SvgjsTspan1556" dy="16" x="33.5"><tspan id="SvgjsTspan1557" style="text-decoration:;">"("</tspan></tspan></text></g></g><g id="SvgjsG1558" transform="translate(273.4999999999996,362.22743055555566)"><path id="SvgjsPath1559" d="M0 0L67 0L67 41L0 41Z " stroke="rgba(50,50,50,1)" stroke-width="2" fill-opacity="1" fill="#ffffff"></path><g id="SvgjsG1560"><text id="SvgjsText1561" font-family="微软雅黑" text-anchor="middle" font-size="13px" width="47px" fill="#323232" font-weight="400" align="middle" lineHeight="125%" font-style="" opacity="1" y="9.875" transform="rotate(0)"><tspan id="SvgjsTspan1562" dy="16" x="33.5"><tspan id="SvgjsTspan1563" style="text-decoration:;">")"</tspan></tspan></text></g></g><g id="SvgjsG1564"><path id="SvgjsPath1565" d="M195.49999999999983 283.22743055555566L195.49999999999983 322.22743055555566L114 322.22743055555566L114 358.62743055555563 " stroke="#323232" stroke-width="2" fill="none" marker-end="url(#SvgjsMarker1566)"></path></g><g id="SvgjsG1568"><path id="SvgjsPath1569" d="M195.49999999999983 283.22743055555566L195.49999999999983 322.22743055555566L306.99999999999955 322.22743055555566L306.99999999999955 358.62743055555563 " stroke="#323232" stroke-width="2" fill="none" marker-end="url(#SvgjsMarker1570)"></path></g><g id="SvgjsG1572" transform="translate(25.000000000000057,483.22743055555566)"><path id="SvgjsPath1573" d="M0 0L67 0L67 41L0 41Z " stroke="rgba(50,50,50,1)" stroke-width="2" fill-opacity="1" fill="#ffffff"></path><g id="SvgjsG1574"><text id="SvgjsText1575" font-family="微软雅黑" text-anchor="middle" font-size="13px" width="47px" fill="#323232" font-weight="400" align="middle" lineHeight="125%" font-style="" opacity="1" y="9.875" transform="rotate(0)"><tspan id="SvgjsTspan1576" dy="16" x="33.5"><tspan id="SvgjsTspan1577" style="text-decoration:;">"("</tspan></tspan></text></g></g><g id="SvgjsG1578" transform="translate(135.99999999999994,483.22743055555566)"><path id="SvgjsPath1579" d="M0 0L67 0L67 41L0 41Z " stroke="rgba(50,50,50,1)" stroke-width="2" fill-opacity="1" fill="#ffffff"></path><g id="SvgjsG1580"><text id="SvgjsText1581" font-family="微软雅黑" text-anchor="middle" font-size="13px" width="47px" fill="#323232" font-weight="400" align="middle" lineHeight="125%" font-style="" opacity="1" y="9.875" transform="rotate(0)"><tspan id="SvgjsTspan1582" dy="16" x="33.5"><tspan id="SvgjsTspan1583" style="text-decoration:;">")"</tspan></tspan></text></g></g><g id="SvgjsG1584"><path id="SvgjsPath1585" d="M114 403.2274305555557L114 443.2274305555557L58.50000000000006 443.2274305555557L58.50000000000006 479.62743055555563 " stroke="#323232" stroke-width="2" fill="none" marker-end="url(#SvgjsMarker1586)"></path></g><g id="SvgjsG1588"><path id="SvgjsPath1589" d="M114 403.2274305555557L114 443.2274305555557L169.4999999999999 443.2274305555557L169.4999999999999 479.62743055555563 " stroke="#323232" stroke-width="2" fill="none" marker-end="url(#SvgjsMarker1590)"></path></g><g id="SvgjsG1592" transform="translate(374.74999999999955,362.22743055555566)"><path id="SvgjsPath1593" d="M0 0L67 0L67 41L0 41Z " stroke="rgba(50,50,50,1)" stroke-width="2" fill-opacity="1" fill="#ffffff"></path><g id="SvgjsG1594"><text id="SvgjsText1595" font-family="微软雅黑" text-anchor="middle" font-size="13px" width="47px" fill="#323232" font-weight="400" align="middle" lineHeight="125%" font-style="" opacity="1" y="9.875" transform="rotate(0)"><tspan id="SvgjsTspan1596" dy="16" x="33.5"><tspan id="SvgjsTspan1597" style="text-decoration:;">"("</tspan></tspan></text></g></g><g id="SvgjsG1598" transform="translate(485.74999999999955,362.22743055555566)"><path id="SvgjsPath1599" d="M0 0L67 0L67 41L0 41Z " stroke="rgba(50,50,50,1)" stroke-width="2" fill-opacity="1" fill="#ffffff"></path><g id="SvgjsG1600"><text id="SvgjsText1601" font-family="微软雅黑" text-anchor="middle" font-size="13px" width="47px" fill="#323232" font-weight="400" align="middle" lineHeight="125%" font-style="" opacity="1" y="9.875" transform="rotate(0)"><tspan id="SvgjsTspan1602" dy="16" x="33.5"><tspan id="SvgjsTspan1603" style="text-decoration:;">")"</tspan></tspan></text></g></g><g id="SvgjsG1604"><path id="SvgjsPath1605" d="M463.74999999999955 282.22743055555566L463.74999999999955 322.22743055555566L408.24999999999955 322.22743055555566L408.24999999999955 358.62743055555563 " stroke="#323232" stroke-width="2" fill="none" marker-end="url(#SvgjsMarker1606)"></path></g><g id="SvgjsG1608"><path id="SvgjsPath1609" d="M463.74999999999955 282.22743055555566L463.74999999999955 322.22743055555566L519.2499999999995 322.22743055555566L519.2499999999995 358.62743055555563 " stroke="#323232" stroke-width="2" fill="none" marker-end="url(#SvgjsMarker1610)"></path></g><g id="SvgjsG1612" transform="translate(430.99999999999955,483.22743055555566)"><path id="SvgjsPath1613" d="M0 0L67 0L67 41L0 41Z " stroke="rgba(50,50,50,1)" stroke-width="2" fill-opacity="1" fill="#ffffff"></path><g id="SvgjsG1614"><text id="SvgjsText1615" font-family="微软雅黑" text-anchor="middle" font-size="13px" width="47px" fill="#323232" font-weight="400" align="middle" lineHeight="125%" font-style="" opacity="1" y="9.875" transform="rotate(0)"><tspan id="SvgjsTspan1616" dy="16" x="33.5"><tspan id="SvgjsTspan1617" style="text-decoration:;">"("</tspan></tspan></text></g></g><g id="SvgjsG1618" transform="translate(508.6666666666663,483.22743055555566)"><path id="SvgjsPath1619" d="M0 0L67 0L67 41L0 41Z " stroke="rgba(50,50,50,1)" stroke-width="2" fill-opacity="1" fill="#ffffff"></path><g id="SvgjsG1620"><text id="SvgjsText1621" font-family="微软雅黑" text-anchor="middle" font-size="13px" width="47px" fill="#323232" font-weight="400" align="middle" lineHeight="125%" font-style="" opacity="1" y="9.875" transform="rotate(0)"><tspan id="SvgjsTspan1622" dy="16" x="33.5"><tspan id="SvgjsTspan1623" style="text-decoration:;">")"</tspan></tspan></text></g></g><g id="SvgjsG1624"><path id="SvgjsPath1625" d="M519.9999999999995 403.22743055555566L519.9999999999995 443.22743055555566L464.49999999999955 443.22743055555566L464.49999999999955 479.62743055555563 " stroke="#323232" stroke-width="2" fill="none" marker-end="url(#SvgjsMarker1626)"></path></g><g id="SvgjsG1628"><path id="SvgjsPath1629" d="M519.9999999999995 403.22743055555566L519.9999999999995 443.22743055555566L542.1666666666663 443.22743055555566L542.1666666666663 479.62743055555563 " stroke="#323232" stroke-width="2" fill="none" marker-end="url(#SvgjsMarker1630)"></path></g><g id="SvgjsG1632" transform="translate(568.7777777777776,181.22743055555554)"><path id="SvgjsPath1633" d="M0 0L120 0L120 40L0 40Z " stroke="none" fill="none"></path><g id="SvgjsG1634"><text id="SvgjsText1635" font-family="微软雅黑" text-anchor="middle" font-size="13px" width="120px" fill="#323232" font-weight="400" align="middle" lineHeight="125%" font-style="" opacity="1" y="9.375" transform="rotate(0)"><tspan id="SvgjsTspan1636" dy="16" x="60"><tspan id="SvgjsTspan1637" style="text-decoration:;">❌</tspan></tspan></text></g></g><g id="SvgjsG1638" transform="translate(717.7777777777776,366.22743055555566)"><path id="SvgjsPath1639" d="M0 0L67 0L67 41L0 41Z " stroke="rgba(50,50,50,1)" stroke-width="2" fill-opacity="1" fill="#ffffff"></path><g id="SvgjsG1640"><text id="SvgjsText1641" font-family="微软雅黑" text-anchor="middle" font-size="13px" width="47px" fill="#323232" font-weight="400" align="middle" lineHeight="125%" font-style="" opacity="1" y="9.875" transform="rotate(0)"><tspan id="SvgjsTspan1642" dy="16" x="33.5"><tspan id="SvgjsTspan1643" style="text-decoration:;">"("</tspan></tspan></text></g></g><g id="SvgjsG1644" transform="translate(828.7777777777776,366.22743055555566)"><path id="SvgjsPath1645" d="M0 0L67 0L67 41L0 41Z " stroke="rgba(50,50,50,1)" stroke-width="2" fill-opacity="1" fill="#ffffff"></path><g id="SvgjsG1646"><text id="SvgjsText1647" font-family="微软雅黑" text-anchor="middle" font-size="13px" width="47px" fill="#323232" font-weight="400" align="middle" lineHeight="125%" font-style="" opacity="1" y="9.875" transform="rotate(0)"><tspan id="SvgjsTspan1648" dy="16" x="33.5"><tspan id="SvgjsTspan1649" style="text-decoration:;">")"</tspan></tspan></text></g></g><g id="SvgjsG1650"><path id="SvgjsPath1651" d="M806.7777777777776 286.22743055555566L806.7777777777776 326.22743055555566L751.2777777777776 326.22743055555566L751.2777777777776 362.62743055555563 " stroke="#323232" stroke-width="2" fill="none" marker-end="url(#SvgjsMarker1652)"></path></g><g id="SvgjsG1654"><path id="SvgjsPath1655" d="M806.7777777777776 286.22743055555566L806.7777777777776 326.22743055555566L862.2777777777776 326.22743055555566L862.2777777777776 362.62743055555563 " stroke="#323232" stroke-width="2" fill="none" marker-end="url(#SvgjsMarker1656)"></path></g><g id="SvgjsG1658" transform="translate(761.7777777777773,509.22743055555566)"><path id="SvgjsPath1659" d="M0 0L67 0L67 41L0 41Z " stroke="rgba(50,50,50,1)" stroke-width="2" fill-opacity="1" fill="#ffffff"></path><g id="SvgjsG1660"><text id="SvgjsText1661" font-family="微软雅黑" text-anchor="middle" font-size="13px" width="47px" fill="#323232" font-weight="400" align="middle" lineHeight="125%" font-style="" opacity="1" y="9.875" transform="rotate(0)"><tspan id="SvgjsTspan1662" dy="16" x="33.5"><tspan id="SvgjsTspan1663" style="text-decoration:;">"("</tspan></tspan></text></g></g><g id="SvgjsG1664" transform="translate(889.11111111111,509.22743055555566)"><path id="SvgjsPath1665" d="M0 0L67 0L67 41L0 41Z " stroke="rgba(50,50,50,1)" stroke-width="2" fill-opacity="1" fill="#ffffff"></path><g id="SvgjsG1666"><text id="SvgjsText1667" font-family="微软雅黑" text-anchor="middle" font-size="13px" width="47px" fill="#323232" font-weight="400" align="middle" lineHeight="125%" font-style="" opacity="1" y="9.875" transform="rotate(0)"><tspan id="SvgjsTspan1668" dy="16" x="33.5"><tspan id="SvgjsTspan1669" style="text-decoration:;">")"</tspan></tspan></text></g></g><g id="SvgjsG1670"><path id="SvgjsPath1671" d="M862.2777777777776 408.22743055555566L862.2777777777776 458.22743055555566L795.2777777777774 458.22743055555566L795.2777777777774 505.62743055555563 " stroke="#323232" stroke-width="2" fill="none" marker-end="url(#SvgjsMarker1672)"></path></g><g id="SvgjsG1674"><path id="SvgjsPath1675" d="M862.2777777777776 408.22743055555566L862.2777777777776 458.22743055555566L922.61111111111 458.22743055555566L922.61111111111 505.62743055555563 " stroke="#323232" stroke-width="2" fill="none" marker-end="url(#SvgjsMarker1676)"></path></g><g id="SvgjsG1678" transform="translate(708.7777777777776,304.22743055555566)"><path id="SvgjsPath1679" d="M0 0L120 0L120 40L0 40Z " stroke="none" fill="none"></path><g id="SvgjsG1680"><text id="SvgjsText1681" font-family="微软雅黑" text-anchor="middle" font-size="13px" width="120px" fill="#323232" font-weight="400" align="middle" lineHeight="125%" font-style="" opacity="1" y="9.375" transform="rotate(0)"><tspan id="SvgjsTspan1682" dy="16" x="60"><tspan id="SvgjsTspan1683" style="text-decoration:;">❌</tspan></tspan></text></g></g><g id="SvgjsG1684" transform="translate(761.777777777777,438.22743055555554)"><path id="SvgjsPath1685" d="M0 0L120 0L120 40L0 40Z " stroke="none" fill="none"></path><g id="SvgjsG1686"><text id="SvgjsText1687" font-family="微软雅黑" text-anchor="middle" font-size="13px" width="120px" fill="#323232" font-weight="400" align="middle" lineHeight="125%" font-style="" opacity="1" y="9.375" transform="rotate(0)"><tspan id="SvgjsTspan1688" dy="16" x="60"><tspan id="SvgjsTspan1689" style="text-decoration:;">❌</tspan></tspan></text></g></g><g id="SvgjsG1690" transform="translate(218.24999999999977,483.22743055555566)"><path id="SvgjsPath1691" d="M0 0L67 0L67 41L0 41Z " stroke="rgba(50,50,50,1)" stroke-width="2" fill-opacity="1" fill="#ffffff"></path><g id="SvgjsG1692"><text id="SvgjsText1693" font-family="微软雅黑" text-anchor="middle" font-size="13px" width="47px" fill="#323232" font-weight="400" align="middle" lineHeight="125%" font-style="" opacity="1" y="9.875" transform="rotate(0)"><tspan id="SvgjsTspan1694" dy="16" x="33.5"><tspan id="SvgjsTspan1695" style="text-decoration:;">"("</tspan></tspan></text></g></g><g id="SvgjsG1696" transform="translate(329.2499999999995,483.22743055555566)"><path id="SvgjsPath1697" d="M0 0L67 0L67 41L0 41Z " stroke="rgba(50,50,50,1)" stroke-width="2" fill-opacity="1" fill="#ffffff"></path><g id="SvgjsG1698"><text id="SvgjsText1699" font-family="微软雅黑" text-anchor="middle" font-size="13px" width="47px" fill="#323232" font-weight="400" align="middle" lineHeight="125%" font-style="" opacity="1" y="9.875" transform="rotate(0)"><tspan id="SvgjsTspan1700" dy="16" x="33.5"><tspan id="SvgjsTspan1701" style="text-decoration:;">")"</tspan></tspan></text></g></g><g id="SvgjsG1702"><path id="SvgjsPath1703" d="M307.24999999999955 403.22743055555566L307.24999999999955 443.22743055555566L251.74999999999966 443.22743055555566L251.74999999999966 479.62743055555563 " stroke="#323232" stroke-width="2" fill="none" marker-end="url(#SvgjsMarker1704)"></path></g><g id="SvgjsG1706"><path id="SvgjsPath1707" d="M307.24999999999955 403.22743055555566L307.24999999999955 443.22743055555566L362.74999999999943 443.22743055555566L362.74999999999943 479.62743055555563 " stroke="#323232" stroke-width="2" fill="none" marker-end="url(#SvgjsMarker1708)"></path></g><g id="SvgjsG1710" transform="translate(202.99999999999983,423.22743055555566)"><path id="SvgjsPath1711" d="M0 0L120 0L120 40L0 40Z " stroke="none" fill="none"></path><g id="SvgjsG1712"><text id="SvgjsText1713" font-family="微软雅黑" text-anchor="middle" font-size="13px" width="120px" fill="#323232" font-weight="400" align="middle" lineHeight="125%" font-style="" opacity="1" y="9.375" transform="rotate(0)"><tspan id="SvgjsTspan1714" dy="16" x="60"><tspan id="SvgjsTspan1715" style="text-decoration:;">❌</tspan></tspan></text></g></g><g id="SvgjsG1716" transform="translate(365.74999999999955,304.22743055555566)"><path id="SvgjsPath1717" d="M0 0L120 0L120 40L0 40Z " stroke="none" fill="none"></path><g id="SvgjsG1718"><text id="SvgjsText1719" font-family="微软雅黑" text-anchor="middle" font-size="13px" width="120px" fill="#323232" font-weight="400" align="middle" lineHeight="125%" font-style="" opacity="1" y="9.375" transform="rotate(0)"><tspan id="SvgjsTspan1720" dy="16" x="60"><tspan id="SvgjsTspan1721" style="text-decoration:;">❌</tspan></tspan></text></g></g><g id="SvgjsG1722" transform="translate(421.99999999999955,423.22743055555566)"><path id="SvgjsPath1723" d="M0 0L120 0L120 40L0 40Z " stroke="none" fill="none"></path><g id="SvgjsG1724"><text id="SvgjsText1725" font-family="微软雅黑" text-anchor="middle" font-size="13px" width="120px" fill="#323232" font-weight="400" align="middle" lineHeight="125%" font-style="" opacity="1" y="9.375" transform="rotate(0)"><tspan id="SvgjsTspan1726" dy="16" x="60"><tspan id="SvgjsTspan1727" style="text-decoration:;">❌</tspan></tspan></text></g></g></svg>