<svg id="SvgjsSvg1000" xmlns="http://www.w3.org/2000/svg" version="1.1" xmlns:xlink="http://www.w3.org/1999/xlink" xmlns:svgjs="http://svgjs.com/svgjs" width="1625.5" height="434.5"><defs id="SvgjsDefs1001"><marker id="SvgjsMarker1028" markerWidth="14" markerHeight="10" refX="10" refY="5" viewBox="0 0 14 10" orient="auto" markerUnits="userSpaceOnUse" stroke-dasharray="0,0"><path id="SvgjsPath1029" d="M0 0L14 5L0 10L0 0 " fill="#323232" stroke="#323232" stroke-width="1"></path></marker><marker id="SvgjsMarker1087" markerWidth="14" markerHeight="10" refX="10" refY="5" viewBox="0 0 14 10" orient="auto" markerUnits="userSpaceOnUse" stroke-dasharray="0,0"><path id="SvgjsPath1088" d="M0 0L14 5L0 10L0 0 " fill="#323232" stroke="#323232" stroke-width="1"></path></marker><marker id="SvgjsMarker1091" markerWidth="14" markerHeight="10" refX="10" refY="5" viewBox="0 0 14 10" orient="auto" markerUnits="userSpaceOnUse" stroke-dasharray="0,0"><path id="SvgjsPath1092" d="M0 0L14 5L0 10L0 0 " fill="#323232" stroke="#323232" stroke-width="1"></path></marker><marker id="SvgjsMarker1127" markerWidth="14" markerHeight="10" refX="10" refY="5" viewBox="0 0 14 10" orient="auto" markerUnits="userSpaceOnUse" stroke-dasharray="0,0"><path id="SvgjsPath1128" d="M0 0L14 5L0 10L0 0 " fill="#323232" stroke="#323232" stroke-width="1"></path></marker><marker id="SvgjsMarker1131" markerWidth="14" markerHeight="10" refX="10" refY="5" viewBox="0 0 14 10" orient="auto" markerUnits="userSpaceOnUse" stroke-dasharray="0,0"><path id="SvgjsPath1132" d="M0 0L14 5L0 10L0 0 " fill="#323232" stroke="#323232" stroke-width="1"></path></marker><marker id="SvgjsMarker1135" markerWidth="14" markerHeight="10" refX="10" refY="5" viewBox="0 0 14 10" orient="auto" markerUnits="userSpaceOnUse" stroke-dasharray="0,0"><path id="SvgjsPath1136" d="M0 0L14 5L0 10L0 0 " fill="#323232" stroke="#323232" stroke-width="1"></path></marker><marker id="SvgjsMarker1145" markerWidth="14" markerHeight="10" refX="10" refY="5" viewBox="0 0 14 10" orient="auto" markerUnits="userSpaceOnUse" stroke-dasharray="0,0"><path id="SvgjsPath1146" d="M0 0L14 5L0 10L0 0 " fill="#323232" stroke="#323232" stroke-width="1"></path></marker><marker id="SvgjsMarker1171" markerWidth="14" markerHeight="10" refX="10" refY="5" viewBox="0 0 14 10" orient="auto" markerUnits="userSpaceOnUse" stroke-dasharray="0,0"><path id="SvgjsPath1172" d="M0 0L14 5L0 10L0 0 " fill="#323232" stroke="#323232" stroke-width="1"></path></marker><marker id="SvgjsMarker1183" markerWidth="14" markerHeight="10" refX="10" refY="5" viewBox="0 0 14 10" orient="auto" markerUnits="userSpaceOnUse" stroke-dasharray="0,0"><path id="SvgjsPath1184" d="M0 0L14 5L0 10L0 0 " fill="#323232" stroke="#323232" stroke-width="1"></path></marker><marker id="SvgjsMarker1193" markerWidth="14" markerHeight="10" refX="4" refY="5" viewBox="0 0 14 10" orient="auto" markerUnits="userSpaceOnUse" stroke-dasharray="0,0"><path id="SvgjsPath1194" d="M14 0L0 5L14 10L14 0 " fill="#323232" stroke="#323232" stroke-width="1"></path></marker><marker id="SvgjsMarker1209" markerWidth="14" markerHeight="10" refX="10" refY="5" viewBox="0 0 14 10" orient="auto" markerUnits="userSpaceOnUse" stroke-dasharray="0,0"><path id="SvgjsPath1210" d="M0 0L14 5L0 10L0 0 " fill="#323232" stroke="#323232" stroke-width="1"></path></marker><marker id="SvgjsMarker1213" markerWidth="14" markerHeight="10" refX="10" refY="5" viewBox="0 0 14 10" orient="auto" markerUnits="userSpaceOnUse" stroke-dasharray="0,0"><path id="SvgjsPath1214" d="M0 0L14 5L0 10L0 0 " fill="#323232" stroke="#323232" stroke-width="1"></path></marker></defs><g id="svgbackgroundid"><defs></defs><rect id="SvgjsRect1008" width="1625.5" height="434.5" fill="#ffffff"></rect></g><g id="SvgjsG1010" transform="translate(375.5,83.5)"><path id="SvgjsPath1011" d="M0 0L262 0L262 265L0 265Z " stroke="rgba(50,50,50,1)" stroke-width="2" fill-opacity="1" fill="#ffcdd2"></path><g id="SvgjsG1012"><text id="SvgjsText1013" font-family="微软雅黑" text-anchor="middle" font-size="13px" width="242px" fill="#323232" font-weight="400" align="middle" lineHeight="125%" font-style="" opacity="1" y="121.875" transform="rotate(0)"></text></g></g><g id="SvgjsG1014" transform="translate(84,42.5)"><path id="SvgjsPath1015" d="M0 0L186.5 0L186.5 47L0 47Z " stroke="rgba(50,50,50,1)" stroke-width="2" fill-opacity="1" fill="#ffffff"></path><g id="SvgjsG1016"><text id="SvgjsText1017" font-family="微软雅黑" text-anchor="middle" font-size="13px" width="167px" fill="#323232" font-weight="400" align="middle" lineHeight="125%" font-style="" opacity="1" y="12.875" transform="rotate(0)"><tspan id="SvgjsTspan1018" dy="16" x="93.5"><tspan id="SvgjsTspan1019" style="text-decoration:;">构建拼接loaderContext</tspan></tspan></text></g></g><g id="SvgjsG1020" transform="translate(84,127.5)"><path id="SvgjsPath1021" d="M0 0L186.5 0L186.5 47L0 47Z " stroke="rgba(50,50,50,1)" stroke-width="2" fill-opacity="1" fill="#ffffff"></path><g id="SvgjsG1022"><text id="SvgjsText1023" font-family="微软雅黑" text-anchor="middle" font-size="13px" width="167px" fill="#323232" font-weight="400" align="middle" lineHeight="125%" font-style="" opacity="1" y="12.875" transform="rotate(0)"><tspan id="SvgjsTspan1024" dy="16" x="93.5"><tspan id="SvgjsTspan1025" style="text-decoration:;">iteratePitchingLoaders()</tspan></tspan></text></g></g><g id="SvgjsG1026"><path id="SvgjsPath1027" d="M177.25 90.5L177.25 108.5L177.25 108.5L177.25 123.9 " stroke="#323232" stroke-width="2" fill="none" marker-end="url(#SvgjsMarker1028)"></path></g><g id="SvgjsG1030" transform="translate(438,216.25)"><path id="SvgjsPath1031" d="M0 0L135 0L135 39L0 39Z " stroke="rgba(50,50,50,1)" stroke-width="2" fill-opacity="1" fill="#ffffff"></path><g id="SvgjsG1032"><text id="SvgjsText1033" font-family="微软雅黑" text-anchor="middle" font-size="13px" width="115px" fill="#323232" font-weight="400" align="middle" lineHeight="125%" font-style="" opacity="1" y="8.875" transform="rotate(0)"><tspan id="SvgjsTspan1034" dy="16" x="67.5"><tspan id="SvgjsTspan1035" style="text-decoration:;">pitch()方法</tspan></tspan></text></g></g><g id="SvgjsG1036" transform="translate(435.5,280.25)"><path id="SvgjsPath1037" d="M0 0L135 0L135 39L0 39Z " stroke="rgba(50,50,50,1)" stroke-width="2" fill-opacity="1" fill="#ffffff"></path><g id="SvgjsG1038"><text id="SvgjsText1039" font-family="微软雅黑" text-anchor="middle" font-size="13px" width="115px" fill="#323232" font-weight="400" align="middle" lineHeight="125%" font-style="" opacity="1" y="8.875" transform="rotate(0)"><tspan id="SvgjsTspan1040" dy="16" x="67.5"><tspan id="SvgjsTspan1041" style="text-decoration:;">normal()方法</tspan></tspan></text></g></g><g id="SvgjsG1042" transform="translate(410.5,80.5)"><path id="SvgjsPath1043" d="M0 0L185 0L185 32L0 32Z " stroke="none" fill="none"></path><g id="SvgjsG1044"><text id="SvgjsText1045" font-family="微软雅黑" text-anchor="middle" font-size="13px" width="185px" fill="#323232" font-weight="400" align="middle" lineHeight="125%" font-style="" opacity="1" y="5.375" transform="rotate(0)"><tspan id="SvgjsTspan1046" dy="16" x="92.5"><tspan id="SvgjsTspan1047" style="text-decoration:;">loaderA</tspan></tspan></text></g></g><g id="SvgjsG1048" transform="translate(1209.5,161)"><path id="SvgjsPath1049" d="M0 0L391 0L391 193.5L0 193.5Z " stroke="rgba(50,50,50,1)" stroke-width="2" fill-opacity="1" fill="#ffffff"></path><g id="SvgjsG1050"><text id="SvgjsText1051" font-family="微软雅黑" text-anchor="start" font-size="13px" width="371px" fill="#323232" font-weight="400" align="top" lineHeight="125%" font-style="" opacity="1" y="-2.625" transform="rotate(0)"><tspan id="SvgjsTspan1052" dy="16" x="10"><tspan id="SvgjsTspan1053" style="text-decoration:;fill: rgb(255, 0, 0);text-decoration: underline;">options.processResource</tspan><tspan id="SvgjsTspan1054" style="text-decoration:;fill: rgb(255, 0, 0);">:</tspan></tspan><tspan id="SvgjsTspan1055" dy="16" x="10"><tspan id="SvgjsTspan1056" style="text-decoration:;">runLoaders传入的processResource方法，根据文件类型进行不</tspan></tspan><tspan id="SvgjsTspan1057" dy="16" x="10"><tspan id="SvgjsTspan1058" style="text-decoration:;">同Plugin的处理，比如入口文件.js，触发了FileUriPlugin的</tspan></tspan><tspan id="SvgjsTspan1059" dy="16" x="10"><tspan id="SvgjsTspan1060" style="text-decoration:;">apply()，进行文件的读取</tspan></tspan><tspan id="SvgjsTspan1061" dy="16" x="10"><tspan id="SvgjsTspan1062" style="text-decoration:;">hooks.readResource</tspan></tspan><tspan id="SvgjsTspan1063" dy="16" x="10"><tspan id="SvgjsTspan1064" style="text-decoration:;">    .for(undefined)</tspan></tspan><tspan id="SvgjsTspan1065" dy="16" x="10"><tspan id="SvgjsTspan1066" style="text-decoration:;">    .tapAsync("FileUriPlugin", (loaderContext, callback) =&gt; {</tspan></tspan><tspan id="SvgjsTspan1067" dy="16" x="10"><tspan id="SvgjsTspan1068" style="text-decoration:;">        const { resourcePath } = loaderContext;</tspan></tspan><tspan id="SvgjsTspan1069" dy="16" x="10"><tspan id="SvgjsTspan1070" style="text-decoration:;">        loaderContext.addDependency(resourcePath);</tspan></tspan><tspan id="SvgjsTspan1071" dy="16" x="10"><tspan id="SvgjsTspan1072" style="text-decoration:;">        loaderContext.fs.readFile(resourcePath, callback);</tspan></tspan><tspan id="SvgjsTspan1073" dy="16" x="10"><tspan id="SvgjsTspan1074" style="text-decoration:;">    });</tspan></tspan></text></g></g><g id="SvgjsG1075" transform="translate(396.5,115.5)"><path id="SvgjsPath1076" d="M0 0L218 0L218 71L0 71Z " stroke="rgba(50,50,50,1)" stroke-width="2" fill-opacity="1" fill="#ffffff"></path><g id="SvgjsG1077"><text id="SvgjsText1078" font-family="微软雅黑" text-anchor="middle" font-size="13px" width="198px" fill="#323232" font-weight="400" align="middle" lineHeight="125%" font-style="" opacity="1" y="8.875" transform="rotate(0)"><tspan id="SvgjsTspan1079" dy="16" x="109"><tspan id="SvgjsTspan1080" style="text-decoration:;">loadLoader(load)根据loader.path</tspan></tspan><tspan id="SvgjsTspan1081" dy="16" x="109"><tspan id="SvgjsTspan1082" style="text-decoration:;">读取文件获取对应的</tspan></tspan><tspan id="SvgjsTspan1083" dy="16" x="109"><tspan id="SvgjsTspan1084" style="text-decoration:;">normal、pitch、raw属性</tspan></tspan></text></g></g><g id="SvgjsG1085"><path id="SvgjsPath1086" d="M505.5 187.5L505.5 201.375L505.5 201.375L505.5 212.64999999999998 " stroke="#323232" stroke-width="2" fill="none" marker-end="url(#SvgjsMarker1087)"></path></g><g id="SvgjsG1089"><path id="SvgjsPath1090" d="M271.5 151L333.5 151L333.5 151.61206896551724L392.9 151.61206896551724 " stroke="#323232" stroke-width="2" fill="none" marker-end="url(#SvgjsMarker1091)"></path></g><g id="SvgjsG1093" transform="translate(705.75,83.5)"><path id="SvgjsPath1094" d="M0 0L267 0L267 265L0 265Z " stroke="rgba(50,50,50,1)" stroke-width="2" fill-opacity="1" fill="#fff9c4"></path><g id="SvgjsG1095"><text id="SvgjsText1096" font-family="微软雅黑" text-anchor="middle" font-size="13px" width="247px" fill="#323232" font-weight="400" align="middle" lineHeight="125%" font-style="" opacity="1" y="121.875" transform="rotate(0)"></text></g></g><g id="SvgjsG1097" transform="translate(768,216.5)"><path id="SvgjsPath1098" d="M0 0L135 0L135 39L0 39Z " stroke="rgba(50,50,50,1)" stroke-width="2" fill-opacity="1" fill="#ffffff"></path><g id="SvgjsG1099"><text id="SvgjsText1100" font-family="微软雅黑" text-anchor="middle" font-size="13px" width="115px" fill="#323232" font-weight="400" align="middle" lineHeight="125%" font-style="" opacity="1" y="8.875" transform="rotate(0)"><tspan id="SvgjsTspan1101" dy="16" x="67.5"><tspan id="SvgjsTspan1102" style="text-decoration:;">pitch()方法</tspan></tspan></text></g></g><g id="SvgjsG1103" transform="translate(765.5,280.25)"><path id="SvgjsPath1104" d="M0 0L135 0L135 39L0 39Z " stroke="rgba(50,50,50,1)" stroke-width="2" fill-opacity="1" fill="#ffffff"></path><g id="SvgjsG1105"><text id="SvgjsText1106" font-family="微软雅黑" text-anchor="middle" font-size="13px" width="115px" fill="#323232" font-weight="400" align="middle" lineHeight="125%" font-style="" opacity="1" y="8.875" transform="rotate(0)"><tspan id="SvgjsTspan1107" dy="16" x="67.5"><tspan id="SvgjsTspan1108" style="text-decoration:;">normal()方法</tspan></tspan></text></g></g><g id="SvgjsG1109" transform="translate(740.5,83.5)"><path id="SvgjsPath1110" d="M0 0L185 0L185 32L0 32Z " stroke="none" fill="none"></path><g id="SvgjsG1111"><text id="SvgjsText1112" font-family="微软雅黑" text-anchor="middle" font-size="13px" width="185px" fill="#323232" font-weight="400" align="middle" lineHeight="125%" font-style="" opacity="1" y="5.375" transform="rotate(0)"><tspan id="SvgjsTspan1113" dy="16" x="92.5"><tspan id="SvgjsTspan1114" style="text-decoration:;">loaderB</tspan></tspan></text></g></g><g id="SvgjsG1115" transform="translate(726.5,115.5)"><path id="SvgjsPath1116" d="M0 0L218 0L218 71L0 71Z " stroke="rgba(50,50,50,1)" stroke-width="2" fill-opacity="1" fill="#ffffff"></path><g id="SvgjsG1117"><text id="SvgjsText1118" font-family="微软雅黑" text-anchor="middle" font-size="13px" width="198px" fill="#323232" font-weight="400" align="middle" lineHeight="125%" font-style="" opacity="1" y="8.875" transform="rotate(0)"><tspan id="SvgjsTspan1119" dy="16" x="109"><tspan id="SvgjsTspan1120" style="text-decoration:;">loadLoader(load)根据loader.path</tspan></tspan><tspan id="SvgjsTspan1121" dy="16" x="109"><tspan id="SvgjsTspan1122" style="text-decoration:;">读取文件获取对应的</tspan></tspan><tspan id="SvgjsTspan1123" dy="16" x="109"><tspan id="SvgjsTspan1124" style="text-decoration:;">normal、pitch、raw属性</tspan></tspan></text></g></g><g id="SvgjsG1125"><path id="SvgjsPath1126" d="M835.5 187.5L835.5 201.5L835.5 201.5L835.5 212.89999999999998 " stroke="#323232" stroke-width="2" fill="none" marker-end="url(#SvgjsMarker1127)"></path></g><g id="SvgjsG1129"><path id="SvgjsPath1130" d="M574 235.75L649.75 235.75L649.75 151L722.9 151 " stroke="#323232" stroke-width="2" fill="none" marker-end="url(#SvgjsMarker1131)"></path></g><g id="SvgjsG1133"><path id="SvgjsPath1134" d="M904 236L953.5 236L953.5 236L1000.4000000000001 236 " stroke="#323232" stroke-width="2" fill="none" marker-end="url(#SvgjsMarker1135)"></path></g><g id="SvgjsG1137" transform="translate(1004,215.5)"><path id="SvgjsPath1138" d="M0 0L166 0L166 41L0 41Z " stroke="rgba(50,50,50,1)" stroke-width="2" fill-opacity="1" fill="#ffffff"></path><g id="SvgjsG1139"><text id="SvgjsText1140" font-family="微软雅黑" text-anchor="middle" font-size="13px" width="146px" fill="#323232" font-weight="400" align="middle" lineHeight="125%" font-style="" opacity="1" y="9.875" transform="rotate(0)"><tspan id="SvgjsTspan1141" dy="16" x="83"><tspan id="SvgjsTspan1142" style="text-decoration:;">processResource()</tspan></tspan></text></g></g><g id="SvgjsG1143"><path id="SvgjsPath1144" d="M764.5 299.75L668 299.75L668 299.75L574.1 299.75 " stroke="#323232" stroke-width="2" fill="none" marker-end="url(#SvgjsMarker1145)"></path></g><g id="SvgjsG1147" transform="translate(25,216.25)"><path id="SvgjsPath1148" d="M0 0L317.5 0L317.5 167L0 167Z " stroke="rgba(50,50,50,1)" stroke-width="2" fill-opacity="1" fill="#ffffff"></path><g id="SvgjsG1149"><text id="SvgjsText1150" font-family="微软雅黑" text-anchor="start" font-size="13px" width="298px" fill="#323232" font-weight="400" align="middle" lineHeight="125%" font-style="" opacity="1" y="8.875" transform="rotate(0)"><tspan id="SvgjsTspan1151" dy="16" x="10"><tspan id="SvgjsTspan1152" style="text-decoration:;">callback(null, {</tspan></tspan><tspan id="SvgjsTspan1153" dy="16" x="10"><tspan id="SvgjsTspan1154" style="text-decoration:;">    result: result,</tspan></tspan><tspan id="SvgjsTspan1155" dy="16" x="10"><tspan id="SvgjsTspan1156" style="text-decoration:;">    resourceBuffer: </tspan></tspan><tspan id="SvgjsTspan1157" dy="16" x="10"><tspan id="SvgjsTspan1158" style="text-decoration:;">processOptions.resourceBuffer,</tspan></tspan><tspan id="SvgjsTspan1159" dy="16" x="10"><tspan id="SvgjsTspan1160" style="text-decoration:;">    cacheable: requestCacheable,</tspan></tspan><tspan id="SvgjsTspan1161" dy="16" x="10"><tspan id="SvgjsTspan1162" style="text-decoration:;">    fileDependencies: fileDependencies,</tspan></tspan><tspan id="SvgjsTspan1163" dy="16" x="10"><tspan id="SvgjsTspan1164" style="text-decoration:;">    contextDependencies: contextDependencies,</tspan></tspan><tspan id="SvgjsTspan1165" dy="16" x="10"><tspan id="SvgjsTspan1166" style="text-decoration:;">    missingDependencies: missingDependencies</tspan></tspan><tspan id="SvgjsTspan1167" dy="16" x="10"><tspan id="SvgjsTspan1168" style="text-decoration:;">});</tspan></tspan></text></g></g><g id="SvgjsG1169"><path id="SvgjsPath1170" d="M434.5 299.75L389 299.75L389 299.75L346.1 299.75 " stroke="#323232" stroke-width="2" fill="none" marker-end="url(#SvgjsMarker1171)"></path></g><g id="SvgjsG1173" transform="translate(641.78125,115.5)"><path id="SvgjsPath1174" d="M0 0L63.96875 0L63.96875 36L0 36Z " stroke="none" fill="none"></path><g id="SvgjsG1175"><text id="SvgjsText1176" font-family="微软雅黑" text-anchor="middle" font-size="12px" width="64px" fill="#ff0000" font-weight="400" align="middle" lineHeight="125%" font-style="" opacity="1" y="0.5" transform="rotate(0)"><tspan id="SvgjsTspan1177" dy="15" x="32"><tspan id="SvgjsTspan1178" style="text-decoration:;">没有返回值</tspan></tspan><tspan id="SvgjsTspan1179" dy="15" x="32"><tspan id="SvgjsTspan1180" style="text-decoration:;">继续下一个</tspan></tspan></text></g></g><g id="SvgjsG1181"><path id="SvgjsPath1182" d="M455.5 61.5L687 61.5L687 61.5L918.5 61.5 " stroke="#323232" stroke-width="2" fill="none" marker-end="url(#SvgjsMarker1183)"></path></g><g id="SvgjsG1185" transform="translate(587.125,25)"><path id="SvgjsPath1186" d="M0 0L182.875 0L182.875 45.5L0 45.5Z " stroke="none" fill="none"></path><g id="SvgjsG1187"><text id="SvgjsText1188" font-family="微软雅黑" text-anchor="middle" font-size="13px" width="183px" fill="#323232" font-weight="400" align="middle" lineHeight="125%" font-style="" opacity="1" y="12.125" transform="rotate(0)"><tspan id="SvgjsTspan1189" dy="16" x="91.5"><tspan id="SvgjsTspan1190" style="text-decoration:;">loaderContext.loaderIndex++</tspan></tspan></text></g></g><g id="SvgjsG1191"><path id="SvgjsPath1192" d="M450.625 373L682.125 373L682.125 373L913.625 373 " stroke="#323232" stroke-width="2" fill="none" marker-start="url(#SvgjsMarker1193)"></path></g><g id="SvgjsG1195" transform="translate(584.625,363.5)"><path id="SvgjsPath1196" d="M0 0L182.875 0L182.875 45.5L0 45.5Z " stroke="none" fill="none"></path><g id="SvgjsG1197"><text id="SvgjsText1198" font-family="微软雅黑" text-anchor="middle" font-size="13px" width="183px" fill="#323232" font-weight="400" align="middle" lineHeight="125%" font-style="" opacity="1" y="12.125" transform="rotate(0)"><tspan id="SvgjsTspan1199" dy="16" x="91.5"><tspan id="SvgjsTspan1200" style="text-decoration:;">loaderContext.loaderIndex--</tspan></tspan></text></g></g><g id="SvgjsG1201" transform="translate(1209.5,101.75)"><path id="SvgjsPath1202" d="M0 0L391 0L391 34.75L0 34.75Z " stroke="rgba(50,50,50,1)" stroke-width="2" fill-opacity="1" fill="#ffffff"></path><g id="SvgjsG1203"><text id="SvgjsText1204" font-family="微软雅黑" text-anchor="middle" font-size="13px" width="371px" fill="#323232" font-weight="400" align="middle" lineHeight="125%" font-style="" opacity="1" y="6.75" transform="rotate(0)"><tspan id="SvgjsTspan1205" dy="16" x="195.5"><tspan id="SvgjsTspan1206" style="text-decoration:;">loaderContext.loaderIndex = loaderContext.loaders.length - 1</tspan></tspan></text></g></g><g id="SvgjsG1207"><path id="SvgjsPath1208" d="M1405 137.5L1405 148.75L1405 148.75L1405 157.4 " stroke="#323232" stroke-width="2" fill="none" marker-end="url(#SvgjsMarker1209)"></path></g><g id="SvgjsG1211"><path id="SvgjsPath1212" d="M1087 257.5L1087 299.75L904.1 299.75 " stroke="#323232" stroke-width="2" fill="none" marker-end="url(#SvgjsMarker1213)"></path></g><g id="SvgjsG1215" transform="translate(1095.9375,107.75)"><path id="SvgjsPath1216" d="M104.375 0Q95.375 0 95.375 9L95.375 111.375Q95.375 120.375 82.375 120.375Q95.375 120.375 95.375 129.375L95.375 231.75Q95.375 240.75 104.375 240.75 " stroke="rgba(50,50,50,1)" stroke-width="2" fill="none"></path><path id="SvgjsPath1217" d="M0 0L104.375 0L104.375 240.75L0 240.75Z " stroke="none" fill="none"></path><g id="SvgjsG1218"><text id="SvgjsText1219" font-family="微软雅黑" text-anchor="end" font-size="13px" width="78px" fill="#323232" font-weight="400" align="middle" lineHeight="125%" font-style="" opacity="1" y="109.75" transform="rotate(0)"></text></g></g><g id="SvgjsG1220" transform="translate(1024.5,42.5)"><path id="SvgjsPath1221" d="M0 0L192 0L192 38L0 38Z " stroke="none" fill="none"></path><g id="SvgjsG1222"><text id="SvgjsText1223" font-family="微软雅黑" text-anchor="middle" font-size="13px" width="192px" fill="#323232" font-weight="400" align="middle" lineHeight="125%" font-style="" opacity="0.2" y="8.375" transform="rotate(0)"><tspan id="SvgjsTspan1224" dy="16" x="96"><tspan id="SvgjsTspan1225" style="text-decoration:;">https://github.com/wbccb</tspan></tspan></text></g></g></svg>