<svg id="SvgjsSvg1000" xmlns="http://www.w3.org/2000/svg" version="1.1" xmlns:xlink="http://www.w3.org/1999/xlink" xmlns:svgjs="http://svgjs.com/svgjs" width="1540.5" height="434.5"><defs id="SvgjsDefs1001"><marker id="SvgjsMarker1028" markerWidth="14" markerHeight="10" refX="10" refY="5" viewBox="0 0 14 10" orient="auto" markerUnits="userSpaceOnUse" stroke-dasharray="0,0"><path id="SvgjsPath1029" d="M0 0L14 5L0 10L0 0 " fill="#323232" stroke="#323232" stroke-width="1"></path></marker><marker id="SvgjsMarker1060" markerWidth="14" markerHeight="10" refX="10" refY="5" viewBox="0 0 14 10" orient="auto" markerUnits="userSpaceOnUse" stroke-dasharray="0,0"><path id="SvgjsPath1061" d="M0 0L14 5L0 10L0 0 " fill="#323232" stroke="#323232" stroke-width="1"></path></marker><marker id="SvgjsMarker1064" markerWidth="14" markerHeight="10" refX="10" refY="5" viewBox="0 0 14 10" orient="auto" markerUnits="userSpaceOnUse" stroke-dasharray="0,0"><path id="SvgjsPath1065" d="M0 0L14 5L0 10L0 0 " fill="#323232" stroke="#323232" stroke-width="1"></path></marker><marker id="SvgjsMarker1100" markerWidth="14" markerHeight="10" refX="10" refY="5" viewBox="0 0 14 10" orient="auto" markerUnits="userSpaceOnUse" stroke-dasharray="0,0"><path id="SvgjsPath1101" d="M0 0L14 5L0 10L0 0 " fill="#323232" stroke="#323232" stroke-width="1"></path></marker><marker id="SvgjsMarker1104" markerWidth="14" markerHeight="10" refX="10" refY="5" viewBox="0 0 14 10" orient="auto" markerUnits="userSpaceOnUse" stroke-dasharray="0,0"><path id="SvgjsPath1105" d="M0 0L14 5L0 10L0 0 " fill="#323232" stroke="#323232" stroke-width="1"></path></marker><marker id="SvgjsMarker1108" markerWidth="14" markerHeight="10" refX="10" refY="5" viewBox="0 0 14 10" orient="auto" markerUnits="userSpaceOnUse" stroke-dasharray="0,0"><path id="SvgjsPath1109" d="M0 0L14 5L0 10L0 0 " fill="#323232" stroke="#323232" stroke-width="1"></path></marker><marker id="SvgjsMarker1134" markerWidth="14" markerHeight="10" refX="10" refY="5" viewBox="0 0 14 10" orient="auto" markerUnits="userSpaceOnUse" stroke-dasharray="0,0"><path id="SvgjsPath1135" d="M0 0L14 5L0 10L0 0 " fill="#323232" stroke="#323232" stroke-width="1"></path></marker><marker id="SvgjsMarker1146" markerWidth="14" markerHeight="10" refX="10" refY="5" viewBox="0 0 14 10" orient="auto" markerUnits="userSpaceOnUse" stroke-dasharray="0,0"><path id="SvgjsPath1147" d="M0 0L14 5L0 10L0 0 " fill="#323232" stroke="#323232" stroke-width="1"></path></marker><marker id="SvgjsMarker1156" markerWidth="14" markerHeight="10" refX="4" refY="5" viewBox="0 0 14 10" orient="auto" markerUnits="userSpaceOnUse" stroke-dasharray="0,0"><path id="SvgjsPath1157" d="M14 0L0 5L14 10L14 0 " fill="#323232" stroke="#323232" stroke-width="1"></path></marker><marker id="SvgjsMarker1198" markerWidth="14" markerHeight="10" refX="10" refY="5" viewBox="0 0 14 10" orient="auto" markerUnits="userSpaceOnUse" stroke-dasharray="0,0"><path id="SvgjsPath1199" d="M0 0L14 5L0 10L0 0 " fill="#323232" stroke="#323232" stroke-width="1"></path></marker><marker id="SvgjsMarker1216" markerWidth="14" markerHeight="10" refX="10" refY="5" viewBox="0 0 14 10" orient="auto" markerUnits="userSpaceOnUse" stroke-dasharray="0,0"><path id="SvgjsPath1217" d="M0 0L14 5L0 10L0 0 " fill="#323232" stroke="#323232" stroke-width="1"></path></marker><marker id="SvgjsMarker1220" markerWidth="14" markerHeight="10" refX="10" refY="5" viewBox="0 0 14 10" orient="auto" markerUnits="userSpaceOnUse" stroke-dasharray="0,0"><path id="SvgjsPath1221" d="M0 0L14 5L0 10L0 0 " fill="#323232" stroke="#323232" stroke-width="1"></path></marker><marker id="SvgjsMarker1230" markerWidth="14" markerHeight="10" refX="10" refY="5" viewBox="0 0 14 10" orient="auto" markerUnits="userSpaceOnUse" stroke-dasharray="0,0"><path id="SvgjsPath1231" d="M0 0L14 5L0 10L0 0 " fill="#323232" stroke="#323232" stroke-width="1"></path></marker></defs><g id="svgbackgroundid"><defs></defs><rect id="SvgjsRect1008" width="1540.5" height="434.5" fill="#ffffff"></rect></g><g id="SvgjsG1010" transform="translate(375.5,83.5)"><path id="SvgjsPath1011" d="M0 0L261 0L261 265L0 265Z " stroke="rgba(50,50,50,1)" stroke-width="2" fill-opacity="1" fill="#ffcdd2"></path><g id="SvgjsG1012"><text id="SvgjsText1013" font-family="微软雅黑" text-anchor="middle" font-size="13px" width="241px" fill="#323232" font-weight="400" align="middle" lineHeight="125%" font-style="" opacity="1" y="121.875" transform="rotate(0)"></text></g></g><g id="SvgjsG1014" transform="translate(84,42.5)"><path id="SvgjsPath1015" d="M0 0L186.5 0L186.5 47L0 47Z " stroke="rgba(50,50,50,1)" stroke-width="2" fill-opacity="1" fill="#ffffff"></path><g id="SvgjsG1016"><text id="SvgjsText1017" font-family="微软雅黑" text-anchor="middle" font-size="13px" width="167px" fill="#323232" font-weight="400" align="middle" lineHeight="125%" font-style="" opacity="1" y="12.875" transform="rotate(0)"><tspan id="SvgjsTspan1018" dy="16" x="93.5"><tspan id="SvgjsTspan1019" style="text-decoration:;">构建拼接loaderContext</tspan></tspan></text></g></g><g id="SvgjsG1020" transform="translate(84,127.5)"><path id="SvgjsPath1021" d="M0 0L186.5 0L186.5 47L0 47Z " stroke="rgba(50,50,50,1)" stroke-width="2" fill-opacity="1" fill="#ffffff"></path><g id="SvgjsG1022"><text id="SvgjsText1023" font-family="微软雅黑" text-anchor="middle" font-size="13px" width="167px" fill="#323232" font-weight="400" align="middle" lineHeight="125%" font-style="" opacity="1" y="12.875" transform="rotate(0)"><tspan id="SvgjsTspan1024" dy="16" x="93.5"><tspan id="SvgjsTspan1025" style="text-decoration:;">iteratePitchingLoaders()</tspan></tspan></text></g></g><g id="SvgjsG1026"><path id="SvgjsPath1027" d="M177.25 90.5L177.25 108.5L177.25 108.5L177.25 123.9 " stroke="#323232" stroke-width="2" fill="none" marker-end="url(#SvgjsMarker1028)"></path></g><g id="SvgjsG1030" transform="translate(438.5,216.25)"><path id="SvgjsPath1031" d="M0 0L135 0L135 39L0 39Z " stroke="rgba(50,50,50,1)" stroke-width="2" fill-opacity="1" fill="#ffffff"></path><g id="SvgjsG1032"><text id="SvgjsText1033" font-family="微软雅黑" text-anchor="middle" font-size="13px" width="115px" fill="#323232" font-weight="400" align="middle" lineHeight="125%" font-style="" opacity="1" y="8.875" transform="rotate(0)"><tspan id="SvgjsTspan1034" dy="16" x="67.5"><tspan id="SvgjsTspan1035" style="text-decoration:;">pitch()方法</tspan></tspan></text></g></g><g id="SvgjsG1036" transform="translate(435.5,280.25)"><path id="SvgjsPath1037" d="M0 0L135 0L135 39L0 39Z " stroke="rgba(50,50,50,1)" stroke-width="2" fill-opacity="1" fill="#ffffff"></path><g id="SvgjsG1038"><text id="SvgjsText1039" font-family="微软雅黑" text-anchor="middle" font-size="13px" width="115px" fill="#323232" font-weight="400" align="middle" lineHeight="125%" font-style="" opacity="1" y="8.875" transform="rotate(0)"><tspan id="SvgjsTspan1040" dy="16" x="67.5"><tspan id="SvgjsTspan1041" style="text-decoration:;">normal()方法</tspan></tspan></text></g></g><g id="SvgjsG1042" transform="translate(410.5,80.5)"><path id="SvgjsPath1043" d="M0 0L185 0L185 32L0 32Z " stroke="none" fill="none"></path><g id="SvgjsG1044"><text id="SvgjsText1045" font-family="微软雅黑" text-anchor="middle" font-size="13px" width="185px" fill="#323232" font-weight="400" align="middle" lineHeight="125%" font-style="" opacity="1" y="5.375" transform="rotate(0)"><tspan id="SvgjsTspan1046" dy="16" x="92.5"><tspan id="SvgjsTspan1047" style="text-decoration:;">loaderA</tspan></tspan></text></g></g><g id="SvgjsG1048" transform="translate(396.5,112.5)"><path id="SvgjsPath1049" d="M0 0L219 0L219 77L0 77Z " stroke="rgba(50,50,50,1)" stroke-width="2" fill-opacity="1" fill="#ffffff"></path><g id="SvgjsG1050"><text id="SvgjsText1051" font-family="微软雅黑" text-anchor="middle" font-size="13px" width="199px" fill="#323232" font-weight="400" align="middle" lineHeight="125%" font-style="" opacity="1" y="11.875" transform="rotate(0)"><tspan id="SvgjsTspan1052" dy="16" x="109.5"><tspan id="SvgjsTspan1053" style="text-decoration:;">loadLoader(load)根据loader.path</tspan></tspan><tspan id="SvgjsTspan1054" dy="16" x="109.5"><tspan id="SvgjsTspan1055" style="text-decoration:;">读取文件获取对应的</tspan></tspan><tspan id="SvgjsTspan1056" dy="16" x="109.5"><tspan id="SvgjsTspan1057" style="text-decoration:;">normal、pitch、raw属性</tspan></tspan></text></g></g><g id="SvgjsG1058"><path id="SvgjsPath1059" d="M506 190.5L506 202.875L506 202.875L506 212.64999999999998 " stroke="#323232" stroke-width="2" fill="none" marker-end="url(#SvgjsMarker1060)"></path></g><g id="SvgjsG1062"><path id="SvgjsPath1063" d="M271.5 151L333.5 151L333.5 151.66379310344826L392.9 151.66379310344826 " stroke="#323232" stroke-width="2" fill="none" marker-end="url(#SvgjsMarker1064)"></path></g><g id="SvgjsG1066" transform="translate(705.75,83.5)"><path id="SvgjsPath1067" d="M0 0L267 0L267 265L0 265Z " stroke="rgba(50,50,50,1)" stroke-width="2" fill-opacity="1" fill="#fff9c4"></path><g id="SvgjsG1068"><text id="SvgjsText1069" font-family="微软雅黑" text-anchor="middle" font-size="13px" width="247px" fill="#323232" font-weight="400" align="middle" lineHeight="125%" font-style="" opacity="1" y="121.875" transform="rotate(0)"></text></g></g><g id="SvgjsG1070" transform="translate(771.75,216.5)"><path id="SvgjsPath1071" d="M0 0L135 0L135 39L0 39Z " stroke="rgba(50,50,50,1)" stroke-width="2" fill-opacity="1" fill="#ffffff"></path><g id="SvgjsG1072"><text id="SvgjsText1073" font-family="微软雅黑" text-anchor="middle" font-size="13px" width="115px" fill="#323232" font-weight="400" align="middle" lineHeight="125%" font-style="" opacity="1" y="8.875" transform="rotate(0)"><tspan id="SvgjsTspan1074" dy="16" x="67.5"><tspan id="SvgjsTspan1075" style="text-decoration:;">pitch()方法</tspan></tspan></text></g></g><g id="SvgjsG1076" transform="translate(765.5,280.25)"><path id="SvgjsPath1077" d="M0 0L135 0L135 39L0 39Z " stroke="rgba(50,50,50,1)" stroke-width="2" fill-opacity="1" fill="#ffffff"></path><g id="SvgjsG1078"><text id="SvgjsText1079" font-family="微软雅黑" text-anchor="middle" font-size="13px" width="115px" fill="#323232" font-weight="400" align="middle" lineHeight="125%" font-style="" opacity="1" y="8.875" transform="rotate(0)"><tspan id="SvgjsTspan1080" dy="16" x="67.5"><tspan id="SvgjsTspan1081" style="text-decoration:;">normal()方法</tspan></tspan></text></g></g><g id="SvgjsG1082" transform="translate(740.5,83.5)"><path id="SvgjsPath1083" d="M0 0L185 0L185 32L0 32Z " stroke="none" fill="none"></path><g id="SvgjsG1084"><text id="SvgjsText1085" font-family="微软雅黑" text-anchor="middle" font-size="13px" width="185px" fill="#323232" font-weight="400" align="middle" lineHeight="125%" font-style="" opacity="1" y="5.375" transform="rotate(0)"><tspan id="SvgjsTspan1086" dy="16" x="92.5"><tspan id="SvgjsTspan1087" style="text-decoration:;">loaderB</tspan></tspan></text></g></g><g id="SvgjsG1088" transform="translate(726.5,112.5)"><path id="SvgjsPath1089" d="M0 0L225.5 0L225.5 77L0 77Z " stroke="rgba(50,50,50,1)" stroke-width="2" fill-opacity="1" fill="#ffffff"></path><g id="SvgjsG1090"><text id="SvgjsText1091" font-family="微软雅黑" text-anchor="middle" font-size="13px" width="206px" fill="#323232" font-weight="400" align="middle" lineHeight="125%" font-style="" opacity="1" y="11.875" transform="rotate(0)"><tspan id="SvgjsTspan1092" dy="16" x="113"><tspan id="SvgjsTspan1093" style="text-decoration:;">loadLoader(load)根据loader.path</tspan></tspan><tspan id="SvgjsTspan1094" dy="16" x="113"><tspan id="SvgjsTspan1095" style="text-decoration:;">读取文件获取对应的</tspan></tspan><tspan id="SvgjsTspan1096" dy="16" x="113"><tspan id="SvgjsTspan1097" style="text-decoration:;">normal、pitch、raw属性</tspan></tspan></text></g></g><g id="SvgjsG1098"><path id="SvgjsPath1099" d="M839.25 190.5L839.25 203L839.25 203L839.25 212.89999999999998 " stroke="#323232" stroke-width="2" fill="none" marker-end="url(#SvgjsMarker1100)"></path></g><g id="SvgjsG1102"><path id="SvgjsPath1103" d="M574.5 235.75L640 235.75L640 151L722.9 151 " stroke="#323232" stroke-width="2" fill="none" marker-end="url(#SvgjsMarker1104)"></path></g><g id="SvgjsG1106"><path id="SvgjsPath1107" d="M764.5 299.75L668 299.75L668 299.75L574.1 299.75 " stroke="#323232" stroke-width="2" fill="none" marker-end="url(#SvgjsMarker1108)"></path></g><g id="SvgjsG1110" transform="translate(25,216.25)"><path id="SvgjsPath1111" d="M0 0L317.5 0L317.5 167L0 167Z " stroke="rgba(50,50,50,1)" stroke-width="2" fill-opacity="1" fill="#ffffff"></path><g id="SvgjsG1112"><text id="SvgjsText1113" font-family="微软雅黑" text-anchor="start" font-size="13px" width="298px" fill="#323232" font-weight="400" align="middle" lineHeight="125%" font-style="" opacity="1" y="8.875" transform="rotate(0)"><tspan id="SvgjsTspan1114" dy="16" x="10"><tspan id="SvgjsTspan1115" style="text-decoration:;">callback(null, {</tspan></tspan><tspan id="SvgjsTspan1116" dy="16" x="10"><tspan id="SvgjsTspan1117" style="text-decoration:;">    result: result,</tspan></tspan><tspan id="SvgjsTspan1118" dy="16" x="10"><tspan id="SvgjsTspan1119" style="text-decoration:;">    resourceBuffer: </tspan></tspan><tspan id="SvgjsTspan1120" dy="16" x="10"><tspan id="SvgjsTspan1121" style="text-decoration:;">processOptions.resourceBuffer,</tspan></tspan><tspan id="SvgjsTspan1122" dy="16" x="10"><tspan id="SvgjsTspan1123" style="text-decoration:;">    cacheable: requestCacheable,</tspan></tspan><tspan id="SvgjsTspan1124" dy="16" x="10"><tspan id="SvgjsTspan1125" style="text-decoration:;">    fileDependencies: fileDependencies,</tspan></tspan><tspan id="SvgjsTspan1126" dy="16" x="10"><tspan id="SvgjsTspan1127" style="text-decoration:;">    contextDependencies: contextDependencies,</tspan></tspan><tspan id="SvgjsTspan1128" dy="16" x="10"><tspan id="SvgjsTspan1129" style="text-decoration:;">    missingDependencies: missingDependencies</tspan></tspan><tspan id="SvgjsTspan1130" dy="16" x="10"><tspan id="SvgjsTspan1131" style="text-decoration:;">});</tspan></tspan></text></g></g><g id="SvgjsG1132"><path id="SvgjsPath1133" d="M434.5 299.75L389 299.75L389 299.75L346.1 299.75 " stroke="#323232" stroke-width="2" fill="none" marker-end="url(#SvgjsMarker1134)"></path></g><g id="SvgjsG1136" transform="translate(639.625,112.5)"><path id="SvgjsPath1137" d="M0 0L63 0L63 30.75L0 30.75Z " stroke="none" fill="none"></path><g id="SvgjsG1138"><text id="SvgjsText1139" font-family="微软雅黑" text-anchor="middle" font-size="12px" width="63px" fill="#ff0000" font-weight="400" align="middle" lineHeight="125%" font-style="" opacity="1" y="-2.125" transform="rotate(0)"><tspan id="SvgjsTspan1140" dy="15" x="31.5"><tspan id="SvgjsTspan1141" style="text-decoration:;">没有返回值</tspan></tspan><tspan id="SvgjsTspan1142" dy="15" x="31.5"><tspan id="SvgjsTspan1143" style="text-decoration:;">继续下一个</tspan></tspan></text></g></g><g id="SvgjsG1144"><path id="SvgjsPath1145" d="M455.5 61.5L687 61.5L687 61.5L918.5 61.5 " stroke="#323232" stroke-width="2" fill="none" marker-end="url(#SvgjsMarker1146)"></path></g><g id="SvgjsG1148" transform="translate(587.125,25)"><path id="SvgjsPath1149" d="M0 0L182.875 0L182.875 45.5L0 45.5Z " stroke="none" fill="none"></path><g id="SvgjsG1150"><text id="SvgjsText1151" font-family="微软雅黑" text-anchor="middle" font-size="13px" width="183px" fill="#323232" font-weight="400" align="middle" lineHeight="125%" font-style="" opacity="1" y="12.125" transform="rotate(0)"><tspan id="SvgjsTspan1152" dy="16" x="91.5"><tspan id="SvgjsTspan1153" style="text-decoration:;">loaderContext.loaderIndex++</tspan></tspan></text></g></g><g id="SvgjsG1154"><path id="SvgjsPath1155" d="M450.625 373L682.125 373L682.125 373L913.625 373 " stroke="#323232" stroke-width="2" fill="none" marker-start="url(#SvgjsMarker1156)"></path></g><g id="SvgjsG1158" transform="translate(584.625,363.5)"><path id="SvgjsPath1159" d="M0 0L182.875 0L182.875 45.5L0 45.5Z " stroke="none" fill="none"></path><g id="SvgjsG1160"><text id="SvgjsText1161" font-family="微软雅黑" text-anchor="middle" font-size="13px" width="183px" fill="#323232" font-weight="400" align="middle" lineHeight="125%" font-style="" opacity="1" y="12.125" transform="rotate(0)"><tspan id="SvgjsTspan1162" dy="16" x="91.5"><tspan id="SvgjsTspan1163" style="text-decoration:;">loaderContext.loaderIndex--</tspan></tspan></text></g></g><g id="SvgjsG1164" transform="translate(1248.5,83.5)"><path id="SvgjsPath1165" d="M0 0L267 0L267 265L0 265Z " stroke="rgba(50,50,50,1)" stroke-width="2" fill-opacity="1" fill="#c8e6c9"></path><g id="SvgjsG1166"><text id="SvgjsText1167" font-family="微软雅黑" text-anchor="middle" font-size="13px" width="247px" fill="#323232" font-weight="400" align="middle" lineHeight="125%" font-style="" opacity="1" y="121.875" transform="rotate(0)"></text></g></g><g id="SvgjsG1168" transform="translate(1314.5,216.5)"><path id="SvgjsPath1169" d="M0 0L135 0L135 39L0 39Z " stroke="rgba(50,50,50,1)" stroke-width="2" fill-opacity="1" fill="#c8e6c9"></path><g id="SvgjsG1170"><text id="SvgjsText1171" font-family="微软雅黑" text-anchor="middle" font-size="13px" width="115px" fill="#323232" font-weight="400" align="middle" lineHeight="125%" font-style="" opacity="1" y="8.875" transform="rotate(0)"><tspan id="SvgjsTspan1172" dy="16" x="67.5"><tspan id="SvgjsTspan1173" style="text-decoration:;">pitch()方法</tspan></tspan></text></g></g><g id="SvgjsG1174" transform="translate(1314.5,280.25)"><path id="SvgjsPath1175" d="M0 0L135 0L135 39L0 39Z " stroke="rgba(50,50,50,1)" stroke-width="2" fill-opacity="1" fill="#c8e6c9"></path><g id="SvgjsG1176"><text id="SvgjsText1177" font-family="微软雅黑" text-anchor="middle" font-size="13px" width="115px" fill="#323232" font-weight="400" align="middle" lineHeight="125%" font-style="" opacity="1" y="8.875" transform="rotate(0)"><tspan id="SvgjsTspan1178" dy="16" x="67.5"><tspan id="SvgjsTspan1179" style="text-decoration:;">normal()方法</tspan></tspan></text></g></g><g id="SvgjsG1180" transform="translate(1283.25,83.5)"><path id="SvgjsPath1181" d="M0 0L185 0L185 32L0 32Z " stroke="none" fill="none"></path><g id="SvgjsG1182"><text id="SvgjsText1183" font-family="微软雅黑" text-anchor="middle" font-size="13px" width="185px" fill="#323232" font-weight="400" align="middle" lineHeight="125%" font-style="" opacity="1" y="5.375" transform="rotate(0)"><tspan id="SvgjsTspan1184" dy="16" x="92.5"><tspan id="SvgjsTspan1185" style="text-decoration:;">loaderC</tspan></tspan></text></g></g><g id="SvgjsG1186" transform="translate(1269.25,115.5)"><path id="SvgjsPath1187" d="M0 0L225.5 0L225.5 74L0 74Z " stroke="rgba(50,50,50,1)" stroke-width="2" fill-opacity="1" fill="#c8e6c9"></path><g id="SvgjsG1188"><text id="SvgjsText1189" font-family="微软雅黑" text-anchor="middle" font-size="13px" width="206px" fill="#323232" font-weight="400" align="middle" lineHeight="125%" font-style="" opacity="1" y="10.375" transform="rotate(0)"><tspan id="SvgjsTspan1190" dy="16" x="113"><tspan id="SvgjsTspan1191" style="text-decoration:;">loadLoader(load)根据loader.path</tspan></tspan><tspan id="SvgjsTspan1192" dy="16" x="113"><tspan id="SvgjsTspan1193" style="text-decoration:;">读取文件获取对应的</tspan></tspan><tspan id="SvgjsTspan1194" dy="16" x="113"><tspan id="SvgjsTspan1195" style="text-decoration:;">normal、pitch、raw属性</tspan></tspan></text></g></g><g id="SvgjsG1196"><path id="SvgjsPath1197" d="M1382 190.5L1382 203L1382 203L1382 212.89999999999998 " stroke="#323232" stroke-width="2" fill="none" marker-end="url(#SvgjsMarker1198)"></path></g><g id="SvgjsG1200" transform="translate(1036,83.5)"><path id="SvgjsPath1201" d="M0 0L149.25 0L149.25 42L0 42Z " stroke="rgba(50,50,50,1)" stroke-width="2" fill-opacity="1" fill="#ffffff"></path><g id="SvgjsG1202"><text id="SvgjsText1203" font-family="微软雅黑" text-anchor="middle" font-size="13px" width="130px" fill="#323232" font-weight="400" align="middle" lineHeight="125%" font-style="" opacity="1" y="2.375" transform="rotate(0)"><tspan id="SvgjsTspan1204" dy="16" x="75"><tspan id="SvgjsTspan1205" style="text-decoration:;">检测到pitch()方法有返</tspan></tspan><tspan id="SvgjsTspan1206" dy="16" x="75"><tspan id="SvgjsTspan1207" style="text-decoration:;">回值</tspan></tspan></text></g></g><g id="SvgjsG1208" transform="translate(1010.5,157.75)"><path id="SvgjsPath1209" d="M0 0L200.25 0L200.25 37.75L0 37.75Z " stroke="rgba(50,50,50,1)" stroke-width="2" fill-opacity="1" fill="#ffffff"></path><g id="SvgjsG1210"><text id="SvgjsText1211" font-family="微软雅黑" text-anchor="middle" font-size="13px" width="181px" fill="#323232" font-weight="400" align="middle" lineHeight="125%" font-style="" opacity="1" y="8.25" transform="rotate(0)"><tspan id="SvgjsTspan1212" dy="16" x="100.5"><tspan id="SvgjsTspan1213" style="text-decoration:;">loaderContext.loaderIndex--</tspan></tspan></text></g></g><g id="SvgjsG1214"><path id="SvgjsPath1215" d="M1110.625 129.5L1110.625 143.125L1110.625 143.125L1110.625 154.15 " stroke="#323232" stroke-width="2" fill="none" marker-end="url(#SvgjsMarker1216)"></path></g><g id="SvgjsG1218"><path id="SvgjsPath1219" d="M1110.625 196.5L1110.625 299.75L904.1 299.75 " stroke="#323232" stroke-width="2" fill="none" marker-end="url(#SvgjsMarker1220)"></path></g><g id="SvgjsG1222" transform="translate(968.5,294.5)"><path id="SvgjsPath1223" d="M0 0L158 0L158 35L0 35Z " stroke="none" fill="none"></path><g id="SvgjsG1224"><text id="SvgjsText1225" font-family="微软雅黑" text-anchor="middle" font-size="13px" width="158px" fill="#323232" font-weight="400" align="middle" lineHeight="125%" font-style="" opacity="1" y="6.875" transform="rotate(0)"><tspan id="SvgjsTspan1226" dy="16" x="79"><tspan id="SvgjsTspan1227" style="text-decoration:;">传递返回值args作为参数</tspan></tspan></text></g></g><g id="SvgjsG1228"><path id="SvgjsPath1229" d="M907.75 236L985.375 236L985.375 104.5L1032.4 104.5 " stroke="#323232" stroke-width="2" fill="none" marker-end="url(#SvgjsMarker1230)"></path></g></svg>