<svg id="SvgjsSvg1000" xmlns="http://www.w3.org/2000/svg" version="1.1" xmlns:xlink="http://www.w3.org/1999/xlink" xmlns:svgjs="http://svgjs.com/svgjs" width="1257.25" height="947"><defs id="SvgjsDefs1001"><marker id="SvgjsMarker1048" markerWidth="14" markerHeight="10" refX="10" refY="5" viewBox="0 0 14 10" orient="auto" markerUnits="userSpaceOnUse" stroke-dasharray="0,0"><path id="SvgjsPath1049" d="M0 0L14 5L0 10L0 0 " fill="#323232" stroke="#323232" stroke-width="1"></path></marker><marker id="SvgjsMarker1057" markerWidth="14" markerHeight="10" refX="10" refY="5" viewBox="0 0 14 10" orient="auto" markerUnits="userSpaceOnUse" stroke-dasharray="0,0"><path id="SvgjsPath1058" d="M0 0L14 5L0 10L0 0 " fill="#323232" stroke="#323232" stroke-width="1"></path></marker><marker id="SvgjsMarker1085" markerWidth="14" markerHeight="10" refX="10" refY="5" viewBox="0 0 14 10" orient="auto" markerUnits="userSpaceOnUse" stroke-dasharray="0,0"><path id="SvgjsPath1086" d="M0 0L14 5L0 10L0 0 " fill="#323232" stroke="#323232" stroke-width="1"></path></marker><marker id="SvgjsMarker1089" markerWidth="14" markerHeight="10" refX="10" refY="5" viewBox="0 0 14 10" orient="auto" markerUnits="userSpaceOnUse" stroke-dasharray="0,0"><path id="SvgjsPath1090" d="M0 0L14 5L0 10L0 0 " fill="#323232" stroke="#323232" stroke-width="1"></path></marker><marker id="SvgjsMarker1093" markerWidth="14" markerHeight="10" refX="10" refY="5" viewBox="0 0 14 10" orient="auto" markerUnits="userSpaceOnUse" stroke-dasharray="0,0"><path id="SvgjsPath1094" d="M0 0L14 5L0 10L0 0 " fill="#323232" stroke="#323232" stroke-width="1"></path></marker><marker id="SvgjsMarker1122" markerWidth="14" markerHeight="10" refX="10" refY="5" viewBox="0 0 14 10" orient="auto" markerUnits="userSpaceOnUse" stroke-dasharray="0,0"><path id="SvgjsPath1123" d="M0 0L14 5L0 10L0 0 " fill="#323232" stroke="#323232" stroke-width="1"></path></marker><marker id="SvgjsMarker1178" markerWidth="14" markerHeight="10" refX="10" refY="5" viewBox="0 0 14 10" orient="auto" markerUnits="userSpaceOnUse" stroke-dasharray="0,0"><path id="SvgjsPath1179" d="M0 0L14 5L0 10L0 0 " fill="#323232" stroke="#323232" stroke-width="1"></path></marker><marker id="SvgjsMarker1204" markerWidth="14" markerHeight="10" refX="10" refY="5" viewBox="0 0 14 10" orient="auto" markerUnits="userSpaceOnUse" stroke-dasharray="0,0"><path id="SvgjsPath1205" d="M0 0L14 5L0 10L0 0 " fill="#323232" stroke="#323232" stroke-width="1"></path></marker><marker id="SvgjsMarker1219" markerWidth="14" markerHeight="10" refX="10" refY="5" viewBox="0 0 14 10" orient="auto" markerUnits="userSpaceOnUse" stroke-dasharray="0,0"><path id="SvgjsPath1220" d="M0 0L14 5L0 10L0 0 " fill="#323232" stroke="#323232" stroke-width="1"></path></marker><marker id="SvgjsMarker1223" markerWidth="14" markerHeight="10" refX="10" refY="5" viewBox="0 0 14 10" orient="auto" markerUnits="userSpaceOnUse" stroke-dasharray="0,0"><path id="SvgjsPath1224" d="M0 0L14 5L0 10L0 0 " fill="#323232" stroke="#323232" stroke-width="1"></path></marker><marker id="SvgjsMarker1239" markerWidth="14" markerHeight="10" refX="10" refY="5" viewBox="0 0 14 10" orient="auto" markerUnits="userSpaceOnUse" stroke-dasharray="0,0"><path id="SvgjsPath1240" d="M0 0L14 5L0 10L0 0 " fill="#323232" stroke="#323232" stroke-width="1"></path></marker><marker id="SvgjsMarker1263" markerWidth="14" markerHeight="10" refX="10" refY="5" viewBox="0 0 14 10" orient="auto" markerUnits="userSpaceOnUse" stroke-dasharray="0,0"><path id="SvgjsPath1264" d="M0 0L14 5L0 10L0 0 " fill="#323232" stroke="#323232" stroke-width="1"></path></marker><marker id="SvgjsMarker1277" markerWidth="14" markerHeight="10" refX="10" refY="5" viewBox="0 0 14 10" orient="auto" markerUnits="userSpaceOnUse" stroke-dasharray="0,0"><path id="SvgjsPath1278" d="M0 0L14 5L0 10L0 0 " fill="#323232" stroke="#323232" stroke-width="1"></path></marker><marker id="SvgjsMarker1297" markerWidth="14" markerHeight="10" refX="10" refY="5" viewBox="0 0 14 10" orient="auto" markerUnits="userSpaceOnUse" stroke-dasharray="0,0"><path id="SvgjsPath1298" d="M0 0L14 5L0 10L0 0 " fill="#323232" stroke="#323232" stroke-width="1"></path></marker><marker id="SvgjsMarker1325" markerWidth="14" markerHeight="10" refX="10" refY="5" viewBox="0 0 14 10" orient="auto" markerUnits="userSpaceOnUse" stroke-dasharray="0,0"><path id="SvgjsPath1326" d="M0 0L14 5L0 10L0 0 " fill="#323232" stroke="#323232" stroke-width="1"></path></marker><marker id="SvgjsMarker1341" markerWidth="14" markerHeight="10" refX="10" refY="5" viewBox="0 0 14 10" orient="auto" markerUnits="userSpaceOnUse" stroke-dasharray="0,0"><path id="SvgjsPath1342" d="M0 0L14 5L0 10L0 0 " fill="#323232" stroke="#323232" stroke-width="1"></path></marker><marker id="SvgjsMarker1353" markerWidth="14" markerHeight="10" refX="10" refY="5" viewBox="0 0 14 10" orient="auto" markerUnits="userSpaceOnUse" stroke-dasharray="0,0"><path id="SvgjsPath1354" d="M0 0L14 5L0 10L0 0 " fill="#323232" stroke="#323232" stroke-width="1"></path></marker><pattern patternUnits="userSpaceOnUse" id="pattern_mark" width="300" height="300"><text x="-50" y="150" fill="rgba(229,229,229,0.8)" font-size="18" transform="rotate(-45, 150, 150)">https://github.com/wbccb</text></pattern></defs><g id="svgbackgroundid"><defs></defs><rect id="SvgjsRect1008" width="1257.25" height="947" fill="#ffffff"></rect></g><rect fill="url(#pattern_mark)" transform="translate(-9.75,-47)" width="1744" height="1047" id="rect_mark" pointer-events="none"></rect><g id="SvgjsG1010" transform="translate(785.25,127)"><path id="SvgjsPath1011" d="M0 0L447 0L447 97L0 97Z " stroke="rgba(50,50,50,1)" stroke-width="2" fill-opacity="1" fill="#ffffff"></path><g id="SvgjsG1012"><text id="SvgjsText1013" font-family="微软雅黑" text-anchor="middle" font-size="13px" width="427px" fill="#323232" font-weight="400" align="middle" lineHeight="125%" font-style="" opacity="1" y="37.875" transform="rotate(0)"></text></g></g><g id="SvgjsG1014" transform="translate(208.75,466.5)"><path id="SvgjsPath1015" d="M0 0L114 0L114 40L0 40Z " stroke="rgba(50,50,50,1)" stroke-width="2" fill-opacity="1" fill="#ffffff"></path><g id="SvgjsG1016"><text id="SvgjsText1017" font-family="微软雅黑" text-anchor="middle" font-size="13px" width="94px" fill="#323232" font-weight="400" align="middle" lineHeight="125%" font-style="" opacity="1" y="9.375" transform="rotate(0)"><tspan id="SvgjsTspan1018" dy="16" x="57"><tspan id="SvgjsTspan1019" style="text-decoration:;">newChunk</tspan></tspan></text></g></g><g id="SvgjsG1020" transform="translate(171.25,25)"><path id="SvgjsPath1021" d="M0 0L189 0L189 44L0 44Z " stroke="rgba(50,50,50,1)" stroke-width="2" fill-opacity="1" fill="#ffffff"></path><g id="SvgjsG1022"><text id="SvgjsText1023" font-family="微软雅黑" text-anchor="middle" font-size="13px" width="169px" fill="#323232" font-weight="400" align="middle" lineHeight="125%" font-style="" opacity="1" y="11.375" transform="rotate(0)"><tspan id="SvgjsTspan1024" dy="16" x="94.5"><tspan id="SvgjsTspan1025" style="text-decoration:;">遍历chunksInfoMap</tspan></tspan></text></g></g><g id="SvgjsG1026" transform="translate(370.25,117.5)"><path id="SvgjsPath1027" d="M0 0L108 0L108 47L0 47Z " stroke="rgba(50,50,50,1)" stroke-width="2" fill-opacity="1" fill="#ffffff"></path><g id="SvgjsG1028"><text id="SvgjsText1029" font-family="微软雅黑" text-anchor="middle" font-size="13px" width="88px" fill="#323232" font-weight="400" align="middle" lineHeight="125%" font-style="" opacity="1" y="12.875" transform="rotate(0)"><tspan id="SvgjsTspan1030" dy="16" x="54"><tspan id="SvgjsTspan1031" style="text-decoration:;">item.chunks</tspan></tspan></text></g></g><g id="SvgjsG1032" transform="translate(370.25,191.5)"><path id="SvgjsPath1033" d="M0 0L108 0L108 47L0 47Z " stroke="rgba(50,50,50,1)" stroke-width="2" fill-opacity="1" fill="#ffffff"></path><g id="SvgjsG1034"><text id="SvgjsText1035" font-family="微软雅黑" text-anchor="middle" font-size="13px" width="88px" fill="#323232" font-weight="400" align="middle" lineHeight="125%" font-style="" opacity="1" y="12.875" transform="rotate(0)"><tspan id="SvgjsTspan1036" dy="16" x="54"><tspan id="SvgjsTspan1037" style="text-decoration:;">item.modules</tspan></tspan></text></g></g><g id="SvgjsG1038" transform="translate(188.75,152)"><path id="SvgjsPath1039" d="M0 0L154 0L154 47L0 47Z " stroke="rgba(50,50,50,1)" stroke-width="2" fill-opacity="1" fill="#ffffff"></path><g id="SvgjsG1040"><text id="SvgjsText1041" font-family="微软雅黑" text-anchor="middle" font-size="13px" width="134px" fill="#323232" font-weight="400" align="middle" lineHeight="125%" font-style="" opacity="1" y="4.875" transform="rotate(0)"><tspan id="SvgjsTspan1042" dy="16" x="77"><tspan id="SvgjsTspan1043" style="text-decoration:;">bestEntry=具有</tspan></tspan><tspan id="SvgjsTspan1044" dy="16" x="77"><tspan id="SvgjsTspan1045" style="text-decoration:;">cacheGroup=test3</tspan></tspan></text></g></g><g id="SvgjsG1046"><path id="SvgjsPath1047" d="M265.75 70L265.75 110.5L265.75 110.5L265.75 148.4 " stroke="#323232" stroke-width="2" fill="none" marker-end="url(#SvgjsMarker1048)"></path></g><g id="SvgjsG1050" transform="translate(268.25,109.5)"><path id="SvgjsPath1051" d="M100 0Q91 0 91 9L91 61Q91 70 78 70Q91 70 91 79L91 131Q91 140 100 140 " stroke="rgba(50,50,50,1)" stroke-width="2" fill="none"></path><path id="SvgjsPath1052" d="M0 0L100 0L100 140L0 140Z " stroke="none" fill="none"></path><g id="SvgjsG1053"><text id="SvgjsText1054" font-family="微软雅黑" text-anchor="end" font-size="13px" width="73px" fill="#323232" font-weight="400" align="middle" lineHeight="125%" font-style="" opacity="1" y="59.375" transform="rotate(0)"></text></g></g><g id="SvgjsG1055"><path id="SvgjsPath1056" d="M265.75 200L265.75 240.5L265.75 240.5L265.75 278.4 " stroke="#323232" stroke-width="2" fill="none" marker-end="url(#SvgjsMarker1057)"></path></g><g id="SvgjsG1059" transform="translate(122,282)"><path id="SvgjsPath1060" d="M0 0L287.5 0L287.5 88L0 88Z " stroke="rgba(50,50,50,1)" stroke-width="2" fill-opacity="1" fill="#ffffff"></path><g id="SvgjsG1061"><text id="SvgjsText1062" font-family="微软雅黑" text-anchor="start" font-size="12px" width="268px" fill="#323232" font-weight="400" align="middle" lineHeight="125%" font-style="" opacity="1" y="4" transform="rotate(0)"><tspan id="SvgjsTspan1063" dy="15" x="10"><tspan id="SvgjsTspan1064" style="text-decoration:;">1. isExistingChunk</tspan></tspan><tspan id="SvgjsTspan1065" dy="15" x="10"><tspan id="SvgjsTspan1066" style="text-decoration:;">2. maxInitialRequests和maxAsyncRequests</tspan></tspan><tspan id="SvgjsTspan1067" dy="15" x="10"><tspan id="SvgjsTspan1068" style="text-decoration:;">3. chunkGraph.isModuleInChunk</tspan></tspan><tspan id="SvgjsTspan1069" dy="15" x="10"><tspan id="SvgjsTspan1070" style="text-decoration:;">4. 不符合usedChunks.size&lt;item.chunks.size</tspan></tspan><tspan id="SvgjsTspan1071" dy="15" x="10"><tspan id="SvgjsTspan1072" style="text-decoration:;">5. minRemainingSize检测通过</tspan></tspan></text></g></g><g id="SvgjsG1073" transform="translate(469.25,292)"><path id="SvgjsPath1074" d="M0 0L247 0L263 16L263 68L0 68L0 0Z " stroke="none" fill-opacity="1" fill="#fff9c4"></path><path id="SvgjsPath1075" d="M247 0L247 16L263 16Z " stroke="none" fill-opacity="1" fill="#cdcdcd"></path><path id="SvgjsPath1076" d="M0 0L247 0L263 16L263 68L0 68L0 0Z " stroke="none" fill="none"></path><g id="SvgjsG1077"><text id="SvgjsText1078" font-family="微软雅黑" text-anchor="middle" font-size="12px" width="243px" fill="#323232" font-weight="400" align="middle" lineHeight="125%" font-style="" opacity="1" y="16.5" transform="rotate(0)"><tspan id="SvgjsTspan1079" dy="15" x="131.5"><tspan id="SvgjsTspan1080" style="text-decoration:;">const usedChunks = new Set(item.chunks)</tspan></tspan><tspan id="SvgjsTspan1081" dy="15" x="131.5"><tspan id="SvgjsTspan1082" style="text-decoration:;">usedChunks.delete(chunk)</tspan></tspan></text></g></g><g id="SvgjsG1083"><path id="SvgjsPath1084" d="M410.5 326L439.375 326L439.375 326L466.65 326 " stroke="#323232" stroke-width="2" fill="none" marker-end="url(#SvgjsMarker1085)"></path></g><g id="SvgjsG1087"><path id="SvgjsPath1088" d="M265.75 371L265.75 418.25L265.75 418.25L265.75 462.9 " stroke="#323232" stroke-width="2" fill="none" marker-end="url(#SvgjsMarker1089)"></path></g><g id="SvgjsG1091"><path id="SvgjsPath1092" d="M479.25 141L600.75 141L600.75 289.4 " stroke-dasharray="3,3" stroke="#323232" stroke-width="2" fill="none" marker-end="url(#SvgjsMarker1093)"></path><rect id="SvgjsRect1095" width="68" height="16" x="566.75" y="146.45" fill="#ffffff"></rect><text id="SvgjsText1096" font-family="微软雅黑" text-anchor="middle" font-size="13px" width="68px" fill="#323232" font-weight="400" align="top" lineHeight="16px" font-style="" opacity="1" y="143.825" transform="rotate(0)"><tspan id="SvgjsTspan1097" dy="16" x="600.75"><tspan id="SvgjsTspan1098" style="text-decoration:;">提供chunks</tspan></tspan></text></g><g id="SvgjsG1099" transform="translate(361.25,420)"><path id="SvgjsPath1100" d="M0 0L201 0L201 43L0 43Z " stroke="rgba(50,50,50,1)" stroke-width="2" fill-opacity="1" fill="#ffffff"></path><g id="SvgjsG1101"><text id="SvgjsText1102" font-family="微软雅黑" text-anchor="middle" font-size="13px" width="181px" fill="#323232" font-weight="400" align="middle" lineHeight="125%" font-style="" opacity="1" y="10.875" transform="rotate(0)"><tspan id="SvgjsTspan1103" dy="16" x="100.5"><tspan id="SvgjsTspan1104" style="text-decoration:;">compilation.addChunk(name)</tspan></tspan></text></g></g><g id="SvgjsG1105" transform="translate(354.75,487.5)"><path id="SvgjsPath1106" d="M0 0L214 0L214 65L0 65Z " stroke="rgba(50,50,50,1)" stroke-width="2" fill-opacity="1" fill="#ffffff"></path><g id="SvgjsG1107"><text id="SvgjsText1108" font-family="微软雅黑" text-anchor="start" font-size="12px" width="194px" fill="#323232" font-weight="400" align="middle" lineHeight="125%" font-style="" opacity="1" y="7.5" transform="rotate(0)"><tspan id="SvgjsTspan1109" dy="15" x="10"><tspan id="SvgjsTspan1110" style="text-decoration:;">for (const chunk of usedChunks) {</tspan></tspan><tspan id="SvgjsTspan1111" dy="15" x="10"><tspan id="SvgjsTspan1112" style="text-decoration:;">    chunk.split(newChunk);</tspan></tspan><tspan id="SvgjsTspan1113" dy="15" x="10"><tspan id="SvgjsTspan1114" style="text-decoration:;">}</tspan></tspan></text></g></g><g id="SvgjsG1115" transform="translate(251.25,408)"><path id="SvgjsPath1116" d="M100 0Q91 0 91 9L91 67Q91 76 78 76Q91 76 91 85L91 143Q91 152 100 152 " stroke="rgba(50,50,50,1)" stroke-width="2" fill="none"></path><path id="SvgjsPath1117" d="M0 0L100 0L100 152L0 152Z " stroke="none" fill="none"></path><g id="SvgjsG1118"><text id="SvgjsText1119" font-family="微软雅黑" text-anchor="end" font-size="13px" width="73px" fill="#323232" font-weight="400" align="middle" lineHeight="125%" font-style="" opacity="1" y="65.375" transform="rotate(0)"></text></g></g><g id="SvgjsG1120"><path id="SvgjsPath1121" d="M461.75 464L461.75 475.25L461.75 475.25L461.75 483.9 " stroke="#323232" stroke-width="2" fill="none" marker-end="url(#SvgjsMarker1122)"></path></g><g id="SvgjsG1124" transform="translate(795.75,144.5)"><path id="SvgjsPath1125" d="M0 35C0 -11.666666666666666 70 -11.666666666666666 70 35C70 81.66666666666667 0 81.66666666666667 0 35Z " stroke="rgba(50,50,50,1)" stroke-width="2" fill-opacity="1" fill="#bbdefb"></path><g id="SvgjsG1126"><text id="SvgjsText1127" font-family="微软雅黑" text-anchor="middle" font-size="13px" width="50px" fill="#323232" font-weight="400" align="middle" lineHeight="125%" font-style="" opacity="1" y="24.375" transform="rotate(0)"><tspan id="SvgjsTspan1128" dy="16" x="35"><tspan id="SvgjsTspan1129" style="text-decoration:;">app1</tspan></tspan></text></g></g><g id="SvgjsG1130" transform="translate(911,144.5)"><path id="SvgjsPath1131" d="M0 35C0 -11.666666666666666 70 -11.666666666666666 70 35C70 81.66666666666667 0 81.66666666666667 0 35Z " stroke="rgba(50,50,50,1)" stroke-width="2" fill-opacity="1" fill="#ffcdd2"></path><g id="SvgjsG1132"><text id="SvgjsText1133" font-family="微软雅黑" text-anchor="middle" font-size="13px" width="50px" fill="#323232" font-weight="400" align="middle" lineHeight="125%" font-style="" opacity="1" y="24.375" transform="rotate(0)"><tspan id="SvgjsTspan1134" dy="16" x="35"><tspan id="SvgjsTspan1135" style="text-decoration:;">app2</tspan></tspan></text></g></g><g id="SvgjsG1136" transform="translate(1026.25,144.5)"><path id="SvgjsPath1137" d="M0 35C0 -11.666666666666666 70 -11.666666666666666 70 35C70 81.66666666666667 0 81.66666666666667 0 35Z " stroke="rgba(50,50,50,1)" stroke-width="2" fill-opacity="1" fill="#fff9c4"></path><g id="SvgjsG1138"><text id="SvgjsText1139" font-family="微软雅黑" text-anchor="middle" font-size="13px" width="50px" fill="#323232" font-weight="400" align="middle" lineHeight="125%" font-style="" opacity="1" y="24.375" transform="rotate(0)"><tspan id="SvgjsTspan1140" dy="16" x="35"><tspan id="SvgjsTspan1141" style="text-decoration:;">app3</tspan></tspan></text></g></g><g id="SvgjsG1142" transform="translate(1146.25,144.5)"><path id="SvgjsPath1143" d="M0 35C0 -11.666666666666666 70 -11.666666666666666 70 35C70 81.66666666666667 0 81.66666666666667 0 35Z " stroke="rgba(50,50,50,1)" stroke-width="2" fill-opacity="1" fill="#ffffff"></path><g id="SvgjsG1144"><text id="SvgjsText1145" font-family="微软雅黑" text-anchor="middle" font-size="13px" width="50px" fill="#323232" font-weight="400" align="middle" lineHeight="125%" font-style="" opacity="1" y="24.375" transform="rotate(0)"><tspan id="SvgjsTspan1146" dy="16" x="35"><tspan id="SvgjsTspan1147" style="text-decoration:;">app4</tspan></tspan></text></g></g><g id="SvgjsG1148" transform="translate(786.25,73)"><path id="SvgjsPath1149" d="M0 0L152 0L152 54L0 54Z " stroke-dasharray="10,6" stroke="rgba(50,50,50,1)" stroke-width="2" fill-opacity="1" fill="#ffffff"></path><g id="SvgjsG1150"><text id="SvgjsText1151" font-family="微软雅黑" text-anchor="middle" font-size="13px" width="132px" fill="#323232" font-weight="400" align="middle" lineHeight="125%" font-style="" opacity="1" y="16.375" transform="rotate(0)"></text></g></g><g id="SvgjsG1152" transform="translate(807.25,85)"><path id="SvgjsPath1153" d="M0 15.000000000000014C0 -5.000000000000004 30 -5.000000000000004 30 15.000000000000014C30 35.000000000000036 0 35.000000000000036 0 15.000000000000014Z " stroke="rgba(50,50,50,1)" stroke-width="2" fill-opacity="1" fill="#ffffff"></path><g id="SvgjsG1154"><text id="SvgjsText1155" font-family="微软雅黑" text-anchor="middle" font-size="13px" width="10px" fill="#323232" font-weight="400" align="middle" lineHeight="125%" font-style="" opacity="1" y="4.375000000000014" transform="rotate(0)"></text></g></g><g id="SvgjsG1156" transform="translate(824.25,80)"><path id="SvgjsPath1157" d="M0 0L120 0L120 40L0 40Z " stroke="none" fill="none"></path><g id="SvgjsG1158"><text id="SvgjsText1159" font-family="微软雅黑" text-anchor="middle" font-size="13px" width="120px" fill="#323232" font-weight="400" align="middle" lineHeight="125%" font-style="" opacity="1" y="9.375" transform="rotate(0)"><tspan id="SvgjsTspan1160" dy="16" x="60"><tspan id="SvgjsTspan1161" style="text-decoration:;">代表chunk</tspan></tspan></text></g></g><g id="SvgjsG1162" transform="translate(600.75,478.5)"><path id="SvgjsPath1163" d="M0 0L288.5 0L304.5 16L304.5 83L0 83L0 0Z " stroke="none" fill-opacity="1" fill="#fff9c4"></path><path id="SvgjsPath1164" d="M288.5 0L288.5 16L304.5 16Z " stroke="none" fill-opacity="1" fill="#cdcdcd"></path><path id="SvgjsPath1165" d="M0 0L288.5 0L304.5 16L304.5 83L0 83L0 0Z " stroke="none" fill="none"></path><g id="SvgjsG1166"><text id="SvgjsText1167" font-family="微软雅黑" text-anchor="start" font-size="12px" width="285px" fill="#323232" font-weight="400" align="middle" lineHeight="125%" font-style="" opacity="1" y="9" transform="rotate(0)"><tspan id="SvgjsTspan1168" dy="15" x="10"><tspan id="SvgjsTspan1169" style="text-decoration:;">for (const chunkGroup of this._groups) {</tspan></tspan><tspan id="SvgjsTspan1170" dy="15" x="10"><tspan id="SvgjsTspan1171" style="text-decoration:;">    chunkGroup.insertChunk(newChunk, this);</tspan></tspan><tspan id="SvgjsTspan1172" dy="15" x="10"><tspan id="SvgjsTspan1173" style="text-decoration:;">    newChunk.addGroup(chunkGroup);</tspan></tspan><tspan id="SvgjsTspan1174" dy="15" x="10"><tspan id="SvgjsTspan1175" style="text-decoration:;">}</tspan></tspan></text></g></g><g id="SvgjsG1176"><path id="SvgjsPath1177" d="M569.75 520L584.75 520L584.75 520L598.15 520 " stroke="#323232" stroke-width="2" fill="none" marker-end="url(#SvgjsMarker1178)"></path></g><g id="SvgjsG1180" transform="translate(948,94)"><path id="SvgjsPath1181" d="M0 0L120 0L120 40L0 40Z " stroke="none" fill="none"></path><g id="SvgjsG1182"><text id="SvgjsText1183" font-family="微软雅黑" text-anchor="middle" font-size="13px" width="120px" fill="#ff0000" font-weight="700" align="middle" lineHeight="125%" font-style="" opacity="1" y="9.375" transform="rotate(0)"><tspan id="SvgjsTspan1184" dy="16" x="60"><tspan id="SvgjsTspan1185" style="text-decoration:;">usedChunks</tspan></tspan></text></g></g><g id="SvgjsG1186" transform="translate(862.875,255.3125)"><path id="SvgjsPath1187" d="M0 0L166.25 0L166.25 71L0 71Z " stroke="rgba(50,50,50,1)" stroke-width="2" fill-opacity="1" fill="#ffffff"></path><g id="SvgjsG1188"><text id="SvgjsText1189" font-family="微软雅黑" text-anchor="middle" font-size="13px" width="147px" fill="#323232" font-weight="400" align="middle" lineHeight="125%" font-style="" opacity="1" y="8.875" transform="rotate(0)"><tspan id="SvgjsTspan1190" dy="16" x="83.5"><tspan id="SvgjsTspan1191" style="text-decoration:;">this._group:</tspan></tspan><tspan id="SvgjsTspan1192" dy="16" x="83.5"><tspan id="SvgjsTspan1193" style="text-decoration:;"> SortableSet&lt;ChunkGro</tspan></tspan><tspan id="SvgjsTspan1194" dy="16" x="83.5"><tspan id="SvgjsTspan1195" style="text-decoration:;">up&gt;</tspan></tspan></text></g></g><g id="SvgjsG1196" transform="translate(864.6875,360)"><path id="SvgjsPath1197" d="M0 0L162.625 0L162.625 39.75L0 39.75Z " stroke="rgba(50,50,50,1)" stroke-width="2" fill-opacity="1" fill="#ffffff"></path><g id="SvgjsG1198"><text id="SvgjsText1199" font-family="微软雅黑" text-anchor="middle" font-size="13px" width="143px" fill="#323232" font-weight="400" align="middle" lineHeight="125%" font-style="" opacity="1" y="9.25" transform="rotate(0)"><tspan id="SvgjsTspan1200" dy="16" x="81.5"><tspan id="SvgjsTspan1201" style="text-decoration:;">ChunkGroup.chunks</tspan></tspan></text></g></g><g id="SvgjsG1202"><path id="SvgjsPath1203" d="M946 327.3125L946 343.15625L946 343.15625L946 356.4 " stroke="#323232" stroke-width="2" fill="none" marker-end="url(#SvgjsMarker1204)"></path></g><g id="SvgjsG1206" transform="translate(1112.25,353.875)"><path id="SvgjsPath1207" d="M0 0L81 0L97 16L97 52L0 52L0 0Z " stroke="none" fill-opacity="1" fill="#fff9c4"></path><path id="SvgjsPath1208" d="M81 0L81 16L97 16Z " stroke="none" fill-opacity="1" fill="#cdcdcd"></path><path id="SvgjsPath1209" d="M0 0L81 0L97 16L97 52L0 52L0 0Z " stroke="none" fill="none"></path><g id="SvgjsG1210"><text id="SvgjsText1211" font-family="微软雅黑" text-anchor="start" font-size="13px" width="77px" fill="#323232" font-weight="400" align="middle" lineHeight="125%" font-style="" opacity="1" y="7.375" transform="rotate(0)"><tspan id="SvgjsTspan1212" dy="16" x="10"><tspan id="SvgjsTspan1213" style="text-decoration:;">1. app3</tspan><tspan id="SvgjsTspan1214" style="text-decoration:;font-size: inherit;"> </tspan></tspan><tspan id="SvgjsTspan1215" dy="16" x="10"><tspan id="SvgjsTspan1216" style="text-decoration:;font-size: inherit;">2.newChunk</tspan></tspan></text></g></g><g id="SvgjsG1217"><path id="SvgjsPath1218" d="M753 478.5L753 379.875L861.0875 379.875 " stroke-dasharray="8,5" stroke="#323232" stroke-width="2" fill="none" marker-end="url(#SvgjsMarker1219)"></path></g><g id="SvgjsG1221"><path id="SvgjsPath1222" d="M946 215.5L946 234.90625L946 234.90625L946 251.71249999999998 " stroke="#323232" stroke-width="2" fill="none" marker-end="url(#SvgjsMarker1223)"></path></g><g id="SvgjsG1225" transform="translate(757.75,400.25)"><path id="SvgjsPath1226" d="M0 0L332.5 0L332.5 82.5L0 82.5Z " stroke="none" fill="none"></path><g id="SvgjsG1227"><text id="SvgjsText1228" font-family="微软雅黑" text-anchor="middle" font-size="12px" width="333px" fill="#ff0000" font-weight="700" align="middle" lineHeight="125%" font-style="" opacity="1" y="8.75" transform="rotate(0)"><tspan id="SvgjsTspan1229" dy="15" x="166.5"><tspan id="SvgjsTspan1230" style="text-decoration:;">往app2这个入口Chunk的ChunkGroup插入newChunk，建立</tspan></tspan><tspan id="SvgjsTspan1231" dy="15" x="166.5"><tspan id="SvgjsTspan1232" style="text-decoration:;">它们的依赖关系，在后面生成代码时可以正确生成对应的依赖</tspan></tspan><tspan id="SvgjsTspan1233" dy="15" x="166.5"><tspan id="SvgjsTspan1234" style="text-decoration:;">关系，即app3-Chunk可以加载newChunk，毕竟是从app1、</tspan></tspan><tspan id="SvgjsTspan1235" dy="15" x="166.5"><tspan id="SvgjsTspan1236" style="text-decoration:;">app2、app3、app4这4个Chunk分离出来的newChunk</tspan></tspan></text></g></g><g id="SvgjsG1237"><path id="SvgjsPath1238" d="M1028.3125 379.875L1069.78125 379.875L1069.78125 379.875L1109.65 379.875 " stroke="#323232" stroke-width="2" fill="none" marker-end="url(#SvgjsMarker1239)"></path><rect id="SvgjsRect1241" width="26" height="16" x="1055.98125" y="371.875" fill="#ffffff"></rect><text id="SvgjsText1242" font-family="微软雅黑" text-anchor="middle" font-size="13px" width="26px" fill="#323232" font-weight="400" align="top" lineHeight="16px" font-style="" opacity="1" y="369.25" transform="rotate(0)"><tspan id="SvgjsTspan1243" dy="16" x="1068.98125"><tspan id="SvgjsTspan1244" style="text-decoration:;">变成</tspan></tspan></text></g><g id="SvgjsG1245" transform="translate(122,607)"><path id="SvgjsPath1246" d="M0 0L382 0L382 108L0 108Z " stroke="rgba(50,50,50,1)" stroke-width="2" fill-opacity="1" fill="#ffffff"></path><g id="SvgjsG1247"><text id="SvgjsText1248" font-family="微软雅黑" text-anchor="start" font-size="12px" width="362px" fill="#323232" font-weight="400" align="middle" lineHeight="125%" font-style="" opacity="1" y="6.5" transform="rotate(0)"><tspan id="SvgjsTspan1249" dy="15" x="10"><tspan id="SvgjsTspan1250" style="text-decoration:;">for (const module of item.modules) {</tspan></tspan><tspan id="SvgjsTspan1251" dy="15" x="10"><tspan id="SvgjsTspan1252" style="text-decoration:;">    chunkGraph.connectChunkAndModule(newChunk, module);</tspan></tspan><tspan id="SvgjsTspan1253" dy="15" x="10"><tspan id="SvgjsTspan1254" style="text-decoration:;">    for (const chunk of usedChunks) {</tspan></tspan><tspan id="SvgjsTspan1255" dy="15" x="10"><tspan id="SvgjsTspan1256" style="text-decoration:;">        chunkGraph.disconnectChunkAndModule(chunk, module);</tspan></tspan><tspan id="SvgjsTspan1257" dy="15" x="10"><tspan id="SvgjsTspan1258" style="text-decoration:;">    }</tspan></tspan><tspan id="SvgjsTspan1259" dy="15" x="10"><tspan id="SvgjsTspan1260" style="text-decoration:;">}</tspan></tspan></text></g></g><g id="SvgjsG1261"><path id="SvgjsPath1262" d="M461.75 553.5L461.75 579.75L313 579.75L313 603.4 " stroke="#323232" stroke-width="2" fill="none" marker-end="url(#SvgjsMarker1263)"></path></g><g id="SvgjsG1265" transform="translate(600.75,630)"><path id="SvgjsPath1266" d="M0 0L222.25 0L238.25 16L238.25 62L0 62L0 0Z " stroke="none" fill-opacity="1" fill="#fff9c4"></path><path id="SvgjsPath1267" d="M222.25 0L222.25 16L238.25 16Z " stroke="none" fill-opacity="1" fill="#cdcdcd"></path><path id="SvgjsPath1268" d="M0 0L222.25 0L238.25 16L238.25 62L0 62L0 0Z " stroke="none" fill="none"></path><g id="SvgjsG1269"><text id="SvgjsText1270" font-family="微软雅黑" text-anchor="middle" font-size="13px" width="219px" fill="#323232" font-weight="400" align="middle" lineHeight="125%" font-style="" opacity="1" y="12.375" transform="rotate(0)"><tspan id="SvgjsTspan1271" dy="16" x="119.5"><tspan id="SvgjsTspan1272" style="text-decoration:;">绑定所有module与newChunk，</tspan></tspan><tspan id="SvgjsTspan1273" dy="16" x="119.5"><tspan id="SvgjsTspan1274" style="text-decoration:;">解除所有module与其它chunk的关系</tspan></tspan></text></g></g><g id="SvgjsG1275"><path id="SvgjsPath1276" d="M505 661L552.375 661L552.375 661L598.15 661 " stroke="#323232" stroke-width="2" fill="none" marker-end="url(#SvgjsMarker1277)"></path></g><g id="SvgjsG1279" transform="translate(167,819)"><path id="SvgjsPath1280" d="M0 0L292 0L292 103L0 103Z " stroke="rgba(50,50,50,1)" stroke-width="2" fill-opacity="1" fill="#ffffff"></path><g id="SvgjsG1281"><text id="SvgjsText1282" font-family="微软雅黑" text-anchor="start" font-size="12px" width="272px" fill="#323232" font-weight="400" align="middle" lineHeight="125%" font-style="" opacity="1" y="4" transform="rotate(0)"><tspan id="SvgjsTspan1283" dy="15" x="10"><tspan id="SvgjsTspan1284" style="text-decoration:;">for (const [key, info] of chunksInfoMap) {</tspan></tspan><tspan id="SvgjsTspan1285" dy="15" x="10"><tspan id="SvgjsTspan1286" style="text-decoration:;">    for (const module of item.modules) {</tspan></tspan><tspan id="SvgjsTspan1287" dy="15" x="10"><tspan id="SvgjsTspan1288" style="text-decoration:;">        if (info.modules.has(module))</tspan></tspan><tspan id="SvgjsTspan1289" dy="15" x="10"><tspan id="SvgjsTspan1290" style="text-decoration:;">            info.modules.delete(module);</tspan></tspan><tspan id="SvgjsTspan1291" dy="15" x="10"><tspan id="SvgjsTspan1292" style="text-decoration:;">    }</tspan></tspan><tspan id="SvgjsTspan1293" dy="15" x="10"><tspan id="SvgjsTspan1294" style="text-decoration:;">}</tspan></tspan></text></g></g><g id="SvgjsG1295"><path id="SvgjsPath1296" d="M313 716L313 767L313 767L313 815.4 " stroke="#323232" stroke-width="2" fill="none" marker-end="url(#SvgjsMarker1297)"></path></g><g id="SvgjsG1299" transform="translate(600.75,715)"><path id="SvgjsPath1300" d="M0 0L184.5 0L200.5 16L200.5 104L0 104L0 0Z " stroke="none" fill-opacity="1" fill="#fff9c4"></path><path id="SvgjsPath1301" d="M184.5 0L184.5 16L200.5 16Z " stroke="none" fill-opacity="1" fill="#cdcdcd"></path><path id="SvgjsPath1302" d="M0 0L184.5 0L200.5 16L200.5 104L0 104L0 0Z " stroke="none" fill="none"></path><g id="SvgjsG1303"><text id="SvgjsText1304" font-family="微软雅黑" text-anchor="start" font-size="12px" width="181px" fill="#323232" font-weight="400" align="middle" lineHeight="125%" font-style="" opacity="1" y="4.5" transform="rotate(0)"><tspan id="SvgjsTspan1305" dy="15" x="10"><tspan id="SvgjsTspan1306" style="text-decoration:;">const isOverlap = (a, b) =&gt; {</tspan></tspan><tspan id="SvgjsTspan1307" dy="15" x="10"><tspan id="SvgjsTspan1308" style="text-decoration:;">  for (const item of a) {</tspan></tspan><tspan id="SvgjsTspan1309" dy="15" x="10"><tspan id="SvgjsTspan1310" style="text-decoration:;">    if (b.has(item)) return true;</tspan></tspan><tspan id="SvgjsTspan1311" dy="15" x="10"><tspan id="SvgjsTspan1312" style="text-decoration:;">  }</tspan></tspan><tspan id="SvgjsTspan1313" dy="15" x="10"><tspan id="SvgjsTspan1314" style="text-decoration:;">  return false;</tspan></tspan><tspan id="SvgjsTspan1315" dy="15" x="10"><tspan id="SvgjsTspan1316" style="text-decoration:;">};</tspan></tspan></text></g></g><g id="SvgjsG1317" transform="translate(213.25,751)"><path id="SvgjsPath1318" d="M0 0L239.75 0L239.75 32L0 32Z " stroke="none" fill="none"></path><g id="SvgjsG1319"><text id="SvgjsText1320" font-family="微软雅黑" text-anchor="middle" font-size="13px" width="240px" fill="#ff0000" font-weight="700" align="middle" lineHeight="125%" font-style="" opacity="1" y="5.375" transform="rotate(0)"><tspan id="SvgjsTspan1321" dy="16" x="120"><tspan id="SvgjsTspan1322" style="text-decoration:;">isOverlap(info.chunks, usedChunks)</tspan></tspan></text></g></g><g id="SvgjsG1323"><path id="SvgjsPath1324" d="M600.75 767L526.875 767L526.875 767L456.6 767 " stroke-dasharray="8,5" stroke="#323232" stroke-width="2" fill="none" marker-end="url(#SvgjsMarker1325)"></path></g><g id="SvgjsG1327" transform="translate(600.75,831)"><path id="SvgjsPath1328" d="M0 0L432.5 0L448.5 16L448.5 79L0 79L0 0Z " stroke="none" fill-opacity="1" fill="#ffcdd2"></path><path id="SvgjsPath1329" d="M432.5 0L432.5 16L448.5 16Z " stroke="none" fill-opacity="1" fill="#cdcdcd"></path><path id="SvgjsPath1330" d="M0 0L432.5 0L448.5 16L448.5 79L0 79L0 0Z " stroke="none" fill="none"></path><g id="SvgjsG1331"><text id="SvgjsText1332" font-family="微软雅黑" text-anchor="middle" font-size="13px" width="429px" fill="#323232" font-weight="400" align="middle" lineHeight="125%" font-style="" opacity="1" y="12.875" transform="rotate(0)"><tspan id="SvgjsTspan1333" dy="16" x="224.5"><tspan id="SvgjsTspan1334" style="text-decoration:;">如果其它chunksInfoMap包含目前bestEntry的chunk，也要清除掉对应的</tspan></tspan><tspan id="SvgjsTspan1335" dy="16" x="224.5"><tspan id="SvgjsTspan1336" style="text-decoration:;">module，简单点说，就是我已经从这些chunk分离出对应的newChunk了，</tspan></tspan><tspan id="SvgjsTspan1337" dy="16" x="224.5"><tspan id="SvgjsTspan1338" style="text-decoration:;">无论是哪个cacheGroup，都应该清除newChunk持有的modules</tspan></tspan></text></g></g><g id="SvgjsG1339"><path id="SvgjsPath1340" d="M460 870.5L529.875 870.5L529.875 870.5L598.15 870.5 " stroke="#323232" stroke-width="2" fill="none" marker-end="url(#SvgjsMarker1341)"></path></g><g id="SvgjsG1343" transform="translate(213.25,87)"><path id="SvgjsPath1344" d="M0 0L120 0L120 40L0 40Z " stroke="none" fill="none"></path><g id="SvgjsG1345"><text id="SvgjsText1346" font-family="微软雅黑" text-anchor="middle" font-size="13px" width="120px" fill="#323232" font-weight="400" align="middle" lineHeight="125%" font-style="" opacity="1" y="1.375" transform="rotate(0)"><tspan id="SvgjsTspan1347" dy="16" x="60"><tspan id="SvgjsTspan1348" style="text-decoration:;">chunksInfoMap优先</tspan></tspan><tspan id="SvgjsTspan1349" dy="16" x="60"><tspan id="SvgjsTspan1350" style="text-decoration:;">级最高的一个元素</tspan></tspan></text></g></g><g id="SvgjsG1351"><path id="SvgjsPath1352" d="M166 870.5L78 870.5L78 47L167.65 47 " stroke="#323232" stroke-width="2" fill="none" marker-end="url(#SvgjsMarker1353)"></path></g><g id="SvgjsG1355" transform="translate(25,426.5)"><path id="SvgjsPath1356" d="M0 0L120 0L120 40L0 40Z " stroke="none" fill="none"></path><g id="SvgjsG1357"><text id="SvgjsText1358" font-family="微软雅黑" text-anchor="middle" font-size="13px" width="120px" fill="#ff0000" font-weight="400" align="middle" lineHeight="125%" font-style="" opacity="1" y="9.375" transform="rotate(0)"><tspan id="SvgjsTspan1359" dy="16" x="60"><tspan id="SvgjsTspan1360" style="text-decoration:;">继续遍历</tspan></tspan></text></g></g><g id="SvgjsG1361" transform="translate(360.25,389)"><path id="SvgjsPath1362" d="M0 0L203 0L203 37.5L0 37.5Z " stroke="none" fill="none"></path><g id="SvgjsG1363"><text id="SvgjsText1364" font-family="微软雅黑" text-anchor="middle" font-size="13px" width="203px" fill="#ff0000" font-weight="700" align="middle" lineHeight="125%" font-style="" opacity="1" y="8.125" transform="rotate(0)"><tspan id="SvgjsTspan1365" dy="16" x="101.5"><tspan id="SvgjsTspan1366" style="text-decoration:;">新增Compliation.chunks</tspan></tspan></text></g></g><g id="SvgjsG1367" transform="translate(600.75,552.5)"><path id="SvgjsPath1368" d="M0 0L219 0L219 39L0 39Z " stroke="none" fill="none"></path><g id="SvgjsG1369"><text id="SvgjsText1370" font-family="微软雅黑" text-anchor="middle" font-size="13px" width="219px" fill="#ff0000" font-weight="700" align="middle" lineHeight="125%" font-style="" opacity="1" y="8.875" transform="rotate(0)"><tspan id="SvgjsTspan1371" dy="16" x="109.5"><tspan id="SvgjsTspan1372" style="text-decoration:;">建立新增chunk与其它chunk的关联</tspan></tspan></text></g></g></svg>