<svg id="SvgjsSvg1325" xmlns="http://www.w3.org/2000/svg" version="1.1" xmlns:xlink="http://www.w3.org/1999/xlink" xmlns:svgjs="http://svgjs.com/svgjs" width="909" height="1082"><defs id="SvgjsDefs1326"><marker id="SvgjsMarker1446" markerWidth="14" markerHeight="10" refX="10" refY="5" viewBox="0 0 14 10" orient="auto" markerUnits="userSpaceOnUse" stroke-dasharray="0,0"><path id="SvgjsPath1447" d="M0 0L14 5L0 10L0 0 " fill="#323232" stroke="#323232" stroke-width="1"></path></marker><marker id="SvgjsMarker1547" markerWidth="14" markerHeight="10" refX="10" refY="5" viewBox="0 0 14 10" orient="auto" markerUnits="userSpaceOnUse" stroke-dasharray="0,0"><path id="SvgjsPath1548" d="M0 0L14 5L0 10L0 0 " fill="#323232" stroke="#323232" stroke-width="1"></path></marker><marker id="SvgjsMarker1551" markerWidth="14" markerHeight="10" refX="10" refY="5" viewBox="0 0 14 10" orient="auto" markerUnits="userSpaceOnUse" stroke-dasharray="0,0"><path id="SvgjsPath1552" d="M0 0L14 5L0 10L0 0 " fill="#323232" stroke="#323232" stroke-width="1"></path></marker><pattern patternUnits="userSpaceOnUse" id="pattern_mark" width="300" height="300"><text x="-50" y="150" fill="rgba(229,229,229,0.8)" font-size="18" transform="rotate(-45, 150, 150)">https://github.com/wbccb</text></pattern></defs><g id="svgbackgroundid"><defs></defs><rect id="SvgjsRect1328" width="909" height="1082" fill="#ffffff"></rect></g><rect fill="url(#pattern_mark)" transform="translate(-87,-6)" width="1319" height="1083" id="rect_mark" pointer-events="none"></rect><g id="SvgjsG1330" transform="matrix(-1.8369701987210297e-16,-1,1,-1.8369701987210297e-16,280,127.00000000000003)"><path id="SvgjsPath1331" d="M0 424Q9 424 9 415L9 221Q9 212 22 212Q9 212 9 203L9 9Q9 0 0 0 " stroke="rgba(50,50,50,1)" stroke-width="2" fill="none"></path><path id="SvgjsPath1332" d="M0 0L102 0L102 424L0 424Z " stroke="none" fill="none"></path><g id="SvgjsG1333"><text id="SvgjsText1334" font-family="微软雅黑" text-anchor="start" font-size="13px" width="75px" fill="#323232" font-weight="400" align="middle" lineHeight="125%" font-style="" opacity="1" y="201.375" transform="rotate(0)"></text></g></g><g id="SvgjsG1335" transform="translate(134,440.9999999999999)"><path id="SvgjsPath1336" d="M0 0L652 0L652 616L0 616Z " stroke="rgba(50,50,50,1)" stroke-width="2" fill-opacity="1" fill="#ffffff"></path><g id="SvgjsG1337"><text id="SvgjsText1338" font-family="微软雅黑" text-anchor="middle" font-size="13px" width="632px" fill="#323232" font-weight="400" align="middle" lineHeight="125%" font-style="" opacity="1" y="297.375" transform="rotate(0)"></text></g></g><g id="SvgjsG1339" transform="translate(264,798.9999999999999)"><path id="SvgjsPath1340" d="M0 0L374 0L374 243L0 243Z " stroke-dasharray="10,6" stroke="rgba(50,50,50,1)" stroke-width="2" fill-opacity="1" fill="#ffffff"></path><g id="SvgjsG1341"><text id="SvgjsText1342" font-family="微软雅黑" text-anchor="middle" font-size="13px" width="354px" fill="#323232" font-weight="400" align="middle" lineHeight="125%" font-style="" opacity="1" y="110.875" transform="rotate(0)"></text></g></g><g id="SvgjsG1343" transform="translate(439,830.9999999999999)"><path id="SvgjsPath1344" d="M0 0L184 0L184 199L0 199Z " stroke-dasharray="10,6,3,6" stroke="rgba(0,0,0,1)" stroke-width="2" fill-opacity="1" fill="#ffcdd2"></path><g id="SvgjsG1345"><text id="SvgjsText1346" font-family="微软雅黑" text-anchor="middle" font-size="13px" width="164px" fill="#323232" font-weight="400" align="middle" lineHeight="125%" font-style="" opacity="1" y="88.875" transform="rotate(0)"></text></g></g><g id="SvgjsG1347" transform="matrix(-1.8369701987210297e-16,-1,1,-1.8369701987210297e-16,24.999999999999943,297.0000000000001)"><path id="SvgjsPath1348" d="M0 297.0000000000001Q8 297.0000000000001 8 288.0000000000001L8 157.50000000000006Q8 148.50000000000006 22 148.50000000000006Q8 148.50000000000006 8 139.50000000000006L8 9Q8 0 0 0 " stroke="rgba(50,50,50,1)" stroke-width="2" fill="none"></path><path id="SvgjsPath1349" d="M0 0L80 0L80 297.0000000000001L0 297.0000000000001Z " stroke="none" fill="none"></path><g id="SvgjsG1350"><text id="SvgjsText1351" font-family="微软雅黑" text-anchor="start" font-size="13px" width="53px" fill="#323232" font-weight="400" align="middle" lineHeight="125%" font-style="" opacity="1" y="137.87500000000006" transform="rotate(0)"></text></g></g><g id="SvgjsG1352" transform="translate(121,226)"><path id="SvgjsPath1353" d="M0 0L106 0L106 41L0 41Z " stroke="rgba(50,50,50,1)" stroke-width="2" fill-opacity="1" fill="#ffffff"></path><g id="SvgjsG1354"><text id="SvgjsText1355" font-family="微软雅黑" text-anchor="middle" font-size="13px" width="86px" fill="#323232" font-weight="400" align="middle" lineHeight="125%" font-style="" opacity="1" y="9.875" transform="rotate(0)"><tspan id="SvgjsTspan1356" dy="16" x="53"><tspan id="SvgjsTspan1357" style="text-decoration:;">js-cookie</tspan></tspan></text></g></g><g id="SvgjsG1358" transform="translate(35,303)"><path id="SvgjsPath1359" d="M0 35C0 -11.666666666666666 70 -11.666666666666666 70 35C70 81.66666666666667 0 81.66666666666667 0 35Z " stroke="rgba(50,50,50,1)" stroke-width="2" fill-opacity="1" fill="#bbdefb"></path><g id="SvgjsG1360"><text id="SvgjsText1361" font-family="微软雅黑" text-anchor="middle" font-size="13px" width="50px" fill="#323232" font-weight="400" align="middle" lineHeight="125%" font-style="" opacity="1" y="24.375" transform="rotate(0)"><tspan id="SvgjsTspan1362" dy="16" x="35"><tspan id="SvgjsTspan1363" style="text-decoration:;">app1</tspan></tspan></text></g></g><g id="SvgjsG1364" transform="translate(139,303)"><path id="SvgjsPath1365" d="M0 35C0 -11.666666666666666 70 -11.666666666666666 70 35C70 81.66666666666667 0 81.66666666666667 0 35Z " stroke="rgba(50,50,50,1)" stroke-width="2" fill-opacity="1" fill="#ffcdd2"></path><g id="SvgjsG1366"><text id="SvgjsText1367" font-family="微软雅黑" text-anchor="middle" font-size="13px" width="50px" fill="#323232" font-weight="400" align="middle" lineHeight="125%" font-style="" opacity="1" y="24.375" transform="rotate(0)"><tspan id="SvgjsTspan1368" dy="16" x="35"><tspan id="SvgjsTspan1369" style="text-decoration:;">app2</tspan></tspan></text></g></g><g id="SvgjsG1370" transform="translate(255,303)"><path id="SvgjsPath1371" d="M0 35C0 -11.666666666666666 70 -11.666666666666666 70 35C70 81.66666666666667 0 81.66666666666667 0 35Z " stroke="rgba(50,50,50,1)" stroke-width="2" fill-opacity="1" fill="#fff9c4"></path><g id="SvgjsG1372"><text id="SvgjsText1373" font-family="微软雅黑" text-anchor="middle" font-size="13px" width="50px" fill="#323232" font-weight="400" align="middle" lineHeight="125%" font-style="" opacity="1" y="24.375" transform="rotate(0)"><tspan id="SvgjsTspan1374" dy="16" x="35"><tspan id="SvgjsTspan1375" style="text-decoration:;">app3</tspan></tspan></text></g></g><g id="SvgjsG1376" transform="matrix(-1.8369701987210297e-16,-1,1,-1.8369701987210297e-16,356,296)"><path id="SvgjsPath1377" d="M0 190Q7.9 190 7.9 181L7.9 104Q7.9 95 22 95Q7.9 95 7.9 86L7.9 9Q7.9 0 0 0 " stroke="rgba(50,50,50,1)" stroke-width="2" fill="none"></path><path id="SvgjsPath1378" d="M0 0L79 0L79 190L0 190Z " stroke="none" fill="none"></path><g id="SvgjsG1379"><text id="SvgjsText1380" font-family="微软雅黑" text-anchor="start" font-size="13px" width="52px" fill="#323232" font-weight="400" align="middle" lineHeight="125%" font-style="" opacity="1" y="84.375" transform="rotate(0)"></text></g></g><g id="SvgjsG1381" transform="translate(398,226)"><path id="SvgjsPath1382" d="M0 0L106 0L106 41L0 41Z " stroke="rgba(50,50,50,1)" stroke-width="2" fill-opacity="1" fill="#ffffff"></path><g id="SvgjsG1383"><text id="SvgjsText1384" font-family="微软雅黑" text-anchor="middle" font-size="13px" width="86px" fill="#323232" font-weight="400" align="middle" lineHeight="125%" font-style="" opacity="1" y="9.875" transform="rotate(0)"><tspan id="SvgjsTspan1385" dy="16" x="53"><tspan id="SvgjsTspan1386" style="text-decoration:;">loadsh</tspan></tspan></text></g></g><g id="SvgjsG1387" transform="translate(362.5,303)"><path id="SvgjsPath1388" d="M0 35C0 -11.666666666666666 70 -11.666666666666666 70 35C70 81.66666666666667 0 81.66666666666667 0 35Z " stroke="rgba(50,50,50,1)" stroke-width="2" fill-opacity="1" fill="#bbdefb"></path><g id="SvgjsG1389"><text id="SvgjsText1390" font-family="微软雅黑" text-anchor="middle" font-size="13px" width="50px" fill="#323232" font-weight="400" align="middle" lineHeight="125%" font-style="" opacity="1" y="24.375" transform="rotate(0)"><tspan id="SvgjsTspan1391" dy="16" x="35"><tspan id="SvgjsTspan1392" style="text-decoration:;">app1</tspan></tspan></text></g></g><g id="SvgjsG1393" transform="translate(470,303)"><path id="SvgjsPath1394" d="M0 35C0 -11.666666666666666 70 -11.666666666666666 70 35C70 81.66666666666667 0 81.66666666666667 0 35Z " stroke="rgba(50,50,50,1)" stroke-width="2" fill-opacity="1" fill="#ffcdd2"></path><g id="SvgjsG1395"><text id="SvgjsText1396" font-family="微软雅黑" text-anchor="middle" font-size="13px" width="50px" fill="#323232" font-weight="400" align="middle" lineHeight="125%" font-style="" opacity="1" y="24.375" transform="rotate(0)"><tspan id="SvgjsTspan1397" dy="16" x="35"><tspan id="SvgjsTspan1398" style="text-decoration:;">app2</tspan></tspan></text></g></g><g id="SvgjsG1399" transform="matrix(-1.8369701987210297e-16,-1,1,-1.8369701987210297e-16,576,296.5000000000001)"><path id="SvgjsPath1400" d="M0 297.0000000000001Q8 297.0000000000001 8 288.0000000000001L8 157.50000000000006Q8 148.50000000000006 22 148.50000000000006Q8 148.50000000000006 8 139.50000000000006L8 9Q8 0 0 0 " stroke="rgba(50,50,50,1)" stroke-width="2" fill="none"></path><path id="SvgjsPath1401" d="M0 0L80 0L80 297.0000000000001L0 297.0000000000001Z " stroke="none" fill="none"></path><g id="SvgjsG1402"><text id="SvgjsText1403" font-family="微软雅黑" text-anchor="start" font-size="13px" width="53px" fill="#323232" font-weight="400" align="middle" lineHeight="125%" font-style="" opacity="1" y="137.87500000000006" transform="rotate(0)"></text></g></g><g id="SvgjsG1404" transform="translate(672,226)"><path id="SvgjsPath1405" d="M0 0L106 0L106 41L0 41Z " stroke="rgba(50,50,50,1)" stroke-width="2" fill-opacity="1" fill="#ffffff"></path><g id="SvgjsG1406"><text id="SvgjsText1407" font-family="微软雅黑" text-anchor="middle" font-size="13px" width="86px" fill="#323232" font-weight="400" align="middle" lineHeight="125%" font-style="" opacity="1" y="9.875" transform="rotate(0)"><tspan id="SvgjsTspan1408" dy="16" x="53"><tspan id="SvgjsTspan1409" style="text-decoration:;">voca</tspan></tspan></text></g></g><g id="SvgjsG1410" transform="translate(584,302.49999999999994)"><path id="SvgjsPath1411" d="M0 35C0 -11.666666666666666 70 -11.666666666666666 70 35C70 81.66666666666667 0 81.66666666666667 0 35Z " stroke="rgba(50,50,50,1)" stroke-width="2" fill-opacity="1" fill="#ffcdd2"></path><g id="SvgjsG1412"><text id="SvgjsText1413" font-family="微软雅黑" text-anchor="middle" font-size="13px" width="50px" fill="#323232" font-weight="400" align="middle" lineHeight="125%" font-style="" opacity="1" y="24.375" transform="rotate(0)"><tspan id="SvgjsTspan1414" dy="16" x="35"><tspan id="SvgjsTspan1415" style="text-decoration:;">app2</tspan></tspan></text></g></g><g id="SvgjsG1416" transform="translate(690,302.49999999999994)"><path id="SvgjsPath1417" d="M0 35C0 -11.666666666666666 70 -11.666666666666666 70 35C70 81.66666666666667 0 81.66666666666667 0 35Z " stroke="rgba(50,50,50,1)" stroke-width="2" fill-opacity="1" fill="#fff9c4"></path><g id="SvgjsG1418"><text id="SvgjsText1419" font-family="微软雅黑" text-anchor="middle" font-size="13px" width="50px" fill="#323232" font-weight="400" align="middle" lineHeight="125%" font-style="" opacity="1" y="24.375" transform="rotate(0)"><tspan id="SvgjsTspan1420" dy="16" x="35"><tspan id="SvgjsTspan1421" style="text-decoration:;">app3</tspan></tspan></text></g></g><g id="SvgjsG1422" transform="translate(804,302.49999999999994)"><path id="SvgjsPath1423" d="M0 35C0 -11.666666666666666 70 -11.666666666666666 70 35C70 81.66666666666667 0 81.66666666666667 0 35Z " stroke="rgba(50,50,50,1)" stroke-width="2" fill-opacity="1" fill="#ffffff"></path><g id="SvgjsG1424"><text id="SvgjsText1425" font-family="微软雅黑" text-anchor="middle" font-size="13px" width="50px" fill="#323232" font-weight="400" align="middle" lineHeight="125%" font-style="" opacity="1" y="24.375" transform="rotate(0)"><tspan id="SvgjsTspan1426" dy="16" x="35"><tspan id="SvgjsTspan1427" style="text-decoration:;">app4</tspan></tspan></text></g></g><g id="SvgjsG1428" transform="translate(357,531.9999999999999)"><path id="SvgjsPath1429" d="M0 0L188 0L188 54L0 54Z " stroke="rgba(50,50,50,1)" stroke-width="2" fill-opacity="1" fill="#ffffff"></path><g id="SvgjsG1430"><text id="SvgjsText1431" font-family="微软雅黑" text-anchor="middle" font-size="13px" width="168px" fill="#323232" font-weight="400" align="middle" lineHeight="125%" font-style="" opacity="1" y="8.375" transform="rotate(0)"><tspan id="SvgjsTspan1432" dy="16" x="94"><tspan id="SvgjsTspan1433" style="text-decoration:;">const combs =</tspan></tspan><tspan id="SvgjsTspan1434" dy="16" x="94"><tspan id="SvgjsTspan1435" style="text-decoration:;"> getCombsByUsedExports()</tspan></tspan></text></g></g><g id="SvgjsG1436" transform="translate(143,538.7499999999999)"><path id="SvgjsPath1437" d="M0 0L121 0L121 40.5L0 40.5Z " stroke="rgba(50,50,50,1)" stroke-width="2" fill-opacity="1" fill="#ffffff"></path><g id="SvgjsG1438"><text id="SvgjsText1439" font-family="微软雅黑" text-anchor="middle" font-size="13px" width="101px" fill="#323232" font-weight="400" align="middle" lineHeight="125%" font-style="" opacity="1" y="1.625" transform="rotate(0)"><tspan id="SvgjsTspan1440" dy="16" x="60.5"><tspan id="SvgjsTspan1441" style="text-decoration:;">NormalModule=</tspan></tspan><tspan id="SvgjsTspan1442" dy="16" x="60.5"><tspan id="SvgjsTspan1443" style="text-decoration:;">js-cookie</tspan></tspan></text></g></g><g id="SvgjsG1444"><path id="SvgjsPath1445" d="M265 558.9999999999999L310.5 558.9999999999999L310.5 558.9999999999999L353.4 558.9999999999999 " stroke="#323232" stroke-width="2" fill="none" marker-end="url(#SvgjsMarker1446)"></path></g><g id="SvgjsG1448" transform="translate(469,457.9999999999999)"><path id="SvgjsPath1449" d="M102 0Q93 0 93 9L93 96.5Q93 105.5 80 105.5Q93 105.5 93 114.5L93 202Q93 211 102 211 " stroke="rgba(50,50,50,1)" stroke-width="2" fill="none"></path><path id="SvgjsPath1450" d="M0 0L102 0L102 211L0 211Z " stroke="none" fill="none"></path><g id="SvgjsG1451"><text id="SvgjsText1452" font-family="微软雅黑" text-anchor="end" font-size="13px" width="75px" fill="#323232" font-weight="400" align="middle" lineHeight="125%" font-style="" opacity="1" y="94.875" transform="rotate(0)"></text></g></g><g id="SvgjsG1453" transform="translate(576,459.9999999999999)"><path id="SvgjsPath1454" d="M0 0L194 0L194 34L0 34Z " stroke="rgba(50,50,50,1)" stroke-width="2" fill-opacity="1" fill="#ffffff"></path><g id="SvgjsG1455"><text id="SvgjsText1456" font-family="微软雅黑" text-anchor="start" font-size="13px" width="174px" fill="#323232" font-weight="400" align="middle" lineHeight="125%" font-style="" opacity="1" y="6.375" transform="rotate(0)"><tspan id="SvgjsTspan1457" dy="16" x="10"><tspan id="SvgjsTspan1458" style="text-decoration:;">Set(3): app1 app2 app3</tspan></tspan></text></g></g><g id="SvgjsG1459" transform="translate(576,506.9999999999999)"><path id="SvgjsPath1460" d="M0 0L155 0L155 31.5L0 31.5Z " stroke="rgba(50,50,50,1)" stroke-width="2" fill-opacity="1" fill="#ffffff"></path><g id="SvgjsG1461"><text id="SvgjsText1462" font-family="微软雅黑" text-anchor="start" font-size="13px" width="135px" fill="#323232" font-weight="400" align="middle" lineHeight="125%" font-style="" opacity="1" y="5.125" transform="rotate(0)"><tspan id="SvgjsTspan1463" dy="16" x="10"><tspan id="SvgjsTspan1464" style="text-decoration:;">Set(2): : app1 app2</tspan></tspan></text></g></g><g id="SvgjsG1465" transform="translate(576,547.9999999999999)"><path id="SvgjsPath1466" d="M0 0L123.5 0L123.5 31L0 31Z " stroke="rgba(50,50,50,1)" stroke-width="2" fill-opacity="1" fill="#ffffff"></path><g id="SvgjsG1467"><text id="SvgjsText1468" font-family="微软雅黑" text-anchor="middle" font-size="13px" width="104px" fill="#323232" font-weight="400" align="middle" lineHeight="125%" font-style="" opacity="1" y="4.875" transform="rotate(0)"><tspan id="SvgjsTspan1469" dy="16" x="62"><tspan id="SvgjsTspan1470" style="text-decoration:;">Chunk: app1</tspan></tspan></text></g></g><g id="SvgjsG1471" transform="translate(576,591.9999999999999)"><path id="SvgjsPath1472" d="M0 0L123.5 0L123.5 31L0 31Z " stroke="rgba(50,50,50,1)" stroke-width="2" fill-opacity="1" fill="#ffffff"></path><g id="SvgjsG1473"><text id="SvgjsText1474" font-family="微软雅黑" text-anchor="middle" font-size="13px" width="104px" fill="#323232" font-weight="400" align="middle" lineHeight="125%" font-style="" opacity="1" y="4.875" transform="rotate(0)"><tspan id="SvgjsTspan1475" dy="16" x="62"><tspan id="SvgjsTspan1476" style="text-decoration:;">Chunk: app2</tspan></tspan></text></g></g><g id="SvgjsG1477" transform="translate(576,637.9999999999999)"><path id="SvgjsPath1478" d="M0 0L123.5 0L123.5 31L0 31Z " stroke="rgba(50,50,50,1)" stroke-width="2" fill-opacity="1" fill="#ffffff"></path><g id="SvgjsG1479"><text id="SvgjsText1480" font-family="微软雅黑" text-anchor="middle" font-size="13px" width="104px" fill="#323232" font-weight="400" align="middle" lineHeight="125%" font-style="" opacity="1" y="4.875" transform="rotate(0)"><tspan id="SvgjsTspan1481" dy="16" x="62"><tspan id="SvgjsTspan1482" style="text-decoration:;">Chunk: app3</tspan></tspan></text></g></g><g id="SvgjsG1483" transform="translate(264,761.4999999999999)"><path id="SvgjsPath1484" d="M0 0L374 0L374 37.5L0 37.5Z " stroke="none" fill="none"></path><g id="SvgjsG1485"><text id="SvgjsText1486" font-family="微软雅黑" text-anchor="middle" font-size="24px" width="374px" fill="#323232" font-weight="400" align="middle" lineHeight="125%" font-style="" opacity="1" y="-2.25" transform="rotate(0)"><tspan id="SvgjsTspan1487" dy="30" x="187"><tspan id="SvgjsTspan1488" style="text-decoration:;">chunksInfoMap</tspan></tspan></text></g></g><g id="SvgjsG1489" transform="translate(275.5,830.9999999999999)"><path id="SvgjsPath1490" d="M0 0L152 0L152 42.5L0 42.5Z " stroke="rgba(50,50,50,1)" stroke-width="2" fill-opacity="1" fill="#fff9c4"></path><g id="SvgjsG1491"><text id="SvgjsText1492" font-family="微软雅黑" text-anchor="middle" font-size="13px" width="132px" fill="#323232" font-weight="400" align="middle" lineHeight="125%" font-style="" opacity="1" y="10.625" transform="rotate(0)"><tspan id="SvgjsTspan1493" dy="16" x="76"><tspan id="SvgjsTspan1494" style="text-decoration:;">cacheGroup.key</tspan></tspan></text></g></g><g id="SvgjsG1495" transform="translate(446,902.4999999999999)"><path id="SvgjsPath1496" d="M0 0L170 0L170 44L0 44Z " stroke="rgba(50,50,50,1)" stroke-width="2" fill-opacity="1" fill="#ffffff"></path><g id="SvgjsG1497"><text id="SvgjsText1498" font-family="微软雅黑" text-anchor="middle" font-size="12px" width="150px" fill="#323232" font-weight="400" align="middle" lineHeight="125%" font-style="" opacity="1" y="4.5" transform="rotate(0)"><tspan id="SvgjsTspan1499" dy="15" x="85"><tspan id="SvgjsTspan1500" style="text-decoration:;">chunksKeys: 每一个key代</tspan></tspan><tspan id="SvgjsTspan1501" dy="15" x="85"><tspan id="SvgjsTspan1502" style="text-decoration:;">表一个NormalModule</tspan></tspan></text></g></g><g id="SvgjsG1503" transform="translate(446,960.4999999999999)"><path id="SvgjsPath1504" d="M0 0L170 0L170 63.5L0 63.5Z " stroke="rgba(50,50,50,1)" stroke-width="2" fill-opacity="1" fill="#ffffff"></path><g id="SvgjsG1505"><text id="SvgjsText1506" font-family="微软雅黑" text-anchor="middle" font-size="12px" width="150px" fill="#323232" font-weight="400" align="middle" lineHeight="125%" font-style="" opacity="1" y="-0.75" transform="rotate(0)"><tspan id="SvgjsTspan1507" dy="15" x="85"><tspan id="SvgjsTspan1508" style="text-decoration:;">chunks：这些</tspan></tspan><tspan id="SvgjsTspan1509" dy="15" x="85"><tspan id="SvgjsTspan1510" style="text-decoration:;">NormalModule所形成的</tspan></tspan><tspan id="SvgjsTspan1511" dy="15" x="85"><tspan id="SvgjsTspan1512" style="text-decoration:;">chunks集合，由于是Set集</tspan></tspan><tspan id="SvgjsTspan1513" dy="15" x="85"><tspan id="SvgjsTspan1514" style="text-decoration:;">合，有去重机制</tspan></tspan></text></g></g><g id="SvgjsG1515" transform="translate(446,838.9999999999999)"><path id="SvgjsPath1516" d="M0 0L170 0L170 52.5L0 52.5Z " stroke="rgba(50,50,50,1)" stroke-width="2" fill-opacity="1" fill="#ffffff"></path><g id="SvgjsG1517"><text id="SvgjsText1518" font-family="微软雅黑" text-anchor="middle" font-size="12px" width="150px" fill="#323232" font-weight="400" align="middle" lineHeight="125%" font-style="" opacity="1" y="1.25" transform="rotate(0)"><tspan id="SvgjsTspan1519" dy="15" x="85"><tspan id="SvgjsTspan1520" style="text-decoration:;">NormalModule：符合</tspan></tspan><tspan id="SvgjsTspan1521" dy="15" x="85"><tspan id="SvgjsTspan1522" style="text-decoration:;">cacheGroup的所有module</tspan></tspan><tspan id="SvgjsTspan1523" dy="15" x="85"><tspan id="SvgjsTspan1524" style="text-decoration:;">集合</tspan></tspan></text></g></g><g id="SvgjsG1525" transform="translate(471,798.9999999999999)"><path id="SvgjsPath1526" d="M0 0L120 0L120 40L0 40Z " stroke="none" fill="none"></path><g id="SvgjsG1527"><text id="SvgjsText1528" font-family="微软雅黑" text-anchor="middle" font-size="20px" width="120px" fill="#ff0000" font-weight="400" align="middle" lineHeight="125%" font-style="" opacity="1" y="2" transform="rotate(0)"><tspan id="SvgjsTspan1529" dy="25" x="60"><tspan id="SvgjsTspan1530" style="text-decoration:;">value</tspan></tspan></text></g></g><g id="SvgjsG1531" transform="translate(287,798.9999999999999)"><path id="SvgjsPath1532" d="M0 0L120 0L120 40L0 40Z " stroke="none" fill="none"></path><g id="SvgjsG1533"><text id="SvgjsText1534" font-family="微软雅黑" text-anchor="middle" font-size="20px" width="120px" fill="#ff0000" font-weight="400" align="middle" lineHeight="125%" font-style="" opacity="1" y="2" transform="rotate(0)"><tspan id="SvgjsTspan1535" dy="25" x="60"><tspan id="SvgjsTspan1536" style="text-decoration:;">key</tspan></tspan></text></g></g><g id="SvgjsG1537" transform="translate(375,636.4999999999999)"><path id="SvgjsPath1538" d="M0 0L136 0L152 16L152 48L0 48L0 0Z " stroke="none" fill-opacity="1" fill="#fff9c4"></path><path id="SvgjsPath1539" d="M136 0L136 16L152 16Z " stroke="none" fill-opacity="1" fill="#cdcdcd"></path><path id="SvgjsPath1540" d="M0 0L136 0L152 16L152 48L0 48L0 0Z " stroke="none" fill="none"></path><g id="SvgjsG1541"><text id="SvgjsText1542" font-family="微软雅黑" text-anchor="middle" font-size="13px" width="132px" fill="#323232" font-weight="400" align="middle" lineHeight="125%" font-style="" opacity="1" y="13.375" transform="rotate(0)"><tspan id="SvgjsTspan1543" dy="16" x="76"><tspan id="SvgjsTspan1544" style="text-decoration:;">遍历所有cacheGroups</tspan></tspan></text></g></g><g id="SvgjsG1545"><path id="SvgjsPath1546" d="M451 586.9999999999999L451 611.2499999999999L451 611.2499999999999L451 633.8999999999999 " stroke="#323232" stroke-width="2" fill="none" marker-end="url(#SvgjsMarker1547)"></path></g><g id="SvgjsG1549"><path id="SvgjsPath1550" d="M451 685.9999999999999L451 725.4999999999999L451 725.4999999999999L451 764.9999999999999 " stroke="#323232" stroke-width="2" fill="none" marker-end="url(#SvgjsMarker1551)"></path></g><g id="SvgjsG1553" transform="translate(439,707.0864661654134)"><path id="SvgjsPath1554" d="M0 0L120 0L120 23.7593984962406L0 23.7593984962406Z " stroke="none" fill="none"></path><g id="SvgjsG1555"><text id="SvgjsText1556" font-family="微软雅黑" text-anchor="middle" font-size="13px" width="120px" fill="#323232" font-weight="400" align="middle" lineHeight="125%" font-style="" opacity="1" y="-6.7453007518797" transform="rotate(0)"><tspan id="SvgjsTspan1557" dy="16" x="60"><tspan id="SvgjsTspan1558" style="text-decoration:;">最终形成</tspan></tspan><tspan id="SvgjsTspan1559" dy="16" x="60"><tspan id="SvgjsTspan1560" style="text-decoration:;">chunksInfoMap</tspan></tspan></text></g></g><g id="SvgjsG1561" transform="translate(134,407.9999999999999)"><path id="SvgjsPath1562" d="M0 0L652 0L652 33L0 33Z " stroke="none" fill="none"></path><g id="SvgjsG1563"><text id="SvgjsText1564" font-family="微软雅黑" text-anchor="middle" font-size="20px" width="652px" fill="#323232" font-weight="400" align="middle" lineHeight="125%" font-style="" opacity="1" y="-1.5" transform="rotate(0)"><tspan id="SvgjsTspan1565" dy="25" x="326"><tspan id="SvgjsTspan1566" style="text-decoration:;">遍历所有NormalModule</tspan></tspan></text></g></g><g id="SvgjsG1567" transform="translate(24.99999999999997,57)"><path id="SvgjsPath1568" d="M0 0L145 0L145 94L0 94Z " stroke-dasharray="10,6" stroke="rgba(50,50,50,1)" stroke-width="2" fill-opacity="1" fill="#ffffff"></path><g id="SvgjsG1569"><text id="SvgjsText1570" font-family="微软雅黑" text-anchor="middle" font-size="13px" width="125px" fill="#323232" font-weight="400" align="middle" lineHeight="125%" font-style="" opacity="1" y="36.375" transform="rotate(0)"></text></g></g><g id="SvgjsG1571" transform="translate(45.99999999999997,68.99999999999997)"><path id="SvgjsPath1572" d="M0 15.000000000000014C0 -5.000000000000004 30 -5.000000000000004 30 15.000000000000014C30 35.000000000000036 0 35.000000000000036 0 15.000000000000014Z " stroke="rgba(50,50,50,1)" stroke-width="2" fill-opacity="1" fill="#ffffff"></path><g id="SvgjsG1573"><text id="SvgjsText1574" font-family="微软雅黑" text-anchor="middle" font-size="13px" width="10px" fill="#323232" font-weight="400" align="middle" lineHeight="125%" font-style="" opacity="1" y="4.375000000000014" transform="rotate(0)"></text></g></g><g id="SvgjsG1575" transform="translate(62.99999999999997,64)"><path id="SvgjsPath1576" d="M0 0L120 0L120 40L0 40Z " stroke="none" fill="none"></path><g id="SvgjsG1577"><text id="SvgjsText1578" font-family="微软雅黑" text-anchor="middle" font-size="13px" width="120px" fill="#323232" font-weight="400" align="middle" lineHeight="125%" font-style="" opacity="1" y="9.375" transform="rotate(0)"><tspan id="SvgjsTspan1579" dy="16" x="60"><tspan id="SvgjsTspan1580" style="text-decoration:;">代表chunk</tspan></tspan></text></g></g><g id="SvgjsG1581" transform="translate(38.99999999999997,120)"><path id="SvgjsPath1582" d="M0 0L44 0L44 24L0 24Z " stroke="rgba(50,50,50,1)" stroke-width="2" fill-opacity="1" fill="#ffffff"></path><g id="SvgjsG1583"><text id="SvgjsText1584" font-family="微软雅黑" text-anchor="middle" font-size="13px" width="24px" fill="#323232" font-weight="400" align="middle" lineHeight="125%" font-style="" opacity="1" y="1.375" transform="rotate(0)"></text></g></g><g id="SvgjsG1585" transform="translate(62.99999999999997,111)"><path id="SvgjsPath1586" d="M0 0L120 0L120 40L0 40Z " stroke="none" fill="none"></path><g id="SvgjsG1587"><text id="SvgjsText1588" font-family="微软雅黑" text-anchor="middle" font-size="13px" width="120px" fill="#323232" font-weight="400" align="middle" lineHeight="125%" font-style="" opacity="1" y="9.375" transform="rotate(0)"><tspan id="SvgjsTspan1589" dy="16" x="60"><tspan id="SvgjsTspan1590" style="text-decoration:;">代表module</tspan></tspan></text></g></g><g id="SvgjsG1591" transform="translate(428.5,56.999999999999886)"><path id="SvgjsPath1592" d="M0 0L130.5 0L130.5 42L0 42Z " stroke="rgba(50,50,50,1)" stroke-width="2" fill-opacity="1" fill="#ffffff"></path><g id="SvgjsG1593"><text id="SvgjsText1594" font-family="微软雅黑" text-anchor="middle" font-size="13px" width="111px" fill="#323232" font-weight="400" align="middle" lineHeight="125%" font-style="" opacity="1" y="10.375" transform="rotate(0)"><tspan id="SvgjsTspan1595" dy="16" x="65.5"><tspan id="SvgjsTspan1596" style="text-decoration:;">common_____g</tspan></tspan></text></g></g><g id="SvgjsG1597" transform="translate(275.5,128.9999999999999)"><path id="SvgjsPath1598" d="M0 35C0 -11.666666666666666 70 -11.666666666666666 70 35C70 81.66666666666667 0 81.66666666666667 0 35Z " stroke="rgba(50,50,50,1)" stroke-width="2" fill-opacity="1" fill="#bbdefb"></path><g id="SvgjsG1599"><text id="SvgjsText1600" font-family="微软雅黑" text-anchor="middle" font-size="13px" width="50px" fill="#323232" font-weight="400" align="middle" lineHeight="125%" font-style="" opacity="1" y="24.375" transform="rotate(0)"><tspan id="SvgjsTspan1601" dy="16" x="35"><tspan id="SvgjsTspan1602" style="text-decoration:;">app1</tspan></tspan></text></g></g><g id="SvgjsG1603" transform="translate(379.5,128.9999999999999)"><path id="SvgjsPath1604" d="M0 35C0 -11.666666666666666 70 -11.666666666666666 70 35C70 81.66666666666667 0 81.66666666666667 0 35Z " stroke="rgba(50,50,50,1)" stroke-width="2" fill-opacity="1" fill="#ffcdd2"></path><g id="SvgjsG1605"><text id="SvgjsText1606" font-family="微软雅黑" text-anchor="middle" font-size="13px" width="50px" fill="#323232" font-weight="400" align="middle" lineHeight="125%" font-style="" opacity="1" y="24.375" transform="rotate(0)"><tspan id="SvgjsTspan1607" dy="16" x="35"><tspan id="SvgjsTspan1608" style="text-decoration:;">app2</tspan></tspan></text></g></g><g id="SvgjsG1609" transform="translate(505.9999999999999,128.9999999999999)"><path id="SvgjsPath1610" d="M0 35C0 -11.666666666666666 70 -11.666666666666666 70 35C70 81.66666666666667 0 81.66666666666667 0 35Z " stroke="rgba(50,50,50,1)" stroke-width="2" fill-opacity="1" fill="#fff9c4"></path><g id="SvgjsG1611"><text id="SvgjsText1612" font-family="微软雅黑" text-anchor="middle" font-size="13px" width="50px" fill="#323232" font-weight="400" align="middle" lineHeight="125%" font-style="" opacity="1" y="24.375" transform="rotate(0)"><tspan id="SvgjsTspan1613" dy="16" x="35"><tspan id="SvgjsTspan1614" style="text-decoration:;">app3</tspan></tspan></text></g></g><g id="SvgjsG1615" transform="translate(638,128.9999999999999)"><path id="SvgjsPath1616" d="M0 35C0 -11.666666666666666 70 -11.666666666666666 70 35C70 81.66666666666667 0 81.66666666666667 0 35Z " stroke="rgba(50,50,50,1)" stroke-width="2" fill-opacity="1" fill="#ffffff"></path><g id="SvgjsG1617"><text id="SvgjsText1618" font-family="微软雅黑" text-anchor="middle" font-size="13px" width="50px" fill="#323232" font-weight="400" align="middle" lineHeight="125%" font-style="" opacity="1" y="24.375" transform="rotate(0)"><tspan id="SvgjsTspan1619" dy="16" x="35"><tspan id="SvgjsTspan1620" style="text-decoration:;">app4</tspan></tspan></text></g></g><g id="SvgjsG1621" transform="translate(213.5,226.5)"><path id="SvgjsPath1622" d="M0 0L120 0L120 40L0 40Z " stroke="none" fill="none"></path><g id="SvgjsG1623"><text id="SvgjsText1624" font-family="微软雅黑" text-anchor="middle" font-size="13px" width="120px" fill="#ff0000" font-weight="400" align="middle" lineHeight="125%" font-style="" opacity="0.3" y="9.375" transform="rotate(0)"><tspan id="SvgjsTspan1625" dy="16" x="60"><tspan id="SvgjsTspan1626" style="text-decoration:;">node_modules</tspan></tspan></text></g></g><g id="SvgjsG1627" transform="translate(491,226.5)"><path id="SvgjsPath1628" d="M0 0L120 0L120 40L0 40Z " stroke="none" fill="none"></path><g id="SvgjsG1629"><text id="SvgjsText1630" font-family="微软雅黑" text-anchor="middle" font-size="13px" width="120px" fill="#ff0000" font-weight="400" align="middle" lineHeight="125%" font-style="" opacity="0.3" y="9.375" transform="rotate(0)"><tspan id="SvgjsTspan1631" dy="16" x="60"><tspan id="SvgjsTspan1632" style="text-decoration:;">node_modules</tspan></tspan></text></g></g><g id="SvgjsG1633" transform="translate(764,226.5)"><path id="SvgjsPath1634" d="M0 0L120 0L120 40L0 40Z " stroke="none" fill="none"></path><g id="SvgjsG1635"><text id="SvgjsText1636" font-family="微软雅黑" text-anchor="middle" font-size="13px" width="120px" fill="#ff0000" font-weight="400" align="middle" lineHeight="125%" font-style="" opacity="0.3" y="9.375" transform="rotate(0)"><tspan id="SvgjsTspan1637" dy="16" x="60"><tspan id="SvgjsTspan1638" style="text-decoration:;">node_modules</tspan></tspan></text></g></g><g id="SvgjsG1639" transform="translate(552,57)"><path id="SvgjsPath1640" d="M0 0L120 0L120 40L0 40Z " stroke="none" fill="none"></path><g id="SvgjsG1641"><text id="SvgjsText1642" font-family="微软雅黑" text-anchor="middle" font-size="13px" width="120px" fill="#ff0000" font-weight="400" align="middle" lineHeight="125%" font-style="" opacity="0.3" y="9.375" transform="rotate(0)"><tspan id="SvgjsTspan1643" dy="16" x="60"><tspan id="SvgjsTspan1644" style="text-decoration:;">非node_modules</tspan></tspan></text></g></g></svg>