<svg id="SvgjsSvg1000" xmlns="http://www.w3.org/2000/svg" version="1.1" xmlns:xlink="http://www.w3.org/1999/xlink" xmlns:svgjs="http://svgjs.com/svgjs" width="909" height="398"><defs id="SvgjsDefs1001"></defs><g id="svgbackgroundid"><defs></defs><rect id="SvgjsRect1008" width="909" height="398" fill="#ffffff"></rect></g><g id="SvgjsG1010" transform="matrix(-1.8369701987210297e-16,-1,1,-1.8369701987210297e-16,280,127.00000000000003)"><path id="SvgjsPath1011" d="M0 424Q9 424 9 415L9 221Q9 212 22 212Q9 212 9 203L9 9Q9 0 0 0 " stroke="rgba(50,50,50,1)" stroke-width="2" fill="none"></path><path id="SvgjsPath1012" d="M0 0L102 0L102 424L0 424Z " stroke="none" fill="none"></path><g id="SvgjsG1013"><text id="SvgjsText1014" font-family="微软雅黑" text-anchor="start" font-size="13px" width="75px" fill="#323232" font-weight="400" align="middle" lineHeight="125%" font-style="" opacity="1" y="201.375" transform="rotate(0)"></text></g></g><g id="SvgjsG1015" transform="matrix(-1.8369701987210297e-16,-1,1,-1.8369701987210297e-16,24.999999999999943,297.0000000000001)"><path id="SvgjsPath1016" d="M0 297.0000000000001Q8 297.0000000000001 8 288.0000000000001L8 157.50000000000006Q8 148.50000000000006 22 148.50000000000006Q8 148.50000000000006 8 139.50000000000006L8 9Q8 0 0 0 " stroke="rgba(50,50,50,1)" stroke-width="2" fill="none"></path><path id="SvgjsPath1017" d="M0 0L80 0L80 297.0000000000001L0 297.0000000000001Z " stroke="none" fill="none"></path><g id="SvgjsG1018"><text id="SvgjsText1019" font-family="微软雅黑" text-anchor="start" font-size="13px" width="53px" fill="#323232" font-weight="400" align="middle" lineHeight="125%" font-style="" opacity="1" y="137.87500000000006" transform="rotate(0)"></text></g></g><g id="SvgjsG1020" transform="translate(121,226)"><path id="SvgjsPath1021" d="M0 0L106 0L106 41L0 41Z " stroke="rgba(50,50,50,1)" stroke-width="2" fill-opacity="1" fill="#ffffff"></path><g id="SvgjsG1022"><text id="SvgjsText1023" font-family="微软雅黑" text-anchor="middle" font-size="13px" width="86px" fill="#323232" font-weight="400" align="middle" lineHeight="125%" font-style="" opacity="1" y="9.875" transform="rotate(0)"><tspan id="SvgjsTspan1024" dy="16" x="53"><tspan id="SvgjsTspan1025" style="text-decoration:;">js-cookie</tspan></tspan></text></g></g><g id="SvgjsG1026" transform="translate(35,303)"><path id="SvgjsPath1027" d="M0 35C0 -11.666666666666666 70 -11.666666666666666 70 35C70 81.66666666666667 0 81.66666666666667 0 35Z " stroke="rgba(50,50,50,1)" stroke-width="2" fill-opacity="1" fill="#bbdefb"></path><g id="SvgjsG1028"><text id="SvgjsText1029" font-family="微软雅黑" text-anchor="middle" font-size="13px" width="50px" fill="#323232" font-weight="400" align="middle" lineHeight="125%" font-style="" opacity="1" y="24.375" transform="rotate(0)"><tspan id="SvgjsTspan1030" dy="16" x="35"><tspan id="SvgjsTspan1031" style="text-decoration:;">app1</tspan></tspan></text></g></g><g id="SvgjsG1032" transform="translate(139,303)"><path id="SvgjsPath1033" d="M0 35C0 -11.666666666666666 70 -11.666666666666666 70 35C70 81.66666666666667 0 81.66666666666667 0 35Z " stroke="rgba(50,50,50,1)" stroke-width="2" fill-opacity="1" fill="#ffcdd2"></path><g id="SvgjsG1034"><text id="SvgjsText1035" font-family="微软雅黑" text-anchor="middle" font-size="13px" width="50px" fill="#323232" font-weight="400" align="middle" lineHeight="125%" font-style="" opacity="1" y="24.375" transform="rotate(0)"><tspan id="SvgjsTspan1036" dy="16" x="35"><tspan id="SvgjsTspan1037" style="text-decoration:;">app2</tspan></tspan></text></g></g><g id="SvgjsG1038" transform="translate(255,303)"><path id="SvgjsPath1039" d="M0 35C0 -11.666666666666666 70 -11.666666666666666 70 35C70 81.66666666666667 0 81.66666666666667 0 35Z " stroke="rgba(50,50,50,1)" stroke-width="2" fill-opacity="1" fill="#fff9c4"></path><g id="SvgjsG1040"><text id="SvgjsText1041" font-family="微软雅黑" text-anchor="middle" font-size="13px" width="50px" fill="#323232" font-weight="400" align="middle" lineHeight="125%" font-style="" opacity="1" y="24.375" transform="rotate(0)"><tspan id="SvgjsTspan1042" dy="16" x="35"><tspan id="SvgjsTspan1043" style="text-decoration:;">app3</tspan></tspan></text></g></g><g id="SvgjsG1044" transform="matrix(-1.8369701987210297e-16,-1,1,-1.8369701987210297e-16,356,296)"><path id="SvgjsPath1045" d="M0 190Q7.9 190 7.9 181L7.9 104Q7.9 95 22 95Q7.9 95 7.9 86L7.9 9Q7.9 0 0 0 " stroke="rgba(50,50,50,1)" stroke-width="2" fill="none"></path><path id="SvgjsPath1046" d="M0 0L79 0L79 190L0 190Z " stroke="none" fill="none"></path><g id="SvgjsG1047"><text id="SvgjsText1048" font-family="微软雅黑" text-anchor="start" font-size="13px" width="52px" fill="#323232" font-weight="400" align="middle" lineHeight="125%" font-style="" opacity="1" y="84.375" transform="rotate(0)"></text></g></g><g id="SvgjsG1049" transform="translate(398,226)"><path id="SvgjsPath1050" d="M0 0L106 0L106 41L0 41Z " stroke="rgba(50,50,50,1)" stroke-width="2" fill-opacity="1" fill="#ffffff"></path><g id="SvgjsG1051"><text id="SvgjsText1052" font-family="微软雅黑" text-anchor="middle" font-size="13px" width="86px" fill="#323232" font-weight="400" align="middle" lineHeight="125%" font-style="" opacity="1" y="9.875" transform="rotate(0)"><tspan id="SvgjsTspan1053" dy="16" x="53"><tspan id="SvgjsTspan1054" style="text-decoration:;">loadsh</tspan></tspan></text></g></g><g id="SvgjsG1055" transform="translate(362.5,303)"><path id="SvgjsPath1056" d="M0 35C0 -11.666666666666666 70 -11.666666666666666 70 35C70 81.66666666666667 0 81.66666666666667 0 35Z " stroke="rgba(50,50,50,1)" stroke-width="2" fill-opacity="1" fill="#bbdefb"></path><g id="SvgjsG1057"><text id="SvgjsText1058" font-family="微软雅黑" text-anchor="middle" font-size="13px" width="50px" fill="#323232" font-weight="400" align="middle" lineHeight="125%" font-style="" opacity="1" y="24.375" transform="rotate(0)"><tspan id="SvgjsTspan1059" dy="16" x="35"><tspan id="SvgjsTspan1060" style="text-decoration:;">app1</tspan></tspan></text></g></g><g id="SvgjsG1061" transform="translate(470,303)"><path id="SvgjsPath1062" d="M0 35C0 -11.666666666666666 70 -11.666666666666666 70 35C70 81.66666666666667 0 81.66666666666667 0 35Z " stroke="rgba(50,50,50,1)" stroke-width="2" fill-opacity="1" fill="#ffcdd2"></path><g id="SvgjsG1063"><text id="SvgjsText1064" font-family="微软雅黑" text-anchor="middle" font-size="13px" width="50px" fill="#323232" font-weight="400" align="middle" lineHeight="125%" font-style="" opacity="1" y="24.375" transform="rotate(0)"><tspan id="SvgjsTspan1065" dy="16" x="35"><tspan id="SvgjsTspan1066" style="text-decoration:;">app2</tspan></tspan></text></g></g><g id="SvgjsG1067" transform="matrix(-1.8369701987210297e-16,-1,1,-1.8369701987210297e-16,576,296.5000000000001)"><path id="SvgjsPath1068" d="M0 297.0000000000001Q8 297.0000000000001 8 288.0000000000001L8 157.50000000000006Q8 148.50000000000006 22 148.50000000000006Q8 148.50000000000006 8 139.50000000000006L8 9Q8 0 0 0 " stroke="rgba(50,50,50,1)" stroke-width="2" fill="none"></path><path id="SvgjsPath1069" d="M0 0L80 0L80 297.0000000000001L0 297.0000000000001Z " stroke="none" fill="none"></path><g id="SvgjsG1070"><text id="SvgjsText1071" font-family="微软雅黑" text-anchor="start" font-size="13px" width="53px" fill="#323232" font-weight="400" align="middle" lineHeight="125%" font-style="" opacity="1" y="137.87500000000006" transform="rotate(0)"></text></g></g><g id="SvgjsG1072" transform="translate(672,226)"><path id="SvgjsPath1073" d="M0 0L106 0L106 41L0 41Z " stroke="rgba(50,50,50,1)" stroke-width="2" fill-opacity="1" fill="#ffffff"></path><g id="SvgjsG1074"><text id="SvgjsText1075" font-family="微软雅黑" text-anchor="middle" font-size="13px" width="86px" fill="#323232" font-weight="400" align="middle" lineHeight="125%" font-style="" opacity="1" y="9.875" transform="rotate(0)"><tspan id="SvgjsTspan1076" dy="16" x="53"><tspan id="SvgjsTspan1077" style="text-decoration:;">voca</tspan></tspan></text></g></g><g id="SvgjsG1078" transform="translate(584,302.49999999999994)"><path id="SvgjsPath1079" d="M0 35C0 -11.666666666666666 70 -11.666666666666666 70 35C70 81.66666666666667 0 81.66666666666667 0 35Z " stroke="rgba(50,50,50,1)" stroke-width="2" fill-opacity="1" fill="#ffcdd2"></path><g id="SvgjsG1080"><text id="SvgjsText1081" font-family="微软雅黑" text-anchor="middle" font-size="13px" width="50px" fill="#323232" font-weight="400" align="middle" lineHeight="125%" font-style="" opacity="1" y="24.375" transform="rotate(0)"><tspan id="SvgjsTspan1082" dy="16" x="35"><tspan id="SvgjsTspan1083" style="text-decoration:;">app2</tspan></tspan></text></g></g><g id="SvgjsG1084" transform="translate(690,302.49999999999994)"><path id="SvgjsPath1085" d="M0 35C0 -11.666666666666666 70 -11.666666666666666 70 35C70 81.66666666666667 0 81.66666666666667 0 35Z " stroke="rgba(50,50,50,1)" stroke-width="2" fill-opacity="1" fill="#fff9c4"></path><g id="SvgjsG1086"><text id="SvgjsText1087" font-family="微软雅黑" text-anchor="middle" font-size="13px" width="50px" fill="#323232" font-weight="400" align="middle" lineHeight="125%" font-style="" opacity="1" y="24.375" transform="rotate(0)"><tspan id="SvgjsTspan1088" dy="16" x="35"><tspan id="SvgjsTspan1089" style="text-decoration:;">app3</tspan></tspan></text></g></g><g id="SvgjsG1090" transform="translate(804,302.49999999999994)"><path id="SvgjsPath1091" d="M0 35C0 -11.666666666666666 70 -11.666666666666666 70 35C70 81.66666666666667 0 81.66666666666667 0 35Z " stroke="rgba(50,50,50,1)" stroke-width="2" fill-opacity="1" fill="#ffffff"></path><g id="SvgjsG1092"><text id="SvgjsText1093" font-family="微软雅黑" text-anchor="middle" font-size="13px" width="50px" fill="#323232" font-weight="400" align="middle" lineHeight="125%" font-style="" opacity="1" y="24.375" transform="rotate(0)"><tspan id="SvgjsTspan1094" dy="16" x="35"><tspan id="SvgjsTspan1095" style="text-decoration:;">app4</tspan></tspan></text></g></g><g id="SvgjsG1096" transform="translate(24.99999999999997,57)"><path id="SvgjsPath1097" d="M0 0L145 0L145 94L0 94Z " stroke-dasharray="10,6" stroke="rgba(50,50,50,1)" stroke-width="2" fill-opacity="1" fill="#ffffff"></path><g id="SvgjsG1098"><text id="SvgjsText1099" font-family="微软雅黑" text-anchor="middle" font-size="13px" width="125px" fill="#323232" font-weight="400" align="middle" lineHeight="125%" font-style="" opacity="1" y="36.375" transform="rotate(0)"></text></g></g><g id="SvgjsG1100" transform="translate(45.99999999999997,68.99999999999997)"><path id="SvgjsPath1101" d="M0 15.000000000000014C0 -5.000000000000004 30 -5.000000000000004 30 15.000000000000014C30 35.000000000000036 0 35.000000000000036 0 15.000000000000014Z " stroke="rgba(50,50,50,1)" stroke-width="2" fill-opacity="1" fill="#ffffff"></path><g id="SvgjsG1102"><text id="SvgjsText1103" font-family="微软雅黑" text-anchor="middle" font-size="13px" width="10px" fill="#323232" font-weight="400" align="middle" lineHeight="125%" font-style="" opacity="1" y="4.375000000000014" transform="rotate(0)"></text></g></g><g id="SvgjsG1104" transform="translate(62.99999999999997,64)"><path id="SvgjsPath1105" d="M0 0L120 0L120 40L0 40Z " stroke="none" fill="none"></path><g id="SvgjsG1106"><text id="SvgjsText1107" font-family="微软雅黑" text-anchor="middle" font-size="13px" width="120px" fill="#323232" font-weight="400" align="middle" lineHeight="125%" font-style="" opacity="1" y="9.375" transform="rotate(0)"><tspan id="SvgjsTspan1108" dy="16" x="60"><tspan id="SvgjsTspan1109" style="text-decoration:;">代表chunk</tspan></tspan></text></g></g><g id="SvgjsG1110" transform="translate(38.99999999999997,120)"><path id="SvgjsPath1111" d="M0 0L44 0L44 24L0 24Z " stroke="rgba(50,50,50,1)" stroke-width="2" fill-opacity="1" fill="#ffffff"></path><g id="SvgjsG1112"><text id="SvgjsText1113" font-family="微软雅黑" text-anchor="middle" font-size="13px" width="24px" fill="#323232" font-weight="400" align="middle" lineHeight="125%" font-style="" opacity="1" y="1.375" transform="rotate(0)"></text></g></g><g id="SvgjsG1114" transform="translate(62.99999999999997,111)"><path id="SvgjsPath1115" d="M0 0L120 0L120 40L0 40Z " stroke="none" fill="none"></path><g id="SvgjsG1116"><text id="SvgjsText1117" font-family="微软雅黑" text-anchor="middle" font-size="13px" width="120px" fill="#323232" font-weight="400" align="middle" lineHeight="125%" font-style="" opacity="1" y="9.375" transform="rotate(0)"><tspan id="SvgjsTspan1118" dy="16" x="60"><tspan id="SvgjsTspan1119" style="text-decoration:;">代表module</tspan></tspan></text></g></g><g id="SvgjsG1120" transform="translate(428.5,56.999999999999886)"><path id="SvgjsPath1121" d="M0 0L130.5 0L130.5 42L0 42Z " stroke="rgba(50,50,50,1)" stroke-width="2" fill-opacity="1" fill="#ffffff"></path><g id="SvgjsG1122"><text id="SvgjsText1123" font-family="微软雅黑" text-anchor="middle" font-size="13px" width="111px" fill="#323232" font-weight="400" align="middle" lineHeight="125%" font-style="" opacity="1" y="10.375" transform="rotate(0)"><tspan id="SvgjsTspan1124" dy="16" x="65.5"><tspan id="SvgjsTspan1125" style="text-decoration:;">common_____g</tspan></tspan></text></g></g><g id="SvgjsG1126" transform="translate(275.5,128.9999999999999)"><path id="SvgjsPath1127" d="M0 35C0 -11.666666666666666 70 -11.666666666666666 70 35C70 81.66666666666667 0 81.66666666666667 0 35Z " stroke="rgba(50,50,50,1)" stroke-width="2" fill-opacity="1" fill="#bbdefb"></path><g id="SvgjsG1128"><text id="SvgjsText1129" font-family="微软雅黑" text-anchor="middle" font-size="13px" width="50px" fill="#323232" font-weight="400" align="middle" lineHeight="125%" font-style="" opacity="1" y="24.375" transform="rotate(0)"><tspan id="SvgjsTspan1130" dy="16" x="35"><tspan id="SvgjsTspan1131" style="text-decoration:;">app1</tspan></tspan></text></g></g><g id="SvgjsG1132" transform="translate(379.5,128.9999999999999)"><path id="SvgjsPath1133" d="M0 35C0 -11.666666666666666 70 -11.666666666666666 70 35C70 81.66666666666667 0 81.66666666666667 0 35Z " stroke="rgba(50,50,50,1)" stroke-width="2" fill-opacity="1" fill="#ffcdd2"></path><g id="SvgjsG1134"><text id="SvgjsText1135" font-family="微软雅黑" text-anchor="middle" font-size="13px" width="50px" fill="#323232" font-weight="400" align="middle" lineHeight="125%" font-style="" opacity="1" y="24.375" transform="rotate(0)"><tspan id="SvgjsTspan1136" dy="16" x="35"><tspan id="SvgjsTspan1137" style="text-decoration:;">app2</tspan></tspan></text></g></g><g id="SvgjsG1138" transform="translate(505.9999999999999,128.9999999999999)"><path id="SvgjsPath1139" d="M0 35C0 -11.666666666666666 70 -11.666666666666666 70 35C70 81.66666666666667 0 81.66666666666667 0 35Z " stroke="rgba(50,50,50,1)" stroke-width="2" fill-opacity="1" fill="#fff9c4"></path><g id="SvgjsG1140"><text id="SvgjsText1141" font-family="微软雅黑" text-anchor="middle" font-size="13px" width="50px" fill="#323232" font-weight="400" align="middle" lineHeight="125%" font-style="" opacity="1" y="24.375" transform="rotate(0)"><tspan id="SvgjsTspan1142" dy="16" x="35"><tspan id="SvgjsTspan1143" style="text-decoration:;">app3</tspan></tspan></text></g></g><g id="SvgjsG1144" transform="translate(638,128.9999999999999)"><path id="SvgjsPath1145" d="M0 35C0 -11.666666666666666 70 -11.666666666666666 70 35C70 81.66666666666667 0 81.66666666666667 0 35Z " stroke="rgba(50,50,50,1)" stroke-width="2" fill-opacity="1" fill="#ffffff"></path><g id="SvgjsG1146"><text id="SvgjsText1147" font-family="微软雅黑" text-anchor="middle" font-size="13px" width="50px" fill="#323232" font-weight="400" align="middle" lineHeight="125%" font-style="" opacity="1" y="24.375" transform="rotate(0)"><tspan id="SvgjsTspan1148" dy="16" x="35"><tspan id="SvgjsTspan1149" style="text-decoration:;">app4</tspan></tspan></text></g></g><g id="SvgjsG1150" transform="translate(213.5,226.5)"><path id="SvgjsPath1151" d="M0 0L120 0L120 40L0 40Z " stroke="none" fill="none"></path><g id="SvgjsG1152"><text id="SvgjsText1153" font-family="微软雅黑" text-anchor="middle" font-size="13px" width="120px" fill="#ff0000" font-weight="400" align="middle" lineHeight="125%" font-style="" opacity="0.3" y="9.375" transform="rotate(0)"><tspan id="SvgjsTspan1154" dy="16" x="60"><tspan id="SvgjsTspan1155" style="text-decoration:;">node_modules</tspan></tspan></text></g></g><g id="SvgjsG1156" transform="translate(491,226.5)"><path id="SvgjsPath1157" d="M0 0L120 0L120 40L0 40Z " stroke="none" fill="none"></path><g id="SvgjsG1158"><text id="SvgjsText1159" font-family="微软雅黑" text-anchor="middle" font-size="13px" width="120px" fill="#ff0000" font-weight="400" align="middle" lineHeight="125%" font-style="" opacity="0.3" y="9.375" transform="rotate(0)"><tspan id="SvgjsTspan1160" dy="16" x="60"><tspan id="SvgjsTspan1161" style="text-decoration:;">node_modules</tspan></tspan></text></g></g><g id="SvgjsG1162" transform="translate(764,226.5)"><path id="SvgjsPath1163" d="M0 0L120 0L120 40L0 40Z " stroke="none" fill="none"></path><g id="SvgjsG1164"><text id="SvgjsText1165" font-family="微软雅黑" text-anchor="middle" font-size="13px" width="120px" fill="#ff0000" font-weight="400" align="middle" lineHeight="125%" font-style="" opacity="0.3" y="9.375" transform="rotate(0)"><tspan id="SvgjsTspan1166" dy="16" x="60"><tspan id="SvgjsTspan1167" style="text-decoration:;">node_modules</tspan></tspan></text></g></g><g id="SvgjsG1168" transform="translate(552,57)"><path id="SvgjsPath1169" d="M0 0L120 0L120 40L0 40Z " stroke="none" fill="none"></path><g id="SvgjsG1170"><text id="SvgjsText1171" font-family="微软雅黑" text-anchor="middle" font-size="13px" width="120px" fill="#ff0000" font-weight="400" align="middle" lineHeight="125%" font-style="" opacity="0.3" y="9.375" transform="rotate(0)"><tspan id="SvgjsTspan1172" dy="16" x="60"><tspan id="SvgjsTspan1173" style="text-decoration:;">非node_modules</tspan></tspan></text></g></g></svg>