<svg id="SvgjsSvg1000" xmlns="http://www.w3.org/2000/svg" version="1.1" xmlns:xlink="http://www.w3.org/1999/xlink" xmlns:svgjs="http://svgjs.com/svgjs" width="918.5" height="1540"><defs id="SvgjsDefs1001"><marker id="SvgjsMarker1028" markerWidth="14" markerHeight="10" refX="10" refY="5" viewBox="0 0 14 10" orient="auto" markerUnits="userSpaceOnUse" stroke-dasharray="0,0"><path id="SvgjsPath1029" d="M0 0L14 5L0 10L0 0 " fill="#323232" stroke="#323232" stroke-width="1"></path></marker><marker id="SvgjsMarker1056" markerWidth="14" markerHeight="10" refX="10" refY="5" viewBox="0 0 14 10" orient="auto" markerUnits="userSpaceOnUse" stroke-dasharray="0,0"><path id="SvgjsPath1057" d="M0 0L14 5L0 10L0 0 " fill="#323232" stroke="#323232" stroke-width="1"></path></marker><marker id="SvgjsMarker1094" markerWidth="14" markerHeight="10" refX="10" refY="5" viewBox="0 0 14 10" orient="auto" markerUnits="userSpaceOnUse" stroke-dasharray="0,0"><path id="SvgjsPath1095" d="M0 0L14 5L0 10L0 0 " fill="#323232" stroke="#323232" stroke-width="1"></path></marker><marker id="SvgjsMarker1110" markerWidth="14" markerHeight="10" refX="10" refY="5" viewBox="0 0 14 10" orient="auto" markerUnits="userSpaceOnUse" stroke-dasharray="0,0"><path id="SvgjsPath1111" d="M0 0L14 5L0 10L0 0 " fill="#323232" stroke="#323232" stroke-width="1"></path></marker><marker id="SvgjsMarker1190" markerWidth="14" markerHeight="10" refX="10" refY="5" viewBox="0 0 14 10" orient="auto" markerUnits="userSpaceOnUse" stroke-dasharray="0,0"><path id="SvgjsPath1191" d="M0 0L14 5L0 10L0 0 " fill="#323232" stroke="#323232" stroke-width="1"></path></marker><marker id="SvgjsMarker1194" markerWidth="14" markerHeight="10" refX="10" refY="5" viewBox="0 0 14 10" orient="auto" markerUnits="userSpaceOnUse" stroke-dasharray="0,0"><path id="SvgjsPath1195" d="M0 0L14 5L0 10L0 0 " fill="#323232" stroke="#323232" stroke-width="1"></path></marker><marker id="SvgjsMarker1198" markerWidth="14" markerHeight="10" refX="10" refY="5" viewBox="0 0 14 10" orient="auto" markerUnits="userSpaceOnUse" stroke-dasharray="0,0"><path id="SvgjsPath1199" d="M0 0L14 5L0 10L0 0 " fill="#323232" stroke="#323232" stroke-width="1"></path></marker><marker id="SvgjsMarker1208" markerWidth="14" markerHeight="10" refX="10" refY="5" viewBox="0 0 14 10" orient="auto" markerUnits="userSpaceOnUse" stroke-dasharray="0,0"><path id="SvgjsPath1209" d="M0 0L14 5L0 10L0 0 " fill="#323232" stroke="#323232" stroke-width="1"></path></marker><marker id="SvgjsMarker1269" markerWidth="14" markerHeight="10" refX="10" refY="5" viewBox="0 0 14 10" orient="auto" markerUnits="userSpaceOnUse" stroke-dasharray="0,0"><path id="SvgjsPath1270" d="M0 0L14 5L0 10L0 0 " fill="#323232" stroke="#323232" stroke-width="1"></path></marker><marker id="SvgjsMarker1316" markerWidth="14" markerHeight="10" refX="10" refY="5" viewBox="0 0 14 10" orient="auto" markerUnits="userSpaceOnUse" stroke-dasharray="0,0"><path id="SvgjsPath1317" d="M0 0L14 5L0 10L0 0 " fill="#323232" stroke="#323232" stroke-width="1"></path></marker><marker id="SvgjsMarker1320" markerWidth="14" markerHeight="10" refX="10" refY="5" viewBox="0 0 14 10" orient="auto" markerUnits="userSpaceOnUse" stroke-dasharray="0,0"><path id="SvgjsPath1321" d="M0 0L14 5L0 10L0 0 " fill="#323232" stroke="#323232" stroke-width="1"></path></marker><marker id="SvgjsMarker1324" markerWidth="14" markerHeight="10" refX="10" refY="5" viewBox="0 0 14 10" orient="auto" markerUnits="userSpaceOnUse" stroke-dasharray="0,0"><path id="SvgjsPath1325" d="M0 0L14 5L0 10L0 0 " fill="#323232" stroke="#323232" stroke-width="1"></path></marker><pattern patternUnits="userSpaceOnUse" id="pattern_mark" width="300" height="300"><text x="-50" y="150" fill="rgba(229,229,229,0.8)" font-size="18" transform="rotate(-45, 150, 150)">https://github.com/wbccb</text></pattern></defs><g id="svgbackgroundid"><defs></defs><rect id="SvgjsRect1008" width="918.5" height="1540" fill="#ffffff"></rect></g><rect fill="url(#pattern_mark)" transform="translate(-4.5,32)" width="1533" height="1500" id="rect_mark" pointer-events="none"></rect><g id="SvgjsG1010" transform="translate(25,948)"><path id="SvgjsPath1011" d="M0 0L657 0L657 567L0 567Z " stroke-dasharray="10,6" stroke="rgba(50,50,50,1)" stroke-width="2" fill-opacity="1" fill="#f5f5f5"></path><g id="SvgjsG1012"><text id="SvgjsText1013" font-family="微软雅黑" text-anchor="middle" font-size="13px" width="637px" fill="#323232" font-weight="400" align="middle" lineHeight="125%" font-style="" opacity="1" y="272.875" transform="rotate(0)"></text></g></g><g id="SvgjsG1014" transform="translate(46.5,108.5)"><path id="SvgjsPath1015" d="M0 0L192 0L192 30L0 30Z " stroke="rgba(50,50,50,1)" stroke-width="2" fill-opacity="1" fill="#ffffff"></path><g id="SvgjsG1016"><text id="SvgjsText1017" font-family="微软雅黑" text-anchor="middle" font-size="13px" width="172px" fill="#323232" font-weight="400" align="middle" lineHeight="125%" font-style="" opacity="1" y="4.375" transform="rotate(0)"><tspan id="SvgjsTspan1018" dy="16" x="96"><tspan id="SvgjsTspan1019" style="text-decoration:;">codeGeneration()</tspan></tspan></text></g></g><g id="SvgjsG1020" transform="translate(46.5,300)"><path id="SvgjsPath1021" d="M0 0L192 0L192 34L0 34Z " stroke="rgba(50,50,50,1)" stroke-width="2" fill-opacity="1" fill="#ffffff"></path><g id="SvgjsG1022"><text id="SvgjsText1023" font-family="微软雅黑" text-anchor="middle" font-size="13px" width="172px" fill="#323232" font-weight="400" align="middle" lineHeight="125%" font-style="" opacity="1" y="6.375" transform="rotate(0)"><tspan id="SvgjsTspan1024" dy="16" x="96"><tspan id="SvgjsTspan1025" style="text-decoration:;">_runCodeGenerationJobs()</tspan></tspan></text></g></g><g id="SvgjsG1026"><path id="SvgjsPath1027" d="M142.5 139.5L142.5 219.25L142.5 219.25L142.5 296.4 " stroke="#323232" stroke-width="2" fill="none" marker-end="url(#SvgjsMarker1028)"></path></g><g id="SvgjsG1030" transform="translate(342.5,238)"><path id="SvgjsPath1031" d="M0 0L280 0L296 16L296 158L0 158L0 0Z " stroke="none" fill-opacity="1" fill="#ffe0b2"></path><path id="SvgjsPath1032" d="M280 0L280 16L296 16Z " stroke="none" fill-opacity="1" fill="#cdcdcd"></path><path id="SvgjsPath1033" d="M0 0L280 0L296 16L296 158L0 158L0 0Z " stroke="none" fill="none"></path><g id="SvgjsG1034"><text id="SvgjsText1035" font-family="微软雅黑" text-anchor="start" font-size="13px" width="276px" fill="#323232" font-weight="400" align="middle" lineHeight="125%" font-style="" opacity="1" y="4.375" transform="rotate(0)"><tspan id="SvgjsTspan1036" dy="16" x="10"><tspan id="SvgjsTspan1037" style="text-decoration:;">asyncLib.eachLimit(</tspan></tspan><tspan id="SvgjsTspan1038" dy="16" x="10"><tspan id="SvgjsTspan1039" style="text-decoration:;">    jobs,</tspan></tspan><tspan id="SvgjsTspan1040" dy="16" x="10"><tspan id="SvgjsTspan1041" style="text-decoration:;">    this.options.parallelism,</tspan></tspan><tspan id="SvgjsTspan1042" dy="16" x="10"><tspan id="SvgjsTspan1043" style="text-decoration:;">    (job, callback) =&gt; {</tspan></tspan><tspan id="SvgjsTspan1044" dy="16" x="10"><tspan id="SvgjsTspan1045" style="text-decoration:;">        const { module } = job;</tspan></tspan><tspan id="SvgjsTspan1046" dy="16" x="10"><tspan id="SvgjsTspan1047" style="text-decoration:;">        const { hash, runtime, runtimes } = job;</tspan></tspan><tspan id="SvgjsTspan1048" dy="16" x="10"><tspan id="SvgjsTspan1049" style="text-decoration:;">        this._codeGenerationModule(...)</tspan></tspan><tspan id="SvgjsTspan1050" dy="16" x="10"><tspan id="SvgjsTspan1051" style="text-decoration:;">    }</tspan></tspan><tspan id="SvgjsTspan1052" dy="16" x="10"><tspan id="SvgjsTspan1053" style="text-decoration:;">);</tspan></tspan></text></g></g><g id="SvgjsG1054"><path id="SvgjsPath1055" d="M238.5 317L290.5 317L290.5 317L342.5 317 " stroke-dasharray="8,5" stroke="#323232" stroke-width="2" fill="none" marker-end="url(#SvgjsMarker1056)"></path></g><g id="SvgjsG1058" transform="translate(245.5,287)"><path id="SvgjsPath1059" d="M0 0L81 0L81 30L0 30Z " stroke="none" fill="none"></path><g id="SvgjsG1060"><text id="SvgjsText1061" font-family="微软雅黑" text-anchor="middle" font-size="13px" width="81px" fill="#323232" font-weight="400" align="middle" lineHeight="125%" font-style="" opacity="1" y="4.375" transform="rotate(0)"><tspan id="SvgjsTspan1062" dy="16" x="40.5"><tspan id="SvgjsTspan1063" style="text-decoration:;">核心代码</tspan></tspan></text></g></g><g id="SvgjsG1064" transform="translate(342.5,25)"><path id="SvgjsPath1065" d="M0 0L455 0L471 16L471 197L0 197L0 0Z " stroke="none" fill-opacity="1" fill="#ffe0b2"></path><path id="SvgjsPath1066" d="M455 0L455 16L471 16Z " stroke="none" fill-opacity="1" fill="#cdcdcd"></path><path id="SvgjsPath1067" d="M0 0L455 0L471 16L471 197L0 197L0 0Z " stroke="none" fill="none"></path><g id="SvgjsG1068"><text id="SvgjsText1069" font-family="微软雅黑" text-anchor="start" font-size="13px" width="451px" fill="#323232" font-weight="400" align="middle" lineHeight="125%" font-style="" opacity="1" y="7.875" transform="rotate(0)"><tspan id="SvgjsTspan1070" dy="16" x="10"><tspan id="SvgjsTspan1071" style="text-decoration:;">const jobs = [];</tspan></tspan><tspan id="SvgjsTspan1072" dy="16" x="10"><tspan id="SvgjsTspan1073" style="text-decoration:;">for (const module of this.modules) {</tspan></tspan><tspan id="SvgjsTspan1074" dy="16" x="10"><tspan id="SvgjsTspan1075" style="text-decoration:;">    const runtimes = chunkGraph.getModuleRuntimes(module);</tspan></tspan><tspan id="SvgjsTspan1076" dy="16" x="10"><tspan id="SvgjsTspan1077" style="text-decoration:;">    for (const runtime of runtimes) {</tspan></tspan><tspan id="SvgjsTspan1078" dy="16" x="10"><tspan id="SvgjsTspan1079" style="text-decoration:;">        //...省略runtimes.size&gt;0的逻辑： </tspan></tspan><tspan id="SvgjsTspan1080" dy="16" x="10"><tspan id="SvgjsTspan1081" style="text-decoration:;">        //如果有多个runtime，则取第一个runtime的hash</tspan></tspan><tspan id="SvgjsTspan1082" dy="16" x="10"><tspan id="SvgjsTspan1083" style="text-decoration:;">        const hash = chunkGraph.getModuleHash(module, runtime);</tspan></tspan><tspan id="SvgjsTspan1084" dy="16" x="10"><tspan id="SvgjsTspan1085" style="text-decoration:;">        jobs.push({ module, hash, runtime, runtimes: [runtime] });</tspan></tspan><tspan id="SvgjsTspan1086" dy="16" x="10"><tspan id="SvgjsTspan1087" style="text-decoration:;">    }</tspan></tspan><tspan id="SvgjsTspan1088" dy="16" x="10"><tspan id="SvgjsTspan1089" style="text-decoration:;">}</tspan></tspan><tspan id="SvgjsTspan1090" dy="16" x="10"><tspan id="SvgjsTspan1091" style="text-decoration:;">this._runCodeGenerationJobs(jobs, callback);</tspan></tspan></text></g></g><g id="SvgjsG1092"><path id="SvgjsPath1093" d="M239.5 123.5L290.5 123.5L290.5 123.5L339.9 123.5 " stroke-dasharray="8,5" stroke="#323232" stroke-width="2" fill="none" marker-end="url(#SvgjsMarker1094)"></path></g><g id="SvgjsG1096" transform="translate(245.5,95)"><path id="SvgjsPath1097" d="M0 0L97 0L97 29L0 29Z " stroke="none" fill="none"></path><g id="SvgjsG1098"><text id="SvgjsText1099" font-family="微软雅黑" text-anchor="middle" font-size="13px" width="97px" fill="#323232" font-weight="400" align="middle" lineHeight="125%" font-style="" opacity="1" y="3.875" transform="rotate(0)"><tspan id="SvgjsTspan1100" dy="16" x="48.5"><tspan id="SvgjsTspan1101" style="text-decoration:;">核心代码</tspan></tspan></text></g></g><g id="SvgjsG1102" transform="translate(46.5,475.5)"><path id="SvgjsPath1103" d="M0 0L192 0L192 34L0 34Z " stroke="rgba(50,50,50,1)" stroke-width="2" fill-opacity="1" fill="#ffffff"></path><g id="SvgjsG1104"><text id="SvgjsText1105" font-family="微软雅黑" text-anchor="middle" font-size="13px" width="172px" fill="#323232" font-weight="400" align="middle" lineHeight="125%" font-style="" opacity="1" y="6.375" transform="rotate(0)"><tspan id="SvgjsTspan1106" dy="16" x="96"><tspan id="SvgjsTspan1107" style="text-decoration:;">_codeGenerationModule()</tspan></tspan></text></g></g><g id="SvgjsG1108"><path id="SvgjsPath1109" d="M142.5 335L142.5 404.75L142.5 404.75L142.5 471.9 " stroke="#323232" stroke-width="2" fill="none" marker-end="url(#SvgjsMarker1110)"></path></g><g id="SvgjsG1112" transform="translate(342.5,421.25)"><path id="SvgjsPath1113" d="M0 0L468 0L484 16L484 142.5L0 142.5L0 0Z " stroke="none" fill-opacity="1" fill="#ffe0b2"></path><path id="SvgjsPath1114" d="M468 0L468 16L484 16Z " stroke="none" fill-opacity="1" fill="#cdcdcd"></path><path id="SvgjsPath1115" d="M0 0L468 0L484 16L484 142.5L0 142.5L0 0Z " stroke="none" fill="none"></path><g id="SvgjsG1116"><text id="SvgjsText1117" font-family="微软雅黑" text-anchor="start" font-size="13px" width="464px" fill="#323232" font-weight="400" align="middle" lineHeight="125%" font-style="" opacity="1" y="4.625" transform="rotate(0)"><tspan id="SvgjsTspan1118" dy="16" x="10"><tspan id="SvgjsTspan1119" style="text-decoration:;">this.codeGeneratedModules.add(module);</tspan></tspan><tspan id="SvgjsTspan1120" dy="16" x="10"><tspan id="SvgjsTspan1121" style="text-decoration:;">result = module.codeGeneration({ ..., dependencyTemplates, </tspan></tspan><tspan id="SvgjsTspan1122" dy="16" x="10"><tspan id="SvgjsTspan1123" style="text-decoration:;">codeGenerationResults: results });</tspan></tspan><tspan id="SvgjsTspan1124" dy="16" x="10"><tspan id="SvgjsTspan1125" style="text-decoration:;"> </tspan></tspan><tspan id="SvgjsTspan1126" dy="16" x="10"><tspan id="SvgjsTspan1127" style="text-decoration:;">for (const runtime of runtimes) {</tspan></tspan><tspan id="SvgjsTspan1128" dy="16" x="10"><tspan id="SvgjsTspan1129" style="text-decoration:;">    results.add(module, runtime, result);</tspan></tspan><tspan id="SvgjsTspan1130" dy="16" x="10"><tspan id="SvgjsTspan1131" style="text-decoration:;">}</tspan></tspan><tspan id="SvgjsTspan1132" dy="16" x="10"><tspan id="SvgjsTspan1133" style="text-decoration:;">callback(null, codeGenerated);</tspan></tspan></text></g></g><g id="SvgjsG1134" transform="translate(571,630)"><path id="SvgjsPath1135" d="M0 0L100.5 0L100.5 26L0 26Z " stroke="none" fill="none"></path><g id="SvgjsG1136"><text id="SvgjsText1137" font-family="微软雅黑" text-anchor="middle" font-size="13px" width="101px" fill="#323232" font-weight="400" align="middle" lineHeight="125%" font-style="" opacity="1" y="2.375" transform="rotate(0)"><tspan id="SvgjsTspan1138" dy="16" x="50.5"><tspan id="SvgjsTspan1139" style="text-decoration:;">核心代码</tspan></tspan></text></g></g><g id="SvgjsG1140" transform="translate(25,767)"><path id="SvgjsPath1141" d="M0 0L192 0L192 39L0 39Z " stroke-dasharray="10,6" stroke="rgba(50,50,50,1)" stroke-width="2" fill-opacity="1" fill="#ffffff"></path><g id="SvgjsG1142"><text id="SvgjsText1143" font-family="微软雅黑" text-anchor="middle" font-size="13px" width="172px" fill="#323232" font-weight="400" align="middle" lineHeight="125%" font-style="" opacity="1" y="8.875" transform="rotate(0)"><tspan id="SvgjsTspan1144" dy="16" x="96"><tspan id="SvgjsTspan1145" style="text-decoration:;">this.generator.generate()</tspan></tspan></text></g></g><g id="SvgjsG1146" transform="translate(342.5,653.75)"><path id="SvgjsPath1147" d="M0 0L468 0L484 16L484 265.5L0 265.5L0 0Z " stroke="none" fill-opacity="1" fill="#b2ebf2"></path><path id="SvgjsPath1148" d="M468 0L468 16L484 16Z " stroke="none" fill-opacity="1" fill="#cdcdcd"></path><path id="SvgjsPath1149" d="M0 0L468 0L484 16L484 265.5L0 265.5L0 0Z " stroke="none" fill="none"></path><g id="SvgjsG1150"><text id="SvgjsText1151" font-family="微软雅黑" text-anchor="start" font-size="13px" width="464px" fill="#323232" font-weight="400" align="middle" lineHeight="125%" font-style="" opacity="1" y="10.125" transform="rotate(0)"><tspan id="SvgjsTspan1152" dy="16" x="10"><tspan id="SvgjsTspan1153" style="text-decoration:;">const sources = new Map();</tspan></tspan><tspan id="SvgjsTspan1154" dy="16" x="10"><tspan id="SvgjsTspan1155" style="text-decoration:;">for (const type of sourceTypes || chunkGraph.getModuleSourceTypes(this)) {</tspan></tspan><tspan id="SvgjsTspan1156" dy="16" x="10"><tspan id="SvgjsTspan1157" style="text-decoration:;">    const source = this.generator.generate(this, </tspan></tspan><tspan id="SvgjsTspan1158" dy="16" x="10"><tspan id="SvgjsTspan1159" style="text-decoration:;">        { ..., dependencyTemplates, codeGenerationResults });</tspan></tspan><tspan id="SvgjsTspan1160" dy="16" x="10"><tspan id="SvgjsTspan1161" style="text-decoration:;">        </tspan></tspan><tspan id="SvgjsTspan1162" dy="16" x="10"><tspan id="SvgjsTspan1163" style="text-decoration:;">    if (source) {</tspan></tspan><tspan id="SvgjsTspan1164" dy="16" x="10"><tspan id="SvgjsTspan1165" style="text-decoration:;">        sources.set(type, new CachedSource(source));</tspan></tspan><tspan id="SvgjsTspan1166" dy="16" x="10"><tspan id="SvgjsTspan1167" style="text-decoration:;">    }</tspan></tspan><tspan id="SvgjsTspan1168" dy="16" x="10"><tspan id="SvgjsTspan1169" style="text-decoration:;">}</tspan></tspan><tspan id="SvgjsTspan1170" dy="16" x="10"><tspan id="SvgjsTspan1171" style="text-decoration:;">const resultEntry = {</tspan></tspan><tspan id="SvgjsTspan1172" dy="16" x="10"><tspan id="SvgjsTspan1173" style="text-decoration:;">    sources,</tspan></tspan><tspan id="SvgjsTspan1174" dy="16" x="10"><tspan id="SvgjsTspan1175" style="text-decoration:;">    runtimeRequirements,</tspan></tspan><tspan id="SvgjsTspan1176" dy="16" x="10"><tspan id="SvgjsTspan1177" style="text-decoration:;">    data</tspan></tspan><tspan id="SvgjsTspan1178" dy="16" x="10"><tspan id="SvgjsTspan1179" style="text-decoration:;">};</tspan></tspan><tspan id="SvgjsTspan1180" dy="16" x="10"><tspan id="SvgjsTspan1181" style="text-decoration:;">return resultEntry;</tspan></tspan></text></g></g><g id="SvgjsG1182" transform="translate(482,589)"><path id="SvgjsPath1183" d="M0 0L205 0L205 42L0 42Z " stroke-dasharray="10,6,3,6" stroke="rgba(50,50,50,1)" stroke-width="2" fill-opacity="1" fill="#c8e6c9"></path><g id="SvgjsG1184"><text id="SvgjsText1185" font-family="微软雅黑" text-anchor="middle" font-size="13px" width="185px" fill="#323232" font-weight="400" align="middle" lineHeight="125%" font-style="" opacity="1" y="10.375" transform="rotate(0)"><tspan id="SvgjsTspan1186" dy="16" x="102.5"><tspan id="SvgjsTspan1187" style="text-decoration:;">module.codeGeneration()</tspan></tspan></text></g></g><g id="SvgjsG1188"><path id="SvgjsPath1189" d="M584.5 563.75L584.5 576.375L584.5 576.375L584.5 585.4 " stroke="#323232" stroke-width="2" fill="none" marker-end="url(#SvgjsMarker1190)"></path></g><g id="SvgjsG1192"><path id="SvgjsPath1193" d="M584.5 632L584.5 642.375L584.5 642.375L584.5 651.15 " stroke="#323232" stroke-width="2" fill="none" marker-end="url(#SvgjsMarker1194)"></path></g><g id="SvgjsG1196"><path id="SvgjsPath1197" d="M826.5 786.5L856.5 786.5L856.5 492.5L829.1 492.5 " stroke="#323232" stroke-width="2" fill="none" marker-end="url(#SvgjsMarker1198)"></path></g><g id="SvgjsG1200" transform="translate(773.5,590)"><path id="SvgjsPath1201" d="M0 0L120 0L120 40L0 40Z " stroke="none" fill="none"></path><g id="SvgjsG1202"><text id="SvgjsText1203" font-family="微软雅黑" text-anchor="middle" font-size="16px" width="120px" fill="#ff0000" font-weight="700" align="middle" lineHeight="125%" font-style="" opacity="1" y="6" transform="rotate(0)"><tspan id="SvgjsTspan1204" dy="20" x="60"><tspan id="SvgjsTspan1205" style="text-decoration:;">返回result</tspan></tspan></text></g></g><g id="SvgjsG1206"><path id="SvgjsPath1207" d="M238.5 493.5L290.5 493.5L290.5 493.5L342.5 493.5 " stroke-dasharray="8,5" stroke="#323232" stroke-width="2" fill="none" marker-end="url(#SvgjsMarker1208)"></path></g><g id="SvgjsG1210" transform="translate(242,467)"><path id="SvgjsPath1211" d="M0 0L100.5 0L100.5 26L0 26Z " stroke="none" fill="none"></path><g id="SvgjsG1212"><text id="SvgjsText1213" font-family="微软雅黑" text-anchor="middle" font-size="13px" width="101px" fill="#323232" font-weight="400" align="middle" lineHeight="125%" font-style="" opacity="1" y="2.375" transform="rotate(0)"><tspan id="SvgjsTspan1214" dy="16" x="50.5"><tspan id="SvgjsTspan1215" style="text-decoration:;">核心代码</tspan></tspan></text></g></g><g id="SvgjsG1216" transform="translate(301,970)"><path id="SvgjsPath1217" d="M0 0L301 0L301 106L0 106Z " stroke="rgba(50,50,50,1)" stroke-width="2" fill-opacity="1" fill="#ffffff"></path><g id="SvgjsG1218"><text id="SvgjsText1219" font-family="微软雅黑" text-anchor="start" font-size="13px" width="281px" fill="#323232" font-weight="400" align="middle" lineHeight="125%" font-style="" opacity="1" y="10.375" transform="rotate(0)"><tspan id="SvgjsTspan1220" dy="16" x="10"><tspan id="SvgjsTspan1221" style="text-decoration:;">normalModuleFactory.hooks.createGenerator</tspan></tspan><tspan id="SvgjsTspan1222" dy="16" x="10"><tspan id="SvgjsTspan1223" style="text-decoration:;">    .for("javascript/auto")</tspan></tspan><tspan id="SvgjsTspan1224" dy="16" x="10"><tspan id="SvgjsTspan1225" style="text-decoration:;">    .tap("JavascriptModulesPlugin", () =&gt; {</tspan></tspan><tspan id="SvgjsTspan1226" dy="16" x="10"><tspan id="SvgjsTspan1227" style="text-decoration:;">        return new </tspan><tspan id="SvgjsTspan1228" style="text-decoration:;fill: rgb(255, 0, 0);">JavascriptGenerator</tspan><tspan id="SvgjsTspan1229" style="text-decoration:;">();</tspan></tspan><tspan id="SvgjsTspan1230" dy="16" x="10"><tspan id="SvgjsTspan1231" style="text-decoration:;">    });</tspan></tspan></text></g></g><g id="SvgjsG1232" transform="translate(301,1103)"><path id="SvgjsPath1233" d="M0 0L330 0L330 145L0 145Z " stroke="rgba(50,50,50,1)" stroke-width="2" fill-opacity="1" fill="#ffffff"></path><g id="SvgjsG1234"><text id="SvgjsText1235" font-family="微软雅黑" text-anchor="start" font-size="13px" width="310px" fill="#323232" font-weight="400" align="middle" lineHeight="125%" font-style="" opacity="1" y="5.875" transform="rotate(0)"><tspan id="SvgjsTspan1236" dy="16" x="10"><tspan id="SvgjsTspan1237" style="text-decoration:;">normalModuleFactory.hooks.createGenerator</tspan></tspan><tspan id="SvgjsTspan1238" dy="16" x="10"><tspan id="SvgjsTspan1239" style="text-decoration:;">    .for("css/module")</tspan></tspan><tspan id="SvgjsTspan1240" dy="16" x="10"><tspan id="SvgjsTspan1241" style="text-decoration:;">    .tap(plugin, generatorOptions =&gt; {</tspan></tspan><tspan id="SvgjsTspan1242" dy="16" x="10"><tspan id="SvgjsTspan1243" style="text-decoration:;">        validateGeneratorOptions(generatorOptions);</tspan></tspan><tspan id="SvgjsTspan1244" dy="16" x="10"><tspan id="SvgjsTspan1245" style="text-decoration:;">        return this._exportsOnly</tspan></tspan><tspan id="SvgjsTspan1246" dy="16" x="10"><tspan id="SvgjsTspan1247" style="text-decoration:;">            ? new </tspan><tspan id="SvgjsTspan1248" style="text-decoration:;fill: rgb(255, 0, 0);">CssExportsGenerator</tspan><tspan id="SvgjsTspan1249" style="text-decoration:;">()</tspan></tspan><tspan id="SvgjsTspan1250" dy="16" x="10"><tspan id="SvgjsTspan1251" style="text-decoration:;">            : new </tspan><tspan id="SvgjsTspan1252" style="text-decoration:;fill: rgb(255, 0, 0);">CssGenerator</tspan><tspan id="SvgjsTspan1253" style="text-decoration:;">();</tspan></tspan><tspan id="SvgjsTspan1254" dy="16" x="10"><tspan id="SvgjsTspan1255" style="text-decoration:;">    });</tspan></tspan></text></g></g><g id="SvgjsG1256" transform="translate(185,959)"><path id="SvgjsPath1257" d="M107 0Q98 0 98 9L98 161Q98 170 85 170Q98 170 98 179L98 331Q98 340 107 340 " stroke="rgba(50,50,50,1)" stroke-width="2" fill="none"></path><path id="SvgjsPath1258" d="M0 0L107 0L107 340L0 340Z " stroke="none" fill="none"></path><g id="SvgjsG1259"><text id="SvgjsText1260" font-family="微软雅黑" text-anchor="end" font-size="13px" width="80px" fill="#323232" font-weight="400" align="middle" lineHeight="125%" font-style="" opacity="1" y="159.375" transform="rotate(0)"></text></g></g><g id="SvgjsG1261" transform="translate(301,1270)"><path id="SvgjsPath1262" d="M0 0L270 0L270 37L0 37Z " stroke="rgba(50,50,50,1)" stroke-width="2" fill-opacity="1" fill="#ffffff"></path><g id="SvgjsG1263"><text id="SvgjsText1264" font-family="微软雅黑" text-anchor="middle" font-size="13px" width="250px" fill="#323232" font-weight="400" align="middle" lineHeight="125%" font-style="" opacity="1" y="7.875" transform="rotate(0)"><tspan id="SvgjsTspan1265" dy="16" x="135"><tspan id="SvgjsTspan1266" style="text-decoration:;">.......</tspan></tspan></text></g></g><g id="SvgjsG1267"><path id="SvgjsPath1268" d="M342.5 786.5L279.75 786.5L279.75 786.5L220.6 786.5 " stroke="#323232" stroke-width="2" fill="none" marker-end="url(#SvgjsMarker1269)"></path></g><g id="SvgjsG1271" transform="translate(192,1353)"><path id="SvgjsPath1272" d="M100 0Q91 0 91 9L91 61Q91 70 78 70Q91 70 91 79L91 131Q91 140 100 140 " stroke="rgba(50,50,50,1)" stroke-width="2" fill="none"></path><path id="SvgjsPath1273" d="M0 0L100 0L100 140L0 140Z " stroke="none" fill="none"></path><g id="SvgjsG1274"><text id="SvgjsText1275" font-family="微软雅黑" text-anchor="end" font-size="13px" width="73px" fill="#323232" font-weight="400" align="middle" lineHeight="125%" font-style="" opacity="1" y="59.375" transform="rotate(0)"></text></g></g><g id="SvgjsG1276" transform="translate(301,1348)"><path id="SvgjsPath1277" d="M0 0L270 0L270 37L0 37Z " stroke="rgba(50,50,50,1)" stroke-width="2" fill-opacity="1" fill="#ffffff"></path><g id="SvgjsG1278"><text id="SvgjsText1279" font-family="微软雅黑" text-anchor="middle" font-size="13px" width="250px" fill="#323232" font-weight="400" align="middle" lineHeight="125%" font-style="" opacity="1" y="7.875" transform="rotate(0)"><tspan id="SvgjsTspan1280" dy="16" x="135"><tspan id="SvgjsTspan1281" style="text-decoration:;fill: rgb(255, 0, 0);">JavascriptGenerator</tspan><tspan id="SvgjsTspan1282" style="text-decoration:;">().generate()</tspan></tspan></text></g></g><g id="SvgjsG1283" transform="translate(301,1398.5)"><path id="SvgjsPath1284" d="M0 0L270 0L270 37L0 37Z " stroke="rgba(50,50,50,1)" stroke-width="2" fill-opacity="1" fill="#ffffff"></path><g id="SvgjsG1285"><text id="SvgjsText1286" font-family="微软雅黑" text-anchor="middle" font-size="13px" width="250px" fill="#323232" font-weight="400" align="middle" lineHeight="125%" font-style="" opacity="1" y="7.875" transform="rotate(0)"><tspan id="SvgjsTspan1287" dy="16" x="135"><tspan id="SvgjsTspan1288" style="text-decoration:;fill: rgb(255, 0, 0);">CssExportsGenerator</tspan><tspan id="SvgjsTspan1289" style="text-decoration:;">().generate()</tspan></tspan></text></g></g><g id="SvgjsG1290" transform="translate(305,1456)"><path id="SvgjsPath1291" d="M0 0L270 0L270 37L0 37Z " stroke="rgba(50,50,50,1)" stroke-width="2" fill-opacity="1" fill="#ffffff"></path><g id="SvgjsG1292"><text id="SvgjsText1293" font-family="微软雅黑" text-anchor="middle" font-size="13px" width="250px" fill="#323232" font-weight="400" align="middle" lineHeight="125%" font-style="" opacity="1" y="7.875" transform="rotate(0)"><tspan id="SvgjsTspan1294" dy="16" x="135"><tspan id="SvgjsTspan1295" style="text-decoration:;">.......</tspan></tspan></text></g></g><g id="SvgjsG1296" transform="translate(60.5,1087.5)"><path id="SvgjsPath1297" d="M0 0L201 0L201 83L0 83Z " stroke="rgba(50,50,50,1)" stroke-width="2" fill-opacity="1" fill="#ffffff"></path><g id="SvgjsG1298"><text id="SvgjsText1299" font-family="微软雅黑" text-anchor="start" font-size="13px" width="181px" fill="#323232" font-weight="400" align="middle" lineHeight="125%" font-style="" opacity="1" y="6.875" transform="rotate(0)"><tspan id="SvgjsTspan1300" dy="16" x="10"><tspan id="SvgjsTspan1301" style="text-decoration:;">  const generator = </tspan></tspan><tspan id="SvgjsTspan1302" dy="16" x="10"><tspan id="SvgjsTspan1303" style="text-decoration:;">this.hooks.createGenerator</tspan></tspan><tspan id="SvgjsTspan1304" dy="16" x="10"><tspan id="SvgjsTspan1305" style="text-decoration:;">    .for(type)</tspan></tspan><tspan id="SvgjsTspan1306" dy="16" x="10"><tspan id="SvgjsTspan1307" style="text-decoration:;">    .call(generatorOptions);</tspan></tspan></text></g></g><g id="SvgjsG1308" transform="translate(57.5,1398.5)"><path id="SvgjsPath1309" d="M0 0L207 0L207 46L0 46Z " stroke="rgba(50,50,50,1)" stroke-width="2" fill-opacity="1" fill="#ffffff"></path><g id="SvgjsG1310"><text id="SvgjsText1311" font-family="微软雅黑" text-anchor="middle" font-size="13px" width="187px" fill="#323232" font-weight="400" align="middle" lineHeight="125%" font-style="" opacity="1" y="12.375" transform="rotate(0)"><tspan id="SvgjsTspan1312" dy="16" x="103.5"><tspan id="SvgjsTspan1313" style="text-decoration:;">generator.generate()</tspan></tspan></text></g></g><g id="SvgjsG1314"><path id="SvgjsPath1315" d="M161 1171.5L161 1284.5L161 1284.5L161 1394.9 " stroke="#323232" stroke-width="2" fill="none" marker-end="url(#SvgjsMarker1316)"></path></g><g id="SvgjsG1318"><path id="SvgjsPath1319" d="M121 807L121 877L121 877L121 944.4 " stroke="#323232" stroke-width="2" fill="none" marker-end="url(#SvgjsMarker1320)"></path></g><g id="SvgjsG1322"><path id="SvgjsPath1323" d="M683 1231.5L770.5 1231.5L770.5 921.2968750000001 " stroke="#323232" stroke-width="2" fill="none" marker-end="url(#SvgjsMarker1324)"></path></g><g id="SvgjsG1326" transform="translate(720.5,1023)"><path id="SvgjsPath1327" d="M0 0L120 0L120 40L0 40Z " stroke="none" fill="none"></path><g id="SvgjsG1328"><text id="SvgjsText1329" font-family="微软雅黑" text-anchor="middle" font-size="16px" width="120px" fill="#ff0000" font-weight="700" align="middle" lineHeight="125%" font-style="" opacity="1" y="6" transform="rotate(0)"><tspan id="SvgjsTspan1330" dy="20" x="60"><tspan id="SvgjsTspan1331" style="text-decoration:;">返回source</tspan></tspan></text></g></g><g id="SvgjsG1332" transform="translate(46.5,378.75)"><path id="SvgjsPath1333" d="M0 0L218 0L218 78.25L0 78.25Z " stroke="none" fill="none"></path><g id="SvgjsG1334"><text id="SvgjsText1335" font-family="微软雅黑" text-anchor="middle" font-size="13px" width="218px" fill="#ff0000" font-weight="700" align="middle" lineHeight="125%" font-style="" opacity="1" y="12.5" transform="rotate(0)"><tspan id="SvgjsTspan1336" dy="16" x="109"><tspan id="SvgjsTspan1337" style="text-decoration:;">以module为基础单位，进行module</tspan></tspan><tspan id="SvgjsTspan1338" dy="16" x="109"><tspan id="SvgjsTspan1339" style="text-decoration:;">的代码生成，包括module的同步依</tspan></tspan><tspan id="SvgjsTspan1340" dy="16" x="109"><tspan id="SvgjsTspan1341" style="text-decoration:;">赖、异步依赖和对应的runtimes</tspan></tspan></text></g></g><g id="SvgjsG1342" transform="translate(327,618.5)"><path id="SvgjsPath1343" d="M0 0L249 0L249 62L0 62Z " stroke="none" fill="none"></path><g id="SvgjsG1344"><text id="SvgjsText1345" font-family="微软雅黑" text-anchor="middle" font-size="13px" width="249px" fill="#ff0000" font-weight="700" align="middle" lineHeight="125%" font-style="" opacity="1" y="12.375" transform="rotate(0)"><tspan id="SvgjsTspan1346" dy="16" x="124.5"><tspan id="SvgjsTspan1347" style="text-decoration:;">以module为基础单位，进行module的代码</tspan></tspan><tspan id="SvgjsTspan1348" dy="16" x="124.5"><tspan id="SvgjsTspan1349" style="text-decoration:;">生成，包括module的同步依赖、异步依赖</tspan></tspan></text></g></g></svg>