<svg id="SvgjsSvg1000" xmlns="http://www.w3.org/2000/svg" version="1.1" xmlns:xlink="http://www.w3.org/1999/xlink" xmlns:svgjs="http://svgjs.com/svgjs" width="1411.375" height="880.75"><defs id="SvgjsDefs1001"><marker id="SvgjsMarker1076" markerWidth="14" markerHeight="10" refX="10" refY="5" viewBox="0 0 14 10" orient="auto" markerUnits="userSpaceOnUse" stroke-dasharray="0,0"><path id="SvgjsPath1077" d="M0 0L14 5L0 10L0 0 " fill="#323232" stroke="#323232" stroke-width="1"></path></marker><marker id="SvgjsMarker1101" markerWidth="14" markerHeight="10" refX="10" refY="5" viewBox="0 0 14 10" orient="auto" markerUnits="userSpaceOnUse" stroke-dasharray="0,0"><path id="SvgjsPath1102" d="M0 0L14 5L0 10L0 0 " fill="#323232" stroke="#323232" stroke-width="1"></path></marker><marker id="SvgjsMarker1161" markerWidth="14" markerHeight="10" refX="10" refY="5" viewBox="0 0 14 10" orient="auto" markerUnits="userSpaceOnUse" stroke-dasharray="0,0"><path id="SvgjsPath1162" d="M0 0L14 5L0 10L0 0 " fill="#323232" stroke="#323232" stroke-width="1"></path></marker><marker id="SvgjsMarker1165" markerWidth="14" markerHeight="10" refX="10" refY="5" viewBox="0 0 14 10" orient="auto" markerUnits="userSpaceOnUse" stroke-dasharray="0,0"><path id="SvgjsPath1166" d="M0 0L14 5L0 10L0 0 " fill="#323232" stroke="#323232" stroke-width="1"></path></marker><marker id="SvgjsMarker1169" markerWidth="14" markerHeight="10" refX="10" refY="5" viewBox="0 0 14 10" orient="auto" markerUnits="userSpaceOnUse" stroke-dasharray="0,0"><path id="SvgjsPath1170" d="M0 0L14 5L0 10L0 0 " fill="#323232" stroke="#323232" stroke-width="1"></path></marker><marker id="SvgjsMarker1173" markerWidth="14" markerHeight="10" refX="10" refY="5" viewBox="0 0 14 10" orient="auto" markerUnits="userSpaceOnUse" stroke-dasharray="0,0"><path id="SvgjsPath1174" d="M0 0L14 5L0 10L0 0 " fill="#323232" stroke="#323232" stroke-width="1"></path></marker><marker id="SvgjsMarker1201" markerWidth="14" markerHeight="10" refX="10" refY="5" viewBox="0 0 14 10" orient="auto" markerUnits="userSpaceOnUse" stroke-dasharray="0,0"><path id="SvgjsPath1202" d="M0 0L14 5L0 10L0 0 " fill="#323232" stroke="#323232" stroke-width="1"></path></marker><marker id="SvgjsMarker1205" markerWidth="14" markerHeight="10" refX="10" refY="5" viewBox="0 0 14 10" orient="auto" markerUnits="userSpaceOnUse" stroke-dasharray="0,0"><path id="SvgjsPath1206" d="M0 0L14 5L0 10L0 0 " fill="#323232" stroke="#323232" stroke-width="1"></path></marker><marker id="SvgjsMarker1209" markerWidth="14" markerHeight="10" refX="10" refY="5" viewBox="0 0 14 10" orient="auto" markerUnits="userSpaceOnUse" stroke-dasharray="0,0"><path id="SvgjsPath1210" d="M0 0L14 5L0 10L0 0 " fill="#323232" stroke="#323232" stroke-width="1"></path></marker><marker id="SvgjsMarker1266" markerWidth="14" markerHeight="10" refX="10" refY="5" viewBox="0 0 14 10" orient="auto" markerUnits="userSpaceOnUse" stroke-dasharray="0,0"><path id="SvgjsPath1267" d="M0 0L14 5L0 10L0 0 " fill="#323232" stroke="#323232" stroke-width="1"></path></marker><marker id="SvgjsMarker1270" markerWidth="14" markerHeight="10" refX="10" refY="5" viewBox="0 0 14 10" orient="auto" markerUnits="userSpaceOnUse" stroke-dasharray="0,0"><path id="SvgjsPath1271" d="M0 0L14 5L0 10L0 0 " fill="#323232" stroke="#323232" stroke-width="1"></path></marker><marker id="SvgjsMarker1302" markerWidth="14" markerHeight="10" refX="10" refY="5" viewBox="0 0 14 10" orient="auto" markerUnits="userSpaceOnUse" stroke-dasharray="0,0"><path id="SvgjsPath1303" d="M0 0L14 5L0 10L0 0 " fill="#323232" stroke="#323232" stroke-width="1"></path></marker><marker id="SvgjsMarker1306" markerWidth="14" markerHeight="10" refX="10" refY="5" viewBox="0 0 14 10" orient="auto" markerUnits="userSpaceOnUse" stroke-dasharray="0,0"><path id="SvgjsPath1307" d="M0 0L14 5L0 10L0 0 " fill="#323232" stroke="#323232" stroke-width="1"></path></marker><marker id="SvgjsMarker1324" markerWidth="14" markerHeight="10" refX="10" refY="5" viewBox="0 0 14 10" orient="auto" markerUnits="userSpaceOnUse" stroke-dasharray="0,0"><path id="SvgjsPath1325" d="M0 0L14 5L0 10L0 0 " fill="#323232" stroke="#323232" stroke-width="1"></path></marker><marker id="SvgjsMarker1328" markerWidth="14" markerHeight="10" refX="10" refY="5" viewBox="0 0 14 10" orient="auto" markerUnits="userSpaceOnUse" stroke-dasharray="0,0"><path id="SvgjsPath1329" d="M0 0L14 5L0 10L0 0 " fill="#323232" stroke="#323232" stroke-width="1"></path></marker></defs><g id="svgbackgroundid"><defs></defs><rect id="SvgjsRect1008" width="1411.375" height="880.75" fill="#ffffff"></rect></g><g id="SvgjsG1010" transform="translate(219.875,306)"><path id="SvgjsPath1011" d="M0 0L205 0L205 56.5L0 56.5Z " stroke="rgba(50,50,50,1)" stroke-width="2" fill-opacity="1" fill="#ffcdd2"></path><g id="SvgjsG1012"><text id="SvgjsText1013" font-family="微软雅黑" text-anchor="middle" font-size="13px" width="185px" fill="#323232" font-weight="400" align="middle" lineHeight="125%" font-style="" opacity="1" y="17.625" transform="rotate(0)"><tspan id="SvgjsTspan1014" dy="16" x="102.5"><tspan id="SvgjsTspan1015" style="text-decoration:;font-size: inherit;">createComponent()</tspan></tspan></text></g></g><g id="SvgjsG1016" transform="translate(469.375,225.875)"><path id="SvgjsPath1017" d="M0 0L205 0L205 47L0 47Z " stroke="rgba(50,50,50,1)" stroke-width="2" fill-opacity="1" fill="#ffffff"></path><g id="SvgjsG1018"><text id="SvgjsText1019" font-family="微软雅黑" text-anchor="start" font-size="13px" width="185px" fill="#323232" font-weight="400" align="middle" lineHeight="125%" font-style="" opacity="1" y="4.875" transform="rotate(0)"><tspan id="SvgjsTspan1020" dy="16" x="10"><tspan id="SvgjsTspan1021" style="text-decoration:;">vnode.data.i()本质就是</tspan></tspan><tspan id="SvgjsTspan1022" dy="16" x="10"><tspan id="SvgjsTspan1023" style="text-decoration:;">componentVNodeHooks.init()</tspan></tspan></text></g></g><g id="SvgjsG1024" transform="translate(714.375,139.75)"><path id="SvgjsPath1025" d="M0 0L200 0L200 55L0 55Z " stroke="rgba(50,50,50,1)" stroke-width="2" fill-opacity="1" fill="#ffffff"></path><g id="SvgjsG1026"><text id="SvgjsText1027" font-family="微软雅黑" text-anchor="middle" font-size="13px" width="180px" fill="#323232" font-weight="400" align="middle" lineHeight="125%" font-style="" opacity="1" y="0.875" transform="rotate(0)"><tspan id="SvgjsTspan1028" dy="16" x="100"><tspan id="SvgjsTspan1029" style="text-decoration:;">const child = </tspan></tspan><tspan id="SvgjsTspan1030" dy="16" x="100"><tspan id="SvgjsTspan1031" style="text-decoration:;">createComponentInstanceFor</tspan></tspan><tspan id="SvgjsTspan1032" dy="16" x="100"><tspan id="SvgjsTspan1033" style="text-decoration:;">Vnode()</tspan></tspan></text></g></g><g id="SvgjsG1034" transform="translate(719.375,334.75)"><path id="SvgjsPath1035" d="M0 0L190 0L190 42L0 42Z " stroke="rgba(50,50,50,1)" stroke-width="2" fill-opacity="1" fill="#ffffff"></path><g id="SvgjsG1036"><text id="SvgjsText1037" font-family="微软雅黑" text-anchor="middle" font-size="13px" width="170px" fill="#323232" font-weight="400" align="middle" lineHeight="125%" font-style="" opacity="1" y="10.375" transform="rotate(0)"><tspan id="SvgjsTspan1038" dy="16" x="95"><tspan id="SvgjsTspan1039" style="text-decoration:;">child.$mount()</tspan></tspan></text></g></g><g id="SvgjsG1040" transform="translate(609.875,139.75)"><path id="SvgjsPath1041" d="M97.5 0Q88.5 0 88.5 9L88.5 110.75Q88.5 119.75 75.5 119.75Q88.5 119.75 88.5 128.75L88.5 230.5Q88.5 239.5 97.5 239.5 " stroke="rgba(50,50,50,1)" stroke-width="2" fill="none"></path><path id="SvgjsPath1042" d="M0 0L97.5 0L97.5 239.5L0 239.5Z " stroke="none" fill="none"></path><g id="SvgjsG1043"><text id="SvgjsText1044" font-family="微软雅黑" text-anchor="end" font-size="13px" width="71px" fill="#323232" font-weight="400" align="middle" lineHeight="125%" font-style="" opacity="1" y="109.125" transform="rotate(0)"></text></g></g><g id="SvgjsG1045" transform="translate(950.875,79.75)"><path id="SvgjsPath1046" d="M0 0L214 0L214 113L0 113Z " stroke="rgba(50,50,50,1)" stroke-width="2" fill-opacity="1" fill="#ffffff"></path><g id="SvgjsG1047"><text id="SvgjsText1048" font-family="微软雅黑" text-anchor="start" font-size="13px" width="194px" fill="#323232" font-weight="400" align="middle" lineHeight="125%" font-style="" opacity="1" y="5.875" transform="rotate(0)"><tspan id="SvgjsTspan1049" dy="16" x="10"><tspan id="SvgjsTspan1050" style="text-decoration:;">return new </tspan></tspan><tspan id="SvgjsTspan1051" dy="16" x="10"><tspan id="SvgjsTspan1052" style="text-decoration:;">vnode.componentOptions.Ctor({ </tspan></tspan><tspan id="SvgjsTspan1053" dy="16" x="10"><tspan id="SvgjsTspan1054" style="text-decoration:;">.   _isComponent: true,</tspan></tspan><tspan id="SvgjsTspan1055" dy="16" x="10"><tspan id="SvgjsTspan1056" style="text-decoration:;">    _parentVnode: vnode,</tspan></tspan><tspan id="SvgjsTspan1057" dy="16" x="10"><tspan id="SvgjsTspan1058" style="text-decoration:;">    parent</tspan></tspan><tspan id="SvgjsTspan1059" dy="16" x="10"><tspan id="SvgjsTspan1060" style="text-decoration:;">})</tspan></tspan></text></g></g><g id="SvgjsG1061" transform="translate(839.875,82)"><path id="SvgjsPath1062" d="M103 0Q94 0 94 9L94 90.25Q94 99.25 81 99.25Q94 99.25 94 108.25L94 189.5Q94 198.5 103 198.5 " stroke="rgba(50,50,50,1)" stroke-width="2" fill="none"></path><path id="SvgjsPath1063" d="M0 0L103 0L103 198.5L0 198.5Z " stroke="none" fill="none"></path><g id="SvgjsG1064"><text id="SvgjsText1065" font-family="微软雅黑" text-anchor="end" font-size="13px" width="76px" fill="#323232" font-weight="400" align="middle" lineHeight="125%" font-style="" opacity="1" y="88.625" transform="rotate(0)"></text></g></g><g id="SvgjsG1066" transform="translate(950.875,211.75)"><path id="SvgjsPath1067" d="M0 0L214 0L214 51L0 51Z " stroke="rgba(50,50,50,1)" stroke-width="2" fill-opacity="1" fill="#ffffff"></path><g id="SvgjsG1068"><text id="SvgjsText1069" font-family="微软雅黑" text-anchor="middle" font-size="13px" width="194px" fill="#323232" font-weight="400" align="middle" lineHeight="125%" font-style="" opacity="1" y="6.875" transform="rotate(0)"><tspan id="SvgjsTspan1070" dy="16" x="107"><tspan id="SvgjsTspan1071" style="text-decoration:;">new Ctor()的同时，会触发内部的</tspan></tspan><tspan id="SvgjsTspan1072" dy="16" x="107"><tspan id="SvgjsTspan1073" style="text-decoration:;">_init()方法：Vue.prototype._init</tspan></tspan></text></g></g><g id="SvgjsG1074"><path id="SvgjsPath1075" d="M1057.875 193.75L1057.875 202.25L1057.875 202.25L1057.875 208.15 " stroke="#323232" stroke-width="2" fill="none" marker-end="url(#SvgjsMarker1076)"></path></g><g id="SvgjsG1078" transform="translate(841.375,285.75)"><path id="SvgjsPath1079" d="M100 0Q91 0 91 9L91 61Q91 70 78 70Q91 70 91 79L91 131Q91 140 100 140 " stroke="rgba(50,50,50,1)" stroke-width="2" fill="none"></path><path id="SvgjsPath1080" d="M0 0L100 0L100 140L0 140Z " stroke="none" fill="none"></path><g id="SvgjsG1081"><text id="SvgjsText1082" font-family="微软雅黑" text-anchor="end" font-size="13px" width="73px" fill="#323232" font-weight="400" align="middle" lineHeight="125%" font-style="" opacity="1" y="59.375" transform="rotate(0)"></text></g></g><g id="SvgjsG1083" transform="translate(957.875,285.75)"><path id="SvgjsPath1084" d="M0 0L200 0L200 36L0 36Z " stroke="rgba(50,50,50,1)" stroke-width="2" fill-opacity="1" fill="#ffffff"></path><g id="SvgjsG1085"><text id="SvgjsText1086" font-family="微软雅黑" text-anchor="middle" font-size="13px" width="180px" fill="#323232" font-weight="400" align="middle" lineHeight="125%" font-style="" opacity="1" y="7.375" transform="rotate(0)"><tspan id="SvgjsTspan1087" dy="16" x="100"><tspan id="SvgjsTspan1088" style="text-decoration:;">mountComponent()</tspan></tspan></text></g></g><g id="SvgjsG1089" transform="translate(960.375,364.75)"><path id="SvgjsPath1090" d="M0 0L195 0L195 61L0 61Z " stroke="rgba(50,50,50,1)" stroke-width="2" fill-opacity="1" fill="#ffcdd2"></path><g id="SvgjsG1091"><text id="SvgjsText1092" font-family="微软雅黑" text-anchor="start" font-size="13px" width="175px" fill="#323232" font-weight="400" align="middle" lineHeight="125%" font-style="" opacity="1" y="3.875" transform="rotate(0)"><tspan id="SvgjsTspan1093" dy="16" x="10"><tspan id="SvgjsTspan1094" style="text-decoration:;">1. 注册new Watcher监听</tspan></tspan><tspan id="SvgjsTspan1095" dy="16" x="10"><tspan id="SvgjsTspan1096" style="text-decoration:;">2.  vm._update(vm._render(), </tspan></tspan><tspan id="SvgjsTspan1097" dy="16" x="10"><tspan id="SvgjsTspan1098" style="text-decoration:;">hydrating)</tspan></tspan></text></g></g><g id="SvgjsG1099"><path id="SvgjsPath1100" d="M1057.875 322.75L1057.875 343.25L1057.875 343.25L1057.875 361.15 " stroke="#323232" stroke-width="2" fill="none" marker-end="url(#SvgjsMarker1101)"></path></g><g id="SvgjsG1103" transform="translate(31.374999999999993,484.25)"><path id="SvgjsPath1104" d="M0 0L141 0L141 34L0 34Z " stroke="rgba(50,50,50,1)" stroke-width="2" fill-opacity="1" fill="#ffffff"></path><g id="SvgjsG1105"><text id="SvgjsText1106" font-family="微软雅黑" text-anchor="middle" font-size="13px" width="121px" fill="#323232" font-weight="400" align="middle" lineHeight="125%" font-style="" opacity="1" y="6.375" transform="rotate(0)"><tspan id="SvgjsTspan1107" dy="16" x="70.5"><tspan id="SvgjsTspan1108" style="text-decoration:;"> createElm()</tspan></tspan></text></g></g><g id="SvgjsG1109" transform="translate(101.375,285.75)"><path id="SvgjsPath1110" d="M114 0Q105 0 105 9L105 204.39248813044048Q105 213.39248813044048 92 213.39248813044048Q105 213.39248813044048 105 222.39248813044048L105 417.78497626088097Q105 426.78497626088097 114 426.78497626088097 " stroke="rgba(50,50,50,1)" stroke-width="2" fill="none"></path><path id="SvgjsPath1111" d="M0 0L114 0L114 426.78497626088097L0 426.78497626088097Z " stroke="none" fill="none"></path><g id="SvgjsG1112"><text id="SvgjsText1113" font-family="微软雅黑" text-anchor="end" font-size="13px" width="87px" fill="#323232" font-weight="400" align="middle" lineHeight="125%" font-style="" opacity="1" y="202.76748813044048" transform="rotate(0)"></text></g></g><g id="SvgjsG1114" transform="translate(219.875,633.75)"><path id="SvgjsPath1115" d="M0 0L137.5 0L137.5 58.5L0 58.5Z " stroke="rgba(50,50,50,1)" stroke-width="2" fill-opacity="1" fill="#ffcdd2"></path><g id="SvgjsG1116"><text id="SvgjsText1117" font-family="微软雅黑" text-anchor="middle" font-size="13px" width="118px" fill="#000000" font-weight="400" align="middle" lineHeight="125%" font-style="" opacity="1" y="2.625" transform="rotate(0)"><tspan id="SvgjsTspan1118" dy="16" x="69"><tspan id="SvgjsTspan1119" style="text-decoration:;">无法</tspan></tspan><tspan id="SvgjsTspan1120" dy="16" x="69"><tspan id="SvgjsTspan1121" style="text-decoration:;">createComponent()</tspan></tspan><tspan id="SvgjsTspan1122" dy="16" x="69"><tspan id="SvgjsTspan1123" style="text-decoration:;">时触发一系列流程</tspan></tspan></text></g></g><g id="SvgjsG1124" transform="translate(289.375,511.75)"><path id="SvgjsPath1125" d="M105.75 0Q96.75 0 96.75 9L96.75 143Q96.75 152 83.75 152Q96.75 152 96.75 161L96.75 295Q96.75 304 105.75 304 " stroke="rgba(50,50,50,1)" stroke-width="2" fill="none"></path><path id="SvgjsPath1126" d="M0 0L105.75 0L105.75 304L0 304Z " stroke="none" fill="none"></path><g id="SvgjsG1127"><text id="SvgjsText1128" font-family="微软雅黑" text-anchor="end" font-size="13px" width="79px" fill="#323232" font-weight="400" align="middle" lineHeight="125%" font-style="" opacity="1" y="141.375" transform="rotate(0)"></text></g></g><g id="SvgjsG1129" transform="translate(404.375,518.25)"><path id="SvgjsPath1130" d="M0 0L256 0L256 40.5L0 40.5Z " stroke="rgba(50,50,50,1)" stroke-width="2" fill-opacity="1" fill="#ffffff"></path><g id="SvgjsG1131"><text id="SvgjsText1132" font-family="微软雅黑" text-anchor="middle" font-size="13px" width="236px" fill="#323232" font-weight="400" align="middle" lineHeight="125%" font-style="" opacity="1" y="9.625" transform="rotate(0)"><tspan id="SvgjsTspan1133" dy="16" x="128"><tspan id="SvgjsTspan1134" style="text-decoration:;">vnode.elm=nodeOps.createElement</tspan></tspan></text></g></g><g id="SvgjsG1135" transform="translate(406.375,581.25)"><path id="SvgjsPath1136" d="M0 0L252 0L252 39L0 39Z " stroke="rgba(50,50,50,1)" stroke-width="2" fill-opacity="1" fill="#ffffff"></path><g id="SvgjsG1137"><text id="SvgjsText1138" font-family="微软雅黑" text-anchor="middle" font-size="13px" width="232px" fill="#323232" font-weight="400" align="middle" lineHeight="125%" font-style="" opacity="1" y="0.875" transform="rotate(0)"><tspan id="SvgjsTspan1139" dy="16" x="126"><tspan id="SvgjsTspan1140" style="text-decoration:;">createChildren()：将目前的vnode.elm</tspan></tspan><tspan id="SvgjsTspan1141" dy="16" x="126"><tspan id="SvgjsTspan1142" style="text-decoration:;">作为parentElm</tspan></tspan></text></g></g><g id="SvgjsG1143" transform="translate(406.375,654.5)"><path id="SvgjsPath1144" d="M0 0L331 0L331 63.5L0 63.5Z " stroke="rgba(50,50,50,1)" stroke-width="2" fill-opacity="1" fill="#ffffff"></path><g id="SvgjsG1145"><text id="SvgjsText1146" font-family="微软雅黑" text-anchor="start" font-size="13px" width="311px" fill="#323232" font-weight="400" align="middle" lineHeight="125%" font-style="" opacity="1" y="13.125" transform="rotate(0)"><tspan id="SvgjsTspan1147" dy="16" x="10"><tspan id="SvgjsTspan1148" style="text-decoration:;">invokeCreateHooks()：调用之前注册的create hooks</tspan></tspan><tspan id="SvgjsTspan1149" dy="16" x="10"><tspan id="SvgjsTspan1150" style="text-decoration:;">// vue/src/core/vdom/create-component.js</tspan></tspan></text></g></g><g id="SvgjsG1151" transform="translate(406.375,756.8214285714287)"><path id="SvgjsPath1152" d="M0 0L331 0L331 58.92857142857133L0 58.92857142857133Z " stroke="rgba(50,50,50,1)" stroke-width="2" fill-opacity="1" fill="#c8e6c9"></path><g id="SvgjsG1153"><text id="SvgjsText1154" font-family="微软雅黑" text-anchor="start" font-size="16px" width="311px" fill="#323232" font-weight="400" align="middle" lineHeight="125%" font-style="" opacity="1" y="5.464285714285666" transform="rotate(0)"><tspan id="SvgjsTspan1155" dy="20" x="10"><tspan id="SvgjsTspan1156" style="text-decoration:;">insert(parentElm, vnode.elm, refElm)：</tspan></tspan><tspan id="SvgjsTspan1157" dy="20" x="10"><tspan id="SvgjsTspan1158" style="text-decoration:;">将vnode.elm插入到refElm真实DOM前面</tspan></tspan></text></g></g><g id="SvgjsG1159"><path id="SvgjsPath1160" d="M532.375 559.75L532.375 571L532.375 571L532.375 579.65 " stroke="#323232" stroke-width="2" fill="none" marker-end="url(#SvgjsMarker1161)"></path></g><g id="SvgjsG1163"><path id="SvgjsPath1164" d="M532.375 623.25L532.375 633.375L571.875 633.375L571.875 650.9 " stroke="#323232" stroke-width="2" fill="none" marker-end="url(#SvgjsMarker1165)"></path></g><g id="SvgjsG1167"><path id="SvgjsPath1168" d="M571.875 719L571.875 737.4107142857143L571.875 737.4107142857143L571.875 753.2214285714286 " stroke="#323232" stroke-width="2" fill="none" marker-end="url(#SvgjsMarker1169)"></path></g><g id="SvgjsG1171"><path id="SvgjsPath1172" d="M659.375 602.75L765.375 602.75L765.375 835.25L101.87499999999999 835.25L101.87499999999999 521.85 " stroke="#323232" stroke-width="2" fill="none" marker-end="url(#SvgjsMarker1173)"></path><rect id="SvgjsRect1175" width="282" height="16" x="305.1749999999999" y="827.25" fill="#ffffff"></rect><text id="SvgjsText1176" font-family="微软雅黑" text-anchor="middle" font-size="13px" width="282px" fill="#323232" font-weight="400" align="top" lineHeight="16px" font-style="" opacity="1" y="824.625" transform="rotate(0)"><tspan id="SvgjsTspan1177" dy="16" x="446.1749999999999"><tspan id="SvgjsTspan1178" style="text-decoration:;">children不断调用createElm进行DOM的插入操作</tspan></tspan></text></g><g id="SvgjsG1179" transform="translate(51.875,24.99999999999997)"><path id="SvgjsPath1180" d="M16.666666666666668 0L83.33333333333333 0C105.55555555555556 0 105.55555555555556 50 83.33333333333333 50L16.666666666666668 50C-5.555555555555556 50 -5.555555555555556 0 16.666666666666668 0Z " stroke="rgba(50,50,50,1)" stroke-width="2" fill-opacity="1" fill="#ffffff"></path><g id="SvgjsG1181"><text id="SvgjsText1182" font-family="微软雅黑" text-anchor="middle" font-size="13px" width="80px" fill="#323232" font-weight="400" align="middle" lineHeight="125%" font-style="" opacity="1" y="14.375" transform="rotate(0)"><tspan id="SvgjsTspan1183" dy="16" x="50"><tspan id="SvgjsTspan1184" style="text-decoration:;">vm._update()</tspan></tspan></text></g></g><g id="SvgjsG1185" transform="translate(25.000000000000007,259.75)"><path id="SvgjsPath1186" d="M0 0L153.75 0L153.75 88L0 88Z " stroke="rgba(50,50,50,1)" stroke-width="2" fill-opacity="1" fill="#ffffff"></path><g id="SvgjsG1187"><text id="SvgjsText1188" font-family="微软雅黑" text-anchor="start" font-size="13px" width="134px" fill="#323232" font-weight="400" align="middle" lineHeight="125%" font-style="" opacity="1" y="1.375" transform="rotate(0)"><tspan id="SvgjsTspan1189" dy="16" x="10"><tspan id="SvgjsTspan1190" style="text-decoration:;">分为3类条件执行：</tspan></tspan><tspan id="SvgjsTspan1191" dy="16" x="10"><tspan id="SvgjsTspan1192" style="text-decoration:;">1. 直接createElm</tspan></tspan><tspan id="SvgjsTspan1193" dy="16" x="10"><tspan id="SvgjsTspan1194" style="text-decoration:;">2. 进行patchVnode()</tspan></tspan><tspan id="SvgjsTspan1195" dy="16" x="10"><tspan id="SvgjsTspan1196" style="text-decoration:;">3. 先createElm，再删</tspan></tspan><tspan id="SvgjsTspan1197" dy="16" x="10"><tspan id="SvgjsTspan1198" style="text-decoration:;">除旧的数据</tspan></tspan></text></g></g><g id="SvgjsG1199"><path id="SvgjsPath1200" d="M101.875 75.99999999999997L101.875 167.375L101.875 167.375L101.875 256.15 " stroke="#323232" stroke-width="2" fill="none" marker-end="url(#SvgjsMarker1201)"></path></g><g id="SvgjsG1203"><path id="SvgjsPath1204" d="M101.875 348.75L101.875 416L101.87499999999999 416L101.87499999999999 480.65 " stroke="#323232" stroke-width="2" fill="none" marker-end="url(#SvgjsMarker1205)"></path></g><g id="SvgjsG1207"><path id="SvgjsPath1208" d="M1156.375 395.25L1185.375 395.25L1185.375 49.99999999999997L155.475 49.99999999999997 " stroke="#323232" stroke-width="2" fill="none" marker-end="url(#SvgjsMarker1209)"></path><rect id="SvgjsRect1211" width="238" height="16" x="738.5499999999998" y="41.99999999999997" fill="#ffffff"></rect><text id="SvgjsText1212" font-family="微软雅黑" text-anchor="middle" font-size="13px" width="238px" fill="#323232" font-weight="400" align="top" lineHeight="16px" font-style="" opacity="1" y="39.37499999999997" transform="rotate(0)"><tspan id="SvgjsTspan1213" dy="16" x="857.5499999999998"><tspan id="SvgjsTspan1214" style="text-decoration:;">Component里面的元素触发vm._update()</tspan></tspan></text></g><g id="SvgjsG1215" transform="translate(480.625,401.92079567199954)"><path id="SvgjsPath1216" d="M0 0L182.5 0L182.5 82.32920432800046L0 82.32920432800046Z " stroke="rgba(50,50,50,1)" stroke-width="2" fill-opacity="1" fill="#c8e6c9"></path><g id="SvgjsG1217"><text id="SvgjsText1218" font-family="微软雅黑" text-anchor="start" font-size="14px" width="163px" fill="#323232" font-weight="400" align="middle" lineHeight="125%" font-style="" opacity="1" y="4.414602164000229" transform="rotate(0)"><tspan id="SvgjsTspan1219" dy="17" x="10"><tspan id="SvgjsTspan1220" style="text-decoration:;">insert(parentElm, </tspan></tspan><tspan id="SvgjsTspan1221" dy="17" x="10"><tspan id="SvgjsTspan1222" style="text-decoration:;">vnode.elm, refElm)：往</tspan></tspan><tspan id="SvgjsTspan1223" dy="17" x="10"><tspan id="SvgjsTspan1224" style="text-decoration:;">parentElm/body元素中插</tspan></tspan><tspan id="SvgjsTspan1225" dy="17" x="10"><tspan id="SvgjsTspan1226" style="text-decoration:;">入vnode.elm</tspan></tspan></text></g></g><g id="SvgjsG1227" transform="translate(357.375,211.75)"><path id="SvgjsPath1228" d="M101 0Q92 0 92 9L92 121Q92 130 79 130Q92 130 92 139L92 251Q92 260 101 260 " stroke="rgba(50,50,50,1)" stroke-width="2" fill="none"></path><path id="SvgjsPath1229" d="M0 0L101 0L101 260L0 260Z " stroke="none" fill="none"></path><g id="SvgjsG1230"><text id="SvgjsText1231" font-family="微软雅黑" text-anchor="end" font-size="13px" width="74px" fill="#323232" font-weight="400" align="middle" lineHeight="125%" font-style="" opacity="1" y="119.375" transform="rotate(0)"></text></g></g><g id="SvgjsG1232" transform="translate(965.375,497.25)"><path id="SvgjsPath1233" d="M0 0L169 0L185 16L185 100L0 100L0 0Z " stroke="none" fill-opacity="1" fill="#fff9c4"></path><path id="SvgjsPath1234" d="M169 0L169 16L185 16Z " stroke="none" fill-opacity="1" fill="#cdcdcd"></path><path id="SvgjsPath1235" d="M0 0L169 0L185 16L185 100L0 100L0 0Z " stroke="none" fill="none"></path><g id="SvgjsG1236"><text id="SvgjsText1237" font-family="微软雅黑" text-anchor="start" font-size="13px" width="165px" fill="#323232" font-weight="400" align="middle" lineHeight="125%" font-style="" opacity="1" y="7.375" transform="rotate(0)"><tspan id="SvgjsTspan1238" dy="16" x="10"><tspan id="SvgjsTspan1239" style="text-decoration:;">之前是触发组件的parent的</tspan></tspan><tspan id="SvgjsTspan1240" dy="16" x="10"><tspan id="SvgjsTspan1241" style="text-decoration:;">渲染，这个时候是触发</tspan></tspan><tspan id="SvgjsTspan1242" dy="16" x="10"><tspan id="SvgjsTspan1243" style="text-decoration:;">parent中组件里面自身的渲</tspan></tspan><tspan id="SvgjsTspan1244" dy="16" x="10"><tspan id="SvgjsTspan1245" style="text-decoration:;">染，也就是下一级的渲染，</tspan></tspan><tspan id="SvgjsTspan1246" dy="16" x="10"><tspan id="SvgjsTspan1247" style="text-decoration:;">递归渲染</tspan></tspan></text></g></g><g id="SvgjsG1248" transform="translate(1201.375,65.25)"><path id="SvgjsPath1249" d="M0 0L169 0L185 16L185 142L0 142L0 0Z " stroke="none" fill-opacity="1" fill="#fff9c4"></path><path id="SvgjsPath1250" d="M169 0L169 16L185 16Z " stroke="none" fill-opacity="1" fill="#cdcdcd"></path><path id="SvgjsPath1251" d="M0 0L169 0L185 16L185 142L0 142L0 0Z " stroke="none" fill="none"></path><g id="SvgjsG1252"><text id="SvgjsText1253" font-family="微软雅黑" text-anchor="start" font-size="13px" width="165px" fill="#323232" font-weight="400" align="middle" lineHeight="125%" font-style="" opacity="1" y="28.375" transform="rotate(0)"><tspan id="SvgjsTspan1254" dy="16" x="10"><tspan id="SvgjsTspan1255" style="text-decoration:;">子组件的构造函数</tspan></tspan><tspan id="SvgjsTspan1256" dy="16" x="10"><tspan id="SvgjsTspan1257" style="text-decoration:;">  const Sub = function </tspan></tspan><tspan id="SvgjsTspan1258" dy="16" x="10"><tspan id="SvgjsTspan1259" style="text-decoration:;">VueComponent (options) {</tspan></tspan><tspan id="SvgjsTspan1260" dy="16" x="10"><tspan id="SvgjsTspan1261" style="text-decoration:;">    this._init(options)</tspan></tspan><tspan id="SvgjsTspan1262" dy="16" x="10"><tspan id="SvgjsTspan1263" style="text-decoration:;">  }</tspan></tspan></text></g></g><g id="SvgjsG1264"><path id="SvgjsPath1265" d="M1201.375 136.25L1183.125 136.25L1183.125 136.25L1168.475 136.25 " stroke="#323232" stroke-width="2" fill="none" marker-end="url(#SvgjsMarker1266)"></path></g><g id="SvgjsG1268"><path id="SvgjsPath1269" d="M814.375 195.75L814.375 264.75L814.375 264.75L814.375 331.15 " stroke="#323232" stroke-width="2" fill="none" marker-end="url(#SvgjsMarker1270)"></path></g><g id="SvgjsG1272" transform="translate(1201.375,225.875)"><path id="SvgjsPath1273" d="M0 0L164 0L180 16L180 202.375L0 202.375L0 0Z " stroke="none" fill-opacity="1" fill="#fff9c4"></path><path id="SvgjsPath1274" d="M164 0L164 16L180 16Z " stroke="none" fill-opacity="1" fill="#cdcdcd"></path><path id="SvgjsPath1275" d="M0 0L164 0L180 16L180 202.375L0 202.375L0 0Z " stroke="none" fill="none"></path><g id="SvgjsG1276"><text id="SvgjsText1277" font-family="微软雅黑" text-anchor="start" font-size="13px" width="160px" fill="#323232" font-weight="400" align="middle" lineHeight="125%" font-style="" opacity="1" y="10.5625" transform="rotate(0)"><tspan id="SvgjsTspan1278" dy="16" x="10"><tspan id="SvgjsTspan1279" style="text-decoration:;">1. initInternalComponent()</tspan></tspan><tspan id="SvgjsTspan1280" dy="16" x="10"><tspan id="SvgjsTspan1281" style="text-decoration:;">2. 初始化生命周期</tspan></tspan><tspan id="SvgjsTspan1282" dy="16" x="10"><tspan id="SvgjsTspan1283" style="text-decoration:;">3. 初始化event</tspan></tspan><tspan id="SvgjsTspan1284" dy="16" x="10"><tspan id="SvgjsTspan1285" style="text-decoration:;">4. 初始化createElement等</tspan></tspan><tspan id="SvgjsTspan1286" dy="16" x="10"><tspan id="SvgjsTspan1287" style="text-decoration:;">渲染方法</tspan></tspan><tspan id="SvgjsTspan1288" dy="16" x="10"><tspan id="SvgjsTspan1289" style="text-decoration:;">5. 生命周期beforeCreate</tspan></tspan><tspan id="SvgjsTspan1290" dy="16" x="10"><tspan id="SvgjsTspan1291" style="text-decoration:;">调用</tspan></tspan><tspan id="SvgjsTspan1292" dy="16" x="10"><tspan id="SvgjsTspan1293" style="text-decoration:;">6. 初始</tspan></tspan><tspan id="SvgjsTspan1294" dy="16" x="10"><tspan id="SvgjsTspan1295" style="text-decoration:;">化props、methods、data</tspan></tspan><tspan id="SvgjsTspan1296" dy="16" x="10"><tspan id="SvgjsTspan1297" style="text-decoration:;">、computed、watch</tspan></tspan><tspan id="SvgjsTspan1298" dy="16" x="10"><tspan id="SvgjsTspan1299" style="text-decoration:;">7. 生命周期created调用</tspan></tspan></text></g></g><g id="SvgjsG1300"><path id="SvgjsPath1301" d="M1201.375 327.0625L1191.125 327.0625L1191.125 237.25L1168.475 237.25 " stroke="#323232" stroke-width="2" fill="none" marker-end="url(#SvgjsMarker1302)"></path></g><g id="SvgjsG1304"><path id="SvgjsPath1305" d="M1057.875 497.25L1057.875 461.5L1057.875 461.5L1057.875 429.35 " stroke="#323232" stroke-width="2" fill="none" marker-end="url(#SvgjsMarker1306)"></path></g><g id="SvgjsG1308" transform="translate(890.5007583380025,681.75)"><path id="SvgjsPath1309" d="M0 0L264.8742416619975 0L264.8742416619975 173.53497626088094L0 173.53497626088094Z " stroke="none" fill="none"></path><g id="SvgjsG1310"><text id="SvgjsText1311" font-family="微软雅黑" text-anchor="middle" font-size="13px" width="265px" fill="#000000" font-weight="400" align="middle" lineHeight="125%" font-style="" opacity="0.25" y="76.14248813044047" transform="rotate(0)"><tspan id="SvgjsTspan1312" dy="16" x="132.5"><tspan id="SvgjsTspan1313" style="text-decoration:;">https://github.com/wbccb</tspan></tspan></text></g></g><g id="SvgjsG1314" transform="translate(469.375,310.75)"><path id="SvgjsPath1315" d="M0 0L205 0L205 47L0 47Z " stroke="rgba(50,50,50,1)" stroke-width="2" fill-opacity="1" fill="#ffffff"></path><g id="SvgjsG1316"><text id="SvgjsText1317" font-family="微软雅黑" text-anchor="start" font-size="13px" width="185px" fill="#323232" font-weight="400" align="middle" lineHeight="125%" font-style="" opacity="1" y="4.875" transform="rotate(0)"><tspan id="SvgjsTspan1318" dy="16" x="10"><tspan id="SvgjsTspan1319" style="text-decoration:;">initComponent():vnode.elm = </tspan></tspan><tspan id="SvgjsTspan1320" dy="16" x="10"><tspan id="SvgjsTspan1321" style="text-decoration:;">vnode.componentInstance.$el</tspan></tspan></text></g></g><g id="SvgjsG1322"><path id="SvgjsPath1323" d="M571.875 273.875L571.875 291.8125L571.875 291.8125L571.875 307.15 " stroke="#323232" stroke-width="2" fill="none" marker-end="url(#SvgjsMarker1324)"></path></g><g id="SvgjsG1326"><path id="SvgjsPath1327" d="M571.875 358.75L571.875 379.83539783599974L571.875 379.83539783599974L571.875 398.3207956719995 " stroke="#323232" stroke-width="2" fill="none" marker-end="url(#SvgjsMarker1328)"></path></g></svg>