<svg id="SvgjsSvg1358" xmlns="http://www.w3.org/2000/svg" version="1.1" xmlns:xlink="http://www.w3.org/1999/xlink" xmlns:svgjs="http://svgjs.com/svgjs" width="933.5" height="1058.375"><defs id="SvgjsDefs1359"><marker id="SvgjsMarker1447" markerWidth="14" markerHeight="10" refX="10" refY="5" viewBox="0 0 14 10" orient="auto" markerUnits="userSpaceOnUse" stroke-dasharray="0,0"><path id="SvgjsPath1448" d="M0 0L14 5L0 10L0 0 " fill="#323232" stroke="#323232" stroke-width="1"></path></marker><marker id="SvgjsMarker1451" markerWidth="14" markerHeight="10" refX="10" refY="5" viewBox="0 0 14 10" orient="auto" markerUnits="userSpaceOnUse" stroke-dasharray="0,0"><path id="SvgjsPath1452" d="M0 0L14 5L0 10L0 0 " fill="#323232" stroke="#323232" stroke-width="1"></path></marker><marker id="SvgjsMarker1455" markerWidth="14" markerHeight="10" refX="10" refY="5" viewBox="0 0 14 10" orient="auto" markerUnits="userSpaceOnUse" stroke-dasharray="0,0"><path id="SvgjsPath1456" d="M0 0L14 5L0 10L0 0 " fill="#323232" stroke="#323232" stroke-width="1"></path></marker><marker id="SvgjsMarker1459" markerWidth="14" markerHeight="10" refX="10" refY="5" viewBox="0 0 14 10" orient="auto" markerUnits="userSpaceOnUse" stroke-dasharray="0,0"><path id="SvgjsPath1460" d="M0 0L14 5L0 10L0 0 " fill="#323232" stroke="#323232" stroke-width="1"></path></marker><marker id="SvgjsMarker1463" markerWidth="14" markerHeight="10" refX="10" refY="5" viewBox="0 0 14 10" orient="auto" markerUnits="userSpaceOnUse" stroke-dasharray="0,0"><path id="SvgjsPath1464" d="M0 0L14 5L0 10L0 0 " fill="#323232" stroke="#323232" stroke-width="1"></path></marker><marker id="SvgjsMarker1467" markerWidth="14" markerHeight="10" refX="10" refY="5" viewBox="0 0 14 10" orient="auto" markerUnits="userSpaceOnUse" stroke-dasharray="0,0"><path id="SvgjsPath1468" d="M0 0L14 5L0 10L0 0 " fill="#323232" stroke="#323232" stroke-width="1"></path></marker><marker id="SvgjsMarker1471" markerWidth="14" markerHeight="10" refX="10" refY="5" viewBox="0 0 14 10" orient="auto" markerUnits="userSpaceOnUse" stroke-dasharray="0,0"><path id="SvgjsPath1472" d="M0 0L14 5L0 10L0 0 " fill="#323232" stroke="#323232" stroke-width="1"></path></marker><marker id="SvgjsMarker1483" markerWidth="14" markerHeight="10" refX="10" refY="5" viewBox="0 0 14 10" orient="auto" markerUnits="userSpaceOnUse" stroke-dasharray="0,0"><path id="SvgjsPath1484" d="M0 0L14 5L0 10L0 0 " fill="#323232" stroke="#323232" stroke-width="1"></path></marker><marker id="SvgjsMarker1493" markerWidth="14" markerHeight="10" refX="10" refY="5" viewBox="0 0 14 10" orient="auto" markerUnits="userSpaceOnUse" stroke-dasharray="0,0"><path id="SvgjsPath1494" d="M0 0L14 5L0 10L0 0 " fill="#323232" stroke="#323232" stroke-width="1"></path></marker><marker id="SvgjsMarker1504" markerWidth="14" markerHeight="10" refX="10" refY="5" viewBox="0 0 14 10" orient="auto" markerUnits="userSpaceOnUse" stroke-dasharray="0,0"><path id="SvgjsPath1505" d="M0 0L14 5L0 10L0 0 " fill="#323232" stroke="#323232" stroke-width="1"></path></marker><marker id="SvgjsMarker1515" markerWidth="14" markerHeight="10" refX="10" refY="5" viewBox="0 0 14 10" orient="auto" markerUnits="userSpaceOnUse" stroke-dasharray="0,0"><path id="SvgjsPath1516" d="M0 0L14 5L0 10L0 0 " fill="#323232" stroke="#323232" stroke-width="1"></path></marker><marker id="SvgjsMarker1526" markerWidth="14" markerHeight="10" refX="10" refY="5" viewBox="0 0 14 10" orient="auto" markerUnits="userSpaceOnUse" stroke-dasharray="0,0"><path id="SvgjsPath1527" d="M0 0L14 5L0 10L0 0 " fill="#323232" stroke="#323232" stroke-width="1"></path></marker><marker id="SvgjsMarker1544" markerWidth="14" markerHeight="10" refX="10" refY="5" viewBox="0 0 14 10" orient="auto" markerUnits="userSpaceOnUse" stroke-dasharray="0,0"><path id="SvgjsPath1545" d="M0 0L14 5L0 10L0 0 " fill="#323232" stroke="#323232" stroke-width="1"></path></marker><marker id="SvgjsMarker1548" markerWidth="14" markerHeight="10" refX="10" refY="5" viewBox="0 0 14 10" orient="auto" markerUnits="userSpaceOnUse" stroke-dasharray="0,0"><path id="SvgjsPath1549" d="M0 0L14 5L0 10L0 0 " fill="#323232" stroke="#323232" stroke-width="1"></path></marker><marker id="SvgjsMarker1560" markerWidth="14" markerHeight="10" refX="10" refY="5" viewBox="0 0 14 10" orient="auto" markerUnits="userSpaceOnUse" stroke-dasharray="0,0"><path id="SvgjsPath1561" d="M0 0L14 5L0 10L0 0 " fill="#323232" stroke="#323232" stroke-width="1"></path></marker><marker id="SvgjsMarker1564" markerWidth="14" markerHeight="10" refX="10" refY="5" viewBox="0 0 14 10" orient="auto" markerUnits="userSpaceOnUse" stroke-dasharray="0,0"><path id="SvgjsPath1565" d="M0 0L14 5L0 10L0 0 " fill="#323232" stroke="#323232" stroke-width="1"></path></marker><marker id="SvgjsMarker1582" markerWidth="14" markerHeight="10" refX="10" refY="5" viewBox="0 0 14 10" orient="auto" markerUnits="userSpaceOnUse" stroke-dasharray="0,0"><path id="SvgjsPath1583" d="M0 0L14 5L0 10L0 0 " fill="#323232" stroke="#323232" stroke-width="1"></path></marker><marker id="SvgjsMarker1593" markerWidth="14" markerHeight="10" refX="10" refY="5" viewBox="0 0 14 10" orient="auto" markerUnits="userSpaceOnUse" stroke-dasharray="0,0"><path id="SvgjsPath1594" d="M0 0L14 5L0 10L0 0 " fill="#323232" stroke="#323232" stroke-width="1"></path></marker><marker id="SvgjsMarker1604" markerWidth="14" markerHeight="10" refX="10" refY="5" viewBox="0 0 14 10" orient="auto" markerUnits="userSpaceOnUse" stroke-dasharray="0,0"><path id="SvgjsPath1605" d="M0 0L14 5L0 10L0 0 " fill="#323232" stroke="#323232" stroke-width="1"></path></marker><marker id="SvgjsMarker1639" markerWidth="14" markerHeight="10" refX="10" refY="5" viewBox="0 0 14 10" orient="auto" markerUnits="userSpaceOnUse" stroke-dasharray="0,0"><path id="SvgjsPath1640" d="M0 0L14 5L0 10L0 0 " fill="#323232" stroke="#323232" stroke-width="1"></path></marker><marker id="SvgjsMarker1643" markerWidth="14" markerHeight="10" refX="10" refY="5" viewBox="0 0 14 10" orient="auto" markerUnits="userSpaceOnUse" stroke-dasharray="0,0"><path id="SvgjsPath1644" d="M0 0L14 5L0 10L0 0 " fill="#323232" stroke="#323232" stroke-width="1"></path></marker><marker id="SvgjsMarker1655" markerWidth="14" markerHeight="10" refX="10" refY="5" viewBox="0 0 14 10" orient="auto" markerUnits="userSpaceOnUse" stroke-dasharray="0,0"><path id="SvgjsPath1656" d="M0 0L14 5L0 10L0 0 " fill="#323232" stroke="#323232" stroke-width="1"></path></marker><marker id="SvgjsMarker1677" markerWidth="14" markerHeight="10" refX="10" refY="5" viewBox="0 0 14 10" orient="auto" markerUnits="userSpaceOnUse" stroke-dasharray="0,0"><path id="SvgjsPath1678" d="M0 0L14 5L0 10L0 0 " fill="#323232" stroke="#323232" stroke-width="1"></path></marker><marker id="SvgjsMarker1689" markerWidth="14" markerHeight="10" refX="10" refY="5" viewBox="0 0 14 10" orient="auto" markerUnits="userSpaceOnUse" stroke-dasharray="0,0"><path id="SvgjsPath1690" d="M0 0L14 5L0 10L0 0 " fill="#323232" stroke="#323232" stroke-width="1"></path></marker><marker id="SvgjsMarker1712" markerWidth="14" markerHeight="10" refX="10" refY="5" viewBox="0 0 14 10" orient="auto" markerUnits="userSpaceOnUse" stroke-dasharray="0,0"><path id="SvgjsPath1713" d="M0 0L14 5L0 10L0 0 " fill="#323232" stroke="#323232" stroke-width="1"></path></marker></defs><g id="svgbackgroundid"><defs></defs><rect id="SvgjsRect1361" width="933.5" height="1058.375" fill="#ffffff"></rect></g><g id="SvgjsG1363" transform="translate(468.0625,600)"><path id="SvgjsPath1364" d="M0 0L214.4375 0L214.4375 225L0 225Z " stroke-dasharray="10,6" stroke="rgba(50,50,50,1)" stroke-width="2" fill-opacity="1" fill="#f5f5f5"></path><g id="SvgjsG1365"><text id="SvgjsText1366" font-family="微软雅黑" text-anchor="middle" font-size="13px" width="195px" fill="#e0e0e0" font-weight="400" align="middle" lineHeight="125%" font-style="" opacity="1" y="101.875" transform="rotate(0)"></text></g></g><g id="SvgjsG1367" transform="translate(46.0625,600)"><path id="SvgjsPath1368" d="M0 0L396 0L396 225L0 225Z " stroke-dasharray="10,6" stroke="rgba(50,50,50,1)" stroke-width="2" fill-opacity="1" fill="#f5f5f5"></path><g id="SvgjsG1369"><text id="SvgjsText1370" font-family="微软雅黑" text-anchor="middle" font-size="13px" width="376px" fill="#e0e0e0" font-weight="400" align="middle" lineHeight="125%" font-style="" opacity="1" y="101.875" transform="rotate(0)"></text></g></g><g id="SvgjsG1371" transform="translate(337.0625,25)"><path id="SvgjsPath1372" d="M0 0L487 0L487 294L0 294Z " stroke-dasharray="10,6" stroke="rgba(50,50,50,1)" stroke-width="2" fill-opacity="1" fill="#f5f5f5"></path><g id="SvgjsG1373"><text id="SvgjsText1374" font-family="微软雅黑" text-anchor="middle" font-size="13px" width="467px" fill="#323232" font-weight="400" align="middle" lineHeight="125%" font-style="" opacity="1" y="136.375" transform="rotate(0)"></text></g></g><g id="SvgjsG1375" transform="translate(76.0625,29)"><path id="SvgjsPath1376" d="M0 0L125 0L125 43L0 43Z " stroke="rgba(50,50,50,1)" stroke-width="2" fill-opacity="1" fill="#ffffff"></path><g id="SvgjsG1377"><text id="SvgjsText1378" font-family="微软雅黑" text-anchor="middle" font-size="13px" width="105px" fill="#323232" font-weight="400" align="middle" lineHeight="125%" font-style="" opacity="1" y="10.875" transform="rotate(0)"><tspan id="SvgjsTspan1379" dy="16" x="62.5"><tspan id="SvgjsTspan1380" style="text-decoration:;">初始化</tspan></tspan></text></g></g><g id="SvgjsG1381" transform="translate(354.0625,49.5)"><path id="SvgjsPath1382" d="M0 0L162 0L162 45L0 45Z " stroke="rgba(50,50,50,1)" stroke-width="2" fill-opacity="1" fill="#ffffff"></path><g id="SvgjsG1383"><text id="SvgjsText1384" font-family="微软雅黑" text-anchor="middle" font-size="13px" width="142px" fill="#323232" font-weight="400" align="middle" lineHeight="125%" font-style="" opacity="1" y="11.875" transform="rotate(0)"><tspan id="SvgjsTspan1385" dy="16" x="81"><tspan id="SvgjsTspan1386" style="text-decoration:;">factorizeModule()</tspan></tspan></text></g></g><g id="SvgjsG1387" transform="translate(354.0625,119)"><path id="SvgjsPath1388" d="M0 0L162 0L162 43L0 43Z " stroke="rgba(50,50,50,1)" stroke-width="2" fill-opacity="1" fill="#ffffff"></path><g id="SvgjsG1389"><text id="SvgjsText1390" font-family="微软雅黑" text-anchor="middle" font-size="13px" width="142px" fill="#323232" font-weight="400" align="middle" lineHeight="125%" font-style="" opacity="1" y="10.875" transform="rotate(0)"><tspan id="SvgjsTspan1391" dy="16" x="81"><tspan id="SvgjsTspan1392" style="text-decoration:;">addModule()</tspan></tspan></text></g></g><g id="SvgjsG1393" transform="translate(354.0625,187.5)"><path id="SvgjsPath1394" d="M0 0L162 0L162 43L0 43Z " stroke="rgba(50,50,50,1)" stroke-width="2" fill-opacity="1" fill="#ffffff"></path><g id="SvgjsG1395"><text id="SvgjsText1396" font-family="微软雅黑" text-anchor="middle" font-size="13px" width="142px" fill="#323232" font-weight="400" align="middle" lineHeight="125%" font-style="" opacity="1" y="10.875" transform="rotate(0)"><tspan id="SvgjsTspan1397" dy="16" x="81"><tspan id="SvgjsTspan1398" style="text-decoration:;">buildMode()</tspan></tspan></text></g></g><g id="SvgjsG1399" transform="translate(354.0625,256)"><path id="SvgjsPath1400" d="M0 0L162 0L162 43L0 43Z " stroke="rgba(50,50,50,1)" stroke-width="2" fill-opacity="1" fill="#ffffff"></path><g id="SvgjsG1401"><text id="SvgjsText1402" font-family="微软雅黑" text-anchor="middle" font-size="13px" width="142px" fill="#323232" font-weight="400" align="middle" lineHeight="125%" font-style="" opacity="1" y="2.875" transform="rotate(0)"><tspan id="SvgjsTspan1403" dy="16" x="81"><tspan id="SvgjsTspan1404" style="text-decoration:;">processModuleDepend</tspan></tspan><tspan id="SvgjsTspan1405" dy="16" x="81"><tspan id="SvgjsTspan1406" style="text-decoration:;">encies()</tspan></tspan></text></g></g><g id="SvgjsG1407" transform="translate(569.0625,43)"><path id="SvgjsPath1408" d="M0 0L224 0L240 16L240 58L0 58L0 0Z " stroke="none" fill-opacity="1" fill="#ffe0b2"></path><path id="SvgjsPath1409" d="M224 0L224 16L240 16Z " stroke="none" fill-opacity="1" fill="#cdcdcd"></path><path id="SvgjsPath1410" d="M0 0L224 0L240 16L240 58L0 58L0 0Z " stroke="none" fill="none"></path><g id="SvgjsG1411"><text id="SvgjsText1412" font-family="微软雅黑" text-anchor="middle" font-size="13px" width="220px" fill="#323232" font-weight="400" align="middle" lineHeight="125%" font-style="" opacity="1" y="10.375" transform="rotate(0)"><tspan id="SvgjsTspan1413" dy="16" x="120"><tspan id="SvgjsTspan1414" style="text-decoration:;">核心为resolve()流程，涉及到loaders</tspan></tspan><tspan id="SvgjsTspan1415" dy="16" x="120"><tspan id="SvgjsTspan1416" style="text-decoration:;">适配，文件依赖路径拼接为完整路径</tspan></tspan></text></g></g><g id="SvgjsG1417" transform="translate(569.0625,111.5)"><path id="SvgjsPath1418" d="M0 0L224 0L240 16L240 58L0 58L0 0Z " stroke="none" fill-opacity="1" fill="#ffe0b2"></path><path id="SvgjsPath1419" d="M224 0L224 16L240 16Z " stroke="none" fill-opacity="1" fill="#cdcdcd"></path><path id="SvgjsPath1420" d="M0 0L224 0L240 16L240 58L0 58L0 0Z " stroke="none" fill="none"></path><g id="SvgjsG1421"><text id="SvgjsText1422" font-family="微软雅黑" text-anchor="middle" font-size="13px" width="220px" fill="#323232" font-weight="400" align="middle" lineHeight="125%" font-style="" opacity="1" y="10.375" transform="rotate(0)"><tspan id="SvgjsTspan1423" dy="16" x="120"><tspan id="SvgjsTspan1424" style="text-decoration:;">使用ModuleGraph关联父Module和它</tspan></tspan><tspan id="SvgjsTspan1425" dy="16" x="120"><tspan id="SvgjsTspan1426" style="text-decoration:;">的依赖dependency的关系</tspan></tspan></text></g></g><g id="SvgjsG1427" transform="translate(569.0625,180)"><path id="SvgjsPath1428" d="M0 0L225.5 0L241.5 16L241.5 59L0 59L0 0Z " stroke="none" fill-opacity="1" fill="#ffe0b2"></path><path id="SvgjsPath1429" d="M225.5 0L225.5 16L241.5 16Z " stroke="none" fill-opacity="1" fill="#cdcdcd"></path><path id="SvgjsPath1430" d="M0 0L225.5 0L241.5 16L241.5 59L0 59L0 0Z " stroke="none" fill="none"></path><g id="SvgjsG1431"><text id="SvgjsText1432" font-family="微软雅黑" text-anchor="start" font-size="13px" width="222px" fill="#323232" font-weight="400" align="middle" lineHeight="125%" font-style="" opacity="1" y="10.875" transform="rotate(0)"><tspan id="SvgjsTspan1433" dy="16" x="10"><tspan id="SvgjsTspan1434" style="text-decoration:;">1. 使用loaders转化文件内容；</tspan></tspan><tspan id="SvgjsTspan1435" dy="16" x="10"><tspan id="SvgjsTspan1436" style="text-decoration:;">2.文件内容转化为AST，找出依赖关系</tspan></tspan></text></g></g><g id="SvgjsG1437" transform="translate(569.0625,248.5)"><path id="SvgjsPath1438" d="M0 0L224 0L240 16L240 58L0 58L0 0Z " stroke="none" fill-opacity="1" fill="#ffe0b2"></path><path id="SvgjsPath1439" d="M224 0L224 16L240 16Z " stroke="none" fill-opacity="1" fill="#cdcdcd"></path><path id="SvgjsPath1440" d="M0 0L224 0L240 16L240 58L0 58L0 0Z " stroke="none" fill="none"></path><g id="SvgjsG1441"><text id="SvgjsText1442" font-family="微软雅黑" text-anchor="middle" font-size="13px" width="220px" fill="#323232" font-weight="400" align="middle" lineHeight="125%" font-style="" opacity="1" y="18.375" transform="rotate(0)"><tspan id="SvgjsTspan1443" dy="16" x="120"><tspan id="SvgjsTspan1444" style="text-decoration:;">处理依赖，重复上面构建流程</tspan></tspan></text></g></g><g id="SvgjsG1445"><path id="SvgjsPath1446" d="M435.0625 95.5L435.0625 106.75L435.0625 106.75L435.0625 115.4 " stroke="#323232" stroke-width="2" fill="none" marker-end="url(#SvgjsMarker1447)"></path></g><g id="SvgjsG1449"><path id="SvgjsPath1450" d="M435.0625 163L435.0625 174.75L435.0625 174.75L435.0625 183.89999999999998 " stroke="#323232" stroke-width="2" fill="none" marker-end="url(#SvgjsMarker1451)"></path></g><g id="SvgjsG1453"><path id="SvgjsPath1454" d="M435.0625 231.5L435.0625 243.25L435.0625 243.25L435.0625 252.39999999999998 " stroke="#323232" stroke-width="2" fill="none" marker-end="url(#SvgjsMarker1455)"></path></g><g id="SvgjsG1457"><path id="SvgjsPath1458" d="M569.0625 72L542.5625 72L542.5625 72L519.6625 72 " stroke-dasharray="8,5" stroke="#323232" stroke-width="2" fill="none" marker-end="url(#SvgjsMarker1459)"></path></g><g id="SvgjsG1461"><path id="SvgjsPath1462" d="M569.0625 140.5L542.5625 140.5L542.5625 140.5L519.6625 140.5 " stroke-dasharray="8,5" stroke="#323232" stroke-width="2" fill="none" marker-end="url(#SvgjsMarker1463)"></path></g><g id="SvgjsG1465"><path id="SvgjsPath1466" d="M569.0625 209.5L542.5625 209.5L542.5625 209L519.6625 209 " stroke-dasharray="8,5" stroke="#323232" stroke-width="2" fill="none" marker-end="url(#SvgjsMarker1467)"></path></g><g id="SvgjsG1469"><path id="SvgjsPath1470" d="M569.0625 277.5L542.5625 277.5L542.5625 277.5L519.6625 277.5 " stroke-dasharray="8,5" stroke="#323232" stroke-width="2" fill="none" marker-end="url(#SvgjsMarker1471)"></path></g><g id="SvgjsG1473" transform="translate(57.5625,109)"><path id="SvgjsPath1474" d="M0 0L162 0L162 45L0 45Z " stroke="rgba(50,50,50,1)" stroke-width="2" fill-opacity="1" fill="#ffffff"></path><g id="SvgjsG1475"><text id="SvgjsText1476" font-family="微软雅黑" text-anchor="middle" font-size="13px" width="142px" fill="#323232" font-weight="400" align="middle" lineHeight="125%" font-style="" opacity="1" y="3.875" transform="rotate(0)"><tspan id="SvgjsTspan1477" dy="16" x="81"><tspan id="SvgjsTspan1478" style="text-decoration:;">addEntry()</tspan></tspan><tspan id="SvgjsTspan1479" dy="16" x="81"><tspan id="SvgjsTspan1480" style="text-decoration:;">_addEntryItem()</tspan></tspan></text></g></g><g id="SvgjsG1481"><path id="SvgjsPath1482" d="M138.5625 73L138.5625 90.5L138.5625 90.5L138.5625 105.4 " stroke="#323232" stroke-width="2" fill="none" marker-end="url(#SvgjsMarker1483)"></path></g><g id="SvgjsG1485" transform="translate(57.5625,187)"><path id="SvgjsPath1486" d="M0 0L162 0L162 45L0 45Z " stroke="rgba(50,50,50,1)" stroke-width="2" fill-opacity="1" fill="#ffffff"></path><g id="SvgjsG1487"><text id="SvgjsText1488" font-family="微软雅黑" text-anchor="middle" font-size="13px" width="142px" fill="#323232" font-weight="400" align="middle" lineHeight="125%" font-style="" opacity="1" y="11.875" transform="rotate(0)"><tspan id="SvgjsTspan1489" dy="16" x="81"><tspan id="SvgjsTspan1490" style="text-decoration:;">addModuleTree()</tspan></tspan></text></g></g><g id="SvgjsG1491"><path id="SvgjsPath1492" d="M138.5625 155L138.5625 170.5L138.5625 170.5L138.5625 183.39999999999998 " stroke="#323232" stroke-width="2" fill="none" marker-end="url(#SvgjsMarker1493)"></path></g><g id="SvgjsG1495" transform="translate(28.3125,269.5)"><path id="SvgjsPath1496" d="M0 0L220.5 0L220.5 45L0 45Z " stroke="rgba(50,50,50,1)" stroke-width="2" fill-opacity="1" fill="#ffffff"></path><g id="SvgjsG1497"><text id="SvgjsText1498" font-family="微软雅黑" text-anchor="middle" font-size="13px" width="201px" fill="#323232" font-weight="400" align="middle" lineHeight="125%" font-style="" opacity="1" y="11.875" transform="rotate(0)"><tspan id="SvgjsTspan1499" dy="16" x="110.5"><tspan id="SvgjsTspan1500" style="text-decoration:;fill: rgb(255, 0, 0);">3.1 </tspan><tspan id="SvgjsTspan1501" style="text-decoration:;">获取NormalModuleFactory</tspan></tspan></text></g></g><g id="SvgjsG1502"><path id="SvgjsPath1503" d="M138.5625 233L138.5625 250.75L138.5625 250.75L138.5625 265.9 " stroke="#323232" stroke-width="2" fill="none" marker-end="url(#SvgjsMarker1504)"></path></g><g id="SvgjsG1506" transform="translate(25,351)"><path id="SvgjsPath1507" d="M0 0L227.125 0L227.125 43L0 43Z " stroke="rgba(50,50,50,1)" stroke-width="2" fill-opacity="1" fill="#ffffff"></path><g id="SvgjsG1508"><text id="SvgjsText1509" font-family="微软雅黑" text-anchor="middle" font-size="13px" width="208px" fill="#323232" font-weight="400" align="middle" lineHeight="125%" font-style="" opacity="1" y="10.875" transform="rotate(0)"><tspan id="SvgjsTspan1510" dy="16" x="114"><tspan id="SvgjsTspan1511" style="text-decoration:;fill: rgb(255, 0, 0);">3.2</tspan><tspan id="SvgjsTspan1512" style="text-decoration:;"> NormalModuleFactory.create()</tspan></tspan></text></g></g><g id="SvgjsG1513"><path id="SvgjsPath1514" d="M138.5625 315.5L138.5625 332.75L138.5625 332.75L138.5625 347.4 " stroke="#323232" stroke-width="2" fill="none" marker-end="url(#SvgjsMarker1515)"></path></g><g id="SvgjsG1517" transform="translate(311.9375,352)"><path id="SvgjsPath1518" d="M0 0L257.125 0L257.125 41L0 41Z " stroke="rgba(50,50,50,1)" stroke-width="2" fill-opacity="1" fill="#ffffff"></path><g id="SvgjsG1519"><text id="SvgjsText1520" font-family="微软雅黑" text-anchor="middle" font-size="13px" width="238px" fill="#323232" font-weight="400" align="middle" lineHeight="125%" font-style="" opacity="1" y="9.875" transform="rotate(0)"><tspan id="SvgjsTspan1521" dy="16" x="129"><tspan id="SvgjsTspan1522" style="text-decoration:;fill: rgb(255, 0, 0);">3.3</tspan><tspan id="SvgjsTspan1523" style="text-decoration:;"> getResolver()&amp;resolver.resolve()</tspan></tspan></text></g></g><g id="SvgjsG1524"><path id="SvgjsPath1525" d="M253.125 372.5L282.03125 372.5L282.03125 372.5L308.3375 372.5 " stroke="#323232" stroke-width="2" fill="none" marker-end="url(#SvgjsMarker1526)"></path></g><g id="SvgjsG1528" transform="translate(311.9375,420)"><path id="SvgjsPath1529" d="M0 0L257.125 0L257.125 41L0 41Z " stroke="rgba(50,50,50,1)" stroke-width="2" fill-opacity="1" fill="#ffffff"></path><g id="SvgjsG1530"><text id="SvgjsText1531" font-family="微软雅黑" text-anchor="middle" font-size="13px" width="238px" fill="#323232" font-weight="400" align="middle" lineHeight="125%" font-style="" opacity="1" y="9.875" transform="rotate(0)"><tspan id="SvgjsTspan1532" dy="16" x="129"><tspan id="SvgjsTspan1533" style="text-decoration:;fill: rgb(255, 0, 0);">3.4</tspan><tspan id="SvgjsTspan1534" style="text-decoration:;"> getParser(type)</tspan></tspan></text></g></g><g id="SvgjsG1535" transform="translate(311.9375,483)"><path id="SvgjsPath1536" d="M0 0L257.125 0L257.125 41L0 41Z " stroke="rgba(50,50,50,1)" stroke-width="2" fill-opacity="1" fill="#ffffff"></path><g id="SvgjsG1537"><text id="SvgjsText1538" font-family="微软雅黑" text-anchor="middle" font-size="13px" width="238px" fill="#323232" font-weight="400" align="middle" lineHeight="125%" font-style="" opacity="1" y="9.875" transform="rotate(0)"><tspan id="SvgjsTspan1539" dy="16" x="129"><tspan id="SvgjsTspan1540" style="text-decoration:;fill: rgb(255, 0, 0);">3.5</tspan><tspan id="SvgjsTspan1541" style="text-decoration:;"> getGenerator(type)</tspan></tspan></text></g></g><g id="SvgjsG1542"><path id="SvgjsPath1543" d="M440.5 394L440.5 406.5L440.5 406.5L440.5 416.4 " stroke="#323232" stroke-width="2" fill="none" marker-end="url(#SvgjsMarker1544)"></path></g><g id="SvgjsG1546"><path id="SvgjsPath1547" d="M440.5 462L440.5 472L440.5 472L440.5 479.4 " stroke="#323232" stroke-width="2" fill="none" marker-end="url(#SvgjsMarker1548)"></path></g><g id="SvgjsG1550" transform="translate(311.9375,551)"><path id="SvgjsPath1551" d="M0 0L257.125 0L257.125 41L0 41Z " stroke="rgba(50,50,50,1)" stroke-width="2" fill-opacity="1" fill="#ffffff"></path><g id="SvgjsG1552"><text id="SvgjsText1553" font-family="微软雅黑" text-anchor="middle" font-size="13px" width="238px" fill="#323232" font-weight="400" align="middle" lineHeight="125%" font-style="" opacity="1" y="1.875" transform="rotate(0)"><tspan id="SvgjsTspan1554" dy="16" x="129"><tspan id="SvgjsTspan1555" style="text-decoration:;fill: rgb(255, 0, 0);caret-color: rgb(255, 0, 0);">形成factoryResult数据，包含loaders、</tspan></tspan><tspan id="SvgjsTspan1556" dy="16" x="129"><tspan id="SvgjsTspan1557" style="text-decoration:;fill: rgb(255, 0, 0);caret-color: rgb(255, 0, 0);">type、parser、generator</tspan></tspan></text></g></g><g id="SvgjsG1558"><path id="SvgjsPath1559" d="M440.5 525L440.5 537.5L440.5 537.5L440.5 547.4 " stroke="#323232" stroke-width="2" fill="none" marker-end="url(#SvgjsMarker1560)"></path></g><g id="SvgjsG1562"><path id="SvgjsPath1563" d="M310.9375 571.5L281.9375 571.5L281.9375 414L136.0625 414L136.0625 440.4 " stroke="#323232" stroke-width="2" fill="none" marker-end="url(#SvgjsMarker1564)"></path></g><g id="SvgjsG1566" transform="translate(76.0625,444)"><path id="SvgjsPath1567" d="M0 0L120 0L120 47L0 47Z " stroke="rgba(50,50,50,1)" stroke-width="2" fill-opacity="1" fill="#ffffff"></path><g id="SvgjsG1568"><text id="SvgjsText1569" font-family="微软雅黑" text-anchor="middle" font-size="13px" width="100px" fill="#323232" font-weight="400" align="middle" lineHeight="125%" font-style="" opacity="1" y="12.875" transform="rotate(0)"><tspan id="SvgjsTspan1570" dy="16" x="60"><tspan id="SvgjsTspan1571" style="text-decoration:;fill: rgb(255, 0, 0);caret-color: rgb(255, 0, 0);">addModule()</tspan></tspan></text></g></g><g id="SvgjsG1572" transform="translate(55.5625,621)"><path id="SvgjsPath1573" d="M0 0L161 0L161 47L0 47Z " stroke="rgba(50,50,50,1)" stroke-width="2" fill-opacity="1" fill="#ffffff"></path><g id="SvgjsG1574"><text id="SvgjsText1575" font-family="微软雅黑" text-anchor="middle" font-size="13px" width="141px" fill="#323232" font-weight="400" align="middle" lineHeight="125%" font-style="" opacity="1" y="4.875" transform="rotate(0)"><tspan id="SvgjsTspan1576" dy="16" x="80.5"><tspan id="SvgjsTspan1577" style="text-decoration:;fill: rgb(255, 0, 0);caret-color: rgb(255, 0, 0);">buildModule()</tspan></tspan><tspan id="SvgjsTspan1578" dy="16" x="80.5"><tspan id="SvgjsTspan1579" style="text-decoration:;fill: rgb(255, 0, 0);caret-color: rgb(255, 0, 0);">NormalModule.build()</tspan></tspan></text></g></g><g id="SvgjsG1580"><path id="SvgjsPath1581" d="M136.0625 492L136.0625 556L136.0625 556L136.0625 617.4 " stroke="#323232" stroke-width="2" fill="none" marker-end="url(#SvgjsMarker1582)"></path></g><g id="SvgjsG1584" transform="translate(273.9375,624)"><path id="SvgjsPath1585" d="M0 0L161.125 0L161.125 41L0 41Z " stroke="rgba(50,50,50,1)" stroke-width="2" fill-opacity="1" fill="#ffffff"></path><g id="SvgjsG1586"><text id="SvgjsText1587" font-family="微软雅黑" text-anchor="middle" font-size="13px" width="142px" fill="#ff0000" font-weight="400" align="middle" lineHeight="125%" font-style="" opacity="1" y="9.875" transform="rotate(0)"><tspan id="SvgjsTspan1588" dy="16" x="81"><tspan id="SvgjsTspan1589" style="text-decoration:;">3.7.1 </tspan><tspan id="SvgjsTspan1590" style="text-decoration:;fill: rgb(0, 0, 0);">_doBuild()</tspan></tspan></text></g></g><g id="SvgjsG1591"><path id="SvgjsPath1592" d="M217.5625 644.5L245.25 644.5L245.25 644.5L270.3375 644.5 " stroke="#323232" stroke-width="2" fill="none" marker-end="url(#SvgjsMarker1593)"></path></g><g id="SvgjsG1595" transform="translate(273.9375,756)"><path id="SvgjsPath1596" d="M0 0L161.125 0L161.125 41L0 41Z " stroke="rgba(50,50,50,1)" stroke-width="2" fill-opacity="1" fill="#ffffff"></path><g id="SvgjsG1597"><text id="SvgjsText1598" font-family="微软雅黑" text-anchor="middle" font-size="13px" width="142px" fill="#323232" font-weight="400" align="middle" lineHeight="125%" font-style="" opacity="1" y="9.875" transform="rotate(0)"><tspan id="SvgjsTspan1599" dy="16" x="81"><tspan id="SvgjsTspan1600" style="text-decoration:;fill: rgb(255, 0, 0);">3.7.2 </tspan><tspan id="SvgjsTspan1601" style="text-decoration:;">Parse.parse-AST</tspan></tspan></text></g></g><g id="SvgjsG1602"><path id="SvgjsPath1603" d="M354.5 666L354.5 710.5L354.5 710.5L354.5 752.4 " stroke="#323232" stroke-width="2" fill="none" marker-end="url(#SvgjsMarker1604)"></path></g><g id="SvgjsG1606" transform="translate(473.5,624)"><path id="SvgjsPath1607" d="M0 0L203.5625 0L203.5625 41L0 41Z " stroke="rgba(50,50,50,1)" stroke-width="2" fill-opacity="1" fill="#ffffff"></path><g id="SvgjsG1608"><text id="SvgjsText1609" font-family="微软雅黑" text-anchor="middle" font-size="13px" width="184px" fill="#323232" font-weight="400" align="middle" lineHeight="125%" font-style="" opacity="1" y="9.875" transform="rotate(0)"><tspan id="SvgjsTspan1610" dy="16" x="102"><tspan id="SvgjsTspan1611" style="text-decoration:;fill: rgb(255, 0, 0);">3.9 </tspan><tspan id="SvgjsTspan1612" style="text-decoration:;">runLoaders()</tspan></tspan></text></g></g><g id="SvgjsG1613" transform="translate(473.5,760)"><path id="SvgjsPath1614" d="M0 0L203.5625 0L203.5625 41L0 41Z " stroke="rgba(50,50,50,1)" stroke-width="2" fill-opacity="1" fill="#ffffff"></path><g id="SvgjsG1615"><text id="SvgjsText1616" font-family="微软雅黑" text-anchor="middle" font-size="13px" width="184px" fill="#323232" font-weight="400" align="middle" lineHeight="125%" font-style="" opacity="1" y="9.875" transform="rotate(0)"><tspan id="SvgjsTspan1617" dy="16" x="102"><tspan id="SvgjsTspan1618" style="text-decoration:;fill: rgb(255, 0, 0);">3.11 </tspan><tspan id="SvgjsTspan1619" style="text-decoration:;">JavascriptParser._parse</tspan></tspan></text></g></g><g id="SvgjsG1620" transform="translate(373.0625,607.625)"><path id="SvgjsPath1621" d="M90 0Q81 0 81 7.375L81 29.5Q81 36.875 68 36.875Q81 36.875 81 44.25L81 66.375Q81 73.75 90 73.75 " stroke="rgba(50,50,50,1)" stroke-width="2" fill="none"></path><path id="SvgjsPath1622" d="M0 0L90 0L90 73.75L0 73.75Z " stroke="none" fill="none"></path><g id="SvgjsG1623"><text id="SvgjsText1624" font-family="微软雅黑" text-anchor="end" font-size="13px" width="63px" fill="#323232" font-weight="400" align="middle" lineHeight="125%" font-style="" opacity="1" y="26.25" transform="rotate(0)"></text></g></g><g id="SvgjsG1625" transform="translate(373.0625,743.625)"><path id="SvgjsPath1626" d="M90 0Q81 0 81 7.375L81 29.5Q81 36.875 68 36.875Q81 36.875 81 44.25L81 66.375Q81 73.75 90 73.75 " stroke="rgba(50,50,50,1)" stroke-width="2" fill="none"></path><path id="SvgjsPath1627" d="M0 0L90 0L90 73.75L0 73.75Z " stroke="none" fill="none"></path><g id="SvgjsG1628"><text id="SvgjsText1629" font-family="微软雅黑" text-anchor="end" font-size="13px" width="63px" fill="#323232" font-weight="400" align="middle" lineHeight="125%" font-style="" opacity="1" y="26.25" transform="rotate(0)"></text></g></g><g id="SvgjsG1630" transform="translate(473.5,692)"><path id="SvgjsPath1631" d="M0 0L203.5625 0L203.5625 41L0 41Z " stroke="rgba(50,50,50,1)" stroke-width="2" fill-opacity="1" fill="#ffffff"></path><g id="SvgjsG1632"><text id="SvgjsText1633" font-family="微软雅黑" text-anchor="middle" font-size="13px" width="184px" fill="#323232" font-weight="400" align="middle" lineHeight="125%" font-style="" opacity="1" y="9.875" transform="rotate(0)"><tspan id="SvgjsTspan1634" dy="16" x="102"><tspan id="SvgjsTspan1635" style="text-decoration:;fill: rgb(255, 0, 0);">3.10 </tspan><tspan id="SvgjsTspan1636" style="text-decoration:;">noParse</tspan></tspan></text></g></g><g id="SvgjsG1637"><path id="SvgjsPath1638" d="M575.28125 666L575.28125 678.5L575.28125 678.5L575.28125 688.4 " stroke="#323232" stroke-width="2" fill="none" marker-end="url(#SvgjsMarker1639)"></path></g><g id="SvgjsG1641"><path id="SvgjsPath1642" d="M575.28125 734L575.28125 746.5L575.28125 746.5L575.28125 756.4 " stroke="#323232" stroke-width="2" fill="none" marker-end="url(#SvgjsMarker1643)"></path></g><g id="SvgjsG1645" transform="translate(219.5625,947)"><path id="SvgjsPath1646" d="M0 0L213.875 0L213.875 47.5L0 47.5Z " stroke="rgba(50,50,50,1)" stroke-width="2" fill-opacity="1" fill="#ffffff"></path><g id="SvgjsG1647"><text id="SvgjsText1648" font-family="微软雅黑" text-anchor="middle" font-size="13px" width="194px" fill="#323232" font-weight="400" align="middle" lineHeight="125%" font-style="" opacity="1" y="5.125" transform="rotate(0)"><tspan id="SvgjsTspan1649" dy="16" x="107"><tspan id="SvgjsTspan1650" style="text-decoration:;fill: rgb(255, 0, 0);">3.12 </tspan></tspan><tspan id="SvgjsTspan1651" dy="16" x="107"><tspan id="SvgjsTspan1652" style="text-decoration:;">processModuleDependencies</tspan></tspan></text></g></g><g id="SvgjsG1653"><path id="SvgjsPath1654" d="M354.5 798L354.5 872L326.5 872L326.5 943.4000000000001 " stroke="#323232" stroke-width="2" fill="none" marker-end="url(#SvgjsMarker1655)"></path></g><g id="SvgjsG1657" transform="translate(38.5625,817.375)"><path id="SvgjsPath1658" d="M0 0L195 0L195 44L0 44Z " stroke="none" fill="none"></path><g id="SvgjsG1659"><text id="SvgjsText1660" font-family="微软雅黑" text-anchor="middle" font-size="18px" width="195px" fill="#ff0000" font-weight="700" align="middle" lineHeight="125%" font-style="" opacity="1" y="6.75" transform="rotate(0)"><tspan id="SvgjsTspan1661" dy="22" x="97.5"><tspan id="SvgjsTspan1662" style="text-decoration:;">3.7 核心步骤整体概述</tspan></tspan></text></g></g><g id="SvgjsG1663" transform="translate(463.640625,825)"><path id="SvgjsPath1664" d="M0 0L223.28125 0L223.28125 44.625L0 44.625Z " stroke="none" fill="none"></path><g id="SvgjsG1665"><text id="SvgjsText1666" font-family="微软雅黑" text-anchor="middle" font-size="18px" width="224px" fill="#ff0000" font-weight="700" align="middle" lineHeight="125%" font-style="" opacity="1" y="7.0625" transform="rotate(0)"><tspan id="SvgjsTspan1667" dy="22" x="112"><tspan id="SvgjsTspan1668" style="text-decoration:;">3.8 build流程小模块-概述</tspan></tspan></text></g></g><g id="SvgjsG1669" transform="translate(704.5,624)"><path id="SvgjsPath1670" d="M0 0L203.5625 0L203.5625 41L0 41Z " stroke="rgba(50,50,50,1)" stroke-width="2" fill-opacity="1" fill="#ffcdd2"></path><g id="SvgjsG1671"><text id="SvgjsText1672" font-family="微软雅黑" text-anchor="middle" font-size="13px" width="184px" fill="#323232" font-weight="400" align="middle" lineHeight="125%" font-style="" opacity="1" y="9.875" transform="rotate(0)"><tspan id="SvgjsTspan1673" dy="16" x="102"><tspan id="SvgjsTspan1674" style="text-decoration:;">style-loader源码解析</tspan></tspan></text></g></g><g id="SvgjsG1675"><path id="SvgjsPath1676" d="M678.0625 644.5L690.78125 644.5L690.78125 644.5L700.9 644.5 " stroke="#323232" stroke-width="2" fill="none" marker-end="url(#SvgjsMarker1677)"></path></g><g id="SvgjsG1679" transform="translate(708.5,760.5)"><path id="SvgjsPath1680" d="M0 0L199.5625 0L199.5625 40L0 40Z " stroke="rgba(50,50,50,1)" stroke-width="2" fill-opacity="1" fill="#ffcdd2"></path><g id="SvgjsG1681"><text id="SvgjsText1682" font-family="微软雅黑" text-anchor="middle" font-size="13px" width="180px" fill="#323232" font-weight="400" align="middle" lineHeight="125%" font-style="" opacity="1" y="1.375" transform="rotate(0)"><tspan id="SvgjsTspan1683" dy="16" x="100"><tspan id="SvgjsTspan1684" style="text-decoration:;">解析_source的AST</tspan></tspan><tspan id="SvgjsTspan1685" dy="16" x="100"><tspan id="SvgjsTspan1686" style="text-decoration:;">获取dependencies</tspan></tspan></text></g></g><g id="SvgjsG1687"><path id="SvgjsPath1688" d="M678.0625 780.5L692.78125 780.5L692.78125 780.5L704.9 780.5 " stroke="#323232" stroke-width="2" fill="none" marker-end="url(#SvgjsMarker1689)"></path></g><g id="SvgjsG1691" transform="translate(465.5,919)"><path id="SvgjsPath1692" d="M0 0L203.5625 0L203.5625 41L0 41Z " stroke="rgba(50,50,50,1)" stroke-width="2" fill-opacity="1" fill="#ffffff"></path><g id="SvgjsG1693"><text id="SvgjsText1694" font-family="微软雅黑" text-anchor="middle" font-size="13px" width="184px" fill="#323232" font-weight="400" align="middle" lineHeight="125%" font-style="" opacity="1" y="9.875" transform="rotate(0)"><tspan id="SvgjsTspan1695" dy="16" x="102"><tspan id="SvgjsTspan1696" style="text-decoration:;fill: rgb(255, 0, 0);">3.12.1 </tspan><tspan id="SvgjsTspan1697" style="text-decoration:;">processDependency</tspan></tspan></text></g></g><g id="SvgjsG1698" transform="translate(465.5,992.375)"><path id="SvgjsPath1699" d="M0 0L203.5625 0L203.5625 41L0 41Z " stroke="rgba(50,50,50,1)" stroke-width="2" fill-opacity="1" fill="#ffffff"></path><g id="SvgjsG1700"><text id="SvgjsText1701" font-family="微软雅黑" text-anchor="middle" font-size="13px" width="184px" fill="#323232" font-weight="400" align="middle" lineHeight="125%" font-style="" opacity="1" y="9.875" transform="rotate(0)"><tspan id="SvgjsTspan1702" dy="16" x="102"><tspan id="SvgjsTspan1703" style="text-decoration:;fill: rgb(255, 0, 0);">3.12.2 </tspan><tspan id="SvgjsTspan1704" style="text-decoration:;">onDependenciesSorted</tspan></tspan></text></g></g><g id="SvgjsG1705" transform="translate(365.5,919)"><path id="SvgjsPath1706" d="M94 0Q85 0 85 9L85 48.1875Q85 57.1875 72 57.1875Q85 57.1875 85 66.1875L85 105.375Q85 114.375 94 114.375 " stroke="rgba(50,50,50,1)" stroke-width="2" fill="none"></path><path id="SvgjsPath1707" d="M0 0L94 0L94 114.375L0 114.375Z " stroke="none" fill="none"></path><g id="SvgjsG1708"><text id="SvgjsText1709" font-family="微软雅黑" text-anchor="end" font-size="13px" width="67px" fill="#323232" font-weight="400" align="middle" lineHeight="125%" font-style="" opacity="1" y="46.5625" transform="rotate(0)"></text></g></g><g id="SvgjsG1710"><path id="SvgjsPath1711" d="M567.28125 961L567.28125 976.1875L567.28125 976.1875L567.28125 988.7750000000001 " stroke="#323232" stroke-width="2" fill="none" marker-end="url(#SvgjsMarker1712)"></path></g></svg>