<svg id="SvgjsSvg1931" xmlns="http://www.w3.org/2000/svg" version="1.1" xmlns:xlink="http://www.w3.org/1999/xlink" xmlns:svgjs="http://svgjs.com/svgjs" width="2024.5" height="896.09375"><defs id="SvgjsDefs1932"><marker id="SvgjsMarker1995" markerWidth="14" markerHeight="10" refX="10" refY="5" viewBox="0 0 14 10" orient="auto" markerUnits="userSpaceOnUse" stroke-dasharray="0,0"><path id="SvgjsPath1996" d="M0 0L14 5L0 10L0 0 " fill="#323232" stroke="#323232" stroke-width="1"></path></marker><marker id="SvgjsMarker2011" markerWidth="14" markerHeight="10" refX="10" refY="5" viewBox="0 0 14 10" orient="auto" markerUnits="userSpaceOnUse" stroke-dasharray="0,0"><path id="SvgjsPath2012" d="M0 0L14 5L0 10L0 0 " fill="#323232" stroke="#323232" stroke-width="1"></path></marker><marker id="SvgjsMarker2021" markerWidth="14" markerHeight="10" refX="10" refY="5" viewBox="0 0 14 10" orient="auto" markerUnits="userSpaceOnUse" stroke-dasharray="0,0"><path id="SvgjsPath2022" d="M0 0L14 5L0 10L0 0 " fill="#323232" stroke="#323232" stroke-width="1"></path></marker><marker id="SvgjsMarker2031" markerWidth="14" markerHeight="10" refX="10" refY="5" viewBox="0 0 14 10" orient="auto" markerUnits="userSpaceOnUse" stroke-dasharray="0,0"><path id="SvgjsPath2032" d="M0 0L14 5L0 10L0 0 " fill="#323232" stroke="#323232" stroke-width="1"></path></marker><marker id="SvgjsMarker2049" markerWidth="14" markerHeight="10" refX="10" refY="5" viewBox="0 0 14 10" orient="auto" markerUnits="userSpaceOnUse" stroke-dasharray="0,0"><path id="SvgjsPath2050" d="M0 0L14 5L0 10L0 0 " fill="#323232" stroke="#323232" stroke-width="1"></path></marker><marker id="SvgjsMarker2077" markerWidth="14" markerHeight="10" refX="10" refY="5" viewBox="0 0 14 10" orient="auto" markerUnits="userSpaceOnUse" stroke-dasharray="0,0"><path id="SvgjsPath2078" d="M0 0L14 5L0 10L0 0 " fill="#323232" stroke="#323232" stroke-width="1"></path></marker><marker id="SvgjsMarker2158" markerWidth="14" markerHeight="10" refX="10" refY="5" viewBox="0 0 14 10" orient="auto" markerUnits="userSpaceOnUse" stroke-dasharray="0,0"><path id="SvgjsPath2159" d="M0 0L14 5L0 10L0 0 " fill="#323232" stroke="#323232" stroke-width="1"></path></marker><marker id="SvgjsMarker2162" markerWidth="14" markerHeight="10" refX="10" refY="5" viewBox="0 0 14 10" orient="auto" markerUnits="userSpaceOnUse" stroke-dasharray="0,0"><path id="SvgjsPath2163" d="M0 0L14 5L0 10L0 0 " fill="#323232" stroke="#323232" stroke-width="1"></path></marker><marker id="SvgjsMarker2166" markerWidth="14" markerHeight="10" refX="10" refY="5" viewBox="0 0 14 10" orient="auto" markerUnits="userSpaceOnUse" stroke-dasharray="0,0"><path id="SvgjsPath2167" d="M0 0L14 5L0 10L0 0 " fill="#323232" stroke="#323232" stroke-width="1"></path></marker><marker id="SvgjsMarker2170" markerWidth="14" markerHeight="10" refX="10" refY="5" viewBox="0 0 14 10" orient="auto" markerUnits="userSpaceOnUse" stroke-dasharray="0,0"><path id="SvgjsPath2171" d="M0 0L14 5L0 10L0 0 " fill="#323232" stroke="#323232" stroke-width="1"></path></marker><marker id="SvgjsMarker2174" markerWidth="14" markerHeight="10" refX="10" refY="5" viewBox="0 0 14 10" orient="auto" markerUnits="userSpaceOnUse" stroke-dasharray="0,0"><path id="SvgjsPath2175" d="M0 0L14 5L0 10L0 0 " fill="#323232" stroke="#323232" stroke-width="1"></path></marker><marker id="SvgjsMarker2178" markerWidth="14" markerHeight="10" refX="10" refY="5" viewBox="0 0 14 10" orient="auto" markerUnits="userSpaceOnUse" stroke-dasharray="0,0"><path id="SvgjsPath2179" d="M0 0L14 5L0 10L0 0 " fill="#323232" stroke="#323232" stroke-width="1"></path></marker><marker id="SvgjsMarker2190" markerWidth="14" markerHeight="10" refX="10" refY="5" viewBox="0 0 14 10" orient="auto" markerUnits="userSpaceOnUse" stroke-dasharray="0,0"><path id="SvgjsPath2191" d="M0 0L14 5L0 10L0 0 " fill="#323232" stroke="#323232" stroke-width="1"></path></marker><marker id="SvgjsMarker2202" markerWidth="14" markerHeight="10" refX="10" refY="5" viewBox="0 0 14 10" orient="auto" markerUnits="userSpaceOnUse" stroke-dasharray="0,0"><path id="SvgjsPath2203" d="M0 0L14 5L0 10L0 0 " fill="#323232" stroke="#323232" stroke-width="1"></path></marker><marker id="SvgjsMarker2214" markerWidth="14" markerHeight="10" refX="10" refY="5" viewBox="0 0 14 10" orient="auto" markerUnits="userSpaceOnUse" stroke-dasharray="0,0"><path id="SvgjsPath2215" d="M0 0L14 5L0 10L0 0 " fill="#323232" stroke="#323232" stroke-width="1"></path></marker><marker id="SvgjsMarker2226" markerWidth="14" markerHeight="10" refX="10" refY="5" viewBox="0 0 14 10" orient="auto" markerUnits="userSpaceOnUse" stroke-dasharray="0,0"><path id="SvgjsPath2227" d="M0 0L14 5L0 10L0 0 " fill="#323232" stroke="#323232" stroke-width="1"></path></marker><marker id="SvgjsMarker2242" markerWidth="14" markerHeight="10" refX="10" refY="5" viewBox="0 0 14 10" orient="auto" markerUnits="userSpaceOnUse" stroke-dasharray="0,0"><path id="SvgjsPath2243" d="M0 0L14 5L0 10L0 0 " fill="#323232" stroke="#323232" stroke-width="1"></path></marker><marker id="SvgjsMarker2246" markerWidth="14" markerHeight="10" refX="10" refY="5" viewBox="0 0 14 10" orient="auto" markerUnits="userSpaceOnUse" stroke-dasharray="0,0"><path id="SvgjsPath2247" d="M0 0L14 5L0 10L0 0 " fill="#323232" stroke="#323232" stroke-width="1"></path></marker><marker id="SvgjsMarker2250" markerWidth="14" markerHeight="10" refX="10" refY="5" viewBox="0 0 14 10" orient="auto" markerUnits="userSpaceOnUse" stroke-dasharray="0,0"><path id="SvgjsPath2251" d="M0 0L14 5L0 10L0 0 " fill="#323232" stroke="#323232" stroke-width="1"></path></marker><marker id="SvgjsMarker2254" markerWidth="14" markerHeight="10" refX="10" refY="5" viewBox="0 0 14 10" orient="auto" markerUnits="userSpaceOnUse" stroke-dasharray="0,0"><path id="SvgjsPath2255" d="M0 0L14 5L0 10L0 0 " fill="#323232" stroke="#323232" stroke-width="1"></path></marker><marker id="SvgjsMarker2258" markerWidth="14" markerHeight="10" refX="10" refY="5" viewBox="0 0 14 10" orient="auto" markerUnits="userSpaceOnUse" stroke-dasharray="0,0"><path id="SvgjsPath2259" d="M0 0L14 5L0 10L0 0 " fill="#323232" stroke="#323232" stroke-width="1"></path></marker><marker id="SvgjsMarker2262" markerWidth="14" markerHeight="10" refX="10" refY="5" viewBox="0 0 14 10" orient="auto" markerUnits="userSpaceOnUse" stroke-dasharray="0,0"><path id="SvgjsPath2263" d="M0 0L14 5L0 10L0 0 " fill="#323232" stroke="#323232" stroke-width="1"></path></marker><marker id="SvgjsMarker2303" markerWidth="14" markerHeight="10" refX="10" refY="5" viewBox="0 0 14 10" orient="auto" markerUnits="userSpaceOnUse" stroke-dasharray="0,0"><path id="SvgjsPath2304" d="M0 0L14 5L0 10L0 0 " fill="#323232" stroke="#323232" stroke-width="1"></path></marker><marker id="SvgjsMarker2307" markerWidth="14" markerHeight="10" refX="10" refY="5" viewBox="0 0 14 10" orient="auto" markerUnits="userSpaceOnUse" stroke-dasharray="0,0"><path id="SvgjsPath2308" d="M0 0L14 5L0 10L0 0 " fill="#323232" stroke="#323232" stroke-width="1"></path></marker><marker id="SvgjsMarker2311" markerWidth="14" markerHeight="10" refX="10" refY="5" viewBox="0 0 14 10" orient="auto" markerUnits="userSpaceOnUse" stroke-dasharray="0,0"><path id="SvgjsPath2312" d="M0 0L14 5L0 10L0 0 " fill="#323232" stroke="#323232" stroke-width="1"></path></marker><marker id="SvgjsMarker2315" markerWidth="14" markerHeight="10" refX="10" refY="5" viewBox="0 0 14 10" orient="auto" markerUnits="userSpaceOnUse" stroke-dasharray="0,0"><path id="SvgjsPath2316" d="M0 0L14 5L0 10L0 0 " fill="#323232" stroke="#323232" stroke-width="1"></path></marker><marker id="SvgjsMarker2319" markerWidth="14" markerHeight="10" refX="10" refY="5" viewBox="0 0 14 10" orient="auto" markerUnits="userSpaceOnUse" stroke-dasharray="0,0"><path id="SvgjsPath2320" d="M0 0L14 5L0 10L0 0 " fill="#323232" stroke="#323232" stroke-width="1"></path></marker><marker id="SvgjsMarker2323" markerWidth="14" markerHeight="10" refX="10" refY="5" viewBox="0 0 14 10" orient="auto" markerUnits="userSpaceOnUse" stroke-dasharray="0,0"><path id="SvgjsPath2324" d="M0 0L14 5L0 10L0 0 " fill="#323232" stroke="#323232" stroke-width="1"></path></marker><marker id="SvgjsMarker2349" markerWidth="14" markerHeight="10" refX="10" refY="5" viewBox="0 0 14 10" orient="auto" markerUnits="userSpaceOnUse" stroke-dasharray="0,0"><path id="SvgjsPath2350" d="M0 0L14 5L0 10L0 0 " fill="#323232" stroke="#323232" stroke-width="1"></path></marker><marker id="SvgjsMarker2361" markerWidth="14" markerHeight="10" refX="10" refY="5" viewBox="0 0 14 10" orient="auto" markerUnits="userSpaceOnUse" stroke-dasharray="0,0"><path id="SvgjsPath2362" d="M0 0L14 5L0 10L0 0 " fill="#323232" stroke="#323232" stroke-width="1"></path></marker><marker id="SvgjsMarker2373" markerWidth="14" markerHeight="10" refX="10" refY="5" viewBox="0 0 14 10" orient="auto" markerUnits="userSpaceOnUse" stroke-dasharray="0,0"><path id="SvgjsPath2374" d="M0 0L14 5L0 10L0 0 " fill="#323232" stroke="#323232" stroke-width="1"></path></marker><marker id="SvgjsMarker2377" markerWidth="14" markerHeight="10" refX="10" refY="5" viewBox="0 0 14 10" orient="auto" markerUnits="userSpaceOnUse" stroke-dasharray="0,0"><path id="SvgjsPath2378" d="M0 0L14 5L0 10L0 0 " fill="#323232" stroke="#323232" stroke-width="1"></path></marker><marker id="SvgjsMarker2395" markerWidth="14" markerHeight="10" refX="10" refY="5" viewBox="0 0 14 10" orient="auto" markerUnits="userSpaceOnUse" stroke-dasharray="0,0"><path id="SvgjsPath2396" d="M0 0L14 5L0 10L0 0 " fill="#323232" stroke="#323232" stroke-width="1"></path></marker><pattern patternUnits="userSpaceOnUse" id="pattern_mark" width="300" height="300"><text x="-50" y="150" fill="rgba(229,229,229,0.8)" font-size="18" transform="rotate(-45, 150, 150)">https://github.com/wbccb</text></pattern></defs><g id="svgbackgroundid"><defs></defs><rect id="SvgjsRect1934" width="2024.5" height="896.09375" fill="#ffffff"></rect></g><rect fill="url(#pattern_mark)" transform="translate(-20,-81.25)" width="2130" height="1600" id="rect_mark" pointer-events="none"></rect><g id="SvgjsG1936" transform="translate(366,316.22727272727275)"><path id="SvgjsPath1937" d="M0 0L213 0L213 148.52272727272725L0 148.52272727272725Z " stroke-dasharray="10,6" stroke="rgba(50,50,50,1)" stroke-width="2" fill-opacity="1" fill="#ffffff"></path><g id="SvgjsG1938"><text id="SvgjsText1939" font-family="微软雅黑" text-anchor="middle" font-size="13px" width="193px" fill="#323232" font-weight="400" align="middle" lineHeight="125%" font-style="" opacity="1" y="63.636363636363626" transform="rotate(0)"></text></g></g><g id="SvgjsG1940" transform="translate(854.5,333.5113636363636)"><path id="SvgjsPath1941" d="M0 0L1144.5 0L1144.5 87.99999999999989L0 87.99999999999989Z " stroke-dasharray="10,6" stroke="rgba(50,50,50,1)" stroke-width="2" fill-opacity="1" fill="#ffffff"></path><g id="SvgjsG1942"><text id="SvgjsText1943" font-family="微软雅黑" text-anchor="middle" font-size="13px" width="1125px" fill="#323232" font-weight="400" align="middle" lineHeight="125%" font-style="" opacity="1" y="33.37499999999994" transform="rotate(0)"></text></g></g><g id="SvgjsG1944" transform="translate(854.5,440.4886363636364)"><path id="SvgjsPath1945" d="M0 0L1144.5 0L1144.5 96L0 96Z " stroke-dasharray="10,6" stroke="rgba(50,50,50,1)" stroke-width="2" fill-opacity="1" fill="#ffffff"></path><g id="SvgjsG1946"><text id="SvgjsText1947" font-family="微软雅黑" text-anchor="middle" font-size="13px" width="1125px" fill="#323232" font-weight="400" align="middle" lineHeight="125%" font-style="" opacity="1" y="37.375" transform="rotate(0)"></text></g></g><g id="SvgjsG1948" transform="translate(847,25.00000000000003)"><path id="SvgjsPath1949" d="M0 0L1152 0L1152 187.74999999999997L0 187.74999999999997Z " stroke-dasharray="10,6" stroke="rgba(50,50,50,1)" stroke-width="2" fill-opacity="1" fill="#ffffff"></path><g id="SvgjsG1950"><text id="SvgjsText1951" font-family="微软雅黑" text-anchor="middle" font-size="13px" width="1132px" fill="#323232" font-weight="400" align="middle" lineHeight="125%" font-style="" opacity="1" y="83.24999999999999" transform="rotate(0)"></text></g></g><g id="SvgjsG1952" transform="translate(25,296.75)"><path id="SvgjsPath1953" d="M0 0L314 0L314 143.73863636363637L0 143.73863636363637Z " stroke-dasharray="10,6" stroke="rgba(50,50,50,1)" stroke-width="2" fill-opacity="1" fill="#ffffff"></path><g id="SvgjsG1954"><text id="SvgjsText1955" font-family="微软雅黑" text-anchor="middle" font-size="13px" width="294px" fill="#323232" font-weight="400" align="middle" lineHeight="125%" font-style="" opacity="1" y="61.24431818181819" transform="rotate(0)"></text></g></g><g id="SvgjsG1956" transform="translate(130,95.875)"><path id="SvgjsPath1957" d="M0 0L104 0L104 46L0 46Z " stroke="rgba(50,50,50,1)" stroke-width="2" fill-opacity="1" fill="#ffcdd2"></path><g id="SvgjsG1958"><text id="SvgjsText1959" font-family="微软雅黑" text-anchor="middle" font-size="13px" width="84px" fill="#323232" font-weight="400" align="middle" lineHeight="125%" font-style="" opacity="1" y="12.375" transform="rotate(0)"><tspan id="SvgjsTspan1960" dy="16" x="52"><tspan id="SvgjsTspan1961" style="text-decoration:;">entry4.js</tspan></tspan></text></g></g><g id="SvgjsG1962" transform="translate(320.5,29.363636363636374)"><path id="SvgjsPath1963" d="M0 0L411.5 0L427.5 16L427.5 179.02272727272725L0 179.02272727272725L0 0Z " stroke="none" fill-opacity="1" fill="#fff9c4"></path><path id="SvgjsPath1964" d="M411.5 0L411.5 16L427.5 16Z " stroke="none" fill-opacity="1" fill="#cdcdcd"></path><path id="SvgjsPath1965" d="M0 0L411.5 0L427.5 16L427.5 179.02272727272725L0 179.02272727272725L0 0Z " stroke="none" fill="none"></path><g id="SvgjsG1966"><text id="SvgjsText1967" font-family="微软雅黑" text-anchor="start" font-size="16px" width="408px" fill="#323232" font-weight="400" align="middle" lineHeight="125%" font-style="" opacity="1" y="5.511363636363626" transform="rotate(0)"><tspan id="SvgjsTspan1968" dy="20" x="10"><tspan id="SvgjsTspan1969" style="text-decoration:;">import {</tspan><tspan id="SvgjsTspan1970" style="text-decoration:;fill: rgb(255, 0, 0);">getG</tspan><tspan id="SvgjsTspan1971" style="text-decoration:;">} from "./item/common_____g.js";</tspan></tspan><tspan id="SvgjsTspan1972" dy="20" x="10"><tspan id="SvgjsTspan1973" style="text-decoration:;">import </tspan><tspan id="SvgjsTspan1974" style="text-decoration:;fill: rgb(255, 0, 0);">voca </tspan><tspan id="SvgjsTspan1975" style="text-decoration:;">from 'voca';</tspan></tspan><tspan id="SvgjsTspan1976" dy="20" x="10"><tspan id="SvgjsTspan1977" style="text-decoration:;fill: rgb(255, 0, 0);">voca.kebabCase</tspan><tspan id="SvgjsTspan1978" style="text-decoration:;">('goodbye blue sky');</tspan></tspan><tspan id="SvgjsTspan1979" dy="20" x="10"><tspan id="SvgjsTspan1980" style="text-decoration:;">import (</tspan><tspan id="SvgjsTspan1981" style="text-decoration:;fill: rgb(255, 0, 0);">"./async/async_B.js"</tspan><tspan id="SvgjsTspan1982" style="text-decoration:;">)</tspan></tspan><tspan id="SvgjsTspan1983" dy="20" x="10"><tspan id="SvgjsTspan1984" style="text-decoration:;">.then(bModule=&gt; {</tspan></tspan><tspan id="SvgjsTspan1985" dy="20" x="10"><tspan id="SvgjsTspan1986" style="text-decoration:;">    bModule.default();</tspan></tspan><tspan id="SvgjsTspan1987" dy="20" x="10"><tspan id="SvgjsTspan1988" style="text-decoration:;">});</tspan></tspan><tspan id="SvgjsTspan1989" dy="20" x="10"><tspan id="SvgjsTspan1990" style="text-decoration:;">console.info("getA2E", </tspan><tspan id="SvgjsTspan1991" style="text-decoration:;fill: rgb(255, 0, 0);">getG()</tspan><tspan id="SvgjsTspan1992" style="text-decoration:;">);</tspan></tspan></text></g></g><g id="SvgjsG1993"><path id="SvgjsPath1994" d="M235 118.875L277.25 118.875L277.25 118.87500000000006L317.9 118.87500000000006 " stroke="#323232" stroke-width="2" fill="none" marker-end="url(#SvgjsMarker1995)"></path></g><g id="SvgjsG1997" transform="translate(40,311.75)"><path id="SvgjsPath1998" d="M0 0L209 0L209 45L0 45Z " stroke="rgba(50,50,50,1)" stroke-width="2" fill-opacity="1" fill="#ffffff"></path><g id="SvgjsG1999"><text id="SvgjsText2000" font-family="微软雅黑" text-anchor="middle" font-size="13px" width="189px" fill="#323232" font-weight="400" align="middle" lineHeight="125%" font-style="" opacity="1" y="11.875" transform="rotate(0)"><tspan id="SvgjsTspan2001" dy="16" x="104.5"><tspan id="SvgjsTspan2002" style="text-decoration:;">source=generator.generate()</tspan></tspan></text></g></g><g id="SvgjsG2003" transform="translate(40,377.75)"><path id="SvgjsPath2004" d="M0 0L265 0L265 46L0 46Z " stroke="rgba(50,50,50,1)" stroke-width="2" fill-opacity="1" fill="#ffffff"></path><g id="SvgjsG2005"><text id="SvgjsText2006" font-family="微软雅黑" text-anchor="middle" font-size="13px" width="245px" fill="#323232" font-weight="400" align="middle" lineHeight="125%" font-style="" opacity="1" y="12.375" transform="rotate(0)"><tspan id="SvgjsTspan2007" dy="16" x="132.5"><tspan id="SvgjsTspan2008" style="text-decoration:;">source= JavascriptGenerator.generate()</tspan></tspan></text></g></g><g id="SvgjsG2009"><path id="SvgjsPath2010" d="M250 334.25L326 334.25L326 400.75L308.6 400.75 " stroke="#323232" stroke-width="2" fill="none" marker-end="url(#SvgjsMarker2011)"></path></g><g id="SvgjsG2013" transform="translate(229,326.75)"><path id="SvgjsPath2014" d="M0 0L120 0L120 40L0 40Z " stroke="none" fill="none"></path><g id="SvgjsG2015"><text id="SvgjsText2016" font-family="微软雅黑" text-anchor="middle" font-size="13px" width="120px" fill="#323232" font-weight="400" align="middle" lineHeight="125%" font-style="" opacity="1" y="9.375" transform="rotate(0)"><tspan id="SvgjsTspan2017" dy="16" x="60"><tspan id="SvgjsTspan2018" style="text-decoration:;">本质就是</tspan></tspan></text></g></g><g id="SvgjsG2019"><path id="SvgjsPath2020" d="M182 142.875L182 175.1306818181818L182 175.1306818181818L182 204.7863636363636 " stroke="#323232" stroke-width="2" fill="none" marker-end="url(#SvgjsMarker2021)"></path></g><g id="SvgjsG2023" transform="translate(83.5,208.38636363636363)"><path id="SvgjsPath2024" d="M0 0L197 0L197 48L0 48Z " stroke="rgba(50,50,50,1)" stroke-width="2" fill-opacity="1" fill="#ffffff"></path><g id="SvgjsG2025"><text id="SvgjsText2026" font-family="微软雅黑" text-anchor="middle" font-size="13px" width="177px" fill="#323232" font-weight="400" align="middle" lineHeight="125%" font-style="" opacity="1" y="13.375" transform="rotate(0)"><tspan id="SvgjsTspan2027" dy="16" x="98.5"><tspan id="SvgjsTspan2028" style="text-decoration:;">module.codeGeneration()</tspan></tspan></text></g></g><g id="SvgjsG2029"><path id="SvgjsPath2030" d="M182 257.3863636363636L182 276.5681818181818L182 276.5681818181818L182 293.15 " stroke="#323232" stroke-width="2" fill="none" marker-end="url(#SvgjsMarker2031)"></path></g><g id="SvgjsG2033" transform="translate(375.5,322.75000000000006)"><path id="SvgjsPath2034" d="M0 0L197 0L197 48L0 48Z " stroke="rgba(50,50,50,1)" stroke-width="2" fill-opacity="1" fill="#ffffff"></path><g id="SvgjsG2035"><text id="SvgjsText2036" font-family="微软雅黑" text-anchor="middle" font-size="13px" width="177px" fill="#323232" font-weight="400" align="middle" lineHeight="125%" font-style="" opacity="1" y="5.375" transform="rotate(0)"><tspan id="SvgjsTspan2037" dy="16" x="98.5"><tspan id="SvgjsTspan2038" style="text-decoration:;">处理同步依赖和异步依赖，触</tspan></tspan><tspan id="SvgjsTspan2039" dy="16" x="98.5"><tspan id="SvgjsTspan2040" style="text-decoration:;">发sourceDependency()</tspan></tspan></text></g></g><g id="SvgjsG2041" transform="translate(375.5,407.4886363636364)"><path id="SvgjsPath2042" d="M0 0L197 0L197 48L0 48Z " stroke="rgba(50,50,50,1)" stroke-width="2" fill-opacity="1" fill="#ffffff"></path><g id="SvgjsG2043"><text id="SvgjsText2044" font-family="微软雅黑" text-anchor="middle" font-size="13px" width="177px" fill="#323232" font-weight="400" align="middle" lineHeight="125%" font-style="" opacity="1" y="13.375" transform="rotate(0)"><tspan id="SvgjsTspan2045" dy="16" x="98.5"><tspan id="SvgjsTspan2046" style="text-decoration:;">sourceDependency()</tspan></tspan></text></g></g><g id="SvgjsG2047"><path id="SvgjsPath2048" d="M474 371.75000000000006L474 389.11931818181824L474 389.11931818181824L474 403.88863636363635 " stroke="#323232" stroke-width="2" fill="none" marker-end="url(#SvgjsMarker2049)"></path></g><g id="SvgjsG2051" transform="translate(610,352.1420454545454)"><path id="SvgjsPath2052" d="M0 0L197 0L197 50.738636363636374L0 50.738636363636374Z " stroke="rgba(50,50,50,1)" stroke-width="2" fill-opacity="1" fill="#ffffff"></path><g id="SvgjsG2053"><text id="SvgjsText2054" font-family="微软雅黑" text-anchor="middle" font-size="13px" width="177px" fill="#323232" font-weight="400" align="middle" lineHeight="125%" font-style="" opacity="1" y="6.744318181818187" transform="rotate(0)"><tspan id="SvgjsTspan2055" dy="16" x="98.5"><tspan id="SvgjsTspan2056" style="text-decoration:;">根据依赖dependency类型，获</tspan></tspan><tspan id="SvgjsTspan2057" dy="16" x="98.5"><tspan id="SvgjsTspan2058" style="text-decoration:;">取对应的template</tspan></tspan></text></g></g><g id="SvgjsG2059" transform="translate(610,464.75)"><path id="SvgjsPath2060" d="M0 0L197 0L197 48L0 48Z " stroke="rgba(50,50,50,1)" stroke-width="2" fill-opacity="1" fill="#ffffff"></path><g id="SvgjsG2061"><text id="SvgjsText2062" font-family="微软雅黑" text-anchor="middle" font-size="13px" width="177px" fill="#323232" font-weight="400" align="middle" lineHeight="125%" font-style="" opacity="1" y="13.375" transform="rotate(0)"><tspan id="SvgjsTspan2063" dy="16" x="98.5"><tspan id="SvgjsTspan2064" style="text-decoration:;">template.apply()</tspan></tspan></text></g></g><g id="SvgjsG2065" transform="translate(264,320.4886363636364)"><path id="SvgjsPath2066" d="M100 0Q91 0 91 9L91 61Q91 70 78 70Q91 70 91 79L91 131Q91 140 100 140 " stroke="rgba(50,50,50,1)" stroke-width="2" fill="none"></path><path id="SvgjsPath2067" d="M0 0L100 0L100 140L0 140Z " stroke="none" fill="none"></path><g id="SvgjsG2068"><text id="SvgjsText2069" font-family="微软雅黑" text-anchor="end" font-size="13px" width="73px" fill="#323232" font-weight="400" align="middle" lineHeight="125%" font-style="" opacity="1" y="59.375" transform="rotate(0)"></text></g></g><g id="SvgjsG2070" transform="translate(502.40909090909065,346.75000000000006)"><path id="SvgjsPath2071" d="M100 0Q91 0 91 9L91 75.36931818181819Q91 84.36931818181819 78 84.36931818181819Q91 84.36931818181819 91 93.36931818181819L91 159.73863636363637Q91 168.73863636363637 100 168.73863636363637 " stroke="rgba(50,50,50,1)" stroke-width="2" fill="none"></path><path id="SvgjsPath2072" d="M0 0L100 0L100 168.73863636363637L0 168.73863636363637Z " stroke="none" fill="none"></path><g id="SvgjsG2073"><text id="SvgjsText2074" font-family="微软雅黑" text-anchor="end" font-size="13px" width="73px" fill="#323232" font-weight="400" align="middle" lineHeight="125%" font-style="" opacity="1" y="73.74431818181819" transform="rotate(0)"></text></g></g><g id="SvgjsG2075"><path id="SvgjsPath2076" d="M708.5 403.88068181818176L708.5 433.8153409090909L708.5 433.8153409090909L708.5 461.15 " stroke="#323232" stroke-width="2" fill="none" marker-end="url(#SvgjsMarker2077)"></path></g><g id="SvgjsG2079" transform="translate(991,34.47727272727282)"><path id="SvgjsPath2080" d="M0 0L154 0L154 41.5L0 41.5Z " stroke="rgba(50,50,50,1)" stroke-width="2" fill-opacity="1" fill="#ffffff"></path><g id="SvgjsG2081"><text id="SvgjsText2082" font-family="微软雅黑" text-anchor="middle" font-size="13px" width="134px" fill="#323232" font-weight="400" align="middle" lineHeight="125%" font-style="" opacity="1" y="2.125" transform="rotate(0)"><tspan id="SvgjsTspan2083" dy="16" x="77"><tspan id="SvgjsTspan2084" style="text-decoration:;">顶部import依赖语句：</tspan></tspan><tspan id="SvgjsTspan2085" dy="16" x="77"><tspan id="SvgjsTspan2086" style="text-decoration:;fill: rgb(255, 0, 0);">import {getG}</tspan></tspan></text></g></g><g id="SvgjsG2087" transform="translate(870.5,117.50000000000006)"><path id="SvgjsPath2088" d="M0 0L183 0L183 44L0 44Z " stroke="rgba(50,50,50,1)" stroke-width="2" fill-opacity="1" fill="#ffffff"></path><g id="SvgjsG2089"><text id="SvgjsText2090" font-family="微软雅黑" text-anchor="middle" font-size="13px" width="163px" fill="#323232" font-weight="400" align="middle" lineHeight="125%" font-style="" opacity="1" y="3.375" transform="rotate(0)"><tspan id="SvgjsTspan2091" dy="16" x="91.5"><tspan id="SvgjsTspan2092" style="text-decoration:;">HarmonyImportSideEffect</tspan></tspan><tspan id="SvgjsTspan2093" dy="16" x="91.5"><tspan id="SvgjsTspan2094" style="text-decoration:;">Dependency</tspan></tspan></text></g></g><g id="SvgjsG2095" transform="translate(1308.5,34.47727272727282)"><path id="SvgjsPath2096" d="M0 0L154 0L154 39L0 39Z " stroke="rgba(50,50,50,1)" stroke-width="2" fill-opacity="1" fill="#ffffff"></path><g id="SvgjsG2097"><text id="SvgjsText2098" font-family="微软雅黑" text-anchor="middle" font-size="13px" width="134px" fill="#323232" font-weight="400" align="middle" lineHeight="125%" font-style="" opacity="1" y="0.875" transform="rotate(0)"><tspan id="SvgjsTspan2099" dy="16" x="77"><tspan id="SvgjsTspan2100" style="text-decoration:;">执行语句：</tspan><tspan id="SvgjsTspan2101" style="text-decoration:;fill: rgb(255, 0, 0);">getG()</tspan></tspan></text></g></g><g id="SvgjsG2102" transform="translate(1294,116.6022727272728)"><path id="SvgjsPath2103" d="M0 0L183 0L183 44L0 44Z " stroke="rgba(50,50,50,1)" stroke-width="2" fill-opacity="1" fill="#ffffff"></path><g id="SvgjsG2104"><text id="SvgjsText2105" font-family="微软雅黑" text-anchor="middle" font-size="13px" width="163px" fill="#323232" font-weight="400" align="middle" lineHeight="125%" font-style="" opacity="1" y="3.375" transform="rotate(0)"><tspan id="SvgjsTspan2106" dy="16" x="91.5"><tspan id="SvgjsTspan2107" style="text-decoration:;">HarmonyImportSpecifierDe</tspan></tspan><tspan id="SvgjsTspan2108" dy="16" x="91.5"><tspan id="SvgjsTspan2109" style="text-decoration:;">pendency</tspan></tspan></text></g></g><g id="SvgjsG2110" transform="translate(1554.5,30.97727272727282)"><path id="SvgjsPath2111" d="M0 0L154 0L154 42.5L0 42.5Z " stroke="rgba(50,50,50,1)" stroke-width="2" fill-opacity="1" fill="#ffffff"></path><g id="SvgjsG2112"><text id="SvgjsText2113" font-family="微软雅黑" text-anchor="middle" font-size="13px" width="134px" fill="#323232" font-weight="400" align="middle" lineHeight="125%" font-style="" opacity="1" y="2.625" transform="rotate(0)"><tspan id="SvgjsTspan2114" dy="16" x="77"><tspan id="SvgjsTspan2115" style="text-decoration:;">异步依赖加载语句：</tspan></tspan><tspan id="SvgjsTspan2116" dy="16" x="77"><tspan id="SvgjsTspan2117" style="text-decoration:;fill: rgb(255, 0, 0);">import("async_B.js")</tspan></tspan></text></g></g><g id="SvgjsG2118" transform="translate(1540,116.6022727272728)"><path id="SvgjsPath2119" d="M0 0L183 0L183 44L0 44Z " stroke="rgba(50,50,50,1)" stroke-width="2" fill-opacity="1" fill="#ffffff"></path><g id="SvgjsG2120"><text id="SvgjsText2121" font-family="微软雅黑" text-anchor="middle" font-size="13px" width="163px" fill="#323232" font-weight="400" align="middle" lineHeight="125%" font-style="" opacity="1" y="11.375" transform="rotate(0)"><tspan id="SvgjsTspan2122" dy="16" x="91.5"><tspan id="SvgjsTspan2123" style="text-decoration:;">ImportDependency</tspan></tspan></text></g></g><g id="SvgjsG2124" transform="translate(870.5,353.4886363636364)"><path id="SvgjsPath2125" d="M0 0L183 0L183 44L0 44Z " stroke="rgba(50,50,50,1)" stroke-width="2" fill-opacity="1" fill="#ffffff"></path><g id="SvgjsG2126"><text id="SvgjsText2127" font-family="微软雅黑" text-anchor="middle" font-size="13px" width="163px" fill="#323232" font-weight="400" align="middle" lineHeight="125%" font-style="" opacity="1" y="3.375" transform="rotate(0)"><tspan id="SvgjsTspan2128" dy="16" x="91.5"><tspan id="SvgjsTspan2129" style="text-decoration:;">HarmonyImportSideEffect</tspan></tspan><tspan id="SvgjsTspan2130" dy="16" x="91.5"><tspan id="SvgjsTspan2131" style="text-decoration:;">DependencyTemplate</tspan></tspan></text></g></g><g id="SvgjsG2132" transform="translate(1294,353.4886363636364)"><path id="SvgjsPath2133" d="M0 0L183 0L183 44L0 44Z " stroke="rgba(50,50,50,1)" stroke-width="2" fill-opacity="1" fill="#ffffff"></path><g id="SvgjsG2134"><text id="SvgjsText2135" font-family="微软雅黑" text-anchor="middle" font-size="13px" width="163px" fill="#323232" font-weight="400" align="middle" lineHeight="125%" font-style="" opacity="1" y="3.375" transform="rotate(0)"><tspan id="SvgjsTspan2136" dy="16" x="91.5"><tspan id="SvgjsTspan2137" style="text-decoration:;">HarmonyImportSpecifierDe</tspan></tspan><tspan id="SvgjsTspan2138" dy="16" x="91.5"><tspan id="SvgjsTspan2139" style="text-decoration:;">pendencyTemplate</tspan></tspan></text></g></g><g id="SvgjsG2140" transform="translate(1540,353.4886363636364)"><path id="SvgjsPath2141" d="M0 0L183 0L183 44L0 44Z " stroke="rgba(50,50,50,1)" stroke-width="2" fill-opacity="1" fill="#ffffff"></path><g id="SvgjsG2142"><text id="SvgjsText2143" font-family="微软雅黑" text-anchor="middle" font-size="13px" width="163px" fill="#323232" font-weight="400" align="middle" lineHeight="125%" font-style="" opacity="1" y="3.375" transform="rotate(0)"><tspan id="SvgjsTspan2144" dy="16" x="91.5"><tspan id="SvgjsTspan2145" style="text-decoration:;">ImportDependency</tspan></tspan><tspan id="SvgjsTspan2146" dy="16" x="91.5"><tspan id="SvgjsTspan2147" style="text-decoration:;">Template</tspan></tspan></text></g></g><g id="SvgjsG2148" transform="translate(1077.5,353.4886363636364)"><path id="SvgjsPath2149" d="M0 0L183 0L183 44L0 44Z " stroke="rgba(50,50,50,1)" stroke-width="2" fill-opacity="1" fill="#ffffff"></path><g id="SvgjsG2150"><text id="SvgjsText2151" font-family="微软雅黑" text-anchor="middle" font-size="13px" width="163px" fill="#323232" font-weight="400" align="middle" lineHeight="125%" font-style="" opacity="1" y="3.375" transform="rotate(0)"><tspan id="SvgjsTspan2152" dy="16" x="91.5"><tspan id="SvgjsTspan2153" style="text-decoration:;">ConstDependency</tspan></tspan><tspan id="SvgjsTspan2154" dy="16" x="91.5"><tspan id="SvgjsTspan2155" style="text-decoration:;">Template</tspan></tspan></text></g></g><g id="SvgjsG2156"><path id="SvgjsPath2157" d="M1068 76.9772727272728L1068 96.73863636363643L962 96.73863636363643L962 113.90000000000006 " stroke="#323232" stroke-width="2" fill="none" marker-end="url(#SvgjsMarker2158)"></path></g><g id="SvgjsG2160"><path id="SvgjsPath2161" d="M962 162.50000000000006L962 257.49431818181824L962 257.49431818181824L962 349.88863636363635 " stroke="#323232" stroke-width="2" fill="none" marker-end="url(#SvgjsMarker2162)"></path></g><g id="SvgjsG2164"><path id="SvgjsPath2165" d="M1385.5 74.4772727272728L1385.5 95.0397727272728L1385.5 95.0397727272728L1385.5 113.00227272727281 " stroke="#323232" stroke-width="2" fill="none" marker-end="url(#SvgjsMarker2166)"></path></g><g id="SvgjsG2168"><path id="SvgjsPath2169" d="M1385.5 161.6022727272728L1385.5 257.0454545454546L1385.5 257.0454545454546L1385.5 349.88863636363635 " stroke="#323232" stroke-width="2" fill="none" marker-end="url(#SvgjsMarker2170)"></path></g><g id="SvgjsG2172"><path id="SvgjsPath2173" d="M1631.5 74.4772727272728L1631.5 95.0397727272728L1631.5 95.0397727272728L1631.5 113.00227272727281 " stroke="#323232" stroke-width="2" fill="none" marker-end="url(#SvgjsMarker2174)"></path></g><g id="SvgjsG2176"><path id="SvgjsPath2177" d="M1631.5 161.6022727272728L1631.5 257.0454545454546L1631.5 257.0454545454546L1631.5 349.88863636363635 " stroke="#323232" stroke-width="2" fill="none" marker-end="url(#SvgjsMarker2178)"></path></g><g id="SvgjsG2180" transform="translate(905.75,461.4886363636364)"><path id="SvgjsPath2181" d="M0 0L112.5 0L112.5 54L0 54Z " stroke="rgba(50,50,50,1)" stroke-width="2" fill-opacity="1" fill="#ffffff"></path><g id="SvgjsG2182"><text id="SvgjsText2183" font-family="微软雅黑" text-anchor="middle" font-size="13px" width="93px" fill="#323232" font-weight="400" align="middle" lineHeight="125%" font-style="" opacity="1" y="8.375" transform="rotate(0)"><tspan id="SvgjsTspan2184" dy="16" x="56.5"><tspan id="SvgjsTspan2185" style="text-decoration:;">initFragments</tspan></tspan><tspan id="SvgjsTspan2186" dy="16" x="56.5"><tspan id="SvgjsTspan2187" style="text-decoration:;">收集import语句</tspan></tspan></text></g></g><g id="SvgjsG2188"><path id="SvgjsPath2189" d="M962 398.4886363636364L962 429.4886363636364L962 429.4886363636364L962 457.88863636363635 " stroke="#323232" stroke-width="2" fill="none" marker-end="url(#SvgjsMarker2190)"></path></g><g id="SvgjsG2192" transform="translate(1077.5,461.4886363636364)"><path id="SvgjsPath2193" d="M0 0L183 0L183 54L0 54Z " stroke="rgba(50,50,50,1)" stroke-width="2" fill-opacity="1" fill="#ffffff"></path><g id="SvgjsG2194"><text id="SvgjsText2195" font-family="微软雅黑" text-anchor="middle" font-size="13px" width="163px" fill="#323232" font-weight="400" align="middle" lineHeight="125%" font-style="" opacity="1" y="8.375" transform="rotate(0)"><tspan id="SvgjsTspan2196" dy="16" x="91.5"><tspan id="SvgjsTspan2197" style="text-decoration:;">ReplaceSource</tspan></tspan><tspan id="SvgjsTspan2198" dy="16" x="91.5"><tspan id="SvgjsTspan2199" style="text-decoration:;">收集替换语句的位置</tspan></tspan></text></g></g><g id="SvgjsG2200"><path id="SvgjsPath2201" d="M1169 398.4886363636364L1169 429.4886363636364L1169 429.4886363636364L1169 457.88863636363635 " stroke="#323232" stroke-width="2" fill="none" marker-end="url(#SvgjsMarker2202)"></path></g><g id="SvgjsG2204" transform="translate(1294,461.4886363636364)"><path id="SvgjsPath2205" d="M0 0L183 0L183 54L0 54Z " stroke="rgba(50,50,50,1)" stroke-width="2" fill-opacity="1" fill="#ffffff"></path><g id="SvgjsG2206"><text id="SvgjsText2207" font-family="微软雅黑" text-anchor="middle" font-size="13px" width="163px" fill="#323232" font-weight="400" align="middle" lineHeight="125%" font-style="" opacity="1" y="8.375" transform="rotate(0)"><tspan id="SvgjsTspan2208" dy="16" x="91.5"><tspan id="SvgjsTspan2209" style="text-decoration:;">ReplaceSource</tspan></tspan><tspan id="SvgjsTspan2210" dy="16" x="91.5"><tspan id="SvgjsTspan2211" style="text-decoration:;">收集替换语句的位置</tspan></tspan></text></g></g><g id="SvgjsG2212"><path id="SvgjsPath2213" d="M1385.5 398.4886363636364L1385.5 429.4886363636364L1385.5 429.4886363636364L1385.5 457.88863636363635 " stroke="#323232" stroke-width="2" fill="none" marker-end="url(#SvgjsMarker2214)"></path></g><g id="SvgjsG2216" transform="translate(1540,461.4886363636364)"><path id="SvgjsPath2217" d="M0 0L183 0L183 54L0 54Z " stroke="rgba(50,50,50,1)" stroke-width="2" fill-opacity="1" fill="#ffffff"></path><g id="SvgjsG2218"><text id="SvgjsText2219" font-family="微软雅黑" text-anchor="middle" font-size="13px" width="163px" fill="#323232" font-weight="400" align="middle" lineHeight="125%" font-style="" opacity="1" y="8.375" transform="rotate(0)"><tspan id="SvgjsTspan2220" dy="16" x="91.5"><tspan id="SvgjsTspan2221" style="text-decoration:;">ReplaceSource</tspan></tspan><tspan id="SvgjsTspan2222" dy="16" x="91.5"><tspan id="SvgjsTspan2223" style="text-decoration:;">收集替换语句的位置</tspan></tspan></text></g></g><g id="SvgjsG2224"><path id="SvgjsPath2225" d="M1631.5 398.4886363636364L1631.5 429.4886363636364L1631.5 429.4886363636364L1631.5 457.88863636363635 " stroke="#323232" stroke-width="2" fill="none" marker-end="url(#SvgjsMarker2226)"></path></g><g id="SvgjsG2228" transform="translate(379.5,638.3636363636364)"><path id="SvgjsPath2229" d="M0 0L189 0L189 47.77272727272725L0 47.77272727272725Z " stroke="rgba(50,50,50,1)" stroke-width="2" fill-opacity="1" fill="#ffffff"></path><g id="SvgjsG2230"><text id="SvgjsText2231" font-family="微软雅黑" text-anchor="middle" font-size="13px" width="169px" fill="#323232" font-weight="400" align="middle" lineHeight="125%" font-style="" opacity="1" y="13.261363636363626" transform="rotate(0)"><tspan id="SvgjsTspan2232" dy="16" x="94.5"><tspan id="SvgjsTspan2233" style="text-decoration:;">InitFragment.addToSource()</tspan></tspan></text></g></g><g id="SvgjsG2234" transform="translate(1077.5,120.50000000000006)"><path id="SvgjsPath2235" d="M0 0L183 0L183 38L0 38Z " stroke="rgba(50,50,50,1)" stroke-width="2" fill-opacity="1" fill="#ffffff"></path><g id="SvgjsG2236"><text id="SvgjsText2237" font-family="微软雅黑" text-anchor="middle" font-size="13px" width="163px" fill="#323232" font-weight="400" align="middle" lineHeight="125%" font-style="" opacity="1" y="8.375" transform="rotate(0)"><tspan id="SvgjsTspan2238" dy="16" x="91.5"><tspan id="SvgjsTspan2239" style="text-decoration:;">ConstDependency</tspan></tspan></text></g></g><g id="SvgjsG2240"><path id="SvgjsPath2241" d="M1068 76.9772727272728L1068 97.23863636363643L1169 97.23863636363643L1169 116.90000000000006 " stroke="#323232" stroke-width="2" fill="none" marker-end="url(#SvgjsMarker2242)"></path></g><g id="SvgjsG2244"><path id="SvgjsPath2245" d="M1169 159.50000000000006L1169 255.99431818181824L1169 255.99431818181824L1169 349.88863636363635 " stroke="#323232" stroke-width="2" fill="none" marker-end="url(#SvgjsMarker2246)"></path></g><g id="SvgjsG2248"><path id="SvgjsPath2249" d="M748.0000000000002 118.87500000000006L797.5000000000001 118.87500000000006L797.5000000000001 118.87499999999994L843.4 118.87499999999994 " stroke="#323232" stroke-width="2" fill="none" marker-end="url(#SvgjsMarker2250)"></path></g><g id="SvgjsG2252"><path id="SvgjsPath2253" d="M808 377.51136363636357L830.75 377.51136363636357L830.75 377.51136363636357L850.9 377.51136363636357 " stroke="#323232" stroke-width="2" fill="none" marker-end="url(#SvgjsMarker2254)"></path></g><g id="SvgjsG2256"><path id="SvgjsPath2257" d="M808 488.75L830.75 488.75L830.75 488.4886363636364L850.9 488.4886363636364 " stroke="#323232" stroke-width="2" fill="none" marker-end="url(#SvgjsMarker2258)"></path></g><g id="SvgjsG2260"><path id="SvgjsPath2261" d="M474 456.4886363636364L474 546.9261363636364L474 546.9261363636364L474 634.7636363636364 " stroke="#323232" stroke-width="2" fill="none" marker-end="url(#SvgjsMarker2262)"></path></g><g id="SvgjsG2264" transform="translate(407.20454545454527,280.4886363636364)"><path id="SvgjsPath2265" d="M0 0L133.59090909090946 0L133.59090909090946 40L0 40Z " stroke="none" fill="none"></path><g id="SvgjsG2266"><text id="SvgjsText2267" font-family="微软雅黑" text-anchor="middle" font-size="18px" width="134px" fill="#ff0000" font-weight="700" align="middle" lineHeight="125%" font-style="" opacity="1" y="4.75" transform="rotate(0)"><tspan id="SvgjsTspan2268" dy="22" x="67"><tspan id="SvgjsTspan2269" style="text-decoration:;">sourceModule</tspan></tspan></text></g></g><g id="SvgjsG2270" transform="translate(605,555.4659090909091)"><path id="SvgjsPath2271" d="M0 0L339 0L339 68.65340909090901L0 68.65340909090901Z " stroke="rgba(50,50,50,1)" stroke-width="2" fill-opacity="1" fill="#ffffff"></path><g id="SvgjsG2272"><text id="SvgjsText2273" font-family="微软雅黑" text-anchor="start" font-size="13px" width="319px" fill="#323232" font-weight="400" align="middle" lineHeight="125%" font-style="" opacity="1" y="7.701704545454504" transform="rotate(0)"><tspan id="SvgjsTspan2274" dy="16" x="10"><tspan id="SvgjsTspan2275" style="text-decoration:;">for (let fragment of keyedFragments.values()) {</tspan></tspan><tspan id="SvgjsTspan2276" dy="16" x="10"><tspan id="SvgjsTspan2277" style="text-decoration:;">    concatSource.add(fragment.getContent(context));</tspan></tspan><tspan id="SvgjsTspan2278" dy="16" x="10"><tspan id="SvgjsTspan2279" style="text-decoration:;">}</tspan></tspan></text></g></g><g id="SvgjsG2280" transform="translate(605,651.0965909090909)"><path id="SvgjsPath2281" d="M0 0L339 0L339 42.65340909090912L0 42.65340909090912Z " stroke="rgba(50,50,50,1)" stroke-width="2" fill-opacity="1" fill="#ffffff"></path><g id="SvgjsG2282"><text id="SvgjsText2283" font-family="微软雅黑" text-anchor="middle" font-size="13px" width="319px" fill="#323232" font-weight="400" align="middle" lineHeight="125%" font-style="" opacity="1" y="10.701704545454561" transform="rotate(0)"><tspan id="SvgjsTspan2284" dy="16" x="169.5"><tspan id="SvgjsTspan2285" style="text-decoration:;">concatSource.add(source);</tspan></tspan></text></g></g><g id="SvgjsG2286" transform="translate(605,718.8011363636366)"><path id="SvgjsPath2287" d="M0 0L339 0L339 65.62499999999955L0 65.62499999999955Z " stroke="rgba(50,50,50,1)" stroke-width="2" fill-opacity="1" fill="#ffffff"></path><g id="SvgjsG2288"><text id="SvgjsText2289" font-family="微软雅黑" text-anchor="start" font-size="13px" width="319px" fill="#323232" font-weight="400" align="middle" lineHeight="125%" font-style="" opacity="1" y="6.187499999999773" transform="rotate(0)"><tspan id="SvgjsTspan2290" dy="16" x="10"><tspan id="SvgjsTspan2291" style="text-decoration:;">for (const content of endContents.reverse()) {</tspan></tspan><tspan id="SvgjsTspan2292" dy="16" x="10"><tspan id="SvgjsTspan2293" style="text-decoration:;">    concatSource.add(content);</tspan></tspan><tspan id="SvgjsTspan2294" dy="16" x="10"><tspan id="SvgjsTspan2295" style="text-decoration:;">}</tspan></tspan></text></g></g><g id="SvgjsG2296" transform="translate(491.40909090909065,542.4886363636364)"><path id="SvgjsPath2297" d="M105.59090909090935 0Q96.59090909090935 0 96.59090909090935 9L96.59090909090935 111.96874999999989Q96.59090909090935 120.96874999999989 83.59090909090935 120.96874999999989Q96.59090909090935 120.96874999999989 96.59090909090935 129.9687499999999L96.59090909090935 232.93749999999977Q96.59090909090935 241.93749999999977 105.59090909090935 241.93749999999977 " stroke="rgba(50,50,50,1)" stroke-width="2" fill="none"></path><path id="SvgjsPath2298" d="M0 0L105.59090909090935 0L105.59090909090935 241.93749999999977L0 241.93749999999977Z " stroke="none" fill="none"></path><g id="SvgjsG2299"><text id="SvgjsText2300" font-family="微软雅黑" text-anchor="end" font-size="13px" width="79px" fill="#323232" font-weight="400" align="middle" lineHeight="125%" font-style="" opacity="1" y="110.34374999999989" transform="rotate(0)"></text></g></g><g id="SvgjsG2301"><path id="SvgjsPath2302" d="M774.5 625.1193181818181L774.5 637.6079545454545L774.5 637.6079545454545L774.5 647.4965909090909 " stroke="#323232" stroke-width="2" fill="none" marker-end="url(#SvgjsMarker2303)"></path></g><g id="SvgjsG2305"><path id="SvgjsPath2306" d="M774.5 694.75L774.5 706.2755681818182L774.5 706.2755681818182L774.5 715.2011363636366 " stroke="#323232" stroke-width="2" fill="none" marker-end="url(#SvgjsMarker2307)"></path></g><g id="SvgjsG2309"><path id="SvgjsPath2310" d="M962 516.4886363636364L962 589.7926136363636L947.6 589.7926136363636 " stroke="#323232" stroke-width="2" fill="none" marker-end="url(#SvgjsMarker2311)"></path></g><g id="SvgjsG2313"><path id="SvgjsPath2314" d="M1169 516.4886363636364L1169 672.4232954545455L947.6 672.4232954545455 " stroke="#323232" stroke-width="2" fill="none" marker-end="url(#SvgjsMarker2315)"></path></g><g id="SvgjsG2317"><path id="SvgjsPath2318" d="M1385.5 516.4886363636364L1385.5 672.4232954545455L947.6 672.4232954545455 " stroke="#323232" stroke-width="2" fill="none" marker-end="url(#SvgjsMarker2319)"></path></g><g id="SvgjsG2321"><path id="SvgjsPath2322" d="M1631.5 516.4886363636364L1631.5 672.4232954545455L947.6 672.4232954545455 " stroke="#323232" stroke-width="2" fill="none" marker-end="url(#SvgjsMarker2323)"></path></g><g id="SvgjsG2325" transform="translate(1763,158.50000000000006)"><path id="SvgjsPath2326" d="M0 0L183 0L183 44L0 44Z " stroke="rgba(50,50,50,1)" stroke-width="2" fill-opacity="1" fill="#ffffff"></path><g id="SvgjsG2327"><text id="SvgjsText2328" font-family="微软雅黑" text-anchor="middle" font-size="13px" width="163px" fill="#323232" font-weight="400" align="middle" lineHeight="125%" font-style="" opacity="1" y="3.375" transform="rotate(0)"><tspan id="SvgjsTspan2329" dy="16" x="91.5"><tspan id="SvgjsTspan2330" style="text-decoration:;">HarmonyCompatibility</tspan></tspan><tspan id="SvgjsTspan2331" dy="16" x="91.5"><tspan id="SvgjsTspan2332" style="text-decoration:;">Dependency</tspan></tspan></text></g></g><g id="SvgjsG2333" transform="translate(1759.25,30.97727272727282)"><path id="SvgjsPath2334" d="M0 0L190.5 0L190.5 91.77272727272718L0 91.77272727272718Z " stroke="rgba(50,50,50,1)" stroke-width="2" fill-opacity="1" fill="#ffffff"></path><g id="SvgjsG2335"><text id="SvgjsText2336" font-family="微软雅黑" text-anchor="start" font-size="13px" width="171px" fill="#323232" font-weight="400" align="middle" lineHeight="125%" font-style="" opacity="1" y="3.2613636363635905" transform="rotate(0)"><tspan id="SvgjsTspan2337" dy="16" x="10"><tspan id="SvgjsTspan2338" style="text-decoration:;">检测ast.body是否含有：1. </tspan></tspan><tspan id="SvgjsTspan2339" dy="16" x="10"><tspan id="SvgjsTspan2340" style="text-decoration:;">ImportDeclaration</tspan></tspan><tspan id="SvgjsTspan2341" dy="16" x="10"><tspan id="SvgjsTspan2342" style="text-decoration:;">2.ExportDefaultDeclaration</tspan></tspan><tspan id="SvgjsTspan2343" dy="16" x="10"><tspan id="SvgjsTspan2344" style="text-decoration:;">3.ExportNamedDeclaration</tspan></tspan><tspan id="SvgjsTspan2345" dy="16" x="10"><tspan id="SvgjsTspan2346" style="text-decoration:;">4.ExportAllDeclaration</tspan></tspan></text></g></g><g id="SvgjsG2347"><path id="SvgjsPath2348" d="M1854.5 123.75L1854.5 140.62500000000003L1854.5 140.62500000000003L1854.5 154.90000000000006 " stroke="#323232" stroke-width="2" fill="none" marker-end="url(#SvgjsMarker2349)"></path></g><g id="SvgjsG2351" transform="translate(1760,353.4886363636364)"><path id="SvgjsPath2352" d="M0 0L189 0L189 44L0 44Z " stroke="rgba(50,50,50,1)" stroke-width="2" fill-opacity="1" fill="#ffffff"></path><g id="SvgjsG2353"><text id="SvgjsText2354" font-family="微软雅黑" text-anchor="middle" font-size="13px" width="169px" fill="#323232" font-weight="400" align="middle" lineHeight="125%" font-style="" opacity="1" y="3.375" transform="rotate(0)"><tspan id="SvgjsTspan2355" dy="16" x="94.5"><tspan id="SvgjsTspan2356" style="text-decoration:;">HarmonyExportDependency</tspan></tspan><tspan id="SvgjsTspan2357" dy="16" x="94.5"><tspan id="SvgjsTspan2358" style="text-decoration:;">Template</tspan></tspan></text></g></g><g id="SvgjsG2359"><path id="SvgjsPath2360" d="M1854.5 203.50000000000006L1854.5 277.99431818181824L1854.5 277.99431818181824L1854.5 349.88863636363635 " stroke="#323232" stroke-width="2" fill="none" marker-end="url(#SvgjsMarker2361)"></path></g><g id="SvgjsG2363" transform="translate(1763,461.4886363636364)"><path id="SvgjsPath2364" d="M0 0L183 0L183 54L0 54Z " stroke="rgba(50,50,50,1)" stroke-width="2" fill-opacity="1" fill="#ffffff"></path><g id="SvgjsG2365"><text id="SvgjsText2366" font-family="微软雅黑" text-anchor="middle" font-size="13px" width="163px" fill="#323232" font-weight="400" align="middle" lineHeight="125%" font-style="" opacity="1" y="8.375" transform="rotate(0)"><tspan id="SvgjsTspan2367" dy="16" x="91.5"><tspan id="SvgjsTspan2368" style="text-decoration:;">initFragments</tspan></tspan><tspan id="SvgjsTspan2369" dy="16" x="91.5"><tspan id="SvgjsTspan2370" style="text-decoration:;">收集语句</tspan></tspan></text></g></g><g id="SvgjsG2371"><path id="SvgjsPath2372" d="M1854.5 398.4886363636364L1854.5 429.4886363636364L1854.5 429.4886363636364L1854.5 457.88863636363635 " stroke="#323232" stroke-width="2" fill="none" marker-end="url(#SvgjsMarker2373)"></path></g><g id="SvgjsG2375"><path id="SvgjsPath2376" d="M1854.5 516.4886363636364L1854.5 589.7926136363636L947.6 589.7926136363636 " stroke="#323232" stroke-width="2" fill="none" marker-end="url(#SvgjsMarker2377)"></path></g><g id="SvgjsG2379" transform="translate(1692,590.375)"><path id="SvgjsPath2380" d="M0 0L291 0L307 16L307 43L0 43L0 0Z " stroke="none" fill-opacity="1" fill="#ffe0b2"></path><path id="SvgjsPath2381" d="M291 0L291 16L307 16Z " stroke="none" fill-opacity="1" fill="#cdcdcd"></path><path id="SvgjsPath2382" d="M0 0L291 0L307 16L307 43L0 43L0 0Z " stroke="none" fill="none"></path><g id="SvgjsG2383"><text id="SvgjsText2384" font-family="微软雅黑" text-anchor="middle" font-size="13px" width="287px" fill="#323232" font-weight="400" align="middle" lineHeight="125%" font-style="" opacity="1" y="10.875" transform="rotate(0)"><tspan id="SvgjsTspan2385" dy="16" x="153.5"><tspan id="SvgjsTspan2386" style="text-decoration:;">__webpack_require__.r(__webpack_exports__);</tspan></tspan></text></g></g><g id="SvgjsG2387" transform="translate(641.75,821.0965909090909)"><path id="SvgjsPath2388" d="M0 0L265.5 0L265.5 49.9488636363634L0 49.9488636363634Z " stroke="rgba(50,50,50,1)" stroke-width="2" fill-opacity="1" fill="#ffcdd2"></path><g id="SvgjsG2389"><text id="SvgjsText2390" font-family="微软雅黑" text-anchor="middle" font-size="13px" width="246px" fill="#323232" font-weight="400" align="middle" lineHeight="125%" font-style="" opacity="1" y="14.3494318181817" transform="rotate(0)"><tspan id="SvgjsTspan2391" dy="16" x="133"><tspan id="SvgjsTspan2392" style="text-decoration:;">拿到module最终生成代码concatSource</tspan></tspan></text></g></g><g id="SvgjsG2393"><path id="SvgjsPath2394" d="M774.5 785.4261363636361L774.5 802.7613636363635L774.5 802.7613636363635L774.5 817.4965909090909 " stroke="#323232" stroke-width="2" fill="none" marker-end="url(#SvgjsMarker2395)"></path></g></svg>