<svg id="SvgjsSvg1000" xmlns="http://www.w3.org/2000/svg" version="1.1" xmlns:xlink="http://www.w3.org/1999/xlink" xmlns:svgjs="http://svgjs.com/svgjs" width="2024.5" height="896.09375"><defs id="SvgjsDefs1001"><marker id="SvgjsMarker1069" markerWidth="14" markerHeight="10" refX="10" refY="5" viewBox="0 0 14 10" orient="auto" markerUnits="userSpaceOnUse" stroke-dasharray="0,0"><path id="SvgjsPath1070" d="M0 0L14 5L0 10L0 0 " fill="#323232" stroke="#323232" stroke-width="1"></path></marker><marker id="SvgjsMarker1085" markerWidth="14" markerHeight="10" refX="10" refY="5" viewBox="0 0 14 10" orient="auto" markerUnits="userSpaceOnUse" stroke-dasharray="0,0"><path id="SvgjsPath1086" d="M0 0L14 5L0 10L0 0 " fill="#323232" stroke="#323232" stroke-width="1"></path></marker><marker id="SvgjsMarker1095" markerWidth="14" markerHeight="10" refX="10" refY="5" viewBox="0 0 14 10" orient="auto" markerUnits="userSpaceOnUse" stroke-dasharray="0,0"><path id="SvgjsPath1096" d="M0 0L14 5L0 10L0 0 " fill="#323232" stroke="#323232" stroke-width="1"></path></marker><marker id="SvgjsMarker1105" markerWidth="14" markerHeight="10" refX="10" refY="5" viewBox="0 0 14 10" orient="auto" markerUnits="userSpaceOnUse" stroke-dasharray="0,0"><path id="SvgjsPath1106" d="M0 0L14 5L0 10L0 0 " fill="#323232" stroke="#323232" stroke-width="1"></path></marker><marker id="SvgjsMarker1123" markerWidth="14" markerHeight="10" refX="10" refY="5" viewBox="0 0 14 10" orient="auto" markerUnits="userSpaceOnUse" stroke-dasharray="0,0"><path id="SvgjsPath1124" d="M0 0L14 5L0 10L0 0 " fill="#323232" stroke="#323232" stroke-width="1"></path></marker><marker id="SvgjsMarker1151" markerWidth="14" markerHeight="10" refX="10" refY="5" viewBox="0 0 14 10" orient="auto" markerUnits="userSpaceOnUse" stroke-dasharray="0,0"><path id="SvgjsPath1152" d="M0 0L14 5L0 10L0 0 " fill="#323232" stroke="#323232" stroke-width="1"></path></marker><marker id="SvgjsMarker1232" markerWidth="14" markerHeight="10" refX="10" refY="5" viewBox="0 0 14 10" orient="auto" markerUnits="userSpaceOnUse" stroke-dasharray="0,0"><path id="SvgjsPath1233" d="M0 0L14 5L0 10L0 0 " fill="#323232" stroke="#323232" stroke-width="1"></path></marker><marker id="SvgjsMarker1236" markerWidth="14" markerHeight="10" refX="10" refY="5" viewBox="0 0 14 10" orient="auto" markerUnits="userSpaceOnUse" stroke-dasharray="0,0"><path id="SvgjsPath1237" d="M0 0L14 5L0 10L0 0 " fill="#323232" stroke="#323232" stroke-width="1"></path></marker><marker id="SvgjsMarker1240" markerWidth="14" markerHeight="10" refX="10" refY="5" viewBox="0 0 14 10" orient="auto" markerUnits="userSpaceOnUse" stroke-dasharray="0,0"><path id="SvgjsPath1241" d="M0 0L14 5L0 10L0 0 " fill="#323232" stroke="#323232" stroke-width="1"></path></marker><marker id="SvgjsMarker1244" markerWidth="14" markerHeight="10" refX="10" refY="5" viewBox="0 0 14 10" orient="auto" markerUnits="userSpaceOnUse" stroke-dasharray="0,0"><path id="SvgjsPath1245" d="M0 0L14 5L0 10L0 0 " fill="#323232" stroke="#323232" stroke-width="1"></path></marker><marker id="SvgjsMarker1248" markerWidth="14" markerHeight="10" refX="10" refY="5" viewBox="0 0 14 10" orient="auto" markerUnits="userSpaceOnUse" stroke-dasharray="0,0"><path id="SvgjsPath1249" d="M0 0L14 5L0 10L0 0 " fill="#323232" stroke="#323232" stroke-width="1"></path></marker><marker id="SvgjsMarker1252" markerWidth="14" markerHeight="10" refX="10" refY="5" viewBox="0 0 14 10" orient="auto" markerUnits="userSpaceOnUse" stroke-dasharray="0,0"><path id="SvgjsPath1253" d="M0 0L14 5L0 10L0 0 " fill="#323232" stroke="#323232" stroke-width="1"></path></marker><marker id="SvgjsMarker1264" markerWidth="14" markerHeight="10" refX="10" refY="5" viewBox="0 0 14 10" orient="auto" markerUnits="userSpaceOnUse" stroke-dasharray="0,0"><path id="SvgjsPath1265" d="M0 0L14 5L0 10L0 0 " fill="#323232" stroke="#323232" stroke-width="1"></path></marker><marker id="SvgjsMarker1276" markerWidth="14" markerHeight="10" refX="10" refY="5" viewBox="0 0 14 10" orient="auto" markerUnits="userSpaceOnUse" stroke-dasharray="0,0"><path id="SvgjsPath1277" d="M0 0L14 5L0 10L0 0 " fill="#323232" stroke="#323232" stroke-width="1"></path></marker><marker id="SvgjsMarker1288" markerWidth="14" markerHeight="10" refX="10" refY="5" viewBox="0 0 14 10" orient="auto" markerUnits="userSpaceOnUse" stroke-dasharray="0,0"><path id="SvgjsPath1289" d="M0 0L14 5L0 10L0 0 " fill="#323232" stroke="#323232" stroke-width="1"></path></marker><marker id="SvgjsMarker1300" markerWidth="14" markerHeight="10" refX="10" refY="5" viewBox="0 0 14 10" orient="auto" markerUnits="userSpaceOnUse" stroke-dasharray="0,0"><path id="SvgjsPath1301" d="M0 0L14 5L0 10L0 0 " fill="#323232" stroke="#323232" stroke-width="1"></path></marker><marker id="SvgjsMarker1316" markerWidth="14" markerHeight="10" refX="10" refY="5" viewBox="0 0 14 10" orient="auto" markerUnits="userSpaceOnUse" stroke-dasharray="0,0"><path id="SvgjsPath1317" d="M0 0L14 5L0 10L0 0 " fill="#323232" stroke="#323232" stroke-width="1"></path></marker><marker id="SvgjsMarker1320" markerWidth="14" markerHeight="10" refX="10" refY="5" viewBox="0 0 14 10" orient="auto" markerUnits="userSpaceOnUse" stroke-dasharray="0,0"><path id="SvgjsPath1321" d="M0 0L14 5L0 10L0 0 " fill="#323232" stroke="#323232" stroke-width="1"></path></marker><marker id="SvgjsMarker1324" markerWidth="14" markerHeight="10" refX="10" refY="5" viewBox="0 0 14 10" orient="auto" markerUnits="userSpaceOnUse" stroke-dasharray="0,0"><path id="SvgjsPath1325" d="M0 0L14 5L0 10L0 0 " fill="#323232" stroke="#323232" stroke-width="1"></path></marker><marker id="SvgjsMarker1328" markerWidth="14" markerHeight="10" refX="10" refY="5" viewBox="0 0 14 10" orient="auto" markerUnits="userSpaceOnUse" stroke-dasharray="0,0"><path id="SvgjsPath1329" d="M0 0L14 5L0 10L0 0 " fill="#323232" stroke="#323232" stroke-width="1"></path></marker><marker id="SvgjsMarker1332" markerWidth="14" markerHeight="10" refX="10" refY="5" viewBox="0 0 14 10" orient="auto" markerUnits="userSpaceOnUse" stroke-dasharray="0,0"><path id="SvgjsPath1333" d="M0 0L14 5L0 10L0 0 " fill="#323232" stroke="#323232" stroke-width="1"></path></marker><marker id="SvgjsMarker1336" markerWidth="14" markerHeight="10" refX="10" refY="5" viewBox="0 0 14 10" orient="auto" markerUnits="userSpaceOnUse" stroke-dasharray="0,0"><path id="SvgjsPath1337" d="M0 0L14 5L0 10L0 0 " fill="#323232" stroke="#323232" stroke-width="1"></path></marker><marker id="SvgjsMarker1377" markerWidth="14" markerHeight="10" refX="10" refY="5" viewBox="0 0 14 10" orient="auto" markerUnits="userSpaceOnUse" stroke-dasharray="0,0"><path id="SvgjsPath1378" d="M0 0L14 5L0 10L0 0 " fill="#323232" stroke="#323232" stroke-width="1"></path></marker><marker id="SvgjsMarker1381" markerWidth="14" markerHeight="10" refX="10" refY="5" viewBox="0 0 14 10" orient="auto" markerUnits="userSpaceOnUse" stroke-dasharray="0,0"><path id="SvgjsPath1382" d="M0 0L14 5L0 10L0 0 " fill="#323232" stroke="#323232" stroke-width="1"></path></marker><marker id="SvgjsMarker1385" markerWidth="14" markerHeight="10" refX="10" refY="5" viewBox="0 0 14 10" orient="auto" markerUnits="userSpaceOnUse" stroke-dasharray="0,0"><path id="SvgjsPath1386" d="M0 0L14 5L0 10L0 0 " fill="#323232" stroke="#323232" stroke-width="1"></path></marker><marker id="SvgjsMarker1389" markerWidth="14" markerHeight="10" refX="10" refY="5" viewBox="0 0 14 10" orient="auto" markerUnits="userSpaceOnUse" stroke-dasharray="0,0"><path id="SvgjsPath1390" d="M0 0L14 5L0 10L0 0 " fill="#323232" stroke="#323232" stroke-width="1"></path></marker><marker id="SvgjsMarker1393" markerWidth="14" markerHeight="10" refX="10" refY="5" viewBox="0 0 14 10" orient="auto" markerUnits="userSpaceOnUse" stroke-dasharray="0,0"><path id="SvgjsPath1394" d="M0 0L14 5L0 10L0 0 " fill="#323232" stroke="#323232" stroke-width="1"></path></marker><marker id="SvgjsMarker1397" markerWidth="14" markerHeight="10" refX="10" refY="5" viewBox="0 0 14 10" orient="auto" markerUnits="userSpaceOnUse" stroke-dasharray="0,0"><path id="SvgjsPath1398" d="M0 0L14 5L0 10L0 0 " fill="#323232" stroke="#323232" stroke-width="1"></path></marker><marker id="SvgjsMarker1423" markerWidth="14" markerHeight="10" refX="10" refY="5" viewBox="0 0 14 10" orient="auto" markerUnits="userSpaceOnUse" stroke-dasharray="0,0"><path id="SvgjsPath1424" d="M0 0L14 5L0 10L0 0 " fill="#323232" stroke="#323232" stroke-width="1"></path></marker><marker id="SvgjsMarker1435" markerWidth="14" markerHeight="10" refX="10" refY="5" viewBox="0 0 14 10" orient="auto" markerUnits="userSpaceOnUse" stroke-dasharray="0,0"><path id="SvgjsPath1436" d="M0 0L14 5L0 10L0 0 " fill="#323232" stroke="#323232" stroke-width="1"></path></marker><marker id="SvgjsMarker1447" markerWidth="14" markerHeight="10" refX="10" refY="5" viewBox="0 0 14 10" orient="auto" markerUnits="userSpaceOnUse" stroke-dasharray="0,0"><path id="SvgjsPath1448" d="M0 0L14 5L0 10L0 0 " fill="#323232" stroke="#323232" stroke-width="1"></path></marker><marker id="SvgjsMarker1451" markerWidth="14" markerHeight="10" refX="10" refY="5" viewBox="0 0 14 10" orient="auto" markerUnits="userSpaceOnUse" stroke-dasharray="0,0"><path id="SvgjsPath1452" d="M0 0L14 5L0 10L0 0 " fill="#323232" stroke="#323232" stroke-width="1"></path></marker><marker id="SvgjsMarker1469" markerWidth="14" markerHeight="10" refX="10" refY="5" viewBox="0 0 14 10" orient="auto" markerUnits="userSpaceOnUse" stroke-dasharray="0,0"><path id="SvgjsPath1470" d="M0 0L14 5L0 10L0 0 " fill="#323232" stroke="#323232" stroke-width="1"></path></marker><pattern patternUnits="userSpaceOnUse" id="pattern_mark" width="300" height="300"><text x="-50" y="150" fill="rgba(229,229,229,0.8)" font-size="18" transform="rotate(-45, 150, 150)">https://github.com/wbccb</text></pattern></defs><g id="svgbackgroundid"><defs></defs><rect id="SvgjsRect1008" width="2024.5" height="896.09375" fill="#ffffff"></rect></g><rect fill="url(#pattern_mark)" transform="translate(-20,-81.25)" width="2130" height="1600" id="rect_mark" pointer-events="none"></rect><g id="SvgjsG1010" transform="translate(366,316.22727272727275)"><path id="SvgjsPath1011" d="M0 0L213 0L213 148.52272727272725L0 148.52272727272725Z " stroke-dasharray="10,6" stroke="rgba(50,50,50,1)" stroke-width="2" fill-opacity="1" fill="#ffffff"></path><g id="SvgjsG1012"><text id="SvgjsText1013" font-family="微软雅黑" text-anchor="middle" font-size="13px" width="193px" fill="#323232" font-weight="400" align="middle" lineHeight="125%" font-style="" opacity="1" y="63.636363636363626" transform="rotate(0)"></text></g></g><g id="SvgjsG1014" transform="translate(854.5,333.5113636363636)"><path id="SvgjsPath1015" d="M0 0L1144.5 0L1144.5 87.99999999999989L0 87.99999999999989Z " stroke-dasharray="10,6" stroke="rgba(50,50,50,1)" stroke-width="2" fill-opacity="1" fill="#ffffff"></path><g id="SvgjsG1016"><text id="SvgjsText1017" font-family="微软雅黑" text-anchor="middle" font-size="13px" width="1125px" fill="#323232" font-weight="400" align="middle" lineHeight="125%" font-style="" opacity="1" y="33.37499999999994" transform="rotate(0)"></text></g></g><g id="SvgjsG1018" transform="translate(854.5,440.4886363636364)"><path id="SvgjsPath1019" d="M0 0L1144.5 0L1144.5 96L0 96Z " stroke-dasharray="10,6" stroke="rgba(50,50,50,1)" stroke-width="2" fill-opacity="1" fill="#ffffff"></path><g id="SvgjsG1020"><text id="SvgjsText1021" font-family="微软雅黑" text-anchor="middle" font-size="13px" width="1125px" fill="#323232" font-weight="400" align="middle" lineHeight="125%" font-style="" opacity="1" y="37.375" transform="rotate(0)"></text></g></g><g id="SvgjsG1022" transform="translate(847,25.00000000000003)"><path id="SvgjsPath1023" d="M0 0L1152 0L1152 187.74999999999997L0 187.74999999999997Z " stroke-dasharray="10,6" stroke="rgba(50,50,50,1)" stroke-width="2" fill-opacity="1" fill="#ffffff"></path><g id="SvgjsG1024"><text id="SvgjsText1025" font-family="微软雅黑" text-anchor="middle" font-size="13px" width="1132px" fill="#323232" font-weight="400" align="middle" lineHeight="125%" font-style="" opacity="1" y="83.24999999999999" transform="rotate(0)"></text></g></g><g id="SvgjsG1026" transform="translate(25,296.75)"><path id="SvgjsPath1027" d="M0 0L314 0L314 143.73863636363637L0 143.73863636363637Z " stroke-dasharray="10,6" stroke="rgba(50,50,50,1)" stroke-width="2" fill-opacity="1" fill="#ffffff"></path><g id="SvgjsG1028"><text id="SvgjsText1029" font-family="微软雅黑" text-anchor="middle" font-size="13px" width="294px" fill="#323232" font-weight="400" align="middle" lineHeight="125%" font-style="" opacity="1" y="61.24431818181819" transform="rotate(0)"></text></g></g><g id="SvgjsG1030" transform="translate(130,95.875)"><path id="SvgjsPath1031" d="M0 0L104 0L104 46L0 46Z " stroke="rgba(50,50,50,1)" stroke-width="2" fill-opacity="1" fill="#ffcdd2"></path><g id="SvgjsG1032"><text id="SvgjsText1033" font-family="微软雅黑" text-anchor="middle" font-size="13px" width="84px" fill="#323232" font-weight="400" align="middle" lineHeight="125%" font-style="" opacity="1" y="12.375" transform="rotate(0)"><tspan id="SvgjsTspan1034" dy="16" x="52"><tspan id="SvgjsTspan1035" style="text-decoration:;">entry4.js</tspan></tspan></text></g></g><g id="SvgjsG1036" transform="translate(320.5,29.363636363636374)"><path id="SvgjsPath1037" d="M0 0L411.5 0L427.5 16L427.5 179.02272727272725L0 179.02272727272725L0 0Z " stroke="none" fill-opacity="1" fill="#fff9c4"></path><path id="SvgjsPath1038" d="M411.5 0L411.5 16L427.5 16Z " stroke="none" fill-opacity="1" fill="#cdcdcd"></path><path id="SvgjsPath1039" d="M0 0L411.5 0L427.5 16L427.5 179.02272727272725L0 179.02272727272725L0 0Z " stroke="none" fill="none"></path><g id="SvgjsG1040"><text id="SvgjsText1041" font-family="微软雅黑" text-anchor="start" font-size="16px" width="408px" fill="#323232" font-weight="400" align="middle" lineHeight="125%" font-style="" opacity="1" y="5.511363636363626" transform="rotate(0)"><tspan id="SvgjsTspan1042" dy="20" x="10"><tspan id="SvgjsTspan1043" style="text-decoration:;">import {</tspan><tspan id="SvgjsTspan1044" style="text-decoration:;fill: rgb(255, 0, 0);">getG</tspan><tspan id="SvgjsTspan1045" style="text-decoration:;">} from "./item/common_____g.js";</tspan></tspan><tspan id="SvgjsTspan1046" dy="20" x="10"><tspan id="SvgjsTspan1047" style="text-decoration:;">import </tspan><tspan id="SvgjsTspan1048" style="text-decoration:;fill: rgb(255, 0, 0);">voca </tspan><tspan id="SvgjsTspan1049" style="text-decoration:;">from 'voca';</tspan></tspan><tspan id="SvgjsTspan1050" dy="20" x="10"><tspan id="SvgjsTspan1051" style="text-decoration:;fill: rgb(255, 0, 0);">voca.kebabCase</tspan><tspan id="SvgjsTspan1052" style="text-decoration:;">('goodbye blue sky');</tspan></tspan><tspan id="SvgjsTspan1053" dy="20" x="10"><tspan id="SvgjsTspan1054" style="text-decoration:;">import (</tspan><tspan id="SvgjsTspan1055" style="text-decoration:;fill: rgb(255, 0, 0);">"./async/async_B.js"</tspan><tspan id="SvgjsTspan1056" style="text-decoration:;">)</tspan></tspan><tspan id="SvgjsTspan1057" dy="20" x="10"><tspan id="SvgjsTspan1058" style="text-decoration:;">.then(bModule=&gt; {</tspan></tspan><tspan id="SvgjsTspan1059" dy="20" x="10"><tspan id="SvgjsTspan1060" style="text-decoration:;">    bModule.default();</tspan></tspan><tspan id="SvgjsTspan1061" dy="20" x="10"><tspan id="SvgjsTspan1062" style="text-decoration:;">});</tspan></tspan><tspan id="SvgjsTspan1063" dy="20" x="10"><tspan id="SvgjsTspan1064" style="text-decoration:;">console.info("getA2E", </tspan><tspan id="SvgjsTspan1065" style="text-decoration:;fill: rgb(255, 0, 0);">getG()</tspan><tspan id="SvgjsTspan1066" style="text-decoration:;">);</tspan></tspan></text></g></g><g id="SvgjsG1067"><path id="SvgjsPath1068" d="M235 118.875L277.25 118.875L277.25 118.875L317.9 118.875 " stroke="#323232" stroke-width="2" fill="none" marker-end="url(#SvgjsMarker1069)"></path></g><g id="SvgjsG1071" transform="translate(40,311.75)"><path id="SvgjsPath1072" d="M0 0L209 0L209 45L0 45Z " stroke="rgba(50,50,50,1)" stroke-width="2" fill-opacity="1" fill="#ffffff"></path><g id="SvgjsG1073"><text id="SvgjsText1074" font-family="微软雅黑" text-anchor="middle" font-size="13px" width="189px" fill="#323232" font-weight="400" align="middle" lineHeight="125%" font-style="" opacity="1" y="11.875" transform="rotate(0)"><tspan id="SvgjsTspan1075" dy="16" x="104.5"><tspan id="SvgjsTspan1076" style="text-decoration:;">source=generator.generate()</tspan></tspan></text></g></g><g id="SvgjsG1077" transform="translate(40,377.75)"><path id="SvgjsPath1078" d="M0 0L265 0L265 46L0 46Z " stroke="rgba(50,50,50,1)" stroke-width="2" fill-opacity="1" fill="#ffffff"></path><g id="SvgjsG1079"><text id="SvgjsText1080" font-family="微软雅黑" text-anchor="middle" font-size="13px" width="245px" fill="#323232" font-weight="400" align="middle" lineHeight="125%" font-style="" opacity="1" y="12.375" transform="rotate(0)"><tspan id="SvgjsTspan1081" dy="16" x="132.5"><tspan id="SvgjsTspan1082" style="text-decoration:;">source= JavascriptGenerator.generate()</tspan></tspan></text></g></g><g id="SvgjsG1083"><path id="SvgjsPath1084" d="M250 334.25L326 334.25L326 400.75L308.6 400.75 " stroke="#323232" stroke-width="2" fill="none" marker-end="url(#SvgjsMarker1085)"></path></g><g id="SvgjsG1087" transform="translate(229,326.75)"><path id="SvgjsPath1088" d="M0 0L120 0L120 40L0 40Z " stroke="none" fill="none"></path><g id="SvgjsG1089"><text id="SvgjsText1090" font-family="微软雅黑" text-anchor="middle" font-size="13px" width="120px" fill="#323232" font-weight="400" align="middle" lineHeight="125%" font-style="" opacity="1" y="9.375" transform="rotate(0)"><tspan id="SvgjsTspan1091" dy="16" x="60"><tspan id="SvgjsTspan1092" style="text-decoration:;">本质就是</tspan></tspan></text></g></g><g id="SvgjsG1093"><path id="SvgjsPath1094" d="M182 142.875L182 175.1306818181818L182 175.1306818181818L182 204.7863636363636 " stroke="#323232" stroke-width="2" fill="none" marker-end="url(#SvgjsMarker1095)"></path></g><g id="SvgjsG1097" transform="translate(83.5,208.38636363636363)"><path id="SvgjsPath1098" d="M0 0L197 0L197 48L0 48Z " stroke="rgba(50,50,50,1)" stroke-width="2" fill-opacity="1" fill="#ffffff"></path><g id="SvgjsG1099"><text id="SvgjsText1100" font-family="微软雅黑" text-anchor="middle" font-size="13px" width="177px" fill="#323232" font-weight="400" align="middle" lineHeight="125%" font-style="" opacity="1" y="13.375" transform="rotate(0)"><tspan id="SvgjsTspan1101" dy="16" x="98.5"><tspan id="SvgjsTspan1102" style="text-decoration:;">module.codeGeneration()</tspan></tspan></text></g></g><g id="SvgjsG1103"><path id="SvgjsPath1104" d="M182 257.3863636363636L182 276.5681818181818L182 276.5681818181818L182 293.15 " stroke="#323232" stroke-width="2" fill="none" marker-end="url(#SvgjsMarker1105)"></path></g><g id="SvgjsG1107" transform="translate(375.5,322.75000000000006)"><path id="SvgjsPath1108" d="M0 0L197 0L197 48L0 48Z " stroke="rgba(50,50,50,1)" stroke-width="2" fill-opacity="1" fill="#ffffff"></path><g id="SvgjsG1109"><text id="SvgjsText1110" font-family="微软雅黑" text-anchor="middle" font-size="13px" width="177px" fill="#323232" font-weight="400" align="middle" lineHeight="125%" font-style="" opacity="1" y="5.375" transform="rotate(0)"><tspan id="SvgjsTspan1111" dy="16" x="98.5"><tspan id="SvgjsTspan1112" style="text-decoration:;">处理同步依赖和异步依赖，触</tspan></tspan><tspan id="SvgjsTspan1113" dy="16" x="98.5"><tspan id="SvgjsTspan1114" style="text-decoration:;">发sourceDependency()</tspan></tspan></text></g></g><g id="SvgjsG1115" transform="translate(375.5,407.4886363636364)"><path id="SvgjsPath1116" d="M0 0L197 0L197 48L0 48Z " stroke="rgba(50,50,50,1)" stroke-width="2" fill-opacity="1" fill="#ffffff"></path><g id="SvgjsG1117"><text id="SvgjsText1118" font-family="微软雅黑" text-anchor="middle" font-size="13px" width="177px" fill="#323232" font-weight="400" align="middle" lineHeight="125%" font-style="" opacity="1" y="13.375" transform="rotate(0)"><tspan id="SvgjsTspan1119" dy="16" x="98.5"><tspan id="SvgjsTspan1120" style="text-decoration:;">sourceDependency()</tspan></tspan></text></g></g><g id="SvgjsG1121"><path id="SvgjsPath1122" d="M474 371.75000000000006L474 389.11931818181824L474 389.11931818181824L474 403.88863636363635 " stroke="#323232" stroke-width="2" fill="none" marker-end="url(#SvgjsMarker1123)"></path></g><g id="SvgjsG1125" transform="translate(610,352.1420454545454)"><path id="SvgjsPath1126" d="M0 0L197 0L197 50.738636363636374L0 50.738636363636374Z " stroke="rgba(50,50,50,1)" stroke-width="2" fill-opacity="1" fill="#ffffff"></path><g id="SvgjsG1127"><text id="SvgjsText1128" font-family="微软雅黑" text-anchor="middle" font-size="13px" width="177px" fill="#323232" font-weight="400" align="middle" lineHeight="125%" font-style="" opacity="1" y="6.744318181818187" transform="rotate(0)"><tspan id="SvgjsTspan1129" dy="16" x="98.5"><tspan id="SvgjsTspan1130" style="text-decoration:;">根据依赖dependency类型，获</tspan></tspan><tspan id="SvgjsTspan1131" dy="16" x="98.5"><tspan id="SvgjsTspan1132" style="text-decoration:;">取对应的template</tspan></tspan></text></g></g><g id="SvgjsG1133" transform="translate(610,464.75)"><path id="SvgjsPath1134" d="M0 0L197 0L197 48L0 48Z " stroke="rgba(50,50,50,1)" stroke-width="2" fill-opacity="1" fill="#ffffff"></path><g id="SvgjsG1135"><text id="SvgjsText1136" font-family="微软雅黑" text-anchor="middle" font-size="13px" width="177px" fill="#323232" font-weight="400" align="middle" lineHeight="125%" font-style="" opacity="1" y="13.375" transform="rotate(0)"><tspan id="SvgjsTspan1137" dy="16" x="98.5"><tspan id="SvgjsTspan1138" style="text-decoration:;">template.apply()</tspan></tspan></text></g></g><g id="SvgjsG1139" transform="translate(264,320.4886363636364)"><path id="SvgjsPath1140" d="M100 0Q91 0 91 9L91 61Q91 70 78 70Q91 70 91 79L91 131Q91 140 100 140 " stroke="rgba(50,50,50,1)" stroke-width="2" fill="none"></path><path id="SvgjsPath1141" d="M0 0L100 0L100 140L0 140Z " stroke="none" fill="none"></path><g id="SvgjsG1142"><text id="SvgjsText1143" font-family="微软雅黑" text-anchor="end" font-size="13px" width="73px" fill="#323232" font-weight="400" align="middle" lineHeight="125%" font-style="" opacity="1" y="59.375" transform="rotate(0)"></text></g></g><g id="SvgjsG1144" transform="translate(502.40909090909065,346.75000000000006)"><path id="SvgjsPath1145" d="M100 0Q91 0 91 9L91 75.36931818181819Q91 84.36931818181819 78 84.36931818181819Q91 84.36931818181819 91 93.36931818181819L91 159.73863636363637Q91 168.73863636363637 100 168.73863636363637 " stroke="rgba(50,50,50,1)" stroke-width="2" fill="none"></path><path id="SvgjsPath1146" d="M0 0L100 0L100 168.73863636363637L0 168.73863636363637Z " stroke="none" fill="none"></path><g id="SvgjsG1147"><text id="SvgjsText1148" font-family="微软雅黑" text-anchor="end" font-size="13px" width="73px" fill="#323232" font-weight="400" align="middle" lineHeight="125%" font-style="" opacity="1" y="73.74431818181819" transform="rotate(0)"></text></g></g><g id="SvgjsG1149"><path id="SvgjsPath1150" d="M708.5 403.88068181818176L708.5 433.8153409090909L708.5 433.8153409090909L708.5 461.15 " stroke="#323232" stroke-width="2" fill="none" marker-end="url(#SvgjsMarker1151)"></path></g><g id="SvgjsG1153" transform="translate(991,34.47727272727282)"><path id="SvgjsPath1154" d="M0 0L154 0L154 41.5L0 41.5Z " stroke="rgba(50,50,50,1)" stroke-width="2" fill-opacity="1" fill="#ffffff"></path><g id="SvgjsG1155"><text id="SvgjsText1156" font-family="微软雅黑" text-anchor="middle" font-size="13px" width="134px" fill="#323232" font-weight="400" align="middle" lineHeight="125%" font-style="" opacity="1" y="2.125" transform="rotate(0)"><tspan id="SvgjsTspan1157" dy="16" x="77"><tspan id="SvgjsTspan1158" style="text-decoration:;">顶部import依赖语句：</tspan></tspan><tspan id="SvgjsTspan1159" dy="16" x="77"><tspan id="SvgjsTspan1160" style="text-decoration:;fill: rgb(255, 0, 0);">import {getG}</tspan></tspan></text></g></g><g id="SvgjsG1161" transform="translate(870.5,117.50000000000006)"><path id="SvgjsPath1162" d="M0 0L183 0L183 44L0 44Z " stroke="rgba(50,50,50,1)" stroke-width="2" fill-opacity="1" fill="#ffffff"></path><g id="SvgjsG1163"><text id="SvgjsText1164" font-family="微软雅黑" text-anchor="middle" font-size="13px" width="163px" fill="#323232" font-weight="400" align="middle" lineHeight="125%" font-style="" opacity="1" y="3.375" transform="rotate(0)"><tspan id="SvgjsTspan1165" dy="16" x="91.5"><tspan id="SvgjsTspan1166" style="text-decoration:;">HarmonyImportSideEffect</tspan></tspan><tspan id="SvgjsTspan1167" dy="16" x="91.5"><tspan id="SvgjsTspan1168" style="text-decoration:;">Dependency</tspan></tspan></text></g></g><g id="SvgjsG1169" transform="translate(1308.5,34.47727272727282)"><path id="SvgjsPath1170" d="M0 0L154 0L154 39L0 39Z " stroke="rgba(50,50,50,1)" stroke-width="2" fill-opacity="1" fill="#ffffff"></path><g id="SvgjsG1171"><text id="SvgjsText1172" font-family="微软雅黑" text-anchor="middle" font-size="13px" width="134px" fill="#323232" font-weight="400" align="middle" lineHeight="125%" font-style="" opacity="1" y="0.875" transform="rotate(0)"><tspan id="SvgjsTspan1173" dy="16" x="77"><tspan id="SvgjsTspan1174" style="text-decoration:;">执行语句：</tspan><tspan id="SvgjsTspan1175" style="text-decoration:;fill: rgb(255, 0, 0);">getG()</tspan></tspan></text></g></g><g id="SvgjsG1176" transform="translate(1294,116.6022727272728)"><path id="SvgjsPath1177" d="M0 0L183 0L183 44L0 44Z " stroke="rgba(50,50,50,1)" stroke-width="2" fill-opacity="1" fill="#ffffff"></path><g id="SvgjsG1178"><text id="SvgjsText1179" font-family="微软雅黑" text-anchor="middle" font-size="13px" width="163px" fill="#323232" font-weight="400" align="middle" lineHeight="125%" font-style="" opacity="1" y="3.375" transform="rotate(0)"><tspan id="SvgjsTspan1180" dy="16" x="91.5"><tspan id="SvgjsTspan1181" style="text-decoration:;">HarmonyImportSpecifierDe</tspan></tspan><tspan id="SvgjsTspan1182" dy="16" x="91.5"><tspan id="SvgjsTspan1183" style="text-decoration:;">pendency</tspan></tspan></text></g></g><g id="SvgjsG1184" transform="translate(1554.5,30.97727272727282)"><path id="SvgjsPath1185" d="M0 0L154 0L154 42.5L0 42.5Z " stroke="rgba(50,50,50,1)" stroke-width="2" fill-opacity="1" fill="#ffffff"></path><g id="SvgjsG1186"><text id="SvgjsText1187" font-family="微软雅黑" text-anchor="middle" font-size="13px" width="134px" fill="#323232" font-weight="400" align="middle" lineHeight="125%" font-style="" opacity="1" y="2.625" transform="rotate(0)"><tspan id="SvgjsTspan1188" dy="16" x="77"><tspan id="SvgjsTspan1189" style="text-decoration:;">异步依赖加载语句：</tspan></tspan><tspan id="SvgjsTspan1190" dy="16" x="77"><tspan id="SvgjsTspan1191" style="text-decoration:;fill: rgb(255, 0, 0);">import("async_B.js")</tspan></tspan></text></g></g><g id="SvgjsG1192" transform="translate(1540,116.6022727272728)"><path id="SvgjsPath1193" d="M0 0L183 0L183 44L0 44Z " stroke="rgba(50,50,50,1)" stroke-width="2" fill-opacity="1" fill="#ffffff"></path><g id="SvgjsG1194"><text id="SvgjsText1195" font-family="微软雅黑" text-anchor="middle" font-size="13px" width="163px" fill="#323232" font-weight="400" align="middle" lineHeight="125%" font-style="" opacity="1" y="11.375" transform="rotate(0)"><tspan id="SvgjsTspan1196" dy="16" x="91.5"><tspan id="SvgjsTspan1197" style="text-decoration:;">ImportDependency</tspan></tspan></text></g></g><g id="SvgjsG1198" transform="translate(870.5,353.4886363636364)"><path id="SvgjsPath1199" d="M0 0L183 0L183 44L0 44Z " stroke="rgba(50,50,50,1)" stroke-width="2" fill-opacity="1" fill="#ffffff"></path><g id="SvgjsG1200"><text id="SvgjsText1201" font-family="微软雅黑" text-anchor="middle" font-size="13px" width="163px" fill="#323232" font-weight="400" align="middle" lineHeight="125%" font-style="" opacity="1" y="3.375" transform="rotate(0)"><tspan id="SvgjsTspan1202" dy="16" x="91.5"><tspan id="SvgjsTspan1203" style="text-decoration:;">HarmonyImportSideEffect</tspan></tspan><tspan id="SvgjsTspan1204" dy="16" x="91.5"><tspan id="SvgjsTspan1205" style="text-decoration:;">DependencyTemplate</tspan></tspan></text></g></g><g id="SvgjsG1206" transform="translate(1294,353.4886363636364)"><path id="SvgjsPath1207" d="M0 0L183 0L183 44L0 44Z " stroke="rgba(50,50,50,1)" stroke-width="2" fill-opacity="1" fill="#ffffff"></path><g id="SvgjsG1208"><text id="SvgjsText1209" font-family="微软雅黑" text-anchor="middle" font-size="13px" width="163px" fill="#323232" font-weight="400" align="middle" lineHeight="125%" font-style="" opacity="1" y="3.375" transform="rotate(0)"><tspan id="SvgjsTspan1210" dy="16" x="91.5"><tspan id="SvgjsTspan1211" style="text-decoration:;">HarmonyImportSpecifierDe</tspan></tspan><tspan id="SvgjsTspan1212" dy="16" x="91.5"><tspan id="SvgjsTspan1213" style="text-decoration:;">pendencyTemplate</tspan></tspan></text></g></g><g id="SvgjsG1214" transform="translate(1540,353.4886363636364)"><path id="SvgjsPath1215" d="M0 0L183 0L183 44L0 44Z " stroke="rgba(50,50,50,1)" stroke-width="2" fill-opacity="1" fill="#ffffff"></path><g id="SvgjsG1216"><text id="SvgjsText1217" font-family="微软雅黑" text-anchor="middle" font-size="13px" width="163px" fill="#323232" font-weight="400" align="middle" lineHeight="125%" font-style="" opacity="1" y="3.375" transform="rotate(0)"><tspan id="SvgjsTspan1218" dy="16" x="91.5"><tspan id="SvgjsTspan1219" style="text-decoration:;">ImportDependency</tspan></tspan><tspan id="SvgjsTspan1220" dy="16" x="91.5"><tspan id="SvgjsTspan1221" style="text-decoration:;">Template</tspan></tspan></text></g></g><g id="SvgjsG1222" transform="translate(1077.5,353.4886363636364)"><path id="SvgjsPath1223" d="M0 0L183 0L183 44L0 44Z " stroke="rgba(50,50,50,1)" stroke-width="2" fill-opacity="1" fill="#ffffff"></path><g id="SvgjsG1224"><text id="SvgjsText1225" font-family="微软雅黑" text-anchor="middle" font-size="13px" width="163px" fill="#323232" font-weight="400" align="middle" lineHeight="125%" font-style="" opacity="1" y="3.375" transform="rotate(0)"><tspan id="SvgjsTspan1226" dy="16" x="91.5"><tspan id="SvgjsTspan1227" style="text-decoration:;">ConstDependency</tspan></tspan><tspan id="SvgjsTspan1228" dy="16" x="91.5"><tspan id="SvgjsTspan1229" style="text-decoration:;">Template</tspan></tspan></text></g></g><g id="SvgjsG1230"><path id="SvgjsPath1231" d="M1068 76.9772727272728L1068 96.73863636363643L962 96.73863636363643L962 113.90000000000006 " stroke="#323232" stroke-width="2" fill="none" marker-end="url(#SvgjsMarker1232)"></path></g><g id="SvgjsG1234"><path id="SvgjsPath1235" d="M962 162.50000000000006L962 257.49431818181824L962 257.49431818181824L962 349.88863636363635 " stroke="#323232" stroke-width="2" fill="none" marker-end="url(#SvgjsMarker1236)"></path></g><g id="SvgjsG1238"><path id="SvgjsPath1239" d="M1385.5 74.4772727272728L1385.5 95.0397727272728L1385.5 95.0397727272728L1385.5 113.00227272727281 " stroke="#323232" stroke-width="2" fill="none" marker-end="url(#SvgjsMarker1240)"></path></g><g id="SvgjsG1242"><path id="SvgjsPath1243" d="M1385.5 161.6022727272728L1385.5 257.0454545454546L1385.5 257.0454545454546L1385.5 349.88863636363635 " stroke="#323232" stroke-width="2" fill="none" marker-end="url(#SvgjsMarker1244)"></path></g><g id="SvgjsG1246"><path id="SvgjsPath1247" d="M1631.5 74.4772727272728L1631.5 95.0397727272728L1631.5 95.0397727272728L1631.5 113.00227272727281 " stroke="#323232" stroke-width="2" fill="none" marker-end="url(#SvgjsMarker1248)"></path></g><g id="SvgjsG1250"><path id="SvgjsPath1251" d="M1631.5 161.6022727272728L1631.5 257.0454545454546L1631.5 257.0454545454546L1631.5 349.88863636363635 " stroke="#323232" stroke-width="2" fill="none" marker-end="url(#SvgjsMarker1252)"></path></g><g id="SvgjsG1254" transform="translate(905.75,461.4886363636364)"><path id="SvgjsPath1255" d="M0 0L112.5 0L112.5 54L0 54Z " stroke="rgba(50,50,50,1)" stroke-width="2" fill-opacity="1" fill="#ffffff"></path><g id="SvgjsG1256"><text id="SvgjsText1257" font-family="微软雅黑" text-anchor="middle" font-size="13px" width="93px" fill="#323232" font-weight="400" align="middle" lineHeight="125%" font-style="" opacity="1" y="8.375" transform="rotate(0)"><tspan id="SvgjsTspan1258" dy="16" x="56.5"><tspan id="SvgjsTspan1259" style="text-decoration:;">initFragments</tspan></tspan><tspan id="SvgjsTspan1260" dy="16" x="56.5"><tspan id="SvgjsTspan1261" style="text-decoration:;">收集import语句</tspan></tspan></text></g></g><g id="SvgjsG1262"><path id="SvgjsPath1263" d="M962 398.4886363636364L962 429.4886363636364L962 429.4886363636364L962 457.88863636363635 " stroke="#323232" stroke-width="2" fill="none" marker-end="url(#SvgjsMarker1264)"></path></g><g id="SvgjsG1266" transform="translate(1077.5,461.4886363636364)"><path id="SvgjsPath1267" d="M0 0L183 0L183 54L0 54Z " stroke="rgba(50,50,50,1)" stroke-width="2" fill-opacity="1" fill="#ffffff"></path><g id="SvgjsG1268"><text id="SvgjsText1269" font-family="微软雅黑" text-anchor="middle" font-size="13px" width="163px" fill="#323232" font-weight="400" align="middle" lineHeight="125%" font-style="" opacity="1" y="8.375" transform="rotate(0)"><tspan id="SvgjsTspan1270" dy="16" x="91.5"><tspan id="SvgjsTspan1271" style="text-decoration:;">ReplaceSource</tspan></tspan><tspan id="SvgjsTspan1272" dy="16" x="91.5"><tspan id="SvgjsTspan1273" style="text-decoration:;">收集替换语句的位置</tspan></tspan></text></g></g><g id="SvgjsG1274"><path id="SvgjsPath1275" d="M1169 398.4886363636364L1169 429.4886363636364L1169 429.4886363636364L1169 457.88863636363635 " stroke="#323232" stroke-width="2" fill="none" marker-end="url(#SvgjsMarker1276)"></path></g><g id="SvgjsG1278" transform="translate(1294,461.4886363636364)"><path id="SvgjsPath1279" d="M0 0L183 0L183 54L0 54Z " stroke="rgba(50,50,50,1)" stroke-width="2" fill-opacity="1" fill="#ffffff"></path><g id="SvgjsG1280"><text id="SvgjsText1281" font-family="微软雅黑" text-anchor="middle" font-size="13px" width="163px" fill="#323232" font-weight="400" align="middle" lineHeight="125%" font-style="" opacity="1" y="8.375" transform="rotate(0)"><tspan id="SvgjsTspan1282" dy="16" x="91.5"><tspan id="SvgjsTspan1283" style="text-decoration:;">ReplaceSource</tspan></tspan><tspan id="SvgjsTspan1284" dy="16" x="91.5"><tspan id="SvgjsTspan1285" style="text-decoration:;">收集替换语句的位置</tspan></tspan></text></g></g><g id="SvgjsG1286"><path id="SvgjsPath1287" d="M1385.5 398.4886363636364L1385.5 429.4886363636364L1385.5 429.4886363636364L1385.5 457.88863636363635 " stroke="#323232" stroke-width="2" fill="none" marker-end="url(#SvgjsMarker1288)"></path></g><g id="SvgjsG1290" transform="translate(1540,461.4886363636364)"><path id="SvgjsPath1291" d="M0 0L183 0L183 54L0 54Z " stroke="rgba(50,50,50,1)" stroke-width="2" fill-opacity="1" fill="#ffffff"></path><g id="SvgjsG1292"><text id="SvgjsText1293" font-family="微软雅黑" text-anchor="middle" font-size="13px" width="163px" fill="#323232" font-weight="400" align="middle" lineHeight="125%" font-style="" opacity="1" y="8.375" transform="rotate(0)"><tspan id="SvgjsTspan1294" dy="16" x="91.5"><tspan id="SvgjsTspan1295" style="text-decoration:;">ReplaceSource</tspan></tspan><tspan id="SvgjsTspan1296" dy="16" x="91.5"><tspan id="SvgjsTspan1297" style="text-decoration:;">收集替换语句的位置</tspan></tspan></text></g></g><g id="SvgjsG1298"><path id="SvgjsPath1299" d="M1631.5 398.4886363636364L1631.5 429.4886363636364L1631.5 429.4886363636364L1631.5 457.88863636363635 " stroke="#323232" stroke-width="2" fill="none" marker-end="url(#SvgjsMarker1300)"></path></g><g id="SvgjsG1302" transform="translate(379.5,638.3636363636364)"><path id="SvgjsPath1303" d="M0 0L189 0L189 47.77272727272725L0 47.77272727272725Z " stroke="rgba(50,50,50,1)" stroke-width="2" fill-opacity="1" fill="#ffffff"></path><g id="SvgjsG1304"><text id="SvgjsText1305" font-family="微软雅黑" text-anchor="middle" font-size="13px" width="169px" fill="#323232" font-weight="400" align="middle" lineHeight="125%" font-style="" opacity="1" y="13.261363636363626" transform="rotate(0)"><tspan id="SvgjsTspan1306" dy="16" x="94.5"><tspan id="SvgjsTspan1307" style="text-decoration:;">InitFragment.addToSource()</tspan></tspan></text></g></g><g id="SvgjsG1308" transform="translate(1077.5,120.50000000000006)"><path id="SvgjsPath1309" d="M0 0L183 0L183 38L0 38Z " stroke="rgba(50,50,50,1)" stroke-width="2" fill-opacity="1" fill="#ffffff"></path><g id="SvgjsG1310"><text id="SvgjsText1311" font-family="微软雅黑" text-anchor="middle" font-size="13px" width="163px" fill="#323232" font-weight="400" align="middle" lineHeight="125%" font-style="" opacity="1" y="8.375" transform="rotate(0)"><tspan id="SvgjsTspan1312" dy="16" x="91.5"><tspan id="SvgjsTspan1313" style="text-decoration:;">ConstDependency</tspan></tspan></text></g></g><g id="SvgjsG1314"><path id="SvgjsPath1315" d="M1068 76.9772727272728L1068 97.23863636363643L1169 97.23863636363643L1169 116.90000000000006 " stroke="#323232" stroke-width="2" fill="none" marker-end="url(#SvgjsMarker1316)"></path></g><g id="SvgjsG1318"><path id="SvgjsPath1319" d="M1169 159.50000000000006L1169 255.99431818181824L1169 255.99431818181824L1169 349.88863636363635 " stroke="#323232" stroke-width="2" fill="none" marker-end="url(#SvgjsMarker1320)"></path></g><g id="SvgjsG1322"><path id="SvgjsPath1323" d="M748.0000000000002 118.87500000000006L797.5000000000001 118.87500000000006L797.5000000000001 118.87499999999994L843.4 118.87499999999994 " stroke="#323232" stroke-width="2" fill="none" marker-end="url(#SvgjsMarker1324)"></path></g><g id="SvgjsG1326"><path id="SvgjsPath1327" d="M808 377.51136363636357L830.75 377.51136363636357L830.75 377.51136363636357L850.9 377.51136363636357 " stroke="#323232" stroke-width="2" fill="none" marker-end="url(#SvgjsMarker1328)"></path></g><g id="SvgjsG1330"><path id="SvgjsPath1331" d="M808 488.75L830.75 488.75L830.75 488.4886363636364L850.9 488.4886363636364 " stroke="#323232" stroke-width="2" fill="none" marker-end="url(#SvgjsMarker1332)"></path></g><g id="SvgjsG1334"><path id="SvgjsPath1335" d="M474 456.4886363636364L474 546.9261363636364L474 546.9261363636364L474 634.7636363636364 " stroke="#323232" stroke-width="2" fill="none" marker-end="url(#SvgjsMarker1336)"></path></g><g id="SvgjsG1338" transform="translate(407.20454545454527,280.4886363636364)"><path id="SvgjsPath1339" d="M0 0L133.59090909090946 0L133.59090909090946 40L0 40Z " stroke="none" fill="none"></path><g id="SvgjsG1340"><text id="SvgjsText1341" font-family="微软雅黑" text-anchor="middle" font-size="18px" width="134px" fill="#ff0000" font-weight="700" align="middle" lineHeight="125%" font-style="" opacity="1" y="4.75" transform="rotate(0)"><tspan id="SvgjsTspan1342" dy="22" x="67"><tspan id="SvgjsTspan1343" style="text-decoration:;">sourceModule</tspan></tspan></text></g></g><g id="SvgjsG1344" transform="translate(605,555.4659090909091)"><path id="SvgjsPath1345" d="M0 0L339 0L339 68.65340909090901L0 68.65340909090901Z " stroke="rgba(50,50,50,1)" stroke-width="2" fill-opacity="1" fill="#ffffff"></path><g id="SvgjsG1346"><text id="SvgjsText1347" font-family="微软雅黑" text-anchor="start" font-size="13px" width="319px" fill="#323232" font-weight="400" align="middle" lineHeight="125%" font-style="" opacity="1" y="7.701704545454504" transform="rotate(0)"><tspan id="SvgjsTspan1348" dy="16" x="10"><tspan id="SvgjsTspan1349" style="text-decoration:;">for (let fragment of keyedFragments.values()) {</tspan></tspan><tspan id="SvgjsTspan1350" dy="16" x="10"><tspan id="SvgjsTspan1351" style="text-decoration:;">    concatSource.add(fragment.getContent(context));</tspan></tspan><tspan id="SvgjsTspan1352" dy="16" x="10"><tspan id="SvgjsTspan1353" style="text-decoration:;">}</tspan></tspan></text></g></g><g id="SvgjsG1354" transform="translate(605,651.0965909090909)"><path id="SvgjsPath1355" d="M0 0L339 0L339 42.65340909090912L0 42.65340909090912Z " stroke="rgba(50,50,50,1)" stroke-width="2" fill-opacity="1" fill="#ffffff"></path><g id="SvgjsG1356"><text id="SvgjsText1357" font-family="微软雅黑" text-anchor="middle" font-size="13px" width="319px" fill="#323232" font-weight="400" align="middle" lineHeight="125%" font-style="" opacity="1" y="10.701704545454561" transform="rotate(0)"><tspan id="SvgjsTspan1358" dy="16" x="169.5"><tspan id="SvgjsTspan1359" style="text-decoration:;">concatSource.add(source);</tspan></tspan></text></g></g><g id="SvgjsG1360" transform="translate(605,718.8011363636366)"><path id="SvgjsPath1361" d="M0 0L339 0L339 65.62499999999955L0 65.62499999999955Z " stroke="rgba(50,50,50,1)" stroke-width="2" fill-opacity="1" fill="#ffffff"></path><g id="SvgjsG1362"><text id="SvgjsText1363" font-family="微软雅黑" text-anchor="start" font-size="13px" width="319px" fill="#323232" font-weight="400" align="middle" lineHeight="125%" font-style="" opacity="1" y="6.187499999999773" transform="rotate(0)"><tspan id="SvgjsTspan1364" dy="16" x="10"><tspan id="SvgjsTspan1365" style="text-decoration:;">for (const content of endContents.reverse()) {</tspan></tspan><tspan id="SvgjsTspan1366" dy="16" x="10"><tspan id="SvgjsTspan1367" style="text-decoration:;">    concatSource.add(content);</tspan></tspan><tspan id="SvgjsTspan1368" dy="16" x="10"><tspan id="SvgjsTspan1369" style="text-decoration:;">}</tspan></tspan></text></g></g><g id="SvgjsG1370" transform="translate(491.40909090909065,542.4886363636364)"><path id="SvgjsPath1371" d="M105.59090909090935 0Q96.59090909090935 0 96.59090909090935 9L96.59090909090935 111.96874999999989Q96.59090909090935 120.96874999999989 83.59090909090935 120.96874999999989Q96.59090909090935 120.96874999999989 96.59090909090935 129.9687499999999L96.59090909090935 232.93749999999977Q96.59090909090935 241.93749999999977 105.59090909090935 241.93749999999977 " stroke="rgba(50,50,50,1)" stroke-width="2" fill="none"></path><path id="SvgjsPath1372" d="M0 0L105.59090909090935 0L105.59090909090935 241.93749999999977L0 241.93749999999977Z " stroke="none" fill="none"></path><g id="SvgjsG1373"><text id="SvgjsText1374" font-family="微软雅黑" text-anchor="end" font-size="13px" width="79px" fill="#323232" font-weight="400" align="middle" lineHeight="125%" font-style="" opacity="1" y="110.34374999999989" transform="rotate(0)"></text></g></g><g id="SvgjsG1375"><path id="SvgjsPath1376" d="M774.5 625.1193181818181L774.5 637.6079545454545L774.5 637.6079545454545L774.5 647.4965909090909 " stroke="#323232" stroke-width="2" fill="none" marker-end="url(#SvgjsMarker1377)"></path></g><g id="SvgjsG1379"><path id="SvgjsPath1380" d="M774.5 694.75L774.5 706.2755681818182L774.5 706.2755681818182L774.5 715.2011363636366 " stroke="#323232" stroke-width="2" fill="none" marker-end="url(#SvgjsMarker1381)"></path></g><g id="SvgjsG1383"><path id="SvgjsPath1384" d="M962 516.4886363636364L962 589.7926136363636L947.6 589.7926136363636 " stroke="#323232" stroke-width="2" fill="none" marker-end="url(#SvgjsMarker1385)"></path></g><g id="SvgjsG1387"><path id="SvgjsPath1388" d="M1169 516.4886363636364L1169 672.4232954545455L947.6 672.4232954545455 " stroke="#323232" stroke-width="2" fill="none" marker-end="url(#SvgjsMarker1389)"></path></g><g id="SvgjsG1391"><path id="SvgjsPath1392" d="M1385.5 516.4886363636364L1385.5 672.4232954545455L947.6 672.4232954545455 " stroke="#323232" stroke-width="2" fill="none" marker-end="url(#SvgjsMarker1393)"></path></g><g id="SvgjsG1395"><path id="SvgjsPath1396" d="M1631.5 516.4886363636364L1631.5 672.4232954545455L947.6 672.4232954545455 " stroke="#323232" stroke-width="2" fill="none" marker-end="url(#SvgjsMarker1397)"></path></g><g id="SvgjsG1399" transform="translate(1763,158.50000000000006)"><path id="SvgjsPath1400" d="M0 0L183 0L183 44L0 44Z " stroke="rgba(50,50,50,1)" stroke-width="2" fill-opacity="1" fill="#ffffff"></path><g id="SvgjsG1401"><text id="SvgjsText1402" font-family="微软雅黑" text-anchor="middle" font-size="13px" width="163px" fill="#323232" font-weight="400" align="middle" lineHeight="125%" font-style="" opacity="1" y="3.375" transform="rotate(0)"><tspan id="SvgjsTspan1403" dy="16" x="91.5"><tspan id="SvgjsTspan1404" style="text-decoration:;">HarmonyCompatibility</tspan></tspan><tspan id="SvgjsTspan1405" dy="16" x="91.5"><tspan id="SvgjsTspan1406" style="text-decoration:;">Dependency</tspan></tspan></text></g></g><g id="SvgjsG1407" transform="translate(1759.25,30.97727272727282)"><path id="SvgjsPath1408" d="M0 0L190.5 0L190.5 91.77272727272718L0 91.77272727272718Z " stroke="rgba(50,50,50,1)" stroke-width="2" fill-opacity="1" fill="#ffffff"></path><g id="SvgjsG1409"><text id="SvgjsText1410" font-family="微软雅黑" text-anchor="start" font-size="13px" width="171px" fill="#323232" font-weight="400" align="middle" lineHeight="125%" font-style="" opacity="1" y="3.2613636363635905" transform="rotate(0)"><tspan id="SvgjsTspan1411" dy="16" x="10"><tspan id="SvgjsTspan1412" style="text-decoration:;">检测ast.body是否含有：1. </tspan></tspan><tspan id="SvgjsTspan1413" dy="16" x="10"><tspan id="SvgjsTspan1414" style="text-decoration:;">ImportDeclaration</tspan></tspan><tspan id="SvgjsTspan1415" dy="16" x="10"><tspan id="SvgjsTspan1416" style="text-decoration:;">2.ExportDefaultDeclaration</tspan></tspan><tspan id="SvgjsTspan1417" dy="16" x="10"><tspan id="SvgjsTspan1418" style="text-decoration:;">3.ExportNamedDeclaration</tspan></tspan><tspan id="SvgjsTspan1419" dy="16" x="10"><tspan id="SvgjsTspan1420" style="text-decoration:;">4.ExportAllDeclaration</tspan></tspan></text></g></g><g id="SvgjsG1421"><path id="SvgjsPath1422" d="M1854.5 123.75L1854.5 140.62500000000003L1854.5 140.62500000000003L1854.5 154.90000000000006 " stroke="#323232" stroke-width="2" fill="none" marker-end="url(#SvgjsMarker1423)"></path></g><g id="SvgjsG1425" transform="translate(1760,353.4886363636364)"><path id="SvgjsPath1426" d="M0 0L189 0L189 44L0 44Z " stroke="rgba(50,50,50,1)" stroke-width="2" fill-opacity="1" fill="#ffffff"></path><g id="SvgjsG1427"><text id="SvgjsText1428" font-family="微软雅黑" text-anchor="middle" font-size="13px" width="169px" fill="#323232" font-weight="400" align="middle" lineHeight="125%" font-style="" opacity="1" y="3.375" transform="rotate(0)"><tspan id="SvgjsTspan1429" dy="16" x="94.5"><tspan id="SvgjsTspan1430" style="text-decoration:;">HarmonyExportDependency</tspan></tspan><tspan id="SvgjsTspan1431" dy="16" x="94.5"><tspan id="SvgjsTspan1432" style="text-decoration:;">Template</tspan></tspan></text></g></g><g id="SvgjsG1433"><path id="SvgjsPath1434" d="M1854.5 203.50000000000006L1854.5 277.99431818181824L1854.5 277.99431818181824L1854.5 349.88863636363635 " stroke="#323232" stroke-width="2" fill="none" marker-end="url(#SvgjsMarker1435)"></path></g><g id="SvgjsG1437" transform="translate(1763,461.4886363636364)"><path id="SvgjsPath1438" d="M0 0L183 0L183 54L0 54Z " stroke="rgba(50,50,50,1)" stroke-width="2" fill-opacity="1" fill="#ffffff"></path><g id="SvgjsG1439"><text id="SvgjsText1440" font-family="微软雅黑" text-anchor="middle" font-size="13px" width="163px" fill="#323232" font-weight="400" align="middle" lineHeight="125%" font-style="" opacity="1" y="8.375" transform="rotate(0)"><tspan id="SvgjsTspan1441" dy="16" x="91.5"><tspan id="SvgjsTspan1442" style="text-decoration:;">initFragments</tspan></tspan><tspan id="SvgjsTspan1443" dy="16" x="91.5"><tspan id="SvgjsTspan1444" style="text-decoration:;">收集语句</tspan></tspan></text></g></g><g id="SvgjsG1445"><path id="SvgjsPath1446" d="M1854.5 398.4886363636364L1854.5 429.4886363636364L1854.5 429.4886363636364L1854.5 457.88863636363635 " stroke="#323232" stroke-width="2" fill="none" marker-end="url(#SvgjsMarker1447)"></path></g><g id="SvgjsG1449"><path id="SvgjsPath1450" d="M1854.5 516.4886363636364L1854.5 589.7926136363636L947.6 589.7926136363636 " stroke="#323232" stroke-width="2" fill="none" marker-end="url(#SvgjsMarker1451)"></path></g><g id="SvgjsG1453" transform="translate(1692,590.375)"><path id="SvgjsPath1454" d="M0 0L291 0L307 16L307 43L0 43L0 0Z " stroke="none" fill-opacity="1" fill="#ffe0b2"></path><path id="SvgjsPath1455" d="M291 0L291 16L307 16Z " stroke="none" fill-opacity="1" fill="#cdcdcd"></path><path id="SvgjsPath1456" d="M0 0L291 0L307 16L307 43L0 43L0 0Z " stroke="none" fill="none"></path><g id="SvgjsG1457"><text id="SvgjsText1458" font-family="微软雅黑" text-anchor="middle" font-size="13px" width="287px" fill="#323232" font-weight="400" align="middle" lineHeight="125%" font-style="" opacity="1" y="10.875" transform="rotate(0)"><tspan id="SvgjsTspan1459" dy="16" x="153.5"><tspan id="SvgjsTspan1460" style="text-decoration:;">__webpack_require__.r(__webpack_exports__);</tspan></tspan></text></g></g><g id="SvgjsG1461" transform="translate(641.75,821.0965909090909)"><path id="SvgjsPath1462" d="M0 0L265.5 0L265.5 49.9488636363634L0 49.9488636363634Z " stroke="rgba(50,50,50,1)" stroke-width="2" fill-opacity="1" fill="#ffcdd2"></path><g id="SvgjsG1463"><text id="SvgjsText1464" font-family="微软雅黑" text-anchor="middle" font-size="13px" width="246px" fill="#323232" font-weight="400" align="middle" lineHeight="125%" font-style="" opacity="1" y="14.3494318181817" transform="rotate(0)"><tspan id="SvgjsTspan1465" dy="16" x="133"><tspan id="SvgjsTspan1466" style="text-decoration:;">拿到module最终生成代码concatSource</tspan></tspan></text></g></g><g id="SvgjsG1467"><path id="SvgjsPath1468" d="M774.5 785.4261363636361L774.5 802.7613636363635L774.5 802.7613636363635L774.5 817.4965909090909 " stroke="#323232" stroke-width="2" fill="none" marker-end="url(#SvgjsMarker1469)"></path></g></svg>