<svg id="SvgjsSvg1307" xmlns="http://www.w3.org/2000/svg" version="1.1" xmlns:xlink="http://www.w3.org/1999/xlink" xmlns:svgjs="http://svgjs.com/svgjs" width="1188.75" height="799"><defs id="SvgjsDefs1308"><marker id="SvgjsMarker1336" markerWidth="14" markerHeight="10" refX="10" refY="5" viewBox="0 0 14 10" orient="auto" markerUnits="userSpaceOnUse" stroke-dasharray="0,0"><path id="SvgjsPath1337" d="M0 0L14 5L0 10L0 0 " fill="#323232" stroke="#323232" stroke-width="1"></path></marker><marker id="SvgjsMarker1350" markerWidth="14" markerHeight="10" refX="10" refY="5" viewBox="0 0 14 10" orient="auto" markerUnits="userSpaceOnUse" stroke-dasharray="0,0"><path id="SvgjsPath1351" d="M0 0L14 5L0 10L0 0 " fill="#323232" stroke="#323232" stroke-width="1"></path></marker><marker id="SvgjsMarker1368" markerWidth="14" markerHeight="10" refX="10" refY="5" viewBox="0 0 14 10" orient="auto" markerUnits="userSpaceOnUse" stroke-dasharray="0,0"><path id="SvgjsPath1369" d="M0 0L14 5L0 10L0 0 " fill="#323232" stroke="#323232" stroke-width="1"></path></marker><marker id="SvgjsMarker1397" markerWidth="14" markerHeight="10" refX="10" refY="5" viewBox="0 0 14 10" orient="auto" markerUnits="userSpaceOnUse" stroke-dasharray="0,0"><path id="SvgjsPath1398" d="M0 0L14 5L0 10L0 0 " fill="#323232" stroke="#323232" stroke-width="1"></path></marker><marker id="SvgjsMarker1437" markerWidth="14" markerHeight="10" refX="10" refY="5" viewBox="0 0 14 10" orient="auto" markerUnits="userSpaceOnUse" stroke-dasharray="0,0"><path id="SvgjsPath1438" d="M0 0L14 5L0 10L0 0 " fill="#323232" stroke="#323232" stroke-width="1"></path></marker><marker id="SvgjsMarker1447" markerWidth="14" markerHeight="10" refX="10" refY="5" viewBox="0 0 14 10" orient="auto" markerUnits="userSpaceOnUse" stroke-dasharray="0,0"><path id="SvgjsPath1448" d="M0 0L14 5L0 10L0 0 " fill="#323232" stroke="#323232" stroke-width="1"></path></marker><marker id="SvgjsMarker1467" markerWidth="14" markerHeight="10" refX="10" refY="5" viewBox="0 0 14 10" orient="auto" markerUnits="userSpaceOnUse" stroke-dasharray="0,0"><path id="SvgjsPath1468" d="M0 0L14 5L0 10L0 0 " fill="#323232" stroke="#323232" stroke-width="1"></path></marker><marker id="SvgjsMarker1487" markerWidth="14" markerHeight="10" refX="10" refY="5" viewBox="0 0 14 10" orient="auto" markerUnits="userSpaceOnUse" stroke-dasharray="0,0"><path id="SvgjsPath1488" d="M0 0L14 5L0 10L0 0 " fill="#323232" stroke="#323232" stroke-width="1"></path></marker><marker id="SvgjsMarker1491" markerWidth="14" markerHeight="10" refX="10" refY="5" viewBox="0 0 14 10" orient="auto" markerUnits="userSpaceOnUse" stroke-dasharray="0,0"><path id="SvgjsPath1492" d="M0 0L14 5L0 10L0 0 " fill="#323232" stroke="#323232" stroke-width="1"></path></marker><marker id="SvgjsMarker1505" markerWidth="14" markerHeight="10" refX="10" refY="5" viewBox="0 0 14 10" orient="auto" markerUnits="userSpaceOnUse" stroke-dasharray="0,0"><path id="SvgjsPath1506" d="M0 0L14 5L0 10L0 0 " fill="#323232" stroke="#323232" stroke-width="1"></path></marker><marker id="SvgjsMarker1517" markerWidth="14" markerHeight="10" refX="10" refY="5" viewBox="0 0 14 10" orient="auto" markerUnits="userSpaceOnUse" stroke-dasharray="0,0"><path id="SvgjsPath1518" d="M0 0L14 5L0 10L0 0 " fill="#323232" stroke="#323232" stroke-width="1"></path></marker><marker id="SvgjsMarker1521" markerWidth="14" markerHeight="10" refX="10" refY="5" viewBox="0 0 14 10" orient="auto" markerUnits="userSpaceOnUse" stroke-dasharray="0,0"><path id="SvgjsPath1522" d="M0 0L14 5L0 10L0 0 " fill="#ff0000" stroke="#ff0000" stroke-width="1"></path></marker><marker id="SvgjsMarker1572" markerWidth="14" markerHeight="10" refX="10" refY="5" viewBox="0 0 14 10" orient="auto" markerUnits="userSpaceOnUse" stroke-dasharray="0,0"><path id="SvgjsPath1573" d="M0 0L14 5L0 10L0 0 " fill="#323232" stroke="#323232" stroke-width="1"></path></marker><marker id="SvgjsMarker1576" markerWidth="14" markerHeight="10" refX="10" refY="5" viewBox="0 0 14 10" orient="auto" markerUnits="userSpaceOnUse" stroke-dasharray="0,0"><path id="SvgjsPath1577" d="M0 0L14 5L0 10L0 0 " fill="#323232" stroke="#323232" stroke-width="1"></path></marker><marker id="SvgjsMarker1580" markerWidth="14" markerHeight="10" refX="10" refY="5" viewBox="0 0 14 10" orient="auto" markerUnits="userSpaceOnUse" stroke-dasharray="0,0"><path id="SvgjsPath1581" d="M0 0L14 5L0 10L0 0 " fill="#323232" stroke="#323232" stroke-width="1"></path></marker><marker id="SvgjsMarker1590" markerWidth="14" markerHeight="10" refX="10" refY="5" viewBox="0 0 14 10" orient="auto" markerUnits="userSpaceOnUse" stroke-dasharray="0,0"><path id="SvgjsPath1591" d="M0 0L14 5L0 10L0 0 " fill="#323232" stroke="#323232" stroke-width="1"></path></marker><marker id="SvgjsMarker1602" markerWidth="14" markerHeight="10" refX="10" refY="5" viewBox="0 0 14 10" orient="auto" markerUnits="userSpaceOnUse" stroke-dasharray="0,0"><path id="SvgjsPath1603" d="M0 0L14 5L0 10L0 0 " fill="#323232" stroke="#323232" stroke-width="1"></path></marker><pattern patternUnits="userSpaceOnUse" id="pattern_mark" width="300" height="300"><text x="-50" y="150" fill="rgba(229,229,229,0.8)" font-size="18" transform="rotate(-45, 150, 150)">https://github.com/wbccb</text></pattern></defs><g id="svgbackgroundid"><defs></defs><rect id="SvgjsRect1310" width="1188.75" height="799" fill="#ffffff"></rect></g><rect fill="url(#pattern_mark)" transform="translate(-103,102)" width="1375" height="670" id="rect_mark" pointer-events="none"></rect><g id="SvgjsG1312" transform="translate(627.25,30)"><path id="SvgjsPath1313" d="M0 0L490 0L490 259L0 259Z " stroke-dasharray="10,6" stroke="rgba(50,50,50,1)" stroke-width="2" fill-opacity="1" fill="#ffcdd2"></path><g id="SvgjsG1314"><text id="SvgjsText1315" font-family="微软雅黑" text-anchor="middle" font-size="13px" width="470px" fill="#323232" font-weight="400" align="middle" lineHeight="125%" font-style="" opacity="1" y="118.875" transform="rotate(0)"></text></g></g><g id="SvgjsG1316" transform="translate(25,294)"><path id="SvgjsPath1317" d="M0 0L216 0L216 72L0 72Z " stroke="rgba(50,50,50,1)" stroke-width="2" fill-opacity="1" fill="#ffffff"></path><g id="SvgjsG1318"><text id="SvgjsText1319" font-family="微软雅黑" text-anchor="middle" font-size="13px" width="196px" fill="#323232" font-weight="400" align="middle" lineHeight="125%" font-style="" opacity="1" y="1.375" transform="rotate(0)"><tspan id="SvgjsTspan1320" dy="16" x="108"><tspan id="SvgjsTspan1321" style="text-decoration:;text-decoration: underline;fill: rgb(255, 0, 0);">bin/webpack.js</tspan></tspan><tspan id="SvgjsTspan1322" dy="16" x="108"><tspan id="SvgjsTspan1323" style="text-decoration:;">runCli()根据webpack-</tspan></tspan><tspan id="SvgjsTspan1324" dy="16" x="108"><tspan id="SvgjsTspan1325" style="text-decoration:;">cli/package.json的bin字</tspan></tspan><tspan id="SvgjsTspan1326" dy="16" x="108"><tspan id="SvgjsTspan1327" style="text-decoration:;">段"./bin/cli.js"加载对应文件</tspan></tspan></text></g></g><g id="SvgjsG1328" transform="translate(69.5,128)"><path id="SvgjsPath1329" d="M15.666666666666666 0L111.33333333333333 0C132.22222222222223 0 132.22222222222223 47 111.33333333333333 47L15.666666666666666 47C-5.222222222222222 47 -5.222222222222222 0 15.666666666666666 0Z " stroke="rgba(50,50,50,1)" stroke-width="2" fill-opacity="1" fill="#ffffff"></path><g id="SvgjsG1330"><text id="SvgjsText1331" font-family="微软雅黑" text-anchor="middle" font-size="13px" width="107px" fill="#323232" font-weight="400" align="middle" lineHeight="125%" font-style="" opacity="1" y="12.875" transform="rotate(0)"><tspan id="SvgjsTspan1332" dy="16" x="63.5"><tspan id="SvgjsTspan1333" style="text-decoration:;text-decoration: underline;fill: rgb(255, 0, 0);">npm run build</tspan></tspan></text></g></g><g id="SvgjsG1334"><path id="SvgjsPath1335" d="M133 176L133 192.75L133 192.75L133 206.9 " stroke="#323232" stroke-width="2" fill="none" marker-end="url(#SvgjsMarker1336)"></path></g><g id="SvgjsG1338" transform="translate(25,392)"><path id="SvgjsPath1339" d="M0 0L216 0L216 59L0 59Z " stroke="rgba(50,50,50,1)" stroke-width="2" fill-opacity="1" fill="#ffffff"></path><g id="SvgjsG1340"><text id="SvgjsText1341" font-family="微软雅黑" text-anchor="middle" font-size="13px" width="196px" fill="#323232" font-weight="400" align="middle" lineHeight="125%" font-style="" opacity="1" y="2.875" transform="rotate(0)"><tspan id="SvgjsTspan1342" dy="16" x="108"><tspan id="SvgjsTspan1343" style="text-decoration:;text-decoration: underline;fill: rgb(255, 0, 0);">webpack-cli/bin/cli.js</tspan></tspan><tspan id="SvgjsTspan1344" dy="16" x="108"><tspan id="SvgjsTspan1345" style="text-decoration:;">const cli = new WebpackCLI()</tspan></tspan><tspan id="SvgjsTspan1346" dy="16" x="108"><tspan id="SvgjsTspan1347" style="text-decoration:;">await cli.run(args)</tspan></tspan></text></g></g><g id="SvgjsG1348"><path id="SvgjsPath1349" d="M133 367L133 379L133 379L133 388.4 " stroke="#323232" stroke-width="2" fill="none" marker-end="url(#SvgjsMarker1350)"></path></g><g id="SvgjsG1352" transform="translate(271,355.75)"><path id="SvgjsPath1353" d="M0 0L206 0L206 48.5L0 48.5Z " stroke="rgba(50,50,50,1)" stroke-width="2" fill-opacity="1" fill="#ffffff"></path><g id="SvgjsG1354"><text id="SvgjsText1355" font-family="微软雅黑" text-anchor="middle" font-size="13px" width="186px" fill="#323232" font-weight="400" align="middle" lineHeight="125%" font-style="" opacity="1" y="5.625" transform="rotate(0)"><tspan id="SvgjsTspan1356" dy="16" x="103"><tspan id="SvgjsTspan1357" style="text-decoration:;">this.program.parseAsync(args, </tspan></tspan><tspan id="SvgjsTspan1358" dy="16" x="103"><tspan id="SvgjsTspan1359" style="text-decoration:;">parseOptions)</tspan></tspan></text></g></g><g id="SvgjsG1360" transform="translate(271,450.25)"><path id="SvgjsPath1361" d="M0 0L206 0L206 40L0 40Z " stroke="rgba(50,50,50,1)" stroke-width="2" fill-opacity="1" fill="#ffffff"></path><g id="SvgjsG1362"><text id="SvgjsText1363" font-family="微软雅黑" text-anchor="middle" font-size="13px" width="186px" fill="#323232" font-weight="400" align="middle" lineHeight="125%" font-style="" opacity="1" y="9.375" transform="rotate(0)"><tspan id="SvgjsTspan1364" dy="16" x="103"><tspan id="SvgjsTspan1365" style="text-decoration:;">this.program.action(fn)</tspan></tspan></text></g></g><g id="SvgjsG1366"><path id="SvgjsPath1367" d="M374 405.25L374 427.25L374 427.25L374 446.65 " stroke="#323232" stroke-width="2" fill="none" marker-end="url(#SvgjsMarker1368)"></path></g><g id="SvgjsG1370" transform="translate(324,406.25)"><path id="SvgjsPath1371" d="M0 0L120 0L120 40L0 40Z " stroke="none" fill="none"></path><g id="SvgjsG1372"><text id="SvgjsText1373" font-family="微软雅黑" text-anchor="middle" font-size="13px" width="120px" fill="#ff0000" font-weight="400" align="middle" lineHeight="125%" font-style="" opacity="1" y="9.375" transform="rotate(0)"><tspan id="SvgjsTspan1374" dy="16" x="60"><tspan id="SvgjsTspan1375" style="text-decoration:;">触发fn()调用</tspan></tspan></text></g></g><g id="SvgjsG1376" transform="translate(165,353)"><path id="SvgjsPath1377" d="M100 0Q91 0 91 9L91 61Q91 70 78 70Q91 70 91 79L91 131Q91 140 100 140 " stroke="rgba(50,50,50,1)" stroke-width="2" fill="none"></path><path id="SvgjsPath1378" d="M0 0L100 0L100 140L0 140Z " stroke="none" fill="none"></path><g id="SvgjsG1379"><text id="SvgjsText1380" font-family="微软雅黑" text-anchor="end" font-size="13px" width="73px" fill="#323232" font-weight="400" align="middle" lineHeight="125%" font-style="" opacity="1" y="59.375" transform="rotate(0)"></text></g></g><g id="SvgjsG1381" transform="translate(514.125,401)"><path id="SvgjsPath1382" d="M0 0L213.25 0L213.25 45.75L0 45.75Z " stroke="rgba(50,50,50,1)" stroke-width="2" fill-opacity="1" fill="#ffffff"></path><g id="SvgjsG1383"><text id="SvgjsText1384" font-family="微软雅黑" text-anchor="middle" font-size="13px" width="194px" fill="#323232" font-weight="400" align="middle" lineHeight="125%" font-style="" opacity="1" y="4.25" transform="rotate(0)"><tspan id="SvgjsTspan1385" dy="16" x="107"><tspan id="SvgjsTspan1386" style="text-decoration:;text-decoration: underline;fill: rgb(255, 0, 0);">loadCommandByName("build")</tspan></tspan><tspan id="SvgjsTspan1387" dy="16" x="107"><tspan id="SvgjsTspan1388" style="text-decoration:;">this.makeCommand()</tspan></tspan></text></g></g><g id="SvgjsG1389" transform="translate(506.75,508.75)"><path id="SvgjsPath1390" d="M0 0L228 0L228 39.25L0 39.25Z " stroke="rgba(50,50,50,1)" stroke-width="2" fill-opacity="1" fill="#ffffff"></path><g id="SvgjsG1391"><text id="SvgjsText1392" font-family="微软雅黑" text-anchor="middle" font-size="13px" width="208px" fill="#323232" font-weight="400" align="middle" lineHeight="125%" font-style="" opacity="1" y="9" transform="rotate(0)"><tspan id="SvgjsTspan1393" dy="16" x="114"><tspan id="SvgjsTspan1394" style="text-decoration:;">this.program.parseAsync(["build"])</tspan></tspan></text></g></g><g id="SvgjsG1395"><path id="SvgjsPath1396" d="M620.75 447.75L620.75 477.75L620.75 477.75L620.75 505.15 " stroke="#323232" stroke-width="2" fill="none" marker-end="url(#SvgjsMarker1397)"></path></g><g id="SvgjsG1399" transform="translate(402,401)"><path id="SvgjsPath1400" d="M100 0Q91 0 91 9L91 61Q91 70 78 70Q91 70 91 79L91 131Q91 140 100 140 " stroke="rgba(50,50,50,1)" stroke-width="2" fill="none"></path><path id="SvgjsPath1401" d="M0 0L100 0L100 140L0 140Z " stroke="none" fill="none"></path><g id="SvgjsG1402"><text id="SvgjsText1403" font-family="微软雅黑" text-anchor="end" font-size="13px" width="73px" fill="#323232" font-weight="400" align="middle" lineHeight="125%" font-style="" opacity="1" y="59.375" transform="rotate(0)"></text></g></g><g id="SvgjsG1404" transform="translate(766.75,342)"><path id="SvgjsPath1405" d="M0 0L211.5 0L211.5 59L0 59Z " stroke="rgba(50,50,50,1)" stroke-width="2" fill-opacity="1" fill="#ffffff"></path><g id="SvgjsG1406"><text id="SvgjsText1407" font-family="微软雅黑" text-anchor="middle" font-size="13px" width="192px" fill="#323232" font-weight="400" align="middle" lineHeight="125%" font-style="" opacity="1" y="2.875" transform="rotate(0)"><tspan id="SvgjsTspan1408" dy="16" x="106"><tspan id="SvgjsTspan1409" style="text-decoration:;fill: rgb(255, 0, 0);caret-color: rgb(255, 0, 0);text-decoration: underline;">options()</tspan></tspan><tspan id="SvgjsTspan1410" dy="16" x="106"><tspan id="SvgjsTspan1411" style="text-decoration:;">this.webpack = await </tspan></tspan><tspan id="SvgjsTspan1412" dy="16" x="106"><tspan id="SvgjsTspan1413" style="text-decoration:;">this.loadWebpack()</tspan></tspan></text></g></g><g id="SvgjsG1414" transform="translate(764.5,437.75)"><path id="SvgjsPath1415" d="M0 0L216 0L216 46L0 46Z " stroke="rgba(50,50,50,1)" stroke-width="2" fill-opacity="1" fill="#ffffff"></path><g id="SvgjsG1416"><text id="SvgjsText1417" font-family="微软雅黑" text-anchor="middle" font-size="13px" width="196px" fill="#323232" font-weight="400" align="middle" lineHeight="125%" font-style="" opacity="1" y="4.375" transform="rotate(0)"><tspan id="SvgjsTspan1418" dy="16" x="108"><tspan id="SvgjsTspan1419" style="text-decoration:;">this.program.command("build")</tspan></tspan><tspan id="SvgjsTspan1420" dy="16" x="108"><tspan id="SvgjsTspan1421" style="text-decoration:;fill: rgb(0, 0, 0);">command.action(action)</tspan></tspan></text></g></g><g id="SvgjsG1422" transform="translate(657,361.5)"><path id="SvgjsPath1423" d="M98 0Q89 0 89 9L89 55.375Q89 64.375 76 64.375Q89 64.375 89 73.375L89 119.75Q89 128.75 98 128.75 " stroke="rgba(50,50,50,1)" stroke-width="2" fill="none"></path><path id="SvgjsPath1424" d="M0 0L98 0L98 128.75L0 128.75Z " stroke="none" fill="none"></path><g id="SvgjsG1425"><text id="SvgjsText1426" font-family="微软雅黑" text-anchor="end" font-size="13px" width="71px" fill="#323232" font-weight="400" align="middle" lineHeight="125%" font-style="" opacity="1" y="53.75" transform="rotate(0)"></text></g></g><g id="SvgjsG1427" transform="translate(935,499.875)"><path id="SvgjsPath1428" d="M0 0L148 0L148 57L0 57Z " stroke="rgba(50,50,50,1)" stroke-width="2" fill-opacity="1" fill="#ffffff"></path><g id="SvgjsG1429"><text id="SvgjsText1430" font-family="微软雅黑" text-anchor="middle" font-size="13px" width="128px" fill="#323232" font-weight="400" align="middle" lineHeight="125%" font-style="" opacity="1" y="9.875" transform="rotate(0)"><tspan id="SvgjsTspan1431" dy="16" x="74"><tspan id="SvgjsTspan1432" style="text-decoration:;text-decoration: underline;fill: rgb(255, 0, 0);">action()</tspan></tspan><tspan id="SvgjsTspan1433" dy="16" x="74"><tspan id="SvgjsTspan1434" style="text-decoration:;">this.runWebpack()</tspan></tspan></text></g></g><g id="SvgjsG1435"><path id="SvgjsPath1436" d="M735.75 528.375L834.875 528.375L834.875 528.375L931.4000000000001 528.375 " stroke="#323232" stroke-width="2" fill="none" marker-end="url(#SvgjsMarker1437)"></path></g><g id="SvgjsG1439" transform="translate(739.5,490.25)"><path id="SvgjsPath1440" d="M0 0L120 0L120 40L0 40Z " stroke="none" fill="none"></path><g id="SvgjsG1441"><text id="SvgjsText1442" font-family="微软雅黑" text-anchor="middle" font-size="13px" width="120px" fill="#ff0000" font-weight="400" align="middle" lineHeight="125%" font-style="" opacity="1" y="9.375" transform="rotate(0)"><tspan id="SvgjsTspan1443" dy="16" x="60"><tspan id="SvgjsTspan1444" style="text-decoration:;">触发action()调用</tspan></tspan></text></g></g><g id="SvgjsG1445"><path id="SvgjsPath1446" d="M981.5 460.75L1009 460.75L1009 496.275 " stroke-dasharray="3,3" stroke="#323232" stroke-width="2" fill="none" marker-end="url(#SvgjsMarker1447)"></path></g><g id="SvgjsG1449" transform="translate(982,453)"><path id="SvgjsPath1450" d="M0 0L120 0L120 40L0 40Z " stroke="none" fill="none"></path><g id="SvgjsG1451"><text id="SvgjsText1452" font-family="微软雅黑" text-anchor="middle" font-size="13px" width="120px" fill="#ff0000" font-weight="400" align="middle" lineHeight="125%" font-style="" opacity="1" y="9.375" transform="rotate(0)"><tspan id="SvgjsTspan1453" dy="16" x="60"><tspan id="SvgjsTspan1454" style="text-decoration:;">action()实际代码</tspan></tspan></text></g></g><g id="SvgjsG1455" transform="translate(25,210.5)"><path id="SvgjsPath1456" d="M0 0L216 0L216 59L0 59Z " stroke="rgba(50,50,50,1)" stroke-width="2" fill-opacity="1" fill="#ffffff"></path><g id="SvgjsG1457"><text id="SvgjsText1458" font-family="微软雅黑" text-anchor="middle" font-size="13px" width="196px" fill="#323232" font-weight="400" align="middle" lineHeight="125%" font-style="" opacity="1" y="2.875" transform="rotate(0)"><tspan id="SvgjsTspan1459" dy="16" x="108"><tspan id="SvgjsTspan1460" style="text-decoration:;text-decoration: underline;fill: rgb(255, 0, 0);">node_modules/webpack</tspan></tspan><tspan id="SvgjsTspan1461" dy="16" x="108"><tspan id="SvgjsTspan1462" style="text-decoration:;">webpack/package.json的bin字</tspan></tspan><tspan id="SvgjsTspan1463" dy="16" x="108"><tspan id="SvgjsTspan1464" style="text-decoration:;">段: "bin/webpack.js"</tspan></tspan></text></g></g><g id="SvgjsG1465"><path id="SvgjsPath1466" d="M133 270.5L133 281.75L133 281.75L133 290.4 " stroke="#323232" stroke-width="2" fill="none" marker-end="url(#SvgjsMarker1467)"></path></g><g id="SvgjsG1469" transform="translate(265,106)"><path id="SvgjsPath1470" d="M0 0L157 0L173 16L173 91L0 91L0 0Z " stroke="none" fill-opacity="1" fill="#fff9c4"></path><path id="SvgjsPath1471" d="M157 0L157 16L173 16Z " stroke="none" fill-opacity="1" fill="#cdcdcd"></path><path id="SvgjsPath1472" d="M0 0L157 0L173 16L173 91L0 91L0 0Z " stroke="none" fill="none"></path><g id="SvgjsG1473"><text id="SvgjsText1474" font-family="微软雅黑" text-anchor="start" font-size="13px" width="153px" fill="#323232" font-weight="400" align="middle" lineHeight="125%" font-style="" opacity="1" y="2.875" transform="rotate(0)"><tspan id="SvgjsTspan1475" dy="16" x="10"><tspan id="SvgjsTspan1476" style="text-decoration:;">{</tspan></tspan><tspan id="SvgjsTspan1477" dy="16" x="10"><tspan id="SvgjsTspan1478" style="text-decoration:;">    "scripts": {</tspan></tspan><tspan id="SvgjsTspan1479" dy="16" x="10"><tspan id="SvgjsTspan1480" style="text-decoration:;">        "build": "webpack"</tspan></tspan><tspan id="SvgjsTspan1481" dy="16" x="10"><tspan id="SvgjsTspan1482" style="text-decoration:;">    }</tspan></tspan><tspan id="SvgjsTspan1483" dy="16" x="10"><tspan id="SvgjsTspan1484" style="text-decoration:;">}</tspan></tspan></text></g></g><g id="SvgjsG1485"><path id="SvgjsPath1486" d="M265 151.5L230.75 151.5L230.75 151.5L200.10000000000002 151.5 " stroke-dasharray="8,5" stroke="#323232" stroke-width="2" fill="none" marker-end="url(#SvgjsMarker1487)"></path></g><g id="SvgjsG1489"><path id="SvgjsPath1490" d="M872.5 402L872.5 419.375L872.5 419.375L872.5 434.15 " stroke="#323232" stroke-width="2" fill="none" marker-end="url(#SvgjsMarker1491)"></path></g><g id="SvgjsG1493" transform="translate(912.75,590)"><path id="SvgjsPath1494" d="M0 0L192.5 0L192.5 64.5L0 64.5Z " stroke="rgba(50,50,50,1)" stroke-width="2" fill-opacity="1" fill="#ffffff"></path><g id="SvgjsG1495"><text id="SvgjsText1496" font-family="微软雅黑" text-anchor="middle" font-size="13px" width="173px" fill="#323232" font-weight="400" align="middle" lineHeight="125%" font-style="" opacity="1" y="5.625" transform="rotate(0)"><tspan id="SvgjsTspan1497" dy="16" x="96.5"><tspan id="SvgjsTspan1498" style="text-decoration:;">compiler = await </tspan></tspan><tspan id="SvgjsTspan1499" dy="16" x="96.5"><tspan id="SvgjsTspan1500" style="text-decoration:;">this.createCompiler(options, </tspan></tspan><tspan id="SvgjsTspan1501" dy="16" x="96.5"><tspan id="SvgjsTspan1502" style="text-decoration:;">callback)</tspan></tspan></text></g></g><g id="SvgjsG1503"><path id="SvgjsPath1504" d="M1009 557.875L1009 573.4375L1009 573.4375L1009 586.4 " stroke="#323232" stroke-width="2" fill="none" marker-end="url(#SvgjsMarker1505)"></path></g><g id="SvgjsG1507" transform="translate(900.375,687.625)"><path id="SvgjsPath1508" d="M0 0L217.25 0L217.25 56L0 56Z " stroke="rgba(50,50,50,1)" stroke-width="2" fill-opacity="1" fill="#ffffff"></path><g id="SvgjsG1509"><text id="SvgjsText1510" font-family="微软雅黑" text-anchor="middle" font-size="13px" width="198px" fill="#323232" font-weight="400" align="middle" lineHeight="125%" font-style="" opacity="1" y="9.375" transform="rotate(0)"><tspan id="SvgjsTspan1511" dy="16" x="109"><tspan id="SvgjsTspan1512" style="text-decoration:;">let compiler = </tspan></tspan><tspan id="SvgjsTspan1513" dy="16" x="109"><tspan id="SvgjsTspan1514" style="text-decoration:;">this.webpack(config.options, ...)</tspan></tspan></text></g></g><g id="SvgjsG1515"><path id="SvgjsPath1516" d="M1009 655.5L1009 671.0625L1009 671.0625L1009 684.025 " stroke="#323232" stroke-width="2" fill="none" marker-end="url(#SvgjsMarker1517)"></path></g><g id="SvgjsG1519"><path id="SvgjsPath1520" d="M979.25 371.5L1147.625 371.5L1147.625 715.625L1121.225 715.625 " stroke-dasharray="3,3" stroke="#ff0000" stroke-width="2" fill="none" marker-end="url(#SvgjsMarker1521)"></path></g><g id="SvgjsG1523" transform="translate(1009.5,371)"><path id="SvgjsPath1524" d="M0 0L120 0L120 40L0 40Z " stroke="none" fill="none"></path><g id="SvgjsG1525"><text id="SvgjsText1526" font-family="微软雅黑" text-anchor="middle" font-size="13px" width="120px" fill="#ff0000" font-weight="400" align="middle" lineHeight="125%" font-style="" opacity="1" y="9.375" transform="rotate(0)"><tspan id="SvgjsTspan1527" dy="16" x="60"><tspan id="SvgjsTspan1528" style="text-decoration:;">提供this.webpack</tspan></tspan></text></g></g><g id="SvgjsG1529" transform="translate(639.75,54)"><path id="SvgjsPath1530" d="M0 0L238.75 0L238.75 61L0 61Z " stroke="rgba(50,50,50,1)" stroke-width="2" fill-opacity="1" fill="#ffffff"></path><g id="SvgjsG1531"><text id="SvgjsText1532" font-family="微软雅黑" text-anchor="middle" font-size="13px" width="219px" fill="#323232" font-weight="400" align="middle" lineHeight="125%" font-style="" opacity="1" y="3.875" transform="rotate(0)"><tspan id="SvgjsTspan1533" dy="16" x="119.5"><tspan id="SvgjsTspan1534" style="text-decoration:;text-decoration: underline;fill: rgb(255, 0, 0);font-weight: bold;">node_modules/webpack</tspan></tspan><tspan id="SvgjsTspan1535" dy="16" x="119.5"><tspan id="SvgjsTspan1536" style="text-decoration:;">webpack/package.json的main字段: </tspan></tspan><tspan id="SvgjsTspan1537" dy="16" x="119.5"><tspan id="SvgjsTspan1538" style="text-decoration:;">"lib/index.js"</tspan></tspan></text></g></g><g id="SvgjsG1539" transform="translate(639.75,157.25)"><path id="SvgjsPath1540" d="M0 0L238.75 0L238.75 50.5L0 50.5Z " stroke="rgba(50,50,50,1)" stroke-width="2" fill-opacity="1" fill="#ffffff"></path><g id="SvgjsG1541"><text id="SvgjsText1542" font-family="微软雅黑" text-anchor="middle" font-size="13px" width="219px" fill="#323232" font-weight="400" align="middle" lineHeight="125%" font-style="" opacity="1" y="6.625" transform="rotate(0)"><tspan id="SvgjsTspan1543" dy="16" x="119.5"><tspan id="SvgjsTspan1544" style="text-decoration:;">require("./webpack"))</tspan></tspan><tspan id="SvgjsTspan1545" dy="16" x="119.5"><tspan id="SvgjsTspan1546" style="text-decoration:;">本质就是require("./lib/webpack.js")</tspan></tspan></text></g></g><g id="SvgjsG1547" transform="translate(912.25,95)"><path id="SvgjsPath1548" d="M0 0L183 0L183 41.5L0 41.5Z " stroke="rgba(50,50,50,1)" stroke-width="2" fill-opacity="1" fill="#ffffff"></path><g id="SvgjsG1549"><text id="SvgjsText1550" font-family="微软雅黑" text-anchor="middle" font-size="13px" width="163px" fill="#323232" font-weight="400" align="middle" lineHeight="125%" font-style="" opacity="1" y="10.125" transform="rotate(0)"><tspan id="SvgjsTspan1551" dy="16" x="91.5"><tspan id="SvgjsTspan1552" style="text-decoration:;">compiler=createCompiler()</tspan></tspan></text></g></g><g id="SvgjsG1553" transform="translate(912.25,162)"><path id="SvgjsPath1554" d="M0 0L183 0L183 38.75L0 38.75Z " stroke="rgba(50,50,50,1)" stroke-width="2" fill-opacity="1" fill="#ffffff"></path><g id="SvgjsG1555"><text id="SvgjsText1556" font-family="微软雅黑" text-anchor="middle" font-size="13px" width="163px" fill="#323232" font-weight="400" align="middle" lineHeight="125%" font-style="" opacity="1" y="8.75" transform="rotate(0)"><tspan id="SvgjsTspan1557" dy="16" x="91.5"><tspan id="SvgjsTspan1558" style="text-decoration:;">compiler.run()</tspan></tspan></text></g></g><g id="SvgjsG1559" transform="translate(912.25,229.25)"><path id="SvgjsPath1560" d="M0 0L183 0L183 38.75L0 38.75Z " stroke="rgba(50,50,50,1)" stroke-width="2" fill-opacity="1" fill="#ffffff"></path><g id="SvgjsG1561"><text id="SvgjsText1562" font-family="微软雅黑" text-anchor="middle" font-size="13px" width="163px" fill="#323232" font-weight="400" align="middle" lineHeight="125%" font-style="" opacity="1" y="8.75" transform="rotate(0)"><tspan id="SvgjsTspan1563" dy="16" x="91.5"><tspan id="SvgjsTspan1564" style="text-decoration:;">compiler.compile()</tspan></tspan></text></g></g><g id="SvgjsG1565" transform="translate(786.75,85)"><path id="SvgjsPath1566" d="M118.5 0Q109.5 0 109.5 9L109.5 87.375Q109.5 96.375 96.5 96.375Q109.5 96.375 109.5 105.375L109.5 183.75Q109.5 192.75 118.5 192.75 " stroke="rgba(50,50,50,1)" stroke-width="2" fill="none"></path><path id="SvgjsPath1567" d="M0 0L118.5 0L118.5 192.75L0 192.75Z " stroke="none" fill="none"></path><g id="SvgjsG1568"><text id="SvgjsText1569" font-family="微软雅黑" text-anchor="end" font-size="13px" width="92px" fill="#323232" font-weight="400" align="middle" lineHeight="125%" font-style="" opacity="1" y="85.75" transform="rotate(0)"></text></g></g><g id="SvgjsG1570"><path id="SvgjsPath1571" d="M1003.75 137.5L1003.75 149.25L1003.75 149.25L1003.75 158.4 " stroke="#323232" stroke-width="2" fill="none" marker-end="url(#SvgjsMarker1572)"></path></g><g id="SvgjsG1574"><path id="SvgjsPath1575" d="M1003.75 201.75L1003.75 215L1003.75 215L1003.75 225.65 " stroke="#323232" stroke-width="2" fill="none" marker-end="url(#SvgjsMarker1576)"></path></g><g id="SvgjsG1578"><path id="SvgjsPath1579" d="M759.125 116L759.125 136.125L759.125 136.125L759.125 153.65 " stroke="#323232" stroke-width="2" fill="none" marker-end="url(#SvgjsMarker1580)"></path></g><g id="SvgjsG1582" transform="translate(997.75,25)"><path id="SvgjsPath1583" d="M0 0L120 0L120 40L0 40Z " stroke="none" fill="none"></path><g id="SvgjsG1584"><text id="SvgjsText1585" font-family="微软雅黑" text-anchor="middle" font-size="13px" width="120px" fill="#ff0000" font-weight="700" align="middle" lineHeight="125%" font-style="" opacity="1" y="9.375" transform="rotate(0)"><tspan id="SvgjsTspan1586" dy="16" x="60"><tspan id="SvgjsTspan1587" style="text-decoration:;">loadWebpack()</tspan></tspan></text></g></g><g id="SvgjsG1588"><path id="SvgjsPath1589" d="M872.25 290L872.25 315.5L872.25 315.5L872.25 338.4 " stroke-dasharray="8,5" stroke="#323232" stroke-width="2" fill="none" marker-end="url(#SvgjsMarker1590)"></path></g><g id="SvgjsG1592" transform="translate(878.5,296.5)"><path id="SvgjsPath1593" d="M0 0L174.5 0L174.5 41L0 41Z " stroke="none" fill="none"></path><g id="SvgjsG1594"><text id="SvgjsText1595" font-family="微软雅黑" text-anchor="middle" font-size="13px" width="175px" fill="#ff0000" font-weight="400" align="middle" lineHeight="125%" font-style="" opacity="1" y="1.875" transform="rotate(0)"><tspan id="SvgjsTspan1596" dy="16" x="87.5"><tspan id="SvgjsTspan1597" style="text-decoration:;">返回一个方法，这个方法执行</tspan></tspan><tspan id="SvgjsTspan1598" dy="16" x="87.5"><tspan id="SvgjsTspan1599" style="text-decoration:;">才会触发compiler.run()</tspan></tspan></text></g></g><g id="SvgjsG1600"><path id="SvgjsPath1601" d="M1009 744.625L1009 773.625L1163.625 773.625L1163.625 65L1003.75 65L1003.75 91.4 " stroke="#323232" stroke-width="2" fill="none" marker-end="url(#SvgjsMarker1602)"></path></g></svg>