<?xml version="1.0" standalone="no"?><?xml-stylesheet type="text/css" href="https://wps.processon.com/themes/default/wps/mind/icons/icons.css" ?><!DOCTYPE svg PUBLIC "-//W3C//DTD SVG 1.1//EN" "http://www.w3.org/Graphics/SVG/1.1/DTD/svg11.dtd"><svg id="SvgjsSvg1164" width="753.3333333333333" height="281.52742396492613" xmlns="http://www.w3.org/2000/svg" version="1.1" xmlns:xlink="http://www.w3.org/1999/xlink" xmlns:svgjs="http://svgjs.com/svgjs"><defs id="SvgjsDefs1165"><pattern patternUnits="userSpaceOnUse" id="pattern_mark_0" width="300" height="300"><text x="150" y="100" fill="rgba(229,229,229,0.8)" font-size="18" transform="rotate(-45, 150, 150)" style="dominant-baseline: middle; text-anchor: middle;"></text></pattern><pattern patternUnits="userSpaceOnUse" id="pattern_mark_1" width="300" height="300"><text x="150" y="200" fill="rgba(229,229,229,0.8)" font-size="18" transform="rotate(-45, 150, 150)" style="dominant-baseline: middle; text-anchor: middle;"></text></pattern><marker id="SvgjsMarker1205" markerWidth="13" markerHeight="9" refX="9.5" refY="4.5" viewBox="0 0 13 9" orient="auto" markerUnits="userSpaceOnUse" stroke-dasharray="0,0"><path id="SvgjsPath1206" d="M0,0 L13,4.5 L0,9 L0,0" fill="#323232" stroke="#323232" stroke-width="1"></path></marker><marker id="SvgjsMarker1209" markerWidth="13" markerHeight="9" refX="9.5" refY="4.5" viewBox="0 0 13 9" orient="auto" markerUnits="userSpaceOnUse" stroke-dasharray="0,0"><path id="SvgjsPath1210" d="M0,0 L13,4.5 L0,9 L0,0" fill="#323232" stroke="#323232" stroke-width="1"></path></marker></defs><rect id="svgbackgroundid" width="753.3333333333333" height="281.52742396492613" fill="rgb(255,255,255)"></rect><rect id="SvgjsRect1167" width="753.3333333333333" height="281.52742396492613" fill="url(#pattern_mark_0)"></rect><rect id="SvgjsRect1168" width="753.3333333333333" height="281.52742396492613" fill="url(#pattern_mark_1)"></rect><g id="SvgjsG1169" transform="translate(25,25)"><path id="SvgjsPath1170" d="M 0 0L 703.333 0L 703.333 231.527L 0 231.527Z" stroke-dasharray="7.5,3,1.5,3" stroke="rgba(33,41,48,1)" stroke-width="1.5" fill="none"></path><g id="SvgjsG1171"><text id="SvgjsText1172" font-family="&quot;Microsoft YaHei&quot;, 微软雅黑, Arial" text-anchor="middle" font-size="13px" width="684px" fill="#323232" font-weight="400" align="middle" lineHeight="125%" anchor="middle" family="&quot;Microsoft YaHei&quot;, 微软雅黑, Arial" size="13px" weight="400" font-style="" opacity="1" y="105.1385" transform="rotate(0)"></text></g></g><g id="SvgjsG1173" transform="translate(42.1584821428562,57.45912594350193)"><path id="SvgjsPath1174" d="M 0 4Q 0 0 4 0L 276.463 0Q 280.463 0 280.463 4L 280.463 42.937Q 280.463 46.937 276.463 46.937L 4 46.937Q 0 46.937 0 42.937Z" stroke="rgba(33,41,48,1)" stroke-width="1.5" fill-opacity="1" fill="#ffffff"></path><g id="SvgjsG1175"><text id="SvgjsText1176" font-family="&quot;Microsoft YaHei&quot;, 微软雅黑, Arial" text-anchor="middle" font-size="13px" width="261px" fill="#323232" font-weight="400" align="middle" lineHeight="125%" anchor="middle" family="&quot;Microsoft YaHei&quot;, 微软雅黑, Arial" size="13px" weight="400" font-style="" opacity="1" y="4.343499999999999" transform="rotate(0)"><tspan id="SvgjsTspan1177" dy="16.25" x="140.5"><tspan id="SvgjsTspan1178" style="">基座对应的</tspan></tspan><tspan id="SvgjsTspan1179" dy="16.25" x="140.5"><tspan id="SvgjsTspan1180" style="">&lt;div id="展位符id"&gt;&lt;/div&gt;</tspan></tspan></text></g></g><g id="SvgjsG1181" transform="translate(42.1584821428562,166.5065880300258)"><path id="SvgjsPath1182" d="M 0 4Q 0 0 4 0L 276.463 0Q 280.463 0 280.463 4L 280.463 45.589Q 280.463 49.589 276.463 49.589L 4 49.589Q 0 49.589 0 45.589Z" stroke="rgba(33,41,48,1)" stroke-width="1.5" fill-opacity="1" fill="#ffffff"></path><g id="SvgjsG1183"><text id="SvgjsText1184" font-family="&quot;Microsoft YaHei&quot;, 微软雅黑, Arial" text-anchor="middle" font-size="13px" width="261px" fill="#323232" font-weight="400" align="middle" lineHeight="125%" anchor="middle" family="&quot;Microsoft YaHei&quot;, 微软雅黑, Arial" size="13px" weight="400" font-style="" opacity="1" y="5.669499999999999" transform="rotate(0)"><tspan id="SvgjsTspan1185" dy="16.25" x="140.5"><tspan id="SvgjsTspan1186" style="">微应用的DOM，还没触发框架的mount()，</tspan></tspan><tspan id="SvgjsTspan1187" dy="16.25" x="140.5"><tspan id="SvgjsTspan1188" style="">比如new Vue().$mount("#app")</tspan></tspan></text></g></g><g id="SvgjsG1189" transform="translate(365.72594246031804,150.05258456821002)"><path id="SvgjsPath1190" d="M 0 0L 324.467 0L 340.467 16L 340.467 82.497L 0 82.497L 0 0Z" stroke="none" fill-opacity="1" fill="#fff7bc"></path><path id="SvgjsPath1191" d="M 324.467 0L 324.467 16L 340.467 16Z" stroke="none" fill-opacity="1" fill="#e4d089"></path><path id="SvgjsPath1192" d="M 0 0L 324.467 0L 340.467 16L 340.467 82.497L 0 82.497L 0 0Z" stroke="none" fill="none"></path><g id="SvgjsG1193"><text id="SvgjsText1194" font-family="&quot;Microsoft YaHei&quot;, 微软雅黑, Arial" text-anchor="start" font-size="13px" width="321px" fill="#323232" font-weight="400" align="middle" lineHeight="125%" anchor="start" family="&quot;Microsoft YaHei&quot;, 微软雅黑, Arial" size="13px" weight="400" font-style="" opacity="1" y="6.1235" transform="rotate(0)"><tspan id="SvgjsTspan1195" dy="16.25" x="10"><tspan id="SvgjsTspan1196" style="">&lt;div id="__qiankun_microapp_wrapper_for_xxx__"&gt;</tspan></tspan><tspan id="SvgjsTspan1197" dy="16.25" x="10"><tspan id="SvgjsTspan1198" style="">  &lt;qiankun-head&gt;&lt;/qiankun-head&gt;</tspan></tspan><tspan id="SvgjsTspan1199" dy="16.25" x="10"><tspan id="SvgjsTspan1200" style="">  &lt;div id="app"&gt;&lt;/div&gt;</tspan></tspan><tspan id="SvgjsTspan1201" dy="16.25" x="10"><tspan id="SvgjsTspan1202" style="">&lt;/div&gt;;</tspan></tspan></text></g></g><g id="SvgjsG1203"><path id="SvgjsPath1204" d="M323.3713328107849 191.30058803002612L344.1736376355515 191.30058803002612L344.1736376355515 191.3011529612636L363.77594246031805 191.3011529612636" stroke="#323232" stroke-width="1.5" fill="none" marker-end="url(#SvgjsMarker1205)"></path></g><g id="SvgjsG1207"><path id="SvgjsPath1208" d="M182.3894821428562 105.14612594350183L182.3894821428562 135.4513569867638L182.3894821428562 135.4513569867638L182.3894821428562 163.8065880300258" stroke="#323232" stroke-width="1.5" fill="none" marker-end="url(#SvgjsMarker1209)"></path><rect id="SvgjsRect1211" width="79" height="18" x="142.8894821428562" y="115.95142466866344" fill="#ffffff"></rect><text id="SvgjsText1212" font-family="&quot;Microsoft YaHei&quot;, 微软雅黑, Arial" text-anchor="middle" font-size="13px" width="79px" fill="#323232" font-weight="400" align="top" lineHeight="16px" anchor="middle" family="&quot;Microsoft YaHei&quot;, 微软雅黑, Arial" size="13px" weight="400" font-style="" opacity="1" y="113.32642466866344" transform="rotate(0)"><tspan id="SvgjsTspan1213" dy="16.25" x="182.3894821428562"><tspan id="SvgjsTspan1214" style="">appendChild</tspan></tspan></text></g><g id="SvgjsG1215"></g></svg>