<svg id="SvgjsSvg1000" xmlns="http://www.w3.org/2000/svg" version="1.1" xmlns:xlink="http://www.w3.org/1999/xlink" xmlns:svgjs="http://svgjs.com/svgjs" width="1699.25" height="977"><defs id="SvgjsDefs1001"><marker id="SvgjsMarker1024" markerWidth="14" markerHeight="10" refX="10" refY="5" viewBox="0 0 14 10" orient="auto" markerUnits="userSpaceOnUse" stroke-dasharray="0,0"><path id="SvgjsPath1025" d="M0 0L14 5L0 10L0 0 " fill="#323232" stroke="#323232" stroke-width="1"></path></marker><marker id="SvgjsMarker1034" markerWidth="14" markerHeight="10" refX="10" refY="5" viewBox="0 0 14 10" orient="auto" markerUnits="userSpaceOnUse" stroke-dasharray="0,0"><path id="SvgjsPath1035" d="M0 0L14 5L0 10L0 0 " fill="#323232" stroke="#323232" stroke-width="1"></path></marker><marker id="SvgjsMarker1044" markerWidth="14" markerHeight="10" refX="10" refY="5" viewBox="0 0 14 10" orient="auto" markerUnits="userSpaceOnUse" stroke-dasharray="0,0"><path id="SvgjsPath1045" d="M0 0L14 5L0 10L0 0 " fill="#323232" stroke="#323232" stroke-width="1"></path></marker><marker id="SvgjsMarker1057" markerWidth="14" markerHeight="10" refX="10" refY="5" viewBox="0 0 14 10" orient="auto" markerUnits="userSpaceOnUse" stroke-dasharray="0,0"><path id="SvgjsPath1058" d="M0 0L14 5L0 10L0 0 " fill="#323232" stroke="#323232" stroke-width="1"></path></marker><marker id="SvgjsMarker1061" markerWidth="14" markerHeight="10" refX="10" refY="5" viewBox="0 0 14 10" orient="auto" markerUnits="userSpaceOnUse" stroke-dasharray="0,0"><path id="SvgjsPath1062" d="M0 0L14 5L0 10L0 0 " fill="#323232" stroke="#323232" stroke-width="1"></path></marker><marker id="SvgjsMarker1101" markerWidth="14" markerHeight="10" refX="10" refY="5" viewBox="0 0 14 10" orient="auto" markerUnits="userSpaceOnUse" stroke-dasharray="0,0"><path id="SvgjsPath1102" d="M0 0L14 5L0 10L0 0 " fill="#323232" stroke="#323232" stroke-width="1"></path></marker><marker id="SvgjsMarker1110" markerWidth="14" markerHeight="10" refX="10" refY="5" viewBox="0 0 14 10" orient="auto" markerUnits="userSpaceOnUse" stroke-dasharray="0,0"><path id="SvgjsPath1111" d="M0 0L14 5L0 10L0 0 " fill="#323232" stroke="#323232" stroke-width="1"></path></marker><marker id="SvgjsMarker1138" markerWidth="14" markerHeight="10" refX="10" refY="5" viewBox="0 0 14 10" orient="auto" markerUnits="userSpaceOnUse" stroke-dasharray="0,0"><path id="SvgjsPath1139" d="M0 0L14 5L0 10L0 0 " fill="#323232" stroke="#323232" stroke-width="1"></path></marker><marker id="SvgjsMarker1142" markerWidth="14" markerHeight="10" refX="10" refY="5" viewBox="0 0 14 10" orient="auto" markerUnits="userSpaceOnUse" stroke-dasharray="0,0"><path id="SvgjsPath1143" d="M0 0L14 5L0 10L0 0 " fill="#323232" stroke="#323232" stroke-width="1"></path></marker><marker id="SvgjsMarker1146" markerWidth="14" markerHeight="10" refX="10" refY="5" viewBox="0 0 14 10" orient="auto" markerUnits="userSpaceOnUse" stroke-dasharray="0,0"><path id="SvgjsPath1147" d="M0 0L14 5L0 10L0 0 " fill="#323232" stroke="#323232" stroke-width="1"></path></marker><marker id="SvgjsMarker1175" markerWidth="14" markerHeight="10" refX="10" refY="5" viewBox="0 0 14 10" orient="auto" markerUnits="userSpaceOnUse" stroke-dasharray="0,0"><path id="SvgjsPath1176" d="M0 0L14 5L0 10L0 0 " fill="#323232" stroke="#323232" stroke-width="1"></path></marker><marker id="SvgjsMarker1231" markerWidth="14" markerHeight="10" refX="10" refY="5" viewBox="0 0 14 10" orient="auto" markerUnits="userSpaceOnUse" stroke-dasharray="0,0"><path id="SvgjsPath1232" d="M0 0L14 5L0 10L0 0 " fill="#323232" stroke="#323232" stroke-width="1"></path></marker><marker id="SvgjsMarker1257" markerWidth="14" markerHeight="10" refX="10" refY="5" viewBox="0 0 14 10" orient="auto" markerUnits="userSpaceOnUse" stroke-dasharray="0,0"><path id="SvgjsPath1258" d="M0 0L14 5L0 10L0 0 " fill="#323232" stroke="#323232" stroke-width="1"></path></marker><marker id="SvgjsMarker1272" markerWidth="14" markerHeight="10" refX="10" refY="5" viewBox="0 0 14 10" orient="auto" markerUnits="userSpaceOnUse" stroke-dasharray="0,0"><path id="SvgjsPath1273" d="M0 0L14 5L0 10L0 0 " fill="#323232" stroke="#323232" stroke-width="1"></path></marker><marker id="SvgjsMarker1276" markerWidth="14" markerHeight="10" refX="10" refY="5" viewBox="0 0 14 10" orient="auto" markerUnits="userSpaceOnUse" stroke-dasharray="0,0"><path id="SvgjsPath1277" d="M0 0L14 5L0 10L0 0 " fill="#323232" stroke="#323232" stroke-width="1"></path></marker><marker id="SvgjsMarker1292" markerWidth="14" markerHeight="10" refX="10" refY="5" viewBox="0 0 14 10" orient="auto" markerUnits="userSpaceOnUse" stroke-dasharray="0,0"><path id="SvgjsPath1293" d="M0 0L14 5L0 10L0 0 " fill="#323232" stroke="#323232" stroke-width="1"></path></marker><marker id="SvgjsMarker1316" markerWidth="14" markerHeight="10" refX="10" refY="5" viewBox="0 0 14 10" orient="auto" markerUnits="userSpaceOnUse" stroke-dasharray="0,0"><path id="SvgjsPath1317" d="M0 0L14 5L0 10L0 0 " fill="#323232" stroke="#323232" stroke-width="1"></path></marker><marker id="SvgjsMarker1330" markerWidth="14" markerHeight="10" refX="10" refY="5" viewBox="0 0 14 10" orient="auto" markerUnits="userSpaceOnUse" stroke-dasharray="0,0"><path id="SvgjsPath1331" d="M0 0L14 5L0 10L0 0 " fill="#323232" stroke="#323232" stroke-width="1"></path></marker><marker id="SvgjsMarker1350" markerWidth="14" markerHeight="10" refX="10" refY="5" viewBox="0 0 14 10" orient="auto" markerUnits="userSpaceOnUse" stroke-dasharray="0,0"><path id="SvgjsPath1351" d="M0 0L14 5L0 10L0 0 " fill="#323232" stroke="#323232" stroke-width="1"></path></marker><marker id="SvgjsMarker1378" markerWidth="14" markerHeight="10" refX="10" refY="5" viewBox="0 0 14 10" orient="auto" markerUnits="userSpaceOnUse" stroke-dasharray="0,0"><path id="SvgjsPath1379" d="M0 0L14 5L0 10L0 0 " fill="#323232" stroke="#323232" stroke-width="1"></path></marker><marker id="SvgjsMarker1394" markerWidth="14" markerHeight="10" refX="10" refY="5" viewBox="0 0 14 10" orient="auto" markerUnits="userSpaceOnUse" stroke-dasharray="0,0"><path id="SvgjsPath1395" d="M0 0L14 5L0 10L0 0 " fill="#323232" stroke="#323232" stroke-width="1"></path></marker><marker id="SvgjsMarker1406" markerWidth="14" markerHeight="10" refX="10" refY="5" viewBox="0 0 14 10" orient="auto" markerUnits="userSpaceOnUse" stroke-dasharray="0,0"><path id="SvgjsPath1407" d="M0 0L14 5L0 10L0 0 " fill="#323232" stroke="#323232" stroke-width="1"></path></marker><marker id="SvgjsMarker1457" markerWidth="14" markerHeight="10" refX="10" refY="5" viewBox="0 0 14 10" orient="auto" markerUnits="userSpaceOnUse" stroke-dasharray="0,0"><path id="SvgjsPath1458" d="M0 0L14 5L0 10L0 0 " fill="#323232" stroke="#323232" stroke-width="1"></path></marker><marker id="SvgjsMarker1461" markerWidth="14" markerHeight="10" refX="10" refY="5" viewBox="0 0 14 10" orient="auto" markerUnits="userSpaceOnUse" stroke-dasharray="0,0"><path id="SvgjsPath1462" d="M0 0L14 5L0 10L0 0 " fill="#323232" stroke="#323232" stroke-width="1"></path></marker><marker id="SvgjsMarker1473" markerWidth="14" markerHeight="10" refX="10" refY="5" viewBox="0 0 14 10" orient="auto" markerUnits="userSpaceOnUse" stroke-dasharray="0,0"><path id="SvgjsPath1474" d="M0 0L14 5L0 10L0 0 " fill="#323232" stroke="#323232" stroke-width="1"></path></marker><marker id="SvgjsMarker1485" markerWidth="14" markerHeight="10" refX="10" refY="5" viewBox="0 0 14 10" orient="auto" markerUnits="userSpaceOnUse" stroke-dasharray="0,0"><path id="SvgjsPath1486" d="M0 0L14 5L0 10L0 0 " fill="#323232" stroke="#323232" stroke-width="1"></path></marker><marker id="SvgjsMarker1495" markerWidth="14" markerHeight="10" refX="10" refY="5" viewBox="0 0 14 10" orient="auto" markerUnits="userSpaceOnUse" stroke-dasharray="0,0"><path id="SvgjsPath1496" d="M0 0L14 5L0 10L0 0 " fill="#323232" stroke="#323232" stroke-width="1"></path></marker><pattern patternUnits="userSpaceOnUse" id="pattern_mark" width="300" height="300"><text x="-50" y="150" fill="rgba(229,229,229,0.8)" font-size="18" transform="rotate(-45, 150, 150)">https://github.com/wbccb</text></pattern></defs><g id="svgbackgroundid"><defs></defs><rect id="SvgjsRect1008" width="1699.25" height="977" fill="#ffffff"></rect></g><rect fill="url(#pattern_mark)" transform="translate(-96.5,15)" width="2105" height="1500" id="rect_mark" pointer-events="none"></rect><g id="SvgjsG1010" transform="translate(54.5,126.5)"><path id="SvgjsPath1011" d="M0 0L110 0L110 45L0 45Z " stroke="rgba(50,50,50,1)" stroke-width="2" fill-opacity="1" fill="#ffffff"></path><g id="SvgjsG1012"><text id="SvgjsText1013" font-family="微软雅黑" text-anchor="middle" font-size="13px" width="90px" fill="#323232" font-weight="400" align="middle" lineHeight="125%" font-style="" opacity="1" y="11.875" transform="rotate(0)"><tspan id="SvgjsTspan1014" dy="16" x="55"><tspan id="SvgjsTspan1015" style="text-decoration:;">prepare</tspan></tspan></text></g></g><g id="SvgjsG1016" transform="translate(54.5,206.5)"><path id="SvgjsPath1017" d="M0 0L110 0L110 45L0 45Z " stroke="rgba(50,50,50,1)" stroke-width="2" fill-opacity="1" fill="#ffffff"></path><g id="SvgjsG1018"><text id="SvgjsText1019" font-family="微软雅黑" text-anchor="middle" font-size="13px" width="90px" fill="#323232" font-weight="400" align="middle" lineHeight="125%" font-style="" opacity="1" y="11.875" transform="rotate(0)"><tspan id="SvgjsTspan1020" dy="16" x="55"><tspan id="SvgjsTspan1021" style="text-decoration:;">modules</tspan></tspan></text></g></g><g id="SvgjsG1022"><path id="SvgjsPath1023" d="M109.5 172.5L109.5 189L109.5 189L109.5 202.9 " stroke="#323232" stroke-width="2" fill="none" marker-end="url(#SvgjsMarker1024)"></path></g><g id="SvgjsG1026" transform="translate(54.5,344.1875)"><path id="SvgjsPath1027" d="M0 0L110 0L110 45L0 45Z " stroke="rgba(50,50,50,1)" stroke-width="2" fill-opacity="1" fill="#ffffff"></path><g id="SvgjsG1028"><text id="SvgjsText1029" font-family="微软雅黑" text-anchor="middle" font-size="13px" width="90px" fill="#323232" font-weight="400" align="middle" lineHeight="125%" font-style="" opacity="1" y="11.875" transform="rotate(0)"><tspan id="SvgjsTspan1030" dy="16" x="55"><tspan id="SvgjsTspan1031" style="text-decoration:;">queue</tspan></tspan></text></g></g><g id="SvgjsG1032"><path id="SvgjsPath1033" d="M109.5 252.5L109.5 297.84375L109.5 297.84375L109.5 340.5875 " stroke="#323232" stroke-width="2" fill="none" marker-end="url(#SvgjsMarker1034)"></path></g><g id="SvgjsG1036" transform="translate(54.5,485.375)"><path id="SvgjsPath1037" d="M0 0L110 0L110 45L0 45Z " stroke="rgba(50,50,50,1)" stroke-width="2" fill-opacity="1" fill="#ffffff"></path><g id="SvgjsG1038"><text id="SvgjsText1039" font-family="微软雅黑" text-anchor="middle" font-size="13px" width="90px" fill="#323232" font-weight="400" align="middle" lineHeight="125%" font-style="" opacity="1" y="11.875" transform="rotate(0)"><tspan id="SvgjsTspan1040" dy="16" x="55"><tspan id="SvgjsTspan1041" style="text-decoration:;">maxSize</tspan></tspan></text></g></g><g id="SvgjsG1042"><path id="SvgjsPath1043" d="M109.5 390.1875L109.5 437.28125L109.5 437.28125L109.5 481.775 " stroke="#323232" stroke-width="2" fill="none" marker-end="url(#SvgjsMarker1044)"></path></g><g id="SvgjsG1046" transform="translate(25,25)"><path id="SvgjsPath1047" d="M20 0L149 0C175.66666666666666 0 175.66666666666666 60 149 60L20 60C-6.666666666666667 60 -6.666666666666667 0 20 0Z " stroke="rgba(50,50,50,1)" stroke-width="2" fill-opacity="1" fill="#ffffff"></path><g id="SvgjsG1048"><text id="SvgjsText1049" font-family="微软雅黑" text-anchor="middle" font-size="13px" width="149px" fill="#323232" font-weight="400" align="middle" lineHeight="125%" font-style="" opacity="1" y="11.375" transform="rotate(0)"><tspan id="SvgjsTspan1050" dy="16" x="84.5"><tspan id="SvgjsTspan1051" style="text-decoration:;">compilation.hooks.</tspan></tspan><tspan id="SvgjsTspan1052" dy="16" x="84.5"><tspan id="SvgjsTspan1053" style="text-decoration:;">optimizeChunks</tspan><tspan id="SvgjsTspan1054" style="text-decoration:;fill: rgb(255, 0, 0);">.tap</tspan></tspan></text></g></g><g id="SvgjsG1055"><path id="SvgjsPath1056" d="M109.5 86L109.5 105.75L109.5 105.75L109.5 122.9 " stroke="#323232" stroke-width="2" fill="none" marker-end="url(#SvgjsMarker1057)"></path></g><g id="SvgjsG1059"><path id="SvgjsPath1060" d="M165.5 149L182.53125 149L182.53125 149L196.96249999999998 149 " stroke="#323232" stroke-width="2" fill="none" marker-end="url(#SvgjsMarker1061)"></path></g><g id="SvgjsG1063" transform="translate(1227.25,157)"><path id="SvgjsPath1064" d="M0 0L447 0L447 97L0 97Z " stroke="rgba(50,50,50,1)" stroke-width="2" fill-opacity="1" fill="#ffffff"></path><g id="SvgjsG1065"><text id="SvgjsText1066" font-family="微软雅黑" text-anchor="middle" font-size="13px" width="427px" fill="#323232" font-weight="400" align="middle" lineHeight="125%" font-style="" opacity="1" y="37.875" transform="rotate(0)"></text></g></g><g id="SvgjsG1067" transform="translate(650.75,496.5)"><path id="SvgjsPath1068" d="M0 0L114 0L114 40L0 40Z " stroke="rgba(50,50,50,1)" stroke-width="2" fill-opacity="1" fill="#ffffff"></path><g id="SvgjsG1069"><text id="SvgjsText1070" font-family="微软雅黑" text-anchor="middle" font-size="13px" width="94px" fill="#323232" font-weight="400" align="middle" lineHeight="125%" font-style="" opacity="1" y="9.375" transform="rotate(0)"><tspan id="SvgjsTspan1071" dy="16" x="57"><tspan id="SvgjsTspan1072" style="text-decoration:;">newChunk</tspan></tspan></text></g></g><g id="SvgjsG1073" transform="translate(613.25,55)"><path id="SvgjsPath1074" d="M0 0L189 0L189 44L0 44Z " stroke="rgba(50,50,50,1)" stroke-width="2" fill-opacity="1" fill="#ffffff"></path><g id="SvgjsG1075"><text id="SvgjsText1076" font-family="微软雅黑" text-anchor="middle" font-size="13px" width="169px" fill="#323232" font-weight="400" align="middle" lineHeight="125%" font-style="" opacity="1" y="11.375" transform="rotate(0)"><tspan id="SvgjsTspan1077" dy="16" x="94.5"><tspan id="SvgjsTspan1078" style="text-decoration:;">遍历chunksInfoMap</tspan></tspan></text></g></g><g id="SvgjsG1079" transform="translate(812.25,147.5)"><path id="SvgjsPath1080" d="M0 0L108 0L108 47L0 47Z " stroke="rgba(50,50,50,1)" stroke-width="2" fill-opacity="1" fill="#ffffff"></path><g id="SvgjsG1081"><text id="SvgjsText1082" font-family="微软雅黑" text-anchor="middle" font-size="13px" width="88px" fill="#323232" font-weight="400" align="middle" lineHeight="125%" font-style="" opacity="1" y="12.875" transform="rotate(0)"><tspan id="SvgjsTspan1083" dy="16" x="54"><tspan id="SvgjsTspan1084" style="text-decoration:;">item.chunks</tspan></tspan></text></g></g><g id="SvgjsG1085" transform="translate(812.25,221.5)"><path id="SvgjsPath1086" d="M0 0L108 0L108 47L0 47Z " stroke="rgba(50,50,50,1)" stroke-width="2" fill-opacity="1" fill="#ffffff"></path><g id="SvgjsG1087"><text id="SvgjsText1088" font-family="微软雅黑" text-anchor="middle" font-size="13px" width="88px" fill="#323232" font-weight="400" align="middle" lineHeight="125%" font-style="" opacity="1" y="12.875" transform="rotate(0)"><tspan id="SvgjsTspan1089" dy="16" x="54"><tspan id="SvgjsTspan1090" style="text-decoration:;">item.modules</tspan></tspan></text></g></g><g id="SvgjsG1091" transform="translate(630.75,182)"><path id="SvgjsPath1092" d="M0 0L154 0L154 47L0 47Z " stroke="rgba(50,50,50,1)" stroke-width="2" fill-opacity="1" fill="#ffffff"></path><g id="SvgjsG1093"><text id="SvgjsText1094" font-family="微软雅黑" text-anchor="middle" font-size="13px" width="134px" fill="#323232" font-weight="400" align="middle" lineHeight="125%" font-style="" opacity="1" y="4.875" transform="rotate(0)"><tspan id="SvgjsTspan1095" dy="16" x="77"><tspan id="SvgjsTspan1096" style="text-decoration:;">bestEntry=具有</tspan></tspan><tspan id="SvgjsTspan1097" dy="16" x="77"><tspan id="SvgjsTspan1098" style="text-decoration:;">cacheGroup=test3</tspan></tspan></text></g></g><g id="SvgjsG1099"><path id="SvgjsPath1100" d="M707.75 100L707.75 140.5L707.75 140.5L707.75 178.4 " stroke="#323232" stroke-width="2" fill="none" marker-end="url(#SvgjsMarker1101)"></path></g><g id="SvgjsG1103" transform="translate(710.25,139.5)"><path id="SvgjsPath1104" d="M100 0Q91 0 91 9L91 61Q91 70 78 70Q91 70 91 79L91 131Q91 140 100 140 " stroke="rgba(50,50,50,1)" stroke-width="2" fill="none"></path><path id="SvgjsPath1105" d="M0 0L100 0L100 140L0 140Z " stroke="none" fill="none"></path><g id="SvgjsG1106"><text id="SvgjsText1107" font-family="微软雅黑" text-anchor="end" font-size="13px" width="73px" fill="#323232" font-weight="400" align="middle" lineHeight="125%" font-style="" opacity="1" y="59.375" transform="rotate(0)"></text></g></g><g id="SvgjsG1108"><path id="SvgjsPath1109" d="M707.75 230L707.75 270.5L707.75 270.5L707.75 308.4 " stroke="#323232" stroke-width="2" fill="none" marker-end="url(#SvgjsMarker1110)"></path></g><g id="SvgjsG1112" transform="translate(564,312)"><path id="SvgjsPath1113" d="M0 0L287.5 0L287.5 88L0 88Z " stroke="rgba(50,50,50,1)" stroke-width="2" fill-opacity="1" fill="#ffffff"></path><g id="SvgjsG1114"><text id="SvgjsText1115" font-family="微软雅黑" text-anchor="start" font-size="12px" width="268px" fill="#323232" font-weight="400" align="middle" lineHeight="125%" font-style="" opacity="1" y="4" transform="rotate(0)"><tspan id="SvgjsTspan1116" dy="15" x="10"><tspan id="SvgjsTspan1117" style="text-decoration:;">1. isExistingChunk</tspan></tspan><tspan id="SvgjsTspan1118" dy="15" x="10"><tspan id="SvgjsTspan1119" style="text-decoration:;">2. maxInitialRequests和maxAsyncRequests</tspan></tspan><tspan id="SvgjsTspan1120" dy="15" x="10"><tspan id="SvgjsTspan1121" style="text-decoration:;">3. chunkGraph.isModuleInChunk</tspan></tspan><tspan id="SvgjsTspan1122" dy="15" x="10"><tspan id="SvgjsTspan1123" style="text-decoration:;">4. 不符合usedChunks.size&lt;item.chunks.size</tspan></tspan><tspan id="SvgjsTspan1124" dy="15" x="10"><tspan id="SvgjsTspan1125" style="text-decoration:;">5. minRemainingSize检测通过</tspan></tspan></text></g></g><g id="SvgjsG1126" transform="translate(911.25,322)"><path id="SvgjsPath1127" d="M0 0L247 0L263 16L263 68L0 68L0 0Z " stroke="none" fill-opacity="1" fill="#fff9c4"></path><path id="SvgjsPath1128" d="M247 0L247 16L263 16Z " stroke="none" fill-opacity="1" fill="#cdcdcd"></path><path id="SvgjsPath1129" d="M0 0L247 0L263 16L263 68L0 68L0 0Z " stroke="none" fill="none"></path><g id="SvgjsG1130"><text id="SvgjsText1131" font-family="微软雅黑" text-anchor="middle" font-size="12px" width="243px" fill="#323232" font-weight="400" align="middle" lineHeight="125%" font-style="" opacity="1" y="16.5" transform="rotate(0)"><tspan id="SvgjsTspan1132" dy="15" x="131.5"><tspan id="SvgjsTspan1133" style="text-decoration:;">const usedChunks = new Set(item.chunks)</tspan></tspan><tspan id="SvgjsTspan1134" dy="15" x="131.5"><tspan id="SvgjsTspan1135" style="text-decoration:;">usedChunks.delete(chunk)</tspan></tspan></text></g></g><g id="SvgjsG1136"><path id="SvgjsPath1137" d="M852.5 356L881.375 356L881.375 356L908.6500000000001 356 " stroke="#323232" stroke-width="2" fill="none" marker-end="url(#SvgjsMarker1138)"></path></g><g id="SvgjsG1140"><path id="SvgjsPath1141" d="M707.75 401L707.75 448.25L707.75 448.25L707.75 492.9 " stroke="#323232" stroke-width="2" fill="none" marker-end="url(#SvgjsMarker1142)"></path></g><g id="SvgjsG1144"><path id="SvgjsPath1145" d="M921.25 171L1042.75 171L1042.75 319.4 " stroke-dasharray="3,3" stroke="#323232" stroke-width="2" fill="none" marker-end="url(#SvgjsMarker1146)"></path><rect id="SvgjsRect1148" width="68" height="16" x="1008.75" y="176.45" fill="#ffffff"></rect><text id="SvgjsText1149" font-family="微软雅黑" text-anchor="middle" font-size="13px" width="68px" fill="#323232" font-weight="400" align="top" lineHeight="16px" font-style="" opacity="1" y="173.825" transform="rotate(0)"><tspan id="SvgjsTspan1150" dy="16" x="1042.75"><tspan id="SvgjsTspan1151" style="text-decoration:;">提供chunks</tspan></tspan></text></g><g id="SvgjsG1152" transform="translate(803.25,450)"><path id="SvgjsPath1153" d="M0 0L201 0L201 43L0 43Z " stroke="rgba(50,50,50,1)" stroke-width="2" fill-opacity="1" fill="#ffffff"></path><g id="SvgjsG1154"><text id="SvgjsText1155" font-family="微软雅黑" text-anchor="middle" font-size="13px" width="181px" fill="#323232" font-weight="400" align="middle" lineHeight="125%" font-style="" opacity="1" y="10.875" transform="rotate(0)"><tspan id="SvgjsTspan1156" dy="16" x="100.5"><tspan id="SvgjsTspan1157" style="text-decoration:;">compilation.addChunk(name)</tspan></tspan></text></g></g><g id="SvgjsG1158" transform="translate(796.75,517.5)"><path id="SvgjsPath1159" d="M0 0L214 0L214 65L0 65Z " stroke="rgba(50,50,50,1)" stroke-width="2" fill-opacity="1" fill="#ffffff"></path><g id="SvgjsG1160"><text id="SvgjsText1161" font-family="微软雅黑" text-anchor="start" font-size="12px" width="194px" fill="#323232" font-weight="400" align="middle" lineHeight="125%" font-style="" opacity="1" y="7.5" transform="rotate(0)"><tspan id="SvgjsTspan1162" dy="15" x="10"><tspan id="SvgjsTspan1163" style="text-decoration:;">for (const chunk of usedChunks) {</tspan></tspan><tspan id="SvgjsTspan1164" dy="15" x="10"><tspan id="SvgjsTspan1165" style="text-decoration:;">    chunk.split(newChunk);</tspan></tspan><tspan id="SvgjsTspan1166" dy="15" x="10"><tspan id="SvgjsTspan1167" style="text-decoration:;">}</tspan></tspan></text></g></g><g id="SvgjsG1168" transform="translate(693.25,438)"><path id="SvgjsPath1169" d="M100 0Q91 0 91 9L91 67Q91 76 78 76Q91 76 91 85L91 143Q91 152 100 152 " stroke="rgba(50,50,50,1)" stroke-width="2" fill="none"></path><path id="SvgjsPath1170" d="M0 0L100 0L100 152L0 152Z " stroke="none" fill="none"></path><g id="SvgjsG1171"><text id="SvgjsText1172" font-family="微软雅黑" text-anchor="end" font-size="13px" width="73px" fill="#323232" font-weight="400" align="middle" lineHeight="125%" font-style="" opacity="1" y="65.375" transform="rotate(0)"></text></g></g><g id="SvgjsG1173"><path id="SvgjsPath1174" d="M903.75 494L903.75 505.25L903.75 505.25L903.75 513.9 " stroke="#323232" stroke-width="2" fill="none" marker-end="url(#SvgjsMarker1175)"></path></g><g id="SvgjsG1177" transform="translate(1237.75,174.5)"><path id="SvgjsPath1178" d="M0 35C0 -11.666666666666666 70 -11.666666666666666 70 35C70 81.66666666666667 0 81.66666666666667 0 35Z " stroke="rgba(50,50,50,1)" stroke-width="2" fill-opacity="1" fill="#bbdefb"></path><g id="SvgjsG1179"><text id="SvgjsText1180" font-family="微软雅黑" text-anchor="middle" font-size="13px" width="50px" fill="#323232" font-weight="400" align="middle" lineHeight="125%" font-style="" opacity="1" y="24.375" transform="rotate(0)"><tspan id="SvgjsTspan1181" dy="16" x="35"><tspan id="SvgjsTspan1182" style="text-decoration:;">app1</tspan></tspan></text></g></g><g id="SvgjsG1183" transform="translate(1353,174.5)"><path id="SvgjsPath1184" d="M0 35C0 -11.666666666666666 70 -11.666666666666666 70 35C70 81.66666666666667 0 81.66666666666667 0 35Z " stroke="rgba(50,50,50,1)" stroke-width="2" fill-opacity="1" fill="#ffcdd2"></path><g id="SvgjsG1185"><text id="SvgjsText1186" font-family="微软雅黑" text-anchor="middle" font-size="13px" width="50px" fill="#323232" font-weight="400" align="middle" lineHeight="125%" font-style="" opacity="1" y="24.375" transform="rotate(0)"><tspan id="SvgjsTspan1187" dy="16" x="35"><tspan id="SvgjsTspan1188" style="text-decoration:;">app2</tspan></tspan></text></g></g><g id="SvgjsG1189" transform="translate(1468.25,174.5)"><path id="SvgjsPath1190" d="M0 35C0 -11.666666666666666 70 -11.666666666666666 70 35C70 81.66666666666667 0 81.66666666666667 0 35Z " stroke="rgba(50,50,50,1)" stroke-width="2" fill-opacity="1" fill="#fff9c4"></path><g id="SvgjsG1191"><text id="SvgjsText1192" font-family="微软雅黑" text-anchor="middle" font-size="13px" width="50px" fill="#323232" font-weight="400" align="middle" lineHeight="125%" font-style="" opacity="1" y="24.375" transform="rotate(0)"><tspan id="SvgjsTspan1193" dy="16" x="35"><tspan id="SvgjsTspan1194" style="text-decoration:;">app3</tspan></tspan></text></g></g><g id="SvgjsG1195" transform="translate(1588.25,174.5)"><path id="SvgjsPath1196" d="M0 35C0 -11.666666666666666 70 -11.666666666666666 70 35C70 81.66666666666667 0 81.66666666666667 0 35Z " stroke="rgba(50,50,50,1)" stroke-width="2" fill-opacity="1" fill="#ffffff"></path><g id="SvgjsG1197"><text id="SvgjsText1198" font-family="微软雅黑" text-anchor="middle" font-size="13px" width="50px" fill="#323232" font-weight="400" align="middle" lineHeight="125%" font-style="" opacity="1" y="24.375" transform="rotate(0)"><tspan id="SvgjsTspan1199" dy="16" x="35"><tspan id="SvgjsTspan1200" style="text-decoration:;">app4</tspan></tspan></text></g></g><g id="SvgjsG1201" transform="translate(1228.25,103)"><path id="SvgjsPath1202" d="M0 0L152 0L152 54L0 54Z " stroke-dasharray="10,6" stroke="rgba(50,50,50,1)" stroke-width="2" fill-opacity="1" fill="#ffffff"></path><g id="SvgjsG1203"><text id="SvgjsText1204" font-family="微软雅黑" text-anchor="middle" font-size="13px" width="132px" fill="#323232" font-weight="400" align="middle" lineHeight="125%" font-style="" opacity="1" y="16.375" transform="rotate(0)"></text></g></g><g id="SvgjsG1205" transform="translate(1249.25,115)"><path id="SvgjsPath1206" d="M0 15.000000000000014C0 -5.000000000000004 30 -5.000000000000004 30 15.000000000000014C30 35.000000000000036 0 35.000000000000036 0 15.000000000000014Z " stroke="rgba(50,50,50,1)" stroke-width="2" fill-opacity="1" fill="#ffffff"></path><g id="SvgjsG1207"><text id="SvgjsText1208" font-family="微软雅黑" text-anchor="middle" font-size="13px" width="10px" fill="#323232" font-weight="400" align="middle" lineHeight="125%" font-style="" opacity="1" y="4.375000000000014" transform="rotate(0)"></text></g></g><g id="SvgjsG1209" transform="translate(1266.25,110)"><path id="SvgjsPath1210" d="M0 0L120 0L120 40L0 40Z " stroke="none" fill="none"></path><g id="SvgjsG1211"><text id="SvgjsText1212" font-family="微软雅黑" text-anchor="middle" font-size="13px" width="120px" fill="#323232" font-weight="400" align="middle" lineHeight="125%" font-style="" opacity="1" y="9.375" transform="rotate(0)"><tspan id="SvgjsTspan1213" dy="16" x="60"><tspan id="SvgjsTspan1214" style="text-decoration:;">代表chunk</tspan></tspan></text></g></g><g id="SvgjsG1215" transform="translate(1042.75,508.5)"><path id="SvgjsPath1216" d="M0 0L288.5 0L304.5 16L304.5 83L0 83L0 0Z " stroke="none" fill-opacity="1" fill="#fff9c4"></path><path id="SvgjsPath1217" d="M288.5 0L288.5 16L304.5 16Z " stroke="none" fill-opacity="1" fill="#cdcdcd"></path><path id="SvgjsPath1218" d="M0 0L288.5 0L304.5 16L304.5 83L0 83L0 0Z " stroke="none" fill="none"></path><g id="SvgjsG1219"><text id="SvgjsText1220" font-family="微软雅黑" text-anchor="start" font-size="12px" width="285px" fill="#323232" font-weight="400" align="middle" lineHeight="125%" font-style="" opacity="1" y="9" transform="rotate(0)"><tspan id="SvgjsTspan1221" dy="15" x="10"><tspan id="SvgjsTspan1222" style="text-decoration:;">for (const chunkGroup of this._groups) {</tspan></tspan><tspan id="SvgjsTspan1223" dy="15" x="10"><tspan id="SvgjsTspan1224" style="text-decoration:;">    chunkGroup.insertChunk(newChunk, this);</tspan></tspan><tspan id="SvgjsTspan1225" dy="15" x="10"><tspan id="SvgjsTspan1226" style="text-decoration:;">    newChunk.addGroup(chunkGroup);</tspan></tspan><tspan id="SvgjsTspan1227" dy="15" x="10"><tspan id="SvgjsTspan1228" style="text-decoration:;">}</tspan></tspan></text></g></g><g id="SvgjsG1229"><path id="SvgjsPath1230" d="M1011.75 550L1026.75 550L1026.75 550L1040.15 550 " stroke="#323232" stroke-width="2" fill="none" marker-end="url(#SvgjsMarker1231)"></path></g><g id="SvgjsG1233" transform="translate(1390,124)"><path id="SvgjsPath1234" d="M0 0L120 0L120 40L0 40Z " stroke="none" fill="none"></path><g id="SvgjsG1235"><text id="SvgjsText1236" font-family="微软雅黑" text-anchor="middle" font-size="13px" width="120px" fill="#ff0000" font-weight="700" align="middle" lineHeight="125%" font-style="" opacity="1" y="9.375" transform="rotate(0)"><tspan id="SvgjsTspan1237" dy="16" x="60"><tspan id="SvgjsTspan1238" style="text-decoration:;">usedChunks</tspan></tspan></text></g></g><g id="SvgjsG1239" transform="translate(1304.875,285.3125)"><path id="SvgjsPath1240" d="M0 0L166.25 0L166.25 71L0 71Z " stroke="rgba(50,50,50,1)" stroke-width="2" fill-opacity="1" fill="#ffffff"></path><g id="SvgjsG1241"><text id="SvgjsText1242" font-family="微软雅黑" text-anchor="middle" font-size="13px" width="147px" fill="#323232" font-weight="400" align="middle" lineHeight="125%" font-style="" opacity="1" y="8.875" transform="rotate(0)"><tspan id="SvgjsTspan1243" dy="16" x="83.5"><tspan id="SvgjsTspan1244" style="text-decoration:;">this._group:</tspan></tspan><tspan id="SvgjsTspan1245" dy="16" x="83.5"><tspan id="SvgjsTspan1246" style="text-decoration:;"> SortableSet&lt;ChunkGro</tspan></tspan><tspan id="SvgjsTspan1247" dy="16" x="83.5"><tspan id="SvgjsTspan1248" style="text-decoration:;">up&gt;</tspan></tspan></text></g></g><g id="SvgjsG1249" transform="translate(1306.6875,390)"><path id="SvgjsPath1250" d="M0 0L162.625 0L162.625 39.75L0 39.75Z " stroke="rgba(50,50,50,1)" stroke-width="2" fill-opacity="1" fill="#ffffff"></path><g id="SvgjsG1251"><text id="SvgjsText1252" font-family="微软雅黑" text-anchor="middle" font-size="13px" width="143px" fill="#323232" font-weight="400" align="middle" lineHeight="125%" font-style="" opacity="1" y="9.25" transform="rotate(0)"><tspan id="SvgjsTspan1253" dy="16" x="81.5"><tspan id="SvgjsTspan1254" style="text-decoration:;">ChunkGroup.chunks</tspan></tspan></text></g></g><g id="SvgjsG1255"><path id="SvgjsPath1256" d="M1388 357.3125L1388 373.15625L1388 373.15625L1388 386.4 " stroke="#323232" stroke-width="2" fill="none" marker-end="url(#SvgjsMarker1257)"></path></g><g id="SvgjsG1259" transform="translate(1554.25,383.875)"><path id="SvgjsPath1260" d="M0 0L81 0L97 16L97 52L0 52L0 0Z " stroke="none" fill-opacity="1" fill="#fff9c4"></path><path id="SvgjsPath1261" d="M81 0L81 16L97 16Z " stroke="none" fill-opacity="1" fill="#cdcdcd"></path><path id="SvgjsPath1262" d="M0 0L81 0L97 16L97 52L0 52L0 0Z " stroke="none" fill="none"></path><g id="SvgjsG1263"><text id="SvgjsText1264" font-family="微软雅黑" text-anchor="start" font-size="13px" width="77px" fill="#323232" font-weight="400" align="middle" lineHeight="125%" font-style="" opacity="1" y="7.375" transform="rotate(0)"><tspan id="SvgjsTspan1265" dy="16" x="10"><tspan id="SvgjsTspan1266" style="text-decoration:;">1. app3</tspan><tspan id="SvgjsTspan1267" style="text-decoration:;font-size: inherit;"> </tspan></tspan><tspan id="SvgjsTspan1268" dy="16" x="10"><tspan id="SvgjsTspan1269" style="text-decoration:;font-size: inherit;">2.newChunk</tspan></tspan></text></g></g><g id="SvgjsG1270"><path id="SvgjsPath1271" d="M1195 508.5L1195 409.875L1303.0875 409.875 " stroke-dasharray="8,5" stroke="#323232" stroke-width="2" fill="none" marker-end="url(#SvgjsMarker1272)"></path></g><g id="SvgjsG1274"><path id="SvgjsPath1275" d="M1388 245.5L1388 264.90625L1388 264.90625L1388 281.7125 " stroke="#323232" stroke-width="2" fill="none" marker-end="url(#SvgjsMarker1276)"></path></g><g id="SvgjsG1278" transform="translate(1199.75,430.25)"><path id="SvgjsPath1279" d="M0 0L332.5 0L332.5 82.5L0 82.5Z " stroke="none" fill="none"></path><g id="SvgjsG1280"><text id="SvgjsText1281" font-family="微软雅黑" text-anchor="middle" font-size="12px" width="333px" fill="#ff0000" font-weight="700" align="middle" lineHeight="125%" font-style="" opacity="1" y="8.75" transform="rotate(0)"><tspan id="SvgjsTspan1282" dy="15" x="166.5"><tspan id="SvgjsTspan1283" style="text-decoration:;">往app2这个入口Chunk的ChunkGroup插入newChunk，建立</tspan></tspan><tspan id="SvgjsTspan1284" dy="15" x="166.5"><tspan id="SvgjsTspan1285" style="text-decoration:;">它们的依赖关系，在后面生成代码时可以正确生成对应的依赖</tspan></tspan><tspan id="SvgjsTspan1286" dy="15" x="166.5"><tspan id="SvgjsTspan1287" style="text-decoration:;">关系，即app3-Chunk可以加载newChunk，毕竟是从app1、</tspan></tspan><tspan id="SvgjsTspan1288" dy="15" x="166.5"><tspan id="SvgjsTspan1289" style="text-decoration:;">app2、app3、app4这4个Chunk分离出来的newChunk</tspan></tspan></text></g></g><g id="SvgjsG1290"><path id="SvgjsPath1291" d="M1470.3125 409.875L1511.78125 409.875L1511.78125 409.875L1551.65 409.875 " stroke="#323232" stroke-width="2" fill="none" marker-end="url(#SvgjsMarker1292)"></path><rect id="SvgjsRect1294" width="26" height="16" x="1497.98125" y="401.875" fill="#ffffff"></rect><text id="SvgjsText1295" font-family="微软雅黑" text-anchor="middle" font-size="13px" width="26px" fill="#323232" font-weight="400" align="top" lineHeight="16px" font-style="" opacity="1" y="399.25" transform="rotate(0)"><tspan id="SvgjsTspan1296" dy="16" x="1510.98125"><tspan id="SvgjsTspan1297" style="text-decoration:;">变成</tspan></tspan></text></g><g id="SvgjsG1298" transform="translate(564,637)"><path id="SvgjsPath1299" d="M0 0L382 0L382 108L0 108Z " stroke="rgba(50,50,50,1)" stroke-width="2" fill-opacity="1" fill="#ffffff"></path><g id="SvgjsG1300"><text id="SvgjsText1301" font-family="微软雅黑" text-anchor="start" font-size="12px" width="362px" fill="#323232" font-weight="400" align="middle" lineHeight="125%" font-style="" opacity="1" y="6.5" transform="rotate(0)"><tspan id="SvgjsTspan1302" dy="15" x="10"><tspan id="SvgjsTspan1303" style="text-decoration:;">for (const module of item.modules) {</tspan></tspan><tspan id="SvgjsTspan1304" dy="15" x="10"><tspan id="SvgjsTspan1305" style="text-decoration:;">    chunkGraph.connectChunkAndModule(newChunk, module);</tspan></tspan><tspan id="SvgjsTspan1306" dy="15" x="10"><tspan id="SvgjsTspan1307" style="text-decoration:;">    for (const chunk of usedChunks) {</tspan></tspan><tspan id="SvgjsTspan1308" dy="15" x="10"><tspan id="SvgjsTspan1309" style="text-decoration:;">        chunkGraph.disconnectChunkAndModule(chunk, module);</tspan></tspan><tspan id="SvgjsTspan1310" dy="15" x="10"><tspan id="SvgjsTspan1311" style="text-decoration:;">    }</tspan></tspan><tspan id="SvgjsTspan1312" dy="15" x="10"><tspan id="SvgjsTspan1313" style="text-decoration:;">}</tspan></tspan></text></g></g><g id="SvgjsG1314"><path id="SvgjsPath1315" d="M903.75 583.5L903.75 609.75L755 609.75L755 633.4 " stroke="#323232" stroke-width="2" fill="none" marker-end="url(#SvgjsMarker1316)"></path></g><g id="SvgjsG1318" transform="translate(1042.75,660)"><path id="SvgjsPath1319" d="M0 0L222.25 0L238.25 16L238.25 62L0 62L0 0Z " stroke="none" fill-opacity="1" fill="#fff9c4"></path><path id="SvgjsPath1320" d="M222.25 0L222.25 16L238.25 16Z " stroke="none" fill-opacity="1" fill="#cdcdcd"></path><path id="SvgjsPath1321" d="M0 0L222.25 0L238.25 16L238.25 62L0 62L0 0Z " stroke="none" fill="none"></path><g id="SvgjsG1322"><text id="SvgjsText1323" font-family="微软雅黑" text-anchor="middle" font-size="13px" width="219px" fill="#323232" font-weight="400" align="middle" lineHeight="125%" font-style="" opacity="1" y="12.375" transform="rotate(0)"><tspan id="SvgjsTspan1324" dy="16" x="119.5"><tspan id="SvgjsTspan1325" style="text-decoration:;">绑定所有module与newChunk，</tspan></tspan><tspan id="SvgjsTspan1326" dy="16" x="119.5"><tspan id="SvgjsTspan1327" style="text-decoration:;">解除所有module与其它chunk的关系</tspan></tspan></text></g></g><g id="SvgjsG1328"><path id="SvgjsPath1329" d="M947 691L994.375 691L994.375 691L1040.15 691 " stroke="#323232" stroke-width="2" fill="none" marker-end="url(#SvgjsMarker1330)"></path></g><g id="SvgjsG1332" transform="translate(609,849)"><path id="SvgjsPath1333" d="M0 0L292 0L292 103L0 103Z " stroke="rgba(50,50,50,1)" stroke-width="2" fill-opacity="1" fill="#ffffff"></path><g id="SvgjsG1334"><text id="SvgjsText1335" font-family="微软雅黑" text-anchor="start" font-size="12px" width="272px" fill="#323232" font-weight="400" align="middle" lineHeight="125%" font-style="" opacity="1" y="4" transform="rotate(0)"><tspan id="SvgjsTspan1336" dy="15" x="10"><tspan id="SvgjsTspan1337" style="text-decoration:;">for (const [key, info] of chunksInfoMap) {</tspan></tspan><tspan id="SvgjsTspan1338" dy="15" x="10"><tspan id="SvgjsTspan1339" style="text-decoration:;">    for (const module of item.modules) {</tspan></tspan><tspan id="SvgjsTspan1340" dy="15" x="10"><tspan id="SvgjsTspan1341" style="text-decoration:;">        if (info.modules.has(module))</tspan></tspan><tspan id="SvgjsTspan1342" dy="15" x="10"><tspan id="SvgjsTspan1343" style="text-decoration:;">            info.modules.delete(module);</tspan></tspan><tspan id="SvgjsTspan1344" dy="15" x="10"><tspan id="SvgjsTspan1345" style="text-decoration:;">    }</tspan></tspan><tspan id="SvgjsTspan1346" dy="15" x="10"><tspan id="SvgjsTspan1347" style="text-decoration:;">}</tspan></tspan></text></g></g><g id="SvgjsG1348"><path id="SvgjsPath1349" d="M755 746L755 797L755 797L755 845.4 " stroke="#323232" stroke-width="2" fill="none" marker-end="url(#SvgjsMarker1350)"></path></g><g id="SvgjsG1352" transform="translate(1042.75,745)"><path id="SvgjsPath1353" d="M0 0L184.5 0L200.5 16L200.5 104L0 104L0 0Z " stroke="none" fill-opacity="1" fill="#fff9c4"></path><path id="SvgjsPath1354" d="M184.5 0L184.5 16L200.5 16Z " stroke="none" fill-opacity="1" fill="#cdcdcd"></path><path id="SvgjsPath1355" d="M0 0L184.5 0L200.5 16L200.5 104L0 104L0 0Z " stroke="none" fill="none"></path><g id="SvgjsG1356"><text id="SvgjsText1357" font-family="微软雅黑" text-anchor="start" font-size="12px" width="181px" fill="#323232" font-weight="400" align="middle" lineHeight="125%" font-style="" opacity="1" y="4.5" transform="rotate(0)"><tspan id="SvgjsTspan1358" dy="15" x="10"><tspan id="SvgjsTspan1359" style="text-decoration:;">const isOverlap = (a, b) =&gt; {</tspan></tspan><tspan id="SvgjsTspan1360" dy="15" x="10"><tspan id="SvgjsTspan1361" style="text-decoration:;">  for (const item of a) {</tspan></tspan><tspan id="SvgjsTspan1362" dy="15" x="10"><tspan id="SvgjsTspan1363" style="text-decoration:;">    if (b.has(item)) return true;</tspan></tspan><tspan id="SvgjsTspan1364" dy="15" x="10"><tspan id="SvgjsTspan1365" style="text-decoration:;">  }</tspan></tspan><tspan id="SvgjsTspan1366" dy="15" x="10"><tspan id="SvgjsTspan1367" style="text-decoration:;">  return false;</tspan></tspan><tspan id="SvgjsTspan1368" dy="15" x="10"><tspan id="SvgjsTspan1369" style="text-decoration:;">};</tspan></tspan></text></g></g><g id="SvgjsG1370" transform="translate(655.25,781)"><path id="SvgjsPath1371" d="M0 0L239.75 0L239.75 32L0 32Z " stroke="none" fill="none"></path><g id="SvgjsG1372"><text id="SvgjsText1373" font-family="微软雅黑" text-anchor="middle" font-size="13px" width="240px" fill="#ff0000" font-weight="700" align="middle" lineHeight="125%" font-style="" opacity="1" y="5.375" transform="rotate(0)"><tspan id="SvgjsTspan1374" dy="16" x="120"><tspan id="SvgjsTspan1375" style="text-decoration:;">isOverlap(info.chunks, usedChunks)</tspan></tspan></text></g></g><g id="SvgjsG1376"><path id="SvgjsPath1377" d="M1042.75 797L968.875 797L968.875 797L898.6 797 " stroke-dasharray="8,5" stroke="#323232" stroke-width="2" fill="none" marker-end="url(#SvgjsMarker1378)"></path></g><g id="SvgjsG1380" transform="translate(1042.75,861)"><path id="SvgjsPath1381" d="M0 0L432.5 0L448.5 16L448.5 79L0 79L0 0Z " stroke="none" fill-opacity="1" fill="#ffcdd2"></path><path id="SvgjsPath1382" d="M432.5 0L432.5 16L448.5 16Z " stroke="none" fill-opacity="1" fill="#cdcdcd"></path><path id="SvgjsPath1383" d="M0 0L432.5 0L448.5 16L448.5 79L0 79L0 0Z " stroke="none" fill="none"></path><g id="SvgjsG1384"><text id="SvgjsText1385" font-family="微软雅黑" text-anchor="middle" font-size="13px" width="429px" fill="#323232" font-weight="400" align="middle" lineHeight="125%" font-style="" opacity="1" y="12.875" transform="rotate(0)"><tspan id="SvgjsTspan1386" dy="16" x="224.5"><tspan id="SvgjsTspan1387" style="text-decoration:;">如果其它chunksInfoMap包含目前bestEntry的chunk，也要清除掉对应的</tspan></tspan><tspan id="SvgjsTspan1388" dy="16" x="224.5"><tspan id="SvgjsTspan1389" style="text-decoration:;">module，简单点说，就是我已经从这些chunk分离出对应的newChunk了，</tspan></tspan><tspan id="SvgjsTspan1390" dy="16" x="224.5"><tspan id="SvgjsTspan1391" style="text-decoration:;">无论是哪个cacheGroup，都应该清除newChunk持有的modules</tspan></tspan></text></g></g><g id="SvgjsG1392"><path id="SvgjsPath1393" d="M902 900.5L971.875 900.5L971.875 900.5L1040.15 900.5 " stroke="#323232" stroke-width="2" fill="none" marker-end="url(#SvgjsMarker1394)"></path></g><g id="SvgjsG1396" transform="translate(655.25,117)"><path id="SvgjsPath1397" d="M0 0L120 0L120 40L0 40Z " stroke="none" fill="none"></path><g id="SvgjsG1398"><text id="SvgjsText1399" font-family="微软雅黑" text-anchor="middle" font-size="13px" width="120px" fill="#323232" font-weight="400" align="middle" lineHeight="125%" font-style="" opacity="1" y="1.375" transform="rotate(0)"><tspan id="SvgjsTspan1400" dy="16" x="60"><tspan id="SvgjsTspan1401" style="text-decoration:;">chunksInfoMap优先</tspan></tspan><tspan id="SvgjsTspan1402" dy="16" x="60"><tspan id="SvgjsTspan1403" style="text-decoration:;">级最高的一个元素</tspan></tspan></text></g></g><g id="SvgjsG1404"><path id="SvgjsPath1405" d="M608 900.5L520 900.5L520 77L609.65 77 " stroke="#323232" stroke-width="2" fill="none" marker-end="url(#SvgjsMarker1406)"></path></g><g id="SvgjsG1408" transform="translate(467,456.5)"><path id="SvgjsPath1409" d="M0 0L120 0L120 40L0 40Z " stroke="none" fill="none"></path><g id="SvgjsG1410"><text id="SvgjsText1411" font-family="微软雅黑" text-anchor="middle" font-size="13px" width="120px" fill="#ff0000" font-weight="400" align="middle" lineHeight="125%" font-style="" opacity="1" y="9.375" transform="rotate(0)"><tspan id="SvgjsTspan1412" dy="16" x="60"><tspan id="SvgjsTspan1413" style="text-decoration:;">继续遍历</tspan></tspan></text></g></g><g id="SvgjsG1414" transform="translate(802.25,419)"><path id="SvgjsPath1415" d="M0 0L203 0L203 37.5L0 37.5Z " stroke="none" fill="none"></path><g id="SvgjsG1416"><text id="SvgjsText1417" font-family="微软雅黑" text-anchor="middle" font-size="13px" width="203px" fill="#ff0000" font-weight="700" align="middle" lineHeight="125%" font-style="" opacity="1" y="8.125" transform="rotate(0)"><tspan id="SvgjsTspan1418" dy="16" x="101.5"><tspan id="SvgjsTspan1419" style="text-decoration:;">新增Compliation.chunks</tspan></tspan></text></g></g><g id="SvgjsG1420" transform="translate(1042.75,582.5)"><path id="SvgjsPath1421" d="M0 0L219 0L219 39L0 39Z " stroke="none" fill="none"></path><g id="SvgjsG1422"><text id="SvgjsText1423" font-family="微软雅黑" text-anchor="middle" font-size="13px" width="219px" fill="#ff0000" font-weight="700" align="middle" lineHeight="125%" font-style="" opacity="1" y="8.875" transform="rotate(0)"><tspan id="SvgjsTspan1424" dy="16" x="109.5"><tspan id="SvgjsTspan1425" style="text-decoration:;">建立新增chunk与其它chunk的关联</tspan></tspan></text></g></g><g id="SvgjsG1426" transform="translate(200.5625,293.25)"><path id="SvgjsPath1427" d="M0 0L180.875 0L180.875 62L0 62Z " stroke="rgba(50,50,50,1)" stroke-width="2" fill-opacity="1" fill="#ffffff"></path><g id="SvgjsG1428"><text id="SvgjsText1429" font-family="微软雅黑" text-anchor="middle" font-size="13px" width="161px" fill="#323232" font-weight="400" align="middle" lineHeight="125%" font-style="" opacity="1" y="4.375" transform="rotate(0)"><tspan id="SvgjsTspan1430" dy="16" x="90.5"><tspan id="SvgjsTspan1431" style="text-decoration:;">根据minSize和</tspan></tspan><tspan id="SvgjsTspan1432" dy="16" x="90.5"><tspan id="SvgjsTspan1433" style="text-decoration:;">minSizeReduction筛选</tspan></tspan><tspan id="SvgjsTspan1434" dy="16" x="90.5"><tspan id="SvgjsTspan1435" style="text-decoration:;">chunksInfoMap数据</tspan></tspan></text></g></g><g id="SvgjsG1436" transform="translate(200.5625,126.5)"><path id="SvgjsPath1437" d="M0 0L140.4375 0L140.4375 45L0 45Z " stroke="rgba(50,50,50,1)" stroke-width="2" fill-opacity="1" fill="#ffffff"></path><g id="SvgjsG1438"><text id="SvgjsText1439" font-family="微软雅黑" text-anchor="middle" font-size="13px" width="121px" fill="#323232" font-weight="400" align="middle" lineHeight="125%" font-style="" opacity="1" y="11.875" transform="rotate(0)"><tspan id="SvgjsTspan1440" dy="16" x="70.5"><tspan id="SvgjsTspan1441" style="text-decoration:;">数据和方法初始化</tspan></tspan></text></g></g><g id="SvgjsG1442" transform="translate(209.96875,380.1875)"><path id="SvgjsPath1443" d="M0 0L162.0625 0L162.0625 59.75L0 59.75Z " stroke="rgba(50,50,50,1)" stroke-width="2" fill-opacity="1" fill="#ffffff"></path><g id="SvgjsG1444"><text id="SvgjsText1445" font-family="微软雅黑" text-anchor="middle" font-size="13px" width="143px" fill="#323232" font-weight="400" align="middle" lineHeight="125%" font-style="" opacity="1" y="11.25" transform="rotate(0)"><tspan id="SvgjsTspan1446" dy="16" x="81.5"><tspan id="SvgjsTspan1447" style="text-decoration:;">遍历chunksInfoMap，</tspan></tspan><tspan id="SvgjsTspan1448" dy="16" x="81.5"><tspan id="SvgjsTspan1449" style="text-decoration:;">创建newChunk</tspan></tspan></text></g></g><g id="SvgjsG1450" transform="translate(93,279.1875)"><path id="SvgjsPath1451" d="M101 0Q92 0 92 9L92 79.8125Q92 88.8125 79 88.8125Q92 88.8125 92 97.8125L92 168.625Q92 177.625 101 177.625 " stroke="rgba(50,50,50,1)" stroke-width="2" fill="none"></path><path id="SvgjsPath1452" d="M0 0L101 0L101 177.625L0 177.625Z " stroke="none" fill="none"></path><g id="SvgjsG1453"><text id="SvgjsText1454" font-family="微软雅黑" text-anchor="end" font-size="13px" width="74px" fill="#323232" font-weight="400" align="middle" lineHeight="125%" font-style="" opacity="1" y="78.1875" transform="rotate(0)"></text></g></g><g id="SvgjsG1455"><path id="SvgjsPath1456" d="M291 356.25L291 367.71875L291 367.71875L291 376.5875 " stroke="#323232" stroke-width="2" fill="none" marker-end="url(#SvgjsMarker1457)"></path></g><g id="SvgjsG1459"><path id="SvgjsPath1460" d="M373.03125 410.0625L468.03125 410.0625L468.03125 25L707.75 25L707.75 51.400000000000006 " stroke="#323232" stroke-width="2" fill="none" marker-end="url(#SvgjsMarker1461)"></path></g><g id="SvgjsG1463" transform="translate(200.5625,198.875)"><path id="SvgjsPath1464" d="M0 0L239 0L239 60.25L0 60.25Z " stroke="rgba(50,50,50,1)" stroke-width="2" fill-opacity="1" fill="#ffffff"></path><g id="SvgjsG1465"><text id="SvgjsText1466" font-family="微软雅黑" text-anchor="middle" font-size="13px" width="219px" fill="#323232" font-weight="400" align="middle" lineHeight="125%" font-style="" opacity="1" y="11.5" transform="rotate(0)"><tspan id="SvgjsTspan1467" dy="16" x="119.5"><tspan id="SvgjsTspan1468" style="text-decoration:;">遍历compilation.modules，根据</tspan></tspan><tspan id="SvgjsTspan1469" dy="16" x="119.5"><tspan id="SvgjsTspan1470" style="text-decoration:;">cacheGroup形成chunksInfoMap数据</tspan></tspan></text></g></g><g id="SvgjsG1471"><path id="SvgjsPath1472" d="M165.5 229L182.53125 229L182.53125 229L196.96249999999998 229 " stroke="#323232" stroke-width="2" fill="none" marker-end="url(#SvgjsMarker1473)"></path></g><g id="SvgjsG1475" transform="translate(200.5625,478.625)"><path id="SvgjsPath1476" d="M0 0L165.9375 0L165.9375 58.5L0 58.5Z " stroke="rgba(50,50,50,1)" stroke-width="2" fill-opacity="1" fill="#ffffff"></path><g id="SvgjsG1477"><text id="SvgjsText1478" font-family="微软雅黑" text-anchor="middle" font-size="13px" width="146px" fill="#323232" font-weight="400" align="middle" lineHeight="125%" font-style="" opacity="1" y="10.625" transform="rotate(0)"><tspan id="SvgjsTspan1479" dy="16" x="83"><tspan id="SvgjsTspan1480" style="text-decoration:;">根据maxSize，将过大的</tspan></tspan><tspan id="SvgjsTspan1481" dy="16" x="83"><tspan id="SvgjsTspan1482" style="text-decoration:;">chunk进行再分包</tspan></tspan></text></g></g><g id="SvgjsG1483"><path id="SvgjsPath1484" d="M165.5 507.875L182.53125 507.875L182.53125 507.875L196.96249999999998 507.875 " stroke="#323232" stroke-width="2" fill="none" marker-end="url(#SvgjsMarker1485)"></path></g><g id="SvgjsG1487" transform="translate(59.5,571.375)"><path id="SvgjsPath1488" d="M16.666666666666668 0L83.33333333333333 0C105.55555555555556 0 105.55555555555556 50 83.33333333333333 50L16.666666666666668 50C-5.555555555555556 50 -5.555555555555556 0 16.666666666666668 0Z " stroke="rgba(50,50,50,1)" stroke-width="2" fill-opacity="1" fill="#ffffff"></path><g id="SvgjsG1489"><text id="SvgjsText1490" font-family="微软雅黑" text-anchor="middle" font-size="13px" width="80px" fill="#323232" font-weight="400" align="middle" lineHeight="125%" font-style="" opacity="1" y="14.375" transform="rotate(0)"><tspan id="SvgjsTspan1491" dy="16" x="50"><tspan id="SvgjsTspan1492" style="text-decoration:;">结束</tspan></tspan></text></g></g><g id="SvgjsG1493"><path id="SvgjsPath1494" d="M109.5 531.375L109.5 550.875L109.5 550.875L109.5 567.775 " stroke="#323232" stroke-width="2" fill="none" marker-end="url(#SvgjsMarker1495)"></path></g><g id="SvgjsG1497" transform="translate(71.5,764.25)"><path id="SvgjsPath1498" d="M0 0L184 0L184 42.375L0 42.375Z " stroke="none" fill="none"></path><g id="SvgjsG1499"><text id="SvgjsText1500" font-family="微软雅黑" text-anchor="middle" font-size="13px" width="184px" fill="#323232" font-weight="400" align="middle" lineHeight="125%" font-style="" opacity="0.4" y="10.5625" transform="rotate(0)"><tspan id="SvgjsTspan1501" dy="16" x="92"><tspan id="SvgjsTspan1502" style="text-decoration:;">https://github.com/wbccb</tspan></tspan></text></g></g></svg>