<svg id="SvgjsSvg1446" xmlns="http://www.w3.org/2000/svg" version="1.1" xmlns:xlink="http://www.w3.org/1999/xlink" xmlns:svgjs="http://svgjs.com/svgjs" width="1320.5" height="533.125"><defs id="SvgjsDefs1447"><marker id="SvgjsMarker1467" markerWidth="14" markerHeight="10" refX="10" refY="5" viewBox="0 0 14 10" orient="auto" markerUnits="userSpaceOnUse" stroke-dasharray="0,0"><path id="SvgjsPath1468" d="M0 0L14 5L0 10L0 0 " fill="#323232" stroke="#323232" stroke-width="1"></path></marker><marker id="SvgjsMarker1471" markerWidth="14" markerHeight="10" refX="10" refY="5" viewBox="0 0 14 10" orient="auto" markerUnits="userSpaceOnUse" stroke-dasharray="0,0"><path id="SvgjsPath1472" d="M0 0L14 5L0 10L0 0 " fill="#323232" stroke="#323232" stroke-width="1"></path></marker><marker id="SvgjsMarker1481" markerWidth="14" markerHeight="10" refX="10" refY="5" viewBox="0 0 14 10" orient="auto" markerUnits="userSpaceOnUse" stroke-dasharray="0,0"><path id="SvgjsPath1482" d="M0 0L14 5L0 10L0 0 " fill="#323232" stroke="#323232" stroke-width="1"></path></marker><marker id="SvgjsMarker1499" markerWidth="14" markerHeight="10" refX="10" refY="5" viewBox="0 0 14 10" orient="auto" markerUnits="userSpaceOnUse" stroke-dasharray="0,0"><path id="SvgjsPath1500" d="M0 0L14 5L0 10L0 0 " fill="#323232" stroke="#323232" stroke-width="1"></path></marker><marker id="SvgjsMarker1560" markerWidth="14" markerHeight="10" refX="10" refY="5" viewBox="0 0 14 10" orient="auto" markerUnits="userSpaceOnUse" stroke-dasharray="0,0"><path id="SvgjsPath1561" d="M0 0L14 5L0 10L0 0 " fill="#323232" stroke="#323232" stroke-width="1"></path></marker><marker id="SvgjsMarker1564" markerWidth="14" markerHeight="10" refX="10" refY="5" viewBox="0 0 14 10" orient="auto" markerUnits="userSpaceOnUse" stroke-dasharray="0,0"><path id="SvgjsPath1565" d="M0 0L14 5L0 10L0 0 " fill="#323232" stroke="#323232" stroke-width="1"></path></marker><marker id="SvgjsMarker1574" markerWidth="14" markerHeight="10" refX="10" refY="5" viewBox="0 0 14 10" orient="auto" markerUnits="userSpaceOnUse" stroke-dasharray="0,0"><path id="SvgjsPath1575" d="M0 0L14 5L0 10L0 0 " fill="#323232" stroke="#323232" stroke-width="1"></path></marker><marker id="SvgjsMarker1578" markerWidth="14" markerHeight="10" refX="10" refY="5" viewBox="0 0 14 10" orient="auto" markerUnits="userSpaceOnUse" stroke-dasharray="0,0"><path id="SvgjsPath1579" d="M0 0L14 5L0 10L0 0 " fill="#323232" stroke="#323232" stroke-width="1"></path></marker><marker id="SvgjsMarker1592" markerWidth="14" markerHeight="10" refX="10" refY="5" viewBox="0 0 14 10" orient="auto" markerUnits="userSpaceOnUse" stroke-dasharray="0,0"><path id="SvgjsPath1593" d="M0 0L14 5L0 10L0 0 " fill="#323232" stroke="#323232" stroke-width="1"></path></marker><marker id="SvgjsMarker1648" markerWidth="14" markerHeight="10" refX="10" refY="5" viewBox="0 0 14 10" orient="auto" markerUnits="userSpaceOnUse" stroke-dasharray="0,0"><path id="SvgjsPath1649" d="M0 0L14 5L0 10L0 0 " fill="#323232" stroke="#323232" stroke-width="1"></path></marker></defs><g id="svgbackgroundid"><defs></defs><rect id="SvgjsRect1449" width="1320.5" height="533.125" fill="#ffffff"></rect></g><g id="SvgjsG1451" transform="translate(27.5,184)"><path id="SvgjsPath1452" d="M0 0L191 0L191 43L0 43Z " stroke="rgba(50,50,50,1)" stroke-width="2" fill-opacity="1" fill="#ffffff"></path><g id="SvgjsG1453"><text id="SvgjsText1454" font-family="微软雅黑" text-anchor="middle" font-size="13px" width="171px" fill="#323232" font-weight="400" align="middle" lineHeight="125%" font-style="" opacity="1" y="2.875" transform="rotate(0)"><tspan id="SvgjsTspan1455" dy="16" x="95.5"><tspan id="SvgjsTspan1456" style="text-decoration:;">const result = await </tspan></tspan><tspan id="SvgjsTspan1457" dy="16" x="95.5"><tspan id="SvgjsTspan1458" style="text-decoration:;">transformRequest(url)</tspan></tspan></text></g></g><g id="SvgjsG1459" transform="translate(25,267)"><path id="SvgjsPath1460" d="M14.333333333333334 0L181.66666666666666 0C200.77777777777777 0 200.77777777777777 43 181.66666666666666 43L14.333333333333334 43C-4.777777777777778 43 -4.777777777777778 0 14.333333333333334 0Z " stroke="rgba(50,50,50,1)" stroke-width="2" fill-opacity="1" fill="#ffffff"></path><g id="SvgjsG1461"><text id="SvgjsText1462" font-family="微软雅黑" text-anchor="middle" font-size="13px" width="176px" fill="#323232" font-weight="400" align="middle" lineHeight="125%" font-style="" opacity="1" y="10.875" transform="rotate(0)"><tspan id="SvgjsTspan1463" dy="16" x="98"><tspan id="SvgjsTspan1464" style="text-decoration:;">send$1(req, res, result.code)</tspan></tspan></text></g></g><g id="SvgjsG1465"><path id="SvgjsPath1466" d="M123 228L123 247L123 247L123 263.4 " stroke="#323232" stroke-width="2" fill="none" marker-end="url(#SvgjsMarker1467)"></path></g><g id="SvgjsG1469"><path id="SvgjsPath1470" d="M123 136L123 160L123 160L123 180.4 " stroke="#323232" stroke-width="2" fill="none" marker-end="url(#SvgjsMarker1471)"></path></g><g id="SvgjsG1473" transform="translate(27.5,25)"><path id="SvgjsPath1474" d="M13.666666666666666 0L177.33333333333334 0C195.55555555555554 0 195.55555555555554 41 177.33333333333334 41L13.666666666666666 41C-4.555555555555555 41 -4.555555555555555 0 13.666666666666666 0Z " stroke="rgba(50,50,50,1)" stroke-width="2" fill-opacity="1" fill="#ffffff"></path><g id="SvgjsG1475"><text id="SvgjsText1476" font-family="微软雅黑" text-anchor="middle" font-size="13px" width="171px" fill="#323232" font-weight="400" align="middle" lineHeight="125%" font-style="" opacity="1" y="9.875" transform="rotate(0)"><tspan id="SvgjsTspan1477" dy="16" x="95.5"><tspan id="SvgjsTspan1478" style="text-decoration:;">浏览器请求index.html</tspan></tspan></text></g></g><g id="SvgjsG1479"><path id="SvgjsPath1480" d="M123 67L123 84.5L123 84.5L123 99.4 " stroke="#323232" stroke-width="2" fill="none" marker-end="url(#SvgjsMarker1481)"></path></g><g id="SvgjsG1483" transform="translate(27.5,103)"><path id="SvgjsPath1484" d="M0 0L191 0L191 41L0 41Z " stroke="rgba(50,50,50,1)" stroke-width="2" fill-opacity="1" fill="#ffffff"></path><g id="SvgjsG1485"><text id="SvgjsText1486" font-family="微软雅黑" text-anchor="middle" font-size="13px" width="171px" fill="#323232" font-weight="400" align="middle" lineHeight="125%" font-style="" opacity="1" y="1.875" transform="rotate(0)"><tspan id="SvgjsTspan1487" dy="16" x="95.5"><tspan id="SvgjsTspan1488" style="text-decoration:;fill: rgb(255, 0, 0);">transformMiddleware()</tspan></tspan><tspan id="SvgjsTspan1489" dy="16" x="95.5"><tspan id="SvgjsTspan1490" style="text-decoration:;">触发拦截</tspan></tspan></text></g></g><g id="SvgjsG1491" transform="translate(257.5,185)"><path id="SvgjsPath1492" d="M0 0L147 0L147 41L0 41Z " stroke="rgba(50,50,50,1)" stroke-width="2" fill-opacity="1" fill="#ffffff"></path><g id="SvgjsG1493"><text id="SvgjsText1494" font-family="微软雅黑" text-anchor="middle" font-size="13px" width="127px" fill="#323232" font-weight="400" align="middle" lineHeight="125%" font-style="" opacity="1" y="9.875" transform="rotate(0)"><tspan id="SvgjsTspan1495" dy="16" x="73.5"><tspan id="SvgjsTspan1496" style="text-decoration:;">doTransform()</tspan></tspan></text></g></g><g id="SvgjsG1497"><path id="SvgjsPath1498" d="M219.5 205.5L238 205.5L238 205.5L253.89999999999998 205.5 " stroke="#323232" stroke-width="2" fill="none" marker-end="url(#SvgjsMarker1499)"></path></g><g id="SvgjsG1501" transform="translate(436.5,112)"><path id="SvgjsPath1502" d="M0 0L205 0L205 46L0 46Z " stroke-dasharray="10,6" stroke="rgba(50,50,50,1)" stroke-width="2" fill-opacity="1" fill="#ffe0b2"></path><g id="SvgjsG1503"><text id="SvgjsText1504" font-family="微软雅黑" text-anchor="middle" font-size="13px" width="185px" fill="#323232" font-weight="400" align="middle" lineHeight="125%" font-style="" opacity="1" y="12.375" transform="rotate(0)"><tspan id="SvgjsTspan1505" dy="16" x="102.5"><tspan id="SvgjsTspan1506" style="text-decoration:;">检测moduleGraph是否有缓存</tspan></tspan></text></g></g><g id="SvgjsG1507" transform="translate(436.5,187.03125)"><path id="SvgjsPath1508" d="M0 0L205 0L205 43L0 43Z " stroke="rgba(50,50,50,1)" stroke-width="2" fill-opacity="1" fill="#ffffff"></path><g id="SvgjsG1509"><text id="SvgjsText1510" font-family="微软雅黑" text-anchor="middle" font-size="13px" width="185px" fill="#323232" font-weight="400" align="middle" lineHeight="125%" font-style="" opacity="1" y="10.875" transform="rotate(0)"><tspan id="SvgjsTspan1511" dy="16" x="102.5"><tspan id="SvgjsTspan1512" style="text-decoration:;">id=</tspan><tspan id="SvgjsTspan1513" style="text-decoration:;font-size: inherit;">pluginContainer.resolveId()</tspan></tspan></text></g></g><g id="SvgjsG1514" transform="translate(436.5,259.0625)"><path id="SvgjsPath1515" d="M0 0L205 0L205 41.75L0 41.75Z " stroke="rgba(50,50,50,1)" stroke-width="2" fill-opacity="1" fill="#ffffff"></path><g id="SvgjsG1516"><text id="SvgjsText1517" font-family="微软雅黑" text-anchor="middle" font-size="13px" width="185px" fill="#323232" font-weight="400" align="middle" lineHeight="125%" font-style="" opacity="1" y="10.25" transform="rotate(0)"><tspan id="SvgjsTspan1518" dy="16" x="102.5"><tspan id="SvgjsTspan1519" style="text-decoration:;">loadAndTransform(id, url)</tspan></tspan></text></g></g><g id="SvgjsG1520" transform="translate(328.5,112)"><path id="SvgjsPath1521" d="M102 0Q93 0 93 9L93 85.40625Q93 94.40625 80 94.40625Q93 94.40625 93 103.40625L93 179.8125Q93 188.8125 102 188.8125 " stroke="rgba(50,50,50,1)" stroke-width="2" fill="none"></path><path id="SvgjsPath1522" d="M0 0L102 0L102 188.8125L0 188.8125Z " stroke="none" fill="none"></path><g id="SvgjsG1523"><text id="SvgjsText1524" font-family="微软雅黑" text-anchor="end" font-size="13px" width="75px" fill="#323232" font-weight="400" align="middle" lineHeight="125%" font-style="" opacity="1" y="83.78125" transform="rotate(0)"></text></g></g><g id="SvgjsG1525" transform="translate(673.5,177.5)"><path id="SvgjsPath1526" d="M0 0L174 0L174 39.875L0 39.875Z " stroke="rgba(50,50,50,1)" stroke-width="2" fill-opacity="1" fill="#ffffff"></path><g id="SvgjsG1527"><text id="SvgjsText1528" font-family="微软雅黑" text-anchor="middle" font-size="13px" width="154px" fill="#323232" font-weight="400" align="middle" lineHeight="125%" font-style="" opacity="1" y="1.3125" transform="rotate(0)"><tspan id="SvgjsTspan1529" dy="16" x="87"><tspan id="SvgjsTspan1530" style="text-decoration:;fill: rgb(255, 0, 0);">pluginContainer.load()</tspan></tspan><tspan id="SvgjsTspan1531" dy="16" x="87"><tspan id="SvgjsTspan1532" style="text-decoration:;">读取内容</tspan></tspan></text></g></g><g id="SvgjsG1533" transform="translate(673.5,243.8125)"><path id="SvgjsPath1534" d="M0 0L174 0L174 57L0 57Z " stroke="rgba(50,50,50,1)" stroke-width="2" fill-opacity="1" fill="#ffffff"></path><g id="SvgjsG1535"><text id="SvgjsText1536" font-family="微软雅黑" text-anchor="middle" font-size="13px" width="154px" fill="#323232" font-weight="400" align="middle" lineHeight="125%" font-style="" opacity="1" y="1.875" transform="rotate(0)"><tspan id="SvgjsTspan1537" dy="16" x="87"><tspan id="SvgjsTspan1538" style="text-decoration:;fill: rgb(255, 0, 0);">moduleGraph.</tspan></tspan><tspan id="SvgjsTspan1539" dy="16" x="87"><tspan id="SvgjsTspan1540" style="text-decoration:;fill: rgb(255, 0, 0);">ensureEntryFromUrl()</tspan></tspan><tspan id="SvgjsTspan1541" dy="16" x="87"><tspan id="SvgjsTspan1542" style="text-decoration:;">创建moduleGraph缓存</tspan></tspan></text></g></g><g id="SvgjsG1543" transform="translate(673.5,329.75)"><path id="SvgjsPath1544" d="M0 0L174 0L174 58.75L0 58.75Z " stroke="rgba(50,50,50,1)" stroke-width="2" fill-opacity="1" fill="#ffffff"></path><g id="SvgjsG1545"><text id="SvgjsText1546" font-family="微软雅黑" text-anchor="middle" font-size="13px" width="154px" fill="#323232" font-weight="400" align="middle" lineHeight="125%" font-style="" opacity="1" y="2.75" transform="rotate(0)"><tspan id="SvgjsTspan1547" dy="16" x="87"><tspan id="SvgjsTspan1548" style="text-decoration:;fill: rgb(255, 0, 0);">pluginContainer.</tspan></tspan><tspan id="SvgjsTspan1549" dy="16" x="87"><tspan id="SvgjsTspan1550" style="text-decoration:;fill: rgb(255, 0, 0);">transform()</tspan></tspan><tspan id="SvgjsTspan1551" dy="16" x="87"><tspan id="SvgjsTspan1552" style="text-decoration:;">transform转化文件内容</tspan></tspan></text></g></g><g id="SvgjsG1553" transform="translate(566.5,175)"><path id="SvgjsPath1554" d="M101 0Q92 0 92 9L92 97.75Q92 106.75 79 106.75Q92 106.75 92 115.75L92 204.5Q92 213.5 101 213.5 " stroke="rgba(50,50,50,1)" stroke-width="2" fill="none"></path><path id="SvgjsPath1555" d="M0 0L101 0L101 213.5L0 213.5Z " stroke="none" fill="none"></path><g id="SvgjsG1556"><text id="SvgjsText1557" font-family="微软雅黑" text-anchor="end" font-size="13px" width="74px" fill="#323232" font-weight="400" align="middle" lineHeight="125%" font-style="" opacity="1" y="96.125" transform="rotate(0)"></text></g></g><g id="SvgjsG1558"><path id="SvgjsPath1559" d="M760.5 218.375L760.5 230.59375L760.5 230.59375L760.5 240.2125 " stroke="#323232" stroke-width="2" fill="none" marker-end="url(#SvgjsMarker1560)"></path></g><g id="SvgjsG1562"><path id="SvgjsPath1563" d="M760.5 301.8125L760.5 315.28125L760.5 315.28125L760.5 326.15 " stroke="#323232" stroke-width="2" fill="none" marker-end="url(#SvgjsMarker1564)"></path></g><g id="SvgjsG1566" transform="translate(120.5,143)"><path id="SvgjsPath1567" d="M0 0L153 0L153 39L0 39Z " stroke="none" fill="none"></path><g id="SvgjsG1568"><text id="SvgjsText1569" font-family="微软雅黑" text-anchor="middle" font-size="13px" width="153px" fill="#ff0000" font-weight="700" align="middle" lineHeight="125%" font-style="" opacity="1" y="8.875" transform="rotate(0)"><tspan id="SvgjsTspan1570" dy="16" x="76.5"><tspan id="SvgjsTspan1571" style="text-decoration:;">url="xxx/src/main.js"</tspan></tspan></text></g></g><g id="SvgjsG1572"><path id="SvgjsPath1573" d="M539 159L539 172.515625L539 172.515625L539 183.43125 " stroke="#323232" stroke-width="2" fill="none" marker-end="url(#SvgjsMarker1574)"></path></g><g id="SvgjsG1576"><path id="SvgjsPath1577" d="M539 231.03125L539 244.546875L539 244.546875L539 255.46249999999998 " stroke="#323232" stroke-width="2" fill="none" marker-end="url(#SvgjsMarker1578)"></path></g><g id="SvgjsG1580" transform="translate(898.5,210.125)"><path id="SvgjsPath1581" d="M0 0L397 0L397 298L0 298Z " stroke-dasharray="10,6" stroke="rgba(50,50,50,1)" stroke-width="2" fill-opacity="1" fill="#ffffff"></path><g id="SvgjsG1582"><text id="SvgjsText1583" font-family="微软雅黑" text-anchor="middle" font-size="13px" width="377px" fill="#323232" font-weight="400" align="middle" lineHeight="125%" font-style="" opacity="1" y="138.375" transform="rotate(0)"></text></g></g><g id="SvgjsG1584" transform="translate(898.5,211)"><path id="SvgjsPath1585" d="M0 0L397 0L397 33.125L0 33.125Z " stroke="none" fill="none"></path><g id="SvgjsG1586"><text id="SvgjsText1587" font-family="微软雅黑" text-anchor="middle" font-size="13px" width="397px" fill="#ff0000" font-weight="700" align="middle" lineHeight="125%" font-style="" opacity="1" y="5.9375" transform="rotate(0)"><tspan id="SvgjsTspan1588" dy="16" x="198.5"><tspan id="SvgjsTspan1589" style="text-decoration:;">name: 'vite:import-analysis'</tspan></tspan></text></g></g><g id="SvgjsG1590"><path id="SvgjsPath1591" d="M848.5 359.125L873 359.125L873 359.125L894.9000000000001 359.125 " stroke="#323232" stroke-width="2" fill="none" marker-end="url(#SvgjsMarker1592)"></path></g><g id="SvgjsG1594" transform="translate(928.5,247.375)"><path id="SvgjsPath1595" d="M0 0L351 0L351 223.5L0 223.5Z " stroke-dasharray="10,6" stroke="rgba(50,50,50,1)" stroke-width="2" fill-opacity="1" fill="#ffffff"></path><g id="SvgjsG1596"><text id="SvgjsText1597" font-family="微软雅黑" text-anchor="middle" font-size="13px" width="331px" fill="#323232" font-weight="400" align="middle" lineHeight="125%" font-style="" opacity="1" y="101.125" transform="rotate(0)"></text></g></g><g id="SvgjsG1598" transform="translate(936.5,259.75)"><path id="SvgjsPath1599" d="M0 0L319 0L335 16L335 70L0 70L0 0Z " stroke="none" fill-opacity="1" fill="#fff9c4"></path><path id="SvgjsPath1600" d="M319 0L319 16L335 16Z " stroke="none" fill-opacity="1" fill="#cdcdcd"></path><path id="SvgjsPath1601" d="M0 0L319 0L335 16L335 70L0 70L0 0Z " stroke="none" fill="none"></path><g id="SvgjsG1602"><text id="SvgjsText1603" font-family="微软雅黑" text-anchor="start" font-size="12px" width="315px" fill="#323232" font-weight="400" align="middle" lineHeight="125%" font-style="" opacity="1" y="2.5" transform="rotate(0)"><tspan id="SvgjsTspan1604" dy="15" x="10"><tspan id="SvgjsTspan1605" style="text-decoration:;">import { createApp } from "</tspan><tspan id="SvgjsTspan1606" style="text-decoration:;fill: rgb(255, 0, 0);">vue</tspan><tspan id="SvgjsTspan1607" style="text-decoration:;">"; </tspan></tspan><tspan id="SvgjsTspan1608" dy="15" x="10"><tspan id="SvgjsTspan1609" style="text-decoration:;">import App from "</tspan><tspan id="SvgjsTspan1610" style="text-decoration:;fill: rgb(255, 0, 0);">./App</tspan><tspan id="SvgjsTspan1611" style="text-decoration:;">"; </tspan></tspan><tspan id="SvgjsTspan1612" dy="15" x="10"><tspan id="SvgjsTspan1613" style="text-decoration:;">import { toString, toArray } from "</tspan><tspan id="SvgjsTspan1614" style="text-decoration:;fill: rgb(255, 0, 0);">lodash-es</tspan><tspan id="SvgjsTspan1615" style="text-decoration:;">"; </tspan></tspan><tspan id="SvgjsTspan1616" dy="15" x="10"><tspan id="SvgjsTspan1617" style="text-decoration:;">import "</tspan><tspan id="SvgjsTspan1618" style="text-decoration:;fill: rgb(255, 0, 0);">./main.css</tspan><tspan id="SvgjsTspan1619" style="text-decoration:;">"; </tspan></tspan></text></g></g><g id="SvgjsG1620" transform="translate(936.5,351.9375)"><path id="SvgjsPath1621" d="M0 0L319 0L335 16L335 107L0 107L0 0Z " stroke="none" fill-opacity="1" fill="#fff9c4"></path><path id="SvgjsPath1622" d="M319 0L319 16L335 16Z " stroke="none" fill-opacity="1" fill="#cdcdcd"></path><path id="SvgjsPath1623" d="M0 0L319 0L335 16L335 107L0 107L0 0Z " stroke="none" fill="none"></path><g id="SvgjsG1624"><text id="SvgjsText1625" font-family="微软雅黑" text-anchor="start" font-size="12px" width="315px" fill="#323232" font-weight="400" align="middle" lineHeight="125%" font-style="" opacity="1" y="6" transform="rotate(0)"><tspan id="SvgjsTspan1626" dy="15" x="10"><tspan id="SvgjsTspan1627" style="text-decoration:;">import { createApp } from </tspan></tspan><tspan id="SvgjsTspan1628" dy="15" x="10"><tspan id="SvgjsTspan1629" style="text-decoration:;">"</tspan><tspan id="SvgjsTspan1630" style="text-decoration:;fill: rgb(255, 0, 0);">/node_modules/.vite/deps/vue.js?v=12cafcc1</tspan><tspan id="SvgjsTspan1631" style="text-decoration:;">";</tspan></tspan><tspan id="SvgjsTspan1632" dy="15" x="10"><tspan id="SvgjsTspan1633" style="text-decoration:;">import App from "</tspan><tspan id="SvgjsTspan1634" style="text-decoration:;fill: rgb(255, 0, 0);">/src/App.jsx</tspan><tspan id="SvgjsTspan1635" style="text-decoration:;">";</tspan></tspan><tspan id="SvgjsTspan1636" dy="15" x="10"><tspan id="SvgjsTspan1637" style="text-decoration:;">import { toString, toArray } from </tspan></tspan><tspan id="SvgjsTspan1638" dy="15" x="10"><tspan id="SvgjsTspan1639" style="text-decoration:;">"</tspan><tspan id="SvgjsTspan1640" style="text-decoration:;fill: rgb(255, 0, 0);">/node_modules/.vite/deps/lodash-es.js?v=746333bf</tspan><tspan id="SvgjsTspan1641" style="text-decoration:;">";</tspan></tspan><tspan id="SvgjsTspan1642" dy="15" x="10"><tspan id="SvgjsTspan1643" style="text-decoration:;">import "</tspan><tspan id="SvgjsTspan1644" style="text-decoration:;fill: rgb(255, 0, 0);">/src/main.css</tspan><tspan id="SvgjsTspan1645" style="text-decoration:;">";</tspan></tspan></text></g></g><g id="SvgjsG1646"><path id="SvgjsPath1647" d="M1104 329.75L1104 340.84375L1104 340.84375L1104 349.3375 " stroke-dasharray="8,5" stroke="#323232" stroke-width="2" fill="none" marker-end="url(#SvgjsMarker1648)"></path></g><g id="SvgjsG1650" transform="translate(1005.5,170)"><path id="SvgjsPath1651" d="M0 0L153 0L153 39L0 39Z " stroke="none" fill="none"></path><g id="SvgjsG1652"><text id="SvgjsText1653" font-family="微软雅黑" text-anchor="middle" font-size="13px" width="153px" fill="#ff0000" font-weight="700" align="middle" lineHeight="125%" font-style="" opacity="1" y="8.875" transform="rotate(0)"><tspan id="SvgjsTspan1654" dy="16" x="76.5"><tspan id="SvgjsTspan1655" style="text-decoration:;">url="xxx/src/main.js"</tspan></tspan></text></g></g><g id="SvgjsG1656" transform="translate(50.5,413.125)"><path id="SvgjsPath1657" d="M0 0L170.5 0L170.5 36L0 36Z " stroke="none" fill="none"></path><g id="SvgjsG1658"><text id="SvgjsText1659" font-family="微软雅黑" text-anchor="middle" font-size="13px" width="171px" fill="#323232" font-weight="400" align="middle" lineHeight="125%" font-style="" opacity="0.5" y="7.375" transform="rotate(0)"><tspan id="SvgjsTspan1660" dy="16" x="85.5"><tspan id="SvgjsTspan1661" style="text-decoration:;">https://github.com/wbccb</tspan></tspan></text></g></g><g id="SvgjsG1662" transform="translate(750,122)"><path id="SvgjsPath1663" d="M0 0L170.5 0L170.5 36L0 36Z " stroke="none" fill="none"></path><g id="SvgjsG1664"><text id="SvgjsText1665" font-family="微软雅黑" text-anchor="middle" font-size="13px" width="171px" fill="#323232" font-weight="400" align="middle" lineHeight="125%" font-style="" opacity="0.25" y="7.375" transform="rotate(0)"><tspan id="SvgjsTspan1666" dy="16" x="85.5"><tspan id="SvgjsTspan1667" style="text-decoration:;">https://github.com/wbccb</tspan></tspan></text></g></g></svg>