<svg id="SvgjsSvg1417" xmlns="http://www.w3.org/2000/svg" version="1.1" xmlns:xlink="http://www.w3.org/1999/xlink" xmlns:svgjs="http://svgjs.com/svgjs" width="1139.5" height="523.40625"><defs id="SvgjsDefs1418"><marker id="SvgjsMarker1442" markerWidth="14" markerHeight="10" refX="10" refY="5" viewBox="0 0 14 10" orient="auto" markerUnits="userSpaceOnUse" stroke-dasharray="0,0"><path id="SvgjsPath1443" d="M0 0L14 5L0 10L0 0 " fill="#323232" stroke="#323232" stroke-width="1"></path></marker><marker id="SvgjsMarker1452" markerWidth="14" markerHeight="10" refX="10" refY="5" viewBox="0 0 14 10" orient="auto" markerUnits="userSpaceOnUse" stroke-dasharray="0,0"><path id="SvgjsPath1453" d="M0 0L14 5L0 10L0 0 " fill="#323232" stroke="#323232" stroke-width="1"></path></marker><marker id="SvgjsMarker1470" markerWidth="14" markerHeight="10" refX="10" refY="5" viewBox="0 0 14 10" orient="auto" markerUnits="userSpaceOnUse" stroke-dasharray="0,0"><path id="SvgjsPath1471" d="M0 0L14 5L0 10L0 0 " fill="#323232" stroke="#323232" stroke-width="1"></path></marker><marker id="SvgjsMarker1531" markerWidth="14" markerHeight="10" refX="10" refY="5" viewBox="0 0 14 10" orient="auto" markerUnits="userSpaceOnUse" stroke-dasharray="0,0"><path id="SvgjsPath1532" d="M0 0L14 5L0 10L0 0 " fill="#323232" stroke="#323232" stroke-width="1"></path></marker><marker id="SvgjsMarker1535" markerWidth="14" markerHeight="10" refX="10" refY="5" viewBox="0 0 14 10" orient="auto" markerUnits="userSpaceOnUse" stroke-dasharray="0,0"><path id="SvgjsPath1536" d="M0 0L14 5L0 10L0 0 " fill="#323232" stroke="#323232" stroke-width="1"></path></marker><marker id="SvgjsMarker1539" markerWidth="14" markerHeight="10" refX="10" refY="5" viewBox="0 0 14 10" orient="auto" markerUnits="userSpaceOnUse" stroke-dasharray="0,0"><path id="SvgjsPath1540" d="M0 0L14 5L0 10L0 0 " fill="#323232" stroke="#323232" stroke-width="1"></path></marker><marker id="SvgjsMarker1543" markerWidth="14" markerHeight="10" refX="10" refY="5" viewBox="0 0 14 10" orient="auto" markerUnits="userSpaceOnUse" stroke-dasharray="0,0"><path id="SvgjsPath1544" d="M0 0L14 5L0 10L0 0 " fill="#323232" stroke="#323232" stroke-width="1"></path></marker><marker id="SvgjsMarker1547" markerWidth="14" markerHeight="10" refX="10" refY="5" viewBox="0 0 14 10" orient="auto" markerUnits="userSpaceOnUse" stroke-dasharray="0,0"><path id="SvgjsPath1548" d="M0 0L14 5L0 10L0 0 " fill="#323232" stroke="#323232" stroke-width="1"></path></marker><marker id="SvgjsMarker1585" markerWidth="14" markerHeight="10" refX="10" refY="5" viewBox="0 0 14 10" orient="auto" markerUnits="userSpaceOnUse" stroke-dasharray="0,0"><path id="SvgjsPath1586" d="M0 0L14 5L0 10L0 0 " fill="#323232" stroke="#323232" stroke-width="1"></path></marker><marker id="SvgjsMarker1605" markerWidth="14" markerHeight="10" refX="10" refY="5" viewBox="0 0 14 10" orient="auto" markerUnits="userSpaceOnUse" stroke-dasharray="0,0"><path id="SvgjsPath1606" d="M0 0L14 5L0 10L0 0 " fill="#323232" stroke="#323232" stroke-width="1"></path></marker><marker id="SvgjsMarker1609" markerWidth="14" markerHeight="10" refX="10" refY="5" viewBox="0 0 14 10" orient="auto" markerUnits="userSpaceOnUse" stroke-dasharray="0,0"><path id="SvgjsPath1610" d="M0 0L14 5L0 10L0 0 " fill="#323232" stroke="#323232" stroke-width="1"></path></marker></defs><g id="svgbackgroundid"><defs></defs><rect id="SvgjsRect1420" width="1139.5" height="523.40625" fill="#ffffff"></rect></g><g id="SvgjsG1422" transform="translate(897.5,337.40625)"><path id="SvgjsPath1423" d="M0 0L217 0L217 161.125L0 161.125Z " stroke-dasharray="10,6" stroke="rgba(50,50,50,1)" stroke-width="2" fill-opacity="1" fill="#ffcdd2"></path><g id="SvgjsG1424"><text id="SvgjsText1425" font-family="微软雅黑" text-anchor="middle" font-size="13px" width="197px" fill="#323232" font-weight="400" align="middle" lineHeight="125%" font-style="" opacity="1" y="69.9375" transform="rotate(0)"></text></g></g><g id="SvgjsG1426" transform="translate(27.5,187)"><path id="SvgjsPath1427" d="M0 0L191 0L191 43L0 43Z " stroke="rgba(50,50,50,1)" stroke-width="2" fill-opacity="1" fill="#ffffff"></path><g id="SvgjsG1428"><text id="SvgjsText1429" font-family="微软雅黑" text-anchor="middle" font-size="13px" width="171px" fill="#323232" font-weight="400" align="middle" lineHeight="125%" font-style="" opacity="1" y="2.875" transform="rotate(0)"><tspan id="SvgjsTspan1430" dy="16" x="95.5"><tspan id="SvgjsTspan1431" style="text-decoration:;">const result = await </tspan></tspan><tspan id="SvgjsTspan1432" dy="16" x="95.5"><tspan id="SvgjsTspan1433" style="text-decoration:;">transformRequest(url)</tspan></tspan></text></g></g><g id="SvgjsG1434" transform="translate(25,287.34375)"><path id="SvgjsPath1435" d="M14.333333333333334 0L181.66666666666666 0C200.77777777777777 0 200.77777777777777 43 181.66666666666666 43L14.333333333333334 43C-4.777777777777778 43 -4.777777777777778 0 14.333333333333334 0Z " stroke="rgba(50,50,50,1)" stroke-width="2" fill-opacity="1" fill="#ffffff"></path><g id="SvgjsG1436"><text id="SvgjsText1437" font-family="微软雅黑" text-anchor="middle" font-size="13px" width="176px" fill="#323232" font-weight="400" align="middle" lineHeight="125%" font-style="" opacity="1" y="10.875" transform="rotate(0)"><tspan id="SvgjsTspan1438" dy="16" x="98"><tspan id="SvgjsTspan1439" style="text-decoration:;">send$1(req, res, result.code)</tspan></tspan></text></g></g><g id="SvgjsG1440"><path id="SvgjsPath1441" d="M123 139L123 163L123 163L123 183.4 " stroke="#323232" stroke-width="2" fill="none" marker-end="url(#SvgjsMarker1442)"></path></g><g id="SvgjsG1444" transform="translate(27.5,25)"><path id="SvgjsPath1445" d="M13.666666666666666 0L177.33333333333334 0C195.55555555555554 0 195.55555555555554 41 177.33333333333334 41L13.666666666666666 41C-4.555555555555555 41 -4.555555555555555 0 13.666666666666666 0Z " stroke="rgba(50,50,50,1)" stroke-width="2" fill-opacity="1" fill="#ffffff"></path><g id="SvgjsG1446"><text id="SvgjsText1447" font-family="微软雅黑" text-anchor="middle" font-size="13px" width="171px" fill="#323232" font-weight="400" align="middle" lineHeight="125%" font-style="" opacity="1" y="9.875" transform="rotate(0)"><tspan id="SvgjsTspan1448" dy="16" x="95.5"><tspan id="SvgjsTspan1449" style="text-decoration:;">浏览器请求文件</tspan></tspan></text></g></g><g id="SvgjsG1450"><path id="SvgjsPath1451" d="M123 67L123 86L123 86L123 102.4 " stroke="#323232" stroke-width="2" fill="none" marker-end="url(#SvgjsMarker1452)"></path></g><g id="SvgjsG1454" transform="translate(27.5,106)"><path id="SvgjsPath1455" d="M0 0L191 0L191 41L0 41Z " stroke="rgba(50,50,50,1)" stroke-width="2" fill-opacity="1" fill="#ffffff"></path><g id="SvgjsG1456"><text id="SvgjsText1457" font-family="微软雅黑" text-anchor="middle" font-size="13px" width="171px" fill="#323232" font-weight="400" align="middle" lineHeight="125%" font-style="" opacity="1" y="1.875" transform="rotate(0)"><tspan id="SvgjsTspan1458" dy="16" x="95.5"><tspan id="SvgjsTspan1459" style="text-decoration:;fill: rgb(255, 0, 0);">transformMiddleware()</tspan></tspan><tspan id="SvgjsTspan1460" dy="16" x="95.5"><tspan id="SvgjsTspan1461" style="text-decoration:;">触发拦截</tspan></tspan></text></g></g><g id="SvgjsG1462" transform="translate(257.5,188)"><path id="SvgjsPath1463" d="M0 0L147 0L147 41L0 41Z " stroke="rgba(50,50,50,1)" stroke-width="2" fill-opacity="1" fill="#ffffff"></path><g id="SvgjsG1464"><text id="SvgjsText1465" font-family="微软雅黑" text-anchor="middle" font-size="13px" width="127px" fill="#323232" font-weight="400" align="middle" lineHeight="125%" font-style="" opacity="1" y="9.875" transform="rotate(0)"><tspan id="SvgjsTspan1466" dy="16" x="73.5"><tspan id="SvgjsTspan1467" style="text-decoration:;">doTransform()</tspan></tspan></text></g></g><g id="SvgjsG1468"><path id="SvgjsPath1469" d="M219.5 208.5L238 208.5L238 208.5L253.89999999999998 208.5 " stroke="#323232" stroke-width="2" fill="none" marker-end="url(#SvgjsMarker1470)"></path></g><g id="SvgjsG1472" transform="translate(436.5,50.46875)"><path id="SvgjsPath1473" d="M0 0L205 0L205 46L0 46Z " stroke-dasharray="10,6" stroke="rgba(50,50,50,1)" stroke-width="2" fill-opacity="1" fill="#ffe0b2"></path><g id="SvgjsG1474"><text id="SvgjsText1475" font-family="微软雅黑" text-anchor="middle" font-size="13px" width="185px" fill="#323232" font-weight="400" align="middle" lineHeight="125%" font-style="" opacity="1" y="12.375" transform="rotate(0)"><tspan id="SvgjsTspan1476" dy="16" x="102.5"><tspan id="SvgjsTspan1477" style="text-decoration:;">检测moduleGraph是否有缓存</tspan></tspan></text></g></g><g id="SvgjsG1478" transform="translate(436.5,131.6875)"><path id="SvgjsPath1479" d="M0 0L205 0L205 43L0 43Z " stroke="rgba(50,50,50,1)" stroke-width="2" fill-opacity="1" fill="#ffffff"></path><g id="SvgjsG1480"><text id="SvgjsText1481" font-family="微软雅黑" text-anchor="middle" font-size="13px" width="185px" fill="#323232" font-weight="400" align="middle" lineHeight="125%" font-style="" opacity="1" y="10.875" transform="rotate(0)"><tspan id="SvgjsTspan1482" dy="16" x="102.5"><tspan id="SvgjsTspan1483" style="text-decoration:;">id=</tspan><tspan id="SvgjsTspan1484" style="text-decoration:;font-size: inherit;">pluginContainer.resolveId()</tspan></tspan></text></g></g><g id="SvgjsG1485" transform="translate(436.5,317.90625)"><path id="SvgjsPath1486" d="M0 0L205 0L205 41.75L0 41.75Z " stroke="rgba(50,50,50,1)" stroke-width="2" fill-opacity="1" fill="#ffffff"></path><g id="SvgjsG1487"><text id="SvgjsText1488" font-family="微软雅黑" text-anchor="middle" font-size="13px" width="185px" fill="#323232" font-weight="400" align="middle" lineHeight="125%" font-style="" opacity="1" y="10.25" transform="rotate(0)"><tspan id="SvgjsTspan1489" dy="16" x="102.5"><tspan id="SvgjsTspan1490" style="text-decoration:;">loadAndTransform(id, url)</tspan></tspan></text></g></g><g id="SvgjsG1491" transform="translate(328.5,43.71875)"><path id="SvgjsPath1492" d="M103 0Q94 0 94 9L94 153.5625Q94 162.5625 81 162.5625Q94 162.5625 94 171.5625L94 316.125Q94 325.125 103 325.125 " stroke="rgba(50,50,50,1)" stroke-width="2" fill="none"></path><path id="SvgjsPath1493" d="M0 0L103 0L103 325.125L0 325.125Z " stroke="none" fill="none"></path><g id="SvgjsG1494"><text id="SvgjsText1495" font-family="微软雅黑" text-anchor="end" font-size="13px" width="76px" fill="#323232" font-weight="400" align="middle" lineHeight="125%" font-style="" opacity="1" y="151.9375" transform="rotate(0)"></text></g></g><g id="SvgjsG1496" transform="translate(673.5,236.34375)"><path id="SvgjsPath1497" d="M0 0L174 0L174 39.875L0 39.875Z " stroke="rgba(50,50,50,1)" stroke-width="2" fill-opacity="1" fill="#ffffff"></path><g id="SvgjsG1498"><text id="SvgjsText1499" font-family="微软雅黑" text-anchor="middle" font-size="13px" width="154px" fill="#323232" font-weight="400" align="middle" lineHeight="125%" font-style="" opacity="1" y="1.3125" transform="rotate(0)"><tspan id="SvgjsTspan1500" dy="16" x="87"><tspan id="SvgjsTspan1501" style="text-decoration:;fill: rgb(255, 0, 0);">pluginContainer.load()</tspan></tspan><tspan id="SvgjsTspan1502" dy="16" x="87"><tspan id="SvgjsTspan1503" style="text-decoration:;">读取内容</tspan></tspan></text></g></g><g id="SvgjsG1504" transform="translate(673.5,302.65625)"><path id="SvgjsPath1505" d="M0 0L174 0L174 57L0 57Z " stroke="rgba(50,50,50,1)" stroke-width="2" fill-opacity="1" fill="#ffffff"></path><g id="SvgjsG1506"><text id="SvgjsText1507" font-family="微软雅黑" text-anchor="middle" font-size="13px" width="154px" fill="#323232" font-weight="400" align="middle" lineHeight="125%" font-style="" opacity="1" y="1.875" transform="rotate(0)"><tspan id="SvgjsTspan1508" dy="16" x="87"><tspan id="SvgjsTspan1509" style="text-decoration:;fill: rgb(255, 0, 0);">moduleGraph.</tspan></tspan><tspan id="SvgjsTspan1510" dy="16" x="87"><tspan id="SvgjsTspan1511" style="text-decoration:;fill: rgb(255, 0, 0);">ensureEntryFromUrl()</tspan></tspan><tspan id="SvgjsTspan1512" dy="16" x="87"><tspan id="SvgjsTspan1513" style="text-decoration:;">创建moduleGraph缓存</tspan></tspan></text></g></g><g id="SvgjsG1514" transform="translate(673.5,388.59375)"><path id="SvgjsPath1515" d="M0 0L174 0L174 58.75L0 58.75Z " stroke="rgba(50,50,50,1)" stroke-width="2" fill-opacity="1" fill="#ffffff"></path><g id="SvgjsG1516"><text id="SvgjsText1517" font-family="微软雅黑" text-anchor="middle" font-size="13px" width="154px" fill="#323232" font-weight="400" align="middle" lineHeight="125%" font-style="" opacity="1" y="2.75" transform="rotate(0)"><tspan id="SvgjsTspan1518" dy="16" x="87"><tspan id="SvgjsTspan1519" style="text-decoration:;fill: rgb(255, 0, 0);">pluginContainer.</tspan></tspan><tspan id="SvgjsTspan1520" dy="16" x="87"><tspan id="SvgjsTspan1521" style="text-decoration:;fill: rgb(255, 0, 0);">transform()</tspan></tspan><tspan id="SvgjsTspan1522" dy="16" x="87"><tspan id="SvgjsTspan1523" style="text-decoration:;">transform转化文件内容</tspan></tspan></text></g></g><g id="SvgjsG1524" transform="translate(566.5,233.84375)"><path id="SvgjsPath1525" d="M101 0Q92 0 92 9L92 97.75Q92 106.75 79 106.75Q92 106.75 92 115.75L92 204.5Q92 213.5 101 213.5 " stroke="rgba(50,50,50,1)" stroke-width="2" fill="none"></path><path id="SvgjsPath1526" d="M0 0L101 0L101 213.5L0 213.5Z " stroke="none" fill="none"></path><g id="SvgjsG1527"><text id="SvgjsText1528" font-family="微软雅黑" text-anchor="end" font-size="13px" width="74px" fill="#323232" font-weight="400" align="middle" lineHeight="125%" font-style="" opacity="1" y="96.125" transform="rotate(0)"></text></g></g><g id="SvgjsG1529"><path id="SvgjsPath1530" d="M760.5 277.21875L760.5 289.4375L760.5 289.4375L760.5 299.05625 " stroke="#323232" stroke-width="2" fill="none" marker-end="url(#SvgjsMarker1531)"></path></g><g id="SvgjsG1533"><path id="SvgjsPath1534" d="M760.5 360.65625L760.5 374.125L760.5 374.125L760.5 384.99375 " stroke="#323232" stroke-width="2" fill="none" marker-end="url(#SvgjsMarker1535)"></path></g><g id="SvgjsG1537"><path id="SvgjsPath1538" d="M848.5 417.96875L872.5 417.96875L872.5 417.96875L893.9000000000001 417.96875 " stroke="#323232" stroke-width="2" fill="none" marker-end="url(#SvgjsMarker1539)"></path></g><g id="SvgjsG1541"><path id="SvgjsPath1542" d="M539 97.46875L539 114.078125L539 114.078125L539 128.0875 " stroke="#323232" stroke-width="2" fill="none" marker-end="url(#SvgjsMarker1543)"></path></g><g id="SvgjsG1545"><path id="SvgjsPath1546" d="M539 175.6875L539 246.296875L539 246.296875L539 314.30625 " stroke="#323232" stroke-width="2" fill="none" marker-end="url(#SvgjsMarker1547)"></path></g><g id="SvgjsG1549" transform="translate(920.5,346.53125)"><path id="SvgjsPath1550" d="M0 0L178 0L178 40.875L0 40.875Z " stroke="rgba(50,50,50,1)" stroke-width="2" fill-opacity="1" fill="#ffffff"></path><g id="SvgjsG1551"><text id="SvgjsText1552" font-family="微软雅黑" text-anchor="middle" font-size="13px" width="158px" fill="#323232" font-weight="400" align="middle" lineHeight="125%" font-style="" opacity="1" y="9.8125" transform="rotate(0)"><tspan id="SvgjsTspan1553" dy="16" x="89"><tspan id="SvgjsTspan1554" style="text-decoration:;">插件1的transform()</tspan></tspan></text></g></g><g id="SvgjsG1555" transform="translate(920.5,397.53125)"><path id="SvgjsPath1556" d="M0 0L178 0L178 40.875L0 40.875Z " stroke="rgba(50,50,50,1)" stroke-width="2" fill-opacity="1" fill="#ffffff"></path><g id="SvgjsG1557"><text id="SvgjsText1558" font-family="微软雅黑" text-anchor="middle" font-size="13px" width="158px" fill="#323232" font-weight="400" align="middle" lineHeight="125%" font-style="" opacity="1" y="9.8125" transform="rotate(0)"><tspan id="SvgjsTspan1559" dy="16" x="89"><tspan id="SvgjsTspan1560" style="text-decoration:;">插件2的transform()</tspan></tspan></text></g></g><g id="SvgjsG1561" transform="translate(920.5,448.53125)"><path id="SvgjsPath1562" d="M0 0L178 0L178 40.875L0 40.875Z " stroke="rgba(50,50,50,1)" stroke-width="2" fill-opacity="1" fill="#ffffff"></path><g id="SvgjsG1563"><text id="SvgjsText1564" font-family="微软雅黑" text-anchor="middle" font-size="13px" width="158px" fill="#323232" font-weight="400" align="middle" lineHeight="125%" font-style="" opacity="1" y="9.8125" transform="rotate(0)"><tspan id="SvgjsTspan1565" dy="16" x="89"><tspan id="SvgjsTspan1566" style="text-decoration:;">......</tspan></tspan></text></g></g><g id="SvgjsG1567" transform="translate(898.5,199.5625)"><path id="SvgjsPath1568" d="M0 0L215 0L215 113.4375L0 113.4375Z " stroke-dasharray="10,6" stroke="rgba(50,50,50,1)" stroke-width="2" fill-opacity="1" fill="#ffcdd2"></path><g id="SvgjsG1569"><text id="SvgjsText1570" font-family="微软雅黑" text-anchor="middle" font-size="13px" width="195px" fill="#323232" font-weight="400" align="middle" lineHeight="125%" font-style="" opacity="1" y="46.09375" transform="rotate(0)"></text></g></g><g id="SvgjsG1571" transform="translate(921.5,208.6875)"><path id="SvgjsPath1572" d="M0 0L178 0L178 40.875L0 40.875Z " stroke="rgba(50,50,50,1)" stroke-width="2" fill-opacity="1" fill="#ffffff"></path><g id="SvgjsG1573"><text id="SvgjsText1574" font-family="微软雅黑" text-anchor="middle" font-size="13px" width="158px" fill="#323232" font-weight="400" align="middle" lineHeight="125%" font-style="" opacity="1" y="9.8125" transform="rotate(0)"><tspan id="SvgjsTspan1575" dy="16" x="89"><tspan id="SvgjsTspan1576" style="text-decoration:;">插件1的load()</tspan></tspan></text></g></g><g id="SvgjsG1577" transform="translate(921.5,258.6875)"><path id="SvgjsPath1578" d="M0 0L178 0L178 40.875L0 40.875Z " stroke="rgba(50,50,50,1)" stroke-width="2" fill-opacity="1" fill="#ffffff"></path><g id="SvgjsG1579"><text id="SvgjsText1580" font-family="微软雅黑" text-anchor="middle" font-size="13px" width="158px" fill="#323232" font-weight="400" align="middle" lineHeight="125%" font-style="" opacity="1" y="9.8125" transform="rotate(0)"><tspan id="SvgjsTspan1581" dy="16" x="89"><tspan id="SvgjsTspan1582" style="text-decoration:;">......</tspan></tspan></text></g></g><g id="SvgjsG1583"><path id="SvgjsPath1584" d="M848.5 256.28125L873 256.28125L873 256.28125L894.9000000000001 256.28125 " stroke="#323232" stroke-width="2" fill="none" marker-end="url(#SvgjsMarker1585)"></path></g><g id="SvgjsG1587" transform="translate(667.5,96.46875)"><path id="SvgjsPath1588" d="M0 0L192 0L192 112.21875L0 112.21875Z " stroke-dasharray="10,6" stroke="rgba(50,50,50,1)" stroke-width="2" fill-opacity="1" fill="#ffcdd2"></path><g id="SvgjsG1589"><text id="SvgjsText1590" font-family="微软雅黑" text-anchor="middle" font-size="13px" width="172px" fill="#323232" font-weight="400" align="middle" lineHeight="125%" font-style="" opacity="1" y="45.484375" transform="rotate(0)"></text></g></g><g id="SvgjsG1591" transform="translate(687.5,105.59375)"><path id="SvgjsPath1592" d="M0 0L160 0L160 41.8125L0 41.8125Z " stroke="rgba(50,50,50,1)" stroke-width="2" fill-opacity="1" fill="#ffffff"></path><g id="SvgjsG1593"><text id="SvgjsText1594" font-family="微软雅黑" text-anchor="middle" font-size="13px" width="140px" fill="#323232" font-weight="400" align="middle" lineHeight="125%" font-style="" opacity="1" y="10.28125" transform="rotate(0)"><tspan id="SvgjsTspan1595" dy="16" x="80"><tspan id="SvgjsTspan1596" style="text-decoration:;">插件1的resolveId()</tspan></tspan></text></g></g><g id="SvgjsG1597" transform="translate(687.5,158.6875)"><path id="SvgjsPath1598" d="M0 0L160 0L160 40.875L0 40.875Z " stroke="rgba(50,50,50,1)" stroke-width="2" fill-opacity="1" fill="#ffffff"></path><g id="SvgjsG1599"><text id="SvgjsText1600" font-family="微软雅黑" text-anchor="middle" font-size="13px" width="140px" fill="#323232" font-weight="400" align="middle" lineHeight="125%" font-style="" opacity="1" y="9.8125" transform="rotate(0)"><tspan id="SvgjsTspan1601" dy="16" x="80"><tspan id="SvgjsTspan1602" style="text-decoration:;">......</tspan></tspan></text></g></g><g id="SvgjsG1603"><path id="SvgjsPath1604" d="M642.5 153.1875L654.5 153.1875L654.5 152.578125L663.9 152.578125 " stroke="#323232" stroke-width="2" fill="none" marker-end="url(#SvgjsMarker1605)"></path></g><g id="SvgjsG1607"><path id="SvgjsPath1608" d="M760.5 448.34375L760.5 477.34375L298.25 477.34375L298.25 257.34375L123 257.34375L123 283.74375 " stroke="#323232" stroke-width="2" fill="none" marker-end="url(#SvgjsMarker1609)"></path></g><g id="SvgjsG1611" transform="translate(32.5,406.15625)"><path id="SvgjsPath1612" d="M0 0L170 0L170 41.1875L0 41.1875Z " stroke="none" fill="none"></path><g id="SvgjsG1613"><text id="SvgjsText1614" font-family="微软雅黑" text-anchor="middle" font-size="13px" width="170px" fill="#323232" font-weight="400" align="middle" lineHeight="125%" font-style="" opacity="0.5" y="9.96875" transform="rotate(0)"><tspan id="SvgjsTspan1615" dy="16" x="85"><tspan id="SvgjsTspan1616" style="text-decoration:;">https://github.com/wbccb</tspan></tspan></text></g></g><g id="SvgjsG1617" transform="translate(898.5,105.90625)"><path id="SvgjsPath1618" d="M0 0L170 0L170 41.1875L0 41.1875Z " stroke="none" fill="none"></path><g id="SvgjsG1619"><text id="SvgjsText1620" font-family="微软雅黑" text-anchor="middle" font-size="13px" width="170px" fill="#323232" font-weight="400" align="middle" lineHeight="125%" font-style="" opacity="0.3" y="9.96875" transform="rotate(0)"><tspan id="SvgjsTspan1621" dy="16" x="85"><tspan id="SvgjsTspan1622" style="text-decoration:;">https://github.com/wbccb</tspan></tspan></text></g></g></svg>