<svg id="SvgjsSvg1000" xmlns="http://www.w3.org/2000/svg" version="1.1" xmlns:xlink="http://www.w3.org/1999/xlink" xmlns:svgjs="http://svgjs.com/svgjs" width="1189.75" height="1084.640625"><defs id="SvgjsDefs1001"><marker id="SvgjsMarker1044" markerWidth="14" markerHeight="10" refX="10" refY="5" viewBox="0 0 14 10" orient="auto" markerUnits="userSpaceOnUse" stroke-dasharray="0,0"><path id="SvgjsPath1045" d="M0 0L14 5L0 10L0 0 " fill="#323232" stroke="#323232" stroke-width="1"></path></marker><marker id="SvgjsMarker1048" markerWidth="14" markerHeight="10" refX="10" refY="5" viewBox="0 0 14 10" orient="auto" markerUnits="userSpaceOnUse" stroke-dasharray="0,0"><path id="SvgjsPath1049" d="M0 0L14 5L0 10L0 0 " fill="#323232" stroke="#323232" stroke-width="1"></path></marker><marker id="SvgjsMarker1058" markerWidth="14" markerHeight="10" refX="10" refY="5" viewBox="0 0 14 10" orient="auto" markerUnits="userSpaceOnUse" stroke-dasharray="0,0"><path id="SvgjsPath1059" d="M0 0L14 5L0 10L0 0 " fill="#323232" stroke="#323232" stroke-width="1"></path></marker><marker id="SvgjsMarker1093" markerWidth="14" markerHeight="10" refX="10" refY="5" viewBox="0 0 14 10" orient="auto" markerUnits="userSpaceOnUse" stroke-dasharray="0,0"><path id="SvgjsPath1094" d="M0 0L14 5L0 10L0 0 " fill="#323232" stroke="#323232" stroke-width="1"></path></marker><marker id="SvgjsMarker1117" markerWidth="14" markerHeight="10" refX="10" refY="5" viewBox="0 0 14 10" orient="auto" markerUnits="userSpaceOnUse" stroke-dasharray="0,0"><path id="SvgjsPath1118" d="M0 0L14 5L0 10L0 0 " fill="#323232" stroke="#323232" stroke-width="1"></path></marker><marker id="SvgjsMarker1127" markerWidth="14" markerHeight="10" refX="10" refY="5" viewBox="0 0 14 10" orient="auto" markerUnits="userSpaceOnUse" stroke-dasharray="0,0"><path id="SvgjsPath1128" d="M0 0L14 5L0 10L0 0 " fill="#323232" stroke="#323232" stroke-width="1"></path></marker><marker id="SvgjsMarker1137" markerWidth="14" markerHeight="10" refX="10" refY="5" viewBox="0 0 14 10" orient="auto" markerUnits="userSpaceOnUse" stroke-dasharray="0,0"><path id="SvgjsPath1138" d="M0 0L14 5L0 10L0 0 " fill="#323232" stroke="#323232" stroke-width="1"></path></marker><marker id="SvgjsMarker1160" markerWidth="14" markerHeight="10" refX="10" refY="5" viewBox="0 0 14 10" orient="auto" markerUnits="userSpaceOnUse" stroke-dasharray="0,0"><path id="SvgjsPath1161" d="M0 0L14 5L0 10L0 0 " fill="#323232" stroke="#323232" stroke-width="1"></path></marker><marker id="SvgjsMarker1170" markerWidth="14" markerHeight="10" refX="10" refY="5" viewBox="0 0 14 10" orient="auto" markerUnits="userSpaceOnUse" stroke-dasharray="0,0"><path id="SvgjsPath1171" d="M0 0L14 5L0 10L0 0 " fill="#323232" stroke="#323232" stroke-width="1"></path></marker><marker id="SvgjsMarker1182" markerWidth="14" markerHeight="10" refX="10" refY="5" viewBox="0 0 14 10" orient="auto" markerUnits="userSpaceOnUse" stroke-dasharray="0,0"><path id="SvgjsPath1183" d="M0 0L14 5L0 10L0 0 " fill="#323232" stroke="#323232" stroke-width="1"></path></marker><marker id="SvgjsMarker1192" markerWidth="14" markerHeight="10" refX="10" refY="5" viewBox="0 0 14 10" orient="auto" markerUnits="userSpaceOnUse" stroke-dasharray="0,0"><path id="SvgjsPath1193" d="M0 0L14 5L0 10L0 0 " fill="#323232" stroke="#323232" stroke-width="1"></path></marker><marker id="SvgjsMarker1222" markerWidth="14" markerHeight="10" refX="10" refY="5" viewBox="0 0 14 10" orient="auto" markerUnits="userSpaceOnUse" stroke-dasharray="0,0"><path id="SvgjsPath1223" d="M0 0L14 5L0 10L0 0 " fill="#323232" stroke="#323232" stroke-width="1"></path></marker><marker id="SvgjsMarker1247" markerWidth="14" markerHeight="10" refX="10" refY="5" viewBox="0 0 14 10" orient="auto" markerUnits="userSpaceOnUse" stroke-dasharray="0,0"><path id="SvgjsPath1248" d="M0 0L14 5L0 10L0 0 " fill="#323232" stroke="#323232" stroke-width="1"></path></marker><marker id="SvgjsMarker1275" markerWidth="14" markerHeight="10" refX="10" refY="5" viewBox="0 0 14 10" orient="auto" markerUnits="userSpaceOnUse" stroke-dasharray="0,0"><path id="SvgjsPath1276" d="M0 0L14 5L0 10L0 0 " fill="#323232" stroke="#323232" stroke-width="1"></path></marker><marker id="SvgjsMarker1303" markerWidth="14" markerHeight="10" refX="10" refY="5" viewBox="0 0 14 10" orient="auto" markerUnits="userSpaceOnUse" stroke-dasharray="0,0"><path id="SvgjsPath1304" d="M0 0L14 5L0 10L0 0 " fill="#323232" stroke="#323232" stroke-width="1"></path></marker><marker id="SvgjsMarker1341" markerWidth="14" markerHeight="10" refX="10" refY="5" viewBox="0 0 14 10" orient="auto" markerUnits="userSpaceOnUse" stroke-dasharray="0,0"><path id="SvgjsPath1342" d="M0 0L14 5L0 10L0 0 " fill="#323232" stroke="#323232" stroke-width="1"></path></marker><marker id="SvgjsMarker1369" markerWidth="14" markerHeight="10" refX="10" refY="5" viewBox="0 0 14 10" orient="auto" markerUnits="userSpaceOnUse" stroke-dasharray="0,0"><path id="SvgjsPath1370" d="M0 0L14 5L0 10L0 0 " fill="#323232" stroke="#323232" stroke-width="1"></path></marker><marker id="SvgjsMarker1395" markerWidth="14" markerHeight="10" refX="10" refY="5" viewBox="0 0 14 10" orient="auto" markerUnits="userSpaceOnUse" stroke-dasharray="0,0"><path id="SvgjsPath1396" d="M0 0L14 5L0 10L0 0 " fill="#323232" stroke="#323232" stroke-width="1"></path></marker><marker id="SvgjsMarker1409" markerWidth="14" markerHeight="10" refX="10" refY="5" viewBox="0 0 14 10" orient="auto" markerUnits="userSpaceOnUse" stroke-dasharray="0,0"><path id="SvgjsPath1410" d="M0 0L14 5L0 10L0 0 " fill="#323232" stroke="#323232" stroke-width="1"></path></marker></defs><g id="svgbackgroundid"><defs></defs><rect id="SvgjsRect1008" width="1189.75" height="1084.640625" fill="#ffffff"></rect></g><g id="SvgjsG1010" transform="translate(99.25,72.640625)"><path id="SvgjsPath1011" d="M16.666666666666668 0L83.33333333333333 0C105.55555555555556 0 105.55555555555556 50 83.33333333333333 50L16.666666666666668 50C-5.555555555555556 50 -5.555555555555556 0 16.666666666666668 0Z " stroke="rgba(50,50,50,1)" stroke-width="2" fill-opacity="1" fill="#ffffff"></path><g id="SvgjsG1012"><text id="SvgjsText1013" font-family="微软雅黑" text-anchor="middle" font-size="13px" width="80px" fill="#323232" font-weight="400" align="middle" lineHeight="125%" font-style="" opacity="1" y="14.375" transform="rotate(0)"><tspan id="SvgjsTspan1014" dy="16" x="50"><tspan id="SvgjsTspan1015" style="text-decoration:;">new Vue()</tspan></tspan></text></g></g><g id="SvgjsG1016" transform="translate(97.75,164.640625)"><path id="SvgjsPath1017" d="M0 0L103 0L103 44L0 44Z " stroke="rgba(50,50,50,1)" stroke-width="2" fill-opacity="1" fill="#ffffff"></path><g id="SvgjsG1018"><text id="SvgjsText1019" font-family="微软雅黑" text-anchor="middle" font-size="13px" width="83px" fill="#323232" font-weight="400" align="middle" lineHeight="125%" font-style="" opacity="1" y="11.375" transform="rotate(0)"><tspan id="SvgjsTspan1020" dy="16" x="51.5"><tspan id="SvgjsTspan1021" style="text-decoration:;">Vue._init()</tspan></tspan></text></g></g><g id="SvgjsG1022" transform="translate(235.75,81.640625)"><path id="SvgjsPath1023" d="M0 0L340 0L356 16L356 127L0 127L0 0Z " stroke="none" fill-opacity="1" fill="#fff9c4"></path><path id="SvgjsPath1024" d="M340 0L340 16L356 16Z " stroke="none" fill-opacity="1" fill="#cdcdcd"></path><path id="SvgjsPath1025" d="M0 0L340 0L356 16L356 127L0 127L0 0Z " stroke="none" fill="none"></path><g id="SvgjsG1026"><text id="SvgjsText1027" font-family="微软雅黑" text-anchor="start" font-size="13px" width="336px" fill="#000000" font-weight="400" align="middle" lineHeight="125%" font-style="" opacity="1" y="4.875" transform="rotate(0)"><tspan id="SvgjsTspan1028" dy="16" x="10"><tspan id="SvgjsTspan1029" style="text-decoration:;">1. 初始化生命周期</tspan></tspan><tspan id="SvgjsTspan1030" dy="16" x="10"><tspan id="SvgjsTspan1031" style="text-decoration:;">2. 初始化event</tspan></tspan><tspan id="SvgjsTspan1032" dy="16" x="10"><tspan id="SvgjsTspan1033" style="text-decoration:;">3. 初始化createElement等渲染方法</tspan></tspan><tspan id="SvgjsTspan1034" dy="16" x="10"><tspan id="SvgjsTspan1035" style="text-decoration:;">4. 生命周期beforeCreate调用</tspan></tspan><tspan id="SvgjsTspan1036" dy="16" x="10"><tspan id="SvgjsTspan1037" style="text-decoration:;">5. 初始化props、methods、data、computed、watch</tspan></tspan><tspan id="SvgjsTspan1038" dy="16" x="10"><tspan id="SvgjsTspan1039" style="text-decoration:;">6. 生命周期created调用</tspan></tspan><tspan id="SvgjsTspan1040" dy="16" x="10"><tspan id="SvgjsTspan1041" style="text-decoration:;">7. vm.$mount渲染到真实DOM上</tspan></tspan></text></g></g><g id="SvgjsG1042"><path id="SvgjsPath1043" d="M149.25 123.640625L149.25 143.640625L149.25 143.640625L149.25 161.040625 " stroke="#323232" stroke-width="2" fill="none" marker-end="url(#SvgjsMarker1044)"></path></g><g id="SvgjsG1046"><path id="SvgjsPath1047" d="M201.75 186.640625L218.25 186.640625L218.25 145.140625L233.14999999999998 145.140625 " stroke="#323232" stroke-width="2" fill="none" marker-end="url(#SvgjsMarker1048)"></path></g><g id="SvgjsG1050" transform="translate(97.75,277.640625)"><path id="SvgjsPath1051" d="M0 0L103 0L103 44L0 44Z " stroke="rgba(50,50,50,1)" stroke-width="2" fill-opacity="1" fill="#ffffff"></path><g id="SvgjsG1052"><text id="SvgjsText1053" font-family="微软雅黑" text-anchor="middle" font-size="13px" width="83px" fill="#323232" font-weight="400" align="middle" lineHeight="125%" font-style="" opacity="1" y="11.375" transform="rotate(0)"><tspan id="SvgjsTspan1054" dy="16" x="51.5"><tspan id="SvgjsTspan1055" style="text-decoration:;">Vue.$mount()</tspan></tspan></text></g></g><g id="SvgjsG1056"><path id="SvgjsPath1057" d="M413.75 208.640625L413.75 233.140625L149.25 233.140625L149.25 274.040625 " stroke="#323232" stroke-width="2" fill="none" marker-end="url(#SvgjsMarker1058)"></path></g><g id="SvgjsG1060" transform="translate(127.75,250.640625)"><path id="SvgjsPath1061" d="M99 0Q90 0 90 9L90 46Q90 55 77 55Q90 55 90 64L90 101Q90 110 99 110 " stroke="rgba(50,50,50,1)" stroke-width="2" fill="none"></path><path id="SvgjsPath1062" d="M0 0L99 0L99 110L0 110Z " stroke="none" fill="none"></path><g id="SvgjsG1063"><text id="SvgjsText1064" font-family="微软雅黑" text-anchor="end" font-size="13px" width="72px" fill="#323232" font-weight="400" align="middle" lineHeight="125%" font-style="" opacity="1" y="44.375" transform="rotate(0)"></text></g></g><g id="SvgjsG1065" transform="translate(235.75,250.640625)"><path id="SvgjsPath1066" d="M0 0L181 0L181 41L0 41Z " stroke="rgba(50,50,50,1)" stroke-width="2" fill-opacity="1" fill="#ffffff"></path><g id="SvgjsG1067"><text id="SvgjsText1068" font-family="微软雅黑" text-anchor="middle" font-size="13px" width="161px" fill="#323232" font-weight="400" align="middle" lineHeight="125%" font-style="" opacity="1" y="1.875" transform="rotate(0)"><tspan id="SvgjsTspan1069" dy="16" x="90.5"><tspan id="SvgjsTspan1070" style="text-decoration:;">compileToFunctions:</tspan></tspan><tspan id="SvgjsTspan1071" dy="16" x="90.5"><tspan id="SvgjsTspan1072" style="text-decoration:;">&lt;template&gt;转化为render</tspan></tspan></text></g></g><g id="SvgjsG1073" transform="translate(235.75,314.640625)"><path id="SvgjsPath1074" d="M0 0L181 0L181 58L0 58Z " stroke="rgba(50,50,50,1)" stroke-width="2" fill-opacity="1" fill="#ffffff"></path><g id="SvgjsG1075"><text id="SvgjsText1076" font-family="微软雅黑" text-anchor="middle" font-size="13px" width="161px" fill="#323232" font-weight="400" align="middle" lineHeight="125%" font-style="" opacity="1" y="2.375" transform="rotate(0)"><tspan id="SvgjsTspan1077" dy="16" x="90.5"><tspan id="SvgjsTspan1078" style="text-decoration:;">const mount = </tspan></tspan><tspan id="SvgjsTspan1079" dy="16" x="90.5"><tspan id="SvgjsTspan1080" style="text-decoration:;">Vue.prototype.$mount;</tspan></tspan><tspan id="SvgjsTspan1081" dy="16" x="90.5"><tspan id="SvgjsTspan1082" style="text-decoration:;">mount.call(this, el, false)</tspan></tspan></text></g></g><g id="SvgjsG1083" transform="translate(99.25,452.140625)"><path id="SvgjsPath1084" d="M0 0L100 0L100 48L0 48Z " stroke="rgba(50,50,50,1)" stroke-width="2" fill-opacity="1" fill="#ffffff"></path><g id="SvgjsG1085"><text id="SvgjsText1086" font-family="微软雅黑" text-anchor="middle" font-size="13px" width="80px" fill="#323232" font-weight="400" align="middle" lineHeight="125%" font-style="" opacity="1" y="5.375" transform="rotate(0)"><tspan id="SvgjsTspan1087" dy="16" x="50"><tspan id="SvgjsTspan1088" style="text-decoration:;">初始化渲染</tspan></tspan><tspan id="SvgjsTspan1089" dy="16" x="50"><tspan id="SvgjsTspan1090" style="text-decoration:;">Watcher</tspan></tspan></text></g></g><g id="SvgjsG1091"><path id="SvgjsPath1092" d="M326.25 373.640625L326.25 398.390625L149.25 398.390625L149.25 448.540625 " stroke="#323232" stroke-width="2" fill="none" marker-end="url(#SvgjsMarker1093)"></path></g><g id="SvgjsG1095" transform="translate(235.75,411.640625)"><path id="SvgjsPath1096" d="M0 0L300 0L316 16L316 129L0 129L0 0Z " stroke="none" fill-opacity="1" fill="#fff9c4"></path><path id="SvgjsPath1097" d="M300 0L300 16L316 16Z " stroke="none" fill-opacity="1" fill="#cdcdcd"></path><path id="SvgjsPath1098" d="M0 0L300 0L316 16L316 129L0 129L0 0Z " stroke="none" fill="none"></path><g id="SvgjsG1099"><text id="SvgjsText1100" font-family="微软雅黑" text-anchor="start" font-size="13px" width="296px" fill="#000000" font-weight="400" align="middle" lineHeight="125%" font-style="" opacity="1" y="5.875" transform="rotate(0)"><tspan id="SvgjsTspan1101" dy="16" x="10"><tspan id="SvgjsTspan1102" style="text-decoration:;">  new Watcher(vm, updateComponent, noop, {</tspan></tspan><tspan id="SvgjsTspan1103" dy="16" x="10"><tspan id="SvgjsTspan1104" style="text-decoration:;">    before () {</tspan></tspan><tspan id="SvgjsTspan1105" dy="16" x="10"><tspan id="SvgjsTspan1106" style="text-decoration:;">      if (vm._isMounted &amp;&amp; !vm._isDestroyed) {</tspan></tspan><tspan id="SvgjsTspan1107" dy="16" x="10"><tspan id="SvgjsTspan1108" style="text-decoration:;">        callHook(vm, 'beforeUpdate')</tspan></tspan><tspan id="SvgjsTspan1109" dy="16" x="10"><tspan id="SvgjsTspan1110" style="text-decoration:;">      }</tspan></tspan><tspan id="SvgjsTspan1111" dy="16" x="10"><tspan id="SvgjsTspan1112" style="text-decoration:;">    }</tspan></tspan><tspan id="SvgjsTspan1113" dy="16" x="10"><tspan id="SvgjsTspan1114" style="text-decoration:;">  }, true /* isRenderWatcher */)</tspan></tspan></text></g></g><g id="SvgjsG1115"><path id="SvgjsPath1116" d="M200.25 476.140625L217.5 476.140625L217.5 476.140625L233.14999999999998 476.140625 " stroke="#323232" stroke-width="2" fill="none" marker-end="url(#SvgjsMarker1117)"></path></g><g id="SvgjsG1119" transform="translate(25,551.640625)"><path id="SvgjsPath1120" d="M0 0L248.5 0L248.5 45L0 45Z " stroke="rgba(50,50,50,1)" stroke-width="2" fill-opacity="1" fill="#ffffff"></path><g id="SvgjsG1121"><text id="SvgjsText1122" font-family="微软雅黑" text-anchor="middle" font-size="13px" width="229px" fill="#323232" font-weight="400" align="middle" lineHeight="125%" font-style="" opacity="1" y="11.875" transform="rotate(0)"><tspan id="SvgjsTspan1123" dy="16" x="124.5"><tspan id="SvgjsTspan1124" style="text-decoration:;">vm._update(vm._render(), hydrating)</tspan></tspan></text></g></g><g id="SvgjsG1125"><path id="SvgjsPath1126" d="M149.25 501.140625L149.25 525.890625L149.25 525.890625L149.25 548.040625 " stroke="#323232" stroke-width="2" fill="none" marker-end="url(#SvgjsMarker1127)"></path></g><g id="SvgjsG1129" transform="translate(37.75,640.640625)"><path id="SvgjsPath1130" d="M0 0L223 0L223 41L0 41Z " stroke="rgba(50,50,50,1)" stroke-width="2" fill-opacity="1" fill="#e1bee7"></path><g id="SvgjsG1131"><text id="SvgjsText1132" font-family="微软雅黑" text-anchor="middle" font-size="13px" width="203px" fill="#323232" font-weight="400" align="middle" lineHeight="125%" font-style="" opacity="1" y="9.875" transform="rotate(0)"><tspan id="SvgjsTspan1133" dy="16" x="111.5"><tspan id="SvgjsTspan1134" style="text-decoration:;">vm._render()</tspan></tspan></text></g></g><g id="SvgjsG1135"><path id="SvgjsPath1136" d="M149.25 597.640625L149.25 618.640625L149.25 618.640625L149.25 637.040625 " stroke="#323232" stroke-width="2" fill="none" marker-end="url(#SvgjsMarker1137)"></path></g><g id="SvgjsG1139" transform="translate(349.125,584.640625)"><path id="SvgjsPath1140" d="M98 0Q89 0 89 9L89 68Q89 77 76 77Q89 77 89 86L89 145Q89 154 98 154 " stroke="rgba(50,50,50,1)" stroke-width="2" fill="none"></path><path id="SvgjsPath1141" d="M0 0L98 0L98 154L0 154Z " stroke="none" fill="none"></path><g id="SvgjsG1142"><text id="SvgjsText1143" font-family="微软雅黑" text-anchor="end" font-size="13px" width="71px" fill="#323232" font-weight="400" align="middle" lineHeight="125%" font-style="" opacity="1" y="66.375" transform="rotate(0)"></text></g></g><g id="SvgjsG1144" transform="translate(456.75,584.640625)"><path id="SvgjsPath1145" d="M0 0L140 0L140 32L0 32Z " stroke="rgba(50,50,50,1)" stroke-width="2" fill-opacity="1" fill="#ffffff"></path><g id="SvgjsG1146"><text id="SvgjsText1147" font-family="微软雅黑" text-anchor="middle" font-size="13px" width="120px" fill="#323232" font-weight="400" align="middle" lineHeight="125%" font-style="" opacity="1" y="5.375" transform="rotate(0)"><tspan id="SvgjsTspan1148" dy="16" x="70"><tspan id="SvgjsTspan1149" style="text-decoration:;">格式化children</tspan></tspan></text></g></g><g id="SvgjsG1150" transform="translate(454.25,634.640625)"><path id="SvgjsPath1151" d="M0 0L145 0L145 49L0 49Z " stroke="rgba(50,50,50,1)" stroke-width="2" fill-opacity="1" fill="#ffffff"></path><g id="SvgjsG1152"><text id="SvgjsText1153" font-family="微软雅黑" text-anchor="middle" font-size="13px" width="125px" fill="#323232" font-weight="400" align="middle" lineHeight="125%" font-style="" opacity="1" y="5.875" transform="rotate(0)"><tspan id="SvgjsTspan1154" dy="16" x="72.5"><tspan id="SvgjsTspan1155" style="text-decoration:;">new VNode()或者</tspan></tspan><tspan id="SvgjsTspan1156" dy="16" x="72.5"><tspan id="SvgjsTspan1157" style="text-decoration:;">createComponent()</tspan></tspan></text></g></g><g id="SvgjsG1158"><path id="SvgjsPath1159" d="M526.75 617.640625L526.75 625.640625L526.75 625.640625L526.75 631.040625 " stroke="#323232" stroke-width="2" fill="none" marker-end="url(#SvgjsMarker1160)"></path></g><g id="SvgjsG1162" transform="translate(451.5,705.640625)"><path id="SvgjsPath1163" d="M0 0L150.5 0L150.5 33L0 33Z " stroke="rgba(50,50,50,1)" stroke-width="2" fill-opacity="1" fill="#ffffff"></path><g id="SvgjsG1164"><text id="SvgjsText1165" font-family="微软雅黑" text-anchor="middle" font-size="13px" width="131px" fill="#323232" font-weight="400" align="middle" lineHeight="125%" font-style="" opacity="1" y="5.875" transform="rotate(0)"><tspan id="SvgjsTspan1166" dy="16" x="75.5"><tspan id="SvgjsTspan1167" style="text-decoration:;">返回VNode</tspan></tspan></text></g></g><g id="SvgjsG1168"><path id="SvgjsPath1169" d="M526.75 684.640625L526.75 694.640625L526.75 694.640625L526.75 702.040625 " stroke="#323232" stroke-width="2" fill="none" marker-end="url(#SvgjsMarker1170)"></path></g><g id="SvgjsG1172" transform="translate(290,637.265625)"><path id="SvgjsPath1173" d="M0 0L110.75 0L126.75 16L126.75 47.75L0 47.75L0 0Z " stroke="none" fill-opacity="1" fill="#fff9c4"></path><path id="SvgjsPath1174" d="M110.75 0L110.75 16L126.75 16Z " stroke="none" fill-opacity="1" fill="#cdcdcd"></path><path id="SvgjsPath1175" d="M0 0L110.75 0L126.75 16L126.75 47.75L0 47.75L0 0Z " stroke="none" fill="none"></path><g id="SvgjsG1176"><text id="SvgjsText1177" font-family="微软雅黑" text-anchor="start" font-size="13px" width="107px" fill="#000000" font-weight="400" align="middle" lineHeight="125%" font-style="" opacity="1" y="13.25" transform="rotate(0)"><tspan id="SvgjsTspan1178" dy="16" x="10"><tspan id="SvgjsTspan1179" style="text-decoration:;">_createElement()</tspan></tspan></text></g></g><g id="SvgjsG1180"><path id="SvgjsPath1181" d="M261.75 661.140625L275.375 661.140625L275.375 661.140625L287.4 661.140625 " stroke="#323232" stroke-width="2" fill="none" marker-end="url(#SvgjsMarker1182)"></path></g><g id="SvgjsG1184" transform="translate(37.75,774.140625)"><path id="SvgjsPath1185" d="M0 0L223 0L223 41L0 41Z " stroke="rgba(50,50,50,1)" stroke-width="2" fill-opacity="1" fill="#bbdefb"></path><g id="SvgjsG1186"><text id="SvgjsText1187" font-family="微软雅黑" text-anchor="middle" font-size="13px" width="203px" fill="#323232" font-weight="400" align="middle" lineHeight="125%" font-style="" opacity="1" y="9.875" transform="rotate(0)"><tspan id="SvgjsTspan1188" dy="16" x="111.5"><tspan id="SvgjsTspan1189" style="text-decoration:;">vm._update()</tspan></tspan></text></g></g><g id="SvgjsG1190"><path id="SvgjsPath1191" d="M149.25 682.640625L149.25 727.890625L149.25 727.890625L149.25 770.540625 " stroke="#323232" stroke-width="2" fill="none" marker-end="url(#SvgjsMarker1192)"></path></g><g id="SvgjsG1194" transform="translate(640.75,558.640625)"><path id="SvgjsPath1195" d="M0 0L230 0L246 16L246 194L0 194L0 0Z " stroke="none" fill-opacity="1" fill="#ffcdd2"></path><path id="SvgjsPath1196" d="M230 0L230 16L246 16Z " stroke="none" fill-opacity="1" fill="#cdcdcd"></path><path id="SvgjsPath1197" d="M0 0L230 0L246 16L246 194L0 194L0 0Z " stroke="none" fill="none"></path><g id="SvgjsG1198"><text id="SvgjsText1199" font-family="微软雅黑" text-anchor="start" font-size="13px" width="226px" fill="#323232" font-weight="400" align="middle" lineHeight="125%" font-style="" opacity="1" y="22.375" transform="rotate(0)"><tspan id="SvgjsTspan1200" dy="16" x="10"><tspan id="SvgjsTspan1201" style="text-decoration:;">createComponent():</tspan></tspan><tspan id="SvgjsTspan1202" dy="16" x="10"><tspan id="SvgjsTspan1203" style="text-decoration:;">1. 继承Vue函数，构建扩展后的</tspan></tspan><tspan id="SvgjsTspan1204" dy="16" x="10"><tspan id="SvgjsTspan1205" style="text-decoration:;">Constructor()方法</tspan></tspan><tspan id="SvgjsTspan1206" dy="16" x="10"><tspan id="SvgjsTspan1207" style="text-decoration:;">2. 合并4个钩</tspan></tspan><tspan id="SvgjsTspan1208" dy="16" x="10"><tspan id="SvgjsTspan1209" style="text-decoration:;">子(init、prepatch、insert、destroy)</tspan></tspan><tspan id="SvgjsTspan1210" dy="16" x="10"><tspan id="SvgjsTspan1211" style="text-decoration:;">到VNodeData.hook中，方便后续逻辑</tspan></tspan><tspan id="SvgjsTspan1212" dy="16" x="10"><tspan id="SvgjsTspan1213" style="text-decoration:;">调用</tspan></tspan><tspan id="SvgjsTspan1214" dy="16" x="10"><tspan id="SvgjsTspan1215" style="text-decoration:;">3.  传入上面构建的Ctor和VNodeData</tspan></tspan><tspan id="SvgjsTspan1216" dy="16" x="10"><tspan id="SvgjsTspan1217" style="text-decoration:;">作为参数，实例化VNode</tspan></tspan><tspan id="SvgjsTspan1218" dy="16" x="10"><tspan id="SvgjsTspan1219" style="text-decoration:;">4.  返回VNode</tspan></tspan></text></g></g><g id="SvgjsG1220"><path id="SvgjsPath1221" d="M600.25 659.140625L620 659.140625L620 655.640625L638.15 655.640625 " stroke="#323232" stroke-width="2" fill="none" marker-end="url(#SvgjsMarker1222)"></path></g><g id="SvgjsG1224" transform="translate(190.5,752.640625)"><path id="SvgjsPath1225" d="M99.5 0Q90.5 0 90.5 9L90.5 144.5Q90.5 153.5 77.5 153.5Q90.5 153.5 90.5 162.5L90.5 298Q90.5 307 99.5 307 " stroke="rgba(50,50,50,1)" stroke-width="2" fill="none"></path><path id="SvgjsPath1226" d="M0 0L99.5 0L99.5 307L0 307Z " stroke="none" fill="none"></path><g id="SvgjsG1227"><text id="SvgjsText1228" font-family="微软雅黑" text-anchor="end" font-size="13px" width="73px" fill="#323232" font-weight="400" align="middle" lineHeight="125%" font-style="" opacity="1" y="142.875" transform="rotate(0)"></text></g></g><g id="SvgjsG1229" transform="translate(295.375,772.140625)"><path id="SvgjsPath1230" d="M0 0L170.375 0L170.375 45L0 45Z " stroke="rgba(50,50,50,1)" stroke-width="2" fill-opacity="1" fill="#ffffff"></path><g id="SvgjsG1231"><text id="SvgjsText1232" font-family="微软雅黑" text-anchor="middle" font-size="13px" width="151px" fill="#323232" font-weight="400" align="middle" lineHeight="125%" font-style="" opacity="1" y="11.875" transform="rotate(0)"><tspan id="SvgjsTspan1233" dy="16" x="85.5"><tspan id="SvgjsTspan1234" style="text-decoration:;">oldVnode为空时</tspan></tspan></text></g></g><g id="SvgjsG1235" transform="translate(524.75,760.640625)"><path id="SvgjsPath1236" d="M0 0L260 0L276 16L276 68L0 68L0 0Z " stroke="none" fill-opacity="1" fill="#fff9c4"></path><path id="SvgjsPath1237" d="M260 0L260 16L276 16Z " stroke="none" fill-opacity="1" fill="#cdcdcd"></path><path id="SvgjsPath1238" d="M0 0L260 0L276 16L276 68L0 68L0 0Z " stroke="none" fill="none"></path><g id="SvgjsG1239"><text id="SvgjsText1240" font-family="微软雅黑" text-anchor="start" font-size="13px" width="256px" fill="#000000" font-weight="400" align="middle" lineHeight="125%" font-style="" opacity="1" y="15.375" transform="rotate(0)"><tspan id="SvgjsTspan1241" dy="16" x="10"><tspan id="SvgjsTspan1242" style="text-decoration:;">isInitialPatch = true</tspan></tspan><tspan id="SvgjsTspan1243" dy="16" x="10"><tspan id="SvgjsTspan1244" style="text-decoration:;">createElm(vnode, insertedVnodeQueue)</tspan></tspan></text></g></g><g id="SvgjsG1245"><path id="SvgjsPath1246" d="M466.75 794.640625L495.25 794.640625L495.25 794.640625L522.15 794.640625 " stroke="#323232" stroke-width="2" fill="none" marker-end="url(#SvgjsMarker1247)"></path></g><g id="SvgjsG1249" transform="translate(292.875,859.640625)"><path id="SvgjsPath1250" d="M0 0L175.375 0L175.375 70L0 70Z " stroke="rgba(50,50,50,1)" stroke-width="2" fill-opacity="1" fill="#ffffff"></path><g id="SvgjsG1251"><text id="SvgjsText1252" font-family="微软雅黑" text-anchor="middle" font-size="13px" width="156px" fill="#323232" font-weight="400" align="middle" lineHeight="125%" font-style="" opacity="1" y="0.375" transform="rotate(0)"><tspan id="SvgjsTspan1253" dy="16" x="88"><tspan id="SvgjsTspan1254" style="text-decoration:;">oldVnode不为空，并</tspan></tspan><tspan id="SvgjsTspan1255" dy="16" x="88"><tspan id="SvgjsTspan1256" style="text-decoration:;">且oldVnode跟vnode的类</tspan></tspan><tspan id="SvgjsTspan1257" dy="16" x="88"><tspan id="SvgjsTspan1258" style="text-decoration:;">型相同，可认为是一个节点</tspan></tspan><tspan id="SvgjsTspan1259" dy="16" x="88"><tspan id="SvgjsTspan1260" style="text-decoration:;">内部发生了变化</tspan></tspan></text></g></g><g id="SvgjsG1261" transform="translate(524.75,866.140625)"><path id="SvgjsPath1262" d="M0 0L183 0L199 16L199 57L0 57L0 0Z " stroke="none" fill-opacity="1" fill="#fff9c4"></path><path id="SvgjsPath1263" d="M183 0L183 16L199 16Z " stroke="none" fill-opacity="1" fill="#cdcdcd"></path><path id="SvgjsPath1264" d="M0 0L183 0L199 16L199 57L0 57L0 0Z " stroke="none" fill="none"></path><g id="SvgjsG1265"><text id="SvgjsText1266" font-family="微软雅黑" text-anchor="start" font-size="13px" width="179px" fill="#000000" font-weight="400" align="middle" lineHeight="125%" font-style="" opacity="1" y="1.875" transform="rotate(0)"><tspan id="SvgjsTspan1267" dy="16" x="10"><tspan id="SvgjsTspan1268" style="text-decoration:;">patchVnode(oldVnode, </tspan></tspan><tspan id="SvgjsTspan1269" dy="16" x="10"><tspan id="SvgjsTspan1270" style="text-decoration:;">vnode, insertedVnodeQueue, </tspan></tspan><tspan id="SvgjsTspan1271" dy="16" x="10"><tspan id="SvgjsTspan1272" style="text-decoration:;">null, null, removeOnly)</tspan></tspan></text></g></g><g id="SvgjsG1273"><path id="SvgjsPath1274" d="M469.25 894.640625L496.5 894.640625L496.5 894.640625L522.15 894.640625 " stroke="#323232" stroke-width="2" fill="none" marker-end="url(#SvgjsMarker1275)"></path></g><g id="SvgjsG1277" transform="translate(292.875,968.640625)"><path id="SvgjsPath1278" d="M0 0L175.375 0L175.375 70L0 70Z " stroke="rgba(50,50,50,1)" stroke-width="2" fill-opacity="1" fill="#ffffff"></path><g id="SvgjsG1279"><text id="SvgjsText1280" font-family="微软雅黑" text-anchor="middle" font-size="13px" width="156px" fill="#323232" font-weight="400" align="middle" lineHeight="125%" font-style="" opacity="1" y="8.375" transform="rotate(0)"><tspan id="SvgjsTspan1281" dy="16" x="88"><tspan id="SvgjsTspan1282" style="text-decoration:;">oldVnode不为空，并</tspan></tspan><tspan id="SvgjsTspan1283" dy="16" x="88"><tspan id="SvgjsTspan1284" style="text-decoration:;">且oldVnode跟vnode的类</tspan></tspan><tspan id="SvgjsTspan1285" dy="16" x="88"><tspan id="SvgjsTspan1286" style="text-decoration:;">型不相同</tspan></tspan></text></g></g><g id="SvgjsG1287" transform="translate(524.75,959.140625)"><path id="SvgjsPath1288" d="M0 0L280 0L296 16L296 89L0 89L0 0Z " stroke="none" fill-opacity="1" fill="#fff9c4"></path><path id="SvgjsPath1289" d="M280 0L280 16L296 16Z " stroke="none" fill-opacity="1" fill="#cdcdcd"></path><path id="SvgjsPath1290" d="M0 0L280 0L296 16L296 89L0 89L0 0Z " stroke="none" fill="none"></path><g id="SvgjsG1291"><text id="SvgjsText1292" font-family="微软雅黑" text-anchor="start" font-size="13px" width="276px" fill="#000000" font-weight="400" align="middle" lineHeight="125%" font-style="" opacity="1" y="9.875" transform="rotate(0)"><tspan id="SvgjsTspan1293" dy="16" x="10"><tspan id="SvgjsTspan1294" style="text-decoration:;">1. 获取elm和parentElm</tspan></tspan><tspan id="SvgjsTspan1295" dy="16" x="10"><tspan id="SvgjsTspan1296" style="text-decoration:;">2. createElm()创建new VNode，并插入到真实</tspan></tspan><tspan id="SvgjsTspan1297" dy="16" x="10"><tspan id="SvgjsTspan1298" style="text-decoration:;">DOM，就在旧的vNode旁边</tspan></tspan><tspan id="SvgjsTspan1299" dy="16" x="10"><tspan id="SvgjsTspan1300" style="text-decoration:;">3. 移除旧的vNode</tspan></tspan></text></g></g><g id="SvgjsG1301"><path id="SvgjsPath1302" d="M469.25 1003.640625L496.5 1003.640625L496.5 1003.640625L522.15 1003.640625 " stroke="#323232" stroke-width="2" fill="none" marker-end="url(#SvgjsMarker1303)"></path></g><g id="SvgjsG1305" transform="translate(853.75,763.890625)"><path id="SvgjsPath1306" d="M0 0L295 0L311 16L311 261.5L0 261.5L0 0Z " stroke="none" fill-opacity="1" fill="#c8e6c9"></path><path id="SvgjsPath1307" d="M295 0L295 16L311 16Z " stroke="none" fill-opacity="1" fill="#cdcdcd"></path><path id="SvgjsPath1308" d="M0 0L295 0L311 16L311 261.5L0 261.5L0 0Z " stroke="none" fill="none"></path><g id="SvgjsG1309"><text id="SvgjsText1310" font-family="微软雅黑" text-anchor="start" font-size="13px" width="291px" fill="#000000" font-weight="400" align="middle" lineHeight="125%" font-style="" opacity="1" y="16.125" transform="rotate(0)"><tspan id="SvgjsTspan1311" dy="16" x="10"><tspan id="SvgjsTspan1312" style="text-decoration:;">1. 因为oldVNode和newVNode是同一个节点</tspan></tspan><tspan id="SvgjsTspan1313" dy="16" x="10"><tspan id="SvgjsTspan1314" style="text-decoration:;">(sameVnode=true)，尝试将oldVNode转化为新</tspan></tspan><tspan id="SvgjsTspan1315" dy="16" x="10"><tspan id="SvgjsTspan1316" style="text-decoration:;">VNode，包括props、listeners、slot等更新</tspan></tspan><tspan id="SvgjsTspan1317" dy="16" x="10"><tspan id="SvgjsTspan1318" style="text-decoration:;">2. 执行update的钩子函数</tspan></tspan><tspan id="SvgjsTspan1319" dy="16" x="10"><tspan id="SvgjsTspan1320" style="text-decoration:;">3. 根据它们各自的children进行分组处理</tspan></tspan><tspan id="SvgjsTspan1321" dy="16" x="10"><tspan id="SvgjsTspan1322" style="text-decoration:;">(1) oldVNodeChildren!==newVNodeChildren，进</tspan></tspan><tspan id="SvgjsTspan1323" dy="16" x="10"><tspan id="SvgjsTspan1324" style="text-decoration:;">行diff算法比对更新: updateChildren()</tspan></tspan><tspan id="SvgjsTspan1325" dy="16" x="10"><tspan id="SvgjsTspan1326" style="text-decoration:;">(2) oldVNodeChildren为空，newVNodeChildren</tspan></tspan><tspan id="SvgjsTspan1327" dy="16" x="10"><tspan id="SvgjsTspan1328" style="text-decoration:;">不为空，执行newVNodeChildren新建插入操作</tspan></tspan><tspan id="SvgjsTspan1329" dy="16" x="10"><tspan id="SvgjsTspan1330" style="text-decoration:;">(3) oldVNodeChildren不为</tspan></tspan><tspan id="SvgjsTspan1331" dy="16" x="10"><tspan id="SvgjsTspan1332" style="text-decoration:;">空，newVNodeChildren为空，执</tspan></tspan><tspan id="SvgjsTspan1333" dy="16" x="10"><tspan id="SvgjsTspan1334" style="text-decoration:;">行oldVNodeChildren删除操作</tspan></tspan><tspan id="SvgjsTspan1335" dy="16" x="10"><tspan id="SvgjsTspan1336" style="text-decoration:;">(4) 如果是文本节点，则更新文本内容</tspan></tspan><tspan id="SvgjsTspan1337" dy="16" x="10"><tspan id="SvgjsTspan1338" style="text-decoration:;">4. 执行postpatch的钩子函数</tspan></tspan></text></g></g><g id="SvgjsG1339"><path id="SvgjsPath1340" d="M723.75 894.640625L788.75 894.640625L788.75 894.640625L851.15 894.640625 " stroke="#323232" stroke-width="2" fill="none" marker-end="url(#SvgjsMarker1341)"></path><rect id="SvgjsRect1343" width="80" height="18" x="747.45" y="885.640625" fill="#ffffff"></rect><text id="SvgjsText1344" font-family="微软雅黑" text-anchor="middle" font-size="14px" width="80px" fill="#ff0000" font-weight="700" align="top" lineHeight="18px" font-style="" opacity="1" y="882.890625" transform="rotate(0)"><tspan id="SvgjsTspan1345" dy="17" x="787.45"><tspan id="SvgjsTspan1346" style="text-decoration:;">patchVnode</tspan></tspan></text></g><g id="SvgjsG1347" transform="translate(902.75,593.390625)"><path id="SvgjsPath1348" d="M0 0L197 0L213 16L213 131.5L0 131.5L0 0Z " stroke="none" fill-opacity="1" fill="#c8e6c9"></path><path id="SvgjsPath1349" d="M197 0L197 16L213 16Z " stroke="none" fill-opacity="1" fill="#cdcdcd"></path><path id="SvgjsPath1350" d="M0 0L197 0L213 16L213 131.5L0 131.5L0 0Z " stroke="none" fill="none"></path><g id="SvgjsG1351"><text id="SvgjsText1352" font-family="微软雅黑" text-anchor="start" font-size="13px" width="193px" fill="#323232" font-weight="400" align="middle" lineHeight="125%" font-style="" opacity="1" y="7.125" transform="rotate(0)"><tspan id="SvgjsTspan1353" dy="16" x="10"><tspan id="SvgjsTspan1354" style="text-decoration:;">updateChildren(): 比较两</tspan></tspan><tspan id="SvgjsTspan1355" dy="16" x="10"><tspan id="SvgjsTspan1356" style="text-decoration:;">个VNode的children，只比较最表</tspan></tspan><tspan id="SvgjsTspan1357" dy="16" x="10"><tspan id="SvgjsTspan1358" style="text-decoration:;">面的一级，然后调用patchVnode</tspan></tspan><tspan id="SvgjsTspan1359" dy="16" x="10"><tspan id="SvgjsTspan1360" style="text-decoration:;">进行两个children Item的更新</tspan></tspan><tspan id="SvgjsTspan1361" dy="16" x="10"><tspan id="SvgjsTspan1362" style="text-decoration:;">注：patchVnode会在更新两</tspan></tspan><tspan id="SvgjsTspan1363" dy="16" x="10"><tspan id="SvgjsTspan1364" style="text-decoration:;">个children Item的同时，再去处</tspan></tspan><tspan id="SvgjsTspan1365" dy="16" x="10"><tspan id="SvgjsTspan1366" style="text-decoration:;">理它们的children</tspan></tspan></text></g></g><g id="SvgjsG1367"><path id="SvgjsPath1368" d="M1009.25 763.890625L1009.25 744.390625L1009.25 744.390625L1009.25 727.490625 " stroke="#323232" stroke-width="2" fill="none" marker-end="url(#SvgjsMarker1369)"></path></g><g id="SvgjsG1371" transform="translate(777.75,390.640625)"><path id="SvgjsPath1372" d="M0 0L345 0L361 16L361 150L0 150L0 0Z " stroke="none" fill-opacity="1" fill="#ffe0b2"></path><path id="SvgjsPath1373" d="M345 0L345 16L361 16Z " stroke="none" fill-opacity="1" fill="#cdcdcd"></path><path id="SvgjsPath1374" d="M0 0L345 0L361 16L361 150L0 150L0 0Z " stroke="none" fill="none"></path><g id="SvgjsG1375"><text id="SvgjsText1376" font-family="微软雅黑" text-anchor="start" font-size="13px" width="341px" fill="#323232" font-weight="400" align="top" lineHeight="125%" font-style="" opacity="1" y="7.375" transform="rotate(0)"><tspan id="SvgjsTspan1377" dy="16" x="10"><tspan id="SvgjsTspan1378" style="text-decoration:;">updateChildren()执行原理总结：</tspan></tspan><tspan id="SvgjsTspan1379" dy="16" x="10"><tspan id="SvgjsTspan1380" style="text-decoration:;">1. 四端(oldStartIdx, oldEndIdx, newStartIdx, newEndIdx)</tspan></tspan><tspan id="SvgjsTspan1381" dy="16" x="10"><tspan id="SvgjsTspan1382" style="text-decoration:;">优先比较，然后其它index比较，尽可能找到可以复用的元</tspan></tspan><tspan id="SvgjsTspan1383" dy="16" x="10"><tspan id="SvgjsTspan1384" style="text-decoration:;">素（sameVNode=true）</tspan></tspan><tspan id="SvgjsTspan1385" dy="16" x="10"><tspan id="SvgjsTspan1386" style="text-decoration:;">2. 对于一个newVNode，如果找不到可复用的，就代表这个</tspan></tspan><tspan id="SvgjsTspan1387" dy="16" x="10"><tspan id="SvgjsTspan1388" style="text-decoration:;">是新增元素，执行createElm()</tspan></tspan><tspan id="SvgjsTspan1389" dy="16" x="10"><tspan id="SvgjsTspan1390" style="text-decoration:;">3. 对于一个oldVNode，如果没有对应的newVNode，代表</tspan></tspan><tspan id="SvgjsTspan1391" dy="16" x="10"><tspan id="SvgjsTspan1392" style="text-decoration:;">是废弃元素，执行removeVnodes()</tspan></tspan></text></g></g><g id="SvgjsG1393"><path id="SvgjsPath1394" d="M1009.25 593.390625L1009.25 567.015625L958.25 567.015625L958.25 543.240625 " stroke="#323232" stroke-width="2" fill="none" marker-end="url(#SvgjsMarker1395)"></path></g><g id="SvgjsG1397" transform="translate(40.75,874.640625)"><path id="SvgjsPath1398" d="M0 0L201 0L217 16L217 61L0 61L0 0Z " stroke="none" fill-opacity="1" fill="#bbdefb"></path><path id="SvgjsPath1399" d="M201 0L201 16L217 16Z " stroke="none" fill-opacity="1" fill="#cdcdcd"></path><path id="SvgjsPath1400" d="M0 0L201 0L217 16L217 61L0 61L0 0Z " stroke="none" fill="none"></path><g id="SvgjsG1401"><text id="SvgjsText1402" font-family="微软雅黑" text-anchor="middle" font-size="13px" width="197px" fill="#323232" font-weight="400" align="middle" lineHeight="125%" font-style="" opacity="1" y="11.875" transform="rotate(0)"><tspan id="SvgjsTspan1403" dy="16" x="108.5"><tspan id="SvgjsTspan1404" style="text-decoration:;">实际上就是调用vm.__patch_，也</tspan></tspan><tspan id="SvgjsTspan1405" dy="16" x="108.5"><tspan id="SvgjsTspan1406" style="text-decoration:;">就是patch()方法</tspan></tspan></text></g></g><g id="SvgjsG1407"><path id="SvgjsPath1408" d="M149.25 816.140625L149.25 844.890625L149.25 844.890625L149.25 872.040625 " stroke="#323232" stroke-width="2" fill="none" marker-end="url(#SvgjsMarker1409)"></path></g><g id="SvgjsG1411" transform="matrix(0.7660444431189778,-0.6427876096865396,0.6427876096865396,0.7660444431189778,517.4613340618646,571.5693013374498)"><path id="SvgjsPath1412" d="M0 0L264.8742416619975 0L264.8742416619975 173.53497626088094L0 173.53497626088094Z " stroke="none" fill="none"></path><g id="SvgjsG1413"><text id="SvgjsText1414" font-family="微软雅黑" text-anchor="middle" font-size="13px" width="265px" fill="#9e9e9e" font-weight="400" align="middle" lineHeight="125%" font-style="" opacity="0.05" y="76.14248813044047" transform="rotate(0)"><tspan id="SvgjsTspan1415" dy="16" x="132.5"><tspan id="SvgjsTspan1416" style="text-decoration:;">https://github.com/wbccb</tspan></tspan></text></g></g><g id="SvgjsG1417" transform="translate(591.75,750.2126380334207)"><path id="SvgjsPath1418" d="M0 0L245.97879782154553 0L245.97879782154553 197.35597393315868L0 197.35597393315868Z " stroke="none" fill="none"></path><g id="SvgjsG1419"><text id="SvgjsText1420" font-family="微软雅黑" text-anchor="middle" font-size="13px" width="246px" fill="#000000" font-weight="400" align="middle" lineHeight="125%" font-style="" opacity="0.05" y="88.05298696657934" transform="rotate(0)"><tspan id="SvgjsTspan1421" dy="16" x="123"><tspan id="SvgjsTspan1422" style="text-decoration:;">https://github.com/wbccb</tspan></tspan></text></g></g><g id="SvgjsG1423" transform="translate(800.75,25.004588064474774)"><path id="SvgjsPath1424" d="M0 0L292.17871769635974 0L292.17871769635974 279.2007502085003L0 279.2007502085003Z " stroke="none" fill="none"></path><g id="SvgjsG1425"><text id="SvgjsText1426" font-family="微软雅黑" text-anchor="middle" font-size="13px" width="293px" fill="#000000" font-weight="400" align="middle" lineHeight="125%" font-style="" opacity="0.35" y="128.97537510425016" transform="rotate(0)"><tspan id="SvgjsTspan1427" dy="16" x="146.5"><tspan id="SvgjsTspan1428" style="text-decoration:;">https://github.com/wbccb</tspan></tspan></text></g></g><g id="SvgjsG1429" transform="translate(199.25,593.390625)"><path id="SvgjsPath1430" d="M0 0L188.85021088701663 0L188.85021088701663 242.1033152493079L0 242.1033152493079Z " stroke="none" fill="none"></path><g id="SvgjsG1431"><text id="SvgjsText1432" font-family="微软雅黑" text-anchor="middle" font-size="13px" width="189px" fill="#000000" font-weight="400" align="middle" lineHeight="125%" font-style="" opacity="0.15" y="110.42665762465396" transform="rotate(0)"><tspan id="SvgjsTspan1433" dy="16" x="94.5"><tspan id="SvgjsTspan1434" style="text-decoration:;">https://github.com/wbccb</tspan></tspan></text></g></g></svg>