<svg id="SvgjsSvg1000" xmlns="http://www.w3.org/2000/svg" version="1.1" xmlns:xlink="http://www.w3.org/1999/xlink" xmlns:svgjs="http://svgjs.com/svgjs" width="1027.125" height="1553.25"><defs id="SvgjsDefs1001"><marker id="SvgjsMarker1058" markerWidth="14" markerHeight="10" refX="10" refY="5" viewBox="0 0 14 10" orient="auto" markerUnits="userSpaceOnUse" stroke-dasharray="0,0"><path id="SvgjsPath1059" d="M0 0L14 5L0 10L0 0 " fill="#323232" stroke="#323232" stroke-width="1"></path></marker><marker id="SvgjsMarker1092" markerWidth="14" markerHeight="10" refX="10" refY="5" viewBox="0 0 14 10" orient="auto" markerUnits="userSpaceOnUse" stroke-dasharray="0,0"><path id="SvgjsPath1093" d="M0 0L14 5L0 10L0 0 " fill="#323232" stroke="#323232" stroke-width="1"></path></marker><marker id="SvgjsMarker1096" markerWidth="14" markerHeight="10" refX="10" refY="5" viewBox="0 0 14 10" orient="auto" markerUnits="userSpaceOnUse" stroke-dasharray="0,0"><path id="SvgjsPath1097" d="M0 0L14 5L0 10L0 0 " fill="#323232" stroke="#323232" stroke-width="1"></path></marker><marker id="SvgjsMarker1100" markerWidth="14" markerHeight="10" refX="10" refY="5" viewBox="0 0 14 10" orient="auto" markerUnits="userSpaceOnUse" stroke-dasharray="0,0"><path id="SvgjsPath1101" d="M0 0L14 5L0 10L0 0 " fill="#323232" stroke="#323232" stroke-width="1"></path></marker><marker id="SvgjsMarker1114" markerWidth="14" markerHeight="10" refX="10" refY="5" viewBox="0 0 14 10" orient="auto" markerUnits="userSpaceOnUse" stroke-dasharray="0,0"><path id="SvgjsPath1115" d="M0 0L14 5L0 10L0 0 " fill="#323232" stroke="#323232" stroke-width="1"></path></marker><marker id="SvgjsMarker1134" markerWidth="14" markerHeight="10" refX="10" refY="5" viewBox="0 0 14 10" orient="auto" markerUnits="userSpaceOnUse" stroke-dasharray="0,0"><path id="SvgjsPath1135" d="M0 0L14 5L0 10L0 0 " fill="#323232" stroke="#323232" stroke-width="1"></path></marker><marker id="SvgjsMarker1154" markerWidth="14" markerHeight="10" refX="10" refY="5" viewBox="0 0 14 10" orient="auto" markerUnits="userSpaceOnUse" stroke-dasharray="0,0"><path id="SvgjsPath1155" d="M0 0L14 5L0 10L0 0 " fill="#323232" stroke="#323232" stroke-width="1"></path></marker><marker id="SvgjsMarker1176" markerWidth="14" markerHeight="10" refX="10" refY="5" viewBox="0 0 14 10" orient="auto" markerUnits="userSpaceOnUse" stroke-dasharray="0,0"><path id="SvgjsPath1177" d="M0 0L14 5L0 10L0 0 " fill="#323232" stroke="#323232" stroke-width="1"></path></marker><marker id="SvgjsMarker1196" markerWidth="14" markerHeight="10" refX="10" refY="5" viewBox="0 0 14 10" orient="auto" markerUnits="userSpaceOnUse" stroke-dasharray="0,0"><path id="SvgjsPath1197" d="M0 0L14 5L0 10L0 0 " fill="#323232" stroke="#323232" stroke-width="1"></path></marker><marker id="SvgjsMarker1200" markerWidth="14" markerHeight="10" refX="10" refY="5" viewBox="0 0 14 10" orient="auto" markerUnits="userSpaceOnUse" stroke-dasharray="0,0"><path id="SvgjsPath1201" d="M0 0L14 5L0 10L0 0 " fill="#323232" stroke="#323232" stroke-width="1"></path></marker><marker id="SvgjsMarker1230" markerWidth="14" markerHeight="10" refX="10" refY="5" viewBox="0 0 14 10" orient="auto" markerUnits="userSpaceOnUse" stroke-dasharray="0,0"><path id="SvgjsPath1231" d="M0 0L14 5L0 10L0 0 " fill="#323232" stroke="#323232" stroke-width="1"></path></marker><marker id="SvgjsMarker1242" markerWidth="14" markerHeight="10" refX="10" refY="5" viewBox="0 0 14 10" orient="auto" markerUnits="userSpaceOnUse" stroke-dasharray="0,0"><path id="SvgjsPath1243" d="M0 0L14 5L0 10L0 0 " fill="#323232" stroke="#323232" stroke-width="1"></path></marker><marker id="SvgjsMarker1246" markerWidth="14" markerHeight="10" refX="10" refY="5" viewBox="0 0 14 10" orient="auto" markerUnits="userSpaceOnUse" stroke-dasharray="0,0"><path id="SvgjsPath1247" d="M0 0L14 5L0 10L0 0 " fill="#323232" stroke="#323232" stroke-width="1"></path></marker><marker id="SvgjsMarker1256" markerWidth="14" markerHeight="10" refX="10" refY="5" viewBox="0 0 14 10" orient="auto" markerUnits="userSpaceOnUse" stroke-dasharray="0,0"><path id="SvgjsPath1257" d="M0 0L14 5L0 10L0 0 " fill="#323232" stroke="#323232" stroke-width="1"></path></marker><marker id="SvgjsMarker1295" markerWidth="14" markerHeight="10" refX="10" refY="5" viewBox="0 0 14 10" orient="auto" markerUnits="userSpaceOnUse" stroke-dasharray="0,0"><path id="SvgjsPath1296" d="M0 0L14 5L0 10L0 0 " fill="#323232" stroke="#323232" stroke-width="1"></path></marker><marker id="SvgjsMarker1303" markerWidth="14" markerHeight="10" refX="10" refY="5" viewBox="0 0 14 10" orient="auto" markerUnits="userSpaceOnUse" stroke-dasharray="0,0"><path id="SvgjsPath1304" d="M0 0L14 5L0 10L0 0 " fill="#323232" stroke="#323232" stroke-width="1"></path></marker><marker id="SvgjsMarker1307" markerWidth="14" markerHeight="10" refX="10" refY="5" viewBox="0 0 14 10" orient="auto" markerUnits="userSpaceOnUse" stroke-dasharray="0,0"><path id="SvgjsPath1308" d="M0 0L14 5L0 10L0 0 " fill="#323232" stroke="#323232" stroke-width="1"></path></marker><marker id="SvgjsMarker1325" markerWidth="14" markerHeight="10" refX="10" refY="5" viewBox="0 0 14 10" orient="auto" markerUnits="userSpaceOnUse" stroke-dasharray="0,0"><path id="SvgjsPath1326" d="M0 0L14 5L0 10L0 0 " fill="#323232" stroke="#323232" stroke-width="1"></path></marker><marker id="SvgjsMarker1341" markerWidth="14" markerHeight="10" refX="10" refY="5" viewBox="0 0 14 10" orient="auto" markerUnits="userSpaceOnUse" stroke-dasharray="0,0"><path id="SvgjsPath1342" d="M0 0L14 5L0 10L0 0 " fill="#323232" stroke="#323232" stroke-width="1"></path></marker><marker id="SvgjsMarker1371" markerWidth="14" markerHeight="10" refX="10" refY="5" viewBox="0 0 14 10" orient="auto" markerUnits="userSpaceOnUse" stroke-dasharray="0,0"><path id="SvgjsPath1372" d="M0 0L14 5L0 10L0 0 " fill="#323232" stroke="#323232" stroke-width="1"></path></marker><marker id="SvgjsMarker1375" markerWidth="14" markerHeight="10" refX="10" refY="5" viewBox="0 0 14 10" orient="auto" markerUnits="userSpaceOnUse" stroke-dasharray="0,0"><path id="SvgjsPath1376" d="M0 0L14 5L0 10L0 0 " fill="#323232" stroke="#323232" stroke-width="1"></path></marker><marker id="SvgjsMarker1379" markerWidth="14" markerHeight="10" refX="10" refY="5" viewBox="0 0 14 10" orient="auto" markerUnits="userSpaceOnUse" stroke-dasharray="0,0"><path id="SvgjsPath1380" d="M0 0L14 5L0 10L0 0 " fill="#323232" stroke="#323232" stroke-width="1"></path></marker><marker id="SvgjsMarker1427" markerWidth="14" markerHeight="10" refX="10" refY="5" viewBox="0 0 14 10" orient="auto" markerUnits="userSpaceOnUse" stroke-dasharray="0,0"><path id="SvgjsPath1428" d="M0 0L14 5L0 10L0 0 " fill="#323232" stroke="#323232" stroke-width="1"></path></marker><marker id="SvgjsMarker1449" markerWidth="14" markerHeight="10" refX="10" refY="5" viewBox="0 0 14 10" orient="auto" markerUnits="userSpaceOnUse" stroke-dasharray="0,0"><path id="SvgjsPath1450" d="M0 0L14 5L0 10L0 0 " fill="#323232" stroke="#323232" stroke-width="1"></path></marker><marker id="SvgjsMarker1453" markerWidth="14" markerHeight="10" refX="10" refY="5" viewBox="0 0 14 10" orient="auto" markerUnits="userSpaceOnUse" stroke-dasharray="0,0"><path id="SvgjsPath1454" d="M0 0L14 5L0 10L0 0 " fill="#323232" stroke="#323232" stroke-width="1"></path></marker><marker id="SvgjsMarker1457" markerWidth="14" markerHeight="10" refX="10" refY="5" viewBox="0 0 14 10" orient="auto" markerUnits="userSpaceOnUse" stroke-dasharray="0,0"><path id="SvgjsPath1458" d="M0 0L14 5L0 10L0 0 " fill="#323232" stroke="#323232" stroke-width="1"></path></marker></defs><g id="SvgjsG1007" transform="translate(233,921)"><path id="SvgjsPath1008" d="M0 0L707 0L707 225L0 225Z " stroke="rgba(50,50,50,1)" stroke-width="2" fill-opacity="1" fill="#ffffff"></path><g id="SvgjsG1009"><text id="SvgjsText1010" font-family="微软雅黑" text-anchor="start" font-size="20px" width="687px" fill="#ff0000" font-weight="400" align="top" lineHeight="125%" font-style="" opacity="1" y="-5.5" transform="rotate(0)"><tspan id="SvgjsTspan1011" dy="25" x="10"><tspan id="SvgjsTspan1012" style="text-decoration:;">buildMode</tspan></tspan></text></g></g><g id="SvgjsG1013" transform="translate(245.75,695.25)"><path id="SvgjsPath1014" d="M0 0L614.5 0L614.5 214L0 214Z " stroke="rgba(50,50,50,1)" stroke-width="2" fill-opacity="1" fill="#ffffff"></path><g id="SvgjsG1015"><text id="SvgjsText1016" font-family="微软雅黑" text-anchor="end" font-size="20px" width="595px" fill="#ff0000" font-weight="400" align="bottom" lineHeight="125%" font-style="" opacity="1" y="183.5" transform="rotate(0)"><tspan id="SvgjsTspan1017" dy="25" x="605"><tspan id="SvgjsTspan1018" style="text-decoration:;">createModule</tspan></tspan></text></g></g><g id="SvgjsG1019" transform="translate(247,146.25)"><path id="SvgjsPath1020" d="M0 0L612 0L612 537.25L0 537.25Z " stroke="rgba(50,50,50,1)" stroke-width="2" fill-opacity="1" fill="#ffffff"></path><g id="SvgjsG1021"><text id="SvgjsText1022" font-family="微软雅黑" text-anchor="end" font-size="20px" width="592px" fill="#ff0000" font-weight="400" align="top" lineHeight="125%" font-style="" opacity="1" y="-5.5" transform="rotate(0)"><tspan id="SvgjsTspan1023" dy="25" x="602"><tspan id="SvgjsTspan1024" style="text-decoration:;">factorizeModule</tspan></tspan></text></g></g><g id="SvgjsG1025" transform="translate(25,354.25)"><path id="SvgjsPath1026" d="M0 0L182 0L182 41L0 41Z " stroke="rgba(50,50,50,1)" stroke-width="2" fill-opacity="1" fill="#ffffff"></path><g id="SvgjsG1027"><text id="SvgjsText1028" font-family="微软雅黑" text-anchor="middle" font-size="13px" width="162px" fill="#323232" font-weight="400" align="middle" lineHeight="125%" font-style="" opacity="1" y="1.875" transform="rotate(0)"><tspan id="SvgjsTspan1029" dy="16" x="91"><tspan id="SvgjsTspan1030" style="text-decoration:;">factorizeModule()</tspan></tspan><tspan id="SvgjsTspan1031" dy="16" x="91"><tspan id="SvgjsTspan1032" style="text-decoration:;">_factorizeModule()</tspan></tspan></text></g></g><g id="SvgjsG1033" transform="translate(27,509.75)"><path id="SvgjsPath1034" d="M0 0L178 0L178 38.5L0 38.5Z " stroke="rgba(50,50,50,1)" stroke-width="2" fill-opacity="1" fill="#ffffff"></path><g id="SvgjsG1035"><text id="SvgjsText1036" font-family="微软雅黑" text-anchor="middle" font-size="13px" width="158px" fill="#323232" font-weight="400" align="middle" lineHeight="125%" font-style="" opacity="1" y="0.625" transform="rotate(0)"><tspan id="SvgjsTspan1037" dy="16" x="89"><tspan id="SvgjsTspan1038" style="text-decoration:;">NormalModuleFactory.cre</tspan></tspan><tspan id="SvgjsTspan1039" dy="16" x="89"><tspan id="SvgjsTspan1040" style="text-decoration:;">ate()</tspan></tspan></text></g></g><g id="SvgjsG1041" transform="translate(263,164.5)"><path id="SvgjsPath1042" d="M0 0L213 0L213 64L0 64Z " stroke="rgba(50,50,50,1)" stroke-width="2" fill-opacity="1" fill="#ffffff"></path><g id="SvgjsG1043"><text id="SvgjsText1044" font-family="微软雅黑" text-anchor="middle" font-size="13px" width="193px" fill="#323232" font-weight="400" align="middle" lineHeight="125%" font-style="" opacity="1" y="5.375" transform="rotate(0)"><tspan id="SvgjsTspan1045" dy="16" x="106.5"><tspan id="SvgjsTspan1046" style="text-decoration:;">this.hooks.factorize.tapAsync()</tspan></tspan><tspan id="SvgjsTspan1047" dy="16" x="106.5"><tspan id="SvgjsTspan1048" style="text-decoration:;">this.hooks.resolve.tapAsync()</tspan></tspan><tspan id="SvgjsTspan1049" dy="16" x="106.5"><tspan id="SvgjsTspan1050" style="text-decoration:;">defaultResolve()</tspan></tspan></text></g></g><g id="SvgjsG1051" transform="translate(154,146.25)"><path id="SvgjsPath1052" d="M86 0Q77.4 0 77.4 9L77.4 369.5Q77.4 378.5 64 378.5Q77.4 378.5 77.4 387.5L77.4 748Q77.4 757 86 757 " stroke="rgba(50,50,50,1)" stroke-width="2" fill="none"></path><path id="SvgjsPath1053" d="M0 0L86 0L86 757L0 757Z " stroke="none" fill="none"></path><g id="SvgjsG1054"><text id="SvgjsText1055" font-family="微软雅黑" text-anchor="end" font-size="13px" width="59px" fill="#323232" font-weight="400" align="middle" lineHeight="125%" font-style="" opacity="1" y="367.875" transform="rotate(0)"></text></g></g><g id="SvgjsG1056"><path id="SvgjsPath1057" d="M116 396.25L116 452.5L116 452.5L116 506.15 " stroke="#323232" stroke-width="2" fill="none" marker-end="url(#SvgjsMarker1058)"></path></g><g id="SvgjsG1060" transform="translate(269.5,300.375)"><path id="SvgjsPath1061" d="M0 0L200 0L200 37L0 37Z " stroke="rgba(50,50,50,1)" stroke-width="2" fill-opacity="1" fill="#ffffff"></path><g id="SvgjsG1062"><text id="SvgjsText1063" font-family="微软雅黑" text-anchor="middle" font-size="13px" width="180px" fill="#323232" font-weight="400" align="middle" lineHeight="125%" font-style="" opacity="1" y="7.875" transform="rotate(0)"><tspan id="SvgjsTspan1064" dy="16" x="100"><tspan id="SvgjsTspan1065" style="text-decoration:;">resolveResource()</tspan></tspan></text></g></g><g id="SvgjsG1066" transform="translate(269.5,383.125)"><path id="SvgjsPath1067" d="M0 0L200 0L200 37L0 37Z " stroke="rgba(50,50,50,1)" stroke-width="2" fill-opacity="1" fill="#ffffff"></path><g id="SvgjsG1068"><text id="SvgjsText1069" font-family="微软雅黑" text-anchor="middle" font-size="13px" width="180px" fill="#323232" font-weight="400" align="middle" lineHeight="125%" font-style="" opacity="1" y="7.875" transform="rotate(0)"><tspan id="SvgjsTspan1070" dy="16" x="100"><tspan id="SvgjsTspan1071" style="text-decoration:;">continueCallback()</tspan></tspan></text></g></g><g id="SvgjsG1072" transform="translate(269.5,493)"><path id="SvgjsPath1073" d="M0 0L200 0L200 37L0 37Z " stroke="rgba(50,50,50,1)" stroke-width="2" fill-opacity="1" fill="#ffffff"></path><g id="SvgjsG1074"><text id="SvgjsText1075" font-family="微软雅黑" text-anchor="middle" font-size="13px" width="180px" fill="#323232" font-weight="400" align="middle" lineHeight="125%" font-style="" opacity="1" y="7.875" transform="rotate(0)"><tspan id="SvgjsTspan1076" dy="16" x="100"><tspan id="SvgjsTspan1077" style="text-decoration:;">resolveRequestArray()</tspan></tspan></text></g></g><g id="SvgjsG1078" transform="translate(268.5,579.5)"><path id="SvgjsPath1079" d="M0 0L202 0L202 77.5L0 77.5Z " stroke="rgba(50,50,50,1)" stroke-width="2" fill-opacity="1" fill="#ffffff"></path><g id="SvgjsG1080"><text id="SvgjsText1081" font-family="微软雅黑" text-anchor="middle" font-size="13px" width="182px" fill="#323232" font-weight="400" align="middle" lineHeight="125%" font-style="" opacity="1" y="4.125" transform="rotate(0)"><tspan id="SvgjsTspan1082" dy="16" x="101"><tspan id="SvgjsTspan1083" style="text-decoration:;">continueCallback3():  为了跟</tspan></tspan><tspan id="SvgjsTspan1084" dy="16" x="101"><tspan id="SvgjsTspan1085" style="text-decoration:;">上面的 continueCallback区</tspan></tspan><tspan id="SvgjsTspan1086" dy="16" x="101"><tspan id="SvgjsTspan1087" style="text-decoration:;">分，更改下名称，是一个新的方</tspan></tspan><tspan id="SvgjsTspan1088" dy="16" x="101"><tspan id="SvgjsTspan1089" style="text-decoration:;">法，虽然源码function名称一样</tspan></tspan></text></g></g><g id="SvgjsG1090"><path id="SvgjsPath1091" d="M369.5 338.375L369.5 360.25L369.5 360.25L369.5 379.525 " stroke="#323232" stroke-width="2" fill="none" marker-end="url(#SvgjsMarker1092)"></path></g><g id="SvgjsG1094"><path id="SvgjsPath1095" d="M369.5 421.125L369.5 456.5625L369.5 456.5625L369.5 489.4 " stroke="#323232" stroke-width="2" fill="none" marker-end="url(#SvgjsMarker1096)"></path></g><g id="SvgjsG1098"><path id="SvgjsPath1099" d="M369.5 531L369.5 554.75L369.5 554.75L369.5 575.9 " stroke="#323232" stroke-width="2" fill="none" marker-end="url(#SvgjsMarker1100)"></path></g><g id="SvgjsG1102" transform="translate(507,216)"><path id="SvgjsPath1103" d="M0 0L292 0L308 16L308 61.25L0 61.25L0 0Z " stroke="none" fill-opacity="1" fill="#ffffaa"></path><path id="SvgjsPath1104" d="M292 0L292 16L308 16Z " stroke="none" fill-opacity="1" fill="#cdcdcd"></path><path id="SvgjsPath1105" d="M0 0L292 0L308 16L308 61.25L0 61.25L0 0Z " stroke="none" fill="none"></path><g id="SvgjsG1106"><text id="SvgjsText1107" font-family="微软雅黑" text-anchor="start" font-size="13px" width="288px" fill="#323232" font-weight="400" align="middle" lineHeight="125%" font-style="" opacity="1" y="12" transform="rotate(0)"><tspan id="SvgjsTspan1108" dy="16" x="10"><tspan id="SvgjsTspan1109" style="text-decoration:;">// resolver = this.getResolver("normal", ...args)</tspan></tspan><tspan id="SvgjsTspan1110" dy="16" x="10"><tspan id="SvgjsTspan1111" style="text-decoration:;">resolver.resolve()</tspan></tspan></text></g></g><g id="SvgjsG1112"><path id="SvgjsPath1113" d="M507 246.625L488.25 246.625L488.25 318.875L473.1 318.875 " stroke="#323232" stroke-width="2" fill="none" marker-end="url(#SvgjsMarker1114)"></path></g><g id="SvgjsG1116" transform="translate(511.5,321.625)"><path id="SvgjsPath1117" d="M0 0L283 0L299 16L299 87.5L0 87.5L0 0Z " stroke="none" fill-opacity="1" fill="#ffffaa"></path><path id="SvgjsPath1118" d="M283 0L283 16L299 16Z " stroke="none" fill-opacity="1" fill="#cdcdcd"></path><path id="SvgjsPath1119" d="M0 0L283 0L299 16L299 87.5L0 87.5L0 0Z " stroke="none" fill="none"></path><g id="SvgjsG1120"><text id="SvgjsText1121" font-family="微软雅黑" text-anchor="start" font-size="13px" width="279px" fill="#323232" font-weight="400" align="middle" lineHeight="125%" font-style="" opacity="1" y="1.125" transform="rotate(0)"><tspan id="SvgjsTspan1122" dy="16" x="10"><tspan id="SvgjsTspan1123" style="text-decoration:;">const result = this.ruleSet.exec(...args);</tspan></tspan><tspan id="SvgjsTspan1124" dy="16" x="10"><tspan id="SvgjsTspan1125" style="text-decoration:;">let useLoaders = [];</tspan></tspan><tspan id="SvgjsTspan1126" dy="16" x="10"><tspan id="SvgjsTspan1127" style="text-decoration:;">for (const r of result) {</tspan></tspan><tspan id="SvgjsTspan1128" dy="16" x="10"><tspan id="SvgjsTspan1129" style="text-decoration:;">   useLoaders.push(r.value);</tspan></tspan><tspan id="SvgjsTspan1130" dy="16" x="10"><tspan id="SvgjsTspan1131" style="text-decoration:;">}</tspan></tspan></text></g></g><g id="SvgjsG1132"><path id="SvgjsPath1133" d="M511.5 365.375L490.5 365.375L490.5 401.625L473.1 401.625 " stroke="#323232" stroke-width="2" fill="none" marker-end="url(#SvgjsMarker1134)"></path></g><g id="SvgjsG1136" transform="translate(516,432.5)"><path id="SvgjsPath1137" d="M0 0L283 0L299 16L299 97.5L0 97.5L0 0Z " stroke="none" fill-opacity="1" fill="#ffffaa"></path><path id="SvgjsPath1138" d="M283 0L283 16L299 16Z " stroke="none" fill-opacity="1" fill="#cdcdcd"></path><path id="SvgjsPath1139" d="M0 0L283 0L299 16L299 97.5L0 97.5L0 0Z " stroke="none" fill="none"></path><g id="SvgjsG1140"><text id="SvgjsText1141" font-family="微软雅黑" text-anchor="start" font-size="13px" width="279px" fill="#323232" font-weight="400" align="top" lineHeight="125%" font-style="" opacity="1" y="7.375" transform="rotate(0)"><tspan id="SvgjsTspan1142" dy="16" x="10"><tspan id="SvgjsTspan1143" style="text-decoration:;">//array = useLoaders.asyncLib.map(array, </tspan></tspan><tspan id="SvgjsTspan1144" dy="16" x="10"><tspan id="SvgjsTspan1145" style="text-decoration:;">()=&gt; {</tspan></tspan><tspan id="SvgjsTspan1146" dy="16" x="10"><tspan id="SvgjsTspan1147" style="text-decoration:;">      let result = resolver.resolve();</tspan></tspan><tspan id="SvgjsTspan1148" dy="16" x="10"><tspan id="SvgjsTspan1149" style="text-decoration:;">      return callback(null, resolved);</tspan></tspan><tspan id="SvgjsTspan1150" dy="16" x="10"><tspan id="SvgjsTspan1151" style="text-decoration:;">}, callback)</tspan></tspan></text></g></g><g id="SvgjsG1152"><path id="SvgjsPath1153" d="M516 481.25L492.75 481.25L492.75 511.5L473.1 511.5 " stroke="#323232" stroke-width="2" fill="none" marker-end="url(#SvgjsMarker1154)"></path></g><g id="SvgjsG1156" transform="translate(515,558.875)"><path id="SvgjsPath1157" d="M0 0L285 0L301 16L301 102L0 102L0 0Z " stroke="none" fill-opacity="1" fill="#ffffaa"></path><path id="SvgjsPath1158" d="M285 0L285 16L301 16Z " stroke="none" fill-opacity="1" fill="#cdcdcd"></path><path id="SvgjsPath1159" d="M0 0L285 0L301 16L301 102L0 102L0 0Z " stroke="none" fill="none"></path><g id="SvgjsG1160"><text id="SvgjsText1161" font-family="微软雅黑" text-anchor="start" font-size="13px" width="281px" fill="#323232" font-weight="400" align="middle" lineHeight="125%" font-style="" opacity="1" y="0.375" transform="rotate(0)"><tspan id="SvgjsTspan1162" dy="16" x="10"><tspan id="SvgjsTspan1163" style="text-decoration:;">Object.assign(data.createData, {</tspan></tspan><tspan id="SvgjsTspan1164" dy="16" x="10"><tspan id="SvgjsTspan1165" style="text-decoration:;">     loaders: allLoaders,</tspan></tspan><tspan id="SvgjsTspan1166" dy="16" x="10"><tspan id="SvgjsTspan1167" style="text-decoration:;">     type,</tspan></tspan><tspan id="SvgjsTspan1168" dy="16" x="10"><tspan id="SvgjsTspan1169" style="text-decoration:;">     parser: this.getParser(type),</tspan></tspan><tspan id="SvgjsTspan1170" dy="16" x="10"><tspan id="SvgjsTspan1171" style="text-decoration:;">     generator: this.getGenerator(type)</tspan></tspan><tspan id="SvgjsTspan1172" dy="16" x="10"><tspan id="SvgjsTspan1173" style="text-decoration:;">})</tspan></tspan></text></g></g><g id="SvgjsG1174"><path id="SvgjsPath1175" d="M515 609.875L492.75 609.875L492.75 618.25L474.1 618.25 " stroke="#323232" stroke-width="2" fill="none" marker-end="url(#SvgjsMarker1176)"></path></g><g id="SvgjsG1178" transform="translate(255.5,739.125)"><path id="SvgjsPath1179" d="M0 0L228 0L228 53.75L0 53.75Z " stroke="rgba(50,50,50,1)" stroke-width="2" fill-opacity="1" fill="#ffffff"></path><g id="SvgjsG1180"><text id="SvgjsText1181" font-family="微软雅黑" text-anchor="middle" font-size="13px" width="208px" fill="#323232" font-weight="400" align="middle" lineHeight="125%" font-style="" opacity="1" y="0.25" transform="rotate(0)"><tspan id="SvgjsTspan1182" dy="16" x="114"><tspan id="SvgjsTspan1183" style="text-decoration:;">this.hooks.afterResolve()</tspan></tspan><tspan id="SvgjsTspan1184" dy="16" x="114"><tspan id="SvgjsTspan1185" style="text-decoration:;">this.hooks.createModule.callAsync</tspan></tspan><tspan id="SvgjsTspan1186" dy="16" x="114"><tspan id="SvgjsTspan1187" style="text-decoration:;">(createData, resolveData)</tspan></tspan></text></g></g><g id="SvgjsG1188" transform="translate(269.5,853.75)"><path id="SvgjsPath1189" d="M0 0L200 0L200 37L0 37Z " stroke="rgba(50,50,50,1)" stroke-width="2" fill-opacity="1" fill="#ffffff"></path><g id="SvgjsG1190"><text id="SvgjsText1191" font-family="微软雅黑" text-anchor="middle" font-size="13px" width="180px" fill="#323232" font-weight="400" align="middle" lineHeight="125%" font-style="" opacity="1" y="7.875" transform="rotate(0)"><tspan id="SvgjsTspan1192" dy="16" x="100"><tspan id="SvgjsTspan1193" style="text-decoration:;">this.hooks.module()</tspan></tspan></text></g></g><g id="SvgjsG1194"><path id="SvgjsPath1195" d="M369.5 793.875L369.5 823.3125L369.5 823.3125L369.5 850.15 " stroke="#323232" stroke-width="2" fill="none" marker-end="url(#SvgjsMarker1196)"></path></g><g id="SvgjsG1198"><path id="SvgjsPath1199" d="M369.5 658L369.5 698.0625L369.5 698.0625L369.5 735.525 " stroke="#323232" stroke-width="2" fill="none" marker-end="url(#SvgjsMarker1200)"></path><rect id="SvgjsRect1202" width="150" height="16" x="294.5" y="688.7624999999999" fill="#ffffff"></rect><text id="SvgjsText1203" font-family="微软雅黑" text-anchor="middle" font-size="13px" width="150px" fill="#323232" font-weight="400" align="top" lineHeight="16px" font-style="" opacity="1" y="686.1374999999999" transform="rotate(0)"><tspan id="SvgjsTspan1204" dy="16" x="369.5"><tspan id="SvgjsTspan1205" style="text-decoration:;">resolveData:{createData}</tspan></tspan></text></g><g id="SvgjsG1206" transform="translate(517.5,706.25)"><path id="SvgjsPath1207" d="M0 0L316 0L332 16L332 147.5L0 147.5L0 0Z " stroke="none" fill-opacity="1" fill="#ffffaa"></path><path id="SvgjsPath1208" d="M316 0L316 16L332 16Z " stroke="none" fill-opacity="1" fill="#cdcdcd"></path><path id="SvgjsPath1209" d="M0 0L316 0L332 16L332 147.5L0 147.5L0 0Z " stroke="none" fill="none"></path><g id="SvgjsG1210"><text id="SvgjsText1211" font-family="微软雅黑" text-anchor="start" font-size="13px" width="312px" fill="#323232" font-weight="400" align="middle" lineHeight="125%" font-style="" opacity="1" y="7.125" transform="rotate(0)"><tspan id="SvgjsTspan1212" dy="16" x="10"><tspan id="SvgjsTspan1213" style="text-decoration:;">//实例化NormalModule</tspan></tspan><tspan id="SvgjsTspan1214" dy="16" x="10"><tspan id="SvgjsTspan1215" style="text-decoration:;">createdModule = new NormalModule(createData);</tspan></tspan><tspan id="SvgjsTspan1216" dy="16" x="10"><tspan id="SvgjsTspan1217" style="text-decoration:;">// 处理sideEffects的情况</tspan></tspan><tspan id="SvgjsTspan1218" dy="16" x="10"><tspan id="SvgjsTspan1219" style="text-decoration:;">createdModule = this.hooks.module.call(</tspan></tspan><tspan id="SvgjsTspan1220" dy="16" x="10"><tspan id="SvgjsTspan1221" style="text-decoration:;">    createdModule,</tspan></tspan><tspan id="SvgjsTspan1222" dy="16" x="10"><tspan id="SvgjsTspan1223" style="text-decoration:;">    createData,</tspan></tspan><tspan id="SvgjsTspan1224" dy="16" x="10"><tspan id="SvgjsTspan1225" style="text-decoration:;">    resolveData</tspan></tspan><tspan id="SvgjsTspan1226" dy="16" x="10"><tspan id="SvgjsTspan1227" style="text-decoration:;">);</tspan></tspan></text></g></g><g id="SvgjsG1228"><path id="SvgjsPath1229" d="M517.5 780L494 780L494 874L474.1 874 " stroke="#323232" stroke-width="2" fill="none" marker-end="url(#SvgjsMarker1230)"></path></g><g id="SvgjsG1232" transform="translate(27.125,997.84375)"><path id="SvgjsPath1233" d="M0 0L178 0L178 53.15625L0 53.15625Z " stroke="rgba(50,50,50,1)" stroke-width="2" fill-opacity="1" fill="#ffffff"></path><g id="SvgjsG1234"><text id="SvgjsText1235" font-family="微软雅黑" text-anchor="middle" font-size="13px" width="158px" fill="#323232" font-weight="400" align="middle" lineHeight="125%" font-style="" opacity="1" y="7.953125" transform="rotate(0)"><tspan id="SvgjsTspan1236" dy="16" x="89"><tspan id="SvgjsTspan1237" style="text-decoration:;">this.addModule()</tspan></tspan><tspan id="SvgjsTspan1238" dy="16" x="89"><tspan id="SvgjsTspan1239" style="text-decoration:;">this.buildModule(module)</tspan></tspan></text></g></g><g id="SvgjsG1240"><path id="SvgjsPath1241" d="M369.5 229.5L369.5 264.4375L369.5 264.4375L369.5 296.775 " stroke="#323232" stroke-width="2" fill="none" marker-end="url(#SvgjsMarker1242)"></path></g><g id="SvgjsG1244"><path id="SvgjsPath1245" d="M116 549.25L116 773.046875L116.125 773.046875L116.125 994.24375 " stroke="#323232" stroke-width="2" fill="none" marker-end="url(#SvgjsMarker1246)"></path></g><g id="SvgjsG1248" transform="translate(263,996.171875)"><path id="SvgjsPath1249" d="M0 0L150 0L150 45.46875L0 45.46875Z " stroke="rgba(50,50,50,1)" stroke-width="2" fill-opacity="1" fill="#ffffff"></path><g id="SvgjsG1250"><text id="SvgjsText1251" font-family="微软雅黑" text-anchor="middle" font-size="13px" width="130px" fill="#323232" font-weight="400" align="middle" lineHeight="125%" font-style="" opacity="1" y="12.109375" transform="rotate(0)"><tspan id="SvgjsTspan1252" dy="16" x="75"><tspan id="SvgjsTspan1253" style="text-decoration:;">NormalModule.build()</tspan></tspan></text></g></g><g id="SvgjsG1254"><path id="SvgjsPath1255" d="M206.125 1024.421875L234.0625 1024.421875L234.0625 1018.90625L259.4 1018.90625 " stroke="#323232" stroke-width="2" fill="none" marker-end="url(#SvgjsMarker1256)"></path></g><g id="SvgjsG1258" transform="translate(443.5,939.234375)"><path id="SvgjsPath1259" d="M0 0L148.5 0L148.5 27.5L0 27.5Z " stroke="rgba(50,50,50,1)" stroke-width="2" fill-opacity="1" fill="#ffffff"></path><g id="SvgjsG1260"><text id="SvgjsText1261" font-family="微软雅黑" text-anchor="middle" font-size="13px" width="129px" fill="#323232" font-weight="400" align="middle" lineHeight="125%" font-style="" opacity="1" y="3.125" transform="rotate(0)"><tspan id="SvgjsTspan1262" dy="16" x="74.5"><tspan id="SvgjsTspan1263" style="text-decoration:;">Normal._doBuild()</tspan></tspan></text></g></g><g id="SvgjsG1264" transform="translate(444,1010.84375)"><path id="SvgjsPath1265" d="M0 0L147.5 0L147.5 36.125L0 36.125Z " stroke="rgba(50,50,50,1)" stroke-width="2" fill-opacity="1" fill="#ffffff"></path><g id="SvgjsG1266"><text id="SvgjsText1267" font-family="微软雅黑" text-anchor="middle" font-size="13px" width="128px" fill="#323232" font-weight="400" align="middle" lineHeight="125%" font-style="" opacity="1" y="-0.5625" transform="rotate(0)"><tspan id="SvgjsTspan1268" dy="16" x="74"><tspan id="SvgjsTspan1269" style="text-decoration:;">this.parser.parse(this</tspan></tspan><tspan id="SvgjsTspan1270" dy="16" x="74"><tspan id="SvgjsTspan1271" style="text-decoration:;">._ast || source)</tspan></tspan></text></g></g><g id="SvgjsG1272" transform="translate(440.5,1076.859375)"><path id="SvgjsPath1273" d="M0 0L154.5 0L154.5 36.875L0 36.875Z " stroke="rgba(50,50,50,1)" stroke-width="2" fill-opacity="1" fill="#ffffff"></path><g id="SvgjsG1274"><text id="SvgjsText1275" font-family="微软雅黑" text-anchor="middle" font-size="13px" width="135px" fill="#323232" font-weight="400" align="middle" lineHeight="125%" font-style="" opacity="1" y="-0.1875" transform="rotate(0)"><tspan id="SvgjsTspan1276" dy="16" x="77.5"><tspan id="SvgjsTspan1277" style="text-decoration:;">handleParseResult()</tspan></tspan><tspan id="SvgjsTspan1278" dy="16" x="77.5"><tspan id="SvgjsTspan1279" style="text-decoration:;">handleBuildDone()</tspan></tspan></text></g></g><g id="SvgjsG1280" transform="translate(33.125,1326.25)"><path id="SvgjsPath1281" d="M0 0L172 0L172 53L0 53Z " stroke="rgba(50,50,50,1)" stroke-width="2" fill-opacity="1" fill="#ffffff"></path><g id="SvgjsG1282"><text id="SvgjsText1283" font-family="微软雅黑" text-anchor="middle" font-size="13px" width="152px" fill="#323232" font-weight="400" align="middle" lineHeight="125%" font-style="" opacity="1" y="7.875" transform="rotate(0)"><tspan id="SvgjsTspan1284" dy="16" x="86"><tspan id="SvgjsTspan1285" style="text-decoration:;">_processModuleDepende</tspan></tspan><tspan id="SvgjsTspan1286" dy="16" x="86"><tspan id="SvgjsTspan1287" style="text-decoration:;">ncies</tspan></tspan></text></g></g><g id="SvgjsG1288" transform="translate(343.5,931.3125)"><path id="SvgjsPath1289" d="M97 0Q88 0 88 9L88 84.421875Q88 93.421875 75 93.421875Q88 93.421875 88 102.421875L88 177.84375Q88 186.84375 97 186.84375 " stroke="rgba(50,50,50,1)" stroke-width="2" fill="none"></path><path id="SvgjsPath1290" d="M0 0L97 0L97 186.84375L0 186.84375Z " stroke="none" fill="none"></path><g id="SvgjsG1291"><text id="SvgjsText1292" font-family="微软雅黑" text-anchor="end" font-size="13px" width="70px" fill="#323232" font-weight="400" align="middle" lineHeight="125%" font-style="" opacity="1" y="82.796875" transform="rotate(0)"></text></g></g><g id="SvgjsG1293"><path id="SvgjsPath1294" d="M517.75 1114.734375L517.75 1161.9921875L119.125 1161.9921875L119.125 1322.65 " stroke="#323232" stroke-width="2" fill="none" marker-end="url(#SvgjsMarker1295)"></path><rect id="SvgjsRect1297" width="132" height="16" x="195.73749999999995" y="1153.9921875" fill="#ffffff"></rect><text id="SvgjsText1298" font-family="微软雅黑" text-anchor="middle" font-size="13px" width="132px" fill="#323232" font-weight="400" align="top" lineHeight="16px" font-style="" opacity="1" y="1151.3671875" transform="rotate(0)"><tspan id="SvgjsTspan1299" dy="16" x="261.73749999999995"><tspan id="SvgjsTspan1300" style="text-decoration:;">回调parse之后的result</tspan></tspan></text></g><g id="SvgjsG1301"><path id="SvgjsPath1302" d="M517.75 967.734375L517.75 988.7890625L517.75 988.7890625L517.75 1007.24375 " stroke="#323232" stroke-width="2" fill="none" marker-end="url(#SvgjsMarker1303)"></path></g><g id="SvgjsG1305"><path id="SvgjsPath1306" d="M517.75 1047.96875L517.75 1061.9140625L517.75 1061.9140625L517.75 1073.259375 " stroke="#323232" stroke-width="2" fill="none" marker-end="url(#SvgjsMarker1307)"></path></g><g id="SvgjsG1309" transform="translate(644.25,930.25)"><path id="SvgjsPath1310" d="M0 0L266.75 0L282.75 16L282.75 82L0 82L0 0Z " stroke="none" fill-opacity="1" fill="#ffffaa"></path><path id="SvgjsPath1311" d="M266.75 0L266.75 16L282.75 16Z " stroke="none" fill-opacity="1" fill="#cdcdcd"></path><path id="SvgjsPath1312" d="M0 0L266.75 0L282.75 16L282.75 82L0 82L0 0Z " stroke="none" fill="none"></path><g id="SvgjsG1313"><text id="SvgjsText1314" font-family="微软雅黑" text-anchor="start" font-size="13px" width="263px" fill="#323232" font-weight="400" align="top" lineHeight="125%" font-style="" opacity="1" y="7.375" transform="rotate(0)"><tspan id="SvgjsTspan1315" dy="16" x="10"><tspan id="SvgjsTspan1316" style="text-decoration:;">1. runLoaders()：读取文件内容，拼凑parse</tspan></tspan><tspan id="SvgjsTspan1317" dy="16" x="10"><tspan id="SvgjsTspan1318" style="text-decoration:;">的相关参数</tspan></tspan><tspan id="SvgjsTspan1319" dy="16" x="10"><tspan id="SvgjsTspan1320" style="text-decoration:;">2. processResult()：处理sourceMap逻辑，</tspan></tspan><tspan id="SvgjsTspan1321" dy="16" x="10"><tspan id="SvgjsTspan1322" style="text-decoration:;">初始化this._ast</tspan></tspan></text></g></g><g id="SvgjsG1323"><path id="SvgjsPath1324" d="M644.25 971.25L618.125 971.25L618.125 952.984375L595.6 952.984375 " stroke="#323232" stroke-width="2" fill="none" marker-end="url(#SvgjsMarker1325)"></path></g><g id="SvgjsG1327" transform="translate(641.75,1033.25)"><path id="SvgjsPath1328" d="M0 0L271.75 0L287.75 16L287.75 76.09375L0 76.09375L0 0Z " stroke="none" fill-opacity="1" fill="#ffffaa"></path><path id="SvgjsPath1329" d="M271.75 0L271.75 16L287.75 16Z " stroke="none" fill-opacity="1" fill="#cdcdcd"></path><path id="SvgjsPath1330" d="M0 0L271.75 0L287.75 16L287.75 76.09375L0 76.09375L0 0Z " stroke="none" fill="none"></path><g id="SvgjsG1331"><text id="SvgjsText1332" font-family="微软雅黑" text-anchor="start" font-size="13px" width="268px" fill="#323232" font-weight="400" align="middle" lineHeight="125%" font-style="" opacity="1" y="11.421875" transform="rotate(0)"><tspan id="SvgjsTspan1333" dy="16" x="10"><tspan id="SvgjsTspan1334" style="text-decoration:;">JavascriptParser._parse</tspan></tspan><tspan id="SvgjsTspan1335" dy="16" x="10"><tspan id="SvgjsTspan1336" style="text-decoration:;">内部使用parser=require("acorn")</tspan></tspan><tspan id="SvgjsTspan1337" dy="16" x="10"><tspan id="SvgjsTspan1338" style="text-decoration:;">然后进行parser.parse(code, parserOptions)</tspan></tspan></text></g></g><g id="SvgjsG1339"><path id="SvgjsPath1340" d="M641.75 1071.296875L616.625 1071.296875L616.625 1028.90625L595.1 1028.90625 " stroke="#323232" stroke-width="2" fill="none" marker-end="url(#SvgjsMarker1341)"></path></g><g id="SvgjsG1343" transform="translate(25,267.5)"><path id="SvgjsPath1344" d="M0 0L182 0L182 39.75L0 39.75Z " stroke="rgba(50,50,50,1)" stroke-width="2" fill-opacity="1" fill="#ffffff"></path><g id="SvgjsG1345"><text id="SvgjsText1346" font-family="微软雅黑" text-anchor="middle" font-size="13px" width="162px" fill="#323232" font-weight="400" align="middle" lineHeight="125%" font-style="" opacity="1" y="9.25" transform="rotate(0)"><tspan id="SvgjsTspan1347" dy="16" x="91"><tspan id="SvgjsTspan1348" style="text-decoration:;">handleModuleCreate()</tspan></tspan></text></g></g><g id="SvgjsG1349" transform="translate(27,119.25)"><path id="SvgjsPath1350" d="M0 0L178 0L178 75L0 75Z " stroke="rgba(50,50,50,1)" stroke-width="2" fill-opacity="1" fill="#ffffff"></path><g id="SvgjsG1351"><text id="SvgjsText1352" font-family="微软雅黑" text-anchor="middle" font-size="13px" width="158px" fill="#323232" font-weight="400" align="middle" lineHeight="125%" font-style="" opacity="1" y="2.875" transform="rotate(0)"><tspan id="SvgjsTspan1353" dy="16" x="89"><tspan id="SvgjsTspan1354" style="text-decoration:;">addModuleTree():拿到对</tspan></tspan><tspan id="SvgjsTspan1355" dy="16" x="89"><tspan id="SvgjsTspan1356" style="text-decoration:;">应的moduleFactory，可以</tspan></tspan><tspan id="SvgjsTspan1357" dy="16" x="89"><tspan id="SvgjsTspan1358" style="text-decoration:;">为NormalModuleFactory</tspan></tspan><tspan id="SvgjsTspan1359" dy="16" x="89"><tspan id="SvgjsTspan1360" style="text-decoration:;">或者ContextMenuFactory</tspan></tspan></text></g></g><g id="SvgjsG1361" transform="translate(36.5,25)"><path id="SvgjsPath1362" d="M0 0L159 0L159 40L0 40Z " stroke="rgba(50,50,50,1)" stroke-width="2" fill-opacity="1" fill="#ffffff"></path><g id="SvgjsG1363"><text id="SvgjsText1364" font-family="微软雅黑" text-anchor="middle" font-size="13px" width="139px" fill="#323232" font-weight="400" align="middle" lineHeight="125%" font-style="" opacity="1" y="1.375" transform="rotate(0)"><tspan id="SvgjsTspan1365" dy="16" x="79.5"><tspan id="SvgjsTspan1366" style="text-decoration:;">addEntry()</tspan></tspan><tspan id="SvgjsTspan1367" dy="16" x="79.5"><tspan id="SvgjsTspan1368" style="text-decoration:;">_addEntryItem()</tspan></tspan></text></g></g><g id="SvgjsG1369"><path id="SvgjsPath1370" d="M116 66L116 92.125L116 92.125L116 115.65 " stroke="#323232" stroke-width="2" fill="none" marker-end="url(#SvgjsMarker1371)"></path></g><g id="SvgjsG1373"><path id="SvgjsPath1374" d="M116 195.25L116 230.875L116 230.875L116 263.9 " stroke="#323232" stroke-width="2" fill="none" marker-end="url(#SvgjsMarker1375)"></path></g><g id="SvgjsG1377"><path id="SvgjsPath1378" d="M116 308.25L116 330.75L116 330.75L116 350.65 " stroke="#323232" stroke-width="2" fill="none" marker-end="url(#SvgjsMarker1379)"></path></g><g id="SvgjsG1381" transform="translate(535.125,1213.0625)"><path id="SvgjsPath1382" d="M0 0L451.25 0L467.25 16L467.25 182.25L0 182.25L0 0Z " stroke="none" fill-opacity="1" fill="#ffffaa"></path><path id="SvgjsPath1383" d="M451.25 0L451.25 16L467.25 16Z " stroke="none" fill-opacity="1" fill="#cdcdcd"></path><path id="SvgjsPath1384" d="M0 0L451.25 0L467.25 16L467.25 182.25L0 182.25L0 0Z " stroke="none" fill="none"></path><g id="SvgjsG1385"><text id="SvgjsText1386" font-family="微软雅黑" text-anchor="start" font-size="13px" width="448px" fill="#323232" font-weight="400" align="middle" lineHeight="125%" font-style="" opacity="1" y="16.5" transform="rotate(0)"><tspan id="SvgjsTspan1387" dy="16" x="10"><tspan id="SvgjsTspan1388" style="text-decoration:;">    const onDependenciesSorted = err =&gt; {</tspan></tspan><tspan id="SvgjsTspan1389" dy="16" x="10"><tspan id="SvgjsTspan1390" style="text-decoration:;">        for (const item of sortedDependencies) {</tspan></tspan><tspan id="SvgjsTspan1391" dy="16" x="10"><tspan id="SvgjsTspan1392" style="text-decoration:;">            inProgressTransitive++;</tspan></tspan><tspan id="SvgjsTspan1393" dy="16" x="10"><tspan id="SvgjsTspan1394" style="text-decoration:;">            this.handleModuleCreation(item, err =&gt; {</tspan></tspan><tspan id="SvgjsTspan1395" dy="16" x="10"><tspan id="SvgjsTspan1396" style="text-decoration:;">                if (--inProgressTransitive === 0) onTransitiveTasksFinished();</tspan></tspan><tspan id="SvgjsTspan1397" dy="16" x="10"><tspan id="SvgjsTspan1398" style="text-decoration:;">            });</tspan></tspan><tspan id="SvgjsTspan1399" dy="16" x="10"><tspan id="SvgjsTspan1400" style="text-decoration:;">        }</tspan></tspan><tspan id="SvgjsTspan1401" dy="16" x="10"><tspan id="SvgjsTspan1402" style="text-decoration:;">        if (--inProgressTransitive === 0) onTransitiveTasksFinished();</tspan></tspan><tspan id="SvgjsTspan1403" dy="16" x="10"><tspan id="SvgjsTspan1404" style="text-decoration:;">    }</tspan></tspan></text></g></g><g id="SvgjsG1405" transform="translate(246.375,1191.25)"><path id="SvgjsPath1406" d="M0 0L247.5 0L247.5 45.625L0 45.625Z " stroke="rgba(50,50,50,1)" stroke-width="2" fill-opacity="1" fill="#ffffff"></path><g id="SvgjsG1407"><text id="SvgjsText1408" font-family="微软雅黑" text-anchor="start" font-size="13px" width="228px" fill="#323232" font-weight="400" align="middle" lineHeight="125%" font-style="" opacity="1" y="4.1875" transform="rotate(0)"><tspan id="SvgjsTspan1409" dy="16" x="10"><tspan id="SvgjsTspan1410" style="text-decoration:;">1. 入口文件module依赖的顺序进</tspan></tspan><tspan id="SvgjsTspan1411" dy="16" x="10"><tspan id="SvgjsTspan1412" style="text-decoration:;">行sortedDependencies构建</tspan></tspan></text></g></g><g id="SvgjsG1413" transform="translate(246.375,1260.6875)"><path id="SvgjsPath1414" d="M0 0L247.5 0L247.5 87L0 87Z " stroke="rgba(50,50,50,1)" stroke-width="2" fill-opacity="1" fill="#ffffff"></path><g id="SvgjsG1415"><text id="SvgjsText1416" font-family="微软雅黑" text-anchor="start" font-size="13px" width="228px" fill="#323232" font-weight="400" align="middle" lineHeight="125%" font-style="" opacity="1" y="8.875" transform="rotate(0)"><tspan id="SvgjsTspan1417" dy="16" x="10"><tspan id="SvgjsTspan1418" style="text-decoration:;">2.onDependenciesSorted()使</tspan></tspan><tspan id="SvgjsTspan1419" dy="16" x="10"><tspan id="SvgjsTspan1420" style="text-decoration:;">用sortedDependencies进行入口文件的</tspan></tspan><tspan id="SvgjsTspan1421" dy="16" x="10"><tspan id="SvgjsTspan1422" style="text-decoration:;">dependency的handleModuleCreate()</tspan></tspan><tspan id="SvgjsTspan1423" dy="16" x="10"><tspan id="SvgjsTspan1424" style="text-decoration:;">循环调用</tspan></tspan></text></g></g><g id="SvgjsG1425"><path id="SvgjsPath1426" d="M535.125 1304.1875L514.5 1304.1875L514.5 1304.1875L497.475 1304.1875 " stroke="#323232" stroke-width="2" fill="none" marker-end="url(#SvgjsMarker1427)"></path></g><g id="SvgjsG1429" transform="translate(246.375,1458.9375)"><path id="SvgjsPath1430" d="M0 0L247.5 0L247.5 64L0 64Z " stroke="rgba(50,50,50,1)" stroke-width="2" fill-opacity="1" fill="#ffffff"></path><g id="SvgjsG1431"><text id="SvgjsText1432" font-family="微软雅黑" text-anchor="start" font-size="13px" width="228px" fill="#323232" font-weight="400" align="middle" lineHeight="125%" font-style="" opacity="1" y="5.375" transform="rotate(0)"><tspan id="SvgjsTspan1433" dy="16" x="10"><tspan id="SvgjsTspan1434" style="text-decoration:;">4. 处理完成所有依赖后，回调最最外层</tspan></tspan><tspan id="SvgjsTspan1435" dy="16" x="10"><tspan id="SvgjsTspan1436" style="text-decoration:;">的handleModuleCreate()，结束make</tspan></tspan><tspan id="SvgjsTspan1437" dy="16" x="10"><tspan id="SvgjsTspan1438" style="text-decoration:;">阶段，启动seal阶段</tspan></tspan></text></g></g><g id="SvgjsG1439" transform="translate(246.375,1371.3125)"><path id="SvgjsPath1440" d="M0 0L247.5 0L247.5 64L0 64Z " stroke="rgba(50,50,50,1)" stroke-width="2" fill-opacity="1" fill="#ffffff"></path><g id="SvgjsG1441"><text id="SvgjsText1442" font-family="微软雅黑" text-anchor="start" font-size="13px" width="228px" fill="#323232" font-weight="400" align="middle" lineHeight="125%" font-style="" opacity="1" y="13.375" transform="rotate(0)"><tspan id="SvgjsTspan1443" dy="16" x="10"><tspan id="SvgjsTspan1444" style="text-decoration:;">3.每次handleModuleCreate()会递归再</tspan></tspan><tspan id="SvgjsTspan1445" dy="16" x="10"><tspan id="SvgjsTspan1446" style="text-decoration:;">处理自己的依赖</tspan></tspan></text></g></g><g id="SvgjsG1447"><path id="SvgjsPath1448" d="M370.125 1237.875L370.125 1248.78125L370.125 1248.78125L370.125 1257.0875 " stroke="#323232" stroke-width="2" fill="none" marker-end="url(#SvgjsMarker1449)"></path></g><g id="SvgjsG1451"><path id="SvgjsPath1452" d="M370.125 1348.6875L370.125 1359.5L370.125 1359.5L370.125 1367.7125 " stroke="#323232" stroke-width="2" fill="none" marker-end="url(#SvgjsMarker1453)"></path></g><g id="SvgjsG1455"><path id="SvgjsPath1456" d="M370.125 1436.3125L370.125 1447.125L370.125 1447.125L370.125 1455.3375 " stroke="#323232" stroke-width="2" fill="none" marker-end="url(#SvgjsMarker1457)"></path></g><g id="SvgjsG1459" transform="translate(127,1180.25)"><path id="SvgjsPath1460" d="M106 0Q97 0 97 9L97 165Q97 174 84 174Q97 174 97 183L97 339Q97 348 106 348 " stroke="rgba(50,50,50,1)" stroke-width="2" fill="none"></path><path id="SvgjsPath1461" d="M0 0L106 0L106 348L0 348Z " stroke="none" fill="none"></path><g id="SvgjsG1462"><text id="SvgjsText1463" font-family="微软雅黑" text-anchor="end" font-size="13px" width="79px" fill="#323232" font-weight="400" align="middle" lineHeight="125%" font-style="" opacity="1" y="163.375" transform="rotate(0)"></text></g></g><g id="SvgjsG1464" transform="translate(535.5,348.25)"><path id="SvgjsPath1465" d="M0 0L220 0L220 62.81660665037725L0 62.81660665037725Z " stroke="none" fill="none"></path><g id="SvgjsG1466"><text id="SvgjsText1467" font-family="微软雅黑" text-anchor="middle" font-size="13px" width="220px" fill="#000000" font-weight="400" align="middle" lineHeight="125%" font-style="" opacity="0.3" y="20.783303325188626" transform="rotate(0)"><tspan id="SvgjsTspan1468" dy="16" x="110"><tspan id="SvgjsTspan1469" style="text-decoration:;">https://github.com/wbccb</tspan></tspan></text></g></g><g id="SvgjsG1470" transform="translate(517.5,1441.75)"><path id="SvgjsPath1471" d="M0 0L303.2380952380952 0L303.2380952380952 55.71428571428578L0 55.71428571428578Z " stroke="none" fill="none"></path><g id="SvgjsG1472"><text id="SvgjsText1473" font-family="微软雅黑" text-anchor="middle" font-size="13px" width="304px" fill="#000000" font-weight="400" align="middle" lineHeight="125%" font-style="" opacity="0.55" y="17.23214285714289" transform="rotate(0)"><tspan id="SvgjsTspan1474" dy="16" x="152"><tspan id="SvgjsTspan1475" style="text-decoration:;">https://github.com/wbccb/Frontend-Articles</tspan></tspan></text></g></g></svg>