<svg id="SvgjsSvg1000" xmlns="http://www.w3.org/2000/svg" version="1.1" xmlns:xlink="http://www.w3.org/1999/xlink" xmlns:svgjs="http://svgjs.com/svgjs" width="1157.75" height="1392.21875"><defs id="SvgjsDefs1001"><marker id="SvgjsMarker1050" markerWidth="14" markerHeight="10" refX="10" refY="5" viewBox="0 0 14 10" orient="auto" markerUnits="userSpaceOnUse" stroke-dasharray="0,0"><path id="SvgjsPath1051" d="M0 0L14 5L0 10L0 0 " fill="#323232" stroke="#323232" stroke-width="1"></path></marker><marker id="SvgjsMarker1054" markerWidth="14" markerHeight="10" refX="10" refY="5" viewBox="0 0 14 10" orient="auto" markerUnits="userSpaceOnUse" stroke-dasharray="0,0"><path id="SvgjsPath1055" d="M0 0L14 5L0 10L0 0 " fill="#323232" stroke="#323232" stroke-width="1"></path></marker><marker id="SvgjsMarker1089" markerWidth="14" markerHeight="10" refX="10" refY="5" viewBox="0 0 14 10" orient="auto" markerUnits="userSpaceOnUse" stroke-dasharray="0,0"><path id="SvgjsPath1090" d="M0 0L14 5L0 10L0 0 " fill="#323232" stroke="#323232" stroke-width="1"></path></marker><marker id="SvgjsMarker1170" markerWidth="14" markerHeight="10" refX="10" refY="5" viewBox="0 0 14 10" orient="auto" markerUnits="userSpaceOnUse" stroke-dasharray="0,0"><path id="SvgjsPath1171" d="M0 0L14 5L0 10L0 0 " fill="#323232" stroke="#323232" stroke-width="1"></path></marker><marker id="SvgjsMarker1174" markerWidth="14" markerHeight="10" refX="10" refY="5" viewBox="0 0 14 10" orient="auto" markerUnits="userSpaceOnUse" stroke-dasharray="0,0"><path id="SvgjsPath1175" d="M0 0L14 5L0 10L0 0 " fill="#323232" stroke="#323232" stroke-width="1"></path></marker><marker id="SvgjsMarker1178" markerWidth="14" markerHeight="10" refX="10" refY="5" viewBox="0 0 14 10" orient="auto" markerUnits="userSpaceOnUse" stroke-dasharray="0,0"><path id="SvgjsPath1179" d="M0 0L14 5L0 10L0 0 " fill="#323232" stroke="#323232" stroke-width="1"></path></marker><marker id="SvgjsMarker1182" markerWidth="14" markerHeight="10" refX="10" refY="5" viewBox="0 0 14 10" orient="auto" markerUnits="userSpaceOnUse" stroke-dasharray="0,0"><path id="SvgjsPath1183" d="M0 0L14 5L0 10L0 0 " fill="#323232" stroke="#323232" stroke-width="1"></path></marker><marker id="SvgjsMarker1218" markerWidth="14" markerHeight="10" refX="10" refY="5" viewBox="0 0 14 10" orient="auto" markerUnits="userSpaceOnUse" stroke-dasharray="0,0"><path id="SvgjsPath1219" d="M0 0L14 5L0 10L0 0 " fill="#323232" stroke="#323232" stroke-width="1"></path></marker><marker id="SvgjsMarker1274" markerWidth="14" markerHeight="10" refX="10" refY="5" viewBox="0 0 14 10" orient="auto" markerUnits="userSpaceOnUse" stroke-dasharray="0,0"><path id="SvgjsPath1275" d="M0 0L14 5L0 10L0 0 " fill="#323232" stroke="#323232" stroke-width="1"></path></marker><marker id="SvgjsMarker1278" markerWidth="14" markerHeight="10" refX="10" refY="5" viewBox="0 0 14 10" orient="auto" markerUnits="userSpaceOnUse" stroke-dasharray="0,0"><path id="SvgjsPath1279" d="M0 0L14 5L0 10L0 0 " fill="#323232" stroke="#323232" stroke-width="1"></path></marker><marker id="SvgjsMarker1282" markerWidth="14" markerHeight="10" refX="10" refY="5" viewBox="0 0 14 10" orient="auto" markerUnits="userSpaceOnUse" stroke-dasharray="0,0"><path id="SvgjsPath1283" d="M0 0L14 5L0 10L0 0 " fill="#323232" stroke="#323232" stroke-width="1"></path></marker><marker id="SvgjsMarker1286" markerWidth="14" markerHeight="10" refX="10" refY="5" viewBox="0 0 14 10" orient="auto" markerUnits="userSpaceOnUse" stroke-dasharray="0,0"><path id="SvgjsPath1287" d="M0 0L14 5L0 10L0 0 " fill="#323232" stroke="#323232" stroke-width="1"></path></marker><marker id="SvgjsMarker1321" markerWidth="14" markerHeight="10" refX="10" refY="5" viewBox="0 0 14 10" orient="auto" markerUnits="userSpaceOnUse" stroke-dasharray="0,0"><path id="SvgjsPath1322" d="M0 0L14 5L0 10L0 0 " fill="#323232" stroke="#323232" stroke-width="1"></path></marker><marker id="SvgjsMarker1325" markerWidth="14" markerHeight="10" refX="10" refY="5" viewBox="0 0 14 10" orient="auto" markerUnits="userSpaceOnUse" stroke-dasharray="0,0"><path id="SvgjsPath1326" d="M0 0L14 5L0 10L0 0 " fill="#323232" stroke="#323232" stroke-width="1"></path></marker><marker id="SvgjsMarker1329" markerWidth="14" markerHeight="10" refX="10" refY="5" viewBox="0 0 14 10" orient="auto" markerUnits="userSpaceOnUse" stroke-dasharray="0,0"><path id="SvgjsPath1330" d="M0 0L14 5L0 10L0 0 " fill="#323232" stroke="#323232" stroke-width="1"></path></marker><marker id="SvgjsMarker1346" markerWidth="14" markerHeight="10" refX="10" refY="5" viewBox="0 0 14 10" orient="auto" markerUnits="userSpaceOnUse" stroke-dasharray="0,0"><path id="SvgjsPath1347" d="M0 0L14 5L0 10L0 0 " fill="#323232" stroke="#323232" stroke-width="1"></path></marker><marker id="SvgjsMarker1381" markerWidth="14" markerHeight="10" refX="10" refY="5" viewBox="0 0 14 10" orient="auto" markerUnits="userSpaceOnUse" stroke-dasharray="0,0"><path id="SvgjsPath1382" d="M0 0L14 5L0 10L0 0 " fill="#323232" stroke="#323232" stroke-width="1"></path></marker><pattern patternUnits="userSpaceOnUse" id="pattern_mark" width="300" height="300"><text x="-50" y="150" fill="rgba(229,229,229,0.8)" font-size="18" transform="rotate(-45, 150, 150)">https://github.com/wbccb</text></pattern></defs><g id="svgbackgroundid"><defs></defs><rect id="SvgjsRect1008" width="1157.75" height="1392.21875" fill="#ffffff"></rect></g><rect fill="url(#pattern_mark)" transform="translate(-677.421875,-147.625)" width="4100" height="4276" id="rect_mark" pointer-events="none"></rect><g id="SvgjsG1010" transform="translate(41.756696428571445,1050.7321428571427)"><path id="SvgjsPath1011" d="M0 0L1090.8214285714284 0L1090.8214285714284 189L0 189Z " stroke-dasharray="3,4" stroke="rgba(50,50,50,1)" stroke-width="2" fill-opacity="1" fill="#ffffff"></path><g id="SvgjsG1012"><text id="SvgjsText1013" font-family="微软雅黑" text-anchor="end" font-size="13px" width="1071px" fill="#323232" font-weight="700" align="middle" lineHeight="125%" font-style="" opacity="1" y="83.875" transform="rotate(0)"></text></g></g><g id="SvgjsG1014" transform="translate(191.00669642857144,788.2321428571429)"><path id="SvgjsPath1015" d="M0 0L615.5 0L615.5 153L0 153Z " stroke-dasharray="3,4" stroke="rgba(50,50,50,1)" stroke-width="2" fill-opacity="1" fill="#ffffff"></path><g id="SvgjsG1016"><text id="SvgjsText1017" font-family="微软雅黑" text-anchor="end" font-size="13px" width="596px" fill="#323232" font-weight="700" align="middle" lineHeight="125%" font-style="" opacity="1" y="65.875" transform="rotate(0)"></text></g></g><g id="SvgjsG1018" transform="translate(191.00669642857144,533.2321428571429)"><path id="SvgjsPath1019" d="M0 0L613 0L613 155L0 155Z " stroke-dasharray="3,4" stroke="rgba(50,50,50,1)" stroke-width="2" fill-opacity="1" fill="#ffffff"></path><g id="SvgjsG1020"><text id="SvgjsText1021" font-family="微软雅黑" text-anchor="end" font-size="13px" width="593px" fill="#323232" font-weight="700" align="middle" lineHeight="125%" font-style="" opacity="1" y="66.875" transform="rotate(0)"></text></g></g><g id="SvgjsG1022" transform="translate(440.00669642857133,25.009920634920604)"><path id="SvgjsPath1023" d="M0 25C0 -8.333333333333334 115 -8.333333333333334 115 25C115 58.333333333333336 0 58.333333333333336 0 25Z " stroke-dasharray="10,6" stroke="rgba(50,50,50,1)" stroke-width="1" fill-opacity="1" fill="#c8e6c9"></path><g id="SvgjsG1024"><text id="SvgjsText1025" font-family="微软雅黑" text-anchor="middle" font-size="13px" width="95px" fill="#323232" font-weight="400" align="middle" lineHeight="125%" font-style="" opacity="1" y="14.375" transform="rotate(0)"><tspan id="SvgjsTspan1026" dy="16" x="57.5"><tspan id="SvgjsTspan1027" style="text-decoration:;">resolve</tspan></tspan></text></g></g><g id="SvgjsG1028" transform="translate(337.7566964285711,101.0099206349206)"><path id="SvgjsPath1029" d="M0 4Q0 0 4 0L315.5000000000009 0Q319.5000000000009 0 319.5000000000009 4L319.5000000000009 104.00000000000011Q319.5000000000009 108.00000000000011 315.5000000000009 108.00000000000011L4 108.00000000000011Q0 108.00000000000011 0 104.00000000000011Z " stroke="rgba(50,50,50,1)" stroke-width="2" fill-opacity="1" fill="#ffffff"></path><path id="SvgjsPath1030" d="M0 30L319.5000000000009 30M0 78.00000000000007L319.5000000000009 78.00000000000007 " stroke="rgba(50,50,50,1)" stroke-width="2" fill="none"></path><path id="SvgjsPath1031" d="M0 0L319.5000000000009 0L319.5000000000009 108.00000000000011L0 108.00000000000011Z " stroke="none" fill="none"></path><g id="SvgjsG1032"><text id="SvgjsText1033" font-family="微软雅黑" text-anchor="middle" font-size="13px" width="300px" fill="#323232" font-weight="700" align="middle" lineHeight="125%" font-style="" opacity="1" y="4.375" transform="rotate(0)"><tspan id="SvgjsTspan1034" dy="16" x="160"><tspan id="SvgjsTspan1035" style="text-decoration:;fill: rgb(27, 94, 32);">resolve、internal-resolve</tspan></tspan></text></g><g id="SvgjsG1036"><text id="SvgjsText1037" font-family="微软雅黑" text-anchor="start" font-size="13px" width="300px" fill="#323232" font-weight="400" align="middle" lineHeight="125%" font-style="" opacity="1" y="35.375000000000036" transform="rotate(0)"><tspan id="SvgjsTspan1038" dy="16" x="10"><tspan id="SvgjsTspan1039" style="text-decoration:;fill: rgb(255, 0, 0);caret-color: rgb(255, 0, 0);text-decoration: underline;">UnsafeCachePlugin</tspan><tspan id="SvgjsTspan1040" style="text-decoration:;">: 判断是否有缓存，如果有缓存</tspan></tspan><tspan id="SvgjsTspan1041" dy="16" x="10"><tspan id="SvgjsTspan1042" style="text-decoration:;">直接返回结果，不执行下面的流程解析路径</tspan></tspan></text></g><g id="SvgjsG1043"><text id="SvgjsText1044" font-family="微软雅黑" text-anchor="start" font-size="13px" width="300px" fill="#323232" font-weight="400" align="middle" lineHeight="125%" font-style="" opacity="1" y="82.3750000000001" transform="rotate(0)"><tspan id="SvgjsTspan1045" dy="16" x="10"><tspan id="SvgjsTspan1046" style="text-decoration:;">     </tspan><tspan id="SvgjsTspan1047" style="text-decoration:;font-weight: bold;fill: rgb(27, 94, 32);">new-resolve、new-internal-resolve</tspan></tspan></text></g></g><g id="SvgjsG1048"><path id="SvgjsPath1049" d="M497.50669642857156 75.50992063492055L497.50669642857156 88.08134920634913L497.5066964285718 88.08134920634913L497.5066964285718 97.55277777777769 " stroke="#323232" stroke-width="2" fill="none" marker-end="url(#SvgjsMarker1050)"></path></g><g id="SvgjsG1052"><path id="SvgjsPath1053" d="M497.5066964285727 210.15277777777783L497.5066964285727 221.89682539682542L497.50669642857224 221.89682539682542L497.50669642857224 231.540873015873 " stroke="#323232" stroke-width="2" fill="none" marker-end="url(#SvgjsMarker1054)"></path></g><g id="SvgjsG1056" transform="translate(360.3638392857142,234.640873015873)"><path id="SvgjsPath1057" d="M0 21.35714285714286C0 -7.11904761904762 274.28571428571445 -7.11904761904762 274.28571428571445 21.35714285714286C274.28571428571445 49.83333333333334 0 49.83333333333334 0 21.35714285714286Z " stroke-dasharray="10,6" stroke="rgba(50,50,50,1)" stroke-width="1" fill-opacity="1" fill="#c8e6c9"></path><g id="SvgjsG1058"><text id="SvgjsText1059" font-family="微软雅黑" text-anchor="middle" font-size="13px" width="255px" fill="#323232" font-weight="400" align="middle" lineHeight="125%" font-style="" opacity="1" y="10.732142857142861" transform="rotate(0)"><tspan id="SvgjsTspan1060" dy="16" x="137.5"><tspan id="SvgjsTspan1061" style="text-decoration:;">     </tspan><tspan id="SvgjsTspan1062" style="text-decoration:;font-weight: bold;fill: rgb(27, 94, 32);">new-resolve、new-internal-resolve</tspan></tspan></text></g></g><g id="SvgjsG1063" transform="translate(336.5066964285711,302.9861111111111)"><path id="SvgjsPath1064" d="M0 4Q0 0 4 0L318.0000000000009 0Q322.0000000000009 0 322.0000000000009 4L322.0000000000009 134.621212121212Q322.0000000000009 138.621212121212 318.0000000000009 138.621212121212L4 138.621212121212Q0 138.621212121212 0 134.621212121212Z " stroke="rgba(50,50,50,1)" stroke-width="2" fill-opacity="1" fill="#ffffff"></path><path id="SvgjsPath1065" d="M0 30L322.0000000000009 30M0 108.99724517906328L322.0000000000009 108.99724517906328 " stroke="rgba(50,50,50,1)" stroke-width="2" fill="none"></path><path id="SvgjsPath1066" d="M0 0L322.0000000000009 0L322.0000000000009 138.621212121212L0 138.621212121212Z " stroke="none" fill="none"></path><g id="SvgjsG1067"><text id="SvgjsText1068" font-family="微软雅黑" text-anchor="middle" font-size="13px" width="303px" fill="#323232" font-weight="700" align="middle" lineHeight="125%" font-style="" opacity="1" y="4.375" transform="rotate(0)"><tspan id="SvgjsTspan1069" dy="16" x="161.5"><tspan id="SvgjsTspan1070" style="text-decoration:;font-weight: bold;fill: rgb(27, 94, 32);">new-resolve、new-internal-resolve</tspan></tspan></text></g><g id="SvgjsG1071"><text id="SvgjsText1072" font-family="微软雅黑" text-anchor="start" font-size="13px" width="303px" fill="#323232" font-weight="400" align="middle" lineHeight="125%" font-style="" opacity="1" y="34.87362258953164" transform="rotate(0)"><tspan id="SvgjsTspan1073" dy="16" x="10"><tspan id="SvgjsTspan1074" style="text-decoration:;text-decoration: underline;fill: rgb(255, 0, 0);">ParsePlugin</tspan><tspan id="SvgjsTspan1075" style="text-decoration:;">: 使用resolver.parse()，主要进行</tspan></tspan><tspan id="SvgjsTspan1076" dy="16" x="10"><tspan id="SvgjsTspan1077" style="text-decoration:;">request的解析类型(目录、库模块、内部)，最终得到</tspan></tspan><tspan id="SvgjsTspan1078" dy="16" x="10"><tspan id="SvgjsTspan1079" style="text-decoration:;">query(request携带的参数)、fragment(request携带</tspan></tspan><tspan id="SvgjsTspan1080" dy="16" x="10"><tspan id="SvgjsTspan1081" style="text-decoration:;">的参数)、internal、module、directory等变量赋值</tspan></tspan></text></g><g id="SvgjsG1082"><text id="SvgjsText1083" font-family="微软雅黑" text-anchor="start" font-size="13px" width="303px" fill="#323232" font-weight="400" align="middle" lineHeight="125%" font-style="" opacity="1" y="113.18422865013765" transform="rotate(0)"><tspan id="SvgjsTspan1084" dy="16" x="10"><tspan id="SvgjsTspan1085" style="text-decoration:;">                    </tspan><tspan id="SvgjsTspan1086" style="text-decoration:;fill: rgb(27, 94, 32);font-weight: bold;">parsed-resolve</tspan></tspan></text></g></g><g id="SvgjsG1087"><path id="SvgjsPath1088" d="M497.50669642857224 277.85515873015873L497.50669642857224 290.10383898508894L497.5066964285718 290.10383898508894L497.5066964285718 299.2525192400191 " stroke="#323232" stroke-width="2" fill="none" marker-end="url(#SvgjsMarker1089)"></path></g><g id="SvgjsG1091" transform="translate(440.00669642857156,462.4821428571429)"><path id="SvgjsPath1092" d="M0 25C0 -8.333333333333334 115 -8.333333333333334 115 25C115 58.333333333333336 0 58.333333333333336 0 25Z " stroke-dasharray="10,6" stroke="rgba(50,50,50,1)" stroke-width="1" fill-opacity="1" fill="#c8e6c9"></path><g id="SvgjsG1093"><text id="SvgjsText1094" font-family="微软雅黑" text-anchor="middle" font-size="13px" width="95px" fill="#323232" font-weight="400" align="middle" lineHeight="125%" font-style="" opacity="1" y="14.375" transform="rotate(0)"><tspan id="SvgjsTspan1095" dy="16" x="57.5"><tspan id="SvgjsTspan1096" style="text-decoration:;">parsed-resolve</tspan></tspan></text></g></g><g id="SvgjsG1097" transform="translate(204.5781250000008,538.375)"><path id="SvgjsPath1098" d="M0 4Q0 0 4 0L306.92857142857156 0Q310.92857142857156 0 310.92857142857156 4L310.92857142857156 135.5Q310.92857142857156 139.5 306.92857142857156 139.5L4 139.5Q0 139.5 0 135.5Z " stroke="rgba(50,50,50,1)" stroke-width="2" fill-opacity="1" fill="#ffffff"></path><path id="SvgjsPath1099" d="M0 30L310.92857142857156 30M0 109.63636363636364L310.92857142857156 109.63636363636364 " stroke="rgba(50,50,50,1)" stroke-width="2" fill="none"></path><path id="SvgjsPath1100" d="M0 0L310.92857142857156 0L310.92857142857156 139.5L0 139.5Z " stroke="none" fill="none"></path><g id="SvgjsG1101"><text id="SvgjsText1102" font-family="微软雅黑" text-anchor="middle" font-size="13px" width="291px" fill="#323232" font-weight="700" align="middle" lineHeight="125%" font-style="" opacity="1" y="4.375" transform="rotate(0)"><tspan id="SvgjsTspan1103" dy="16" x="155.5"><tspan id="SvgjsTspan1104" style="text-decoration:;fill: rgb(27, 94, 32);">parsed-resolve</tspan></tspan></text></g><g id="SvgjsG1105"><text id="SvgjsText1106" font-family="微软雅黑" text-anchor="start" font-size="13px" width="291px" fill="#323232" font-weight="400" align="middle" lineHeight="125%" font-style="" opacity="1" y="35.19318181818182" transform="rotate(0)"><tspan id="SvgjsTspan1107" dy="16" x="10"><tspan id="SvgjsTspan1108" style="text-decoration:;text-decoration: underline;fill: rgb(255, 0, 0);">DescriptionFilePlugin</tspan><tspan id="SvgjsTspan1109" style="text-decoration:;">: 使用DescriptionFileUtils，</tspan></tspan><tspan id="SvgjsTspan1110" dy="16" x="10"><tspan id="SvgjsTspan1111" style="text-decoration:;">获取package.json所在的目录，完整路径，解析后</tspan></tspan><tspan id="SvgjsTspan1112" dy="16" x="10"><tspan id="SvgjsTspan1113" style="text-decoration:;">的JSON数据以及以package.json为参照系的</tspan></tspan><tspan id="SvgjsTspan1114" dy="16" x="10"><tspan id="SvgjsTspan1115" style="text-decoration:;">request.relativePath路径</tspan></tspan></text></g><g id="SvgjsG1116"><text id="SvgjsText1117" font-family="微软雅黑" text-anchor="start" font-size="13px" width="291px" fill="#323232" font-weight="400" align="middle" lineHeight="125%" font-style="" opacity="1" y="113.94318181818183" transform="rotate(0)"><tspan id="SvgjsTspan1118" dy="16" x="10"><tspan id="SvgjsTspan1119" style="text-decoration:;">                  </tspan><tspan id="SvgjsTspan1120" style="text-decoration:;fill: rgb(27, 94, 32);font-weight: bold;">described-resolve</tspan></tspan></text></g></g><g id="SvgjsG1121" transform="translate(428.50669642857156,713.2321428571428)"><path id="SvgjsPath1122" d="M0 25C0 -8.333333333333334 138 -8.333333333333334 138 25C138 58.333333333333336 0 58.333333333333336 0 25Z " stroke-dasharray="10,6" stroke="rgba(50,50,50,1)" stroke-width="1" fill-opacity="1" fill="#c8e6c9"></path><g id="SvgjsG1123"><text id="SvgjsText1124" font-family="微软雅黑" text-anchor="middle" font-size="13px" width="118px" fill="#323232" font-weight="400" align="middle" lineHeight="125%" font-style="" opacity="1" y="14.375" transform="rotate(0)"><tspan id="SvgjsTspan1125" dy="16" x="69"><tspan id="SvgjsTspan1126" style="text-decoration:;">described-resolve</tspan></tspan></text></g></g><g id="SvgjsG1127" transform="translate(210.50669642857144,811.7321428571429)"><path id="SvgjsPath1128" d="M0 4Q0 0 4 0L276 0Q280 0 280 4L280 104Q280 108 276 108L4 108Q0 108 0 104Z " stroke="rgba(50,50,50,1)" stroke-width="2" fill-opacity="1" fill="#ffffff"></path><path id="SvgjsPath1129" d="M0 30L280 30M0 78L280 78 " stroke="rgba(50,50,50,1)" stroke-width="2" fill="none"></path><path id="SvgjsPath1130" d="M0 0L280 0L280 108L0 108Z " stroke="none" fill="none"></path><g id="SvgjsG1131"><text id="SvgjsText1132" font-family="微软雅黑" text-anchor="middle" font-size="13px" width="260px" fill="#323232" font-weight="700" align="middle" lineHeight="125%" font-style="" opacity="1" y="4.375" transform="rotate(0)"><tspan id="SvgjsTspan1133" dy="16" x="140"><tspan id="SvgjsTspan1134" style="text-decoration:;"> </tspan><tspan id="SvgjsTspan1135" style="text-decoration:;fill: rgb(27, 94, 32);font-weight: bold;">described-resolve</tspan></tspan></text></g><g id="SvgjsG1136"><text id="SvgjsText1137" font-family="微软雅黑" text-anchor="start" font-size="13px" width="260px" fill="#323232" font-weight="400" align="middle" lineHeight="125%" font-style="" opacity="1" y="27.375" transform="rotate(0)"><tspan id="SvgjsTspan1138" dy="16" x="10"><tspan id="SvgjsTspan1139" style="text-decoration:;text-decoration: underline;fill: rgb(255, 0, 0);">AliasPlugin</tspan><tspan id="SvgjsTspan1140" style="text-decoration:;">: 处理resolve.fallback参数，当正</tspan></tspan><tspan id="SvgjsTspan1141" dy="16" x="10"><tspan id="SvgjsTspan1142" style="text-decoration:;">常解析失败时，会去fallback寻找对应的替换</tspan></tspan><tspan id="SvgjsTspan1143" dy="16" x="10"><tspan id="SvgjsTspan1144" style="text-decoration:;">路径，fallback用于polyfill一些文件请求</tspan></tspan></text></g><g id="SvgjsG1145"><text id="SvgjsText1146" font-family="微软雅黑" text-anchor="start" font-size="13px" width="260px" fill="#323232" font-weight="400" align="middle" lineHeight="125%" font-style="" opacity="1" y="82.375" transform="rotate(0)"><tspan id="SvgjsTspan1147" dy="16" x="10"><tspan id="SvgjsTspan1148" style="text-decoration:;">                    </tspan><tspan id="SvgjsTspan1149" style="text-decoration:;fill: rgb(27, 94, 32);font-weight: bold;">internal-resolve</tspan></tspan></text></g></g><g id="SvgjsG1150" transform="translate(526.578125,542.7321428571429)"><path id="SvgjsPath1151" d="M0 4Q0 0 4 0L264.92857142857247 0Q268.92857142857247 0 268.92857142857247 4L268.92857142857247 82.64285714285711Q268.92857142857247 86.64285714285711 264.92857142857247 86.64285714285711L4 86.64285714285711Q0 86.64285714285711 0 82.64285714285711Z " stroke="rgba(50,50,50,1)" stroke-width="2" fill-opacity="1" fill="#ffffff"></path><path id="SvgjsPath1152" d="M0 30L268.92857142857247 30M0 58.321428571428555L268.92857142857247 58.321428571428555 " stroke="rgba(50,50,50,1)" stroke-width="2" fill="none"></path><path id="SvgjsPath1153" d="M0 0L268.92857142857247 0L268.92857142857247 86.64285714285711L0 86.64285714285711Z " stroke="none" fill="none"></path><g id="SvgjsG1154"><text id="SvgjsText1155" font-family="微软雅黑" text-anchor="middle" font-size="13px" width="249px" fill="#323232" font-weight="700" align="middle" lineHeight="125%" font-style="" opacity="1" y="4.375" transform="rotate(0)"><tspan id="SvgjsTspan1156" dy="16" x="134.5"><tspan id="SvgjsTspan1157" style="text-decoration:;fill: rgb(27, 94, 32);">after-parsed-resolve</tspan></tspan></text></g><g id="SvgjsG1158"><text id="SvgjsText1159" font-family="微软雅黑" text-anchor="start" font-size="13px" width="249px" fill="#323232" font-weight="400" align="middle" lineHeight="125%" font-style="" opacity="1" y="33.53571428571428" transform="rotate(0)"><tspan id="SvgjsTspan1160" dy="16" x="10"><tspan id="SvgjsTspan1161" style="text-decoration:;text-decoration: underline;fill: rgb(255, 0, 0);">NextPlugin</tspan><tspan id="SvgjsTspan1162" style="text-decoration:;">: 无内容，单纯调用doResolve</tspan></tspan></text></g><g id="SvgjsG1163"><text id="SvgjsText1164" font-family="微软雅黑" text-anchor="start" font-size="13px" width="249px" fill="#323232" font-weight="400" align="middle" lineHeight="125%" font-style="" opacity="1" y="61.85714285714283" transform="rotate(0)"><tspan id="SvgjsTspan1165" dy="16" x="10"><tspan id="SvgjsTspan1166" style="text-decoration:;">                  </tspan><tspan id="SvgjsTspan1167" style="text-decoration:;fill: rgb(27, 94, 32);font-weight: bold;">described-resolve</tspan></tspan></text></g></g><g id="SvgjsG1168"><path id="SvgjsPath1169" d="M497.5066964285718 512.9821428571429L497.5066964285718 522.8571428571429L497.5066964285718 522.8571428571429L497.5066964285718 529.6321428571429 " stroke="#323232" stroke-width="2" fill="none" marker-end="url(#SvgjsMarker1170)"></path></g><g id="SvgjsG1172"><path id="SvgjsPath1173" d="M497.5066964285718 442.4737313612311L497.5066964285718 451.977937109187L497.5066964285718 451.977937109187L497.5066964285718 459.38214285714287 " stroke="#323232" stroke-width="2" fill="none" marker-end="url(#SvgjsMarker1174)"></path></g><g id="SvgjsG1176"><path id="SvgjsPath1177" d="M497.5066964285718 689.2321428571429L497.5066964285718 700.7321428571429L497.50669642857156 700.7321428571429L497.50669642857156 710.1321428571428 " stroke="#323232" stroke-width="2" fill="none" marker-end="url(#SvgjsMarker1178)"></path></g><g id="SvgjsG1180"><path id="SvgjsPath1181" d="M497.50669642857156 763.7321428571428L497.50669642857156 775.7321428571429L497.5066964285718 775.7321428571429L497.5066964285718 784.6321428571429 " stroke="#323232" stroke-width="2" fill="none" marker-end="url(#SvgjsMarker1182)"></path></g><g id="SvgjsG1184" transform="translate(106.00669642857144,130.00992063492066)"><path id="SvgjsPath1185" d="M0 25C0 -8.333333333333334 123.5 -8.333333333333334 123.5 25C123.5 58.333333333333336 0 58.333333333333336 0 25Z " stroke-dasharray="10,6" stroke="rgba(50,50,50,1)" stroke-width="1" fill-opacity="1" fill="#c8e6c9"></path><g id="SvgjsG1186"><text id="SvgjsText1187" font-family="微软雅黑" text-anchor="middle" font-size="13px" width="104px" fill="#323232" font-weight="400" align="middle" lineHeight="125%" font-style="" opacity="1" y="14.375" transform="rotate(0)"><tspan id="SvgjsTspan1188" dy="16" x="62"><tspan id="SvgjsTspan1189" style="text-decoration:;">internal-resolve</tspan></tspan></text></g></g><g id="SvgjsG1190" transform="translate(598.0066964285725,958.9821428571427)"><path id="SvgjsPath1191" d="M0 25C0 -8.333333333333334 115 -8.333333333333334 115 25C115 58.333333333333336 0 58.333333333333336 0 25Z " stroke-dasharray="10,6" stroke="rgba(50,50,50,1)" stroke-width="1" fill-opacity="1" fill="#c8e6c9"></path><g id="SvgjsG1192"><text id="SvgjsText1193" font-family="微软雅黑" text-anchor="middle" font-size="13px" width="95px" fill="#323232" font-weight="400" align="middle" lineHeight="125%" font-style="" opacity="1" y="14.375" transform="rotate(0)"><tspan id="SvgjsTspan1194" dy="16" x="57.5"><tspan id="SvgjsTspan1195" style="text-decoration:;">raw-resolve</tspan></tspan></text></g></g><g id="SvgjsG1196" transform="translate(55.50669642857099,1067.2321428571427)"><path id="SvgjsPath1197" d="M0 4Q0 0 4 0L274.071428571429 0Q278.071428571429 0 278.071428571429 4L278.071428571429 113.14285714285734Q278.071428571429 117.14285714285734 274.071428571429 117.14285714285734L4 117.14285714285734Q0 117.14285714285734 0 113.14285714285734Z " stroke="rgba(50,50,50,1)" stroke-width="2" fill-opacity="1" fill="#ffffff"></path><path id="SvgjsPath1198" d="M0 30L278.071428571429 30M0 74.97695852534572L278.071428571429 74.97695852534572 " stroke="rgba(50,50,50,1)" stroke-width="2" fill="none"></path><path id="SvgjsPath1199" d="M0 0L278.071428571429 0L278.071428571429 117.14285714285734L0 117.14285714285734Z " stroke="none" fill="none"></path><g id="SvgjsG1200"><text id="SvgjsText1201" font-family="微软雅黑" text-anchor="middle" font-size="13px" width="259px" fill="#323232" font-weight="700" align="middle" lineHeight="125%" font-style="" opacity="1" y="4.375" transform="rotate(0)"><tspan id="SvgjsTspan1202" dy="16" x="139.5"><tspan id="SvgjsTspan1203" style="text-decoration:;fill: rgb(27, 94, 32);">raw-resolve</tspan></tspan></text></g><g id="SvgjsG1204"><text id="SvgjsText1205" font-family="微软雅黑" text-anchor="start" font-size="13px" width="259px" fill="#323232" font-weight="400" align="middle" lineHeight="125%" font-style="" opacity="1" y="33.86347926267286" transform="rotate(0)"><tspan id="SvgjsTspan1206" dy="16" x="10"><tspan id="SvgjsTspan1207" style="text-decoration:;text-decoration: underline;fill: rgb(255, 0, 0);">AliasPlugin</tspan><tspan id="SvgjsTspan1208" style="text-decoration:;">: 处理resolve.alias参数，替换路</tspan></tspan><tspan id="SvgjsTspan1209" dy="16" x="10"><tspan id="SvgjsTspan1210" style="text-decoration:;">径中的别名</tspan></tspan></text></g><g id="SvgjsG1211"><text id="SvgjsText1212" font-family="微软雅黑" text-anchor="start" font-size="13px" width="259px" fill="#323232" font-weight="400" align="middle" lineHeight="125%" font-style="" opacity="1" y="85.43490783410152" transform="rotate(0)"><tspan id="SvgjsTspan1213" dy="16" x="10"><tspan id="SvgjsTspan1214" style="text-decoration:;">                    </tspan><tspan id="SvgjsTspan1215" style="text-decoration:;fill: rgb(27, 94, 32);font-weight: bold;">internal-resolve</tspan></tspan></text></g></g><g id="SvgjsG1216"><path id="SvgjsPath1217" d="M655.506696428572 901.7321428571429L655.506696428572 930.3571428571427L655.5066964285727 930.3571428571427L655.5066964285727 955.8821428571428 " stroke="#323232" stroke-width="2" fill="none" marker-end="url(#SvgjsMarker1218)"></path></g><g id="SvgjsG1220" transform="translate(355.25669642857156,1067.2321428571427)"><path id="SvgjsPath1221" d="M0 4Q0 0 4 0L276 0Q280 0 280 4L280 152Q280 156 276 156L4 156Q0 156 0 152Z " stroke="rgba(50,50,50,1)" stroke-width="2" fill-opacity="1" fill="#ffffff"></path><path id="SvgjsPath1222" d="M0 30L280 30M0 126L280 126 " stroke="rgba(50,50,50,1)" stroke-width="2" fill="none"></path><path id="SvgjsPath1223" d="M0 0L280 0L280 156L0 156Z " stroke="none" fill="none"></path><g id="SvgjsG1224"><text id="SvgjsText1225" font-family="微软雅黑" text-anchor="middle" font-size="13px" width="260px" fill="#323232" font-weight="700" align="middle" lineHeight="125%" font-style="" opacity="1" y="4.375" transform="rotate(0)"><tspan id="SvgjsTspan1226" dy="16" x="140"><tspan id="SvgjsTspan1227" style="text-decoration:;fill: rgb(27, 94, 32);">raw-resolve</tspan></tspan></text></g><g id="SvgjsG1228"><text id="SvgjsText1229" font-family="微软雅黑" text-anchor="start" font-size="13px" width="260px" fill="#323232" font-weight="400" align="middle" lineHeight="125%" font-style="" opacity="1" y="27.375" transform="rotate(0)"><tspan id="SvgjsTspan1230" dy="16" x="10"><tspan id="SvgjsTspan1231" style="text-decoration:;text-decoration: underline;fill: rgb(255, 0, 0);">AliasFieldPlugin</tspan><tspan id="SvgjsTspan1232" style="text-decoration:;">: 处理resolve.aliasField参</tspan></tspan><tspan id="SvgjsTspan1233" dy="16" x="10"><tspan id="SvgjsTspan1234" style="text-decoration:;">数，aliasField在package.json中声明，用于</tspan></tspan><tspan id="SvgjsTspan1235" dy="16" x="10"><tspan id="SvgjsTspan1236" style="text-decoration:;">处理不同环境下的文件替换，比如浏览器环境</tspan></tspan><tspan id="SvgjsTspan1237" dy="16" x="10"><tspan id="SvgjsTspan1238" style="text-decoration:;">下，index.js-&gt;broswer/index.js；在node环</tspan></tspan><tspan id="SvgjsTspan1239" dy="16" x="10"><tspan id="SvgjsTspan1240" style="text-decoration:;">境，index.js-&gt;node/index.js，本质也是一种</tspan></tspan><tspan id="SvgjsTspan1241" dy="16" x="10"><tspan id="SvgjsTspan1242" style="text-decoration:;">别名替换</tspan></tspan></text></g><g id="SvgjsG1243"><text id="SvgjsText1244" font-family="微软雅黑" text-anchor="start" font-size="13px" width="260px" fill="#323232" font-weight="400" align="middle" lineHeight="125%" font-style="" opacity="1" y="130.375" transform="rotate(0)"><tspan id="SvgjsTspan1245" dy="16" x="10"><tspan id="SvgjsTspan1246" style="text-decoration:;">                    </tspan><tspan id="SvgjsTspan1247" style="text-decoration:;fill: rgb(27, 94, 32);font-weight: bold;">internal-resolve</tspan></tspan></text></g></g><g id="SvgjsG1248" transform="translate(655.006696428572,1067.2321428571427)"><path id="SvgjsPath1249" d="M0 4Q0 0 4 0L274.571428571428 0Q278.571428571428 0 278.571428571428 4L278.571428571428 140.14285714285734Q278.571428571428 144.14285714285734 274.571428571428 144.14285714285734L4 144.14285714285734Q0 144.14285714285734 0 140.14285714285734Z " stroke="rgba(50,50,50,1)" stroke-width="2" fill-opacity="1" fill="#ffffff"></path><path id="SvgjsPath1250" d="M0 30L278.571428571428 30M0 107.71428571428585L278.571428571428 107.71428571428585 " stroke="rgba(50,50,50,1)" stroke-width="2" fill="none"></path><path id="SvgjsPath1251" d="M0 0L278.571428571428 0L278.571428571428 144.14285714285734L0 144.14285714285734Z " stroke="none" fill="none"></path><g id="SvgjsG1252"><text id="SvgjsText1253" font-family="微软雅黑" text-anchor="middle" font-size="13px" width="259px" fill="#323232" font-weight="700" align="middle" lineHeight="125%" font-style="" opacity="1" y="4.375" transform="rotate(0)"><tspan id="SvgjsTspan1254" dy="16" x="139.5"><tspan id="SvgjsTspan1255" style="text-decoration:;fill: rgb(27, 94, 32);">raw-resolve</tspan></tspan></text></g><g id="SvgjsG1256"><text id="SvgjsText1257" font-family="微软雅黑" text-anchor="start" font-size="13px" width="259px" fill="#323232" font-weight="400" align="middle" lineHeight="125%" font-style="" opacity="1" y="34.232142857142925" transform="rotate(0)"><tspan id="SvgjsTspan1258" dy="16" x="10"><tspan id="SvgjsTspan1259" style="text-decoration:;text-decoration: underline;fill: rgb(255, 0, 0);">ExtensionAliasPlugin</tspan><tspan id="SvgjsTspan1260" style="text-decoration:;">: 处理</tspan></tspan><tspan id="SvgjsTspan1261" dy="16" x="10"><tspan id="SvgjsTspan1262" style="text-decoration:;">resolve.extensionAlias参数，主要是将一些</tspan></tspan><tspan id="SvgjsTspan1263" dy="16" x="10"><tspan id="SvgjsTspan1264" style="text-decoration:;">拓展名映射为拓展名别名，比如.js-&gt;.json这</tspan></tspan><tspan id="SvgjsTspan1265" dy="16" x="10"><tspan id="SvgjsTspan1266" style="text-decoration:;">种操作，本质也是一种别名替换</tspan></tspan></text></g><g id="SvgjsG1267"><text id="SvgjsText1268" font-family="微软雅黑" text-anchor="start" font-size="13px" width="259px" fill="#323232" font-weight="400" align="middle" lineHeight="125%" font-style="" opacity="1" y="115.30357142857159" transform="rotate(0)"><tspan id="SvgjsTspan1269" dy="16" x="10"><tspan id="SvgjsTspan1270" style="text-decoration:;">                    </tspan><tspan id="SvgjsTspan1271" style="text-decoration:;fill: rgb(27, 94, 32);font-weight: bold;">normal-resolve</tspan></tspan></text></g></g><g id="SvgjsG1272"><path id="SvgjsPath1273" d="M350.50669642857156 920.7321428571429L350.50669642857156 949.7321428571429L167.75669642857144 949.7321428571429L167.75669642857144 183.10992063492074 " stroke="#323232" stroke-width="2" fill="none" marker-end="url(#SvgjsMarker1274)"></path></g><g id="SvgjsG1276"><path id="SvgjsPath1277" d="M194.54241071428555 1185.5568988464954L194.54241071428555 1289.5568988464954L25.50669642857099 1289.5568988464954L25.50669642857099 155.00992063492066L102.90669642857142 155.00992063492066 " stroke="#323232" stroke-width="2" fill="none" marker-end="url(#SvgjsMarker1278)"></path></g><g id="SvgjsG1280"><path id="SvgjsPath1281" d="M495.2566964285718 1224.375L495.2566964285718 1289.375L25.006696428571445 1289.375L25.006696428571445 155.00992063492066L102.90669642857142 155.00992063492066 " stroke="#323232" stroke-width="2" fill="none" marker-end="url(#SvgjsMarker1282)"></path></g><g id="SvgjsG1284"><path id="SvgjsPath1285" d="M230.00669642857144 155.00992063492066L283.63169642857133 155.00992063492066L283.63169642857133 155.15277777777777L334.1566964285712 155.15277777777777 " stroke="#323232" stroke-width="2" fill="none" marker-end="url(#SvgjsMarker1286)"></path></g><g id="SvgjsG1288" transform="translate(946.0066964285718,1067.2321428571427)"><path id="SvgjsPath1289" d="M0 4Q0 0 4 0L160 0Q164 0 164 4L164 120Q164 124 160 124L4 124Q0 124 0 120Z " stroke="rgba(50,50,50,1)" stroke-width="2" fill-opacity="1" fill="#ffffff"></path><path id="SvgjsPath1290" d="M0 30L164 30M0 94L164 94 " stroke="rgba(50,50,50,1)" stroke-width="2" fill="none"></path><path id="SvgjsPath1291" d="M0 0L164 0L164 124L0 124Z " stroke="none" fill="none"></path><g id="SvgjsG1292"><text id="SvgjsText1293" font-family="微软雅黑" text-anchor="middle" font-size="13px" width="144px" fill="#323232" font-weight="700" align="middle" lineHeight="125%" font-style="" opacity="1" y="4.375" transform="rotate(0)"><tspan id="SvgjsTspan1294" dy="16" x="82"><tspan id="SvgjsTspan1295" style="text-decoration:;fill: rgb(27, 94, 32);">raw-resolve</tspan></tspan></text></g><g id="SvgjsG1296"><text id="SvgjsText1297" font-family="微软雅黑" text-anchor="start" font-size="13px" width="144px" fill="#323232" font-weight="400" align="middle" lineHeight="125%" font-style="" opacity="1" y="27.375" transform="rotate(0)"><tspan id="SvgjsTspan1298" dy="16" x="10"><tspan id="SvgjsTspan1299" style="text-decoration:;"> </tspan></tspan><tspan id="SvgjsTspan1300" dy="16" x="10"><tspan id="SvgjsTspan1301" style="text-decoration:;text-decoration: underline; color: rgb(50, 50, 50);fill: rgb(255, 0, 0);">NextPlugin</tspan><tspan id="SvgjsTspan1302" style="text-decoration:;text-decoration: none; color: rgb(50, 50, 50);">: </tspan><tspan id="SvgjsTspan1303" style="text-decoration:;color: rgb(50, 50, 50);">无内容，单</tspan></tspan><tspan id="SvgjsTspan1304" dy="16" x="10"><tspan id="SvgjsTspan1305" style="text-decoration:;color: rgb(50, 50, 50);">纯调用doResolve</tspan></tspan><tspan id="SvgjsTspan1306" dy="16" x="10"><tspan id="SvgjsTspan1307" style="text-decoration:;"> </tspan></tspan></text></g><g id="SvgjsG1308"><text id="SvgjsText1309" font-family="微软雅黑" text-anchor="start" font-size="13px" width="144px" fill="#323232" font-weight="400" align="middle" lineHeight="125%" font-style="" opacity="1" y="98.375" transform="rotate(0)"><tspan id="SvgjsTspan1310" dy="16" x="10"><tspan id="SvgjsTspan1311" style="text-decoration:;">      </tspan><tspan id="SvgjsTspan1312" style="text-decoration:;fill: rgb(27, 94, 32);font-weight: bold;">normal-resolve</tspan></tspan></text></g></g><g id="SvgjsG1313" transform="translate(441.25669642857156,1317.2321428571424)"><path id="SvgjsPath1314" d="M0 25C0 -8.333333333333334 138 -8.333333333333334 138 25C138 58.333333333333336 0 58.333333333333336 0 25Z " stroke-dasharray="10,6" stroke="rgba(50,50,50,1)" stroke-width="1" fill-opacity="1" fill="#c8e6c9"></path><g id="SvgjsG1315"><text id="SvgjsText1316" font-family="微软雅黑" text-anchor="middle" font-size="13px" width="118px" fill="#323232" font-weight="400" align="middle" lineHeight="125%" font-style="" opacity="1" y="14.375" transform="rotate(0)"><tspan id="SvgjsTspan1317" dy="16" x="69"><tspan id="SvgjsTspan1318" style="text-decoration:;">normal-resolve</tspan></tspan></text></g></g><g id="SvgjsG1319"><path id="SvgjsPath1320" d="M794.292410714286 1212.5410631994737L794.292410714286 1255.386603028308L510.256696428572 1255.386603028308L510.256696428572 1314.1321428571425 " stroke="#323232" stroke-width="2" fill="none" marker-end="url(#SvgjsMarker1321)"></path></g><g id="SvgjsG1323"><path id="SvgjsPath1324" d="M1028.006696428571 1192.375L1028.006696428571 1255.303571428571L510.256696428572 1255.303571428571L510.256696428572 1314.1321428571425 " stroke="#323232" stroke-width="2" fill="none" marker-end="url(#SvgjsMarker1325)"></path></g><g id="SvgjsG1327"><path id="SvgjsPath1328" d="M655.5066964285727 1009.4821428571427L655.5066964285727 1026.1580982711553L500.6799579771498 1026.1580982711553L500.6799579771498 1047.7340536851682 " stroke="#323232" stroke-width="2" fill="none" marker-end="url(#SvgjsMarker1329)"></path></g><g id="SvgjsG1331" transform="translate(687.6430600649351,325.375)"><path id="SvgjsPath1332" d="M0 0L170.11688311688295 0L186.11688311688295 16L186.11688311688295 93.84343434343418L0 93.84343434343418L0 0Z " stroke="none" fill-opacity="1" fill="#fff9c4"></path><path id="SvgjsPath1333" d="M170.11688311688295 0L170.11688311688295 16L186.11688311688295 16Z " stroke="none" fill-opacity="1" fill="#cdcdcd"></path><path id="SvgjsPath1334" d="M0 0L170.11688311688295 0L186.11688311688295 16L186.11688311688295 93.84343434343418L0 93.84343434343418L0 0Z " stroke="none" fill="none"></path><g id="SvgjsG1335"><text id="SvgjsText1336" font-family="微软雅黑" text-anchor="start" font-size="13px" width="167px" fill="#323232" font-weight="400" align="middle" lineHeight="125%" font-style="" opacity="1" y="20.29671717171709" transform="rotate(0)"><tspan id="SvgjsTspan1337" dy="16" x="10"><tspan id="SvgjsTspan1338" style="text-decoration:;fill: rgb(255, 0, 0);">fragment</tspan><tspan id="SvgjsTspan1339" style="text-decoration:;">就是</tspan></tspan><tspan id="SvgjsTspan1340" dy="16" x="10"><tspan id="SvgjsTspan1341" style="text-decoration:;">https://domain/index#test</tspan></tspan><tspan id="SvgjsTspan1342" dy="16" x="10"><tspan id="SvgjsTspan1343" style="text-decoration:;">的"#test"</tspan></tspan></text></g></g><g id="SvgjsG1344"><path id="SvgjsPath1345" d="M659.506696428572 372.1631253006251L673.0748782467535 372.1631253006251L673.0748782467535 372.2967171717173L685.0430600649352 372.2967171717173 " stroke="#323232" stroke-width="2" fill="none" marker-end="url(#SvgjsMarker1346)"></path></g><g id="SvgjsG1348" transform="translate(515.5066964285725,811.7321428571429)"><path id="SvgjsPath1349" d="M0 4Q0 0 4 0L276 0Q280 0 280 4L280 86Q280 90 276 90L4 90Q0 90 0 86Z " stroke="rgba(50,50,50,1)" stroke-width="2" fill-opacity="1" fill="#ffffff"></path><path id="SvgjsPath1350" d="M0 30L280 30M0 60L280 60 " stroke="rgba(50,50,50,1)" stroke-width="2" fill="none"></path><path id="SvgjsPath1351" d="M0 0L280 0L280 90L0 90Z " stroke="none" fill="none"></path><g id="SvgjsG1352"><text id="SvgjsText1353" font-family="微软雅黑" text-anchor="middle" font-size="13px" width="260px" fill="#323232" font-weight="700" align="middle" lineHeight="125%" font-style="" opacity="1" y="4.375" transform="rotate(0)"><tspan id="SvgjsTspan1354" dy="16" x="140"><tspan id="SvgjsTspan1355" style="text-decoration:;"> </tspan><tspan id="SvgjsTspan1356" style="text-decoration:;fill: rgb(27, 94, 32);font-weight: bold;">described-resolve</tspan></tspan></text></g><g id="SvgjsG1357"><text id="SvgjsText1358" font-family="微软雅黑" text-anchor="start" font-size="13px" width="260px" fill="#323232" font-weight="400" align="middle" lineHeight="125%" font-style="" opacity="1" y="34.375" transform="rotate(0)"><tspan id="SvgjsTspan1359" dy="16" x="10"><tspan id="SvgjsTspan1360" style="text-decoration:;text-decoration: underline;fill: rgb(255, 0, 0);">NextPlugin</tspan><tspan id="SvgjsTspan1361" style="text-decoration:;">: 无内容，单纯调用doResolve</tspan></tspan></text></g><g id="SvgjsG1362"><text id="SvgjsText1363" font-family="微软雅黑" text-anchor="start" font-size="13px" width="260px" fill="#323232" font-weight="400" align="middle" lineHeight="125%" font-style="" opacity="1" y="64.375" transform="rotate(0)"><tspan id="SvgjsTspan1364" dy="16" x="10"><tspan id="SvgjsTspan1365" style="text-decoration:;">                       </tspan><tspan id="SvgjsTspan1366" style="text-decoration:;fill: rgb(27, 94, 32);font-weight: bold;">raw-resolve</tspan></tspan></text></g></g><g id="SvgjsG1367" transform="translate(31.756696428571445,814.375)"><path id="SvgjsPath1368" d="M0 0L98.17857142857144 0L114.17857142857144 16L114.17857142857144 102L0 102L0 0Z " stroke="none" fill-opacity="1" fill="#fff9c4"></path><path id="SvgjsPath1369" d="M98.17857142857144 0L98.17857142857144 16L114.17857142857144 16Z " stroke="none" fill-opacity="1" fill="#cdcdcd"></path><path id="SvgjsPath1370" d="M0 0L98.17857142857144 0L114.17857142857144 16L114.17857142857144 102L0 102L0 0Z " stroke="none" fill="none"></path><g id="SvgjsG1371"><text id="SvgjsText1372" font-family="微软雅黑" text-anchor="middle" font-size="12px" width="95px" fill="#323232" font-weight="700" align="middle" lineHeight="125%" font-style="" opacity="1" y="26" transform="rotate(0)"><tspan id="SvgjsTspan1373" dy="15" x="57.5"><tspan id="SvgjsTspan1374" style="text-decoration:;">resolve.fallback:</tspan></tspan><tspan id="SvgjsTspan1375" dy="15" x="57.5"><tspan id="SvgjsTspan1376" style="text-decoration:;">正常解析失败时</tspan></tspan><tspan id="SvgjsTspan1377" dy="15" x="57.5"><tspan id="SvgjsTspan1378" style="text-decoration:;">重定向模块请求</tspan></tspan></text></g></g><g id="SvgjsG1379"><path id="SvgjsPath1380" d="M209.50669642857144 865.7321428571429L178.2209821428571 865.7321428571429L178.2209821428571 865.375L148.5352678571429 865.375 " stroke="#323232" stroke-width="2" fill="none" marker-end="url(#SvgjsMarker1381)"></path></g></svg>