<svg id="SvgjsSvg1860" xmlns="http://www.w3.org/2000/svg" version="1.1" xmlns:xlink="http://www.w3.org/1999/xlink" xmlns:svgjs="http://svgjs.com/svgjs" width="1103.5" height="841.5"><defs id="SvgjsDefs1861"><marker id="SvgjsMarker1905" markerWidth="14" markerHeight="10" refX="10" refY="5" viewBox="0 0 14 10" orient="auto" markerUnits="userSpaceOnUse" stroke-dasharray="0,0"><path id="SvgjsPath1906" d="M0 0L14 5L0 10L0 0 " fill="#323232" stroke="#323232" stroke-width="1"></path></marker><marker id="SvgjsMarker1909" markerWidth="14" markerHeight="10" refX="10" refY="5" viewBox="0 0 14 10" orient="auto" markerUnits="userSpaceOnUse" stroke-dasharray="0,0"><path id="SvgjsPath1910" d="M0 0L14 5L0 10L0 0 " fill="#323232" stroke="#323232" stroke-width="1"></path></marker><marker id="SvgjsMarker1913" markerWidth="14" markerHeight="10" refX="10" refY="5" viewBox="0 0 14 10" orient="auto" markerUnits="userSpaceOnUse" stroke-dasharray="0,0"><path id="SvgjsPath1914" d="M0 0L14 5L0 10L0 0 " fill="#323232" stroke="#323232" stroke-width="1"></path></marker><marker id="SvgjsMarker1935" markerWidth="14" markerHeight="10" refX="10" refY="5" viewBox="0 0 14 10" orient="auto" markerUnits="userSpaceOnUse" stroke-dasharray="0,0"><path id="SvgjsPath1936" d="M0 0L14 5L0 10L0 0 " fill="#323232" stroke="#323232" stroke-width="1"></path></marker><marker id="SvgjsMarker1939" markerWidth="14" markerHeight="10" refX="10" refY="5" viewBox="0 0 14 10" orient="auto" markerUnits="userSpaceOnUse" stroke-dasharray="0,0"><path id="SvgjsPath1940" d="M0 0L14 5L0 10L0 0 " fill="#323232" stroke="#323232" stroke-width="1"></path></marker><marker id="SvgjsMarker1943" markerWidth="14" markerHeight="10" refX="10" refY="5" viewBox="0 0 14 10" orient="auto" markerUnits="userSpaceOnUse" stroke-dasharray="0,0"><path id="SvgjsPath1944" d="M0 0L14 5L0 10L0 0 " fill="#323232" stroke="#323232" stroke-width="1"></path></marker><marker id="SvgjsMarker1953" markerWidth="14" markerHeight="10" refX="10" refY="5" viewBox="0 0 14 10" orient="auto" markerUnits="userSpaceOnUse" stroke-dasharray="0,0"><path id="SvgjsPath1954" d="M0 0L14 5L0 10L0 0 " fill="#323232" stroke="#323232" stroke-width="1"></path></marker><marker id="SvgjsMarker1957" markerWidth="14" markerHeight="10" refX="10" refY="5" viewBox="0 0 14 10" orient="auto" markerUnits="userSpaceOnUse" stroke-dasharray="0,0"><path id="SvgjsPath1958" d="M0 0L14 5L0 10L0 0 " fill="#323232" stroke="#323232" stroke-width="1"></path></marker><marker id="SvgjsMarker2051" markerWidth="14" markerHeight="10" refX="10" refY="5" viewBox="0 0 14 10" orient="auto" markerUnits="userSpaceOnUse" stroke-dasharray="0,0"><path id="SvgjsPath2052" d="M0 0L14 5L0 10L0 0 " fill="#323232" stroke="#323232" stroke-width="1"></path></marker><marker id="SvgjsMarker2087" markerWidth="14" markerHeight="10" refX="10" refY="5" viewBox="0 0 14 10" orient="auto" markerUnits="userSpaceOnUse" stroke-dasharray="0,0"><path id="SvgjsPath2088" d="M0 0L14 5L0 10L0 0 " fill="#323232" stroke="#323232" stroke-width="1"></path></marker><marker id="SvgjsMarker2103" markerWidth="14" markerHeight="10" refX="10" refY="5" viewBox="0 0 14 10" orient="auto" markerUnits="userSpaceOnUse" stroke-dasharray="0,0"><path id="SvgjsPath2104" d="M0 0L14 5L0 10L0 0 " fill="#323232" stroke="#323232" stroke-width="1"></path></marker><marker id="SvgjsMarker2117" markerWidth="14" markerHeight="10" refX="10" refY="5" viewBox="0 0 14 10" orient="auto" markerUnits="userSpaceOnUse" stroke-dasharray="0,0"><path id="SvgjsPath2118" d="M0 0L14 5L0 10L0 0 " fill="#323232" stroke="#323232" stroke-width="1"></path></marker><marker id="SvgjsMarker2121" markerWidth="14" markerHeight="10" refX="10" refY="5" viewBox="0 0 14 10" orient="auto" markerUnits="userSpaceOnUse" stroke-dasharray="0,0"><path id="SvgjsPath2122" d="M0 0L14 5L0 10L0 0 " fill="#323232" stroke="#323232" stroke-width="1"></path></marker><marker id="SvgjsMarker2125" markerWidth="14" markerHeight="10" refX="10" refY="5" viewBox="0 0 14 10" orient="auto" markerUnits="userSpaceOnUse" stroke-dasharray="0,0"><path id="SvgjsPath2126" d="M0 0L14 5L0 10L0 0 " fill="#323232" stroke="#323232" stroke-width="1"></path></marker><pattern patternUnits="userSpaceOnUse" id="pattern_mark" width="300" height="300"><text x="-50" y="150" fill="rgba(229,229,229,0.8)" font-size="18" transform="rotate(-45, 150, 150)">https://github.com/wbccb</text></pattern></defs><g id="svgbackgroundid"><defs></defs><rect id="SvgjsRect1863" width="1103.5" height="841.5" fill="#ffffff"></rect></g><rect fill="url(#pattern_mark)" transform="translate(-4.5,-17)" width="2116" height="1500" id="rect_mark" pointer-events="none"></rect><g id="SvgjsG1865" transform="translate(226.5,501.5)"><path id="SvgjsPath1866" d="M0 0L845 0L845 314.5L0 314.5Z " stroke-dasharray="10,6" stroke="rgba(50,50,50,1)" stroke-width="2" fill-opacity="1" fill="#f5f5f5"></path><g id="SvgjsG1867"><text id="SvgjsText1868" font-family="微软雅黑" text-anchor="middle" font-size="13px" width="825px" fill="#323232" font-weight="400" align="middle" lineHeight="125%" font-style="" opacity="1" y="146.625" transform="rotate(0)"></text></g></g><g id="SvgjsG1869" transform="translate(226.5,276.25)"><path id="SvgjsPath1870" d="M0 0L845 0L845 208L0 208Z " stroke-dasharray="10,6" stroke="rgba(50,50,50,1)" stroke-width="2" fill-opacity="1" fill="#bbdefb"></path><g id="SvgjsG1871"><text id="SvgjsText1872" font-family="微软雅黑" text-anchor="middle" font-size="13px" width="825px" fill="#323232" font-weight="400" align="middle" lineHeight="125%" font-style="" opacity="1" y="93.375" transform="rotate(0)"></text></g></g><g id="SvgjsG1873" transform="translate(380.5,25)"><path id="SvgjsPath1874" d="M0 35C0 -11.666666666666666 83 -11.666666666666666 83 35C83 81.66666666666667 0 81.66666666666667 0 35Z " stroke="rgba(50,50,50,1)" stroke-width="2" fill-opacity="1" fill="#ffffff"></path><g id="SvgjsG1875"><text id="SvgjsText1876" font-family="微软雅黑" text-anchor="middle" font-size="13px" width="63px" fill="#323232" font-weight="400" align="middle" lineHeight="125%" font-style="" opacity="1" y="24.375" transform="rotate(0)"><tspan id="SvgjsTspan1877" dy="16" x="41.5"><tspan id="SvgjsTspan1878" style="text-decoration:;">entry1.js</tspan></tspan></text></g></g><g id="SvgjsG1879" transform="translate(855.5,26)"><path id="SvgjsPath1880" d="M0 34C0 -11.333333333333334 80 -11.333333333333334 80 34C80 79.33333333333333 0 79.33333333333333 0 34Z " stroke="rgba(50,50,50,1)" stroke-width="2" fill-opacity="1" fill="#ffffff"></path><g id="SvgjsG1881"><text id="SvgjsText1882" font-family="微软雅黑" text-anchor="middle" font-size="13px" width="60px" fill="#323232" font-weight="400" align="middle" lineHeight="125%" font-style="" opacity="1" y="23.375" transform="rotate(0)"><tspan id="SvgjsTspan1883" dy="16" x="40"><tspan id="SvgjsTspan1884" style="text-decoration:;">entry2.js</tspan></tspan></text></g></g><g id="SvgjsG1885" transform="translate(253.5,184)"><path id="SvgjsPath1886" d="M0 0L100 0L100 70L0 70Z " stroke="rgba(50,50,50,1)" stroke-width="2" fill-opacity="1" fill="#c8e6c9"></path><g id="SvgjsG1887"><text id="SvgjsText1888" font-family="微软雅黑" text-anchor="middle" font-size="13px" width="80px" fill="#323232" font-weight="400" align="middle" lineHeight="125%" font-style="" opacity="1" y="24.375" transform="rotate(0)"><tspan id="SvgjsTspan1889" dy="16" x="50"><tspan id="SvgjsTspan1890" style="text-decoration:;">entry1_a.js</tspan></tspan></text></g></g><g id="SvgjsG1891" transform="translate(372,184)"><path id="SvgjsPath1892" d="M0 0L100 0L100 70L0 70Z " stroke="rgba(50,50,50,1)" stroke-width="2" fill-opacity="1" fill="#ffe0b2"></path><g id="SvgjsG1893"><text id="SvgjsText1894" font-family="微软雅黑" text-anchor="middle" font-size="13px" width="80px" fill="#323232" font-weight="400" align="middle" lineHeight="125%" font-style="" opacity="1" y="24.375" transform="rotate(0)"><tspan id="SvgjsTspan1895" dy="16" x="50"><tspan id="SvgjsTspan1896" style="text-decoration:;">entry1_b.js</tspan></tspan></text></g></g><g id="SvgjsG1897" transform="translate(490.5,184)"><path id="SvgjsPath1898" d="M0 0L100 0L100 70L0 70Z " stroke="rgba(50,50,50,1)" stroke-width="2" fill-opacity="1" fill="#ffcdd2"></path><g id="SvgjsG1899"><text id="SvgjsText1900" font-family="微软雅黑" text-anchor="middle" font-size="13px" width="80px" fill="#323232" font-weight="400" align="middle" lineHeight="125%" font-style="" opacity="1" y="24.375" transform="rotate(0)"><tspan id="SvgjsTspan1901" dy="16" x="50"><tspan id="SvgjsTspan1902" style="text-decoration:;">common_g.js</tspan></tspan></text></g></g><g id="SvgjsG1903"><path id="SvgjsPath1904" d="M422 96L422 139.5L303.5 139.5L303.5 180.4 " stroke="#323232" stroke-width="2" fill="none" marker-end="url(#SvgjsMarker1905)"></path></g><g id="SvgjsG1907"><path id="SvgjsPath1908" d="M422 96L422 139.5L422 139.5L422 180.4 " stroke="#323232" stroke-width="2" fill="none" marker-end="url(#SvgjsMarker1909)"></path></g><g id="SvgjsG1911"><path id="SvgjsPath1912" d="M422 96L422 139.5L540.5 139.5L540.5 180.4 " stroke="#323232" stroke-width="2" fill="none" marker-end="url(#SvgjsMarker1913)"></path></g><g id="SvgjsG1915" transform="translate(727.5,189)"><path id="SvgjsPath1916" d="M0 0L100 0L100 70L0 70Z " stroke="rgba(50,50,50,1)" stroke-width="2" fill-opacity="1" fill="#e1bee7"></path><g id="SvgjsG1917"><text id="SvgjsText1918" font-family="微软雅黑" text-anchor="middle" font-size="13px" width="80px" fill="#323232" font-weight="400" align="middle" lineHeight="125%" font-style="" opacity="1" y="24.375" transform="rotate(0)"><tspan id="SvgjsTspan1919" dy="16" x="50"><tspan id="SvgjsTspan1920" style="text-decoration:;">entry2_aa.js</tspan></tspan></text></g></g><g id="SvgjsG1921" transform="translate(845.5,189)"><path id="SvgjsPath1922" d="M0 0L100 0L100 70L0 70Z " stroke="rgba(50,50,50,1)" stroke-width="2" fill-opacity="1" fill="#ffe0b2"></path><g id="SvgjsG1923"><text id="SvgjsText1924" font-family="微软雅黑" text-anchor="middle" font-size="13px" width="80px" fill="#323232" font-weight="400" align="middle" lineHeight="125%" font-style="" opacity="1" y="24.375" transform="rotate(0)"><tspan id="SvgjsTspan1925" dy="16" x="50"><tspan id="SvgjsTspan1926" style="text-decoration:;">entry1_b.js</tspan></tspan></text></g></g><g id="SvgjsG1927" transform="translate(963.5,189)"><path id="SvgjsPath1928" d="M0 0L100 0L100 70L0 70Z " stroke="rgba(50,50,50,1)" stroke-width="2" fill-opacity="1" fill="#ffcdd2"></path><g id="SvgjsG1929"><text id="SvgjsText1930" font-family="微软雅黑" text-anchor="middle" font-size="13px" width="80px" fill="#323232" font-weight="400" align="middle" lineHeight="125%" font-style="" opacity="1" y="24.375" transform="rotate(0)"><tspan id="SvgjsTspan1931" dy="16" x="50"><tspan id="SvgjsTspan1932" style="text-decoration:;">common_g.js</tspan></tspan></text></g></g><g id="SvgjsG1933"><path id="SvgjsPath1934" d="M895.5 95L895.5 141.5L777.5 141.5L777.5 185.4 " stroke="#323232" stroke-width="2" fill="none" marker-end="url(#SvgjsMarker1935)"></path></g><g id="SvgjsG1937"><path id="SvgjsPath1938" d="M895.5 95L895.5 141.5L895.5 141.5L895.5 185.4 " stroke="#323232" stroke-width="2" fill="none" marker-end="url(#SvgjsMarker1939)"></path></g><g id="SvgjsG1941"><path id="SvgjsPath1942" d="M895.5 95L895.5 141.5L1013.5 141.5L1013.5 185.4 " stroke="#323232" stroke-width="2" fill="none" marker-end="url(#SvgjsMarker1943)"></path></g><g id="SvgjsG1945" transform="translate(613,177)"><path id="SvgjsPath1946" d="M0 36C0 -12 92 -12 92 36C92 84 0 84 0 36Z " stroke="rgba(50,50,50,1)" stroke-width="2" fill-opacity="1" fill="#ff0000"></path><g id="SvgjsG1947"><text id="SvgjsText1948" font-family="微软雅黑" text-anchor="middle" font-size="13px" width="72px" fill="#ffffff" font-weight="400" align="middle" lineHeight="125%" font-style="" opacity="1" y="25.375" transform="rotate(0)"><tspan id="SvgjsTspan1949" dy="16" x="46"><tspan id="SvgjsTspan1950" style="text-decoration:;">async_B.js</tspan></tspan></text></g></g><g id="SvgjsG1951"><path id="SvgjsPath1952" d="M464.5 60L659 60L659 173.4 " stroke-dasharray="10,5,3,5" stroke="#323232" stroke-width="2" fill="none" marker-end="url(#SvgjsMarker1953)"></path></g><g id="SvgjsG1955"><path id="SvgjsPath1956" d="M854.5 60L659 60L659 173.4 " stroke-dasharray="10,5,3,5" stroke="#323232" stroke-width="2" fill="none" marker-end="url(#SvgjsMarker1957)"></path></g><g id="SvgjsG1959" transform="translate(461.5,26)"><path id="SvgjsPath1960" d="M0 0L120 0L120 40L0 40Z " stroke="none" fill="none"></path><g id="SvgjsG1961"><text id="SvgjsText1962" font-family="微软雅黑" text-anchor="middle" font-size="13px" width="120px" fill="#323232" font-weight="400" align="middle" lineHeight="125%" font-style="" opacity="1" y="9.375" transform="rotate(0)"><tspan id="SvgjsTspan1963" dy="16" x="60"><tspan id="SvgjsTspan1964" style="text-decoration:;">异步依赖</tspan></tspan></text></g></g><g id="SvgjsG1965" transform="translate(707.5,25)"><path id="SvgjsPath1966" d="M0 0L120 0L120 40L0 40Z " stroke="none" fill="none"></path><g id="SvgjsG1967"><text id="SvgjsText1968" font-family="微软雅黑" text-anchor="middle" font-size="13px" width="120px" fill="#323232" font-weight="400" align="middle" lineHeight="125%" font-style="" opacity="1" y="9.375" transform="rotate(0)"><tspan id="SvgjsTspan1969" dy="16" x="60"><tspan id="SvgjsTspan1970" style="text-decoration:;">异步依赖</tspan></tspan></text></g></g><g id="SvgjsG1971" transform="translate(393.5,94)"><path id="SvgjsPath1972" d="M0 0L120 0L120 40L0 40Z " stroke="none" fill="none"></path><g id="SvgjsG1973"><text id="SvgjsText1974" font-family="微软雅黑" text-anchor="middle" font-size="13px" width="120px" fill="#323232" font-weight="400" align="middle" lineHeight="125%" font-style="" opacity="1" y="9.375" transform="rotate(0)"><tspan id="SvgjsTspan1975" dy="16" x="60"><tspan id="SvgjsTspan1976" style="text-decoration:;">同步依赖</tspan></tspan></text></g></g><g id="SvgjsG1977" transform="translate(865.5,94)"><path id="SvgjsPath1978" d="M0 0L120 0L120 40L0 40Z " stroke="none" fill="none"></path><g id="SvgjsG1979"><text id="SvgjsText1980" font-family="微软雅黑" text-anchor="middle" font-size="13px" width="120px" fill="#323232" font-weight="400" align="middle" lineHeight="125%" font-style="" opacity="1" y="9.375" transform="rotate(0)"><tspan id="SvgjsTspan1981" dy="16" x="60"><tspan id="SvgjsTspan1982" style="text-decoration:;">同步依赖</tspan></tspan></text></g></g><g id="SvgjsG1983" transform="translate(25,369)"><path id="SvgjsPath1984" d="M0 0L196 0L196 40L0 40Z " stroke="none" fill="none"></path><g id="SvgjsG1985"><text id="SvgjsText1986" font-family="微软雅黑" text-anchor="middle" font-size="16px" width="196px" fill="#ff0000" font-weight="700" align="middle" lineHeight="125%" font-style="" opacity="1" y="6" transform="rotate(0)"><tspan id="SvgjsTspan1987" dy="20" x="98"><tspan id="SvgjsTspan1988" style="text-decoration:;">processConnectQueue</tspan></tspan></text></g></g><g id="SvgjsG1989" transform="translate(253.5,312)"><path id="SvgjsPath1990" d="M0 0L339 0L355 16L355 81L0 81L0 0Z " stroke="none" fill-opacity="1" fill="#fff9c4"></path><path id="SvgjsPath1991" d="M339 0L339 16L355 16Z " stroke="none" fill-opacity="1" fill="#cdcdcd"></path><path id="SvgjsPath1992" d="M0 0L339 0L355 16L355 81L0 81L0 0Z " stroke="none" fill="none"></path><g id="SvgjsG1993"><text id="SvgjsText1994" font-family="微软雅黑" text-anchor="start" font-size="13px" width="335px" fill="#323232" font-weight="400" align="middle" lineHeight="125%" font-style="" opacity="1" y="5.875" transform="rotate(0)"><tspan id="SvgjsTspan1995" dy="16" x="10"><tspan id="SvgjsTspan1996" style="text-decoration:;">queueconnect: {</tspan></tspan><tspan id="SvgjsTspan1997" dy="16" x="10"><tspan id="SvgjsTspan1998" style="text-decoration:;">    // Map&lt;&lt;ChunkGroupInfo, Set&lt;ChunkGroupInfo&gt;&gt;&gt;</tspan></tspan><tspan id="SvgjsTspan1999" dy="16" x="10"><tspan id="SvgjsTspan2000" style="text-decoration:;">    "entry1.js": [["async_B.js"]]</tspan></tspan><tspan id="SvgjsTspan2001" dy="16" x="10"><tspan id="SvgjsTspan2002" style="text-decoration:;">}</tspan></tspan></text></g></g><g id="SvgjsG2003" transform="translate(710,312.75)"><path id="SvgjsPath2004" d="M0 0L337.5 0L353.5 16L353.5 79.5L0 79.5L0 0Z " stroke="none" fill-opacity="1" fill="#fff9c4"></path><path id="SvgjsPath2005" d="M337.5 0L337.5 16L353.5 16Z " stroke="none" fill-opacity="1" fill="#cdcdcd"></path><path id="SvgjsPath2006" d="M0 0L337.5 0L353.5 16L353.5 79.5L0 79.5L0 0Z " stroke="none" fill="none"></path><g id="SvgjsG2007"><text id="SvgjsText2008" font-family="微软雅黑" text-anchor="start" font-size="13px" width="334px" fill="#323232" font-weight="400" align="middle" lineHeight="125%" font-style="" opacity="1" y="5.125" transform="rotate(0)"><tspan id="SvgjsTspan2009" dy="16" x="10"><tspan id="SvgjsTspan2010" style="text-decoration:;">queueconnect: {</tspan></tspan><tspan id="SvgjsTspan2011" dy="16" x="10"><tspan id="SvgjsTspan2012" style="text-decoration:;">    // Map&lt;&lt;ChunkGroupInfo, Set&lt;ChunkGroupInfo&gt;&gt;&gt;</tspan></tspan><tspan id="SvgjsTspan2013" dy="16" x="10"><tspan id="SvgjsTspan2014" style="text-decoration:;">    "entry2.js": [["async_B.js"]]</tspan></tspan><tspan id="SvgjsTspan2015" dy="16" x="10"><tspan id="SvgjsTspan2016" style="text-decoration:;">}</tspan></tspan></text></g></g><g id="SvgjsG2017" transform="translate(253.5,399)"><path id="SvgjsPath2018" d="M0 0L287 0L303 16L303 75L0 75L0 0Z " stroke="none" fill-opacity="1" fill="#fff9c4"></path><path id="SvgjsPath2019" d="M287 0L287 16L303 16Z " stroke="none" fill-opacity="1" fill="#cdcdcd"></path><path id="SvgjsPath2020" d="M0 0L287 0L303 16L303 75L0 75L0 0Z " stroke="none" fill="none"></path><g id="SvgjsG2021"><text id="SvgjsText2022" font-family="微软雅黑" text-anchor="middle" font-size="13px" width="283px" fill="#323232" font-weight="400" align="middle" lineHeight="125%" font-style="" opacity="1" y="10.875" transform="rotate(0)"><tspan id="SvgjsTspan2023" dy="16" x="151.5"><tspan id="SvgjsTspan2024" style="text-decoration:;">计算出resultingAvailableModules=</tspan></tspan><tspan id="SvgjsTspan2025" dy="16" x="151.5"><tspan id="SvgjsTspan2026" style="text-decoration:;">['./src/entry1.js', './item/entry1_a.js', </tspan></tspan><tspan id="SvgjsTspan2027" dy="16" x="151.5"><tspan id="SvgjsTspan2028" style="text-decoration:;">'./item/entry1_b.js', './item/common_____g.js']</tspan></tspan></text></g></g><g id="SvgjsG2029" transform="translate(748.5,399.75)"><path id="SvgjsPath2030" d="M0 0L284 0L300 16L300 73.5L0 73.5L0 0Z " stroke="none" fill-opacity="1" fill="#fff9c4"></path><path id="SvgjsPath2031" d="M284 0L284 16L300 16Z " stroke="none" fill-opacity="1" fill="#cdcdcd"></path><path id="SvgjsPath2032" d="M0 0L284 0L300 16L300 73.5L0 73.5L0 0Z " stroke="none" fill="none"></path><g id="SvgjsG2033"><text id="SvgjsText2034" font-family="微软雅黑" text-anchor="middle" font-size="13px" width="280px" fill="#323232" font-weight="400" align="middle" lineHeight="125%" font-style="" opacity="1" y="10.125" transform="rotate(0)"><tspan id="SvgjsTspan2035" dy="16" x="150"><tspan id="SvgjsTspan2036" style="text-decoration:;">计算出resultingAvailableModules=</tspan></tspan><tspan id="SvgjsTspan2037" dy="16" x="150"><tspan id="SvgjsTspan2038" style="text-decoration:;">['./src/entry2.js', './item/entry2_aa.js', </tspan></tspan><tspan id="SvgjsTspan2039" dy="16" x="150"><tspan id="SvgjsTspan2040" style="text-decoration:;">'./item/entry1_b.js', './item/common_____g.js']</tspan></tspan></text></g></g><g id="SvgjsG2041" transform="translate(408.25,259)"><path id="SvgjsPath2042" d="M9.075000000000001 0L18.425 0L18.425 32.25L27.5 32.25L13.75 46L0 32.25L9.075000000000001 32.25L9.075000000000001 0Z " stroke="rgba(50,50,50,1)" stroke-width="2" fill-opacity="1" fill="#ffffff"></path><g id="SvgjsG2043"><text id="SvgjsText2044" font-family="微软雅黑" text-anchor="middle" font-size="13px" width="39px" fill="#323232" font-weight="400" align="middle" lineHeight="125%" font-style="" opacity="1" y="10.075000000000001" transform="rotate(0)"></text></g></g><g id="SvgjsG2045" transform="translate(880,262)"><path id="SvgjsPath2046" d="M10.23 0L20.77 0L20.77 33.5L31 33.5L15.5 49L0 33.5L10.23 33.5L10.23 0Z " stroke="rgba(50,50,50,1)" stroke-width="2" fill-opacity="1" fill="#ffffff"></path><g id="SvgjsG2047"><text id="SvgjsText2048" font-family="微软雅黑" text-anchor="middle" font-size="13px" width="44px" fill="#323232" font-weight="400" align="middle" lineHeight="125%" font-style="" opacity="1" y="11.425" transform="rotate(0)"></text></g></g><g id="SvgjsG2049"><path id="SvgjsPath2050" d="M659 250L659 326.875L659 326.875L659 401.15 " stroke="#323232" stroke-width="2" fill="none" marker-end="url(#SvgjsMarker2051)"></path></g><g id="SvgjsG2053" transform="translate(585.125,404.75)"><path id="SvgjsPath2054" d="M0 0L147.75 0L147.75 63.5L0 63.5Z " stroke="none" fill="none"></path><g id="SvgjsG2055"><text id="SvgjsText2056" font-family="微软雅黑" text-anchor="middle" font-size="12px" width="148px" fill="#ff0000" font-weight="700" align="middle" lineHeight="125%" font-style="" opacity="1" y="-0.75" transform="rotate(0)"><tspan id="SvgjsTspan2057" dy="15" x="74"><tspan id="SvgjsTspan2058" style="text-decoration:;">chunkGroupsForMerging</tspan></tspan><tspan id="SvgjsTspan2059" dy="15" x="74"><tspan id="SvgjsTspan2060" style="text-decoration:;">= "async_B"对应的</tspan></tspan><tspan id="SvgjsTspan2061" dy="15" x="74"><tspan id="SvgjsTspan2062" style="text-decoration:;">ChunkGroupInfo</tspan></tspan><tspan id="SvgjsTspan2063" dy="15" x="74"><tspan id="SvgjsTspan2064" style="text-decoration:;"> </tspan></tspan></text></g></g><g id="SvgjsG2065" transform="translate(33,590.5)"><path id="SvgjsPath2066" d="M0 0L180 0L180 51.5L0 51.5Z " stroke="none" fill="none"></path><g id="SvgjsG2067"><text id="SvgjsText2068" font-family="微软雅黑" text-anchor="middle" font-size="16px" width="180px" fill="#ff0000" font-weight="700" align="middle" lineHeight="125%" font-style="" opacity="1" y="1.75" transform="rotate(0)"><tspan id="SvgjsTspan2069" dy="20" x="90"><tspan id="SvgjsTspan2070" style="text-decoration:;">processChunkGroupsF</tspan></tspan><tspan id="SvgjsTspan2071" dy="20" x="90"><tspan id="SvgjsTspan2072" style="text-decoration:;">orMerging</tspan></tspan></text></g></g><g id="SvgjsG2073" transform="translate(242,584)"><path id="SvgjsPath2074" d="M0 0L310 0L326 16L326 87L0 87L0 0Z " stroke="none" fill-opacity="1" fill="#ffe0b2"></path><path id="SvgjsPath2075" d="M310 0L310 16L326 16Z " stroke="none" fill-opacity="1" fill="#cdcdcd"></path><path id="SvgjsPath2076" d="M0 0L310 0L326 16L326 87L0 87L0 0Z " stroke="none" fill="none"></path><g id="SvgjsG2077"><text id="SvgjsText2078" font-family="微软雅黑" text-anchor="middle" font-size="13px" width="306px" fill="#323232" font-weight="400" align="middle" lineHeight="125%" font-style="" opacity="1" y="16.875" transform="rotate(0)"><tspan id="SvgjsTspan2079" dy="16" x="163"><tspan id="SvgjsTspan2080" style="text-decoration:;">cachedMinAvailableModules=</tspan></tspan><tspan id="SvgjsTspan2081" dy="16" x="163"><tspan id="SvgjsTspan2082" style="text-decoration:;">['./src/entry1.js', './item/entry1_a.js', </tspan></tspan><tspan id="SvgjsTspan2083" dy="16" x="163"><tspan id="SvgjsTspan2084" style="text-decoration:;">'./item/entry1_b.js', './item/common_____g.js']</tspan></tspan></text></g></g><g id="SvgjsG2085"><path id="SvgjsPath2086" d="M405 474L405 529L405 529L405 581.4 " stroke="#323232" stroke-width="2" fill="none" marker-end="url(#SvgjsMarker2087)"></path></g><g id="SvgjsG2089" transform="translate(729.25,584)"><path id="SvgjsPath2090" d="M0 0L322.5 0L338.5 16L338.5 87L0 87L0 0Z " stroke="none" fill-opacity="1" fill="#ffe0b2"></path><path id="SvgjsPath2091" d="M322.5 0L322.5 16L338.5 16Z " stroke="none" fill-opacity="1" fill="#cdcdcd"></path><path id="SvgjsPath2092" d="M0 0L322.5 0L338.5 16L338.5 87L0 87L0 0Z " stroke="none" fill="none"></path><g id="SvgjsG2093"><text id="SvgjsText2094" font-family="微软雅黑" text-anchor="middle" font-size="13px" width="319px" fill="#323232" font-weight="400" align="middle" lineHeight="125%" font-style="" opacity="1" y="16.875" transform="rotate(0)"><tspan id="SvgjsTspan2095" dy="16" x="169.5"><tspan id="SvgjsTspan2096" style="text-decoration:;">availableModules=</tspan></tspan><tspan id="SvgjsTspan2097" dy="16" x="169.5"><tspan id="SvgjsTspan2098" style="text-decoration:;">['./src/entry2.js', './item/entry2_aa.js', </tspan></tspan><tspan id="SvgjsTspan2099" dy="16" x="169.5"><tspan id="SvgjsTspan2100" style="text-decoration:;">'./item/entry1_b.js', './item/common_____g.js']</tspan></tspan></text></g></g><g id="SvgjsG2101"><path id="SvgjsPath2102" d="M898.5 473.25L898.5 528.625L898.5 528.625L898.5 581.4 " stroke="#323232" stroke-width="2" fill="none" marker-end="url(#SvgjsMarker2103)"></path></g><g id="SvgjsG2105" transform="translate(494,731.5)"><path id="SvgjsPath2106" d="M0 0L314 0L330 16L330 66.5L0 66.5L0 0Z " stroke="none" fill-opacity="1" fill="#fff9c4"></path><path id="SvgjsPath2107" d="M314 0L314 16L330 16Z " stroke="none" fill-opacity="1" fill="#cdcdcd"></path><path id="SvgjsPath2108" d="M0 0L314 0L330 16L330 66.5L0 66.5L0 0Z " stroke="none" fill="none"></path><g id="SvgjsG2109"><text id="SvgjsText2110" font-family="微软雅黑" text-anchor="middle" font-size="13px" width="310px" fill="#323232" font-weight="400" align="middle" lineHeight="125%" font-style="" opacity="1" y="14.625" transform="rotate(0)"><tspan id="SvgjsTspan2111" dy="16" x="165"><tspan id="SvgjsTspan2112" style="text-decoration:;">计算出并集：</tspan></tspan><tspan id="SvgjsTspan2113" dy="16" x="165"><tspan id="SvgjsTspan2114" style="text-decoration:;">['./item/entry1_b.js', './item/common_____g.js']</tspan></tspan></text></g></g><g id="SvgjsG2115"><path id="SvgjsPath2116" d="M405 671L405 764.75L491.4 764.75 " stroke="#323232" stroke-width="2" fill="none" marker-end="url(#SvgjsMarker2117)"></path></g><g id="SvgjsG2119"><path id="SvgjsPath2120" d="M898.5 671L898.5 764.75L826.6 764.75 " stroke="#323232" stroke-width="2" fill="none" marker-end="url(#SvgjsMarker2121)"></path></g><g id="SvgjsG2123"><path id="SvgjsPath2124" d="M659 469.25L659 599.875L659 599.875L659 728.9 " stroke="#323232" stroke-width="2" fill="none" marker-end="url(#SvgjsMarker2125)"></path></g><g id="SvgjsG2127" transform="translate(548.5,683)"><path id="SvgjsPath2128" d="M0 0L289 0L289 43L0 43Z " stroke="none" fill="none"></path><g id="SvgjsG2129"><text id="SvgjsText2130" font-family="微软雅黑" text-anchor="middle" font-size="13px" width="289px" fill="#ff0000" font-weight="700" align="middle" lineHeight="125%" font-style="" opacity="1" y="10.875" transform="rotate(0)"><tspan id="SvgjsTspan2131" dy="16" x="144.5"><tspan id="SvgjsTspan2132" style="text-decoration:;">ChunkGroupInfo.minAvailableModules = 并集</tspan></tspan></text></g></g><g id="SvgjsG2133" transform="translate(274.5,510)"><path id="SvgjsPath2134" d="M0 0L325 0L325 43L0 43Z " stroke="none" fill="none"></path><g id="SvgjsG2135"><text id="SvgjsText2136" font-family="微软雅黑" text-anchor="middle" font-size="13px" width="325px" fill="#323232" font-weight="400" align="middle" lineHeight="125%" font-style="" opacity="1" y="10.875" transform="rotate(0)"><tspan id="SvgjsTspan2137" dy="16" x="162.5"><tspan id="SvgjsTspan2138" style="text-decoration:;">ChunkGroupInfo.availableModulesToBeMerged</tspan></tspan></text></g></g><g id="SvgjsG2139" transform="translate(748.5,513)"><path id="SvgjsPath2140" d="M0 0L330 0L330 37L0 37Z " stroke="none" fill="none"></path><g id="SvgjsG2141"><text id="SvgjsText2142" font-family="微软雅黑" text-anchor="middle" font-size="13px" width="330px" fill="#323232" font-weight="400" align="middle" lineHeight="125%" font-style="" opacity="1" y="7.875" transform="rotate(0)"><tspan id="SvgjsTspan2143" dy="16" x="165"><tspan id="SvgjsTspan2144" style="text-decoration:;">ChunkGroupInfo.availableModulesToBeMerged</tspan></tspan></text></g></g></svg>