<svg id="SvgjsSvg1645" xmlns="http://www.w3.org/2000/svg" version="1.1" xmlns:xlink="http://www.w3.org/1999/xlink" xmlns:svgjs="http://svgjs.com/svgjs" width="909" height="1082"><defs id="SvgjsDefs1646"><marker id="SvgjsMarker1766" markerWidth="14" markerHeight="10" refX="10" refY="5" viewBox="0 0 14 10" orient="auto" markerUnits="userSpaceOnUse" stroke-dasharray="0,0"><path id="SvgjsPath1767" d="M0 0L14 5L0 10L0 0 " fill="#323232" stroke="#323232" stroke-width="1"></path></marker><marker id="SvgjsMarker1867" markerWidth="14" markerHeight="10" refX="10" refY="5" viewBox="0 0 14 10" orient="auto" markerUnits="userSpaceOnUse" stroke-dasharray="0,0"><path id="SvgjsPath1868" d="M0 0L14 5L0 10L0 0 " fill="#323232" stroke="#323232" stroke-width="1"></path></marker><marker id="SvgjsMarker1871" markerWidth="14" markerHeight="10" refX="10" refY="5" viewBox="0 0 14 10" orient="auto" markerUnits="userSpaceOnUse" stroke-dasharray="0,0"><path id="SvgjsPath1872" d="M0 0L14 5L0 10L0 0 " fill="#323232" stroke="#323232" stroke-width="1"></path></marker><pattern patternUnits="userSpaceOnUse" id="pattern_mark" width="300" height="300"><text x="-50" y="150" fill="rgba(229,229,229,0.8)" font-size="18" transform="rotate(-45, 150, 150)">https://github.com/wbccb</text></pattern></defs><g id="svgbackgroundid"><defs></defs><rect id="SvgjsRect1648" width="909" height="1082" fill="#ffffff"></rect></g><rect fill="url(#pattern_mark)" transform="translate(-87,-6)" width="1319" height="1083" id="rect_mark" pointer-events="none"></rect><g id="SvgjsG1650" transform="matrix(-1.8369701987210297e-16,-1,1,-1.8369701987210297e-16,280,127.00000000000003)"><path id="SvgjsPath1651" d="M0 424Q9 424 9 415L9 221Q9 212 22 212Q9 212 9 203L9 9Q9 0 0 0 " stroke="rgba(50,50,50,1)" stroke-width="2" fill="none"></path><path id="SvgjsPath1652" d="M0 0L102 0L102 424L0 424Z " stroke="none" fill="none"></path><g id="SvgjsG1653"><text id="SvgjsText1654" font-family="微软雅黑" text-anchor="start" font-size="13px" width="75px" fill="#323232" font-weight="400" align="middle" lineHeight="125%" font-style="" opacity="1" y="201.375" transform="rotate(0)"></text></g></g><g id="SvgjsG1655" transform="translate(134,440.9999999999999)"><path id="SvgjsPath1656" d="M0 0L652 0L652 616L0 616Z " stroke="rgba(50,50,50,1)" stroke-width="2" fill-opacity="1" fill="#ffffff"></path><g id="SvgjsG1657"><text id="SvgjsText1658" font-family="微软雅黑" text-anchor="middle" font-size="13px" width="632px" fill="#323232" font-weight="400" align="middle" lineHeight="125%" font-style="" opacity="1" y="297.375" transform="rotate(0)"></text></g></g><g id="SvgjsG1659" transform="translate(264,798.9999999999999)"><path id="SvgjsPath1660" d="M0 0L374 0L374 243L0 243Z " stroke-dasharray="10,6" stroke="rgba(50,50,50,1)" stroke-width="2" fill-opacity="1" fill="#ffffff"></path><g id="SvgjsG1661"><text id="SvgjsText1662" font-family="微软雅黑" text-anchor="middle" font-size="13px" width="354px" fill="#323232" font-weight="400" align="middle" lineHeight="125%" font-style="" opacity="1" y="110.875" transform="rotate(0)"></text></g></g><g id="SvgjsG1663" transform="translate(439,830.9999999999999)"><path id="SvgjsPath1664" d="M0 0L184 0L184 199L0 199Z " stroke-dasharray="10,6,3,6" stroke="rgba(0,0,0,1)" stroke-width="2" fill-opacity="1" fill="#ffcdd2"></path><g id="SvgjsG1665"><text id="SvgjsText1666" font-family="微软雅黑" text-anchor="middle" font-size="13px" width="164px" fill="#323232" font-weight="400" align="middle" lineHeight="125%" font-style="" opacity="1" y="88.875" transform="rotate(0)"></text></g></g><g id="SvgjsG1667" transform="matrix(-1.8369701987210297e-16,-1,1,-1.8369701987210297e-16,24.999999999999943,297.0000000000001)"><path id="SvgjsPath1668" d="M0 297.0000000000001Q8 297.0000000000001 8 288.0000000000001L8 157.50000000000006Q8 148.50000000000006 22 148.50000000000006Q8 148.50000000000006 8 139.50000000000006L8 9Q8 0 0 0 " stroke="rgba(50,50,50,1)" stroke-width="2" fill="none"></path><path id="SvgjsPath1669" d="M0 0L80 0L80 297.0000000000001L0 297.0000000000001Z " stroke="none" fill="none"></path><g id="SvgjsG1670"><text id="SvgjsText1671" font-family="微软雅黑" text-anchor="start" font-size="13px" width="53px" fill="#323232" font-weight="400" align="middle" lineHeight="125%" font-style="" opacity="1" y="137.87500000000006" transform="rotate(0)"></text></g></g><g id="SvgjsG1672" transform="translate(121,226)"><path id="SvgjsPath1673" d="M0 0L106 0L106 41L0 41Z " stroke="rgba(50,50,50,1)" stroke-width="2" fill-opacity="1" fill="#ffffff"></path><g id="SvgjsG1674"><text id="SvgjsText1675" font-family="微软雅黑" text-anchor="middle" font-size="13px" width="86px" fill="#323232" font-weight="400" align="middle" lineHeight="125%" font-style="" opacity="1" y="9.875" transform="rotate(0)"><tspan id="SvgjsTspan1676" dy="16" x="53"><tspan id="SvgjsTspan1677" style="text-decoration:;">js-cookie</tspan></tspan></text></g></g><g id="SvgjsG1678" transform="translate(35,303)"><path id="SvgjsPath1679" d="M0 35C0 -11.666666666666666 70 -11.666666666666666 70 35C70 81.66666666666667 0 81.66666666666667 0 35Z " stroke="rgba(50,50,50,1)" stroke-width="2" fill-opacity="1" fill="#bbdefb"></path><g id="SvgjsG1680"><text id="SvgjsText1681" font-family="微软雅黑" text-anchor="middle" font-size="13px" width="50px" fill="#323232" font-weight="400" align="middle" lineHeight="125%" font-style="" opacity="1" y="24.375" transform="rotate(0)"><tspan id="SvgjsTspan1682" dy="16" x="35"><tspan id="SvgjsTspan1683" style="text-decoration:;">app1</tspan></tspan></text></g></g><g id="SvgjsG1684" transform="translate(139,303)"><path id="SvgjsPath1685" d="M0 35C0 -11.666666666666666 70 -11.666666666666666 70 35C70 81.66666666666667 0 81.66666666666667 0 35Z " stroke="rgba(50,50,50,1)" stroke-width="2" fill-opacity="1" fill="#ffcdd2"></path><g id="SvgjsG1686"><text id="SvgjsText1687" font-family="微软雅黑" text-anchor="middle" font-size="13px" width="50px" fill="#323232" font-weight="400" align="middle" lineHeight="125%" font-style="" opacity="1" y="24.375" transform="rotate(0)"><tspan id="SvgjsTspan1688" dy="16" x="35"><tspan id="SvgjsTspan1689" style="text-decoration:;">app2</tspan></tspan></text></g></g><g id="SvgjsG1690" transform="translate(255,303)"><path id="SvgjsPath1691" d="M0 35C0 -11.666666666666666 70 -11.666666666666666 70 35C70 81.66666666666667 0 81.66666666666667 0 35Z " stroke="rgba(50,50,50,1)" stroke-width="2" fill-opacity="1" fill="#fff9c4"></path><g id="SvgjsG1692"><text id="SvgjsText1693" font-family="微软雅黑" text-anchor="middle" font-size="13px" width="50px" fill="#323232" font-weight="400" align="middle" lineHeight="125%" font-style="" opacity="1" y="24.375" transform="rotate(0)"><tspan id="SvgjsTspan1694" dy="16" x="35"><tspan id="SvgjsTspan1695" style="text-decoration:;">app3</tspan></tspan></text></g></g><g id="SvgjsG1696" transform="matrix(-1.8369701987210297e-16,-1,1,-1.8369701987210297e-16,356,296)"><path id="SvgjsPath1697" d="M0 190Q7.9 190 7.9 181L7.9 104Q7.9 95 22 95Q7.9 95 7.9 86L7.9 9Q7.9 0 0 0 " stroke="rgba(50,50,50,1)" stroke-width="2" fill="none"></path><path id="SvgjsPath1698" d="M0 0L79 0L79 190L0 190Z " stroke="none" fill="none"></path><g id="SvgjsG1699"><text id="SvgjsText1700" font-family="微软雅黑" text-anchor="start" font-size="13px" width="52px" fill="#323232" font-weight="400" align="middle" lineHeight="125%" font-style="" opacity="1" y="84.375" transform="rotate(0)"></text></g></g><g id="SvgjsG1701" transform="translate(398,226)"><path id="SvgjsPath1702" d="M0 0L106 0L106 41L0 41Z " stroke="rgba(50,50,50,1)" stroke-width="2" fill-opacity="1" fill="#ffffff"></path><g id="SvgjsG1703"><text id="SvgjsText1704" font-family="微软雅黑" text-anchor="middle" font-size="13px" width="86px" fill="#323232" font-weight="400" align="middle" lineHeight="125%" font-style="" opacity="1" y="9.875" transform="rotate(0)"><tspan id="SvgjsTspan1705" dy="16" x="53"><tspan id="SvgjsTspan1706" style="text-decoration:;">loadsh</tspan></tspan></text></g></g><g id="SvgjsG1707" transform="translate(362.5,303)"><path id="SvgjsPath1708" d="M0 35C0 -11.666666666666666 70 -11.666666666666666 70 35C70 81.66666666666667 0 81.66666666666667 0 35Z " stroke="rgba(50,50,50,1)" stroke-width="2" fill-opacity="1" fill="#bbdefb"></path><g id="SvgjsG1709"><text id="SvgjsText1710" font-family="微软雅黑" text-anchor="middle" font-size="13px" width="50px" fill="#323232" font-weight="400" align="middle" lineHeight="125%" font-style="" opacity="1" y="24.375" transform="rotate(0)"><tspan id="SvgjsTspan1711" dy="16" x="35"><tspan id="SvgjsTspan1712" style="text-decoration:;">app1</tspan></tspan></text></g></g><g id="SvgjsG1713" transform="translate(470,303)"><path id="SvgjsPath1714" d="M0 35C0 -11.666666666666666 70 -11.666666666666666 70 35C70 81.66666666666667 0 81.66666666666667 0 35Z " stroke="rgba(50,50,50,1)" stroke-width="2" fill-opacity="1" fill="#ffcdd2"></path><g id="SvgjsG1715"><text id="SvgjsText1716" font-family="微软雅黑" text-anchor="middle" font-size="13px" width="50px" fill="#323232" font-weight="400" align="middle" lineHeight="125%" font-style="" opacity="1" y="24.375" transform="rotate(0)"><tspan id="SvgjsTspan1717" dy="16" x="35"><tspan id="SvgjsTspan1718" style="text-decoration:;">app2</tspan></tspan></text></g></g><g id="SvgjsG1719" transform="matrix(-1.8369701987210297e-16,-1,1,-1.8369701987210297e-16,576,296.5000000000001)"><path id="SvgjsPath1720" d="M0 297.0000000000001Q8 297.0000000000001 8 288.0000000000001L8 157.50000000000006Q8 148.50000000000006 22 148.50000000000006Q8 148.50000000000006 8 139.50000000000006L8 9Q8 0 0 0 " stroke="rgba(50,50,50,1)" stroke-width="2" fill="none"></path><path id="SvgjsPath1721" d="M0 0L80 0L80 297.0000000000001L0 297.0000000000001Z " stroke="none" fill="none"></path><g id="SvgjsG1722"><text id="SvgjsText1723" font-family="微软雅黑" text-anchor="start" font-size="13px" width="53px" fill="#323232" font-weight="400" align="middle" lineHeight="125%" font-style="" opacity="1" y="137.87500000000006" transform="rotate(0)"></text></g></g><g id="SvgjsG1724" transform="translate(672,226)"><path id="SvgjsPath1725" d="M0 0L106 0L106 41L0 41Z " stroke="rgba(50,50,50,1)" stroke-width="2" fill-opacity="1" fill="#ffffff"></path><g id="SvgjsG1726"><text id="SvgjsText1727" font-family="微软雅黑" text-anchor="middle" font-size="13px" width="86px" fill="#323232" font-weight="400" align="middle" lineHeight="125%" font-style="" opacity="1" y="9.875" transform="rotate(0)"><tspan id="SvgjsTspan1728" dy="16" x="53"><tspan id="SvgjsTspan1729" style="text-decoration:;">voca</tspan></tspan></text></g></g><g id="SvgjsG1730" transform="translate(584,302.49999999999994)"><path id="SvgjsPath1731" d="M0 35C0 -11.666666666666666 70 -11.666666666666666 70 35C70 81.66666666666667 0 81.66666666666667 0 35Z " stroke="rgba(50,50,50,1)" stroke-width="2" fill-opacity="1" fill="#ffcdd2"></path><g id="SvgjsG1732"><text id="SvgjsText1733" font-family="微软雅黑" text-anchor="middle" font-size="13px" width="50px" fill="#323232" font-weight="400" align="middle" lineHeight="125%" font-style="" opacity="1" y="24.375" transform="rotate(0)"><tspan id="SvgjsTspan1734" dy="16" x="35"><tspan id="SvgjsTspan1735" style="text-decoration:;">app2</tspan></tspan></text></g></g><g id="SvgjsG1736" transform="translate(690,302.49999999999994)"><path id="SvgjsPath1737" d="M0 35C0 -11.666666666666666 70 -11.666666666666666 70 35C70 81.66666666666667 0 81.66666666666667 0 35Z " stroke="rgba(50,50,50,1)" stroke-width="2" fill-opacity="1" fill="#fff9c4"></path><g id="SvgjsG1738"><text id="SvgjsText1739" font-family="微软雅黑" text-anchor="middle" font-size="13px" width="50px" fill="#323232" font-weight="400" align="middle" lineHeight="125%" font-style="" opacity="1" y="24.375" transform="rotate(0)"><tspan id="SvgjsTspan1740" dy="16" x="35"><tspan id="SvgjsTspan1741" style="text-decoration:;">app3</tspan></tspan></text></g></g><g id="SvgjsG1742" transform="translate(804,302.49999999999994)"><path id="SvgjsPath1743" d="M0 35C0 -11.666666666666666 70 -11.666666666666666 70 35C70 81.66666666666667 0 81.66666666666667 0 35Z " stroke="rgba(50,50,50,1)" stroke-width="2" fill-opacity="1" fill="#ffffff"></path><g id="SvgjsG1744"><text id="SvgjsText1745" font-family="微软雅黑" text-anchor="middle" font-size="13px" width="50px" fill="#323232" font-weight="400" align="middle" lineHeight="125%" font-style="" opacity="1" y="24.375" transform="rotate(0)"><tspan id="SvgjsTspan1746" dy="16" x="35"><tspan id="SvgjsTspan1747" style="text-decoration:;">app4</tspan></tspan></text></g></g><g id="SvgjsG1748" transform="translate(357,531.9999999999999)"><path id="SvgjsPath1749" d="M0 0L188 0L188 54L0 54Z " stroke="rgba(50,50,50,1)" stroke-width="2" fill-opacity="1" fill="#ffffff"></path><g id="SvgjsG1750"><text id="SvgjsText1751" font-family="微软雅黑" text-anchor="middle" font-size="13px" width="168px" fill="#323232" font-weight="400" align="middle" lineHeight="125%" font-style="" opacity="1" y="8.375" transform="rotate(0)"><tspan id="SvgjsTspan1752" dy="16" x="94"><tspan id="SvgjsTspan1753" style="text-decoration:;">const combs =</tspan></tspan><tspan id="SvgjsTspan1754" dy="16" x="94"><tspan id="SvgjsTspan1755" style="text-decoration:;"> getCombsByUsedExports()</tspan></tspan></text></g></g><g id="SvgjsG1756" transform="translate(143,538.7499999999999)"><path id="SvgjsPath1757" d="M0 0L121 0L121 40.5L0 40.5Z " stroke="rgba(50,50,50,1)" stroke-width="2" fill-opacity="1" fill="#ffffff"></path><g id="SvgjsG1758"><text id="SvgjsText1759" font-family="微软雅黑" text-anchor="middle" font-size="13px" width="101px" fill="#323232" font-weight="400" align="middle" lineHeight="125%" font-style="" opacity="1" y="1.625" transform="rotate(0)"><tspan id="SvgjsTspan1760" dy="16" x="60.5"><tspan id="SvgjsTspan1761" style="text-decoration:;">NormalModule=</tspan></tspan><tspan id="SvgjsTspan1762" dy="16" x="60.5"><tspan id="SvgjsTspan1763" style="text-decoration:;">js-cookie</tspan></tspan></text></g></g><g id="SvgjsG1764"><path id="SvgjsPath1765" d="M265 558.9999999999999L310.5 558.9999999999999L310.5 558.9999999999999L353.4 558.9999999999999 " stroke="#323232" stroke-width="2" fill="none" marker-end="url(#SvgjsMarker1766)"></path></g><g id="SvgjsG1768" transform="translate(469,457.9999999999999)"><path id="SvgjsPath1769" d="M102 0Q93 0 93 9L93 96.5Q93 105.5 80 105.5Q93 105.5 93 114.5L93 202Q93 211 102 211 " stroke="rgba(50,50,50,1)" stroke-width="2" fill="none"></path><path id="SvgjsPath1770" d="M0 0L102 0L102 211L0 211Z " stroke="none" fill="none"></path><g id="SvgjsG1771"><text id="SvgjsText1772" font-family="微软雅黑" text-anchor="end" font-size="13px" width="75px" fill="#323232" font-weight="400" align="middle" lineHeight="125%" font-style="" opacity="1" y="94.875" transform="rotate(0)"></text></g></g><g id="SvgjsG1773" transform="translate(576,459.9999999999999)"><path id="SvgjsPath1774" d="M0 0L194 0L194 34L0 34Z " stroke="rgba(50,50,50,1)" stroke-width="2" fill-opacity="1" fill="#ffffff"></path><g id="SvgjsG1775"><text id="SvgjsText1776" font-family="微软雅黑" text-anchor="start" font-size="13px" width="174px" fill="#323232" font-weight="400" align="middle" lineHeight="125%" font-style="" opacity="1" y="6.375" transform="rotate(0)"><tspan id="SvgjsTspan1777" dy="16" x="10"><tspan id="SvgjsTspan1778" style="text-decoration:;">Set(3): app1 app2 app3</tspan></tspan></text></g></g><g id="SvgjsG1779" transform="translate(576,506.9999999999999)"><path id="SvgjsPath1780" d="M0 0L155 0L155 31.5L0 31.5Z " stroke="rgba(50,50,50,1)" stroke-width="2" fill-opacity="1" fill="#ffffff"></path><g id="SvgjsG1781"><text id="SvgjsText1782" font-family="微软雅黑" text-anchor="start" font-size="13px" width="135px" fill="#323232" font-weight="400" align="middle" lineHeight="125%" font-style="" opacity="1" y="5.125" transform="rotate(0)"><tspan id="SvgjsTspan1783" dy="16" x="10"><tspan id="SvgjsTspan1784" style="text-decoration:;">Set(2): : app1 app2</tspan></tspan></text></g></g><g id="SvgjsG1785" transform="translate(576,547.9999999999999)"><path id="SvgjsPath1786" d="M0 0L123.5 0L123.5 31L0 31Z " stroke="rgba(50,50,50,1)" stroke-width="2" fill-opacity="1" fill="#ffffff"></path><g id="SvgjsG1787"><text id="SvgjsText1788" font-family="微软雅黑" text-anchor="middle" font-size="13px" width="104px" fill="#323232" font-weight="400" align="middle" lineHeight="125%" font-style="" opacity="1" y="4.875" transform="rotate(0)"><tspan id="SvgjsTspan1789" dy="16" x="62"><tspan id="SvgjsTspan1790" style="text-decoration:;">Chunk: app1</tspan></tspan></text></g></g><g id="SvgjsG1791" transform="translate(576,591.9999999999999)"><path id="SvgjsPath1792" d="M0 0L123.5 0L123.5 31L0 31Z " stroke="rgba(50,50,50,1)" stroke-width="2" fill-opacity="1" fill="#ffffff"></path><g id="SvgjsG1793"><text id="SvgjsText1794" font-family="微软雅黑" text-anchor="middle" font-size="13px" width="104px" fill="#323232" font-weight="400" align="middle" lineHeight="125%" font-style="" opacity="1" y="4.875" transform="rotate(0)"><tspan id="SvgjsTspan1795" dy="16" x="62"><tspan id="SvgjsTspan1796" style="text-decoration:;">Chunk: app2</tspan></tspan></text></g></g><g id="SvgjsG1797" transform="translate(576,637.9999999999999)"><path id="SvgjsPath1798" d="M0 0L123.5 0L123.5 31L0 31Z " stroke="rgba(50,50,50,1)" stroke-width="2" fill-opacity="1" fill="#ffffff"></path><g id="SvgjsG1799"><text id="SvgjsText1800" font-family="微软雅黑" text-anchor="middle" font-size="13px" width="104px" fill="#323232" font-weight="400" align="middle" lineHeight="125%" font-style="" opacity="1" y="4.875" transform="rotate(0)"><tspan id="SvgjsTspan1801" dy="16" x="62"><tspan id="SvgjsTspan1802" style="text-decoration:;">Chunk: app3</tspan></tspan></text></g></g><g id="SvgjsG1803" transform="translate(264,761.4999999999999)"><path id="SvgjsPath1804" d="M0 0L374 0L374 37.5L0 37.5Z " stroke="none" fill="none"></path><g id="SvgjsG1805"><text id="SvgjsText1806" font-family="微软雅黑" text-anchor="middle" font-size="24px" width="374px" fill="#323232" font-weight="400" align="middle" lineHeight="125%" font-style="" opacity="1" y="-2.25" transform="rotate(0)"><tspan id="SvgjsTspan1807" dy="30" x="187"><tspan id="SvgjsTspan1808" style="text-decoration:;">chunksInfoMap</tspan></tspan></text></g></g><g id="SvgjsG1809" transform="translate(275.5,830.9999999999999)"><path id="SvgjsPath1810" d="M0 0L152 0L152 42.5L0 42.5Z " stroke="rgba(50,50,50,1)" stroke-width="2" fill-opacity="1" fill="#fff9c4"></path><g id="SvgjsG1811"><text id="SvgjsText1812" font-family="微软雅黑" text-anchor="middle" font-size="13px" width="132px" fill="#323232" font-weight="400" align="middle" lineHeight="125%" font-style="" opacity="1" y="10.625" transform="rotate(0)"><tspan id="SvgjsTspan1813" dy="16" x="76"><tspan id="SvgjsTspan1814" style="text-decoration:;">cacheGroup.key</tspan></tspan></text></g></g><g id="SvgjsG1815" transform="translate(446,902.4999999999999)"><path id="SvgjsPath1816" d="M0 0L170 0L170 44L0 44Z " stroke="rgba(50,50,50,1)" stroke-width="2" fill-opacity="1" fill="#ffffff"></path><g id="SvgjsG1817"><text id="SvgjsText1818" font-family="微软雅黑" text-anchor="middle" font-size="12px" width="150px" fill="#323232" font-weight="400" align="middle" lineHeight="125%" font-style="" opacity="1" y="4.5" transform="rotate(0)"><tspan id="SvgjsTspan1819" dy="15" x="85"><tspan id="SvgjsTspan1820" style="text-decoration:;">chunksKeys: 每一个key代</tspan></tspan><tspan id="SvgjsTspan1821" dy="15" x="85"><tspan id="SvgjsTspan1822" style="text-decoration:;">表一个NormalModule</tspan></tspan></text></g></g><g id="SvgjsG1823" transform="translate(446,960.4999999999999)"><path id="SvgjsPath1824" d="M0 0L170 0L170 63.5L0 63.5Z " stroke="rgba(50,50,50,1)" stroke-width="2" fill-opacity="1" fill="#ffffff"></path><g id="SvgjsG1825"><text id="SvgjsText1826" font-family="微软雅黑" text-anchor="middle" font-size="12px" width="150px" fill="#323232" font-weight="400" align="middle" lineHeight="125%" font-style="" opacity="1" y="-0.75" transform="rotate(0)"><tspan id="SvgjsTspan1827" dy="15" x="85"><tspan id="SvgjsTspan1828" style="text-decoration:;">chunks：这些</tspan></tspan><tspan id="SvgjsTspan1829" dy="15" x="85"><tspan id="SvgjsTspan1830" style="text-decoration:;">NormalModule所形成的</tspan></tspan><tspan id="SvgjsTspan1831" dy="15" x="85"><tspan id="SvgjsTspan1832" style="text-decoration:;">chunks集合，由于是Set集</tspan></tspan><tspan id="SvgjsTspan1833" dy="15" x="85"><tspan id="SvgjsTspan1834" style="text-decoration:;">合，有去重机制</tspan></tspan></text></g></g><g id="SvgjsG1835" transform="translate(446,838.9999999999999)"><path id="SvgjsPath1836" d="M0 0L170 0L170 52.5L0 52.5Z " stroke="rgba(50,50,50,1)" stroke-width="2" fill-opacity="1" fill="#ffffff"></path><g id="SvgjsG1837"><text id="SvgjsText1838" font-family="微软雅黑" text-anchor="middle" font-size="12px" width="150px" fill="#323232" font-weight="400" align="middle" lineHeight="125%" font-style="" opacity="1" y="1.25" transform="rotate(0)"><tspan id="SvgjsTspan1839" dy="15" x="85"><tspan id="SvgjsTspan1840" style="text-decoration:;">NormalModule：符合</tspan></tspan><tspan id="SvgjsTspan1841" dy="15" x="85"><tspan id="SvgjsTspan1842" style="text-decoration:;">cacheGroup的所有module</tspan></tspan><tspan id="SvgjsTspan1843" dy="15" x="85"><tspan id="SvgjsTspan1844" style="text-decoration:;">集合</tspan></tspan></text></g></g><g id="SvgjsG1845" transform="translate(471,798.9999999999999)"><path id="SvgjsPath1846" d="M0 0L120 0L120 40L0 40Z " stroke="none" fill="none"></path><g id="SvgjsG1847"><text id="SvgjsText1848" font-family="微软雅黑" text-anchor="middle" font-size="20px" width="120px" fill="#ff0000" font-weight="400" align="middle" lineHeight="125%" font-style="" opacity="1" y="2" transform="rotate(0)"><tspan id="SvgjsTspan1849" dy="25" x="60"><tspan id="SvgjsTspan1850" style="text-decoration:;">value</tspan></tspan></text></g></g><g id="SvgjsG1851" transform="translate(287,798.9999999999999)"><path id="SvgjsPath1852" d="M0 0L120 0L120 40L0 40Z " stroke="none" fill="none"></path><g id="SvgjsG1853"><text id="SvgjsText1854" font-family="微软雅黑" text-anchor="middle" font-size="20px" width="120px" fill="#ff0000" font-weight="400" align="middle" lineHeight="125%" font-style="" opacity="1" y="2" transform="rotate(0)"><tspan id="SvgjsTspan1855" dy="25" x="60"><tspan id="SvgjsTspan1856" style="text-decoration:;">key</tspan></tspan></text></g></g><g id="SvgjsG1857" transform="translate(375,636.4999999999999)"><path id="SvgjsPath1858" d="M0 0L136 0L152 16L152 48L0 48L0 0Z " stroke="none" fill-opacity="1" fill="#fff9c4"></path><path id="SvgjsPath1859" d="M136 0L136 16L152 16Z " stroke="none" fill-opacity="1" fill="#cdcdcd"></path><path id="SvgjsPath1860" d="M0 0L136 0L152 16L152 48L0 48L0 0Z " stroke="none" fill="none"></path><g id="SvgjsG1861"><text id="SvgjsText1862" font-family="微软雅黑" text-anchor="middle" font-size="13px" width="132px" fill="#323232" font-weight="400" align="middle" lineHeight="125%" font-style="" opacity="1" y="13.375" transform="rotate(0)"><tspan id="SvgjsTspan1863" dy="16" x="76"><tspan id="SvgjsTspan1864" style="text-decoration:;">遍历所有cacheGroups</tspan></tspan></text></g></g><g id="SvgjsG1865"><path id="SvgjsPath1866" d="M451 586.9999999999999L451 611.2499999999999L451 611.2499999999999L451 633.8999999999999 " stroke="#323232" stroke-width="2" fill="none" marker-end="url(#SvgjsMarker1867)"></path></g><g id="SvgjsG1869"><path id="SvgjsPath1870" d="M451 685.9999999999999L451 725.4999999999999L451 725.4999999999999L451 764.9999999999999 " stroke="#323232" stroke-width="2" fill="none" marker-end="url(#SvgjsMarker1871)"></path></g><g id="SvgjsG1873" transform="translate(439,707.0864661654134)"><path id="SvgjsPath1874" d="M0 0L120 0L120 23.7593984962406L0 23.7593984962406Z " stroke="none" fill="none"></path><g id="SvgjsG1875"><text id="SvgjsText1876" font-family="微软雅黑" text-anchor="middle" font-size="13px" width="120px" fill="#323232" font-weight="400" align="middle" lineHeight="125%" font-style="" opacity="1" y="-6.7453007518797" transform="rotate(0)"><tspan id="SvgjsTspan1877" dy="16" x="60"><tspan id="SvgjsTspan1878" style="text-decoration:;">最终形成</tspan></tspan><tspan id="SvgjsTspan1879" dy="16" x="60"><tspan id="SvgjsTspan1880" style="text-decoration:;">chunksInfoMap</tspan></tspan></text></g></g><g id="SvgjsG1881" transform="translate(134,407.9999999999999)"><path id="SvgjsPath1882" d="M0 0L652 0L652 33L0 33Z " stroke="none" fill="none"></path><g id="SvgjsG1883"><text id="SvgjsText1884" font-family="微软雅黑" text-anchor="middle" font-size="20px" width="652px" fill="#323232" font-weight="400" align="middle" lineHeight="125%" font-style="" opacity="1" y="-1.5" transform="rotate(0)"><tspan id="SvgjsTspan1885" dy="25" x="326"><tspan id="SvgjsTspan1886" style="text-decoration:;">遍历所有NormalModule</tspan></tspan></text></g></g><g id="SvgjsG1887" transform="translate(24.99999999999997,57)"><path id="SvgjsPath1888" d="M0 0L145 0L145 94L0 94Z " stroke-dasharray="10,6" stroke="rgba(50,50,50,1)" stroke-width="2" fill-opacity="1" fill="#ffffff"></path><g id="SvgjsG1889"><text id="SvgjsText1890" font-family="微软雅黑" text-anchor="middle" font-size="13px" width="125px" fill="#323232" font-weight="400" align="middle" lineHeight="125%" font-style="" opacity="1" y="36.375" transform="rotate(0)"></text></g></g><g id="SvgjsG1891" transform="translate(45.99999999999997,68.99999999999997)"><path id="SvgjsPath1892" d="M0 15.000000000000014C0 -5.000000000000004 30 -5.000000000000004 30 15.000000000000014C30 35.000000000000036 0 35.000000000000036 0 15.000000000000014Z " stroke="rgba(50,50,50,1)" stroke-width="2" fill-opacity="1" fill="#ffffff"></path><g id="SvgjsG1893"><text id="SvgjsText1894" font-family="微软雅黑" text-anchor="middle" font-size="13px" width="10px" fill="#323232" font-weight="400" align="middle" lineHeight="125%" font-style="" opacity="1" y="4.375000000000014" transform="rotate(0)"></text></g></g><g id="SvgjsG1895" transform="translate(62.99999999999997,64)"><path id="SvgjsPath1896" d="M0 0L120 0L120 40L0 40Z " stroke="none" fill="none"></path><g id="SvgjsG1897"><text id="SvgjsText1898" font-family="微软雅黑" text-anchor="middle" font-size="13px" width="120px" fill="#323232" font-weight="400" align="middle" lineHeight="125%" font-style="" opacity="1" y="9.375" transform="rotate(0)"><tspan id="SvgjsTspan1899" dy="16" x="60"><tspan id="SvgjsTspan1900" style="text-decoration:;">代表chunk</tspan></tspan></text></g></g><g id="SvgjsG1901" transform="translate(38.99999999999997,120)"><path id="SvgjsPath1902" d="M0 0L44 0L44 24L0 24Z " stroke="rgba(50,50,50,1)" stroke-width="2" fill-opacity="1" fill="#ffffff"></path><g id="SvgjsG1903"><text id="SvgjsText1904" font-family="微软雅黑" text-anchor="middle" font-size="13px" width="24px" fill="#323232" font-weight="400" align="middle" lineHeight="125%" font-style="" opacity="1" y="1.375" transform="rotate(0)"></text></g></g><g id="SvgjsG1905" transform="translate(62.99999999999997,111)"><path id="SvgjsPath1906" d="M0 0L120 0L120 40L0 40Z " stroke="none" fill="none"></path><g id="SvgjsG1907"><text id="SvgjsText1908" font-family="微软雅黑" text-anchor="middle" font-size="13px" width="120px" fill="#323232" font-weight="400" align="middle" lineHeight="125%" font-style="" opacity="1" y="9.375" transform="rotate(0)"><tspan id="SvgjsTspan1909" dy="16" x="60"><tspan id="SvgjsTspan1910" style="text-decoration:;">代表module</tspan></tspan></text></g></g><g id="SvgjsG1911" transform="translate(428.5,56.999999999999886)"><path id="SvgjsPath1912" d="M0 0L130.5 0L130.5 42L0 42Z " stroke="rgba(50,50,50,1)" stroke-width="2" fill-opacity="1" fill="#ffffff"></path><g id="SvgjsG1913"><text id="SvgjsText1914" font-family="微软雅黑" text-anchor="middle" font-size="13px" width="111px" fill="#323232" font-weight="400" align="middle" lineHeight="125%" font-style="" opacity="1" y="10.375" transform="rotate(0)"><tspan id="SvgjsTspan1915" dy="16" x="65.5"><tspan id="SvgjsTspan1916" style="text-decoration:;">common_____g</tspan></tspan></text></g></g><g id="SvgjsG1917" transform="translate(275.5,128.9999999999999)"><path id="SvgjsPath1918" d="M0 35C0 -11.666666666666666 70 -11.666666666666666 70 35C70 81.66666666666667 0 81.66666666666667 0 35Z " stroke="rgba(50,50,50,1)" stroke-width="2" fill-opacity="1" fill="#bbdefb"></path><g id="SvgjsG1919"><text id="SvgjsText1920" font-family="微软雅黑" text-anchor="middle" font-size="13px" width="50px" fill="#323232" font-weight="400" align="middle" lineHeight="125%" font-style="" opacity="1" y="24.375" transform="rotate(0)"><tspan id="SvgjsTspan1921" dy="16" x="35"><tspan id="SvgjsTspan1922" style="text-decoration:;">app1</tspan></tspan></text></g></g><g id="SvgjsG1923" transform="translate(379.5,128.9999999999999)"><path id="SvgjsPath1924" d="M0 35C0 -11.666666666666666 70 -11.666666666666666 70 35C70 81.66666666666667 0 81.66666666666667 0 35Z " stroke="rgba(50,50,50,1)" stroke-width="2" fill-opacity="1" fill="#ffcdd2"></path><g id="SvgjsG1925"><text id="SvgjsText1926" font-family="微软雅黑" text-anchor="middle" font-size="13px" width="50px" fill="#323232" font-weight="400" align="middle" lineHeight="125%" font-style="" opacity="1" y="24.375" transform="rotate(0)"><tspan id="SvgjsTspan1927" dy="16" x="35"><tspan id="SvgjsTspan1928" style="text-decoration:;">app2</tspan></tspan></text></g></g><g id="SvgjsG1929" transform="translate(505.9999999999999,128.9999999999999)"><path id="SvgjsPath1930" d="M0 35C0 -11.666666666666666 70 -11.666666666666666 70 35C70 81.66666666666667 0 81.66666666666667 0 35Z " stroke="rgba(50,50,50,1)" stroke-width="2" fill-opacity="1" fill="#fff9c4"></path><g id="SvgjsG1931"><text id="SvgjsText1932" font-family="微软雅黑" text-anchor="middle" font-size="13px" width="50px" fill="#323232" font-weight="400" align="middle" lineHeight="125%" font-style="" opacity="1" y="24.375" transform="rotate(0)"><tspan id="SvgjsTspan1933" dy="16" x="35"><tspan id="SvgjsTspan1934" style="text-decoration:;">app3</tspan></tspan></text></g></g><g id="SvgjsG1935" transform="translate(638,128.9999999999999)"><path id="SvgjsPath1936" d="M0 35C0 -11.666666666666666 70 -11.666666666666666 70 35C70 81.66666666666667 0 81.66666666666667 0 35Z " stroke="rgba(50,50,50,1)" stroke-width="2" fill-opacity="1" fill="#ffffff"></path><g id="SvgjsG1937"><text id="SvgjsText1938" font-family="微软雅黑" text-anchor="middle" font-size="13px" width="50px" fill="#323232" font-weight="400" align="middle" lineHeight="125%" font-style="" opacity="1" y="24.375" transform="rotate(0)"><tspan id="SvgjsTspan1939" dy="16" x="35"><tspan id="SvgjsTspan1940" style="text-decoration:;">app4</tspan></tspan></text></g></g><g id="SvgjsG1941" transform="translate(213.5,226.5)"><path id="SvgjsPath1942" d="M0 0L120 0L120 40L0 40Z " stroke="none" fill="none"></path><g id="SvgjsG1943"><text id="SvgjsText1944" font-family="微软雅黑" text-anchor="middle" font-size="13px" width="120px" fill="#ff0000" font-weight="400" align="middle" lineHeight="125%" font-style="" opacity="0.3" y="9.375" transform="rotate(0)"><tspan id="SvgjsTspan1945" dy="16" x="60"><tspan id="SvgjsTspan1946" style="text-decoration:;">node_modules</tspan></tspan></text></g></g><g id="SvgjsG1947" transform="translate(491,226.5)"><path id="SvgjsPath1948" d="M0 0L120 0L120 40L0 40Z " stroke="none" fill="none"></path><g id="SvgjsG1949"><text id="SvgjsText1950" font-family="微软雅黑" text-anchor="middle" font-size="13px" width="120px" fill="#ff0000" font-weight="400" align="middle" lineHeight="125%" font-style="" opacity="0.3" y="9.375" transform="rotate(0)"><tspan id="SvgjsTspan1951" dy="16" x="60"><tspan id="SvgjsTspan1952" style="text-decoration:;">node_modules</tspan></tspan></text></g></g><g id="SvgjsG1953" transform="translate(764,226.5)"><path id="SvgjsPath1954" d="M0 0L120 0L120 40L0 40Z " stroke="none" fill="none"></path><g id="SvgjsG1955"><text id="SvgjsText1956" font-family="微软雅黑" text-anchor="middle" font-size="13px" width="120px" fill="#ff0000" font-weight="400" align="middle" lineHeight="125%" font-style="" opacity="0.3" y="9.375" transform="rotate(0)"><tspan id="SvgjsTspan1957" dy="16" x="60"><tspan id="SvgjsTspan1958" style="text-decoration:;">node_modules</tspan></tspan></text></g></g><g id="SvgjsG1959" transform="translate(552,57)"><path id="SvgjsPath1960" d="M0 0L120 0L120 40L0 40Z " stroke="none" fill="none"></path><g id="SvgjsG1961"><text id="SvgjsText1962" font-family="微软雅黑" text-anchor="middle" font-size="13px" width="120px" fill="#ff0000" font-weight="400" align="middle" lineHeight="125%" font-style="" opacity="0.3" y="9.375" transform="rotate(0)"><tspan id="SvgjsTspan1963" dy="16" x="60"><tspan id="SvgjsTspan1964" style="text-decoration:;">非node_modules</tspan></tspan></text></g></g></svg>