<svg id="SvgjsSvg1937" xmlns="http://www.w3.org/2000/svg" version="1.1" xmlns:xlink="http://www.w3.org/1999/xlink" xmlns:svgjs="http://svgjs.com/svgjs" width="1594" height="842.4375"><defs id="SvgjsDefs1938"><marker id="SvgjsMarker1960" markerWidth="14" markerHeight="10" refX="10" refY="5" viewBox="0 0 14 10" orient="auto" markerUnits="userSpaceOnUse" stroke-dasharray="0,0"><path id="SvgjsPath1961" d="M0 0L14 5L0 10L0 0 " fill="#323232" stroke="#323232" stroke-width="1"></path></marker><marker id="SvgjsMarker1970" markerWidth="14" markerHeight="10" refX="10" refY="5" viewBox="0 0 14 10" orient="auto" markerUnits="userSpaceOnUse" stroke-dasharray="0,0"><path id="SvgjsPath1971" d="M0 0L14 5L0 10L0 0 " fill="#323232" stroke="#323232" stroke-width="1"></path></marker><marker id="SvgjsMarker2054" markerWidth="14" markerHeight="10" refX="10" refY="5" viewBox="0 0 14 10" orient="auto" markerUnits="userSpaceOnUse" stroke-dasharray="0,0"><path id="SvgjsPath2055" d="M0 0L14 5L0 10L0 0 " fill="#323232" stroke="#323232" stroke-width="1"></path></marker><marker id="SvgjsMarker2133" markerWidth="14" markerHeight="10" refX="10" refY="5" viewBox="0 0 14 10" orient="auto" markerUnits="userSpaceOnUse" stroke-dasharray="0,0"><path id="SvgjsPath2134" d="M0 0L14 5L0 10L0 0 " fill="#323232" stroke="#323232" stroke-width="1"></path></marker><marker id="SvgjsMarker2180" markerWidth="14" markerHeight="10" refX="10" refY="5" viewBox="0 0 14 10" orient="auto" markerUnits="userSpaceOnUse" stroke-dasharray="0,0"><path id="SvgjsPath2181" d="M0 0L14 5L0 10L0 0 " fill="#323232" stroke="#323232" stroke-width="1"></path></marker><marker id="SvgjsMarker2184" markerWidth="14" markerHeight="10" refX="10" refY="5" viewBox="0 0 14 10" orient="auto" markerUnits="userSpaceOnUse" stroke-dasharray="0,0"><path id="SvgjsPath2185" d="M0 0L14 5L0 10L0 0 " fill="#323232" stroke="#323232" stroke-width="1"></path></marker><marker id="SvgjsMarker2217" markerWidth="14" markerHeight="10" refX="10" refY="5" viewBox="0 0 14 10" orient="auto" markerUnits="userSpaceOnUse" stroke-dasharray="0,0"><path id="SvgjsPath2218" d="M0 0L14 5L0 10L0 0 " fill="#323232" stroke="#323232" stroke-width="1"></path></marker><marker id="SvgjsMarker2276" markerWidth="14" markerHeight="10" refX="10" refY="5" viewBox="0 0 14 10" orient="auto" markerUnits="userSpaceOnUse" stroke-dasharray="0,0"><path id="SvgjsPath2277" d="M0 0L14 5L0 10L0 0 " fill="#323232" stroke="#323232" stroke-width="1"></path></marker><marker id="SvgjsMarker2280" markerWidth="14" markerHeight="10" refX="10" refY="5" viewBox="0 0 14 10" orient="auto" markerUnits="userSpaceOnUse" stroke-dasharray="0,0"><path id="SvgjsPath2281" d="M0 0L14 5L0 10L0 0 " fill="#323232" stroke="#323232" stroke-width="1"></path></marker><marker id="SvgjsMarker2316" markerWidth="14" markerHeight="10" refX="10" refY="5" viewBox="0 0 14 10" orient="auto" markerUnits="userSpaceOnUse" stroke-dasharray="0,0"><path id="SvgjsPath2317" d="M0 0L14 5L0 10L0 0 " fill="#323232" stroke="#323232" stroke-width="1"></path></marker><marker id="SvgjsMarker2320" markerWidth="14" markerHeight="10" refX="10" refY="5" viewBox="0 0 14 10" orient="auto" markerUnits="userSpaceOnUse" stroke-dasharray="0,0"><path id="SvgjsPath2321" d="M0 0L14 5L0 10L0 0 " fill="#323232" stroke="#323232" stroke-width="1"></path></marker><marker id="SvgjsMarker2352" markerWidth="14" markerHeight="10" refX="10" refY="5" viewBox="0 0 14 10" orient="auto" markerUnits="userSpaceOnUse" stroke-dasharray="0,0"><path id="SvgjsPath2353" d="M0 0L14 5L0 10L0 0 " fill="#323232" stroke="#323232" stroke-width="1"></path></marker><marker id="SvgjsMarker2356" markerWidth="14" markerHeight="10" refX="10" refY="5" viewBox="0 0 14 10" orient="auto" markerUnits="userSpaceOnUse" stroke-dasharray="0,0"><path id="SvgjsPath2357" d="M0 0L14 5L0 10L0 0 " fill="#323232" stroke="#323232" stroke-width="1"></path></marker><marker id="SvgjsMarker2360" markerWidth="14" markerHeight="10" refX="10" refY="5" viewBox="0 0 14 10" orient="auto" markerUnits="userSpaceOnUse" stroke-dasharray="0,0"><path id="SvgjsPath2361" d="M0 0L14 5L0 10L0 0 " fill="#323232" stroke="#323232" stroke-width="1"></path></marker></defs><g id="svgbackgroundid"><defs></defs><rect id="SvgjsRect1940" width="1594" height="842.4375" fill="#ffffff"></rect></g><g id="SvgjsG1942" transform="translate(1250.5,137.875)"><path id="SvgjsPath1943" d="M0 0L154.5 0L154.5 181.625L0 181.625Z " stroke-dasharray="10,6" stroke="rgba(50,50,50,1)" stroke-width="2" fill-opacity="1" fill="#ffcdd2"></path><g id="SvgjsG1944"><text id="SvgjsText1945" font-family="微软雅黑" text-anchor="middle" font-size="13px" width="135px" fill="#323232" font-weight="400" align="middle" lineHeight="125%" font-style="" opacity="1" y="80.1875" transform="rotate(0)"></text></g></g><g id="SvgjsG1946" transform="translate(45.5,30.500000000000014)"><path id="SvgjsPath1947" d="M0 0L116 0L116 42L0 42Z " stroke="rgba(50,50,50,1)" stroke-width="2" fill-opacity="1" fill="#ffffff"></path><g id="SvgjsG1948"><text id="SvgjsText1949" font-family="微软雅黑" text-anchor="middle" font-size="13px" width="96px" fill="#323232" font-weight="400" align="middle" lineHeight="125%" font-style="" opacity="1" y="10.375" transform="rotate(0)"><tspan id="SvgjsTspan1950" dy="16" x="58"><tspan id="SvgjsTspan1951" style="text-decoration:;">createServer()</tspan></tspan></text></g></g><g id="SvgjsG1952" transform="translate(33.5,179.5)"><path id="SvgjsPath1953" d="M0 0L140 0L140 42L0 42Z " stroke="rgba(50,50,50,1)" stroke-width="2" fill-opacity="1" fill="#ffffff"></path><g id="SvgjsG1954"><text id="SvgjsText1955" font-family="微软雅黑" text-anchor="middle" font-size="13px" width="120px" fill="#323232" font-weight="400" align="middle" lineHeight="125%" font-style="" opacity="1" y="10.375" transform="rotate(0)"><tspan id="SvgjsTspan1956" dy="16" x="70"><tspan id="SvgjsTspan1957" style="text-decoration:;">initDepsOptimizer()</tspan></tspan></text></g></g><g id="SvgjsG1958"><path id="SvgjsPath1959" d="M103.5 73.49999999999999L103.5 126L103.5 126L103.5 175.9 " stroke="#323232" stroke-width="2" fill="none" marker-end="url(#SvgjsMarker1960)"></path></g><g id="SvgjsG1962" transform="translate(25,297.5)"><path id="SvgjsPath1963" d="M0 0L157 0L157 39L0 39Z " stroke="rgba(50,50,50,1)" stroke-width="2" fill-opacity="1" fill="#ffffff"></path><g id="SvgjsG1964"><text id="SvgjsText1965" font-family="微软雅黑" text-anchor="middle" font-size="13px" width="137px" fill="#323232" font-weight="400" align="middle" lineHeight="125%" font-style="" opacity="1" y="8.875" transform="rotate(0)"><tspan id="SvgjsTspan1966" dy="16" x="78.5"><tspan id="SvgjsTspan1967" style="text-decoration:;">createDepsOptimizer()</tspan></tspan></text></g></g><g id="SvgjsG1968"><path id="SvgjsPath1969" d="M103.5 222.5L103.5 259.5L103.5 259.5L103.5 293.9 " stroke="#323232" stroke-width="2" fill="none" marker-end="url(#SvgjsMarker1970)"></path></g><g id="SvgjsG1972" transform="translate(214,93.5)"><path id="SvgjsPath1973" d="M0 0L271.5 0L271.5 64L0 64Z " stroke="rgba(50,50,50,1)" stroke-width="2" fill-opacity="1" fill="#ffffff"></path><g id="SvgjsG1974"><text id="SvgjsText1975" font-family="微软雅黑" text-anchor="middle" font-size="13px" width="252px" fill="#323232" font-weight="400" align="middle" lineHeight="125%" font-style="" opacity="1" y="5.375" transform="rotate(0)"><tspan id="SvgjsTspan1976" dy="16" x="136"><tspan id="SvgjsTspan1977" style="text-decoration:;fill: rgb(255, 0, 0);text-decoration: underline;">loadCachedDepOptimizationMetadata()</tspan></tspan><tspan id="SvgjsTspan1978" dy="16" x="136"><tspan id="SvgjsTspan1979" style="text-decoration:;fill: rgb(0, 0, 0);caret-color: rgb(255, 0, 0);">获取.deps文件夹的缓存，如果有缓存并且</tspan></tspan><tspan id="SvgjsTspan1980" dy="16" x="136"><tspan id="SvgjsTspan1981" style="text-decoration:;fill: rgb(0, 0, 0);caret-color: rgb(255, 0, 0);">不过期，直接使用预构建的缓存</tspan></tspan></text></g></g><g id="SvgjsG1982" transform="translate(214,297.5)"><path id="SvgjsPath1983" d="M0 0L271.5 0L271.5 64L0 64Z " stroke="rgba(50,50,50,1)" stroke-width="2" fill-opacity="1" fill="#ffffff"></path><g id="SvgjsG1984"><text id="SvgjsText1985" font-family="微软雅黑" text-anchor="middle" font-size="13px" width="252px" fill="#323232" font-weight="400" align="middle" lineHeight="125%" font-style="" opacity="1" y="5.375" transform="rotate(0)"><tspan id="SvgjsTspan1986" dy="16" x="136"><tspan id="SvgjsTspan1987" style="text-decoration:;fill: rgb(255, 0, 0);text-decoration: underline;">discoverProjectDependencies()</tspan></tspan><tspan id="SvgjsTspan1988" dy="16" x="136"><tspan id="SvgjsTspan1989" style="text-decoration:;fill: rgb(0, 0, 0);caret-color: rgb(255, 0, 0);">获取.deps文件夹的缓存，如果有缓存并且</tspan></tspan><tspan id="SvgjsTspan1990" dy="16" x="136"><tspan id="SvgjsTspan1991" style="text-decoration:;fill: rgb(0, 0, 0);caret-color: rgb(255, 0, 0);">不过期，直接使用预构建的缓存</tspan></tspan></text></g></g><g id="SvgjsG1992" transform="translate(517.5,30.5)"><path id="SvgjsPath1993" d="M0 0L334.5 0L334.5 57L0 57Z " stroke="rgba(50,50,50,1)" stroke-width="2" fill-opacity="1" fill="#ffffff"></path><g id="SvgjsG1994"><text id="SvgjsText1995" font-family="微软雅黑" text-anchor="middle" font-size="13px" width="315px" fill="#323232" font-weight="400" align="middle" lineHeight="125%" font-style="" opacity="1" y="1.875" transform="rotate(0)"><tspan id="SvgjsTspan1996" dy="16" x="167.5"><tspan id="SvgjsTspan1997" style="text-decoration:;fill: rgb(255, 0, 0);text-decoration: underline;">getDepsCacheDir()</tspan></tspan><tspan id="SvgjsTspan1998" dy="16" x="167.5"><tspan id="SvgjsTspan1999" style="text-decoration:;fill: rgb(0, 0, 0);caret-color: rgb(255, 0, 0);">获取缓存的文件夹，即</tspan><tspan id="SvgjsTspan2000" style="text-decoration:;">node_modules/.vite/deps，</tspan></tspan><tspan id="SvgjsTspan2001" dy="16" x="167.5"><tspan id="SvgjsTspan2002" style="text-decoration:;">然后得到_metadata.json数据</tspan></tspan></text></g></g><g id="SvgjsG2003" transform="translate(517,98.5)"><path id="SvgjsPath2004" d="M0 0L335.5 0L335.5 62L0 62Z " stroke="rgba(50,50,50,1)" stroke-width="2" fill-opacity="1" fill="#ffffff"></path><g id="SvgjsG2005"><text id="SvgjsText2006" font-family="微软雅黑" text-anchor="middle" font-size="13px" width="316px" fill="#323232" font-weight="400" align="middle" lineHeight="125%" font-style="" opacity="1" y="4.375" transform="rotate(0)"><tspan id="SvgjsTspan2007" dy="16" x="168"><tspan id="SvgjsTspan2008" style="text-decoration:;text-decoration: underline;fill: rgb(255, 0, 0);">cachedMetadata.hash === getDepHash()</tspan></tspan><tspan id="SvgjsTspan2009" dy="16" x="168"><tspan id="SvgjsTspan2010" style="text-decoration:;fill: rgb(0, 0, 0);caret-color: rgb(255, 0, 0);">获取目前预构建的缓存，然后跟之前缓</tspan></tspan><tspan id="SvgjsTspan2011" dy="16" x="168"><tspan id="SvgjsTspan2012" style="text-decoration:;fill: rgb(0, 0, 0);caret-color: rgb(255, 0, 0);">存</tspan><tspan id="SvgjsTspan2013" style="text-decoration:;">_metadata.json数据的hash属性比对，判断是否过期</tspan></tspan></text></g></g><g id="SvgjsG2014" transform="translate(519.5,172.5)"><path id="SvgjsPath2015" d="M0 0L333 0L333 56L0 56Z " stroke="rgba(50,50,50,1)" stroke-width="2" fill-opacity="1" fill="#ffffff"></path><g id="SvgjsG2016"><text id="SvgjsText2017" font-family="微软雅黑" text-anchor="middle" font-size="13px" width="313px" fill="#323232" font-weight="400" align="middle" lineHeight="125%" font-style="" opacity="1" y="9.375" transform="rotate(0)"><tspan id="SvgjsTspan2018" dy="16" x="166.5"><tspan id="SvgjsTspan2019" style="text-decoration:;">缓存过期或者带了</tspan><tspan id="SvgjsTspan2020" style="text-decoration:;fill: rgb(255, 0, 0);">force=true</tspan><tspan id="SvgjsTspan2021" style="text-decoration:;">参数</tspan></tspan><tspan id="SvgjsTspan2022" dy="16" x="166.5"><tspan id="SvgjsTspan2023" style="text-decoration:;">使用fsp.rm清空缓存文件夹</tspan></tspan></text></g></g><g id="SvgjsG2024" transform="translate(408.5,25)"><path id="SvgjsPath2025" d="M102 0Q93 0 93 9L93 95.5Q93 104.5 80 104.5Q93 104.5 93 113.5L93 200Q93 209 102 209 " stroke="rgba(50,50,50,1)" stroke-width="2" fill="none"></path><path id="SvgjsPath2026" d="M0 0L102 0L102 209L0 209Z " stroke="none" fill="none"></path><g id="SvgjsG2027"><text id="SvgjsText2028" font-family="微软雅黑" text-anchor="end" font-size="13px" width="75px" fill="#323232" font-weight="400" align="middle" lineHeight="125%" font-style="" opacity="1" y="93.875" transform="rotate(0)"></text></g></g><g id="SvgjsG2029" transform="translate(510.4999999999999,296.99999999999994)"><path id="SvgjsPath2030" d="M0 0L271.5 0L271.5 64L0 64Z " stroke="rgba(50,50,50,1)" stroke-width="2" fill-opacity="1" fill="#ffffff"></path><g id="SvgjsG2031"><text id="SvgjsText2032" font-family="微软雅黑" text-anchor="middle" font-size="13px" width="252px" fill="#323232" font-weight="400" align="middle" lineHeight="125%" font-style="" opacity="1" y="5.375" transform="rotate(0)"><tspan id="SvgjsTspan2033" dy="16" x="136"><tspan id="SvgjsTspan2034" style="text-decoration:;fill: rgb(255, 0, 0);text-decoration: underline;">scanImports()</tspan></tspan><tspan id="SvgjsTspan2035" dy="16" x="136"><tspan id="SvgjsTspan2036" style="text-decoration:;fill: rgb(0, 0, 0);caret-color: rgb(255, 0, 0);">获取.deps文件夹的缓存，如果有缓存并且</tspan></tspan><tspan id="SvgjsTspan2037" dy="16" x="136"><tspan id="SvgjsTspan2038" style="text-decoration:;fill: rgb(0, 0, 0);caret-color: rgb(255, 0, 0);">不过期，直接使用预构建的缓存</tspan></tspan></text></g></g><g id="SvgjsG2039" transform="translate(80.66666666666683,87.5)"><path id="SvgjsPath2040" d="M133.5 0Q124.5 0 124.5 9L124.5 219.83333333333314Q124.5 228.83333333333314 111.5 228.83333333333314Q124.5 228.83333333333314 124.5 237.83333333333314L124.5 448.6666666666663Q124.5 457.6666666666663 133.5 457.6666666666663 " stroke="rgba(50,50,50,1)" stroke-width="2" fill="none"></path><path id="SvgjsPath2041" d="M0 0L133.5 0L133.5 457.6666666666663L0 457.6666666666663Z " stroke="none" fill="none"></path><g id="SvgjsG2042"><text id="SvgjsText2043" font-family="微软雅黑" text-anchor="end" font-size="13px" width="107px" fill="#323232" font-weight="400" align="middle" lineHeight="125%" font-style="" opacity="1" y="218.20833333333314" transform="rotate(0)"></text></g></g><g id="SvgjsG2044" transform="translate(811,238.99999999999994)"><path id="SvgjsPath2045" d="M0 0L221.5 0L221.5 47.00000000000006L0 47.00000000000006Z " stroke="rgba(50,50,50,1)" stroke-width="2" fill-opacity="1" fill="#ffffff"></path><g id="SvgjsG2046"><text id="SvgjsText2047" font-family="微软雅黑" text-anchor="middle" font-size="13px" width="202px" fill="#323232" font-weight="400" align="middle" lineHeight="125%" font-style="" opacity="1" y="4.875000000000028" transform="rotate(0)"><tspan id="SvgjsTspan2048" dy="16" x="111"><tspan id="SvgjsTspan2049" style="text-decoration:;text-decoration: underline;fill: rgb(255, 0, 0);">computeEntries()</tspan></tspan><tspan id="SvgjsTspan2050" dy="16" x="111"><tspan id="SvgjsTspan2051" style="text-decoration:;">计算入口文件，一般为index.html</tspan></tspan></text></g></g><g id="SvgjsG2052"><path id="SvgjsPath2053" d="M349.75 158.5L349.75 227.5L349.75 227.5L349.75 293.9 " stroke="#323232" stroke-width="2" fill="none" marker-end="url(#SvgjsMarker2054)"></path></g><g id="SvgjsG2056" transform="translate(810.9999999999999,309.4999999999999)"><path id="SvgjsPath2057" d="M0 0L221.50000000000023 0L221.50000000000023 60.75000000000023L0 60.75000000000023Z " stroke="rgba(50,50,50,1)" stroke-width="2" fill-opacity="1" fill="#ffffff"></path><g id="SvgjsG2058"><text id="SvgjsText2059" font-family="微软雅黑" text-anchor="middle" font-size="13px" width="202px" fill="#323232" font-weight="400" align="middle" lineHeight="125%" font-style="" opacity="1" y="3.7500000000001137" transform="rotate(0)"><tspan id="SvgjsTspan2060" dy="16" x="111"><tspan id="SvgjsTspan2061" style="text-decoration:;fill: rgb(255, 0, 0);text-decoration: underline;">prepareEsbuildScanner()</tspan></tspan><tspan id="SvgjsTspan2062" dy="16" x="111"><tspan id="SvgjsTspan2063" style="text-decoration:;">初始化esbuild打包所传入的</tspan><tspan id="SvgjsTspan2064" style="text-decoration:;fill: rgb(0, 0, 0);font-weight: bold;">plugin</tspan></tspan><tspan id="SvgjsTspan2065" dy="16" x="111"><tspan id="SvgjsTspan2066" style="text-decoration:;fill: rgb(0, 0, 0);">返回await esbuild.context</tspan></tspan></text></g></g><g id="SvgjsG2067" transform="translate(814.9999999999999,398.25)"><path id="SvgjsPath2068" d="M0 0L213.50000000000023 0L213.50000000000023 47L0 47Z " stroke="rgba(50,50,50,1)" stroke-width="2" fill-opacity="1" fill="#ffffff"></path><g id="SvgjsG2069"><text id="SvgjsText2070" font-family="微软雅黑" text-anchor="middle" font-size="13px" width="194px" fill="#323232" font-weight="400" align="middle" lineHeight="125%" font-style="" opacity="1" y="4.875" transform="rotate(0)"><tspan id="SvgjsTspan2071" dy="16" x="107"><tspan id="SvgjsTspan2072" style="text-decoration:;fill: rgb(255, 0, 0);text-decoration: underline;">context.rebuild()</tspan></tspan><tspan id="SvgjsTspan2073" dy="16" x="107"><tspan id="SvgjsTspan2074" style="text-decoration:;">触发esbuild打包</tspan></tspan></text></g></g><g id="SvgjsG2075" transform="translate(706.9999999999999,234.5)"><path id="SvgjsPath2076" d="M100.50000000000011 0Q91.50000000000011 0 91.50000000000011 9L91.50000000000011 96.375Q91.50000000000011 105.375 78.50000000000011 105.375Q91.50000000000011 105.375 91.50000000000011 114.375L91.50000000000011 201.75Q91.50000000000011 210.75 100.50000000000011 210.75 " stroke="rgba(50,50,50,1)" stroke-width="2" fill="none"></path><path id="SvgjsPath2077" d="M0 0L100.50000000000011 0L100.50000000000011 210.75L0 210.75Z " stroke="none" fill="none"></path><g id="SvgjsG2078"><text id="SvgjsText2079" font-family="微软雅黑" text-anchor="end" font-size="13px" width="74px" fill="#323232" font-weight="400" align="middle" lineHeight="125%" font-style="" opacity="1" y="94.75" transform="rotate(0)"></text></g></g><g id="SvgjsG2080" transform="translate(1058,203.1875)"><path id="SvgjsPath2081" d="M0 0L165.5 0L165.5 51L0 51Z " stroke="rgba(50,50,50,1)" stroke-width="2" fill-opacity="1" fill="#ffffff"></path><g id="SvgjsG2082"><text id="SvgjsText2083" font-family="微软雅黑" text-anchor="middle" font-size="13px" width="146px" fill="#323232" font-weight="400" align="middle" lineHeight="125%" font-style="" opacity="1" y="6.875" transform="rotate(0)"><tspan id="SvgjsTspan2084" dy="16" x="83"><tspan id="SvgjsTspan2085" style="text-decoration:;fill: rgb(255, 0, 0);text-decoration: underline;">createPluginContainer()</tspan></tspan><tspan id="SvgjsTspan2086" dy="16" x="83"><tspan id="SvgjsTspan2087" style="text-decoration:;">初始化插件管理类</tspan></tspan></text></g></g><g id="SvgjsG2088" transform="translate(1255.5,142.5)"><path id="SvgjsPath2089" d="M0 0L144.5 0L144.5 43.5L0 43.5Z " stroke="rgba(50,50,50,1)" stroke-width="2" fill-opacity="1" fill="#ffffff"></path><g id="SvgjsG2090"><text id="SvgjsText2091" font-family="微软雅黑" text-anchor="middle" font-size="12px" width="125px" fill="#323232" font-weight="400" align="middle" lineHeight="125%" font-style="" opacity="1" y="4.25" transform="rotate(0)"><tspan id="SvgjsTspan2092" dy="15" x="72.5"><tspan id="SvgjsTspan2093" style="text-decoration:;fill: rgb(255, 0, 0);text-decoration: underline;">container.resolveId()</tspan></tspan><tspan id="SvgjsTspan2094" dy="15" x="72.5"><tspan id="SvgjsTspan2095" style="text-decoration:;">获取路径</tspan></tspan></text></g></g><g id="SvgjsG2096" transform="translate(1255.5,209.6875)"><path id="SvgjsPath2097" d="M0 0L144.5 0L144.5 38L0 38Z " stroke="rgba(50,50,50,1)" stroke-width="2" fill-opacity="1" fill="#ffffff"></path><g id="SvgjsG2098"><text id="SvgjsText2099" font-family="微软雅黑" text-anchor="middle" font-size="12px" width="125px" fill="#323232" font-weight="400" align="middle" lineHeight="125%" font-style="" opacity="1" y="1.5" transform="rotate(0)"><tspan id="SvgjsTspan2100" dy="15" x="72.5"><tspan id="SvgjsTspan2101" style="text-decoration:;fill: rgb(255, 0, 0);text-decoration: underline;">container.load()</tspan></tspan><tspan id="SvgjsTspan2102" dy="15" x="72.5"><tspan id="SvgjsTspan2103" style="text-decoration:;">加载内容</tspan></tspan></text></g></g><g id="SvgjsG2104" transform="translate(1255.5,273)"><path id="SvgjsPath2105" d="M0 0L144.5 0L144.5 39.75L0 39.75Z " stroke="rgba(50,50,50,1)" stroke-width="2" fill-opacity="1" fill="#ffffff"></path><g id="SvgjsG2106"><text id="SvgjsText2107" font-family="微软雅黑" text-anchor="middle" font-size="12px" width="125px" fill="#323232" font-weight="400" align="middle" lineHeight="125%" font-style="" opacity="1" y="2.375" transform="rotate(0)"><tspan id="SvgjsTspan2108" dy="15" x="72.5"><tspan id="SvgjsTspan2109" style="text-decoration:;fill: rgb(255, 0, 0);text-decoration: underline;">container.transform()</tspan></tspan><tspan id="SvgjsTspan2110" dy="15" x="72.5"><tspan id="SvgjsTspan2111" style="text-decoration:;">转化内容</tspan></tspan></text></g></g><g id="SvgjsG2112" transform="translate(1146.5,137.875)"><path id="SvgjsPath2113" d="M102.5 0Q93.5 0 93.5 9L93.5 81.8125Q93.5 90.8125 80.5 90.8125Q93.5 90.8125 93.5 99.8125L93.5 172.625Q93.5 181.625 102.5 181.625 " stroke="rgba(50,50,50,1)" stroke-width="2" fill="none"></path><path id="SvgjsPath2114" d="M0 0L102.5 0L102.5 181.625L0 181.625Z " stroke="none" fill="none"></path><g id="SvgjsG2115"><text id="SvgjsText2116" font-family="微软雅黑" text-anchor="end" font-size="13px" width="76px" fill="#323232" font-weight="400" align="middle" lineHeight="125%" font-style="" opacity="1" y="80.1875" transform="rotate(0)"></text></g></g><g id="SvgjsG2117" transform="translate(409,286)"><path id="SvgjsPath2118" d="M101 0Q92 0 92 8.700000000000001L92 34.8Q92 43.5 79 43.5Q92 43.5 92 52.2L92 78.3Q92 87 101 87 " stroke="rgba(50,50,50,1)" stroke-width="2" fill="none"></path><path id="SvgjsPath2119" d="M0 0L101 0L101 87L0 87Z " stroke="none" fill="none"></path><g id="SvgjsG2120"><text id="SvgjsText2121" font-family="微软雅黑" text-anchor="end" font-size="13px" width="74px" fill="#323232" font-weight="400" align="middle" lineHeight="125%" font-style="" opacity="1" y="32.875" transform="rotate(0)"></text></g></g><g id="SvgjsG2122" transform="translate(1055,408)"><path id="SvgjsPath2123" d="M0 0L171.5 0L171.5 52.5L0 52.5Z " stroke="rgba(50,50,50,1)" stroke-width="2" fill-opacity="1" fill="#ffffff"></path><g id="SvgjsG2124"><text id="SvgjsText2125" font-family="微软雅黑" text-anchor="middle" font-size="13px" width="152px" fill="#323232" font-weight="400" align="middle" lineHeight="125%" font-style="" opacity="1" y="7.625" transform="rotate(0)"><tspan id="SvgjsTspan2126" dy="16" x="86"><tspan id="SvgjsTspan2127" style="text-decoration:;fill: rgb(255, 0, 0);text-decoration: underline;">esbuildScanPlugin()</tspan></tspan><tspan id="SvgjsTspan2128" dy="16" x="86"><tspan id="SvgjsTspan2129" style="text-decoration:;">初始化</tspan><tspan id="SvgjsTspan2130" style="text-decoration:;fill: rgb(13, 71, 161);font-weight: bold;">vite:dep-scan插件</tspan></tspan></text></g></g><g id="SvgjsG2131"><path id="SvgjsPath2132" d="M1140.75 255.1875L1140.75 331.09375L1140.75 331.09375L1140.75 404.4 " stroke="#323232" stroke-width="2" fill="none" marker-end="url(#SvgjsMarker2133)"></path></g><g id="SvgjsG2135" transform="translate(1072,319.5)"><path id="SvgjsPath2136" d="M0 0L137.5 0L137.5 40.75L0 40.75Z " stroke="none" fill="none"></path><g id="SvgjsG2137"><text id="SvgjsText2138" font-family="微软雅黑" text-anchor="middle" font-size="13px" width="138px" fill="#1b5e20" font-weight="700" align="middle" lineHeight="125%" font-style="" opacity="1" y="9.75" transform="rotate(0)"><tspan id="SvgjsTspan2139" dy="16" x="69"><tspan id="SvgjsTspan2140" style="text-decoration:;">传入container作为参数</tspan></tspan></text></g></g><g id="SvgjsG2141" transform="translate(1255.5,344)"><path id="SvgjsPath2142" d="M0 0L144.5 0L144.5 35.5L0 35.5Z " stroke="rgba(50,50,50,1)" stroke-width="2" fill-opacity="1" fill="#ffffff"></path><g id="SvgjsG2143"><text id="SvgjsText2144" font-family="微软雅黑" text-anchor="middle" font-size="12px" width="125px" fill="#323232" font-weight="400" align="middle" lineHeight="125%" font-style="" opacity="1" y="7.75" transform="rotate(0)"><tspan id="SvgjsTspan2145" dy="15" x="72.5"><tspan id="SvgjsTspan2146" style="text-decoration:;fill: rgb(255, 0, 0);">build.onResolve()</tspan></tspan></text></g></g><g id="SvgjsG2147" transform="translate(1255.5,397)"><path id="SvgjsPath2148" d="M0 0L144.5 0L144.5 36L0 36Z " stroke="rgba(50,50,50,1)" stroke-width="2" fill-opacity="1" fill="#ffffff"></path><g id="SvgjsG2149"><text id="SvgjsText2150" font-family="微软雅黑" text-anchor="middle" font-size="12px" width="125px" fill="#323232" font-weight="400" align="middle" lineHeight="125%" font-style="" opacity="1" y="8" transform="rotate(0)"><tspan id="SvgjsTspan2151" dy="15" x="72.5"><tspan id="SvgjsTspan2152" style="text-decoration:;fill: rgb(255, 0, 0);">build.onLoad()</tspan></tspan></text></g></g><g id="SvgjsG2153" transform="translate(1146.5,344)"><path id="SvgjsPath2154" d="M105 0Q96 0 96 9L96 84.625Q96 93.625 83 93.625Q96 93.625 96 102.625L96 178.25Q96 187.25 105 187.25 " stroke="rgba(50,50,50,1)" stroke-width="2" fill="none"></path><path id="SvgjsPath2155" d="M0 0L105 0L105 187.25L0 187.25Z " stroke="none" fill="none"></path><g id="SvgjsG2156"><text id="SvgjsText2157" font-family="微软雅黑" text-anchor="end" font-size="12px" width="78px" fill="#323232" font-weight="400" align="middle" lineHeight="125%" font-style="" opacity="1" y="83.625" transform="rotate(0)"></text></g></g><g id="SvgjsG2158" transform="translate(1255.5,448)"><path id="SvgjsPath2159" d="M0 0L144.5 0L144.5 35.5L0 35.5Z " stroke="rgba(50,50,50,1)" stroke-width="2" fill-opacity="1" fill="#ffffff"></path><g id="SvgjsG2160"><text id="SvgjsText2161" font-family="微软雅黑" text-anchor="middle" font-size="12px" width="125px" fill="#323232" font-weight="400" align="middle" lineHeight="125%" font-style="" opacity="1" y="7.75" transform="rotate(0)"><tspan id="SvgjsTspan2162" dy="15" x="72.5"><tspan id="SvgjsTspan2163" style="text-decoration:;fill: rgb(255, 0, 0);">build.onResolve()</tspan></tspan></text></g></g><g id="SvgjsG2164" transform="translate(1255.5,495.75)"><path id="SvgjsPath2165" d="M0 0L144.5 0L144.5 35.5L0 35.5Z " stroke="rgba(50,50,50,1)" stroke-width="2" fill-opacity="1" fill="#ffffff"></path><g id="SvgjsG2166"><text id="SvgjsText2167" font-family="微软雅黑" text-anchor="middle" font-size="12px" width="125px" fill="#323232" font-weight="400" align="middle" lineHeight="125%" font-style="" opacity="1" y="7.75" transform="rotate(0)"><tspan id="SvgjsTspan2168" dy="15" x="72.5"><tspan id="SvgjsTspan2169" style="text-decoration:;fill: rgb(255, 0, 0);text-decoration: underline;">.....</tspan></tspan></text></g></g><g id="SvgjsG2170" transform="translate(1424,340)"><path id="SvgjsPath2171" d="M0 0L144.5 0L144.5 43.5L0 43.5Z " stroke="rgba(50,50,50,1)" stroke-width="2" fill-opacity="1" fill="#ffffff"></path><g id="SvgjsG2172"><text id="SvgjsText2173" font-family="微软雅黑" text-anchor="middle" font-size="12px" width="125px" fill="#323232" font-weight="400" align="middle" lineHeight="125%" font-style="" opacity="1" y="4.25" transform="rotate(0)"><tspan id="SvgjsTspan2174" dy="15" x="72.5"><tspan id="SvgjsTspan2175" style="text-decoration:;fill: rgb(255, 0, 0);text-decoration: underline;">container.resolveId()</tspan></tspan><tspan id="SvgjsTspan2176" dy="15" x="72.5"><tspan id="SvgjsTspan2177" style="text-decoration:;">获取路径</tspan></tspan></text></g></g><g id="SvgjsG2178"><path id="SvgjsPath2179" d="M1401 361.75L1412 361.75L1412 361.75L1420.4 361.75 " stroke="#323232" stroke-width="2" fill="none" marker-end="url(#SvgjsMarker2180)"></path></g><g id="SvgjsG2182"><path id="SvgjsPath2183" d="M1401 164.25L1496.25 164.25L1496.25 336.4 " stroke-dasharray="3,3" stroke="#323232" stroke-width="2" fill="none" marker-end="url(#SvgjsMarker2184)"></path></g><g id="SvgjsG2186" transform="translate(1411.363636363637,177.1875)"><path id="SvgjsPath2187" d="M0 0L67 0L83 16L83 103L0 103L0 0Z " stroke="none" fill-opacity="1" fill="#fff9c4"></path><path id="SvgjsPath2188" d="M67 0L67 16L83 16Z " stroke="none" fill-opacity="1" fill="#cdcdcd"></path><path id="SvgjsPath2189" d="M0 0L67 0L83 16L83 103L0 103L0 0Z " stroke="none" fill="none"></path><g id="SvgjsG2190"><text id="SvgjsText2191" font-family="微软雅黑" text-anchor="middle" font-size="12px" width="63px" fill="#323232" font-weight="400" align="middle" lineHeight="125%" font-style="" opacity="1" y="19" transform="rotate(0)"><tspan id="SvgjsTspan2192" dy="15" x="41.5"><tspan id="SvgjsTspan2193" style="text-decoration:;">多个插件的</tspan></tspan><tspan id="SvgjsTspan2194" dy="15" x="41.5"><tspan id="SvgjsTspan2195" style="text-decoration:;">resolveId()</tspan></tspan><tspan id="SvgjsTspan2196" dy="15" x="41.5"><tspan id="SvgjsTspan2197" style="text-decoration:;">load()</tspan></tspan><tspan id="SvgjsTspan2198" dy="15" x="41.5"><tspan id="SvgjsTspan2199" style="text-decoration:;">transform()</tspan></tspan></text></g></g><g id="SvgjsG2200" transform="translate(960.3333333333333,186.20833333333331)"><path id="SvgjsPath2201" d="M97.5 0Q88.5 0 88.5 9L88.5 144.66666666666669Q88.5 153.66666666666669 75.5 153.66666666666669Q88.5 153.66666666666669 88.5 162.66666666666669L88.5 298.33333333333337Q88.5 307.33333333333337 97.5 307.33333333333337 " stroke="rgba(50,50,50,1)" stroke-width="2" fill="none"></path><path id="SvgjsPath2202" d="M0 0L97.5 0L97.5 307.33333333333337L0 307.33333333333337Z " stroke="none" fill="none"></path><g id="SvgjsG2203"><text id="SvgjsText2204" font-family="微软雅黑" text-anchor="end" font-size="13px" width="71px" fill="#323232" font-weight="400" align="middle" lineHeight="125%" font-style="" opacity="1" y="143.04166666666669" transform="rotate(0)"></text></g></g><g id="SvgjsG2205" transform="translate(214,472.1880341880339)"><path id="SvgjsPath2206" d="M0 0L271.5 0L271.5 64L0 64Z " stroke="rgba(50,50,50,1)" stroke-width="2" fill-opacity="1" fill="#ffffff"></path><g id="SvgjsG2207"><text id="SvgjsText2208" font-family="微软雅黑" text-anchor="middle" font-size="13px" width="252px" fill="#323232" font-weight="400" align="middle" lineHeight="125%" font-style="" opacity="1" y="5.375" transform="rotate(0)"><tspan id="SvgjsTspan2209" dy="16" x="136"><tspan id="SvgjsTspan2210" style="text-decoration:;text-decoration: underline;fill: rgb(255, 0, 0);">runOptimizeDeps()</tspan></tspan><tspan id="SvgjsTspan2211" dy="16" x="136"><tspan id="SvgjsTspan2212" style="text-decoration:;">依赖扫描后进行打包，将deps打包</tspan></tspan><tspan id="SvgjsTspan2213" dy="16" x="136"><tspan id="SvgjsTspan2214" style="text-decoration:;">到node_modules/.vite/deps中</tspan></tspan></text></g></g><g id="SvgjsG2215"><path id="SvgjsPath2216" d="M349.75 362.5L349.75 416.844017094017L349.74999999999994 416.844017094017L349.74999999999994 468.5880341880339 " stroke="#323232" stroke-width="2" fill="none" marker-end="url(#SvgjsMarker2217)"></path></g><g id="SvgjsG2219" transform="translate(1251.5,93.5)"><path id="SvgjsPath2220" d="M0 0L152.5 0L152.5 38.10227272727275L0 38.10227272727275Z " stroke="none" fill="none"></path><g id="SvgjsG2221"><text id="SvgjsText2222" font-family="微软雅黑" text-anchor="middle" font-size="13px" width="153px" fill="#ff0000" font-weight="700" align="middle" lineHeight="125%" font-style="" opacity="1" y="0.42613636363637397" transform="rotate(0)"><tspan id="SvgjsTspan2223" dy="16" x="76.5"><tspan id="SvgjsTspan2224" style="text-decoration:;">工具方法，实际是调</tspan></tspan><tspan id="SvgjsTspan2225" dy="16" x="76.5"><tspan id="SvgjsTspan2226" style="text-decoration:;">用plugin.xxxx</tspan></tspan></text></g></g><g id="SvgjsG2227" transform="translate(256.461538461538,381.42307692307696)"><path id="SvgjsPath2228" d="M0 0L202.53846153846155 0L202.53846153846155 38.57692307692304L0 38.57692307692304Z " stroke="none" fill="none"></path><g id="SvgjsG2229"><text id="SvgjsText2230" font-family="微软雅黑" text-anchor="middle" font-size="13px" width="203px" fill="#1b5e20" font-weight="700" align="middle" lineHeight="125%" font-style="" opacity="1" y="0.6634615384615188" transform="rotate(0)"><tspan id="SvgjsTspan2231" dy="16" x="101.5"><tspan id="SvgjsTspan2232" style="text-decoration:;">找到所有node_modeuls的依赖，</tspan></tspan><tspan id="SvgjsTspan2233" dy="16" x="101.5"><tspan id="SvgjsTspan2234" style="text-decoration:;">放在deps中</tspan></tspan></text></g></g><g id="SvgjsG2235" transform="translate(514.6581196581205,409.3440170940172)"><path id="SvgjsPath2236" d="M0 0L206.83333333333303 0L206.83333333333303 35.88888888888897L0 35.88888888888897Z " stroke="rgba(50,50,50,1)" stroke-width="2" fill-opacity="1" fill="#ffffff"></path><g id="SvgjsG2237"><text id="SvgjsText2238" font-family="微软雅黑" text-anchor="middle" font-size="13px" width="187px" fill="#323232" font-weight="400" align="middle" lineHeight="125%" font-style="" opacity="1" y="7.3194444444444855" transform="rotate(0)"><tspan id="SvgjsTspan2239" dy="16" x="103.5"><tspan id="SvgjsTspan2240" style="text-decoration:;caret-color: rgb(255, 0, 0);fill: rgb(0, 0, 0);">处理_metadata.json相关数据</tspan></tspan></text></g></g><g id="SvgjsG2241" transform="translate(514.6581196581204,472.1880341880339)"><path id="SvgjsPath2242" d="M0 0L206.83333333333314 0L206.83333333333314 51.66666666666663L0 51.66666666666663Z " stroke="rgba(50,50,50,1)" stroke-width="2" fill-opacity="1" fill="#ffffff"></path><g id="SvgjsG2243"><text id="SvgjsText2244" font-family="微软雅黑" text-anchor="middle" font-size="13px" width="187px" fill="#323232" font-weight="400" align="middle" lineHeight="125%" font-style="" opacity="1" y="7.208333333333314" transform="rotate(0)"><tspan id="SvgjsTspan2245" dy="16" x="103.5"><tspan id="SvgjsTspan2246" style="text-decoration:;text-decoration: underline;fill: rgb(255, 0, 0);">prepareEsbuildOptimizerRun()</tspan></tspan><tspan id="SvgjsTspan2247" dy="16" x="103.5"><tspan id="SvgjsTspan2248" style="text-decoration:;fill: rgb(0, 0, 0);">esbuild打包初始化</tspan></tspan></text></g></g><g id="SvgjsG2249" transform="translate(514.6581196581205,550.8098290598285)"><path id="SvgjsPath2250" d="M0 0L206.8333333333328 0L206.8333333333328 44.277777777778056L0 44.277777777778056Z " stroke="rgba(50,50,50,1)" stroke-width="2" fill-opacity="1" fill="#ffffff"></path><g id="SvgjsG2251"><text id="SvgjsText2252" font-family="微软雅黑" text-anchor="middle" font-size="13px" width="187px" fill="#323232" font-weight="400" align="middle" lineHeight="125%" font-style="" opacity="1" y="3.513888888889028" transform="rotate(0)"><tspan id="SvgjsTspan2253" dy="16" x="103.5"><tspan id="SvgjsTspan2254" style="text-decoration:;fill: rgb(0, 0, 0);caret-color: rgb(255, 0, 0);">开始打包，并且把打包结果同步</tspan></tspan><tspan id="SvgjsTspan2255" dy="16" x="103.5"><tspan id="SvgjsTspan2256" style="text-decoration:;fill: rgb(0, 0, 0);caret-color: rgb(255, 0, 0);">更新到_metadata.json中</tspan></tspan></text></g></g><g id="SvgjsG2257" transform="translate(409,408)"><path id="SvgjsPath2258" d="M103.16666666666674 0Q94.16666666666674 0 94.16666666666674 9L94.16666666666674 86.25Q94.16666666666674 95.25 81.16666666666674 95.25Q94.16666666666674 95.25 94.16666666666674 104.25L94.16666666666674 181.5Q94.16666666666674 190.5 103.16666666666674 190.5 " stroke="rgba(50,50,50,1)" stroke-width="2" fill="none"></path><path id="SvgjsPath2259" d="M0 0L103.16666666666674 0L103.16666666666674 190.5L0 190.5Z " stroke="none" fill="none"></path><g id="SvgjsG2260"><text id="SvgjsText2261" font-family="微软雅黑" text-anchor="end" font-size="13px" width="77px" fill="#323232" font-weight="400" align="middle" lineHeight="125%" font-style="" opacity="1" y="84.625" transform="rotate(0)"></text></g></g><g id="SvgjsG2262" transform="translate(182,671.5300228483845)"><path id="SvgjsPath2263" d="M0 0L224.0000000000001 0L240.0000000000001 16L240.0000000000001 100.00000000000023L0 100.00000000000023L0 0Z " stroke="none" fill-opacity="1" fill="#ffe0b2"></path><path id="SvgjsPath2264" d="M224.0000000000001 0L224.0000000000001 16L240.0000000000001 16Z " stroke="none" fill-opacity="1" fill="#cdcdcd"></path><path id="SvgjsPath2265" d="M0 0L224.0000000000001 0L240.0000000000001 16L240.0000000000001 100.00000000000023L0 100.00000000000023L0 0Z " stroke="none" fill="none"></path><g id="SvgjsG2266"><text id="SvgjsText2267" font-family="微软雅黑" text-anchor="middle" font-size="13px" width="221px" fill="#323232" font-weight="400" align="middle" lineHeight="125%" font-style="" opacity="1" y="23.375000000000114" transform="rotate(0)"><tspan id="SvgjsTspan2268" dy="16" x="120.5"><tspan id="SvgjsTspan2269" style="text-decoration:;">这个过程设置bundle:true</tspan></tspan><tspan id="SvgjsTspan2270" dy="16" x="120.5"><tspan id="SvgjsTspan2271" style="text-decoration:;">打包一个文件意味着将任何导入的依赖</tspan></tspan><tspan id="SvgjsTspan2272" dy="16" x="120.5"><tspan id="SvgjsTspan2273" style="text-decoration:;">项内联到文件中</tspan></tspan></text></g></g><g id="SvgjsG2274"><path id="SvgjsPath2275" d="M618.0747863247873 446.23290598290595L618.0747863247873 458.7104700854699L618.0747863247873 458.7104700854699L618.0747863247873 468.5880341880339 " stroke="#323232" stroke-width="2" fill="none" marker-end="url(#SvgjsMarker2276)"></path></g><g id="SvgjsG2278"><path id="SvgjsPath2279" d="M618.0747863247873 524.8547008547007L618.0747863247873 537.3322649572646L618.0747863247872 537.3322649572646L618.0747863247872 547.2098290598285 " stroke="#323232" stroke-width="2" fill="none" marker-end="url(#SvgjsMarker2280)"></path></g><g id="SvgjsG2282" transform="translate(790.6666666666669,620.4489345856571)"><path id="SvgjsPath2283" d="M0 0L435.1666666666665 0L451.1666666666665 16L451.1666666666665 196.60662096989915L0 196.60662096989915L0 0Z " stroke="none" fill-opacity="1" fill="#fff9c4"></path><path id="SvgjsPath2284" d="M435.1666666666665 0L435.1666666666665 16L451.1666666666665 16Z " stroke="none" fill-opacity="1" fill="#cdcdcd"></path><path id="SvgjsPath2285" d="M0 0L435.1666666666665 0L451.1666666666665 16L451.1666666666665 196.60662096989915L0 196.60662096989915L0 0Z " stroke="none" fill="none"></path><g id="SvgjsG2286"><text id="SvgjsText2287" font-family="微软雅黑" text-anchor="start" font-size="12px" width="432px" fill="#323232" font-weight="400" align="middle" lineHeight="125%" font-style="" opacity="1" y="20.803310484949577" transform="rotate(0)"><tspan id="SvgjsTspan2288" dy="15" x="10"><tspan id="SvgjsTspan2289" style="text-decoration:;">    return await esbuild.context({</tspan></tspan><tspan id="SvgjsTspan2290" dy="15" x="10"><tspan id="SvgjsTspan2291" style="text-decoration:;">        write: false,</tspan></tspan><tspan id="SvgjsTspan2292" dy="15" x="10"><tspan id="SvgjsTspan2293" style="text-decoration:;">        stdin: {</tspan></tspan><tspan id="SvgjsTspan2294" dy="15" x="10"><tspan id="SvgjsTspan2295" style="text-decoration:;">            contents: entries.map((e) =&gt; `import ${JSON.stringify(e)}`).join('\n'),</tspan></tspan><tspan id="SvgjsTspan2296" dy="15" x="10"><tspan id="SvgjsTspan2297" style="text-decoration:;">            loader: 'js',</tspan></tspan><tspan id="SvgjsTspan2298" dy="15" x="10"><tspan id="SvgjsTspan2299" style="text-decoration:;">        },</tspan></tspan><tspan id="SvgjsTspan2300" dy="15" x="10"><tspan id="SvgjsTspan2301" style="text-decoration:;">        bundle: true,</tspan></tspan><tspan id="SvgjsTspan2302" dy="15" x="10"><tspan id="SvgjsTspan2303" style="text-decoration:;">        format: 'esm',</tspan></tspan><tspan id="SvgjsTspan2304" dy="15" x="10"><tspan id="SvgjsTspan2305" style="text-decoration:;">        plugins: [...plugins, plugin],</tspan></tspan><tspan id="SvgjsTspan2306" dy="15" x="10"><tspan id="SvgjsTspan2307" style="text-decoration:;">    });</tspan></tspan></text></g></g><g id="SvgjsG2308" transform="translate(938.7129004466469,613.9512442688241)"><path id="SvgjsPath2309" d="M0 0L155.74086577337607 0L155.74086577337607 39.045513732686004L0 39.045513732686004Z " stroke="none" fill="none"></path><g id="SvgjsG2310"><text id="SvgjsText2311" font-family="微软雅黑" text-anchor="middle" font-size="13px" width="156px" fill="#ff0000" font-weight="700" align="middle" lineHeight="125%" font-style="" opacity="1" y="8.897756866343002" transform="rotate(0)"><tspan id="SvgjsTspan2312" dy="16" x="78"><tspan id="SvgjsTspan2313" style="text-decoration:;">第一次esbuild打包</tspan></tspan></text></g></g><g id="SvgjsG2314"><path id="SvgjsPath2315" d="M921.75 371.2500000000001L921.75 384.25000000000006L921.75 384.25000000000006L921.75 394.65 " stroke="#323232" stroke-width="2" fill="none" marker-end="url(#SvgjsMarker2316)"></path></g><g id="SvgjsG2318"><path id="SvgjsPath2319" d="M921.75 287L921.75 297.74999999999994L921.75 297.74999999999994L921.75 305.89999999999986 " stroke="#323232" stroke-width="2" fill="none" marker-end="url(#SvgjsMarker2320)"></path></g><g id="SvgjsG2322" transform="translate(460.4914529914546,628.8184843868464)"><path id="SvgjsPath2323" d="M0 0L299.1666666666647 0L315.1666666666647 16L315.1666666666647 185.42307692307656L0 185.42307692307656L0 0Z " stroke="none" fill-opacity="1" fill="#fff9c4"></path><path id="SvgjsPath2324" d="M299.1666666666647 0L299.1666666666647 16L315.1666666666647 16Z " stroke="none" fill-opacity="1" fill="#cdcdcd"></path><path id="SvgjsPath2325" d="M0 0L299.1666666666647 0L315.1666666666647 16L315.1666666666647 185.42307692307656L0 185.42307692307656L0 0Z " stroke="none" fill="none"></path><g id="SvgjsG2326"><text id="SvgjsText2327" font-family="微软雅黑" text-anchor="start" font-size="13px" width="296px" fill="#323232" font-weight="400" align="middle" lineHeight="125%" font-style="" opacity="1" y="26.086538461538282" transform="rotate(0)"><tspan id="SvgjsTspan2328" dy="16" x="10"><tspan id="SvgjsTspan2329" style="text-decoration:;">    const context = await esbuild.context({        </tspan></tspan><tspan id="SvgjsTspan2330" dy="16" x="10"><tspan id="SvgjsTspan2331" style="text-decoration:;">        entryPoints: Object.keys(flatIdDeps),</tspan></tspan><tspan id="SvgjsTspan2332" dy="16" x="10"><tspan id="SvgjsTspan2333" style="text-decoration:;">        outdir: processingCacheDir,</tspan></tspan><tspan id="SvgjsTspan2334" dy="16" x="10"><tspan id="SvgjsTspan2335" style="text-decoration:;">        bundle: true,</tspan></tspan><tspan id="SvgjsTspan2336" dy="16" x="10"><tspan id="SvgjsTspan2337" style="text-decoration:;">        format: 'esm',</tspan></tspan><tspan id="SvgjsTspan2338" dy="16" x="10"><tspan id="SvgjsTspan2339" style="text-decoration:;">        plugins,</tspan></tspan><tspan id="SvgjsTspan2340" dy="16" x="10"><tspan id="SvgjsTspan2341" style="text-decoration:;">        ...</tspan></tspan><tspan id="SvgjsTspan2342" dy="16" x="10"><tspan id="SvgjsTspan2343" style="text-decoration:;">    });</tspan></tspan></text></g></g><g id="SvgjsG2344" transform="translate(558.0747863247869,620.4489345856571)"><path id="SvgjsPath2345" d="M0 0L120 0L120 40L0 40Z " stroke="none" fill="none"></path><g id="SvgjsG2346"><text id="SvgjsText2347" font-family="微软雅黑" text-anchor="middle" font-size="13px" width="120px" fill="#ff0000" font-weight="700" align="middle" lineHeight="125%" font-style="" opacity="1" y="9.375" transform="rotate(0)"><tspan id="SvgjsTspan2348" dy="16" x="60"><tspan id="SvgjsTspan2349" style="text-decoration:;">第二次esbuild打包</tspan></tspan></text></g></g><g id="SvgjsG2350"><path id="SvgjsPath2351" d="M618.0747863247869 596.0876068376066L618.0747863247869 611.9530456122266L618.0747863247869 611.9530456122266L618.0747863247869 626.2184843868464 " stroke="#323232" stroke-width="2" fill="none" marker-end="url(#SvgjsMarker2352)"></path></g><g id="SvgjsG2354"><path id="SvgjsPath2355" d="M421.9999999999998 721.5300228483846L441.24572649572724 721.5300228483846L441.24572649572724 721.5300228483856L457.89145299145457 721.5300228483856 " stroke-dasharray="3,3" stroke="#323232" stroke-width="2" fill="none" marker-end="url(#SvgjsMarker2356)"></path></g><g id="SvgjsG2358"><path id="SvgjsPath2359" d="M921.75 446.25L921.75 532.8494672928285L1016.2499999999998 532.8494672928285L1016.2499999999998 617.848934585657 " stroke="#323232" stroke-width="2" fill="none" marker-end="url(#SvgjsMarker2360)"></path></g><g id="SvgjsG2362" transform="translate(1250.5,745.5)"><path id="SvgjsPath2363" d="M0 0L185 0L185 44.31196581196605L0 44.31196581196605Z " stroke="none" fill="none"></path><g id="SvgjsG2364"><text id="SvgjsText2365" font-family="微软雅黑" text-anchor="middle" font-size="13px" width="185px" fill="#323232" font-weight="400" align="middle" lineHeight="125%" font-style="" opacity="0.4" y="11.530982905983024" transform="rotate(0)"><tspan id="SvgjsTspan2366" dy="16" x="92.5"><tspan id="SvgjsTspan2367" style="text-decoration:;">https://github.com/wbccb</tspan></tspan></text></g></g><g id="SvgjsG2368" transform="translate(33.666666666666856,598.5)"><path id="SvgjsPath2369" d="M0 0L180.5 0L180.5 40L0 40Z " stroke="none" fill="none"></path><g id="SvgjsG2370"><text id="SvgjsText2371" font-family="微软雅黑" text-anchor="middle" font-size="13px" width="181px" fill="#323232" font-weight="400" align="middle" lineHeight="125%" font-style="" opacity="0.6" y="9.375" transform="rotate(0)"><tspan id="SvgjsTspan2372" dy="16" x="90.5"><tspan id="SvgjsTspan2373" style="text-decoration:;">https://github.com/wbccb</tspan></tspan></text></g></g><g id="SvgjsG2374" transform="translate(758.2129004466469,545.1666666666663)"><path id="SvgjsPath2375" d="M0 0L180.5 0L180.5 40L0 40Z " stroke="none" fill="none"></path><g id="SvgjsG2376"><text id="SvgjsText2377" font-family="微软雅黑" text-anchor="middle" font-size="13px" width="181px" fill="#323232" font-weight="400" align="middle" lineHeight="125%" font-style="" opacity="0.2" y="9.375" transform="rotate(0)"><tspan id="SvgjsTspan2378" dy="16" x="90.5"><tspan id="SvgjsTspan2379" style="text-decoration:;">https://github.com/wbccb</tspan></tspan></text></g></g><g id="SvgjsG2380" transform="translate(901.3333333333348,120.5)"><path id="SvgjsPath2381" d="M0 0L180.5 0L180.5 40L0 40Z " stroke="none" fill="none"></path><g id="SvgjsG2382"><text id="SvgjsText2383" font-family="微软雅黑" text-anchor="middle" font-size="13px" width="181px" fill="#323232" font-weight="400" align="middle" lineHeight="125%" font-style="" opacity="0.2" y="9.375" transform="rotate(0)"><tspan id="SvgjsTspan2384" dy="16" x="90.5"><tspan id="SvgjsTspan2385" style="text-decoration:;">https://github.com/wbccb</tspan></tspan></text></g></g></svg>